<svg width="498" height="256" viewBox="0 0 498 256" fill="none" xmlns="http://www.w3.org/2000/svg">
<g clip-path="url(#clip0_103_12573)">
<path d="M400.832 255.014C400.832 255.014 451.983 259.979 467.301 229.474C489.57 185.13 445.343 150.285 412.533 156.649C341.038 170.514 358.255 17.5634 243.516 48.7787C211.252 57.5564 124.082 5.41501 99.7693 89.0202C93.9885 108.9 73.5048 111.09 43.7722 123.706C-14.4201 148.394 12.1871 255.431 53.7681 255.853C95.3491 256.27 400.832 255.014 400.832 255.014Z" fill="#BABAD8"/>
<path d="M242.488 89.1893L237.357 89.072C239.006 91.2058 239.377 93.1706 238.349 94.833C237.323 96.5293 234.867 97.9233 231.197 98.9813C233.974 91.6075 235.371 83.832 235.371 75.8537C235.371 66.9189 233.622 58.2525 230.156 50.1052C226.825 42.2283 222.046 35.1409 215.957 29.0776C209.867 22.9984 202.783 18.2277 194.893 14.8849C186.716 11.4426 178.035 9.69458 169.101 9.69458C160.151 9.69458 151.47 11.4406 143.292 14.8849C142.316 15.3045 141.34 15.742 140.398 16.1954C140.396 16.1973 140.392 16.1993 140.39 16.1993C137.539 15.3303 134.763 14.6184 132.085 14.0775C118.564 11.3372 108.968 13.2303 105.07 19.4089C101.361 25.2833 103.381 34.1267 110.741 44.4416C110.741 44.4436 110.739 44.4456 110.739 44.4456C109.747 46.2771 108.855 48.1583 108.03 50.1052C107.408 51.5668 106.853 53.0284 106.347 54.5219C92.5163 55.3452 85.114 57.7752 82.4228 62.1741C79.2934 67.2967 83.5662 74.1713 97.2453 80.8571C99.1297 81.7818 101.148 82.6866 103.269 83.5954C103.976 89.7939 105.574 95.8234 108.03 101.6C111.361 109.477 116.139 116.565 122.229 122.646C128.319 128.709 135.402 133.48 143.292 136.821C151.47 140.263 160.151 142.011 169.101 142.011C178.035 142.011 186.716 140.265 194.893 136.821C202.783 133.478 209.867 128.709 215.957 122.646C221.879 116.734 226.572 109.847 229.887 102.223C236.634 100.829 241.076 98.6452 242.841 95.7557C244.07 93.7572 243.916 91.5399 242.488 89.1893ZM226.656 100.021C222.164 100.827 216.56 101.298 210.016 101.366C199.861 101.489 188.198 100.689 175.907 99.0708C176.941 96.8236 177.955 94.5129 178.945 92.1504C182.76 93.4251 186.461 94.4333 189.991 95.1472C194.035 95.9665 197.726 96.3722 201.021 96.3722C208.742 96.3722 214.273 94.147 217.006 89.8177C217.457 89.1038 217.823 88.3482 218.106 87.5487H214.17C214.104 87.6681 214.034 87.7874 213.963 87.9027C211.933 91.1183 207.397 92.7808 201.031 92.7788C197.985 92.7788 194.517 92.399 190.708 91.6274C187.387 90.9552 183.903 90.0107 180.312 88.8195C181.26 86.453 182.18 84.0388 183.071 81.5909C185.469 74.9867 187.525 68.4402 189.186 62.1522C196.76 63.2658 204.887 63.8266 213.524 63.8266C218.901 63.8266 224.476 63.6098 230.235 63.1763C231.09 67.3146 231.522 71.5504 231.522 75.8517C231.518 84.2337 229.887 92.3632 226.656 100.021ZM144.649 132.82C142.735 132.127 141.763 129.383 141.284 127.204C140.529 123.759 140.392 118.923 140.89 113.216C141.141 110.33 141.545 107.26 142.089 104.05C149.936 106.138 157.706 108.823 165.274 112.058C163.569 114.992 161.846 117.712 160.123 120.178C156.84 124.877 153.629 128.502 150.838 130.66C149.069 132.03 146.563 133.512 144.649 132.82ZM167.007 108.988C159.087 105.581 150.944 102.766 142.721 100.592C143.012 99.1026 143.328 97.5853 143.673 96.0481C145.96 96.5671 148.278 97.0702 150.627 97.5535C157.499 98.9574 164.356 100.149 171.065 101.111C169.736 103.857 168.38 106.488 167.007 108.988ZM152.141 95.0677C149.486 94.5228 146.868 93.9521 144.296 93.3615C145.507 88.3323 146.994 83.0883 148.731 77.7469C157.756 83.2852 166.935 87.7914 175.625 90.989C174.535 93.5882 173.415 96.1217 172.27 98.5736C165.671 97.627 158.918 96.4538 152.141 95.0677ZM130.097 27.1824C130.673 28.3577 131.466 29.8154 132.538 31.4679C137.099 38.5076 143.127 43.6104 147.378 46.6509C149.82 48.3969 152.426 50.0157 155.187 51.5051C152.667 56.9878 150.264 62.8402 148.057 68.9154C147.645 70.049 147.246 71.1785 146.854 72.308C133.669 63.7411 122.506 53.9094 115.183 44.3939C115.183 44.3919 115.181 44.3919 115.179 44.3899C117.012 41.2678 119.115 38.3127 121.468 35.5426C122.444 34.4011 123.454 33.2915 124.514 32.2176C124.665 32.0665 124.801 31.9332 124.952 31.7801C126.591 30.1455 128.309 28.6142 130.097 27.1824ZM186.477 17.6868C188.391 18.3788 189.363 21.1231 189.841 23.3027C190.596 26.7469 190.734 31.5832 190.236 37.2906C189.692 43.5368 188.439 50.6321 186.573 58.1889C184.32 57.8031 182.12 57.3636 179.979 56.8724C172.577 55.1741 165.83 52.8495 159.804 49.9282C163.4 42.443 167.202 35.7673 171.003 30.3264C174.286 25.6273 177.497 22.0041 180.288 19.8445C181.744 18.7169 183.704 17.5118 185.421 17.5118C185.786 17.5118 186.14 17.5655 186.477 17.6868ZM178.951 60.2312C181.144 60.7403 183.397 61.1897 185.7 61.5914C184.083 67.6706 182.089 74.0023 179.766 80.3957C178.869 82.8596 177.943 85.2857 176.989 87.6641C168.264 84.4664 159.003 79.8926 149.9 74.2429C150.37 72.8688 150.856 71.4927 151.358 70.1106C153.515 64.1706 155.858 58.4553 158.314 53.1C164.503 56.0949 171.403 58.4832 178.951 60.2312ZM213.23 31.7801C218.966 37.5073 223.476 44.1751 226.622 51.5986C227.743 54.2514 228.675 56.9619 229.413 59.7201C215.022 60.7701 201.837 60.44 190.051 58.7377C191.921 51.1094 193.18 43.9325 193.732 37.5928C194.341 30.5929 194.268 22.3004 191.425 17.6351C192.084 17.8877 192.74 18.1521 193.393 18.4266C200.831 21.5686 207.51 26.0529 213.23 31.7801ZM169.101 13.5246C173.425 13.5246 177.678 13.9582 181.836 14.8212C176.931 16.953 171.925 22.8831 168.125 28.3219C164.234 33.888 160.352 40.701 156.683 48.3254C154.209 46.983 151.866 45.5333 149.667 43.9743C139.233 36.5846 134.635 28.6182 132.964 25.0188C135.524 23.2012 138.213 21.5785 141.027 20.1626H141.029C142.175 19.5859 143.344 19.045 144.529 18.5379C144.617 18.5021 144.701 18.4624 144.788 18.4266C144.808 18.4186 144.828 18.4107 144.848 18.4007C145.101 18.2933 145.354 18.1899 145.609 18.0865C145.677 18.0587 145.747 18.0328 145.814 18.005C153.201 15.036 161.041 13.5246 169.101 13.5246ZM108.114 21.324C110.144 18.1084 114.679 16.4479 121.046 16.4479C124.091 16.4479 127.56 16.8277 131.368 17.5993C132.814 17.8916 134.293 18.2357 135.796 18.6314C135.798 18.6314 135.798 18.6314 135.8 18.6334C130.856 21.489 126.315 24.981 122.227 29.0776C121.368 29.9168 120.544 30.7898 119.737 31.6986C118.727 32.8082 117.769 33.9656 116.843 35.1409C115.363 37.0221 114 38.9868 112.737 41.0033C112.735 41.0053 112.735 41.0073 112.733 41.0093C107.108 32.667 105.416 25.5935 108.114 21.324ZM111.56 51.6006C112.116 50.3239 112.687 49.0651 113.309 47.8382C113.309 47.8362 113.309 47.8362 113.311 47.8342C121.022 57.4551 132.386 67.2908 145.667 75.8219C143.784 81.5431 142.177 87.1649 140.882 92.5541C131.221 90.2214 122.267 87.5806 114.42 84.7547C112.771 84.1661 111.173 83.5616 109.642 82.957C108.733 82.6051 107.841 82.2352 106.966 81.8653C106.831 80.521 106.731 79.1608 106.697 77.8006C106.681 77.1463 106.663 76.508 106.663 75.8517C106.663 75.0961 106.679 74.3225 106.697 73.5668C106.916 67.9072 107.875 62.3809 109.558 57.0395C109.845 56.1326 110.147 55.2418 110.484 54.3528C110.821 53.4301 111.173 52.5074 111.56 51.6006ZM100.305 78.8764C88.3769 73.0657 82.9248 67.4558 85.365 63.4746C87.3331 60.2491 94.5003 58.0656 105.47 57.2602C104.124 61.7942 103.299 66.4814 102.98 71.2342C102.879 72.6441 102.829 74.056 102.813 75.4838V75.8537C102.813 77.2815 102.863 78.7094 102.948 80.1193C102.038 79.7156 101.164 79.296 100.305 78.8764ZM109.357 86.0135C110.972 86.6181 112.622 87.2226 114.321 87.8112C122.131 90.5138 130.888 93.0254 140.255 95.2526C139.914 96.768 139.601 98.2614 139.312 99.731C138.547 99.546 137.781 99.3651 137.016 99.1901C124.068 96.2469 114.351 95.6484 109.845 95.5489C108.729 92.1941 107.908 88.7618 107.389 85.2598C108.044 85.5104 108.701 85.763 109.357 86.0135ZM111.56 100.105C111.418 99.7708 111.283 99.4367 111.147 99.1026C115.952 99.2955 124.858 100.021 136.235 102.607C137.049 102.791 137.862 102.986 138.675 103.183C138.089 106.592 137.657 109.851 137.39 112.913C136.884 118.714 136.848 125.4 138.468 130.177C133.536 127.405 129.01 123.978 124.952 119.925C119.217 114.198 114.707 107.53 111.56 100.105ZM193.393 133.277C185.688 136.536 177.527 138.181 169.099 138.181C162.605 138.181 156.262 137.202 150.169 135.265C154.786 132.849 159.428 127.299 163.001 122.186C164.844 119.549 166.686 116.63 168.505 113.48C178.987 118.219 189.067 124.044 198.535 130.825C196.863 131.716 195.152 132.535 193.393 133.277ZM213.23 119.925C209.777 123.382 205.975 126.38 201.869 128.91C191.923 121.653 181.298 115.441 170.228 110.412C171.75 107.628 173.252 104.687 174.716 101.616C184.851 102.957 194.594 103.762 203.491 103.969C205.813 104.036 208.066 104.036 210.253 104.018C215.923 103.951 220.97 103.615 225.295 103.01C222.265 109.276 218.21 114.954 213.23 119.925Z" fill="#8D86BC"/>
<path d="M376.338 237.898C374.924 232.423 365.369 236.663 357.498 241.256C357.132 240.678 356.751 240.103 356.359 239.536C361.992 236.046 369.906 230.244 366.894 226.712C363.918 223.224 358.106 231.122 354.468 236.949C344.725 224.325 330.277 215.341 330.277 215.341C330.277 215.341 390.569 165.329 345.516 138.946C300.463 112.563 266.235 205.398 266.235 205.398C266.235 205.398 235.448 176.939 206.052 187.449C175.864 198.243 194.73 218.246 168.513 223.657C165.426 211.859 159.72 195.222 151.92 194.246C141.615 192.957 145.952 205.831 161.609 224.638C158.573 224.91 155.117 225.047 151.167 225.037C109.12 224.912 119.908 255.135 119.908 255.135L363.014 255.694C362.685 252.719 361.817 249.796 360.57 246.964C368.896 245.659 377.669 243.052 376.338 237.898Z" fill="#8982B7"/>
<path opacity="0.2" d="M250.555 121.759L239.954 247.6C239.954 247.6 238.843 255.229 244.528 255.242C253.874 255.264 291.043 255.242 291.043 255.242C291.043 255.242 284.009 253.655 284.095 250.082C284.194 245.87 296.485 120.568 296.485 120.568L250.555 121.759Z" fill="#D9E9FE"/>
<path d="M294.059 252.959C292.22 252.965 256.719 253.077 247.617 252.959C243.651 252.91 242.956 249.44 242.922 247.192C242.906 246.115 243.042 245.319 243.042 245.319L243.317 242.048L244.02 233.712L244.639 226.346L245.436 216.882L246.107 208.894L253.639 119.474L299.569 118.285C299.569 118.285 294.391 170.722 290.73 208.894C290.322 213.147 289.933 217.224 289.573 221.032C289.455 222.247 289.344 223.437 289.234 224.592C288.896 228.203 288.585 231.52 288.314 234.447C288.172 235.991 288.041 237.424 287.921 238.739C287.453 243.887 287.18 247.175 287.176 247.799C287.174 248.163 287.206 248.503 287.266 248.817C288.029 252.828 293.37 252.959 294.059 252.959Z" fill="#978DEF"/>
<path d="M139.016 53.2809L164.84 156.832L168.376 171.015L180.403 219.246H403.852L359.522 53.2809H139.016Z" fill="#978DEF"/>
<path d="M139.016 53.2789L135.436 54.4701L175.645 222.848L180.403 219.247L139.016 53.2789Z" fill="#978DEF"/>
<path opacity="0.2" d="M175.645 222.848H397.719L403.852 219.246H180.403L175.645 222.848Z" fill="#D9E9FE"/>
<path d="M301.714 253.009H253.631V255.29H301.714V253.009Z" fill="#3A4ACE"/>
<path opacity="0.76" d="M289.489 222.848L289.242 224.592L244.022 233.712L244.643 226.346L244.938 222.848H289.489Z" fill="#978DEF"/>
<path opacity="0.76" d="M294.059 252.959C292.22 252.965 256.719 253.077 247.618 252.959C243.651 252.91 242.956 249.44 242.922 247.192L287.928 238.739C287.46 243.887 287.187 247.175 287.183 247.799C287.181 248.163 287.212 248.503 287.272 248.817C288.029 252.828 293.37 252.959 294.059 252.959Z" fill="#978DEF"/>
<path opacity="0.2" d="M278.561 185.649L180.404 219.246L168.376 171.015L278.561 185.649Z" fill="#D9E9FE"/>
<path d="M139.016 53.2789H359.522L395.298 186.663H172.278L139.016 53.2789Z" fill="#978DEF"/>
<path opacity="0.2" d="M298.051 203.527C297.413 200.255 294.242 197.602 290.965 197.602C287.688 197.602 285.549 200.253 286.184 203.527C286.822 206.798 289.993 209.449 293.27 209.449C296.547 209.449 298.688 206.796 298.051 203.527Z" fill="#D9E9FE"/>
<path opacity="0.51" d="M384.9 180.884H178.437L155.057 87.8987L153.264 80.7676L151.735 74.6864L148.149 60.4241H351.634L355.572 74.6864L357.253 80.7676L359.221 87.8987L384.9 180.884Z" fill="#BBBAE8"/>
<path d="M355.572 74.6864H151.735L148.149 60.4241H351.634L355.572 74.6864Z" fill="#8982B7"/>
<path d="M157.908 65.0873C156.922 65.0873 156.32 65.8847 156.567 66.8691C156.812 67.8534 157.812 68.6509 158.798 68.6509C159.784 68.6509 160.386 67.8534 160.139 66.8691C159.894 65.8847 158.894 65.0873 157.908 65.0873Z" fill="#D9E9FE"/>
<path d="M163.842 65.0873C162.856 65.0873 162.254 65.8847 162.501 66.8691C162.746 67.8534 163.746 68.6509 164.732 68.6509C165.718 68.6509 166.318 67.8534 166.073 66.8691C165.828 65.8847 164.828 65.0873 163.842 65.0873Z" fill="#D9E9FE"/>
<path d="M172.461 66.8691C172.216 65.8847 171.216 65.0873 170.23 65.0873C169.244 65.0873 168.645 65.8847 168.89 66.8691C169.135 67.8534 170.135 68.6509 171.121 68.6509C172.107 68.6509 172.708 67.8534 172.461 66.8691Z" fill="#D9E9FE"/>
<path d="M69.8516 88.376C69.8516 88.376 70.4831 86.3914 69.491 84.6056C68.499 82.8198 70.1006 81.5809 69.6982 81.042C69.2938 80.5031 66.6564 80.5568 65.756 83.15C64.8557 85.7431 66.3775 88.6684 66.3775 88.6684L69.8516 88.376Z" fill="#FCA56B"/>
<path d="M58.7838 102.646C60.6543 103.203 62.5826 101.962 62.8435 100.071L65.469 88.6663C65.469 88.6663 66.0168 87.7833 67.9092 87.8609C69.9709 87.9444 70.5287 88.9646 70.5287 88.9646C70.5287 88.9646 71.8035 109.04 65.8495 111.873C59.8974 114.707 53.1564 100.97 58.7838 102.646Z" fill="#8D86BC"/>
<path d="M71.1282 255.115H54.3596C53.1664 254.037 52.7739 247.7 52.7739 247.7C52.7739 247.7 57.973 243.022 59.6722 246.723C61.2877 250.241 65.7498 252.11 68.4151 252.574C70.7099 252.973 71.0724 254.656 71.1282 255.115Z" fill="#163560"/>
<path d="M50.8158 255.115H34.0471C32.8539 254.037 32.4595 247.7 32.4595 247.7C32.4595 247.7 37.6586 243.022 39.3578 246.723C40.9733 250.241 45.4354 252.11 48.1007 252.574C50.3954 252.973 50.76 254.656 50.8158 255.115Z" fill="#163560"/>
<path d="M62.8735 167.481C62.8735 167.481 60.489 182.71 51.5908 209.745C42.6925 236.78 41.4794 248.487 41.4794 248.487L31.9337 248.221C31.9337 248.221 31.852 218.676 35.9536 205.08C40.0551 191.484 36.838 156.068 36.838 156.068L62.8735 167.481Z" fill="#163560"/>
<path d="M67.5187 156.902C67.5187 156.902 67.8573 179.852 63.8793 208.029C59.9013 236.207 61.2498 248.169 61.2498 248.169L51.7241 248.485C51.7241 248.485 46.031 220.297 47.6624 206.191C49.2939 192.088 39.8657 157.794 39.8657 157.794L67.5187 156.902Z" fill="#1C468A"/>
<path d="M49.0767 103.197L53.5706 106.52L60.0645 105.156C59.9749 104.565 59.5466 102.115 59.1562 99.896C59.1323 99.7647 59.1084 99.6355 59.0865 99.5062C58.7518 97.617 58.463 95.9963 58.463 95.9963L52.3973 92.9776L50.1364 91.8521C50.1424 91.8918 50.3117 93.948 50.3356 94.2483C50.7579 99.5758 49.0767 103.197 49.0767 103.197Z" fill="#FC9490"/>
<path d="M59.6083 101.521C59.4669 101.461 50.7758 98.8997 49.8316 99.2119C48.8874 99.5241 48.3276 101.346 48.3276 101.346L62.5425 104.553C62.5425 104.555 61.425 102.284 59.6083 101.521Z" fill="#FB7369"/>
<path d="M36.2045 159.735C37.6786 166.445 62.1961 167.24 68.5148 161.149C69.2339 160.455 69.2697 157.226 68.9988 152.871C68.4689 144.363 66.7658 131.565 66.7001 125.026C66.6682 121.868 66.2339 118.639 65.6542 115.708C64.4232 109.457 62.5447 104.553 62.5447 104.553C62.5447 104.553 50.5688 100.69 48.3298 101.346C37.5332 104.514 34.7324 153.026 36.2045 159.735Z" fill="#978DEF"/>
<path d="M68.999 152.873C68.4691 144.365 66.766 131.567 66.7002 125.028C66.6684 121.87 66.2341 118.641 65.6544 115.71L58.4514 114.441C58.4494 114.441 51.4077 143.158 68.999 152.873Z" fill="#978DEF"/>
<path d="M50.7902 94.3399C52.1229 96.8833 57.0849 99.0847 59.1546 99.8921C59.1307 99.7608 59.1068 99.6316 59.0849 99.5023C58.7502 97.6131 58.4614 95.9924 58.4614 95.9924L52.3958 92.9737C51.0571 92.9558 50.2404 93.2939 50.7902 94.3399Z" fill="#FCA56B"/>
<path d="M61.4095 95.6384C61.4095 95.6384 50.4674 99.0469 48.4475 92.2101C46.4277 85.3732 43.6528 81.2111 50.5551 78.7472C57.4554 76.2833 59.5908 78.4887 60.8199 80.6065C62.0489 82.7244 64.2043 94.5765 61.4095 95.6384Z" fill="#FC9490"/>
<path d="M59.8436 80.6562C59.8436 80.6562 59.1464 88.6107 57.499 88.2646C55.8516 87.9186 54.3576 87.6641 54.5986 90.0604C54.8396 92.4586 57.1245 95.2268 52.0469 95.6503C46.9693 96.0739 39.6686 83.0008 41.063 80.525C45.0868 73.3839 65.6602 71.9421 59.8436 80.6562Z" fill="#163560"/>
<path d="M75.2318 78.9479L64.6304 81.7758L64.959 86.1388L75.7676 86.0632C76.6222 85.9996 77.1979 84.355 77.0485 82.3902C76.9011 80.4255 76.0884 78.8843 75.2318 78.9479Z" fill="#ADCBF9"/>
<path d="M65.7458 83.8857C65.6562 82.6806 65.1562 81.736 64.6323 81.7757C64.1084 81.8155 63.7558 82.8237 63.8455 84.0288C63.9371 85.2339 64.4351 86.1785 64.959 86.1388C65.4829 86.099 65.8355 85.0908 65.7458 83.8857Z" fill="#699DEE"/>
<path d="M69.6761 83.7424L66.3972 83.8021C66.2936 84.4902 66.4709 84.7865 66.4709 84.7865L69.7398 85.0052L69.6761 83.7424Z" fill="#699DEE"/>
<path d="M81.407 78.7948L69.2358 82.0402L69.6123 87.0495L82.0225 86.964C83.0045 86.8905 83.6639 85.0013 83.4946 82.7462C83.3233 80.4891 82.389 78.7212 81.407 78.7948Z" fill="#ADCBF9"/>
<path d="M70.5148 84.4623C70.4112 83.0803 69.8375 81.9945 69.2359 82.0402C68.6344 82.086 68.23 83.2433 68.3336 84.6274C68.4372 86.0115 69.0108 87.0953 69.6124 87.0495C70.214 87.0038 70.6184 85.8464 70.5148 84.4623Z" fill="#699DEE"/>
<path d="M72.4033 88.3582C72.4033 88.3582 71.2539 86.6201 71.722 84.6315C72.1901 82.6429 70.3117 81.8852 70.5527 81.2568C70.7957 80.6284 73.3475 79.9662 74.9192 82.2173C76.4909 84.4684 75.8235 87.6959 75.8235 87.6959L72.4033 88.3582Z" fill="#FC9490"/>
<path d="M57.4353 105.029C57.4353 105.029 63.7918 103.873 69.6642 103.959C71.6164 103.987 73.1343 102.27 72.8713 100.379L71.8454 88.911C71.8454 88.911 72.5805 87.6939 74.4231 87.2544C76.429 86.7752 77.0744 87.857 77.0744 87.857C77.0744 87.857 83.9369 106.582 78.9788 110.923C74.0207 115.264 55.2461 117.988 55.2461 117.988L57.4353 105.029Z" fill="#857FB1"/>
<path d="M461.394 27.2282C460.741 42.3078 457.227 60.7661 446.056 75.6151C445.646 76.16 445.233 76.7009 444.819 77.2358C443.566 78.8525 442.291 80.4235 440.996 81.9488C439.552 83.6471 437.028 83.9195 435.243 82.5812L385.657 45.4041C385.089 44.9785 384.67 44.4277 384.414 43.8152C384.238 43.4035 384.139 42.9641 384.115 42.5186C384.073 41.7251 384.276 40.9158 384.746 40.2058C385.909 38.4419 387.129 36.686 388.402 34.942C388.8 34.3951 389.204 33.8483 389.617 33.3034C400.788 18.4524 417.564 9.93917 431.889 5.10684C439.452 2.55545 446.333 1.03019 451.341 0.141277C452.173 -0.00588062 452.982 -0.0357098 453.755 0.0398575C454.926 0.153208 456.012 0.513147 456.966 1.07394C459.024 2.28898 460.456 4.45656 460.751 7.19488C461.291 12.244 461.741 19.2658 461.394 27.2282Z" fill="#978DEF"/>
<path d="M388.368 34.9877C386.92 36.9703 385.545 38.9689 384.24 40.9714C383.392 42.2759 383.705 44.016 384.952 44.9486L435.793 83.0663C437.25 84.1581 439.301 83.9294 440.485 82.5513C441.943 80.853 443.377 79.0971 444.781 77.2835L388.368 34.9877Z" fill="#8480D1"/>
<path d="M432.435 50.0256C429.202 50.0256 426.066 48.9875 423.435 47.0148C420.224 44.6066 418.142 41.0947 417.576 37.1235C417.011 33.1522 418.029 29.2009 420.441 25.9932C422.853 22.7856 426.371 20.7095 430.349 20.1447C434.327 19.58 438.285 20.5961 441.498 23.0043C444.712 25.4126 446.791 28.9244 447.357 32.8957C447.923 36.867 446.905 40.8183 444.492 44.026C442.08 47.2316 438.562 49.3097 434.584 49.8745C433.867 49.9759 433.148 50.0256 432.435 50.0256ZM432.493 23.4836C431.945 23.4836 431.395 23.5234 430.843 23.6009C427.79 24.0344 425.088 25.6293 423.238 28.0912C421.385 30.5531 420.604 33.5877 421.041 36.6343C421.475 39.6828 423.072 42.3794 425.537 44.2268C428.003 46.0742 431.042 46.8538 434.094 46.4202C437.146 45.9867 439.847 44.3919 441.7 41.93C443.552 39.4681 444.333 36.4354 443.899 33.3869C443.465 30.3383 441.867 27.6418 439.403 25.7944C437.379 24.279 434.975 23.4836 432.493 23.4836Z" fill="#837FBC"/>
<path d="M458.102 4.55403C457.962 3.25348 457.566 2.07821 456.965 1.07595C456.012 0.513171 454.925 0.155221 453.753 0.0418701C453.761 0.107494 453.769 0.173119 453.777 0.238743C454.319 5.28584 454.769 12.3076 454.425 20.27C453.769 35.3497 450.255 53.808 439.084 68.6569C438.676 69.2038 438.262 69.7427 437.847 70.2777C437.57 70.6336 437.294 70.9876 437.015 71.3396L441.865 74.9827C441.967 74.8535 442.068 74.7242 442.17 74.5929C442.584 74.058 442.997 73.5171 443.407 72.9722C454.578 58.1213 458.092 39.663 458.747 24.5853C459.094 16.6229 458.644 9.60113 458.102 4.55403Z" fill="#837FBC"/>
<path d="M460.749 7.19688C460.229 2.35262 456.146 -0.709843 451.339 0.143271C446.331 1.03218 439.453 2.55546 431.887 5.10884L461.395 27.2302C461.741 19.2658 461.291 12.244 460.749 7.19688Z" fill="#8480D1"/>
<path d="M392.496 55.3173C387.661 52.1117 380.049 55.0608 375.498 61.9036C370.944 68.7464 376.008 80.0994 376.008 80.0994C376.008 80.0994 388.454 80.3559 393.005 73.5131C397.559 66.6703 397.332 58.5249 392.496 55.3173Z" fill="#837FBC"/>
<path d="M419.676 75.2492C414.842 72.0435 407.23 74.9927 402.678 81.8355C398.125 88.6783 403.188 100.031 403.188 100.031C403.188 100.031 415.634 100.288 420.186 93.445C424.738 86.6022 424.511 78.4548 419.676 75.2492Z" fill="#837FBC"/>
<path d="M387.358 62.9914C384.021 60.7781 378.769 62.8144 375.625 67.5374C372.484 72.2603 375.978 80.0955 375.978 80.0955C375.978 80.0955 384.567 80.2724 387.711 75.5495C390.852 70.8265 390.695 65.2027 387.358 62.9914Z" fill="#978DEF"/>
<path d="M414.595 82.8994C411.258 80.686 406.005 82.7224 402.862 87.4453C399.719 92.1683 403.215 100.003 403.215 100.003C403.215 100.003 411.804 100.18 414.947 95.4575C418.089 90.7345 417.931 85.1107 414.595 82.8994Z" fill="#978DEF"/>
<path d="M425.722 42.4789L441.314 39.7286C439.583 42.8607 436.242 44.9806 432.405 44.9806C429.848 44.9806 427.511 44.036 425.722 42.4789Z" fill="#FFE6D2"/>
<path d="M442.57 34.4905L422.821 38.2251C422.443 37.1632 422.238 36.0198 422.238 34.8286C422.238 29.2227 426.79 24.6787 432.405 24.6787C437.909 24.6787 442.391 29.0417 442.57 34.4905Z" fill="#FFE6D2"/>
<path d="M128.028 176.46C128.028 176.46 131.335 177.307 133.436 176.674C135.538 176.042 139.155 177.08 139.739 177.846C140.323 178.611 140.107 178.916 139.068 179.178C138.028 179.443 134.345 181.01 131.924 180.103C129.504 179.196 126.347 179.162 126.347 179.162L128.028 176.46Z" fill="#FC9490"/>
<path d="M99.4507 147.786C99.4507 147.786 103.166 174.141 109.315 176.501C112.349 177.667 125.761 180.306 129.729 180.572C129.729 180.572 130.701 179.785 130.464 176.581C130.464 176.581 116.413 171.43 114.417 168.63C111.445 164.462 116.261 151.602 112.532 147.686C108.805 143.771 102.526 142.086 99.4507 147.786Z" fill="#4A75CB"/>
<path d="M105.062 249.219V243.474H114.124C114.369 243.474 114.568 243.273 114.568 243.03V242.11C114.568 241.865 114.369 241.666 114.124 241.666H105.062V208.958C105.062 208.041 104.309 207.289 103.391 207.289H101.598C100.678 207.289 99.9267 208.041 99.9267 208.958V241.666H90.8651C90.6201 241.666 90.4209 241.867 90.4209 242.11V243.03C90.4209 243.275 90.6201 243.474 90.8651 243.474H99.9267V249.219C93.369 249.714 88.1181 252.071 86.644 255.115H118.345C116.871 252.071 111.618 249.714 105.062 249.219Z" fill="#837FBC"/>
<path d="M100.703 203.308C101.787 205.143 103.04 206.861 104.331 208.49C108.323 213.521 112.669 217.67 113.426 221.591C113.576 222.373 113.817 223.214 114.128 224.101C114.444 225 114.835 225.944 115.285 226.921C116.978 230.594 119.512 234.71 122.042 238.453C126.414 244.921 130.526 250.319 130.526 250.319L138.065 249.998C137.763 249.245 134.474 240.314 130.076 229.398C128.289 224.968 126.388 220.255 124.556 215.711C124.311 215.104 124.068 214.5 123.825 213.901C123.265 212.511 122.713 211.141 122.175 209.809C118.044 199.561 114.753 191.4 114.753 191.4C114.753 191.4 98.2414 185.156 96.5283 189.203C95.1159 192.535 96.2673 195.803 100.703 203.308Z" fill="#163560"/>
<path d="M130.763 248.803C130.763 248.803 131.149 255.016 132.352 255.103C132.512 255.115 138.458 255.115 138.458 255.115H146.047C146.047 255.115 145.998 253.246 143.778 252.86C141.559 252.474 137.846 250.917 136.504 247.99C135.089 244.91 130.763 248.803 130.763 248.803Z" fill="#163560"/>
<path d="M113.303 231.204C113.303 231.204 108.058 234.569 108.568 235.661C108.636 235.806 111.534 240.988 111.534 240.988L115.273 247.582C115.273 247.582 116.847 246.65 116.102 244.528C115.359 242.406 114.909 238.411 116.813 235.812C118.815 233.077 113.303 231.204 113.303 231.204Z" fill="#163560"/>
<path d="M120.374 188.419C120.374 188.419 141.123 201.321 143.436 209.982C145.749 218.642 115.867 237.118 115.867 237.118C115.867 237.118 112.59 234.231 112.01 232.115C112.01 232.115 125.518 215.959 128.446 212.338C130.245 210.115 101.841 204.64 98.3709 199.251C94.9008 193.862 96.1438 189.328 96.1438 189.328L120.374 188.419Z" fill="#1C468A"/>
<path d="M123.701 204.982H81.2855C80.4369 204.982 79.7437 205.674 79.7437 206.521V214.991C79.7437 215.838 80.4389 216.53 81.2855 216.53H123.701C124.55 216.53 125.243 215.838 125.243 214.991V206.521C125.243 205.674 124.55 204.982 123.701 204.982Z" fill="#8480D1"/>
<path d="M113.972 146.123C109.008 147.406 100.775 142.812 100.775 142.812C100.775 142.812 103.971 140.668 105.156 135.957C105.216 135.721 105.271 135.476 105.317 135.228C105.839 135.116 106.819 134.909 107.867 134.689L111.66 138.079C111.66 138.079 111.574 139.487 111.098 141.907C111.014 142.331 110.921 142.782 110.813 143.266C112.851 144.526 113.972 146.123 113.972 146.123Z" fill="#FC9490"/>
<path d="M121.024 187.743C121.014 187.793 120.998 187.844 120.98 187.898C120.502 189.236 116.046 191.044 111.956 192.307C110.49 192.76 109.07 193.144 107.899 193.413C104.731 194.136 96.7973 195.427 96.102 193.255C95.2973 190.742 96.2315 176.219 95.5204 166.67C94.6798 154.997 97.9187 144.373 102.421 140.905C102.761 140.657 103.433 141.319 105.383 142.242C107.184 143.093 109.174 143.337 110.859 142.969L112.369 144.262C114.454 146.135 116.747 148.693 117.787 152.614C118.422 155.02 118.902 158.823 119.259 163.1C119.396 164.757 119.516 166.487 119.618 168.233C119.779 171.013 119.92 173.817 119.988 176.483C119.99 176.535 119.992 176.585 119.992 176.637L119.994 176.734C120.024 177.002 120.028 177.297 120.032 177.565C120.104 179.956 120.09 182.181 120.171 184.068C120.173 184.122 120.175 184.173 120.179 184.223C120.281 185.806 120.863 186.52 121.018 187.18C121.058 187.367 121.068 187.55 121.024 187.743Z" fill="#739AF0"/>
<path d="M121.024 187.743C121.014 187.793 120.998 187.844 120.98 187.898C120.502 189.236 116.046 191.044 111.956 192.307C103.65 181.918 104.54 169.488 104.54 169.488L119.988 176.482C119.99 176.533 119.992 176.583 119.992 176.635L119.994 176.732C120.024 177.001 120.028 177.295 120.032 177.563C120.103 179.954 120.09 182.179 120.171 184.066C120.173 184.12 120.175 184.171 120.179 184.221C120.281 185.804 120.862 186.518 121.018 187.178C121.058 187.367 121.068 187.55 121.024 187.743Z" fill="#4A75CB"/>
<path d="M111.662 138.079C111.662 138.079 111.576 139.487 111.1 141.907C107.399 140.714 105.718 137.375 105.156 135.957C105.216 135.721 105.271 135.476 105.317 135.228C105.839 135.116 106.819 134.909 107.867 134.689L111.662 138.079Z" fill="#FF8585"/>
<path d="M113.159 138.044C113.159 138.044 105.024 138.96 104.53 133.893C104.036 128.826 102.654 125.531 107.829 124.734C113.002 123.934 114.201 125.77 114.779 127.422C115.355 129.071 115.265 137.676 113.159 138.044Z" fill="#FC9490"/>
<path d="M104.566 134.243C104.566 134.243 105.082 127.518 112.488 126.822C117.562 126.345 114.733 121.986 114.191 121.292C114.191 121.292 110.305 121.824 106.321 122.481C97.9585 123.857 103.745 133.195 104.566 134.243Z" fill="#3A4ACE"/>
<path d="M150.007 164.446L144.276 182.058L124.115 181.628L124.089 182.855L144.661 183.294L150.72 164.677L150.007 164.446Z" fill="#4A75CB"/>
<path d="M126.325 180.51C126.325 180.51 129.518 181.717 131.675 181.32C133.834 180.922 137.314 182.352 137.808 183.177C138.303 184.002 138.057 184.281 136.994 184.428C135.932 184.575 132.097 185.73 129.793 184.561C127.488 183.392 124.353 183.012 124.353 183.012L126.325 180.51Z" fill="#FC9490"/>
<path d="M101.09 148.868C101.09 148.868 101.871 175.469 107.723 178.494C110.612 179.985 123.649 184.086 127.564 184.786C127.564 184.786 128.615 184.11 128.735 180.9C128.735 180.9 115.337 174.234 113.663 171.231C111.171 166.761 117.376 154.509 114.104 150.208C110.831 145.905 104.777 143.542 101.09 148.868Z" fill="#739AF0"/>
<path d="M464.965 169.35L465.945 170.935C466.455 171.52 466.591 171.846 466.993 172.043C467.967 172.522 469.764 173.749 469.899 176.326C469.899 176.326 469.869 177.786 468.889 177.313C467.909 176.839 468.338 176.883 466.945 176.247C465.553 175.611 465.037 173.584 464.913 172.892L463.776 171.403L464.965 169.35Z" fill="#FC9490"/>
<path d="M436.153 253.89C436.099 254.461 435.782 254.829 435.278 255.05C435.276 255.052 435.274 255.052 435.27 255.052C434.34 255.459 432.778 255.366 431.093 255.139C430.878 255.111 430.683 255.087 430.509 255.071C430.463 255.067 430.418 255.063 430.374 255.06C430.338 255.056 430.302 255.056 430.268 255.052C428.589 254.94 428.72 255.457 425.511 255.441C421.854 255.421 420.615 254.192 420.448 253.667C420.306 253.222 421.908 252.878 423.699 252.48C423.784 252.462 423.872 252.441 423.96 252.423C424.199 252.369 424.438 252.315 424.677 252.26C426.812 251.758 428.926 251.128 429.625 249.08C430.366 246.908 430.191 240.465 430.191 240.465H436.669C436.669 240.465 434.967 247.584 435.147 249.637C435.244 250.732 435.768 251.043 435.971 251.993C435.985 252.059 435.999 252.126 436.011 252.192C436.111 252.749 436.206 253.317 436.153 253.89Z" fill="#FC9490"/>
<path d="M443.693 184.239C443.145 187.304 442.366 190.469 441.689 193.765C440.601 199.06 439.778 204.686 440.619 210.743C440.726 211.523 440.784 212.384 440.798 213.309C440.961 224.015 436.169 243.42 436.169 243.42C436.169 243.42 434.868 243.981 432.685 243.874C431.561 243.818 429.838 243.094 429.838 243.094C429.838 243.094 429.384 231.063 429.358 214.886C429.338 203.159 427.031 187.717 426.565 178.643C426.282 173.153 426.896 165.836 426.896 165.836C426.896 165.836 436.448 158.168 439.88 162.092C443.27 165.968 445.738 172.775 443.693 184.239Z" fill="#978DEF"/>
<path d="M440.619 210.743C440.726 211.523 440.784 212.384 440.798 213.309C433.645 202.962 432.063 180.397 432.063 180.397L439.921 184.205C439.921 184.205 440.782 188.437 441.69 193.765C440.599 199.06 439.778 204.686 440.619 210.743Z" fill="#9089C0"/>
<path d="M456.822 253.89C456.768 254.461 456.451 254.829 455.947 255.05C455.945 255.052 455.943 255.052 455.939 255.052C455.009 255.459 453.447 255.366 451.762 255.139C451.547 255.111 451.352 255.087 451.178 255.071C451.132 255.067 451.087 255.063 451.043 255.059C451.007 255.056 450.971 255.056 450.937 255.052C449.258 254.94 449.389 255.457 446.18 255.441C442.523 255.421 441.284 254.192 441.117 253.667C440.975 253.222 442.577 252.878 444.368 252.48C444.455 252.462 444.541 252.44 444.629 252.423C444.868 252.369 445.107 252.315 445.346 252.26C447.481 251.758 449.595 251.128 450.294 249.08C451.035 246.908 449.975 240.563 449.975 240.563L455.977 240.061C455.977 240.061 455.604 247.292 455.782 249.342C455.879 250.438 456.435 251.041 456.638 251.989C456.652 252.055 456.666 252.122 456.678 252.188C456.778 252.749 456.875 253.317 456.822 253.89Z" fill="#FC9490"/>
<path d="M455.975 243.967C455.975 243.967 454.431 244.697 453.322 244.918C452.212 245.138 449.903 244.707 449.903 244.707C449.487 240.047 448.521 232.763 446.64 224.542C444.501 215.182 441.316 204.123 436.876 193.649C435.927 191.412 432.017 180.825 431.354 178.152C429.348 170.078 431.362 170.949 431.362 170.949L448.901 168.895C448.901 168.895 451.063 170.005 452.057 181.403C452.354 184.818 452.391 199.559 452.84 202.353C453.264 205 453.762 207.2 454.346 208.629C457.604 216.612 455.975 243.967 455.975 243.967Z" fill="#978DEF"/>
<path d="M456.822 253.89C456.768 254.461 456.451 254.829 455.947 255.05C455.945 255.052 455.943 255.052 455.939 255.052C454.955 255.402 453.419 255.326 451.764 255.129C451.549 255.103 451.354 255.085 451.176 255.071C451.13 255.067 451.085 255.063 451.041 255.059C451.005 255.055 450.969 255.056 450.935 255.052C449.256 254.94 449.387 255.457 446.178 255.441C442.521 255.421 441.282 254.192 441.115 253.667C440.973 253.222 442.575 252.878 444.366 252.48C444.836 252.713 447.091 253.731 449.893 253.459C452.358 253.222 454.871 252.238 456.638 251.993C456.652 252.059 456.666 252.126 456.678 252.192C456.778 252.749 456.875 253.317 456.822 253.89Z" fill="#978DEF"/>
<path d="M436.153 253.89C436.099 254.461 435.782 254.829 435.278 255.05C435.276 255.052 435.274 255.052 435.27 255.052C434.286 255.402 432.75 255.326 431.097 255.129C430.88 255.103 430.687 255.085 430.509 255.071C430.463 255.067 430.418 255.063 430.374 255.059C430.338 255.055 430.302 255.056 430.268 255.052C428.589 254.94 428.72 255.457 425.511 255.441C421.854 255.421 420.615 254.192 420.448 253.667C420.306 253.222 421.908 252.878 423.699 252.48C424.169 252.713 426.424 253.731 429.224 253.459C431.689 253.222 434.202 252.238 435.969 251.993C435.983 252.059 435.997 252.126 436.009 252.192C436.111 252.749 436.206 253.317 436.153 253.89Z" fill="#978DEF"/>
<path d="M429.137 116.461C428.543 111.631 430.055 103.901 439.712 105.138C449.37 106.373 452.413 115.847 450.465 120.061C448.517 124.272 453.268 125.289 454.76 129.819C456.041 133.71 456.489 138.543 458.561 140.71C465.246 147.702 452.142 158.453 444.244 156.186C429.856 152.055 428.003 151.441 428.513 140.154C428.774 134.371 433.282 132.131 430.42 130.457C423.509 126.418 430.477 127.391 429.137 116.461Z" fill="#B74B42"/>
<path d="M443.332 129.105L440.67 135.967L434.929 136.248L432.065 131.976C433.872 130.604 434.637 128.544 434.916 126.702C435.145 125.229 435.081 123.895 435.017 123.169C434.979 122.801 434.941 122.584 434.941 122.584L442.097 120.41L442.123 120.399C442.212 122.292 442.314 123.779 442.427 124.935C442.834 129.015 443.332 129.105 443.332 129.105Z" fill="#FC9490"/>
<path d="M432.039 128.864C432.408 128.864 438.678 127.589 449.27 130.294C449.27 130.294 443.469 156.822 445.439 161.823C447.409 166.823 448.158 171.261 448.158 171.261L426.782 171.526C426.782 171.526 427.081 154.364 426.095 148.289C425.113 142.216 432.039 128.864 432.039 128.864Z" fill="#FC9490"/>
<path d="M459.317 156.625C458.248 149.251 454.278 134.108 451.612 131.63C449.254 129.441 444.17 129.24 444.17 129.24C443.115 130.893 439.499 134.995 435.013 134.255C432.593 133.856 432.101 129.51 432.045 128.93L432.061 128.864C432.061 128.864 432.053 128.866 432.039 128.868V128.864C432.021 128.868 432.005 128.872 431.987 128.874C431.28 128.979 425.655 129.892 423.987 132.76C421.523 136.994 418.84 149.699 416.203 149.512C414.991 149.424 402.812 144.855 402.812 144.855C402.812 144.855 400.783 146.752 401.171 149.08C401.171 149.08 407.185 153.101 412.27 155.667C412.976 156.023 413.663 156.351 414.312 156.633C416.145 157.437 417.691 157.902 418.533 157.703C418.776 157.645 419.031 157.538 419.298 157.383C420.402 156.746 421.689 155.348 422.924 153.758C423.744 152.698 424.541 151.554 425.244 150.488C425.258 150.466 425.274 150.445 425.288 150.421C425.589 154.46 425.892 158.856 425.579 162.301C425.34 164.922 425.167 170.597 425.617 172.063C426.555 175.119 433.457 175.927 439.897 175.608C442.933 175.457 445.079 175.284 446.64 174.924C448.905 174.405 449.939 173.497 450.686 171.701C451.397 169.993 448.11 161.967 447.798 158.455C447.513 155.271 448.001 152.68 448.806 150.134C451.081 155.376 453.391 159.127 453.696 159.938C454.333 161.648 464.04 172.464 464.04 172.464C464.04 172.464 464.825 172.303 465.447 171.898C466.088 171.478 466.409 170.925 466.409 170.925C464.698 166.863 459.317 156.625 459.317 156.625Z" fill="#978DEF"/>
<path d="M450.688 171.699C449.943 173.495 448.908 174.403 446.643 174.922C443.615 174.342 441.619 168.78 440.591 166.043C439.406 162.889 445.577 146.674 447.282 146.821C448.549 146.931 448.768 149.076 448.808 150.132C447.989 152.704 447.513 155.237 447.8 158.453C448.111 161.967 451.398 169.991 450.688 171.699Z" fill="#9089C0"/>
<path d="M402.898 146.129C402.898 146.129 401.858 143.588 400.715 143.482C399.572 143.379 395.934 142.808 395.673 143.327C395.414 143.846 395.673 145.714 396.454 146.388C397.233 147.062 402.068 148.152 402.068 148.152L402.898 146.129Z" fill="#FC9490"/>
<path d="M425.247 150.486C424.543 151.552 423.747 152.698 422.926 153.756C421.749 155.201 420.45 156.599 419.3 157.381C419.034 157.536 418.777 157.645 418.536 157.701C417.691 157.9 416.147 157.434 414.314 156.631C415.406 156.711 416.478 156.673 417.532 156.583C419.376 156.426 419.914 154.432 422.83 151.441C424.573 149.657 425.101 149.931 425.247 150.486Z" fill="#F2564B"/>
<path d="M442.097 120.413C441.015 122.178 438.406 125.814 434.916 126.705C435.145 125.231 435.081 123.897 435.017 123.171C434.979 122.803 434.941 122.586 434.941 122.586L442.097 120.413Z" fill="#FF8585"/>
<path d="M433.063 123.071C433.063 123.071 441.665 124.795 442.659 119.432C443.653 114.069 445.431 110.678 439.981 109.35C434.531 108.022 433.083 109.871 432.314 111.581C431.547 113.289 430.852 122.483 433.063 123.071Z" fill="#FC9490"/>
<path d="M437.266 108.01C437.266 108.01 437.115 109.829 439.943 112.915C442.772 116.002 442.22 122.246 442.22 122.246C442.22 122.246 446.865 112.561 444.322 109.704C441.78 106.848 437.266 108.01 437.266 108.01Z" fill="#B74B42"/>
<path d="M440.726 105.643C440.726 105.643 436.45 104.215 432.207 108.389C430.378 110.187 430.655 113.723 431.633 115.775C431.633 115.775 433.137 111.38 435.874 110.42C438.611 109.459 440.726 105.643 440.726 105.643Z" fill="#B74B42"/>
<path d="M435.744 120.43C435.744 120.43 435.513 121.067 433.896 120.778C433.896 120.778 432.537 120.536 432.661 119.822C432.659 119.822 434.047 119.464 435.744 120.43Z" fill="white"/>
<path d="M302.806 122.485C305.138 135.691 297.416 146.398 285.557 146.398C284.784 146.398 283.995 145.865 283.226 145.775C293.786 144.507 300.415 134.832 298.234 122.485C296.053 110.137 285.856 99.9776 274.848 98.7088C275.583 98.6193 276.336 98.5736 277.109 98.5736C288.969 98.5736 300.473 109.278 302.806 122.485Z" fill="#8982B7"/>
<path d="M312.288 129.385C315.664 129.385 317.851 126.269 317.172 122.427C316.493 118.585 313.206 115.469 309.83 115.469C309.66 115.469 309.497 115.483 309.334 115.499C308.826 114.079 308.242 112.693 307.595 111.346C309.298 110.169 310.188 107.868 309.722 105.221C309.063 101.491 305.949 98.4483 302.682 98.2713L298.706 98.321C298.505 98.321 298.31 98.3329 298.121 98.3548C297.718 97.977 297.314 97.6071 296.9 97.2491C297.447 96.0918 297.645 94.6679 297.372 93.1188C296.692 89.2768 293.406 86.1606 290.029 86.1606C290.003 86.1606 289.977 86.1606 289.949 86.1626V86.1606L286.635 86.2243C286.539 86.2183 286.446 86.2163 286.352 86.2163C286.185 86.2163 286.021 86.2243 285.86 86.2402L285.858 86.2422C284.924 86.3297 284.097 86.6637 283.414 87.1868C282.73 87.7117 282.193 88.4276 281.838 89.2768C281.758 89.2589 281.681 89.237 281.599 89.2191C281.579 88.9864 281.547 88.7498 281.505 88.5092C280.826 84.6672 277.539 81.551 274.165 81.551L270.537 81.6107C270.521 81.6107 270.506 81.6087 270.49 81.6087C270.432 81.6087 270.374 81.6127 270.32 81.6127L270.251 81.6147H270.249C269.984 81.6266 269.729 81.6564 269.482 81.7081C269.482 81.7081 269.48 81.7081 269.48 81.7101C269.32 81.7658 263.988 83.6987 265.81 90.4043L265.438 90.5674C265.438 90.5674 264.38 88.4316 262.484 87.2723C260.137 85.8385 258.607 86.1765 258.404 86.2024L255.241 86.2163V86.2223C251.944 86.3058 249.825 89.3862 250.496 93.1764C250.813 94.9702 251.701 96.5969 252.894 97.8298C252.785 97.977 252.675 98.1261 252.568 98.2772L251.468 98.2892C251.307 98.2753 251.141 98.2653 250.978 98.2653C250.773 98.2653 250.57 98.2772 250.374 98.2991L247.578 98.3289C247.562 98.3289 247.544 98.327 247.53 98.325C247.454 98.323 247.378 98.321 247.305 98.321C247.171 98.321 247.042 98.327 246.914 98.3349H246.906C246.797 98.3429 246.689 98.3528 246.584 98.3687C243.623 98.7784 241.791 101.716 242.42 105.279C242.946 108.26 245.048 110.798 247.538 111.788C247.398 112.999 247.325 114.244 247.317 115.513L246.094 115.532C246.04 115.53 245.988 115.526 245.934 115.526C245.805 115.526 245.681 115.532 245.558 115.54L245.325 115.544C245.325 115.544 245.327 115.55 245.329 115.56C242.301 115.908 240.41 118.875 241.048 122.485C241.727 126.327 245.014 129.443 248.39 129.443L249.763 129.421C250.086 130.318 250.436 131.203 250.815 132.072C248.452 132.933 247.086 135.588 247.641 138.736C248.295 142.43 251.358 145.451 254.595 145.678V145.68H254.603C254.731 145.688 254.856 145.694 254.982 145.694C255.149 145.694 255.315 145.684 255.476 145.67L258.579 145.636L258.577 145.632C258.603 145.634 258.631 145.636 258.659 145.636C259.087 145.636 259.494 145.584 259.88 145.491C260.382 145.998 260.894 146.493 261.418 146.972C260.747 148.179 260.486 149.733 260.785 151.427C261.464 155.271 264.751 158.385 268.127 158.385L271.723 158.329L271.721 158.325C271.747 158.327 271.774 158.329 271.802 158.329C273.86 158.329 275.474 157.168 276.266 155.39C276.675 155.5 277.083 155.603 277.495 155.696C277.517 155.927 277.547 156.164 277.589 156.404C278.268 160.246 281.555 163.363 284.932 163.363L288.603 163.305C288.605 163.305 288.605 163.305 288.607 163.305H288.619L288.854 163.301C288.854 163.301 288.854 163.299 288.854 163.297C292.089 163.15 294.153 160.095 293.491 156.345C293.449 156.106 293.398 155.869 293.336 155.637C293.453 155.607 293.571 155.575 293.688 155.543C295.103 157.261 297.087 158.381 299.107 158.381L302.644 158.319C302.69 158.321 302.736 158.325 302.782 158.325C306.158 158.325 308.346 155.209 307.666 151.367C307.411 149.918 306.782 148.571 305.919 147.458C306.377 146.873 306.808 146.264 307.216 145.634H311.365V145.632C311.391 145.632 311.417 145.634 311.445 145.634C314.822 145.634 317.009 142.518 316.329 138.676C315.833 135.87 313.943 133.456 311.644 132.356C311.736 131.374 311.784 130.373 311.79 129.355C311.949 129.373 312.118 129.385 312.288 129.385ZM285.408 145.891C273.515 145.891 262.006 135.295 259.697 122.226C257.388 109.157 265.157 98.5596 277.047 98.5596C288.94 98.5596 300.449 109.155 302.758 122.226C305.069 135.297 297.3 145.891 285.408 145.891Z" fill="#8982B7"/>
<path d="M312.208 129.385C315.584 129.385 317.769 126.269 317.092 122.427C316.413 118.585 313.126 115.469 309.752 115.469C309.582 115.469 309.419 115.483 309.256 115.499C308.746 114.079 308.164 112.693 307.517 111.344C309.22 110.167 310.112 107.866 309.644 105.22C308.965 101.378 305.678 98.2614 302.304 98.2614C301.057 98.2614 299.973 98.6889 299.134 99.4187C298.385 98.6611 297.614 97.9352 296.82 97.2452C297.367 96.0898 297.565 94.664 297.292 93.1148C296.612 89.2728 293.326 86.1567 289.951 86.1567C287.469 86.1567 285.637 87.843 285.105 90.2612C283.923 89.8396 282.728 89.4876 281.521 89.2152C281.501 88.9825 281.469 88.7459 281.427 88.5072C280.748 84.6652 277.461 81.5491 274.087 81.5491C270.71 81.5491 268.525 84.6652 269.203 88.5072C269.244 88.7459 269.298 88.9825 269.358 89.2152C267.991 89.5513 266.681 90.0047 265.436 90.5635C264.085 87.9842 261.557 86.1567 258.974 86.1567C255.597 86.1567 253.412 89.2728 254.089 93.1148C254.406 94.9066 255.292 96.5353 256.488 97.7682C255.986 98.4364 255.514 99.1324 255.073 99.8582C253.84 98.8599 252.376 98.2614 250.896 98.2614C247.52 98.2614 245.334 101.378 246.012 105.22C246.54 108.202 248.639 110.74 251.129 111.728C250.982 113.001 250.906 114.307 250.904 115.644C250.45 115.532 249.99 115.469 249.526 115.469C246.149 115.469 243.964 118.585 244.641 122.427C245.32 126.269 248.607 129.385 251.982 129.385C252.446 129.385 252.884 129.322 253.298 129.21C253.635 130.161 254.008 131.095 254.406 132.016C252.041 132.877 250.677 135.532 251.233 138.678C251.912 142.522 255.199 145.636 258.573 145.636C260.043 145.636 261.288 145.043 262.169 144.059C263.075 145.061 264.023 146.014 265.007 146.915C264.336 148.122 264.075 149.675 264.376 151.369C265.055 155.211 268.342 158.327 271.716 158.327C274.193 158.327 276.023 156.649 276.559 154.239C278.043 154.821 279.555 155.293 281.085 155.639C281.105 155.871 281.137 156.108 281.178 156.347C281.858 160.189 285.145 163.305 288.519 163.305C291.895 163.305 294.081 160.189 293.401 156.347C293.36 156.108 293.306 155.871 293.246 155.639C294.401 155.354 295.517 154.987 296.587 154.541C297.997 156.788 300.32 158.327 302.692 158.327C306.068 158.327 308.254 155.211 307.576 151.369C307.319 149.92 306.692 148.573 305.829 147.46C306.555 146.533 307.22 145.547 307.821 144.507C308.907 145.218 310.124 145.636 311.355 145.636C314.732 145.636 316.917 142.52 316.24 138.678C315.744 135.87 313.853 133.458 311.556 132.358C311.646 131.376 311.696 130.375 311.702 129.357C311.869 129.373 312.039 129.385 312.208 129.385ZM285.409 145.893C273.517 145.893 262.007 135.297 259.699 122.226C257.39 109.157 265.159 98.5617 277.049 98.5617C288.939 98.5617 300.451 109.157 302.76 122.226C305.068 135.295 297.3 145.893 285.409 145.893Z" fill="#978DEF"/>
<path d="M342.779 123.433C344.562 133.529 338.658 141.715 329.592 141.715C329.003 141.715 328.397 141.307 327.812 141.239C335.885 140.269 340.953 132.873 339.285 123.433C337.618 113.995 329.823 106.228 321.407 105.257C321.969 105.188 322.545 105.154 323.136 105.154C332.202 105.154 340.997 113.337 342.779 123.433Z" fill="#8982B7"/>
<path d="M350.028 128.709C352.61 128.709 354.281 126.327 353.763 123.389C353.245 120.452 350.729 118.07 348.15 118.07C348.02 118.07 347.895 118.082 347.771 118.092C347.383 117.006 346.937 115.946 346.443 114.916C347.743 114.017 348.425 112.257 348.068 110.233C347.564 107.381 345.184 105.054 342.686 104.919L339.646 104.957C339.492 104.957 339.343 104.965 339.198 104.983C338.891 104.695 338.58 104.412 338.263 104.138C338.682 103.253 338.833 102.163 338.624 100.98C338.106 98.0426 335.59 95.6603 333.01 95.6603C332.991 95.6603 332.971 95.6603 332.951 95.6622V95.6603L330.417 95.71C330.345 95.706 330.271 95.704 330.202 95.704C330.074 95.704 329.949 95.71 329.825 95.7219L329.823 95.7239C329.11 95.7895 328.477 96.0461 327.955 96.4478C327.433 96.8495 327.021 97.3963 326.75 98.0446C326.688 98.0307 326.628 98.0148 326.566 98.0009C326.55 97.8219 326.526 97.6409 326.495 97.458C325.977 94.5208 323.463 92.1384 320.883 92.1384L318.11 92.1842C318.098 92.1842 318.086 92.1822 318.074 92.1822C318.031 92.1822 317.987 92.1842 317.945 92.1862L317.893 92.1881H317.891C317.69 92.1981 317.493 92.222 317.304 92.2597C317.304 92.2597 317.302 92.2597 317.302 92.2617C317.18 92.3035 313.104 93.781 314.497 98.9077L314.212 99.0329C314.212 99.0329 313.403 97.4003 311.953 96.5134C310.16 95.4176 308.991 95.6762 308.834 95.6961L306.415 95.708V95.712C303.895 95.7756 302.276 98.1301 302.788 101.028C303.029 102.398 303.708 103.643 304.622 104.585C304.539 104.699 304.455 104.812 304.373 104.927L303.533 104.937C303.409 104.925 303.284 104.919 303.158 104.919C303.001 104.919 302.848 104.927 302.696 104.945L300.559 104.967C300.547 104.967 300.533 104.965 300.521 104.965C300.463 104.963 300.405 104.963 300.348 104.963C300.246 104.963 300.146 104.967 300.049 104.975H300.043C299.959 104.981 299.878 104.989 299.796 105.001C297.533 105.315 296.133 107.56 296.613 110.285C297.015 112.563 298.621 114.504 300.525 115.26C300.419 116.187 300.362 117.137 300.356 118.108L299.421 118.124C299.382 118.122 299.34 118.12 299.3 118.12C299.202 118.12 299.107 118.126 299.013 118.132L298.834 118.134C298.834 118.134 298.836 118.14 298.838 118.145C296.523 118.412 295.077 120.679 295.565 123.439C296.083 126.376 298.597 128.759 301.178 128.759L302.228 128.743C302.475 129.427 302.742 130.105 303.033 130.769C301.226 131.427 300.182 133.458 300.607 135.864C301.105 138.688 303.447 140.999 305.923 141.172V141.174H305.929C306.027 141.18 306.122 141.186 306.22 141.186C306.348 141.186 306.473 141.178 306.599 141.168L308.971 141.142L308.969 141.14C308.989 141.142 309.009 141.142 309.031 141.142C309.357 141.142 309.668 141.104 309.965 141.03C310.349 141.418 310.74 141.798 311.14 142.164C310.626 143.087 310.427 144.274 310.656 145.568C311.176 148.508 313.69 150.888 316.27 150.888L319.019 150.846L319.017 150.844C319.037 150.846 319.056 150.846 319.078 150.846C320.652 150.846 321.885 149.957 322.491 148.599C322.801 148.683 323.116 148.762 323.429 148.834C323.445 149.011 323.469 149.192 323.501 149.375C324.019 152.312 326.534 154.694 329.114 154.694L331.921 154.65C331.923 154.65 331.923 154.65 331.923 154.65H331.931L332.11 154.648V154.646C334.582 154.533 336.162 152.198 335.656 149.331C335.624 149.148 335.584 148.969 335.536 148.79C335.626 148.768 335.716 148.742 335.805 148.718C336.887 150.033 338.403 150.888 339.947 150.888L342.652 150.84C342.688 150.842 342.721 150.846 342.757 150.846C345.339 150.846 347.01 148.464 346.492 145.527C346.297 144.419 345.815 143.389 345.156 142.538C345.504 142.09 345.835 141.625 346.146 141.144H349.317V141.142C349.337 141.142 349.357 141.144 349.377 141.144C351.958 141.144 353.63 138.761 353.112 135.824C352.733 133.679 351.287 131.833 349.53 130.992C349.6 130.24 349.638 129.477 349.642 128.697C349.769 128.699 349.899 128.709 350.028 128.709ZM329.479 141.327C320.387 141.327 311.588 133.227 309.822 123.236C308.057 113.244 313.995 105.144 323.086 105.144C332.178 105.144 340.976 113.246 342.743 123.236C344.51 133.227 338.57 141.327 329.479 141.327Z" fill="#8982B7"/>
<path d="M349.968 128.709C352.55 128.709 354.221 126.327 353.701 123.389C353.183 120.452 350.669 118.07 348.088 118.07C347.958 118.07 347.833 118.08 347.707 118.092C347.317 117.008 346.873 115.948 346.379 114.916C347.681 114.017 348.363 112.257 348.006 110.235C347.488 107.296 344.974 104.915 342.393 104.915C341.438 104.915 340.612 105.241 339.97 105.8C339.399 105.222 338.809 104.667 338.201 104.138C338.62 103.255 338.771 102.163 338.562 100.98C338.044 98.0426 335.53 95.6603 332.948 95.6603C331.052 95.6603 329.65 96.9489 329.243 98.7983C328.341 98.4761 327.427 98.2077 326.502 97.9989C326.486 97.8199 326.463 97.6409 326.431 97.458C325.913 94.5208 323.399 92.1384 320.817 92.1384C318.236 92.1384 316.564 94.5208 317.084 97.458C317.116 97.6409 317.156 97.8219 317.204 97.9989C316.158 98.2554 315.158 98.6014 314.206 99.031C313.174 97.0583 311.242 95.6622 309.266 95.6622C306.684 95.6622 305.013 98.0446 305.533 100.982C305.776 102.352 306.453 103.597 307.367 104.539C306.983 105.049 306.622 105.583 306.286 106.138C305.343 105.377 304.224 104.917 303.092 104.917C300.511 104.917 298.839 107.3 299.359 110.237C299.762 112.518 301.367 114.457 303.272 115.212C303.16 116.187 303.1 117.185 303.098 118.205C302.752 118.12 302.399 118.072 302.045 118.072C299.463 118.072 297.792 120.454 298.312 123.391C298.829 126.329 301.343 128.711 303.925 128.711C304.28 128.711 304.614 128.661 304.931 128.576C305.188 129.302 305.473 130.018 305.778 130.721C303.971 131.38 302.927 133.41 303.351 135.814C303.869 138.752 306.383 141.134 308.965 141.134C310.09 141.134 311.04 140.68 311.714 139.929C312.407 140.694 313.132 141.424 313.883 142.112C313.369 143.035 313.172 144.222 313.399 145.519C313.917 148.456 316.431 150.838 319.012 150.838C320.905 150.838 322.305 149.556 322.714 147.712C323.849 148.158 325.004 148.518 326.174 148.782C326.19 148.961 326.214 149.14 326.245 149.323C326.763 152.26 329.277 154.643 331.859 154.643C334.44 154.643 336.112 152.26 335.592 149.323C335.56 149.14 335.52 148.959 335.472 148.782C336.357 148.565 337.209 148.283 338.026 147.943C339.104 149.661 340.881 150.838 342.693 150.838C345.275 150.838 346.946 148.456 346.426 145.519C346.231 144.411 345.751 143.381 345.09 142.53C345.643 141.822 346.153 141.068 346.612 140.273C347.44 140.818 348.371 141.136 349.313 141.136C351.894 141.136 353.566 138.753 353.046 135.816C352.667 133.671 351.221 131.825 349.464 130.984C349.534 130.232 349.57 129.469 349.576 128.689C349.709 128.699 349.839 128.709 349.968 128.709ZM329.478 141.329C320.387 141.329 311.586 133.229 309.821 123.236C308.056 113.244 313.995 105.144 323.086 105.144C332.178 105.144 340.976 113.244 342.743 123.236C344.51 133.227 338.57 141.329 329.478 141.329Z" fill="#978DEF"/>
<path d="M174.979 131.183L186.183 172.92H196.133L184.93 131.183H174.979Z" fill="#8982B7"/>
<path d="M188.304 126.923L200.65 172.92H210.6L198.254 126.923H188.304Z" fill="#8982B7"/>
<path d="M200.65 119.583L214.967 172.92H224.917L210.6 119.583H200.65Z" fill="#8982B7"/>
<path d="M224.22 114.178H214.27L228.584 167.515H238.534L224.22 114.178Z" fill="#8982B7"/>
<path d="M176.453 127.106L187.117 118.925L187.923 121.928C188.057 122.423 188.459 122.876 188.963 123.097C189.467 123.32 189.987 123.268 190.3 122.968L201.69 112.102L203.284 113.532C203.477 113.705 203.736 113.625 203.712 113.403L203.2 108.851C203.182 108.694 203.025 108.552 202.865 108.546L198.136 108.395C197.905 108.387 197.847 108.654 198.043 108.829L199.465 110.106L189.832 119.297L189.093 116.547C188.965 116.069 188.587 115.632 188.107 115.403C187.628 115.174 187.121 115.192 186.788 115.447L174.459 124.907C173.955 125.295 173.991 126.1 174.543 126.708C174.898 127.1 175.378 127.313 175.81 127.313C176.047 127.309 176.272 127.243 176.453 127.106Z" fill="#8982B7"/>
<path d="M173.362 161.505L173.782 163.13C173.547 162.659 173.416 162.108 173.362 161.505Z" fill="#CAE0FF"/>
<path opacity="0.81" d="M384.91 180.872H178.43L173.782 163.13C178.061 172.303 212.847 162.265 220.644 156.683C234.899 146.41 235.004 136.292 249.759 129.425C269.737 120.12 289.717 134.693 305.784 130.709C355.062 118.523 395.912 78.6595 397.171 77.4008C383.335 109.376 349.626 126.201 375.538 136.685C402.422 147.561 384.91 180.872 384.91 180.872Z" fill="#EAEAEA"/>
<path d="M177.768 90.6331C177.171 90.2712 175.959 89.772 174.135 89.1416C173.276 88.8453 172.669 88.6047 172.314 88.4158C171.862 88.1752 171.567 87.8252 171.426 87.3678C171.256 86.8169 171.318 86.3894 171.611 86.0871C171.904 85.7849 172.324 85.6337 172.878 85.6337C173.256 85.6337 173.774 85.751 174.434 85.9877C175.093 86.2243 175.543 86.3417 175.786 86.3417C176.123 86.3417 176.374 86.2442 176.537 86.0513C176.7 85.8584 176.73 85.5939 176.629 85.2599C176.505 84.8582 176.194 84.5042 175.696 84.196C174.796 83.6352 173.665 83.3528 172.302 83.3528C170.979 83.3528 169.973 83.7028 169.284 84.4008C168.529 85.1545 168.348 86.1687 168.74 87.4454C169.161 88.8175 170.065 89.8516 171.451 90.5516C172.681 90.995 173.908 91.4385 175.137 91.8819C176.459 92.3652 177.25 93.0373 177.515 93.8984C177.696 94.489 177.633 94.9981 177.324 95.4217C177.015 95.8452 176.565 96.056 175.971 96.056C175.418 96.056 174.862 95.9745 174.298 95.8134C174.266 95.7995 173.89 95.6722 173.169 95.4296C172.639 95.2407 172.3 95.1472 172.151 95.1472C171.8 95.1472 171.541 95.2487 171.374 95.4495C171.206 95.6524 171.177 95.9268 171.284 96.2768C171.503 96.9907 172.258 97.5415 173.551 97.9333C174.505 98.2296 175.433 98.3768 176.338 98.3768C177.836 98.3768 178.945 97.9731 179.67 97.1677C180.445 96.3066 180.609 95.1453 180.161 93.6796C179.758 92.3731 178.961 91.3589 177.768 90.6331Z" fill="#8982B7"/>
<path d="M184.166 85.8326H186.242C187.314 85.8326 187.73 85.4428 187.491 84.6613C187.248 83.8678 186.581 83.4701 185.487 83.4701H178.852C177.76 83.4701 177.336 83.8678 177.577 84.6613C177.816 85.4428 178.475 85.8326 179.555 85.8326H181.599L184.933 96.7182C185.272 97.8219 185.861 98.3747 186.706 98.3747C187.575 98.3747 187.841 97.8219 187.503 96.7182L184.166 85.8326Z" fill="#8982B7"/>
<path d="M202.116 96.4775L194.292 84.8044C193.618 83.7942 192.83 83.2891 191.925 83.2891C191.049 83.2891 190.575 83.8339 190.505 84.9257L189.74 96.4994C189.726 96.7142 189.758 96.9568 189.842 97.2273C189.949 97.5772 190.152 97.8576 190.453 98.0645C190.754 98.2733 191.081 98.3767 191.431 98.3767C191.999 98.3767 192.302 98.0207 192.342 97.3088L192.437 94.8827H198.399L199.937 97.2412C200.423 97.9988 200.977 98.3767 201.592 98.3767C201.941 98.3767 202.208 98.2713 202.391 98.0645C202.574 97.8576 202.616 97.5832 202.513 97.2471C202.447 97.0304 202.313 96.7738 202.116 96.4775ZM192.523 92.6196L192.762 86.3993C192.772 86.3058 192.782 86.2382 192.796 86.1964L196.949 92.6176L192.523 92.6196Z" fill="#8982B7"/>
<path d="M212.752 95.9327L207.825 91.8739C210.425 91.685 211.343 90.3467 210.58 87.8549C210.138 86.4152 209.307 85.3095 208.088 84.5419C206.967 83.828 205.67 83.472 204.2 83.472H201.307C200.242 83.472 199.881 84.0328 200.224 85.1524L203.778 96.758C204.116 97.8656 204.708 98.4185 205.55 98.4185C206.419 98.4185 206.688 97.8696 206.351 96.7719L204.869 91.9356L205.001 92.037L211.401 97.631C212.008 98.156 212.528 98.4185 212.961 98.4185C213.299 98.4185 213.55 98.3131 213.716 98.1062C213.881 97.8974 213.913 97.625 213.811 97.2889C213.682 96.8534 213.327 96.404 212.752 95.9327ZM206.044 90.2572C205.258 90.2572 204.684 90.2174 204.319 90.1359L202.989 85.7947H204.879C206.479 85.7947 207.499 86.5186 207.943 87.9663C208.413 89.4916 207.779 90.2572 206.044 90.2572Z" fill="#8982B7"/>
<path d="M216.781 85.8326H218.857C219.929 85.8326 220.345 85.4428 220.106 84.6613C219.863 83.8678 219.196 83.4701 218.102 83.4701H211.467C210.375 83.4701 209.951 83.8678 210.192 84.6613C210.431 85.4428 211.09 85.8326 212.17 85.8326H214.214L217.548 96.7182C217.887 97.8219 218.477 98.3747 219.321 98.3747C220.192 98.3747 220.457 97.8219 220.118 96.7182L216.781 85.8326Z" fill="#8982B7"/>
<path d="M232.433 96.6148C232.315 96.233 232.076 95.9029 231.716 95.6264C231.353 95.35 230.98 95.2108 230.598 95.2108C230.216 95.2108 229.929 95.348 229.736 95.6264C229.542 95.9029 229.506 96.233 229.622 96.6148C229.739 96.9966 229.979 97.3267 230.339 97.6031C230.702 97.8795 231.074 98.0187 231.455 98.0187C231.835 98.0187 232.124 97.8795 232.317 97.6031C232.512 97.3247 232.55 96.9966 232.433 96.6148Z" fill="#8982B7"/>
<path d="M230.859 92.051L228.602 84.6812C228.275 83.6153 227.695 83.0803 226.865 83.0803C226.046 83.0803 225.801 83.6133 226.128 84.6812L228.385 92.051C228.723 93.1566 229.309 93.7114 230.14 93.7114C230.956 93.7095 231.195 93.1566 230.859 92.051Z" fill="#8982B7"/>
<path opacity="0.72" d="M355.56 180.872H255.325C259.604 177.36 265.458 171.279 268.556 162.553C273.806 147.824 291.736 153.905 307.567 151.361C323.423 148.82 355.409 116.59 356.502 120.303C357.088 122.292 349.939 148.478 360.441 151.439C370.813 154.35 374.777 170.704 355.56 180.872Z" fill="#C2BDEE"/>
<path d="M497.556 256H0.444216C0.201192 256 0 255.801 0 255.557C0 255.314 0.1992 255.113 0.444216 255.113H497.558C497.803 255.113 498.002 255.312 498.002 255.557C498 255.801 497.801 256 497.556 256Z" fill="#283250"/>
</g>
<defs>
<clipPath id="clip0_103_12573">
<rect width="498" height="256" fill="white"/>
</clipPath>
</defs>
</svg>
