<svg width="36" height="36" viewBox="0 0 36 36" fill="none" xmlns="http://www.w3.org/2000/svg">
<path d="M32.3398 16.11L30.2998 13.74C29.9098 13.29 29.5948 12.45 29.5948 11.85V9.29997C29.5948 7.70997 28.2898 6.40497 26.6998 6.40497H24.1498C23.5648 6.40497 22.7098 6.08997 22.2598 5.69997L19.8898 3.65997C18.8548 2.77497 17.1598 2.77497 16.1098 3.65997L13.7548 5.71497C13.3048 6.08997 12.4498 6.40497 11.8648 6.40497H9.26982C7.67982 6.40497 6.37482 7.70997 6.37482 9.29997V11.865C6.37482 12.45 6.05982 13.29 5.68482 13.74L3.65982 16.125C2.78982 17.16 2.78982 18.84 3.65982 19.875L5.68482 22.26C6.05982 22.71 6.37482 23.55 6.37482 24.135V26.7C6.37482 28.29 7.67982 29.595 9.26982 29.595H11.8648C12.4498 29.595 13.3048 29.91 13.7548 30.3L16.1248 32.34C17.1598 33.225 18.8548 33.225 19.9048 32.34L22.2748 30.3C22.7248 29.91 23.5648 29.595 24.1648 29.595H26.7148C28.3048 29.595 29.6098 28.29 29.6098 26.7V24.15C29.6098 23.565 29.9248 22.71 30.3148 22.26L32.3548 19.89C33.2248 18.855 33.2248 17.145 32.3398 16.11ZM24.2398 15.165L16.9948 22.41C16.7848 22.62 16.4998 22.74 16.1998 22.74C15.8998 22.74 15.6148 22.62 15.4048 22.41L11.7748 18.78C11.3398 18.345 11.3398 17.625 11.7748 17.19C12.2098 16.755 12.9298 16.755 13.3648 17.19L16.1998 20.025L22.6498 13.575C23.0848 13.14 23.8048 13.14 24.2398 13.575C24.6748 14.01 24.6748 14.73 24.2398 15.165Z" fill="#978DEF"/>
</svg>
