<svg width="1440" height="323" viewBox="0 0 1440 323" fill="none" xmlns="http://www.w3.org/2000/svg">
<path d="M0.0142822 5.29523C0.0142822 2.38336 3.42627 0 7.59485 0L379 0C373.489 29.8867 339.341 47.7868 320.939 53.5707C292.387 62.5457 274.185 77.504 278.825 104.18C283.465 130.855 272.401 146.811 222.792 163.265C179.064 177.765 189.6 193.431 168.543 254.76C147.486 316.089 89.3109 299.136 29.5086 311.851C18.0877 314.274 8.39432 318.094 0 323L0 5.29523H0.0142822Z" fill="url(#paint0_linear_416_32560)"/>
<path d="M1439.99 5.29523C1439.99 2.38336 1436.57 0 1432.41 0L1061 0C1066.51 29.8867 1100.66 47.7868 1119.06 53.5707C1147.61 62.5457 1165.81 77.504 1161.17 104.18C1156.54 130.855 1167.6 146.811 1217.21 163.265C1260.94 177.765 1250.4 193.431 1271.46 254.76C1292.51 316.089 1350.69 299.136 1410.49 311.851C1421.91 314.274 1431.61 318.094 1440 323V5.29523H1439.99Z" fill="url(#paint1_linear_416_32560)"/>
<defs>
<linearGradient id="paint0_linear_416_32560" x1="13.645" y1="186.928" x2="198.626" y2="-76.9917" gradientUnits="userSpaceOnUse">
<stop stop-color="#978DEF"/>
<stop offset="1" stop-color="#D7D2FF"/>
</linearGradient>
<linearGradient id="paint1_linear_416_32560" x1="1426.35" y1="186.928" x2="1241.37" y2="-76.9917" gradientUnits="userSpaceOnUse">
<stop stop-color="#978DEF"/>
<stop offset="1" stop-color="#D7D2FF"/>
</linearGradient>
</defs>
</svg>
