<svg width="350" height="219" viewBox="0 0 350 219" fill="none" xmlns="http://www.w3.org/2000/svg">
<path opacity="0.6" d="M126.128 55.8641C141.555 55.8641 154.06 43.3585 154.06 27.932C154.06 12.5056 141.555 0 126.128 0C110.702 0 98.1962 12.5056 98.1962 27.932C98.1962 43.3585 110.702 55.8641 126.128 55.8641Z" fill="#978DEF" fill-opacity="0.41"/>
<path opacity="0.6" d="M126.128 46.6947C136.491 46.6947 144.891 38.2943 144.891 27.9318C144.891 17.5694 136.491 9.16895 126.128 9.16895C115.766 9.16895 107.365 17.5694 107.365 27.9318C107.365 38.2943 115.766 46.6947 126.128 46.6947Z" fill="white"/>
<path opacity="0.6" d="M59.5999 58.8479C65.9614 52.4864 65.9614 42.1723 59.5999 35.8108C53.2384 29.4493 42.9243 29.4493 36.5628 35.8108C30.2013 42.1723 30.2013 52.4864 36.5628 58.8479C42.9243 65.2094 53.2384 65.2094 59.5999 58.8479Z" fill="#978DEF" fill-opacity="0.41"/>
<path opacity="0.6" d="M55.822 55.0699C60.097 50.7949 60.097 43.8638 55.822 39.5887C51.547 35.3137 44.6158 35.3137 40.3408 39.5887C36.0658 43.8638 36.0658 50.7949 40.3408 55.0699C44.6158 59.345 51.547 59.345 55.822 55.0699Z" fill="white"/>
<path opacity="0.6" d="M313.717 107.883C316.041 98.0412 309.946 88.1793 300.105 85.8555C290.263 83.5316 280.401 89.6258 278.078 99.4673C275.754 109.309 281.848 119.171 291.689 121.495C301.531 123.818 311.393 117.724 313.717 107.883Z" fill="#978DEF" fill-opacity="0.41"/>
<path opacity="0.6" d="M295.89 115.956C302.683 115.956 308.19 110.449 308.19 103.656C308.19 96.8624 302.683 91.3555 295.89 91.3555C289.097 91.3555 283.59 96.8624 283.59 103.656C283.59 110.449 289.097 115.956 295.89 115.956Z" fill="white"/>
<path opacity="0.6" d="M338.11 219H17.7969C21.3945 213.998 26.3967 207.414 32.2342 200.75C43.5218 187.848 57.9218 174.643 71.2625 172.034C72.8117 171.726 74.3469 171.568 75.8634 171.568C104.248 171.568 116.049 201.021 137.145 201.021C152.361 201.021 164.512 182.893 178.544 167.308C189.127 155.553 200.769 145.241 215.603 145.241C240.702 145.241 254.818 174.988 268.257 191.208C273.296 197.288 278.238 201.464 283.627 201.464C302.063 201.464 317.891 186.341 338.11 219Z" fill="#978DEF" fill-opacity="0.58"/>
<path opacity="0.6" d="M315.857 169.501C295.433 169.501 281.28 180.639 268.257 191.208C256.502 200.741 245.667 209.812 231.977 209.812C212.327 209.812 196.411 187.722 178.544 167.308C163.192 149.772 146.408 133.463 124.584 133.463C98.9146 133.463 83.9314 153.621 71.2626 172.034C60.6143 187.498 51.5945 201.726 39.2336 201.726C36.9378 201.726 34.6047 201.366 32.2343 200.75C22.0199 198.114 11.1383 190.816 0 187.685V219H349.967V184.545C338.684 175.683 326.869 169.501 315.857 169.501Z" fill="#978DEF" fill-opacity="0.3"/>
<path d="M287.51 45.3087C291.28 45.3087 294.336 42.2522 294.336 38.482C294.336 34.7117 291.28 31.6553 287.51 31.6553C283.739 31.6553 280.683 34.7117 280.683 38.482C280.683 42.2522 283.739 45.3087 287.51 45.3087Z" fill="#978DEF" fill-opacity="0.41"/>
<path d="M288.33 41.9941C290.279 41.5339 291.486 39.5811 291.026 37.6324C290.565 35.6837 288.613 34.4769 286.664 34.9371C284.715 35.3972 283.509 37.35 283.969 39.2988C284.429 41.2475 286.382 42.4542 288.33 41.9941Z" fill="white"/>
<path d="M320.188 35.0971C325.525 33.8369 328.83 28.4887 327.569 23.1517C326.309 17.8146 320.961 14.5097 315.624 15.7699C310.287 17.0301 306.982 22.3783 308.242 27.7154C309.502 33.0524 314.85 36.3574 320.188 35.0971Z" fill="#978DEF" fill-opacity="0.41"/>
<path d="M317.924 30.7271C320.839 30.7271 323.201 28.3643 323.201 25.4496C323.201 22.5349 320.839 20.1721 317.924 20.1721C315.009 20.1721 312.646 22.5349 312.646 25.4496C312.646 28.3643 315.009 30.7271 317.924 30.7271Z" fill="white"/>
<path d="M319.271 151.673C320.714 148.19 319.06 144.196 315.576 142.753C312.093 141.31 308.099 142.965 306.657 146.448C305.214 149.931 306.868 153.925 310.351 155.368C313.834 156.811 317.828 155.156 319.271 151.673Z" fill="#978DEF" fill-opacity="0.41"/>
<path d="M315.515 151.629C316.931 150.213 316.931 147.917 315.515 146.501C314.099 145.085 311.804 145.085 310.388 146.501C308.972 147.917 308.972 150.213 310.388 151.629C311.804 153.045 314.099 153.045 315.515 151.629Z" fill="white"/>
<path d="M61.7809 124.893C63.2238 121.409 61.5696 117.416 58.0863 115.973C54.6029 114.53 50.6094 116.184 49.1665 119.667C47.7236 123.151 49.3778 127.144 52.8611 128.587C56.3445 130.03 60.338 128.376 61.7809 124.893Z" fill="#978DEF" fill-opacity="0.41"/>
<path d="M56.3046 125.798C58.2533 125.338 59.46 123.385 58.9999 121.437C58.5397 119.488 56.587 118.281 54.6382 118.741C52.6895 119.201 51.4828 121.154 51.9429 123.103C52.4031 125.052 54.3559 126.258 56.3046 125.798Z" fill="white"/>
<path d="M245.453 49.1775V85.3454" stroke="white" stroke-width="0.466623" stroke-miterlimit="10" stroke-linecap="round" stroke-linejoin="round"/>
<path d="M64.683 59.5879V81.9298C64.683 85.7001 67.7394 88.7611 71.5143 88.7611H91.3738" stroke="white" stroke-width="0.466623" stroke-miterlimit="10" stroke-linecap="round" stroke-linejoin="round"/>
<path d="M116.651 111.397V143.072C116.651 146.842 113.594 149.903 109.819 149.903H89.9646" stroke="white" stroke-width="0.466623" stroke-miterlimit="10" stroke-linecap="round" stroke-linejoin="round"/>
<path d="M127.332 51.0631C125.727 51.0631 124.425 49.7612 124.425 48.156V40.5548C124.425 38.9496 125.727 37.6477 127.332 37.6477C128.937 37.6477 130.239 38.9496 130.239 40.5548V48.156C130.239 49.7612 128.937 51.0631 127.332 51.0631Z" fill="url(#paint0_linear_416_5343)"/>
<path d="M222.285 51.0631C220.68 51.0631 219.378 49.7612 219.378 48.156V40.5548C219.378 38.9496 220.68 37.6477 222.285 37.6477C223.89 37.6477 225.192 38.9496 225.192 40.5548V48.156C225.192 49.7612 223.89 51.0631 222.285 51.0631Z" fill="url(#paint1_linear_416_5343)"/>
<path d="M127.332 66.7135C125.727 66.7135 124.425 65.4116 124.425 63.8064V56.2052C124.425 54.6 125.727 53.2981 127.332 53.2981C128.937 53.2981 130.239 54.6 130.239 56.2052V63.8064C130.239 65.4116 128.937 66.7135 127.332 66.7135Z" fill="url(#paint2_linear_416_5343)"/>
<path d="M213.326 186.836H136.641C131.592 186.836 127.504 182.744 127.504 177.7V26.99C127.504 21.9411 131.597 17.8535 136.641 17.8535H213.33C218.379 17.8535 222.467 21.9458 222.467 26.99V177.695C222.467 182.744 218.374 186.836 213.326 186.836Z" fill="url(#paint3_linear_416_5343)"/>
<path opacity="0.97" d="M211.889 183.028H138.078C134.919 183.028 132.362 180.467 132.362 177.312V27.3817C132.362 24.2226 134.924 21.6655 138.078 21.6655H211.893C215.052 21.6655 217.609 24.2273 217.609 27.3817V177.312C217.609 180.467 215.048 183.028 211.889 183.028Z" fill="url(#paint4_linear_416_5343)"/>
<path opacity="0.6" d="M193.681 176.118H156.286C155.815 176.118 155.432 176.5 155.432 176.972V177.126C155.432 177.597 155.815 177.979 156.286 177.979H193.681C194.152 177.979 194.535 177.597 194.535 177.126V176.972C194.535 176.5 194.152 176.118 193.681 176.118Z" fill="white"/>
<path d="M196.345 21.2971H152.231L155.269 25.1468C156.3 26.4486 157.868 27.2139 159.529 27.2139H189.047C190.709 27.2139 192.277 26.4533 193.308 25.1468L196.345 21.2971Z" fill="url(#paint5_linear_416_5343)"/>
<g opacity="0.6">
<path d="M184.642 21.3154H170.9C170.261 21.3154 169.738 21.8334 169.738 22.4773C169.738 23.1166 170.256 23.6392 170.9 23.6392H184.642C185.281 23.6392 185.804 23.1213 185.804 22.4773C185.799 21.8334 185.281 21.3154 184.642 21.3154Z" fill="white"/>
<path d="M165.278 23.6391C165.894 23.6391 166.393 23.1398 166.393 22.5239C166.393 21.908 165.894 21.4087 165.278 21.4087C164.662 21.4087 164.162 21.908 164.162 22.5239C164.162 23.1398 164.662 23.6391 165.278 23.6391Z" fill="white"/>
</g>
<path d="M146.748 120.636H95.4756C92.3212 120.636 89.7688 118.079 89.7688 114.929V77.3755C89.7688 74.2211 92.3259 71.6687 95.4756 71.6687H146.748C149.902 71.6687 152.455 74.2258 152.455 77.3755V114.929C152.46 118.079 149.902 120.636 146.748 120.636Z" fill="url(#paint6_linear_416_5343)"/>
<path d="M96.3389 77.3801H146.179" stroke="white" stroke-width="1.39987" stroke-miterlimit="10" stroke-linecap="round" stroke-linejoin="round"/>
<path d="M96.3389 82.8955H146.179" stroke="white" stroke-width="1.39987" stroke-miterlimit="10" stroke-linecap="round" stroke-linejoin="round"/>
<path d="M96.3389 88.4111H146.179" stroke="white" stroke-width="1.39987" stroke-miterlimit="10" stroke-linecap="round" stroke-linejoin="round"/>
<path d="M96.3389 93.9263H134.331" stroke="white" stroke-width="1.39987" stroke-miterlimit="10" stroke-linecap="round" stroke-linejoin="round"/>
<path d="M109.465 115.2H97.3002C96.3156 115.2 95.5177 114.402 95.5177 113.417V101.252C95.5177 100.268 96.3156 99.47 97.3002 99.47H109.465C110.45 99.47 111.248 100.268 111.248 101.252V113.417C111.248 114.402 110.45 115.2 109.465 115.2Z" fill="url(#paint7_linear_416_5343)"/>
<path d="M103.376 113.105C106.589 113.105 109.194 110.5 109.194 107.286C109.194 104.072 106.589 101.467 103.376 101.467C100.162 101.467 97.5569 104.072 97.5569 107.286C97.5569 110.5 100.162 113.105 103.376 113.105Z" fill="white"/>
<path d="M144.737 115.2H117.598C116.688 115.2 115.951 114.463 115.951 113.553V108.886C115.951 107.977 116.688 107.239 117.598 107.239H144.737C145.647 107.239 146.384 107.977 146.384 108.886V113.553C146.384 114.463 145.647 115.2 144.737 115.2Z" fill="url(#paint8_linear_416_5343)"/>
<path d="M105.107 105.588C105.107 104.631 104.332 103.861 103.375 103.861C102.419 103.861 101.649 104.636 101.649 105.588C101.649 106.544 102.424 107.314 103.375 107.314C104.332 107.319 105.107 106.544 105.107 105.588Z" fill="url(#paint9_linear_416_5343)"/>
<path d="M106.198 109.68V109.736C105.354 110.184 104.393 110.436 103.375 110.436C102.354 110.436 101.392 110.184 100.552 109.731V109.675C100.552 108.112 101.817 106.847 103.375 106.847C104.934 106.852 106.198 108.117 106.198 109.68Z" fill="url(#paint10_linear_416_5343)"/>
<path d="M121.952 112.694V111.322H122.148L122.198 111.585L122.103 111.54C122.189 111.448 122.273 111.384 122.354 111.348C122.435 111.312 122.52 111.294 122.61 111.294C122.677 111.294 122.742 111.305 122.803 111.327C122.866 111.349 122.922 111.387 122.971 111.442C123.022 111.496 123.062 111.572 123.092 111.669L123.022 111.638C123.063 111.532 123.126 111.448 123.211 111.386C123.295 111.325 123.41 111.294 123.553 111.294C123.668 111.294 123.765 111.315 123.843 111.358C123.922 111.4 123.98 111.465 124.02 111.553C124.06 111.64 124.08 111.75 124.08 111.884V112.694H123.828V111.887C123.828 111.758 123.803 111.665 123.752 111.606C123.702 111.547 123.62 111.518 123.506 111.518C123.426 111.518 123.361 111.53 123.313 111.556C123.264 111.58 123.227 111.612 123.202 111.651C123.178 111.69 123.162 111.731 123.153 111.775C123.146 111.819 123.142 111.86 123.142 111.898V112.694H122.89V111.938C122.89 111.826 122.876 111.739 122.849 111.679C122.822 111.618 122.784 111.576 122.736 111.553C122.687 111.529 122.631 111.518 122.568 111.518C122.476 111.518 122.393 111.538 122.32 111.579C122.247 111.619 122.198 111.684 122.173 111.772L122.204 111.635V112.694H121.952ZM125.006 112.722C124.863 112.722 124.74 112.69 124.638 112.626C124.537 112.562 124.46 112.476 124.406 112.369C124.353 112.261 124.326 112.14 124.326 112.008C124.326 111.875 124.353 111.755 124.406 111.648C124.46 111.54 124.537 111.454 124.638 111.39C124.74 111.326 124.863 111.294 125.006 111.294C125.149 111.294 125.271 111.326 125.373 111.39C125.475 111.454 125.552 111.54 125.606 111.648C125.66 111.755 125.687 111.875 125.687 112.008C125.687 112.14 125.66 112.261 125.606 112.369C125.552 112.476 125.475 112.562 125.373 112.626C125.271 112.69 125.149 112.722 125.006 112.722ZM125.006 112.498C125.143 112.498 125.247 112.455 125.32 112.369C125.393 112.282 125.429 112.162 125.429 112.008C125.429 111.854 125.393 111.734 125.32 111.648C125.247 111.561 125.143 111.518 125.006 111.518C124.871 111.518 124.767 111.561 124.693 111.648C124.62 111.734 124.584 111.854 124.584 112.008C124.584 112.162 124.62 112.282 124.693 112.369C124.767 112.455 124.871 112.498 125.006 112.498ZM125.947 112.694V111.322H126.154L126.185 111.549C126.255 111.462 126.321 111.398 126.385 111.357C126.449 111.315 126.518 111.294 126.591 111.294C126.614 111.294 126.635 111.297 126.655 111.302L126.63 111.579C126.618 111.577 126.605 111.575 126.591 111.574C126.577 111.572 126.563 111.571 126.546 111.571C126.473 111.571 126.406 111.587 126.344 111.62C126.283 111.652 126.241 111.687 126.215 111.725V112.694H125.947ZM127.455 112.722C127.293 112.722 127.158 112.688 127.047 112.622C126.937 112.556 126.854 112.468 126.797 112.359C126.741 112.249 126.713 112.128 126.713 111.996C126.713 111.869 126.739 111.751 126.791 111.645C126.844 111.539 126.921 111.454 127.021 111.39C127.122 111.326 127.243 111.294 127.385 111.294C127.499 111.294 127.6 111.317 127.689 111.362C127.778 111.407 127.848 111.473 127.899 111.56C127.95 111.646 127.976 111.75 127.976 111.873C127.976 111.893 127.975 111.914 127.973 111.938C127.972 111.96 127.969 111.983 127.964 112.008H126.97C126.983 112.135 127.013 112.234 127.061 112.304C127.11 112.375 127.171 112.425 127.245 112.454C127.319 112.483 127.399 112.498 127.486 112.498C127.549 112.498 127.615 112.491 127.684 112.478C127.753 112.465 127.819 112.444 127.88 112.416L127.914 112.615C127.861 112.639 127.796 112.662 127.719 112.687C127.643 112.71 127.555 112.722 127.455 112.722ZM126.993 111.834H127.715C127.715 111.77 127.703 111.714 127.679 111.666C127.655 111.619 127.618 111.582 127.568 111.557C127.519 111.531 127.456 111.518 127.379 111.518C127.267 111.518 127.181 111.546 127.12 111.602C127.061 111.657 127.018 111.734 126.993 111.834ZM128.858 112.694V111.322H129.11V112.694H128.858ZM128.858 111.014V110.734H129.11V111.014H128.858ZM129.452 112.694V111.322H129.648L129.698 111.585L129.6 111.543C129.692 111.44 129.783 111.373 129.87 111.341C129.959 111.31 130.045 111.294 130.129 111.294C130.33 111.294 130.473 111.352 130.559 111.467C130.646 111.583 130.689 111.74 130.689 111.938V112.694H130.437V111.938C130.437 111.792 130.41 111.686 130.356 111.619C130.302 111.551 130.21 111.518 130.079 111.518C129.986 111.518 129.902 111.538 129.824 111.579C129.748 111.619 129.697 111.684 129.673 111.772L129.704 111.619V112.694H129.452ZM131.097 112.694V111.518H130.859L130.893 111.322H131.097V110.997C131.097 110.875 131.13 110.777 131.195 110.704C131.26 110.631 131.357 110.594 131.484 110.594C131.53 110.594 131.571 110.597 131.605 110.604C131.641 110.61 131.673 110.619 131.702 110.63L131.663 110.843C131.64 110.835 131.618 110.829 131.597 110.825C131.575 110.82 131.551 110.818 131.523 110.818C131.469 110.818 131.426 110.833 131.395 110.864C131.365 110.894 131.349 110.944 131.349 111.014V111.322H131.719V111.518H131.349V112.694H131.097ZM132.501 112.722C132.357 112.722 132.234 112.69 132.132 112.626C132.032 112.562 131.954 112.476 131.9 112.369C131.847 112.261 131.82 112.14 131.82 112.008C131.82 111.875 131.847 111.755 131.9 111.648C131.954 111.54 132.032 111.454 132.132 111.39C132.234 111.326 132.357 111.294 132.501 111.294C132.643 111.294 132.766 111.326 132.867 111.39C132.969 111.454 133.047 111.54 133.1 111.648C133.154 111.755 133.181 111.875 133.181 112.008C133.181 112.14 133.154 112.261 133.1 112.369C133.047 112.476 132.969 112.562 132.867 112.626C132.766 112.69 132.643 112.722 132.501 112.722ZM132.501 112.498C132.637 112.498 132.741 112.455 132.814 112.369C132.887 112.282 132.923 112.162 132.923 112.008C132.923 111.854 132.887 111.734 132.814 111.648C132.741 111.561 132.637 111.518 132.501 111.518C132.365 111.518 132.261 111.561 132.187 111.648C132.114 111.734 132.078 111.854 132.078 112.008C132.078 112.162 132.114 112.282 132.187 112.369C132.261 112.455 132.365 112.498 132.501 112.498Z" fill="white"/>
<path d="M245.401 59.7091C252.942 59.7091 259.055 53.5963 259.055 46.0557C259.055 38.5152 252.942 32.4023 245.401 32.4023C237.861 32.4023 231.748 38.5152 231.748 46.0557C231.748 53.5963 237.861 59.7091 245.401 59.7091Z" fill="url(#paint11_linear_416_5343)"/>
<path d="M247.43 54.6695C252.195 53.5443 255.146 48.7692 254.021 44.0039C252.895 39.2387 248.12 36.2879 243.355 37.4131C238.59 38.5383 235.639 43.3134 236.764 48.0787C237.889 52.8439 242.665 55.7947 247.43 54.6695Z" fill="white"/>
<path d="M245.439 40.3489C243.26 40.3489 241.496 42.1127 241.496 44.2918C241.496 48.5568 245.439 51.7438 245.439 51.7438C245.439 51.7438 249.382 48.8974 249.382 44.2918C249.382 42.1127 247.618 40.3489 245.439 40.3489ZM245.439 46.8863C244.006 46.8863 242.844 45.7244 242.844 44.2918C242.844 42.8593 244.006 41.6974 245.439 41.6974C246.871 41.6974 248.033 42.8593 248.033 44.2918C248.033 45.7244 246.871 46.8863 245.439 46.8863Z" fill="url(#paint12_linear_416_5343)"/>
<path d="M289.348 167.891H238.075C234.921 167.891 232.369 165.334 232.369 162.184V77.3709C232.369 74.2165 234.926 71.6641 238.075 71.6641H289.348C292.502 71.6641 295.055 74.2212 295.055 77.3709V162.18C295.059 165.334 292.502 167.891 289.348 167.891Z" fill="url(#paint13_linear_416_5343)"/>
<path d="M287.556 88.2339H240.38C238.78 88.2339 237.487 86.9367 237.487 85.3408V80.7866C237.487 79.1861 238.785 77.8936 240.38 77.8936H287.556C289.156 77.8936 290.449 79.1908 290.449 80.7866V85.3408C290.454 86.9414 289.156 88.2339 287.556 88.2339Z" fill="url(#paint14_linear_416_5343)"/>
<path d="M287.556 103.133H240.38C238.78 103.133 237.487 101.836 237.487 100.24V95.686C237.487 94.0855 238.785 92.793 240.38 92.793H287.556C289.156 92.793 290.449 94.0902 290.449 95.686V100.24C290.454 101.836 289.156 103.133 287.556 103.133Z" fill="url(#paint15_linear_416_5343)"/>
<path d="M287.556 162.861H240.38C238.78 162.861 237.487 161.564 237.487 159.968V136.646C237.487 135.046 238.785 133.753 240.38 133.753H287.556C289.156 133.753 290.449 135.05 290.449 136.646V159.968C290.454 161.569 289.156 162.861 287.556 162.861Z" fill="url(#paint16_linear_416_5343)"/>
<path opacity="0.6" d="M265.665 158.719C271.416 157.786 275.322 152.366 274.389 146.615C273.455 140.863 268.036 136.957 262.284 137.891C256.533 138.824 252.627 144.243 253.56 149.995C254.494 155.747 259.913 159.653 265.665 158.719Z" fill="white"/>
<path d="M238.523 110.067H289.367" stroke="white" stroke-width="1.39987" stroke-miterlimit="10" stroke-linecap="round" stroke-linejoin="round"/>
<path d="M238.523 116.063H289.367" stroke="white" stroke-width="1.39987" stroke-miterlimit="10" stroke-linecap="round" stroke-linejoin="round"/>
<path d="M238.523 122.064H289.367" stroke="white" stroke-width="1.39987" stroke-miterlimit="10" stroke-linecap="round" stroke-linejoin="round"/>
<path d="M238.523 128.065H258.178" stroke="white" stroke-width="1.39987" stroke-miterlimit="10" stroke-linecap="round" stroke-linejoin="round"/>
<path opacity="0.6" d="M288.065 83.1196C288.065 81.3371 286.623 79.8953 284.841 79.8953C283.058 79.8953 281.616 81.3371 281.616 83.1196C281.616 84.9021 283.058 86.344 284.841 86.344C286.623 86.344 288.065 84.9021 288.065 83.1196Z" fill="white"/>
<path opacity="0.6" d="M288.065 98.0376C288.065 96.2551 286.623 94.8132 284.841 94.8132C283.058 94.8132 281.616 96.2551 281.616 98.0376C281.616 99.8201 283.058 101.262 284.841 101.262C286.623 101.262 288.065 99.8201 288.065 98.0376Z" fill="white"/>
<path d="M283.459 82.3406L284.943 84.2911L286.427 82.3406" stroke="white" stroke-width="0.466623" stroke-miterlimit="10" stroke-linecap="round" stroke-linejoin="round"/>
<path d="M283.459 97.123L284.943 99.0689L286.427 97.123" stroke="white" stroke-width="0.466623" stroke-miterlimit="10" stroke-linecap="round" stroke-linejoin="round"/>
<path d="M261.075 153.323L269.059 148.139L261.075 142.955" fill="white"/>
<path d="M242.827 84.4529V83.081H243.023L243.074 83.3442L242.976 83.3022C243.068 83.1995 243.158 83.1323 243.246 83.1006C243.334 83.0689 243.421 83.053 243.505 83.053C243.705 83.053 243.849 83.1109 243.935 83.2266C244.021 83.3423 244.065 83.4991 244.065 83.697V84.4529H243.813V83.697C243.813 83.5514 243.786 83.445 243.732 83.3778C243.677 83.3106 243.585 83.277 243.454 83.277C243.362 83.277 243.277 83.2975 243.2 83.3386C243.123 83.3787 243.073 83.4431 243.048 83.5318L243.079 83.3778V84.4529H242.827ZM245.049 84.4809C244.888 84.4809 244.752 84.4477 244.642 84.3815C244.532 84.3152 244.448 84.2275 244.391 84.1183C244.335 84.0082 244.307 83.8873 244.307 83.7557C244.307 83.6279 244.333 83.5108 244.386 83.4044C244.439 83.298 244.515 83.2131 244.615 83.1496C244.716 83.0852 244.837 83.053 244.979 83.053C245.093 83.053 245.194 83.0759 245.283 83.1216C245.373 83.1664 245.442 83.2322 245.493 83.319C245.544 83.4048 245.57 83.5094 245.57 83.6326C245.57 83.6522 245.569 83.6736 245.567 83.697C245.566 83.7194 245.563 83.7427 245.559 83.7669H244.565C244.577 83.8939 244.607 83.9928 244.656 84.0637C244.704 84.1346 244.765 84.1846 244.839 84.2135C244.913 84.2424 244.993 84.2569 245.08 84.2569C245.143 84.2569 245.21 84.2504 245.279 84.2373C245.348 84.2242 245.413 84.2037 245.475 84.1757L245.508 84.3745C245.455 84.3978 245.39 84.4216 245.314 84.4459C245.237 84.4692 245.149 84.4809 245.049 84.4809ZM244.587 83.5934H245.31C245.31 83.529 245.297 83.473 245.273 83.4254C245.249 83.3778 245.212 83.3414 245.163 83.3162C245.113 83.2901 245.05 83.277 244.974 83.277C244.862 83.277 244.775 83.305 244.715 83.361C244.655 83.416 244.612 83.4935 244.587 83.5934ZM246.098 84.4529L245.687 83.081H245.983L246.247 84.1757L246.538 83.123H246.798L247.092 84.1757L247.355 83.081H247.652L247.238 84.4529H246.955L246.669 83.4394L246.381 84.4529H246.098ZM248.974 84.4809C248.867 84.4809 248.775 84.4594 248.7 84.4165C248.624 84.3726 248.566 84.3064 248.526 84.2177C248.487 84.129 248.467 84.0161 248.467 83.8789V83.081H248.719V83.8089C248.719 83.9545 248.744 84.0656 248.794 84.1421C248.844 84.2186 248.926 84.2569 249.039 84.2569C249.116 84.2569 249.188 84.2382 249.254 84.2009C249.32 84.1636 249.366 84.1038 249.391 84.0217L249.355 84.1589V83.081H249.607V84.4529H249.383L249.333 84.1841L249.4 84.2289C249.354 84.3138 249.298 84.3773 249.232 84.4193C249.166 84.4603 249.081 84.4809 248.974 84.4809ZM250.339 84.4809C250.217 84.4809 250.117 84.4664 250.036 84.4375C249.957 84.4086 249.901 84.3829 249.868 84.3605L249.899 84.1169C249.929 84.143 249.982 84.1729 250.057 84.2065C250.133 84.2401 250.223 84.2569 250.328 84.2569C250.416 84.2569 250.484 84.242 250.531 84.2121C250.578 84.1822 250.602 84.1402 250.602 84.0861C250.602 84.0385 250.587 84.0003 250.556 83.9713C250.526 83.9415 250.49 83.9181 250.447 83.9013C250.405 83.8836 250.365 83.8696 250.328 83.8593C250.265 83.8425 250.2 83.8215 250.133 83.7963C250.067 83.7702 250.011 83.7315 249.965 83.6802C249.919 83.6288 249.896 83.557 249.896 83.4646C249.896 83.3946 249.913 83.3283 249.947 83.2658C249.98 83.2023 250.035 83.151 250.111 83.1118C250.186 83.0726 250.287 83.053 250.412 83.053C250.503 83.053 250.577 83.0628 250.634 83.0824C250.692 83.1011 250.742 83.1211 250.784 83.1426L250.753 83.3722C250.713 83.3386 250.666 83.3101 250.613 83.2868C250.56 83.2635 250.495 83.2518 250.417 83.2518C250.339 83.2518 250.275 83.2667 250.225 83.2966C250.176 83.3255 250.151 83.3722 250.151 83.4366C250.151 83.501 250.177 83.5467 250.23 83.5738C250.283 83.6008 250.363 83.6307 250.47 83.6634C250.504 83.6727 250.543 83.6862 250.587 83.704C250.631 83.7217 250.675 83.7455 250.717 83.7753C250.759 83.8052 250.793 83.8444 250.82 83.8929C250.848 83.9405 250.862 84.0003 250.862 84.0721C250.862 84.1328 250.848 84.1948 250.819 84.2583C250.79 84.3208 250.738 84.3736 250.662 84.4165C250.587 84.4594 250.479 84.4809 250.339 84.4809ZM251.767 84.4809C251.605 84.4809 251.47 84.4477 251.359 84.3815C251.249 84.3152 251.166 84.2275 251.109 84.1183C251.053 84.0082 251.025 83.8873 251.025 83.7557C251.025 83.6279 251.051 83.5108 251.103 83.4044C251.157 83.298 251.233 83.2131 251.333 83.1496C251.434 83.0852 251.555 83.053 251.697 83.053C251.811 83.053 251.912 83.0759 252.001 83.1216C252.09 83.1664 252.16 83.2322 252.211 83.319C252.262 83.4048 252.288 83.5094 252.288 83.6326C252.288 83.6522 252.287 83.6736 252.285 83.697C252.284 83.7194 252.281 83.7427 252.276 83.7669H251.283C251.295 83.8939 251.325 83.9928 251.373 84.0637C251.422 84.1346 251.483 84.1846 251.557 84.2135C251.631 84.2424 251.711 84.2569 251.798 84.2569C251.861 84.2569 251.927 84.2504 251.996 84.2373C252.065 84.2242 252.131 84.2037 252.192 84.1757L252.226 84.3745C252.173 84.3978 252.108 84.4216 252.031 84.4459C251.955 84.4692 251.867 84.4809 251.767 84.4809ZM251.305 83.5934H252.027C252.027 83.529 252.015 83.473 251.991 83.4254C251.967 83.3778 251.93 83.3414 251.88 83.3162C251.831 83.2901 251.768 83.277 251.691 83.277C251.579 83.277 251.493 83.305 251.432 83.361C251.373 83.416 251.33 83.4935 251.305 83.5934ZM252.542 84.4529V83.081H252.749L252.78 83.3078C252.85 83.221 252.916 83.1571 252.98 83.116C253.044 83.074 253.113 83.053 253.186 83.053C253.209 83.053 253.23 83.0558 253.25 83.0614L253.225 83.3386C253.213 83.3358 253.2 83.3339 253.186 83.333C253.172 83.3311 253.158 83.3302 253.141 83.3302C253.068 83.3302 253.001 83.3465 252.939 83.3792C252.878 83.4109 252.836 83.4459 252.81 83.4842V84.4529H252.542Z" fill="white"/>
<path d="M243.216 99.3776C243.095 99.3776 242.994 99.3631 242.914 99.3342C242.835 99.3053 242.779 99.2796 242.746 99.2572L242.777 99.0136C242.807 99.0398 242.859 99.0696 242.935 99.1032C243.011 99.1368 243.101 99.1536 243.205 99.1536C243.294 99.1536 243.362 99.1387 243.408 99.1088C243.456 99.079 243.48 99.037 243.48 98.9828C243.48 98.9352 243.464 98.897 243.433 98.8681C243.404 98.8382 243.367 98.8149 243.324 98.7981C243.282 98.7803 243.243 98.7663 243.205 98.7561C243.143 98.7393 243.078 98.7183 243.011 98.6931C242.944 98.6669 242.888 98.6282 242.843 98.5769C242.797 98.5256 242.774 98.4537 242.774 98.3613C242.774 98.2913 242.791 98.225 242.824 98.1625C242.858 98.0991 242.913 98.0477 242.988 98.0085C243.064 97.9693 243.164 97.9497 243.289 97.9497C243.381 97.9497 243.455 97.9595 243.512 97.9791C243.57 97.9978 243.62 98.0179 243.662 98.0393L243.631 98.2689C243.591 98.2353 243.544 98.2069 243.491 98.1835C243.438 98.1602 243.372 98.1485 243.295 98.1485C243.216 98.1485 243.153 98.1635 243.103 98.1933C243.054 98.2222 243.029 98.2689 243.029 98.3333C243.029 98.3977 243.055 98.4434 243.107 98.4705C243.16 98.4976 243.241 98.5274 243.348 98.5601C243.382 98.5694 243.42 98.5829 243.464 98.6007C243.509 98.6184 243.552 98.6422 243.594 98.6721C243.636 98.7019 243.671 98.7411 243.698 98.7897C243.726 98.8373 243.74 98.897 243.74 98.9688C243.74 99.0295 243.726 99.0916 243.697 99.155C243.668 99.2176 243.615 99.2703 243.54 99.3132C243.464 99.3561 243.356 99.3776 243.216 99.3776ZM244.644 99.3776C244.483 99.3776 244.347 99.3445 244.237 99.2782C244.127 99.212 244.043 99.1242 243.987 99.015C243.931 98.9049 243.903 98.7841 243.903 98.6525C243.903 98.5246 243.929 98.4075 243.981 98.3011C244.034 98.1947 244.111 98.1098 244.211 98.0463C244.311 97.9819 244.433 97.9497 244.574 97.9497C244.688 97.9497 244.79 97.9726 244.878 98.0183C244.968 98.0631 245.038 98.1289 245.088 98.2157C245.14 98.3016 245.165 98.4061 245.165 98.5293C245.165 98.5489 245.164 98.5703 245.162 98.5937C245.161 98.6161 245.159 98.6394 245.154 98.6637H244.16C244.172 98.7906 244.203 98.8895 244.251 98.9604C244.3 99.0314 244.361 99.0813 244.435 99.1102C244.508 99.1392 244.588 99.1536 244.675 99.1536C244.739 99.1536 244.805 99.1471 244.874 99.134C244.943 99.121 245.008 99.1004 245.07 99.0724L245.104 99.2712C245.05 99.2945 244.986 99.3183 244.909 99.3426C244.833 99.3659 244.744 99.3776 244.644 99.3776ZM244.183 98.4901H244.905C244.905 98.4257 244.893 98.3697 244.868 98.3221C244.844 98.2745 244.807 98.2381 244.758 98.2129C244.708 98.1868 244.645 98.1737 244.569 98.1737C244.457 98.1737 244.371 98.2017 244.31 98.2577C244.25 98.3128 244.208 98.3902 244.183 98.4901ZM245.772 99.3776C245.683 99.3776 245.613 99.3617 245.561 99.33C245.509 99.2973 245.472 99.2558 245.45 99.2054C245.428 99.155 245.416 99.1023 245.416 99.0472V97.2498H245.668V98.9017C245.668 98.98 245.674 99.0388 245.684 99.078C245.694 99.1172 245.715 99.1434 245.745 99.1564C245.777 99.1695 245.825 99.176 245.89 99.176L245.853 99.3776H245.772ZM246.725 99.3776C246.564 99.3776 246.428 99.3445 246.318 99.2782C246.208 99.212 246.124 99.1242 246.067 99.015C246.011 98.9049 245.983 98.7841 245.983 98.6525C245.983 98.5246 246.009 98.4075 246.062 98.3011C246.115 98.1947 246.191 98.1098 246.291 98.0463C246.392 97.9819 246.513 97.9497 246.655 97.9497C246.769 97.9497 246.87 97.9726 246.959 98.0183C247.049 98.0631 247.119 98.1289 247.169 98.2157C247.22 98.3016 247.246 98.4061 247.246 98.5293C247.246 98.5489 247.245 98.5703 247.243 98.5937C247.242 98.6161 247.239 98.6394 247.235 98.6637H246.241C246.253 98.7906 246.283 98.8895 246.332 98.9604C246.38 99.0314 246.441 99.0813 246.515 99.1102C246.589 99.1392 246.669 99.1536 246.756 99.1536C246.819 99.1536 246.886 99.1471 246.955 99.134C247.024 99.121 247.089 99.1004 247.151 99.0724L247.184 99.2712C247.131 99.2945 247.066 99.3183 246.99 99.3426C246.913 99.3659 246.825 99.3776 246.725 99.3776ZM246.263 98.4901H246.986C246.986 98.4257 246.973 98.3697 246.949 98.3221C246.925 98.2745 246.888 98.2381 246.839 98.2129C246.789 98.1868 246.726 98.1737 246.65 98.1737C246.538 98.1737 246.451 98.2017 246.391 98.2577C246.331 98.3128 246.288 98.3902 246.263 98.4901ZM248.13 99.3776C247.975 99.3776 247.845 99.3463 247.739 99.2838C247.635 99.2204 247.555 99.1354 247.501 99.029C247.448 98.9217 247.421 98.8027 247.421 98.6721C247.421 98.5358 247.447 98.4131 247.498 98.3039C247.551 98.1947 247.631 98.1084 247.738 98.0449C247.845 97.9815 247.982 97.9497 248.149 97.9497C248.221 97.9497 248.289 97.9572 248.352 97.9721C248.417 97.9861 248.474 98.0057 248.525 98.0309L248.485 98.2521C248.434 98.2278 248.379 98.2087 248.322 98.1947C248.265 98.1807 248.205 98.1737 248.144 98.1737C247.993 98.1737 247.877 98.2166 247.798 98.3025C247.719 98.3884 247.679 98.5078 247.679 98.6609C247.679 98.8102 247.717 98.9301 247.792 99.0206C247.868 99.1112 247.983 99.1564 248.138 99.1564C248.202 99.1564 248.262 99.149 248.32 99.134C248.379 99.1191 248.435 99.0986 248.488 99.0724L248.522 99.274C248.484 99.3001 248.43 99.3239 248.358 99.3454C248.286 99.3669 248.21 99.3776 248.13 99.3776ZM249.244 99.3776C249.158 99.3776 249.088 99.3617 249.036 99.33C248.984 99.2983 248.945 99.2577 248.921 99.2082C248.898 99.1578 248.886 99.1051 248.886 99.05V98.1737H248.651L248.673 97.9777H248.886V97.639L249.138 97.6138V97.9777H249.499V98.1737H249.138V98.8961C249.138 98.9838 249.143 99.0472 249.153 99.0864C249.164 99.1256 249.189 99.1504 249.229 99.1606C249.27 99.1709 249.336 99.176 249.426 99.176H249.491L249.471 99.3776H249.244Z" fill="white"/>
<path d="M85.112 163.22C92.6525 163.22 98.7654 157.108 98.7654 149.567C98.7654 142.026 92.6525 135.914 85.112 135.914C77.5714 135.914 71.4586 142.026 71.4586 149.567C71.4586 157.108 77.5714 163.22 85.112 163.22Z" fill="url(#paint17_linear_416_5343)"/>
<path d="M91.3795 155.837C94.8418 152.375 94.8418 146.762 91.3795 143.299C87.9172 139.837 82.3037 139.837 78.8414 143.299C75.3791 146.762 75.3791 152.375 78.8414 155.837C82.3037 159.3 87.9172 159.3 91.3795 155.837Z" fill="white"/>
<path d="M87.5478 145.834C89.0597 145.843 90.2869 147.066 90.2916 148.578C90.2916 151.35 85.2427 154.098 85.2427 154.098C85.2427 154.098 80.1938 151.312 80.1938 148.578C80.1938 147.061 81.4211 145.834 82.9376 145.834C83.8662 145.825 84.7341 146.296 85.238 147.071C85.756 146.296 86.6192 145.834 87.5478 145.834Z" fill="url(#paint18_linear_416_5343)"/>
<path d="M64.6318 69.1862C72.1723 69.1862 78.2852 63.0733 78.2852 55.5328C78.2852 47.9922 72.1723 41.8794 64.6318 41.8794C57.0912 41.8794 50.9784 47.9922 50.9784 55.5328C50.9784 63.0733 57.0912 69.1862 64.6318 69.1862Z" fill="url(#paint19_linear_416_5343)"/>
<path d="M70.8992 61.802C74.3615 58.3397 74.3615 52.7262 70.8992 49.2639C67.437 45.8016 61.8235 45.8016 58.3612 49.2639C54.8989 52.7262 54.8989 58.3397 58.3612 61.802C61.8235 65.2643 67.437 65.2643 70.8992 61.802Z" fill="white"/>
<path d="M60.7028 58.8181C60.7028 58.7621 60.7075 58.6548 60.7168 58.5008C60.7261 58.3468 60.7355 58.1788 60.7494 58.0062C60.7634 57.8335 60.7728 57.6609 60.7774 57.4975C60.7868 57.3342 60.7914 57.2176 60.7914 57.1429C60.7914 56.7043 60.7215 56.3543 60.5768 56.0977C60.4321 55.841 60.1708 55.6171 59.7882 55.4211C59.9749 55.3231 60.1335 55.2204 60.2595 55.1178C60.3855 55.0104 60.4881 54.8938 60.5721 54.7585C60.6515 54.6231 60.7121 54.4692 60.7448 54.3012C60.7774 54.1285 60.7961 53.9279 60.7961 53.6899C60.7961 53.6152 60.7914 53.4986 60.7821 53.3353C60.7728 53.1719 60.7634 53.004 60.7541 52.8266C60.7401 52.654 60.7308 52.486 60.7215 52.332C60.7121 52.178 60.7075 52.0754 60.7075 52.0287C60.7075 51.3521 60.9081 50.8482 61.3094 50.5169C61.7107 50.1856 62.3966 50.0176 63.3672 50.0176V51.3475H63.1246C62.8399 51.3475 62.6159 51.3708 62.4573 51.4221C62.2986 51.4688 62.1773 51.5481 62.0887 51.6601C62.0047 51.7721 61.9487 51.9121 61.93 52.0894C61.9113 52.262 61.8973 52.472 61.8973 52.7193C61.8973 52.808 61.902 52.9526 61.916 53.1579C61.93 53.3633 61.9347 53.6666 61.9347 54.0725C61.9347 54.7211 61.7247 55.1738 61.3094 55.4257C61.7247 55.687 61.9347 56.107 61.9347 56.6856C61.9347 56.7276 61.9347 56.7976 61.93 56.8956C61.9253 56.9936 61.9207 57.0962 61.916 57.2082C61.9113 57.3202 61.9067 57.4275 61.902 57.5302C61.8973 57.6329 61.8973 57.7169 61.8973 57.7728V58.4448C61.9067 58.6501 61.93 58.8181 61.9627 58.9581C62 59.0981 62.0653 59.2054 62.154 59.2894C62.2426 59.3687 62.364 59.4294 62.5226 59.4667C62.6766 59.504 62.8772 59.5227 63.1199 59.5227C63.1619 59.5227 63.1992 59.5227 63.2412 59.518C63.2832 59.5133 63.3205 59.5134 63.3625 59.5134V60.8432C62.4106 60.8432 61.7294 60.6799 61.3187 60.3533C60.9081 60.0266 60.7028 59.5087 60.7028 58.8181Z" fill="url(#paint20_linear_416_5343)"/>
<path d="M68.7613 58.8179C68.7613 59.5085 68.556 60.0218 68.1454 60.3438C67.7348 60.6704 67.0535 60.8337 66.1016 60.8337V59.5038C66.1436 59.5038 66.1809 59.5038 66.2229 59.5085C66.2649 59.5132 66.3022 59.5132 66.3442 59.5132C66.6709 59.5132 66.9182 59.4805 67.0815 59.4105C67.2495 59.3405 67.3661 59.2379 67.4408 59.0932C67.5155 58.9485 67.5528 58.7712 67.5575 58.5473C67.5621 58.3279 67.5621 58.0666 67.5621 57.7633C67.5621 57.7073 67.5621 57.6233 67.5575 57.5207C67.5528 57.4134 67.5481 57.306 67.5435 57.1987C67.5388 57.0867 67.5341 56.9841 67.5295 56.8861C67.5248 56.7881 67.5248 56.7181 67.5248 56.6761C67.5248 56.0975 67.7348 55.6775 68.1501 55.4162C67.7348 55.1642 67.5248 54.7116 67.5248 54.063C67.5248 54.0117 67.5248 53.9417 67.5295 53.8484C67.5341 53.755 67.5388 53.657 67.5435 53.5544C67.5481 53.4517 67.5528 53.3537 67.5575 53.2604C67.5621 53.1671 67.5621 53.1018 67.5621 53.0598C67.5621 52.7425 67.5575 52.4765 67.5481 52.2572C67.5388 52.0379 67.5015 51.8606 67.4268 51.7252C67.3521 51.5899 67.2308 51.4919 67.0675 51.4313C66.8995 51.3706 66.6569 51.3379 66.3396 51.3379H66.0969V50.0081C67.0675 50.0081 67.7534 50.176 68.1547 50.5073C68.556 50.8433 68.7567 51.3426 68.7567 52.0192C68.7567 52.0659 68.752 52.1685 68.7427 52.3178C68.7333 52.4672 68.724 52.6351 68.71 52.8125C68.696 52.9898 68.6867 53.1624 68.682 53.3257C68.6727 53.4891 68.668 53.6057 68.668 53.6804C68.668 53.9184 68.6867 54.119 68.7147 54.2917C68.7473 54.4643 68.8033 54.6136 68.8873 54.7489C68.9667 54.8843 69.074 55.0009 69.2 55.1082C69.326 55.2156 69.4799 55.3136 69.6713 55.4115C69.2886 55.6075 69.0273 55.8315 68.8827 56.0881C68.7427 56.3448 68.668 56.6948 68.668 57.1334C68.668 57.208 68.6727 57.3247 68.682 57.488C68.6913 57.6513 68.7007 57.824 68.71 58.0013C68.724 58.1786 68.7333 58.3466 68.7427 58.5006C68.7567 58.6686 68.7613 58.7712 68.7613 58.8179Z" fill="url(#paint21_linear_416_5343)"/>
<path opacity="0.6" d="M147.079 136.133C150.164 136.133 152.665 133.632 152.665 130.547C152.665 127.462 150.164 124.962 147.079 124.962C143.995 124.962 141.494 127.462 141.494 130.547C141.494 133.632 143.995 136.133 147.079 136.133Z" fill="white"/>
<path d="M158.666 133.029H193.63" stroke="white" stroke-width="1.39987" stroke-miterlimit="10" stroke-linecap="round" stroke-linejoin="round"/>
<path d="M158.666 128.27H206.667" stroke="white" stroke-width="1.39987" stroke-miterlimit="10" stroke-linecap="round" stroke-linejoin="round"/>
<path opacity="0.6" d="M147.079 151.653C150.164 151.653 152.665 149.152 152.665 146.067C152.665 142.982 150.164 140.482 147.079 140.482C143.995 140.482 141.494 142.982 141.494 146.067C141.494 149.152 143.995 151.653 147.079 151.653Z" fill="white"/>
<path d="M158.666 148.55H193.63" stroke="white" stroke-width="1.39987" stroke-miterlimit="10" stroke-linecap="round" stroke-linejoin="round"/>
<path d="M158.666 143.79H206.667" stroke="white" stroke-width="1.39987" stroke-miterlimit="10" stroke-linecap="round" stroke-linejoin="round"/>
<path opacity="0.6" d="M147.079 167.168C150.164 167.168 152.665 164.667 152.665 161.583C152.665 158.498 150.164 155.997 147.079 155.997C143.995 155.997 141.494 158.498 141.494 161.583C141.494 164.667 143.995 167.168 147.079 167.168Z" fill="white"/>
<path d="M158.666 164.065H193.63" stroke="white" stroke-width="1.39987" stroke-miterlimit="10" stroke-linecap="round" stroke-linejoin="round"/>
<path d="M158.666 159.306H206.667" stroke="white" stroke-width="1.39987" stroke-miterlimit="10" stroke-linecap="round" stroke-linejoin="round"/>
<path d="M148.885 128.839C148.885 127.882 148.111 127.112 147.159 127.112C146.207 127.112 145.432 127.887 145.432 128.839C145.432 129.795 146.207 130.565 147.159 130.565C148.111 130.565 148.885 129.791 148.885 128.839Z" fill="url(#paint22_linear_416_5343)"/>
<path d="M149.977 132.927V132.983C149.133 133.431 148.171 133.683 147.154 133.683C146.132 133.683 145.171 133.431 144.331 132.978V132.922C144.331 131.359 145.596 130.094 147.154 130.094C148.713 130.099 149.977 131.363 149.977 132.927Z" fill="url(#paint23_linear_416_5343)"/>
<path d="M148.885 144.177C148.885 143.221 148.111 142.451 147.159 142.451C146.207 142.451 145.432 143.226 145.432 144.177C145.432 145.134 146.207 145.904 147.159 145.904C148.111 145.904 148.885 145.134 148.885 144.177Z" fill="url(#paint24_linear_416_5343)"/>
<path d="M149.977 148.269V148.325C149.133 148.773 148.171 149.025 147.154 149.025C146.132 149.025 145.171 148.773 144.331 148.321V148.265C144.331 146.702 145.596 145.437 147.154 145.437C148.713 145.442 149.977 146.706 149.977 148.269Z" fill="url(#paint25_linear_416_5343)"/>
<path d="M148.885 159.716C148.885 158.759 148.111 157.99 147.159 157.99C146.207 157.99 145.432 158.764 145.432 159.716C145.432 160.668 146.207 161.443 147.159 161.443C148.111 161.443 148.885 160.673 148.885 159.716Z" fill="url(#paint26_linear_416_5343)"/>
<path d="M149.977 163.808V163.864C149.133 164.312 148.171 164.564 147.154 164.564C146.132 164.564 145.171 164.312 144.331 163.859V163.803C144.331 162.24 145.596 160.976 147.154 160.976C148.713 160.98 149.977 162.245 149.977 163.808Z" fill="url(#paint27_linear_416_5343)"/>
<path opacity="0.6" d="M203.606 88.6071H164.718C162.604 88.6071 160.887 86.89 160.887 84.7762V80.3339C160.887 78.2201 162.604 76.5029 164.718 76.5029H203.606C205.72 76.5029 207.437 78.2201 207.437 80.3339V84.7762C207.442 86.8946 205.724 88.6071 203.606 88.6071Z" fill="white"/>
<path d="M170.014 120.753H164.984C162.87 120.753 161.153 119.035 161.153 116.922V112.479C161.153 110.366 162.87 108.648 164.984 108.648H170.014C172.128 108.648 173.845 110.366 173.845 112.479V116.922C173.845 119.04 172.132 120.753 170.014 120.753Z" fill="#6A63A8"/>
<path d="M203.629 120.851H198.599C196.485 120.851 194.768 119.133 194.768 117.02V112.577C194.768 110.464 196.485 108.746 198.599 108.746H203.629C205.743 108.746 207.46 110.464 207.46 112.577V117.02C207.46 119.133 205.748 120.851 203.629 120.851Z" fill="#6A63A8"/>
<path d="M168.376 118.41C170.43 117.925 171.702 115.867 171.217 113.813C170.732 111.759 168.673 110.487 166.619 110.972C164.565 111.457 163.293 113.515 163.778 115.569C164.263 117.623 166.322 118.895 168.376 118.41Z" fill="white"/>
<path d="M201.184 118.621C203.295 118.621 205.006 116.91 205.006 114.799C205.006 112.688 203.295 110.977 201.184 110.977C199.074 110.977 197.363 112.688 197.363 114.799C197.363 116.91 199.074 118.621 201.184 118.621Z" fill="white"/>
<path d="M186.738 120.851H181.707C179.594 120.851 177.876 119.133 177.876 117.02V112.577C177.876 110.464 179.594 108.746 181.707 108.746H186.738C188.851 108.746 190.569 110.464 190.569 112.577V117.02C190.569 119.133 188.856 120.851 186.738 120.851Z" fill="#6A63A8"/>
<path d="M184.293 118.621C186.403 118.621 188.114 116.91 188.114 114.799C188.114 112.688 186.403 110.977 184.293 110.977C182.182 110.977 180.471 112.688 180.471 114.799C180.471 116.91 182.182 118.621 184.293 118.621Z" fill="white"/>
<path d="M170.014 104.883H164.984C162.87 104.883 161.153 103.166 161.153 101.052V96.6098C161.153 94.496 162.87 92.7788 164.984 92.7788H170.014C172.128 92.7788 173.845 94.496 173.845 96.6098V101.052C173.845 103.166 172.132 104.883 170.014 104.883Z" fill="#6A63A8"/>
<path d="M203.629 104.981H198.599C196.485 104.981 194.768 103.264 194.768 101.15V96.7077C194.768 94.5939 196.485 92.8767 198.599 92.8767H203.629C205.743 92.8767 207.46 94.5939 207.46 96.7077V101.15C207.46 103.264 205.748 104.981 203.629 104.981Z" fill="#6A63A8"/>
<path d="M167.499 102.653C169.61 102.653 171.321 100.942 171.321 98.8309C171.321 96.7203 169.61 95.0093 167.499 95.0093C165.388 95.0093 163.677 96.7203 163.677 98.8309C163.677 100.942 165.388 102.653 167.499 102.653Z" fill="white"/>
<path d="M203.885 101.633C205.378 100.14 205.378 97.7206 203.885 96.2281C202.393 94.7357 199.973 94.7357 198.481 96.2281C196.988 97.7206 196.988 100.14 198.481 101.633C199.973 103.125 202.393 103.125 203.885 101.633Z" fill="white"/>
<path d="M186.738 104.981H181.707C179.594 104.981 177.876 103.264 177.876 101.15V96.7077C177.876 94.5939 179.594 92.8767 181.707 92.8767H186.738C188.851 92.8767 190.569 94.5939 190.569 96.7077V101.15C190.569 103.264 188.856 104.981 186.738 104.981Z" fill="#6A63A8"/>
<path d="M187.83 100.391C188.638 98.4406 187.712 96.205 185.762 95.3972C183.812 94.5895 181.576 95.5155 180.769 97.4655C179.961 99.4155 180.887 101.651 182.837 102.459C184.787 103.267 187.023 102.341 187.83 100.391Z" fill="white"/>
<path d="M165.637 80.9219H202.934" stroke="white" stroke-width="1.39987" stroke-miterlimit="10" stroke-linecap="round" stroke-linejoin="round"/>
<path d="M165.637 85.1541H191.824" stroke="white" stroke-width="1.39987" stroke-miterlimit="10" stroke-linecap="round" stroke-linejoin="round"/>
<defs>
<linearGradient id="paint0_linear_416_5343" x1="128.983" y1="38.6945" x2="125.606" y2="50.2819" gradientUnits="userSpaceOnUse">
<stop stop-color="#27183B"/>
<stop offset="1" stop-color="#471D55"/>
</linearGradient>
<linearGradient id="paint1_linear_416_5343" x1="223.936" y1="38.6945" x2="220.559" y2="50.2819" gradientUnits="userSpaceOnUse">
<stop stop-color="#27183B"/>
<stop offset="1" stop-color="#471D55"/>
</linearGradient>
<linearGradient id="paint2_linear_416_5343" x1="128.983" y1="54.3459" x2="125.606" y2="65.9333" gradientUnits="userSpaceOnUse">
<stop stop-color="#27183B"/>
<stop offset="1" stop-color="#471D55"/>
</linearGradient>
<linearGradient id="paint3_linear_416_5343" x1="208.675" y1="22.9179" x2="140.089" y2="184.606" gradientUnits="userSpaceOnUse">
<stop stop-color="#27183B"/>
<stop offset="1" stop-color="#471D55"/>
</linearGradient>
<linearGradient id="paint4_linear_416_5343" x1="174.986" y1="21.6655" x2="174.986" y2="183.028" gradientUnits="userSpaceOnUse">
<stop stop-color="#E4E2FC"/>
<stop offset="1" stop-color="#978DEF"/>
</linearGradient>
<linearGradient id="paint5_linear_416_5343" x1="178.95" y1="10.3089" x2="110.364" y2="171.997" gradientUnits="userSpaceOnUse">
<stop stop-color="#27183B"/>
<stop offset="1" stop-color="#471D55"/>
</linearGradient>
<linearGradient id="paint6_linear_416_5343" x1="98.6216" y1="118.025" x2="144.845" y2="73.0682" gradientUnits="userSpaceOnUse">
<stop stop-color="#978DEF"/>
<stop offset="1" stop-color="#D1CCFF"/>
</linearGradient>
<linearGradient id="paint7_linear_416_5343" x1="95.5202" y1="107.335" x2="111.249" y2="107.335" gradientUnits="userSpaceOnUse">
<stop stop-color="#27183B"/>
<stop offset="1" stop-color="#471D55"/>
</linearGradient>
<linearGradient id="paint8_linear_416_5343" x1="130.137" y1="120.825" x2="131.533" y2="107.791" gradientUnits="userSpaceOnUse">
<stop stop-color="#27183B"/>
<stop offset="1" stop-color="#471D55"/>
</linearGradient>
<linearGradient id="paint9_linear_416_5343" x1="104.579" y1="102.572" x2="100.131" y2="113.744" gradientUnits="userSpaceOnUse">
<stop stop-color="#27183B"/>
<stop offset="1" stop-color="#471D55"/>
</linearGradient>
<linearGradient id="paint10_linear_416_5343" x1="105.901" y1="103.098" x2="101.452" y2="114.27" gradientUnits="userSpaceOnUse">
<stop stop-color="#27183B"/>
<stop offset="1" stop-color="#471D55"/>
</linearGradient>
<linearGradient id="paint11_linear_416_5343" x1="238.55" y1="58.4552" x2="251.584" y2="34.8692" gradientUnits="userSpaceOnUse">
<stop stop-color="#978DEF"/>
<stop offset="1" stop-color="#DDD9FD"/>
</linearGradient>
<linearGradient id="paint12_linear_416_5343" x1="241.496" y1="46.0451" x2="249.384" y2="46.0451" gradientUnits="userSpaceOnUse">
<stop stop-color="#27183B"/>
<stop offset="1" stop-color="#471D55"/>
</linearGradient>
<linearGradient id="paint13_linear_416_5343" x1="236.21" y1="169.08" x2="287.106" y2="77.8399" gradientUnits="userSpaceOnUse">
<stop stop-color="#978DEF"/>
<stop offset="1" stop-color="#C1BBFC"/>
</linearGradient>
<linearGradient id="paint14_linear_416_5343" x1="237.488" y1="83.0635" x2="290.453" y2="83.0635" gradientUnits="userSpaceOnUse">
<stop stop-color="#27183B"/>
<stop offset="1" stop-color="#471D55"/>
</linearGradient>
<linearGradient id="paint15_linear_416_5343" x1="237.488" y1="97.96" x2="290.453" y2="97.96" gradientUnits="userSpaceOnUse">
<stop stop-color="#27183B"/>
<stop offset="1" stop-color="#471D55"/>
</linearGradient>
<linearGradient id="paint16_linear_416_5343" x1="237.488" y1="148.308" x2="290.453" y2="148.308" gradientUnits="userSpaceOnUse">
<stop stop-color="#27183B"/>
<stop offset="1" stop-color="#471D55"/>
</linearGradient>
<linearGradient id="paint17_linear_416_5343" x1="78.2618" y1="161.967" x2="91.2961" y2="138.381" gradientUnits="userSpaceOnUse">
<stop stop-color="#978DEF"/>
<stop offset="1" stop-color="#C1BAF9"/>
</linearGradient>
<linearGradient id="paint18_linear_416_5343" x1="80.1983" y1="149.967" x2="90.293" y2="149.967" gradientUnits="userSpaceOnUse">
<stop stop-color="#27183B"/>
<stop offset="1" stop-color="#471D55"/>
</linearGradient>
<linearGradient id="paint19_linear_416_5343" x1="57.779" y1="67.9331" x2="70.8134" y2="44.3471" gradientUnits="userSpaceOnUse">
<stop stop-color="#978DEF"/>
<stop offset="1" stop-color="#C2BBFA"/>
</linearGradient>
<linearGradient id="paint20_linear_416_5343" x1="60.4545" y1="59.2969" x2="65.8427" y2="48.5205" gradientUnits="userSpaceOnUse">
<stop stop-color="#27183B"/>
<stop offset="1" stop-color="#471D55"/>
</linearGradient>
<linearGradient id="paint21_linear_416_5343" x1="64.2054" y1="61.1721" x2="69.5936" y2="50.3957" gradientUnits="userSpaceOnUse">
<stop stop-color="#27183B"/>
<stop offset="1" stop-color="#471D55"/>
</linearGradient>
<linearGradient id="paint22_linear_416_5343" x1="148.356" y1="125.819" x2="143.908" y2="136.991" gradientUnits="userSpaceOnUse">
<stop stop-color="#27183B"/>
<stop offset="1" stop-color="#471D55"/>
</linearGradient>
<linearGradient id="paint23_linear_416_5343" x1="149.677" y1="126.345" x2="145.229" y2="137.518" gradientUnits="userSpaceOnUse">
<stop stop-color="#27183B"/>
<stop offset="1" stop-color="#471D55"/>
</linearGradient>
<linearGradient id="paint24_linear_416_5343" x1="148.356" y1="141.162" x2="143.908" y2="152.334" gradientUnits="userSpaceOnUse">
<stop stop-color="#27183B"/>
<stop offset="1" stop-color="#471D55"/>
</linearGradient>
<linearGradient id="paint25_linear_416_5343" x1="149.677" y1="141.687" x2="145.229" y2="152.86" gradientUnits="userSpaceOnUse">
<stop stop-color="#27183B"/>
<stop offset="1" stop-color="#471D55"/>
</linearGradient>
<linearGradient id="paint26_linear_416_5343" x1="148.356" y1="156.7" x2="143.908" y2="167.872" gradientUnits="userSpaceOnUse">
<stop stop-color="#27183B"/>
<stop offset="1" stop-color="#471D55"/>
</linearGradient>
<linearGradient id="paint27_linear_416_5343" x1="149.677" y1="157.226" x2="145.229" y2="168.398" gradientUnits="userSpaceOnUse">
<stop stop-color="#27183B"/>
<stop offset="1" stop-color="#471D55"/>
</linearGradient>
</defs>
</svg>
