<svg width="284" height="254" viewBox="0 0 284 254" fill="none" xmlns="http://www.w3.org/2000/svg">
<g clip-path="url(#clip0_416_5082)">
<path opacity="0.3" d="M71.8575 90.6099H51.4589C50.0442 90.6099 48.8982 89.403 48.8982 87.9131C48.8982 86.4232 50.0442 85.2163 51.4589 85.2163H71.8575C73.2722 85.2163 74.4182 86.4232 74.4182 87.9131C74.4182 89.4114 73.2722 90.6099 71.8575 90.6099Z" fill="white"/>
<path opacity="0.3" d="M71.8179 62.3431C71.8179 60.8531 70.6719 59.6462 69.2572 59.6462H48.8586C47.4439 59.6462 46.2979 60.8531 46.2979 62.3431C46.2979 63.833 47.4439 65.0399 48.8586 65.0399H50.4472C51.2217 65.0399 51.854 65.7058 51.854 66.5215V66.5631C51.854 67.3788 51.2217 68.0447 50.4472 68.0447H46.5904C45.1757 68.0447 44.0297 69.2516 44.0297 70.7415C44.0297 72.2314 45.1757 73.4383 46.5904 73.4383H66.989C68.4037 73.4383 69.5497 72.2314 69.5497 70.7415C69.5497 69.2516 68.4037 68.0447 66.989 68.0447H64.6101C63.8355 68.0447 63.2033 67.3788 63.2033 66.5631V66.5215C63.2033 65.7058 63.8355 65.0399 64.6101 65.0399H69.2572C70.6799 65.0399 71.8179 63.833 71.8179 62.3431Z" fill="white"/>
<path d="M263.752 31.646C263.752 33.4605 262.353 34.9338 260.63 34.9338" stroke="#FFEFB0" stroke-width="2.58182" stroke-miterlimit="10" stroke-linecap="round" stroke-linejoin="round"/>
<path d="M263.751 31.646C263.751 33.4605 265.15 34.9338 266.873 34.9338" stroke="#FFEFB0" stroke-width="2.58182" stroke-miterlimit="10" stroke-linecap="round" stroke-linejoin="round"/>
<path d="M263.752 38.2297C263.752 36.4152 262.353 34.9419 260.63 34.9419" stroke="#FFEFB0" stroke-width="2.58182" stroke-miterlimit="10" stroke-linecap="round" stroke-linejoin="round"/>
<path d="M263.751 38.2297C263.751 36.4152 265.15 34.9419 266.873 34.9419" stroke="#FFEFB0" stroke-width="2.58182" stroke-miterlimit="10" stroke-linecap="round" stroke-linejoin="round"/>
<path d="M46.1954 97.3853C46.1954 99.1998 44.7965 100.673 43.0814 100.673" stroke="#FFEFB0" stroke-width="2.58182" stroke-miterlimit="10" stroke-linecap="round" stroke-linejoin="round"/>
<path d="M46.1953 97.3853C46.1953 99.1998 47.5942 100.673 49.3092 100.673" stroke="#FFEFB0" stroke-width="2.58182" stroke-miterlimit="10" stroke-linecap="round" stroke-linejoin="round"/>
<path d="M46.1955 103.977C46.1955 102.163 44.7966 100.69 43.0815 100.69" stroke="#FFEFB0" stroke-width="2.58182" stroke-miterlimit="10" stroke-linecap="round" stroke-linejoin="round"/>
<path d="M46.1953 103.977C46.1953 102.163 47.5942 100.69 49.3092 100.69" stroke="#FFEFB0" stroke-width="2.58182" stroke-miterlimit="10" stroke-linecap="round" stroke-linejoin="round"/>
<path d="M218.711 29.4817C218.711 31.2962 217.312 32.7695 215.589 32.7695" stroke="#FFEFB0" stroke-width="2.58182" stroke-miterlimit="10" stroke-linecap="round" stroke-linejoin="round"/>
<path d="M218.711 29.4817C218.711 31.2962 220.11 32.7695 221.833 32.7695" stroke="#FFEFB0" stroke-width="2.58182" stroke-miterlimit="10" stroke-linecap="round" stroke-linejoin="round"/>
<path d="M218.711 36.0739C218.711 34.2594 217.312 32.7861 215.589 32.7861" stroke="#FFEFB0" stroke-width="2.58182" stroke-miterlimit="10" stroke-linecap="round" stroke-linejoin="round"/>
<path d="M218.711 36.0739C218.711 34.2594 220.11 32.7861 221.833 32.7861" stroke="#FFEFB0" stroke-width="2.58182" stroke-miterlimit="10" stroke-linecap="round" stroke-linejoin="round"/>
<path d="M30.8073 67.4036C30.8073 69.2181 29.4084 70.6914 27.6934 70.6914" stroke="#FFEFB0" stroke-width="2.58182" stroke-miterlimit="10" stroke-linecap="round" stroke-linejoin="round"/>
<path d="M30.8073 67.4036C30.8073 69.2181 32.2061 70.6914 33.9212 70.6914" stroke="#FFEFB0" stroke-width="2.58182" stroke-miterlimit="10" stroke-linecap="round" stroke-linejoin="round"/>
<path d="M30.8073 73.996C30.8073 72.1815 29.4084 70.7083 27.6934 70.7083" stroke="#FFEFB0" stroke-width="2.58182" stroke-miterlimit="10" stroke-linecap="round" stroke-linejoin="round"/>
<path d="M30.8073 73.996C30.8073 72.1815 32.2061 70.7083 33.9212 70.7083" stroke="#FFEFB0" stroke-width="2.58182" stroke-miterlimit="10" stroke-linecap="round" stroke-linejoin="round"/>
<path d="M90.6357 44.2061C90.6357 46.0206 89.2369 47.4938 87.5139 47.4938" stroke="#FFEFB0" stroke-width="2.58182" stroke-miterlimit="10" stroke-linecap="round" stroke-linejoin="round"/>
<path d="M90.636 44.2061C90.636 46.0206 92.0349 47.4938 93.7578 47.4938" stroke="#FFEFB0" stroke-width="2.58182" stroke-miterlimit="10" stroke-linecap="round" stroke-linejoin="round"/>
<path d="M90.6357 50.7985C90.6357 48.984 89.2369 47.5107 87.5139 47.5107" stroke="#FFEFB0" stroke-width="2.58182" stroke-miterlimit="10" stroke-linecap="round" stroke-linejoin="round"/>
<path d="M90.636 50.7985C90.636 48.984 92.0349 47.5107 93.7578 47.5107" stroke="#FFEFB0" stroke-width="2.58182" stroke-miterlimit="10" stroke-linecap="round" stroke-linejoin="round"/>
<path d="M239.986 14.6743C239.986 16.4888 238.587 17.9621 236.864 17.9621" stroke="#FFEFB0" stroke-width="2.58182" stroke-miterlimit="10" stroke-linecap="round" stroke-linejoin="round"/>
<path d="M239.986 14.6743C239.986 16.4888 241.385 17.9621 243.108 17.9621" stroke="#FFEFB0" stroke-width="2.58182" stroke-miterlimit="10" stroke-linecap="round" stroke-linejoin="round"/>
<path d="M239.986 21.2665C239.986 19.452 238.587 17.9788 236.864 17.9788" stroke="#FFEFB0" stroke-width="2.58182" stroke-miterlimit="10" stroke-linecap="round" stroke-linejoin="round"/>
<path d="M239.986 21.2665C239.986 19.452 241.385 17.9788 243.108 17.9788" stroke="#FFEFB0" stroke-width="2.58182" stroke-miterlimit="10" stroke-linecap="round" stroke-linejoin="round"/>
<path d="M250.687 228.239C250.687 225.492 252.797 223.27 255.405 223.27H259.642C262.929 223.27 265.593 220.465 265.593 217.002C265.593 213.54 262.929 210.735 259.642 210.735H240.207C237.599 210.735 235.489 208.512 235.489 205.766C235.489 203.019 237.599 200.796 240.207 200.796H244.728C248.016 200.796 250.679 197.991 250.679 194.529C250.679 191.066 248.016 188.261 244.728 188.261H36.5924C33.3046 188.261 30.6412 191.066 30.6412 194.529C30.6412 197.991 33.3046 200.796 36.5924 200.796H42.757C45.3651 200.796 47.4753 203.019 47.4753 205.766C47.4753 208.512 45.3651 210.735 42.757 210.735H16.3439C13.0561 210.735 10.3927 213.54 10.3927 217.002C10.3927 220.465 13.0561 223.27 16.3439 223.27H60.6582C63.2663 223.27 65.3765 225.492 65.3765 228.239C65.3765 230.986 63.2663 233.208 60.6582 233.208H32.3325C29.0447 233.208 26.3812 236.013 26.3812 239.476C26.3812 242.938 29.0447 245.743 32.3325 245.743H272.224C275.512 245.743 278.175 242.938 278.175 239.476C278.175 236.013 275.512 233.208 272.224 233.208H255.405C252.797 233.217 250.687 230.986 250.687 228.239Z" fill="#978DEF"/>
<path d="M94.6191 213.465H71.9522C70.4347 213.465 69.2018 212.166 69.2018 210.568C69.2018 208.97 70.4347 207.671 71.9522 207.671H94.627C96.1444 207.671 97.3773 208.97 97.3773 210.568C97.3694 212.166 96.1444 213.465 94.6191 213.465Z" fill="#8F6FC9"/>
<path d="M108.268 213.465H104.933C103.415 213.465 102.182 212.166 102.182 210.568C102.182 208.97 103.415 207.671 104.933 207.671H108.268C109.785 207.671 111.018 208.97 111.018 210.568C111.018 212.166 109.785 213.465 108.268 213.465Z" fill="#8F6FC9"/>
<path d="M121.301 213.465H117.965C116.448 213.465 115.215 212.166 115.215 210.568C115.215 208.97 116.448 207.671 117.965 207.671H121.301C122.818 207.671 124.051 208.97 124.051 210.568C124.051 212.166 122.818 213.465 121.301 213.465Z" fill="#8F6FC9"/>
<path d="M94.6191 235.122H71.9522C70.4347 235.122 69.2018 233.824 69.2018 232.226C69.2018 230.628 70.4347 229.329 71.9522 229.329H94.627C96.1444 229.329 97.3773 230.628 97.3773 232.226C97.3694 233.824 96.1444 235.122 94.6191 235.122Z" fill="#8F6FC9"/>
<path d="M108.268 235.122H104.933C103.415 235.122 102.182 233.824 102.182 232.226C102.182 230.628 103.415 229.329 104.933 229.329H108.268C109.785 229.329 111.018 230.628 111.018 232.226C111.018 233.824 109.785 235.122 108.268 235.122Z" fill="#8F6FC9"/>
<path d="M121.301 235.122H117.965C116.448 235.122 115.215 233.824 115.215 232.226C115.215 230.628 116.448 229.329 117.965 229.329H121.301C122.818 229.329 124.051 230.628 124.051 232.226C124.051 233.824 122.818 235.122 121.301 235.122Z" fill="#8F6FC9"/>
<path d="M142.939 235.123H139.604C138.086 235.123 136.854 233.824 136.854 232.226C136.854 230.628 138.086 229.33 139.604 229.33H142.939C144.457 229.33 145.689 230.628 145.689 232.226C145.689 233.824 144.457 235.123 142.939 235.123Z" fill="#8F6FC9"/>
<path d="M101.969 224.294H79.2941C77.7766 224.294 76.5437 222.995 76.5437 221.397C76.5437 219.799 77.7766 218.5 79.2941 218.5H101.969C103.486 218.5 104.719 219.799 104.719 221.397C104.719 222.995 103.486 224.294 101.969 224.294Z" fill="#8F6FC9"/>
<path d="M115.618 224.294H112.283C110.765 224.294 109.532 222.995 109.532 221.397C109.532 219.799 110.765 218.5 112.283 218.5H115.618C117.136 218.5 118.368 219.799 118.368 221.397C118.368 222.995 117.136 224.294 115.618 224.294Z" fill="#8F6FC9"/>
<path d="M128.651 224.294H125.316C123.798 224.294 122.565 222.995 122.565 221.397C122.565 219.799 123.798 218.5 125.316 218.5H128.651C130.168 218.5 131.401 219.799 131.401 221.397C131.401 222.995 130.168 224.294 128.651 224.294Z" fill="#8F6FC9"/>
<path opacity="0.46" d="M41.9673 188.769C41.9673 184.29 44.0064 184.29 44.0064 179.812C44.0064 175.334 41.9673 175.334 41.9673 170.856C41.9673 166.378 44.0064 166.378 44.0064 161.892C44.0064 157.406 41.9673 157.414 41.9673 152.927" stroke="white" stroke-width="7.39433" stroke-miterlimit="10" stroke-linecap="round" stroke-linejoin="round"/>
<path opacity="0.46" d="M48.8107 173.529C48.8107 168.376 51.158 168.376 51.158 163.232C51.158 158.088 48.8107 158.088 48.8107 152.936C48.8107 147.784 51.158 147.784 51.158 142.632C51.158 137.479 48.8107 137.479 48.8107 132.327" stroke="white" stroke-width="7.39433" stroke-miterlimit="10" stroke-linecap="round" stroke-linejoin="round"/>
<path d="M29.6922 183.865V189.733C28.6173 189.1 27.3844 188.734 26.0645 188.734C21.9627 188.734 18.6274 192.246 18.6274 196.575C18.6274 200.894 21.9627 204.407 26.0645 204.407C27.3844 204.407 28.6173 204.041 29.6922 203.408V216.742C29.6922 217.824 30.522 218.698 31.5495 218.698H42.9857V183.865H29.6922ZM29.6922 200.453C28.7596 201.419 27.4792 202.026 26.0645 202.026C23.2114 202.026 20.8878 199.579 20.8878 196.575C20.8878 193.57 23.2114 191.123 26.0645 191.123C27.4792 191.123 28.7596 191.722 29.6922 192.696V200.453Z" fill="#D5E6F0"/>
<path d="M42.9858 183.866V218.692H56.0659C57.0934 218.692 57.9232 217.818 57.9232 216.736V183.858L42.9858 183.866Z" fill="white"/>
<path opacity="0.3" d="M265.91 32.7777H245.511C244.096 32.7777 242.95 31.5708 242.95 30.0808C242.95 28.5909 244.096 27.384 245.511 27.384H265.91C267.324 27.384 268.47 28.5909 268.47 30.0808C268.47 31.5708 267.324 32.7777 265.91 32.7777Z" fill="white"/>
<path opacity="0.3" d="M272.398 63.9244H251.999C250.585 63.9244 249.439 62.7175 249.439 61.2276C249.439 59.7377 250.585 58.5308 251.999 58.5308H272.398C273.813 58.5308 274.959 59.7377 274.959 61.2276C274.959 62.7175 273.813 63.9244 272.398 63.9244Z" fill="white"/>
<path opacity="0.3" d="M219.098 45.9957H206.888C205.473 45.9957 204.327 44.7888 204.327 43.2989C204.327 41.809 205.473 40.6021 206.888 40.6021H219.098C220.513 40.6021 221.659 41.809 221.659 43.2989C221.659 44.7888 220.513 45.9957 219.098 45.9957Z" fill="white"/>
<path opacity="0.3" d="M33.3911 90.6099H21.1883C19.7736 90.6099 18.6276 89.403 18.6276 87.9131C18.6276 86.4232 19.7736 85.2163 21.1883 85.2163H33.399C34.8137 85.2163 35.9597 86.4232 35.9597 87.9131C35.9518 89.4114 34.8058 90.6099 33.3911 90.6099Z" fill="white"/>
<path opacity="0.3" d="M255.47 43.3074C255.47 41.8175 254.324 40.6106 252.909 40.6106H232.511C231.096 40.6106 229.95 41.8175 229.95 43.3074C229.95 44.7973 231.096 46.0042 232.511 46.0042H234.099C234.874 46.0042 235.506 46.6701 235.506 47.4858V47.5274C235.506 48.3431 234.874 49.009 234.099 49.009H230.242C228.828 49.009 227.682 50.2159 227.682 51.7058C227.682 53.1957 228.828 54.4027 230.242 54.4027H250.641C252.056 54.4027 253.202 53.1957 253.202 51.7058C253.202 50.2159 252.056 49.009 250.641 49.009H248.262C247.488 49.009 246.855 48.3431 246.855 47.5274V47.4858C246.855 46.6701 247.488 46.0042 248.262 46.0042H252.909C254.324 46.0042 255.47 44.7973 255.47 43.3074Z" fill="white"/>
<path opacity="0.87" d="M237.772 67.1462H248.134C250.797 67.1462 252.963 64.8739 252.963 62.0605C252.963 59.2555 250.805 56.9749 248.134 56.9749H237.772C235.109 56.9749 232.943 59.2472 232.943 62.0605C232.943 64.8739 235.101 67.1462 237.772 67.1462Z" fill="#978DEF"/>
<path opacity="0.87" d="M244.095 61.811C246.627 61.811 248.679 59.6496 248.679 56.9834C248.679 54.3172 246.627 52.1558 244.095 52.1558C241.564 52.1558 239.511 54.3172 239.511 56.9834C239.511 59.6496 241.564 61.811 244.095 61.811Z" fill="#978DEF"/>
<path opacity="0.87" d="M239.117 59.4468C240.597 59.4468 241.797 58.1835 241.797 56.6251C241.797 55.0668 240.597 53.8035 239.117 53.8035C237.638 53.8035 236.438 55.0668 236.438 56.6251C236.438 58.1835 237.638 59.4468 239.117 59.4468Z" fill="#978DEF"/>
<path opacity="0.87" d="M82.7159 23.5058C82.7712 23.2145 82.7949 22.9232 82.7949 22.6152C82.7949 20.0599 80.827 17.9957 78.4085 17.9957C77.6498 17.9957 76.9385 18.1954 76.3141 18.5533C74.9468 16.5807 72.7418 15.2905 70.2443 15.2905C66.0951 15.2905 62.7361 18.828 62.7361 23.1979C62.7361 23.2145 62.7361 23.2312 62.7361 23.2561C58.7923 23.7222 55.7258 27.2431 55.7258 31.5214C55.7258 36.116 59.2665 39.8449 63.6292 39.8449H80.6136C84.9762 39.8449 88.5169 36.116 88.5169 31.5214C88.5169 27.6926 86.059 24.4797 82.7159 23.5058Z" fill="#978DEF"/>
<path d="M69.0108 31.1382L69.1136 33.2773C69.1768 34.4509 69.4771 34.8005 70.1884 34.8005H70.5125V36.7316H69.3744C68.1177 36.7316 67.2167 35.9825 67.1219 34.3594L66.9559 31.4878C66.8927 30.5056 66.6872 30.2059 65.8416 30.2059V28.2832C66.6951 28.2832 66.9006 27.9836 66.9559 27.0014L67.1219 24.1298C67.2246 22.5067 68.1177 21.7576 69.3744 21.7576H70.5125V23.6803H70.1884C69.4771 23.6803 69.1689 24.0216 69.1136 25.2035L69.0108 27.3426C68.9713 28.1334 68.7263 28.9657 67.6909 29.2487C68.7263 29.5151 68.9713 30.3474 69.0108 31.1382Z" fill="white"/>
<path d="M75.2397 27.3265L75.1369 25.1874C75.0737 24.0138 74.7734 23.6642 74.0621 23.6642H73.738V21.7415H74.8761C76.1407 21.7415 77.0337 22.4906 77.1286 24.1137L77.2946 26.9853C77.3578 27.9674 77.5554 28.2671 78.4089 28.2671V30.1898C77.5554 30.1898 77.3499 30.4895 77.2946 31.4716L77.1286 34.3433C77.0258 35.9663 76.1328 36.7155 74.8761 36.7155H73.738V34.7844H74.0621C74.7734 34.7844 75.0816 34.4431 75.1369 33.2612L75.2397 31.1221C75.2792 30.3313 75.5242 29.4906 76.5595 29.216C75.5242 28.9579 75.2792 28.1173 75.2397 27.3265Z" fill="white"/>
<path opacity="0.87" d="M170.982 29.2236C171.037 28.9323 171.069 28.641 171.069 28.333C171.069 25.7777 169.101 23.7134 166.682 23.7134C165.924 23.7134 165.212 23.9132 164.596 24.2711C163.229 22.2984 161.024 21.0083 158.526 21.0083C154.377 21.0083 151.018 24.5458 151.018 28.9156C151.018 28.9323 151.018 28.9489 151.018 28.9739C147.074 29.44 144.008 32.9609 144.008 37.2392C144.008 41.8337 147.548 45.5627 151.911 45.5627H168.879C173.242 45.5627 176.783 41.8337 176.783 37.2392C176.783 33.4103 174.325 30.1975 170.982 29.2236Z" fill="#978DEF"/>
<path d="M161.134 25.6114C157.989 25.1786 155.112 27.5175 154.701 30.8219C154.337 33.7518 156.036 36.4653 158.613 37.3476L158.526 38.0467C158.494 38.2715 158.637 38.4712 158.834 38.5378L158.471 41.451L158.344 41.4344C158.218 41.4178 158.099 41.4843 158.083 41.5925L157.119 49.3834C157.103 49.4999 157.214 49.6164 157.364 49.6414L157.317 49.6331L157.285 49.941C157.277 50.0243 157.348 50.1075 157.459 50.1241L157.941 50.1907L158.423 50.2573C158.534 50.274 158.629 50.2157 158.637 50.1325L158.676 49.8245L158.629 49.8162C158.779 49.8328 158.913 49.7579 158.929 49.6331L159.893 41.8423C159.909 41.7424 159.814 41.6425 159.68 41.6258L159.553 41.6092L159.917 38.696C160.122 38.696 160.304 38.5295 160.336 38.3048L160.415 37.6555C163.26 37.6555 165.726 35.4415 166.105 32.3951C166.493 29.074 164.28 26.0442 161.134 25.6114ZM159.83 36.1739C158.984 36.0574 158.226 35.6912 157.609 35.1585C156.827 34.4759 156.289 33.5271 156.092 32.4617C156.005 31.9955 155.989 31.5044 156.052 31.005C156.36 28.483 158.558 26.7018 160.96 27.0264C161.434 27.093 161.877 27.2345 162.288 27.4426C163.213 27.9087 163.948 28.7077 164.374 29.6733C164.706 30.4307 164.849 31.3047 164.738 32.1953C164.422 34.7256 162.225 36.5069 159.83 36.1739Z" fill="white"/>
<path opacity="0.87" d="M36.3241 110.553C36.3794 110.262 36.411 109.971 36.411 109.663C36.411 107.107 34.443 105.035 32.0167 105.035C31.258 105.035 30.5467 105.234 29.9302 105.592C28.5629 103.62 26.3579 102.33 23.8604 102.33C19.7112 102.33 16.3522 105.867 16.3522 110.237C16.3522 110.254 16.3522 110.27 16.3522 110.295C12.4084 110.761 9.34192 114.282 9.34192 118.56C9.34192 123.155 12.8826 126.884 17.2453 126.884H34.2218C38.5844 126.884 42.1251 123.155 42.1251 118.56C42.1172 114.74 39.6672 111.519 36.3241 110.553Z" fill="#978DEF"/>
<path d="M30.057 121.516V119.693L34.9571 117.853L30.057 116.014V114.191L37.1938 116.954V118.752L30.057 121.516Z" fill="white"/>
<path d="M13.2476 118.752V116.954L20.3843 114.191V116.014L15.4842 117.853L20.3843 119.693V121.515L13.2476 118.752Z" fill="white"/>
<path d="M27.0229 112.301H28.5167L24.1856 123.879H22.684L27.0229 112.301Z" fill="white"/>
<path d="M198.256 28.9824V27.1596L203.156 25.3201L198.256 23.4806V21.6577L205.392 24.4211V26.219L198.256 28.9824Z" fill="#8F6FC9"/>
<path d="M181.446 26.219V24.4211L188.583 21.6577V23.4806L183.682 25.3201L188.583 27.1596V28.9824L181.446 26.219Z" fill="#8F6FC9"/>
<path d="M195.222 19.7681H196.715L192.384 31.3461H190.891L195.222 19.7681Z" fill="#8F6FC9"/>
<path d="M122.439 29.8648L124.083 31.5961C125.656 29.9397 128.145 29.8648 129.631 31.4296L130.066 30.9719L131.37 29.5985C130.192 28.3583 128.627 27.759 127.039 27.784C125.395 27.8172 123.727 28.5081 122.439 29.8648Z" fill="#80A880"/>
<path d="M123.767 24.3465C122.313 24.9041 120.93 25.7948 119.752 27.035L121.396 28.7663C122.621 27.4761 124.123 26.6771 125.672 26.3524C128.098 25.853 130.659 26.5272 132.468 28.4416L134.207 26.6105C131.457 23.7056 127.371 22.9731 123.767 24.3465Z" fill="#80A880"/>
<path d="M125.173 32.7454L126.777 34.4351L128.476 32.6456C127.591 31.7217 126.113 31.7633 125.173 32.7454Z" fill="#80A880"/>
<path d="M16.3517 59.3465L17.9956 61.0778C19.5684 59.4214 22.0579 59.3465 23.5438 60.9113L23.9784 60.4535L25.2825 59.0802C24.1049 57.84 22.54 57.2407 20.9515 57.2656C19.2996 57.2989 17.632 57.9898 16.3517 59.3465Z" fill="#8F6FC9"/>
<path d="M17.6797 53.8282C16.2255 54.3859 14.8424 55.2765 13.6648 56.5167L15.3087 58.248C16.5337 56.9579 18.0354 56.1588 19.5844 55.8342C22.0108 55.3348 24.5715 56.009 26.3813 57.9234L28.1201 56.0922C25.3618 53.179 21.2837 52.4549 17.6797 53.8282Z" fill="#8F6FC9"/>
<path d="M19.0856 62.2265L20.69 63.9162L22.3892 62.1266C21.4961 61.1944 20.0182 61.236 19.0856 62.2265Z" fill="#8F6FC9"/>
<path d="M90.3126 22.1738C90.0914 22.1738 89.9175 21.9907 89.9175 21.7577C89.9175 21.3332 89.9254 20.9087 89.9491 20.4842C89.9649 20.2511 90.1546 20.0763 90.368 20.093C90.5893 20.1096 90.7552 20.301 90.7394 20.5341C90.7157 20.942 90.7078 21.3498 90.7078 21.7577C90.7078 21.9907 90.5339 22.1738 90.3126 22.1738ZM90.6209 18.4449C90.5972 18.4449 90.5735 18.4449 90.5498 18.4366C90.3364 18.395 90.1941 18.1786 90.2257 17.9538C90.2968 17.5376 90.3759 17.1215 90.4707 16.7053C90.5181 16.4806 90.7315 16.3391 90.9449 16.3973C91.1583 16.4473 91.2848 16.672 91.2373 16.8967C91.1504 17.2963 91.0714 17.6958 91.0002 18.0953C90.9765 18.3034 90.8106 18.4449 90.6209 18.4449ZM91.5456 14.8325C91.4982 14.8325 91.4507 14.8242 91.4112 14.8075C91.2057 14.7243 91.103 14.4912 91.1741 14.2748C91.3164 13.8753 91.4665 13.4841 91.6246 13.0929C91.7115 12.8848 91.9407 12.7849 92.1462 12.8765C92.3438 12.968 92.4387 13.2094 92.3517 13.4258C92.1937 13.8004 92.0514 14.1749 91.917 14.5661C91.8538 14.7243 91.7036 14.8325 91.5456 14.8325ZM93.0551 11.4448C92.984 11.4448 92.9208 11.4282 92.8575 11.3866C92.6679 11.27 92.6046 11.012 92.7153 10.8206C92.9208 10.4543 93.1342 10.0881 93.3555 9.73851C93.474 9.54707 93.719 9.49713 93.9008 9.62198C94.0826 9.74683 94.13 10.0049 94.0114 10.1963C93.798 10.5376 93.5926 10.8788 93.395 11.2367C93.3238 11.3699 93.1895 11.4448 93.0551 11.4448ZM95.1021 8.3901C95.0152 8.3901 94.9203 8.35681 94.8492 8.29022C94.6832 8.1404 94.6595 7.88237 94.8018 7.69925C95.0626 7.37463 95.3313 7.05834 95.6079 6.75037C95.7581 6.5839 96.011 6.57558 96.1691 6.73372C96.3271 6.89187 96.335 7.15822 96.1849 7.32469C95.9161 7.61601 95.6632 7.92398 95.4103 8.23195C95.3234 8.34016 95.2127 8.3901 95.1021 8.3901ZM124.669 6.84193C124.566 6.84193 124.471 6.80031 124.392 6.7254C124.115 6.4424 123.831 6.16772 123.531 5.90137C123.365 5.75155 123.349 5.4852 123.491 5.3104C123.633 5.13561 123.886 5.11896 124.052 5.26878C124.36 5.54346 124.653 5.83478 124.945 6.12611C125.103 6.28425 125.103 6.5506 124.953 6.71707C124.874 6.79199 124.771 6.84193 124.669 6.84193ZM97.6233 5.75987C97.5126 5.75987 97.3941 5.70993 97.3229 5.61005C97.1807 5.43525 97.2044 5.1689 97.3783 5.0274C97.6865 4.76105 98.0026 4.4947 98.3267 4.24499C98.5006 4.11181 98.7535 4.14511 98.8799 4.33655C99.0064 4.51967 98.9748 4.78602 98.8009 4.9192C98.4847 5.16058 98.1844 5.41028 97.8841 5.67664C97.8051 5.72658 97.7181 5.75987 97.6233 5.75987ZM121.91 4.47805C121.831 4.47805 121.76 4.45308 121.689 4.41146C121.365 4.18673 121.041 3.96199 120.709 3.7539C120.519 3.63738 120.456 3.37935 120.575 3.18791C120.685 2.98814 120.93 2.92155 121.112 3.04641C121.46 3.26282 121.8 3.48755 122.132 3.72893C122.313 3.85379 122.361 4.11182 122.234 4.30326C122.163 4.41979 122.037 4.47805 121.91 4.47805ZM100.548 3.62905C100.413 3.62905 100.279 3.55414 100.208 3.42096C100.097 3.2212 100.168 2.97149 100.358 2.85496C100.706 2.64688 101.061 2.44711 101.425 2.25567C101.622 2.15579 101.859 2.23902 101.954 2.44711C102.049 2.6552 101.97 2.90491 101.773 3.00479C101.425 3.18791 101.085 3.37935 100.745 3.57911C100.682 3.6124 100.611 3.62905 100.548 3.62905ZM118.804 2.66352C118.749 2.66352 118.694 2.6552 118.646 2.63023C118.291 2.46376 117.935 2.30561 117.571 2.16411C117.366 2.08088 117.263 1.8395 117.342 1.63141C117.421 1.415 117.643 1.30679 117.848 1.39003C118.227 1.53985 118.599 1.698 118.97 1.87279C119.168 1.96435 119.263 2.21405 119.168 2.42214C119.097 2.57197 118.954 2.66352 118.804 2.66352ZM103.772 2.06423C103.606 2.06423 103.456 1.95603 103.401 1.78956C103.33 1.57314 103.432 1.33176 103.638 1.25685C104.017 1.11535 104.396 0.982174 104.792 0.865645C104.997 0.799057 105.218 0.92391 105.282 1.14864C105.345 1.37338 105.226 1.59811 105.013 1.6647C104.641 1.78123 104.27 1.90608 103.906 2.03926C103.859 2.05591 103.812 2.06423 103.772 2.06423ZM115.445 1.44829C115.414 1.44829 115.382 1.44829 115.351 1.43997C114.979 1.34009 114.6 1.25685 114.212 1.18194C113.999 1.14032 113.857 0.92391 113.896 0.699175C113.936 0.47444 114.141 0.324617 114.355 0.366235C114.75 0.441146 115.145 0.532705 115.532 0.632587C115.746 0.690852 115.872 0.915586 115.825 1.14032C115.785 1.32344 115.619 1.44829 115.445 1.44829ZM107.21 1.12367C107.02 1.12367 106.854 0.982175 106.823 0.774087C106.791 0.549352 106.933 0.33294 107.147 0.291323C107.542 0.224735 107.945 0.16647 108.34 0.116529C108.554 0.0915586 108.751 0.258029 108.775 0.482764C108.799 0.707499 108.641 0.915586 108.427 0.940557C108.04 0.982175 107.653 1.04044 107.273 1.10703C107.25 1.12367 107.226 1.12367 107.21 1.12367ZM111.936 0.882292C111.928 0.882292 111.92 0.882292 111.913 0.882292C111.525 0.848998 111.13 0.832351 110.743 0.832351C110.522 0.832351 110.348 0.640911 110.348 0.416176C110.348 0.191441 110.529 0 110.743 0C111.146 0 111.549 0.016647 111.952 0.0499411C112.173 0.0665881 112.331 0.266352 112.324 0.491087C112.316 0.707499 112.142 0.882292 111.936 0.882292Z" fill="#8F6FC9"/>
<path d="M129.765 12.3029L126.841 4.30396L122.399 8.66548L129.765 12.3029Z" fill="#8F6FC9"/>
<path d="M230.841 132.027C231.173 132.243 231.513 132.443 231.845 132.635C232.035 132.743 232.106 132.993 232.003 133.201C231.9 133.4 231.663 133.475 231.465 133.367C231.11 133.167 230.762 132.959 230.414 132.735C230.225 132.618 230.169 132.36 230.288 132.16C230.414 131.969 230.659 131.911 230.841 132.027ZM233.963 133.667C234.326 133.817 234.69 133.958 235.054 134.083C235.259 134.158 235.37 134.391 235.307 134.607C235.243 134.824 235.014 134.94 234.809 134.874C234.429 134.741 234.05 134.599 233.671 134.441C233.465 134.358 233.37 134.116 233.449 133.9C233.457 133.875 233.465 133.858 233.481 133.833C233.576 133.667 233.781 133.592 233.963 133.667ZM237.298 134.707C237.678 134.79 238.065 134.857 238.444 134.915C238.658 134.949 238.808 135.157 238.776 135.39C238.744 135.623 238.547 135.773 238.326 135.739C237.93 135.681 237.527 135.606 237.132 135.523C236.919 135.481 236.777 135.257 236.824 135.032C236.832 134.982 236.848 134.94 236.871 134.899C236.966 134.757 237.132 134.674 237.298 134.707ZM240.76 135.115C241.147 135.123 241.534 135.123 241.922 135.107C242.143 135.098 242.325 135.273 242.333 135.506C242.341 135.739 242.175 135.931 241.953 135.939C241.55 135.956 241.147 135.956 240.744 135.947C240.523 135.939 240.357 135.756 240.357 135.523C240.357 135.448 240.38 135.373 240.412 135.315C240.483 135.19 240.618 135.115 240.76 135.115ZM244.237 134.882C244.617 134.824 245.004 134.749 245.383 134.657C245.597 134.607 245.81 134.749 245.85 134.974C245.897 135.198 245.763 135.423 245.549 135.465C245.154 135.556 244.759 135.631 244.364 135.698C244.15 135.731 243.945 135.573 243.913 135.348C243.897 135.248 243.921 135.148 243.969 135.065C244.016 134.974 244.119 134.899 244.237 134.882ZM260.929 109.162C261.143 109.112 261.356 109.254 261.403 109.479C261.49 109.895 261.569 110.311 261.633 110.727C261.664 110.952 261.522 111.168 261.309 111.202C261.095 111.235 260.89 111.085 260.858 110.86C260.795 110.461 260.724 110.061 260.637 109.662C260.613 109.554 260.637 109.445 260.684 109.354C260.732 109.254 260.819 109.187 260.929 109.162ZM247.62 134.008C247.984 133.875 248.347 133.733 248.711 133.584C248.916 133.5 249.145 133.6 249.224 133.817C249.303 134.033 249.209 134.274 249.003 134.358C248.632 134.516 248.252 134.666 247.873 134.799C247.667 134.874 247.438 134.757 247.375 134.541C247.335 134.416 247.351 134.291 247.414 134.191C247.454 134.108 247.525 134.041 247.62 134.008ZM261.467 112.858C261.688 112.85 261.87 113.024 261.878 113.258C261.893 113.682 261.901 114.107 261.893 114.531C261.893 114.764 261.712 114.947 261.49 114.939C261.269 114.931 261.095 114.747 261.103 114.514C261.111 114.107 261.103 113.699 261.087 113.291C261.087 113.208 261.103 113.124 261.143 113.058C261.214 112.941 261.324 112.866 261.467 112.858ZM250.805 132.535C251.145 132.343 251.477 132.135 251.809 131.919C251.991 131.794 252.236 131.852 252.354 132.052C252.473 132.243 252.417 132.502 252.228 132.626C251.888 132.851 251.54 133.068 251.184 133.267C250.995 133.375 250.75 133.301 250.647 133.101C250.576 132.968 250.584 132.809 250.655 132.685C250.694 132.618 250.742 132.568 250.805 132.535ZM261.38 116.595C261.593 116.629 261.751 116.837 261.72 117.061C261.664 117.478 261.601 117.902 261.522 118.318C261.483 118.543 261.277 118.693 261.056 118.651C260.842 118.61 260.7 118.385 260.74 118.16C260.811 117.761 260.874 117.353 260.929 116.953C260.937 116.895 260.953 116.837 260.985 116.787C261.072 116.654 261.222 116.579 261.38 116.595ZM253.706 130.496C254.006 130.238 254.298 129.979 254.591 129.705C254.749 129.547 255.002 129.563 255.152 129.73C255.302 129.896 255.286 130.163 255.128 130.321C254.828 130.604 254.52 130.878 254.211 131.145C254.038 131.286 253.793 131.261 253.658 131.078C253.548 130.937 253.548 130.745 253.627 130.595C253.634 130.562 253.666 130.529 253.706 130.496ZM260.668 120.266C260.874 120.333 260.993 120.566 260.921 120.79C260.803 121.19 260.668 121.589 260.518 121.989C260.439 122.205 260.21 122.314 260.005 122.23C259.799 122.147 259.696 121.906 259.775 121.689C259.918 121.306 260.044 120.923 260.163 120.532C260.171 120.499 260.186 120.466 260.202 120.441C260.305 120.283 260.495 120.208 260.668 120.266ZM256.211 127.949C256.464 127.641 256.709 127.324 256.946 127C257.08 126.817 257.325 126.783 257.499 126.925C257.673 127.066 257.705 127.324 257.57 127.507C257.325 127.849 257.065 128.173 256.804 128.49C256.661 128.664 256.409 128.681 256.25 128.531C256.1 128.398 256.077 128.173 256.171 127.998C256.179 127.99 256.195 127.974 256.211 127.949ZM259.364 123.745C259.554 123.853 259.633 124.103 259.53 124.311C259.341 124.686 259.143 125.052 258.938 125.418C258.827 125.61 258.582 125.676 258.4 125.56C258.211 125.443 258.155 125.185 258.266 124.985C258.463 124.636 258.661 124.278 258.835 123.92C258.843 123.912 258.843 123.903 258.851 123.895C258.946 123.712 259.175 123.645 259.364 123.745Z" fill="#8F6FC9"/>
<path d="M258.922 101.913L263.869 108.721L258.013 110.428L258.922 101.913Z" fill="#8F6FC9"/>
<path d="M225.427 42.6329C225.632 42.2833 225.822 41.9254 226.004 41.5758C226.106 41.376 226.343 41.3011 226.541 41.4093C226.731 41.5175 226.802 41.7672 226.699 41.9753C226.509 42.3499 226.312 42.7161 226.098 43.074C225.98 43.2738 225.743 43.332 225.553 43.2072C225.371 43.0823 225.316 42.8243 225.427 42.6329ZM226.984 39.3534C227.126 38.9705 227.26 38.5876 227.379 38.2048C227.45 37.9883 227.671 37.8718 227.877 37.9384C228.082 38.005 228.201 38.2464 228.13 38.4628C228.003 38.8623 227.869 39.2618 227.719 39.6614C227.64 39.8778 227.41 39.9777 227.205 39.8944C227.181 39.8861 227.165 39.8778 227.142 39.8611C226.984 39.7529 226.912 39.5365 226.984 39.3534ZM227.972 35.8326C228.051 35.433 228.114 35.0335 228.169 34.6256C228.201 34.4009 228.398 34.2428 228.62 34.2677C228.841 34.301 228.983 34.5091 228.952 34.7422C228.896 35.1583 228.825 35.5828 228.746 35.999C228.707 36.2238 228.493 36.3736 228.28 36.3236C228.232 36.3153 228.193 36.2987 228.153 36.2737C228.019 36.1821 227.94 36.0073 227.972 35.8326ZM228.359 32.1869C228.367 31.779 228.367 31.3711 228.351 30.9633C228.343 30.7302 228.517 30.5388 228.73 30.5305C228.952 30.5222 229.133 30.6969 229.141 30.93C229.157 31.3545 229.157 31.779 229.149 32.2035C229.141 32.4366 228.967 32.6114 228.746 32.6114C228.675 32.6114 228.604 32.5864 228.548 32.5531C228.43 32.4782 228.359 32.345 228.359 32.1869ZM228.137 28.5245C228.082 28.1167 228.011 27.7171 227.924 27.3176C227.877 27.0929 228.011 26.8681 228.224 26.8265C228.438 26.7766 228.643 26.9181 228.691 27.1428C228.778 27.559 228.849 27.9752 228.912 28.3913C228.944 28.6161 228.793 28.8325 228.58 28.8658C228.485 28.8824 228.39 28.8574 228.311 28.8075C228.224 28.7576 228.153 28.6494 228.137 28.5245ZM203.716 10.9452C203.669 10.7205 203.803 10.4958 204.016 10.4458C204.412 10.3543 204.807 10.271 205.202 10.2045C205.415 10.1712 205.621 10.321 205.652 10.5457C205.684 10.7705 205.542 10.9869 205.328 11.0202C204.949 11.0867 204.562 11.1617 204.19 11.2532C204.088 11.2782 203.985 11.2532 203.898 11.2033C203.803 11.1533 203.74 11.0618 203.716 10.9452ZM227.308 24.962C227.181 24.5792 227.047 24.1963 226.905 23.8134C226.826 23.597 226.92 23.3556 227.126 23.2724C227.331 23.1891 227.561 23.289 227.64 23.5054C227.79 23.8966 227.932 24.2962 228.058 24.6957C228.13 24.9121 228.019 25.1535 227.813 25.2201C227.695 25.2617 227.576 25.245 227.482 25.1785C227.402 25.1368 227.339 25.0619 227.308 24.962ZM207.225 10.3792C207.217 10.1462 207.383 9.95475 207.605 9.94643C208.008 9.92978 208.411 9.92146 208.814 9.92978C209.035 9.92978 209.209 10.1212 209.201 10.3543C209.201 10.5873 209.019 10.7705 208.798 10.7621C208.411 10.7538 208.023 10.7621 207.636 10.7788C207.557 10.7788 207.478 10.7621 207.415 10.7205C207.304 10.6456 207.233 10.5291 207.225 10.3792ZM225.909 21.6077C225.727 21.2498 225.529 20.9002 225.324 20.5506C225.205 20.3591 225.261 20.1011 225.45 19.9763C225.632 19.8514 225.877 19.9097 225.996 20.1094C226.209 20.4673 226.415 20.8336 226.612 21.2081C226.715 21.4079 226.644 21.6659 226.454 21.7741C226.328 21.849 226.177 21.8407 226.059 21.7658C225.988 21.7242 225.94 21.6743 225.909 21.6077ZM210.774 10.4708C210.805 10.2461 211.003 10.0796 211.216 10.1129C211.612 10.1712 212.015 10.2377 212.41 10.321C212.623 10.3626 212.765 10.579 212.726 10.8121C212.686 11.0368 212.473 11.1866 212.26 11.145C211.88 11.0701 211.493 11.0035 211.114 10.9452C211.058 10.9369 211.003 10.9203 210.956 10.887C210.837 10.7954 210.758 10.6373 210.774 10.4708ZM223.972 18.5613C223.727 18.245 223.482 17.937 223.214 17.629C223.064 17.4626 223.079 17.1962 223.237 17.0381C223.395 16.8799 223.648 16.8966 223.799 17.063C224.067 17.3793 224.328 17.7039 224.581 18.0286C224.715 18.2034 224.692 18.4697 224.518 18.6112C224.383 18.7277 224.202 18.7277 224.059 18.6445C224.036 18.6279 224.004 18.5946 223.972 18.5613ZM214.259 11.2199C214.322 11.0035 214.544 10.8787 214.757 10.9536C215.136 11.0784 215.516 11.2199 215.895 11.3781C216.101 11.4613 216.203 11.7027 216.124 11.9191C216.045 12.1355 215.816 12.2437 215.611 12.1605C215.247 12.0107 214.884 11.8775 214.512 11.7526C214.48 11.7443 214.449 11.7277 214.425 11.711C214.275 11.6028 214.204 11.403 214.259 11.2199ZM221.562 15.9144C221.269 15.648 220.969 15.39 220.661 15.1403C220.487 14.9988 220.455 14.7408 220.59 14.5577C220.724 14.3745 220.969 14.3412 221.143 14.4827C221.467 14.7408 221.775 15.0154 222.076 15.2901C222.242 15.4399 222.257 15.7063 222.115 15.8811C221.989 16.0392 221.775 16.0642 221.609 15.9643C221.593 15.9477 221.578 15.931 221.562 15.9144ZM217.563 12.6016C217.666 12.4019 217.903 12.3186 218.1 12.4268C218.456 12.6266 218.804 12.8347 219.151 13.0511C219.333 13.1676 219.396 13.4257 219.286 13.6171C219.175 13.8169 218.93 13.8751 218.74 13.7586C218.408 13.5505 218.069 13.3424 217.729 13.1593C217.721 13.151 217.713 13.151 217.705 13.1427C217.531 13.0344 217.468 12.7931 217.563 12.6016Z" fill="#8F6FC9"/>
<path d="M196.833 13.0596L203.298 7.84912L204.918 14.0168L196.833 13.0596Z" fill="#8F6FC9"/>
<path d="M33.5649 158.63C33.6756 158.83 33.6202 159.079 33.4306 159.204C33.0828 159.429 32.7351 159.637 32.3873 159.837C32.1976 159.945 31.9526 159.862 31.8499 159.67C31.7471 159.471 31.8183 159.213 32.008 159.104C32.3478 158.913 32.6876 158.705 33.0196 158.497C33.2093 158.372 33.4543 158.43 33.5649 158.63ZM30.3878 160.303C30.3957 160.32 30.4115 160.345 30.4194 160.37C30.4984 160.586 30.3957 160.827 30.1981 160.911C29.8187 161.069 29.4394 161.21 29.06 161.343C28.8545 161.418 28.6253 161.302 28.5621 161.077C28.4909 160.861 28.6095 160.619 28.815 160.553C29.1785 160.428 29.55 160.286 29.9057 160.137C30.0874 160.053 30.2929 160.137 30.3878 160.303ZM26.9814 161.36C27.0051 161.402 27.0209 161.443 27.0288 161.493C27.0762 161.718 26.934 161.943 26.7206 161.984C26.3254 162.068 25.9303 162.143 25.5272 162.201C25.3138 162.234 25.1083 162.076 25.0767 161.851C25.0451 161.626 25.1952 161.41 25.4165 161.377C25.7959 161.318 26.1832 161.252 26.5625 161.169C26.7364 161.135 26.8945 161.219 26.9814 161.36ZM23.4486 161.776C23.4802 161.835 23.5039 161.909 23.5039 161.984C23.5118 162.217 23.3379 162.409 23.1167 162.409C22.7136 162.417 22.3105 162.417 21.9074 162.401C21.6861 162.392 21.5202 162.201 21.5281 161.968C21.536 161.735 21.7178 161.56 21.9391 161.568C22.3263 161.585 22.7136 161.585 23.1008 161.577C23.251 161.577 23.3775 161.66 23.4486 161.776ZM19.9079 161.535C19.9553 161.618 19.979 161.71 19.9632 161.818C19.9316 162.043 19.7261 162.201 19.5127 162.167C19.1175 162.101 18.7145 162.026 18.3272 161.934C18.1138 161.884 17.9795 161.66 18.0269 161.443C18.0743 161.219 18.2798 161.077 18.4932 161.127C18.8725 161.21 19.2519 161.285 19.6392 161.352C19.7498 161.36 19.8447 161.435 19.9079 161.535ZM3.18433 135.815C3.23966 135.907 3.25546 136.015 3.23175 136.123C3.14482 136.523 3.07368 136.922 3.01046 137.322C2.97884 137.547 2.77336 137.705 2.55997 137.663C2.34657 137.63 2.19641 137.413 2.23593 137.189C2.29915 136.772 2.37819 136.356 2.46512 135.94C2.51254 135.715 2.72594 135.574 2.93933 135.624C3.04207 135.649 3.12901 135.715 3.18433 135.815ZM16.4541 160.653C16.5094 160.752 16.5331 160.886 16.4936 161.002C16.4225 161.219 16.2012 161.335 15.9957 161.26C15.6163 161.127 15.237 160.977 14.8655 160.819C14.66 160.736 14.5652 160.486 14.6442 160.278C14.7233 160.062 14.9525 159.962 15.158 160.045C15.5136 160.195 15.8772 160.345 16.2486 160.469C16.3356 160.503 16.4067 160.569 16.4541 160.653ZM2.71803 139.519C2.75755 139.586 2.78126 139.669 2.77336 139.752C2.75755 140.16 2.74965 140.568 2.75755 140.976C2.75755 141.209 2.58368 141.392 2.37028 141.4C2.14899 141.4 1.97512 141.217 1.96721 140.992C1.95931 140.568 1.96721 140.143 1.98302 139.719C1.99092 139.486 2.1806 139.311 2.39399 139.319C2.53626 139.328 2.65481 139.403 2.71803 139.519ZM13.2058 159.146C13.2769 159.271 13.2848 159.429 13.2137 159.562C13.111 159.762 12.866 159.837 12.6763 159.729C12.3206 159.529 11.9729 159.313 11.633 159.088C11.4434 158.963 11.3959 158.713 11.5066 158.513C11.6251 158.322 11.8701 158.264 12.0519 158.38C12.3839 158.597 12.7158 158.805 13.0557 158.996C13.1189 159.038 13.1742 159.088 13.2058 159.146ZM2.8761 143.256C2.90771 143.306 2.92352 143.356 2.93142 143.423C2.97884 143.822 3.04207 144.23 3.12111 144.63C3.16062 144.855 3.02626 145.071 2.80497 145.121C2.59158 145.163 2.38609 145.021 2.33867 144.788C2.25964 144.372 2.19641 143.947 2.14109 143.531C2.10947 143.306 2.26754 143.098 2.48093 143.065C2.6469 143.04 2.79707 143.123 2.8761 143.256ZM10.25 157.065C10.3369 157.207 10.329 157.406 10.2183 157.548C10.084 157.723 9.83107 157.756 9.6651 157.615C9.34897 157.348 9.04864 157.073 8.74831 156.79C8.58234 156.641 8.57444 156.374 8.7246 156.2C8.87476 156.033 9.11977 156.016 9.28574 156.175C9.57026 156.449 9.87059 156.716 10.1709 156.965C10.2025 156.99 10.2341 157.024 10.25 157.065ZM3.65063 146.91C3.66644 146.935 3.68225 146.969 3.69015 147.002C3.8087 147.385 3.93515 147.776 4.07741 148.159C4.15645 148.375 4.0537 148.617 3.84822 148.7C3.64273 148.783 3.41353 148.675 3.3345 148.459C3.19224 148.059 3.05788 147.66 2.93142 147.26C2.8682 147.044 2.97884 146.811 3.18433 146.736C3.37401 146.669 3.55579 146.752 3.65063 146.91ZM7.69716 154.468C7.792 154.635 7.76829 154.868 7.61813 155.001C7.45216 155.151 7.20715 155.134 7.05699 154.959C6.79618 154.643 6.53536 154.31 6.29036 153.977C6.156 153.794 6.18762 153.536 6.36149 153.394C6.53537 153.253 6.78037 153.286 6.91473 153.469C7.15183 153.794 7.39683 154.11 7.64974 154.418C7.67345 154.435 7.68926 154.452 7.69716 154.468ZM5.02582 150.356C5.03372 150.365 5.03372 150.373 5.04163 150.381C5.2234 150.739 5.41308 151.097 5.61067 151.447C5.72132 151.647 5.66599 151.896 5.47631 152.021C5.28663 152.138 5.04953 152.079 4.93888 151.88C4.73339 151.513 4.53581 151.147 4.34613 150.773C4.24338 150.573 4.31452 150.315 4.5121 150.207C4.69388 150.107 4.91517 150.173 5.02582 150.356Z" fill="#8F6FC9"/>
<path d="M4.94752 128.374L0 135.182L5.8564 136.888L4.94752 128.374Z" fill="#8F6FC9"/>
<path d="M136.253 14.0415C136.253 14.8239 135.653 15.4565 134.91 15.4565C134.167 15.4565 133.566 14.8239 133.566 14.0415C133.566 13.2591 134.167 12.6265 134.91 12.6265C135.653 12.6265 136.253 13.2591 136.253 14.0415Z" fill="#8F6FC9"/>
<path d="M140.459 15.4565C141.201 15.4565 141.803 14.8229 141.803 14.0415C141.803 13.26 141.201 12.6265 140.459 12.6265C139.717 12.6265 139.115 13.26 139.115 14.0415C139.115 14.8229 139.717 15.4565 140.459 15.4565Z" fill="#8F6FC9"/>
<path d="M147.35 14.0415C147.35 14.8239 146.749 15.4565 146.006 15.4565C145.263 15.4565 144.662 14.8239 144.662 14.0415C144.662 13.2591 145.263 12.6265 146.006 12.6265C146.749 12.6265 147.35 13.2591 147.35 14.0415Z" fill="#8F6FC9"/>
<path d="M151.563 15.4565C152.305 15.4565 152.906 14.8229 152.906 14.0415C152.906 13.26 152.305 12.6265 151.563 12.6265C150.821 12.6265 150.219 13.26 150.219 14.0415C150.219 14.8229 150.821 15.4565 151.563 15.4565Z" fill="#8F6FC9"/>
<path d="M168.453 7.59147C169.195 7.59147 169.797 6.95795 169.797 6.17647C169.797 5.39499 169.195 4.76147 168.453 4.76147C167.711 4.76147 167.11 5.39499 167.11 6.17647C167.11 6.95795 167.711 7.59147 168.453 7.59147Z" fill="#80A880"/>
<path d="M174.01 7.59147C174.752 7.59147 175.354 6.95795 175.354 6.17647C175.354 5.39499 174.752 4.76147 174.01 4.76147C173.268 4.76147 172.667 5.39499 172.667 6.17647C172.667 6.95795 173.268 7.59147 174.01 7.59147Z" fill="#80A880"/>
<path d="M180.901 6.17647C180.901 6.95888 180.301 7.59147 179.558 7.59147C178.815 7.59147 178.214 6.95888 178.214 6.17647C178.214 5.39406 178.815 4.76147 179.558 4.76147C180.301 4.76147 180.901 5.39406 180.901 6.17647Z" fill="#80A880"/>
<path d="M185.107 7.59147C185.849 7.59147 186.45 6.95795 186.45 6.17647C186.45 5.39499 185.849 4.76147 185.107 4.76147C184.364 4.76147 183.763 5.39499 183.763 6.17647C183.763 6.95795 184.364 7.59147 185.107 7.59147Z" fill="#80A880"/>
<path d="M22.7144 140.875C22.7144 141.658 22.1137 142.29 21.3708 142.29C20.6279 142.29 20.0272 141.658 20.0272 140.875C20.0272 140.093 20.6279 139.46 21.3708 139.46C22.1137 139.46 22.7144 140.101 22.7144 140.875Z" fill="#8F6FC9"/>
<path d="M26.9201 142.29C27.6621 142.29 28.2637 141.657 28.2637 140.875C28.2637 140.094 27.6621 139.46 26.9201 139.46C26.1781 139.46 25.5765 140.094 25.5765 140.875C25.5765 141.657 26.1781 142.29 26.9201 142.29Z" fill="#8F6FC9"/>
<path d="M32.4753 142.29C33.2173 142.29 33.8189 141.657 33.8189 140.875C33.8189 140.094 33.2173 139.46 32.4753 139.46C31.7333 139.46 31.1317 140.094 31.1317 140.875C31.1317 141.657 31.7333 142.29 32.4753 142.29Z" fill="#8F6FC9"/>
<path d="M39.3676 140.875C39.3676 141.658 38.7669 142.29 38.024 142.29C37.2811 142.29 36.6804 141.658 36.6804 140.875C36.6804 140.093 37.2811 139.46 38.024 139.46C38.7669 139.46 39.3676 140.101 39.3676 140.875Z" fill="#8F6FC9"/>
<path d="M4.9236 96.4777C4.9236 97.2602 4.32294 97.8927 3.58002 97.8927C2.83711 97.8927 2.23645 97.2602 2.23645 96.4777C2.23645 95.6953 2.83711 95.0627 3.58002 95.0627C4.32294 95.0627 4.9236 95.6953 4.9236 96.4777Z" fill="#80A880"/>
<path d="M10.4729 96.4777C10.4729 97.2602 9.87226 97.8927 9.12934 97.8927C8.38642 97.8927 7.78577 97.2602 7.78577 96.4777C7.78577 95.6953 8.38642 95.0627 9.12934 95.0627C9.87226 95.0627 10.4729 95.6953 10.4729 96.4777Z" fill="#80A880"/>
<path d="M14.6762 97.8927C15.4183 97.8927 16.0198 97.2592 16.0198 96.4777C16.0198 95.6963 15.4183 95.0627 14.6762 95.0627C13.9342 95.0627 13.3326 95.6963 13.3326 96.4777C13.3326 97.2592 13.9342 97.8927 14.6762 97.8927Z" fill="#80A880"/>
<path d="M21.5767 96.4777C21.5767 97.2602 20.976 97.8927 20.2331 97.8927C19.4902 97.8927 18.8895 97.2602 18.8895 96.4777C18.8895 95.6953 19.4902 95.0627 20.2331 95.0627C20.976 95.0627 21.5767 95.6953 21.5767 96.4777Z" fill="#80A880"/>
<path d="M237.711 117.853C237.711 118.635 237.11 119.268 236.367 119.268C235.624 119.268 235.024 118.635 235.024 117.853C235.024 117.07 235.624 116.438 236.367 116.438C237.11 116.438 237.711 117.07 237.711 117.853Z" fill="#80A880"/>
<path d="M243.26 117.853C243.26 118.635 242.659 119.268 241.917 119.268C241.174 119.268 240.573 118.635 240.573 117.853C240.573 117.07 241.174 116.438 241.917 116.438C242.659 116.438 243.26 117.07 243.26 117.853Z" fill="#80A880"/>
<path d="M248.807 117.853C248.807 118.635 248.206 119.268 247.463 119.268C246.721 119.268 246.12 118.635 246.12 117.853C246.12 117.07 246.721 116.438 247.463 116.438C248.206 116.438 248.807 117.07 248.807 117.853Z" fill="#80A880"/>
<path d="M254.364 117.853C254.364 118.635 253.764 119.268 253.021 119.268C252.278 119.268 251.677 118.635 251.677 117.853C251.677 117.07 252.278 116.438 253.021 116.438C253.756 116.438 254.364 117.07 254.364 117.853Z" fill="#80A880"/>
<path d="M233.009 109.979C233.009 110.761 232.408 111.394 231.665 111.394C230.922 111.394 230.322 110.761 230.322 109.979C230.322 109.196 230.922 108.564 231.665 108.564C232.408 108.564 233.009 109.196 233.009 109.979Z" fill="#FFEFB0"/>
<path d="M238.558 109.979C238.558 110.761 237.957 111.394 237.214 111.394C236.472 111.394 235.871 110.761 235.871 109.979C235.871 109.196 236.472 108.564 237.214 108.564C237.957 108.564 238.558 109.196 238.558 109.979Z" fill="#FFEFB0"/>
<path d="M244.105 109.979C244.105 110.761 243.504 111.394 242.761 111.394C242.018 111.394 241.418 110.761 241.418 109.979C241.418 109.196 242.018 108.564 242.761 108.564C243.504 108.564 244.105 109.196 244.105 109.979Z" fill="#FFEFB0"/>
<path d="M249.662 109.979C249.662 110.761 249.061 111.394 248.318 111.394C247.575 111.394 246.975 110.761 246.975 109.979C246.975 109.196 247.575 108.564 248.318 108.564C249.053 108.564 249.662 109.196 249.662 109.979Z" fill="#FFEFB0"/>
<path opacity="0.87" d="M276.223 82.1199C276.278 81.8285 276.302 81.5372 276.302 81.2292C276.302 78.6739 274.334 76.6097 271.916 76.6097C271.157 76.6097 270.446 76.8094 269.829 77.1674C268.462 75.1947 266.257 73.9045 263.759 73.9045C259.61 73.9045 256.251 77.442 256.251 81.8119C256.251 81.8285 256.251 81.8452 256.251 81.8701C252.307 82.3363 249.241 85.8571 249.241 90.1354C249.241 94.73 252.782 98.4589 257.144 98.4589H274.113C278.476 98.4589 282.016 94.73 282.016 90.1354C282.024 86.3066 279.566 83.0937 276.223 82.1199Z" fill="#978DEF"/>
<path d="M256.205 89.3444C257.074 89.3444 257.272 88.9032 257.446 88.3955H258.204V95.9449H257.074V90.1851H256.205V89.3444Z" fill="white"/>
<path d="M259.477 90.2105C259.477 89.0036 260.086 88.3127 261.192 88.3127C262.299 88.3127 262.899 89.0036 262.899 90.2105V94.1392C262.899 95.3461 262.291 96.037 261.192 96.037C260.086 96.037 259.477 95.3461 259.477 94.1392V90.2105ZM260.6 94.2141C260.6 94.7551 260.829 94.9632 261.184 94.9632C261.54 94.9632 261.769 94.7551 261.769 94.2141V90.1356C261.769 89.5946 261.548 89.3865 261.184 89.3865C260.829 89.3865 260.6 89.5946 260.6 90.1356V94.2141Z" fill="white"/>
<path d="M264.321 89.3446C265.19 89.3446 265.388 88.9035 265.562 88.3958H266.32V95.9452H265.19V90.1853H264.321V89.3446Z" fill="white"/>
<path d="M267.586 90.2103C267.586 89.0034 268.194 88.3125 269.293 88.3125C270.399 88.3125 271.008 89.0034 271.008 90.2103V94.139C271.008 95.3459 270.399 96.0367 269.293 96.0367C268.186 96.0367 267.586 95.3459 267.586 94.139V90.2103ZM268.716 94.2139C268.716 94.7549 268.945 94.963 269.301 94.963C269.656 94.963 269.886 94.7549 269.886 94.2139V90.1354C269.886 89.5943 269.664 89.3862 269.301 89.3862C268.945 89.3862 268.716 89.5943 268.716 90.1354V94.2139Z" fill="white"/>
<path d="M271.648 90.2103C271.648 89.0034 272.257 88.3125 273.355 88.3125C274.462 88.3125 275.07 89.0034 275.07 90.2103V94.139C275.07 95.3459 274.462 96.0367 273.355 96.0367C272.249 96.0367 271.648 95.3459 271.648 94.139V90.2103ZM272.77 94.2139C272.77 94.7549 273 94.963 273.355 94.963C273.711 94.963 273.94 94.7549 273.94 94.2139V90.1354C273.94 89.5943 273.719 89.3862 273.355 89.3862C273 89.3862 272.77 89.5943 272.77 90.1354V94.2139Z" fill="white"/>
<path d="M259.863 81.179C259.863 79.9721 260.472 79.2812 261.578 79.2812C262.685 79.2812 263.285 79.9721 263.285 81.179V85.1077C263.285 86.3146 262.677 87.0055 261.578 87.0055C260.472 87.0055 259.863 86.3146 259.863 85.1077V81.179ZM260.993 85.1826C260.993 85.7236 261.223 85.9317 261.578 85.9317C261.934 85.9317 262.163 85.7236 262.163 85.1826V81.1041C262.163 80.5631 261.942 80.355 261.578 80.355C261.223 80.355 260.993 80.5631 260.993 81.1041V85.1826Z" fill="white"/>
<path d="M264.717 80.3219C265.586 80.3219 265.784 79.8808 265.958 79.373H266.716V86.9225H265.586V81.1626H264.717V80.3219Z" fill="white"/>
<path d="M268.771 80.3219C269.641 80.3219 269.838 79.8808 270.012 79.373H270.771V86.9225H269.641V81.1626H268.771V80.3219Z" fill="white"/>
<path d="M102.184 44.2558C103.053 44.2558 103.251 43.8146 103.424 43.3069H104.183V50.8563H103.053V45.0964H102.184V44.2558Z" fill="#8F6FC9"/>
<path d="M105.456 45.1216C105.456 43.9147 106.057 43.2239 107.163 43.2239C108.27 43.2239 108.871 43.9147 108.871 45.1216V49.0503C108.871 50.2572 108.27 50.9481 107.163 50.9481C106.057 50.9481 105.456 50.2572 105.456 49.0503V45.1216ZM106.579 49.1252C106.579 49.6663 106.808 49.8744 107.163 49.8744C107.519 49.8744 107.748 49.6663 107.748 49.1252V45.0467C107.748 44.5057 107.519 44.2976 107.163 44.2976C106.808 44.2976 106.579 44.5057 106.579 45.0467V49.1252Z" fill="#8F6FC9"/>
<path d="M110.3 44.256C111.169 44.256 111.367 43.8149 111.541 43.3071H112.299V50.8566H111.169V45.0967H110.3V44.256Z" fill="#8F6FC9"/>
<path d="M113.565 45.1216C113.565 43.9147 114.165 43.2239 115.272 43.2239C116.378 43.2239 116.979 43.9147 116.979 45.1216V49.0503C116.979 50.2572 116.378 50.9481 115.272 50.9481C114.165 50.9481 113.565 50.2572 113.565 49.0503V45.1216ZM114.695 49.1252C114.695 49.6663 114.924 49.8744 115.28 49.8744C115.635 49.8744 115.865 49.6663 115.865 49.1252V45.0467C115.865 44.5057 115.635 44.2976 115.28 44.2976C114.924 44.2976 114.695 44.5057 114.695 45.0467V49.1252Z" fill="#8F6FC9"/>
<path d="M117.627 45.1216C117.627 43.9147 118.227 43.2239 119.334 43.2239C120.44 43.2239 121.041 43.9147 121.041 45.1216V49.0503C121.041 50.2572 120.44 50.9481 119.334 50.9481C118.227 50.9481 117.627 50.2572 117.627 49.0503V45.1216ZM118.749 49.1252C118.749 49.6663 118.978 49.8744 119.334 49.8744C119.689 49.8744 119.919 49.6663 119.919 49.1252V45.0467C119.919 44.5057 119.689 44.2976 119.334 44.2976C118.978 44.2976 118.749 44.5057 118.749 45.0467V49.1252Z" fill="#8F6FC9"/>
<path d="M105.85 36.0904C105.85 34.8835 106.451 34.1926 107.557 34.1926C108.663 34.1926 109.264 34.8835 109.264 36.0904V40.0191C109.264 41.226 108.663 41.9168 107.557 41.9168C106.451 41.9168 105.85 41.226 105.85 40.0191V36.0904ZM106.972 40.094C106.972 40.635 107.201 40.8431 107.557 40.8431C107.913 40.8431 108.142 40.635 108.142 40.094V36.0155C108.142 35.4744 107.913 35.2747 107.557 35.2747C107.201 35.2747 106.972 35.4828 106.972 36.0155V40.094Z" fill="#8F6FC9"/>
<path d="M110.696 35.225C111.565 35.225 111.763 34.7839 111.936 34.2761H112.695V41.8255H111.565V36.0657H110.696V35.225Z" fill="#8F6FC9"/>
<path d="M114.75 35.225C115.619 35.225 115.817 34.7839 115.991 34.2761H116.749V41.8255H115.619V36.0657H114.75V35.225Z" fill="#8F6FC9"/>
<path d="M247.755 80.6467C247.755 77.8 246.506 75.253 244.546 73.58C244.507 73.5384 244.459 73.4968 244.404 73.4718C242.942 72.2649 241.1 71.5491 239.109 71.5491C237.117 71.5491 235.275 72.2732 233.813 73.4718C233.758 73.5051 233.711 73.5384 233.671 73.5883C231.719 75.2614 230.47 77.8 230.47 80.655C230.47 83.51 231.727 86.057 233.679 87.7217C233.719 87.755 233.758 87.7882 233.798 87.8132C235.268 89.0201 237.109 89.7526 239.117 89.7526C241.116 89.7526 242.95 89.0285 244.412 87.8215C244.459 87.7966 244.507 87.755 244.546 87.7133C246.506 86.0403 247.755 83.5016 247.755 80.6467ZM244.072 86.3732C243.693 86.0902 243.297 85.8489 242.879 85.6408C243.274 84.3923 243.527 82.919 243.582 81.3209H246.459C246.293 83.3185 245.408 85.0914 244.072 86.3732ZM237.014 86.3816C237.686 86.1735 238.397 86.057 239.117 86.057C239.844 86.057 240.547 86.1735 241.219 86.3816C240.618 87.6634 239.844 88.4042 239.117 88.4042C238.381 88.4125 237.615 87.6634 237.014 86.3816ZM236.342 87.8299C235.955 87.6634 235.584 87.4553 235.228 87.2222C235.426 87.0974 235.623 86.9725 235.829 86.8643C235.987 87.2222 236.153 87.5385 236.342 87.8299ZM239.117 72.8892C239.852 72.8892 240.618 73.6383 241.219 74.9118C240.547 75.1199 239.836 75.2364 239.117 75.2364C238.389 75.2364 237.686 75.1199 237.014 74.9118C237.615 73.63 238.381 72.8892 239.117 72.8892ZM235.829 74.4207C235.623 74.3125 235.426 74.196 235.228 74.0628C235.584 73.8297 235.947 73.63 236.342 73.4552C236.153 73.7548 235.987 74.0711 235.829 74.4207ZM241.891 73.4635C242.278 73.63 242.649 73.838 243.005 74.0711C242.807 74.1959 242.61 74.3208 242.404 74.429C242.246 74.0711 242.072 73.7548 241.891 73.4635ZM239.117 76.5765C239.994 76.5765 240.863 76.4267 241.701 76.152C242.033 77.2257 242.254 78.5242 242.309 79.9808H235.924C235.979 78.5242 236.2 77.2257 236.532 76.152C237.362 76.4267 238.231 76.5765 239.117 76.5765ZM242.309 81.3209C242.254 82.7775 242.033 84.076 241.701 85.1414C240.871 84.8667 239.994 84.7169 239.117 84.7169C238.239 84.7169 237.362 84.8667 236.532 85.1414C236.2 84.0676 235.979 82.7692 235.924 81.3209H242.309ZM242.404 86.8727C242.61 86.9809 242.807 87.0974 243.005 87.2306C242.649 87.4636 242.286 87.6634 241.891 87.8382C242.072 87.5385 242.246 87.2223 242.404 86.8727ZM246.451 79.9808H243.574C243.519 78.3827 243.274 76.9177 242.871 75.6609C243.289 75.4528 243.685 75.2031 244.064 74.9284C245.408 76.2019 246.293 77.9831 246.451 79.9808ZM234.153 74.9201C234.533 75.2031 234.928 75.4445 235.347 75.6526C234.951 76.9011 234.699 78.3744 234.651 79.9725H231.774C231.94 77.9832 232.825 76.2019 234.153 74.9201ZM231.774 81.3209H234.651C234.706 82.919 234.951 84.3839 235.347 85.6408C234.928 85.8489 234.533 86.0986 234.153 86.3732C232.825 85.0914 231.94 83.3185 231.774 81.3209Z" fill="#8F6FC9"/>
<path opacity="0.87" d="M278.208 134.907C278.263 134.616 278.287 134.325 278.287 134.017C278.287 131.461 276.319 129.397 273.9 129.397C273.142 129.397 272.43 129.597 271.814 129.955C270.447 127.982 268.242 126.692 265.744 126.692C261.595 126.692 258.236 130.229 258.236 134.599C258.236 134.616 258.236 134.641 258.236 134.657C254.292 135.124 251.226 138.644 251.226 142.923C251.226 147.517 254.766 151.246 259.129 151.246H276.098C280.46 151.246 284.001 147.517 284.001 142.923C284.001 139.094 281.543 135.881 278.208 134.907Z" fill="#978DEF"/>
<path d="M274.984 139.96C274.984 137.529 273.917 135.357 272.249 133.933C272.21 133.9 272.178 133.867 272.131 133.842C270.882 132.818 269.317 132.202 267.61 132.202C265.903 132.202 264.346 132.818 263.097 133.842C263.05 133.867 263.01 133.9 262.971 133.942C261.311 135.365 260.244 137.538 260.244 139.96C260.244 142.39 261.311 144.563 262.979 145.986C263.01 146.019 263.042 146.044 263.081 146.069C264.33 147.101 265.903 147.725 267.61 147.725C269.317 147.725 270.882 147.11 272.131 146.086C272.17 146.061 272.21 146.027 272.249 145.994C273.917 144.554 274.984 142.39 274.984 139.96ZM271.846 144.837C271.522 144.596 271.182 144.388 270.827 144.205C271.167 143.139 271.38 141.882 271.42 140.526H273.87C273.727 142.232 272.976 143.747 271.846 144.837ZM265.816 144.846C266.393 144.662 266.994 144.571 267.61 144.571C268.227 144.571 268.827 144.671 269.404 144.846C268.89 145.936 268.234 146.577 267.61 146.577C266.994 146.577 266.33 145.936 265.816 144.846ZM265.247 146.086C264.915 145.944 264.599 145.769 264.299 145.57C264.465 145.462 264.638 145.362 264.812 145.27C264.947 145.561 265.089 145.836 265.247 146.086ZM267.61 133.334C268.234 133.334 268.89 133.975 269.404 135.065C268.827 135.249 268.227 135.34 267.61 135.34C266.994 135.34 266.393 135.24 265.816 135.065C266.33 133.975 266.994 133.334 267.61 133.334ZM264.812 134.641C264.638 134.549 264.472 134.449 264.299 134.341C264.599 134.142 264.915 133.967 265.247 133.825C265.089 134.075 264.947 134.35 264.812 134.641ZM269.981 133.825C270.313 133.967 270.629 134.142 270.93 134.341C270.764 134.449 270.59 134.549 270.416 134.641C270.281 134.35 270.139 134.075 269.981 133.825ZM267.61 136.489C268.361 136.489 269.104 136.364 269.815 136.123C270.1 137.038 270.289 138.145 270.337 139.385H264.891C264.939 138.145 265.128 137.038 265.413 136.123C266.124 136.356 266.859 136.489 267.61 136.489ZM270.337 140.526C270.289 141.766 270.1 142.873 269.815 143.788C269.104 143.555 268.361 143.422 267.61 143.422C266.859 143.422 266.116 143.547 265.405 143.788C265.121 142.873 264.931 141.766 264.883 140.526H270.337ZM270.416 145.27C270.59 145.362 270.756 145.462 270.93 145.57C270.629 145.769 270.313 145.944 269.981 146.086C270.139 145.836 270.281 145.561 270.416 145.27ZM273.87 139.385H271.42C271.372 138.02 271.159 136.772 270.827 135.706C271.182 135.523 271.522 135.315 271.846 135.074C272.976 136.164 273.727 137.679 273.87 139.385ZM263.382 135.074C263.706 135.315 264.046 135.523 264.401 135.706C264.061 136.772 263.848 138.029 263.809 139.385H261.359C261.493 137.679 262.252 136.164 263.382 135.074ZM261.359 140.526H263.809C263.856 141.891 264.069 143.139 264.401 144.205C264.046 144.388 263.706 144.596 263.382 144.837C262.252 143.747 261.493 142.232 261.359 140.526Z" fill="white"/>
<path opacity="0.87" d="M39.6273 50.2653H49.9886C52.6521 50.2653 54.8176 47.993 54.8176 45.1797C54.8176 42.3746 52.66 40.094 49.9886 40.094H39.6273C36.9639 40.094 34.7983 42.3663 34.7983 45.1797C34.8062 47.9847 36.9639 50.2653 39.6273 50.2653Z" fill="#978DEF"/>
<path opacity="0.87" d="M45.958 44.9302C48.4896 44.9302 50.5419 42.7688 50.5419 40.1025C50.5419 37.4363 48.4896 35.2749 45.958 35.2749C43.4263 35.2749 41.374 37.4363 41.374 40.1025C41.374 42.7688 43.4263 44.9302 45.958 44.9302Z" fill="#978DEF"/>
<path opacity="0.87" d="M40.9722 42.5657C42.4519 42.5657 43.6515 41.3024 43.6515 39.744C43.6515 38.1857 42.4519 36.9224 40.9722 36.9224C39.4925 36.9224 38.293 38.1857 38.293 39.744C38.293 41.3024 39.4925 42.5657 40.9722 42.5657Z" fill="#978DEF"/>
<path d="M48.8349 42.5662H40.4969C40.078 42.5662 39.7302 42.2083 39.7302 41.7588C39.7302 41.3176 40.0701 40.9514 40.4969 40.9514H48.8349C49.2538 40.9514 49.6015 41.3093 49.6015 41.7588C49.5936 42.2083 49.2538 42.5662 48.8349 42.5662Z" fill="white"/>
<path d="M50.4551 44.9299H40.4969C40.078 44.9299 39.7302 44.572 39.7302 44.1226C39.7302 43.6814 40.0701 43.3152 40.4969 43.3152H50.4551C50.874 43.3152 51.2217 43.6731 51.2217 44.1226C51.2217 44.5637 50.8819 44.9299 50.4551 44.9299Z" fill="white"/>
<path d="M50.4551 47.2854H40.4969C40.078 47.2854 39.7302 46.9275 39.7302 46.478C39.7302 46.0369 40.0701 45.6707 40.4969 45.6707H50.4551C50.874 45.6707 51.2217 46.0286 51.2217 46.478C51.2217 46.9275 50.8819 47.2854 50.4551 47.2854Z" fill="white"/>
<path d="M212.996 232.792V212.183C212.996 209.494 210.925 207.322 208.38 207.322H208.325C205.772 207.322 203.709 209.503 203.709 212.183V213.423C203.709 216.112 201.639 218.284 199.094 218.284C196.541 218.284 194.478 216.103 194.478 213.423V196.743C194.478 193.896 192.289 191.582 189.578 191.582C186.875 191.582 184.678 193.888 184.678 196.743V231.593C184.678 234.607 182.362 237.045 179.501 237.045C176.64 237.045 174.325 234.607 174.325 231.593V201.437C174.325 198.749 172.254 196.576 169.709 196.576H161.418" stroke="white" stroke-width="2.58182" stroke-miterlimit="10"/>
<path d="M209.321 222.402C206.27 222.402 203.788 224.974 203.733 228.187L203.464 244.459C203.385 249.162 206.981 253.008 211.447 253.008H212.996V222.402H209.321Z" fill="white"/>
<path d="M222.259 228.181C222.203 224.968 219.722 222.396 216.671 222.396H212.996V253.01H214.545C219.01 253.01 222.606 249.156 222.527 244.461L222.259 228.181Z" fill="#D5E6F0"/>
<path d="M212.917 236.471C212.103 236.471 211.431 235.772 211.431 234.906V229.904C211.431 229.038 212.095 228.339 212.917 228.339C213.739 228.339 214.403 229.038 214.403 229.904V234.906C214.403 235.772 213.739 236.471 212.917 236.471Z" fill="#8FB4C9"/>
<path d="M127.385 180.745L126.365 194.787H161.401L160.39 180.745H127.385Z" fill="#F1F1F1"/>
<path d="M159.838 173.03H127.94L127.386 180.745H160.391L159.838 173.03Z" fill="#808080"/>
<path d="M170.23 199.606H117.546V196.06C117.546 194.679 118.613 193.555 119.925 193.555H167.843C169.155 193.555 170.222 194.679 170.222 196.06L170.23 199.606Z" fill="#A4CDE7"/>
<path d="M221.388 57.3823H66.3874C63.7792 57.3823 61.6611 59.613 61.6611 62.3598V160.361H159.181H226.115V89.869V62.3598C226.115 59.613 223.997 57.3823 221.388 57.3823Z" fill="#A4CDE7"/>
<path d="M143.233 177.166H221.389C223.998 177.166 226.116 174.935 226.116 172.188V160.369H159.182L143.233 177.166Z" fill="#E5E5E5"/>
<path d="M61.6611 160.369V172.189C61.6611 174.935 63.7792 177.166 66.3874 177.166H143.232L159.181 160.369H61.6611Z" fill="#F1F1F1"/>
<path d="M219.318 63.4421H67.4147V153.478H219.318V63.4421Z" fill="#464472"/>
<path d="M99.297 75.153H75.982C75.0732 75.153 74.3381 74.3789 74.3381 73.4217C74.3381 72.4645 75.0732 71.6904 75.982 71.6904H99.297C100.206 71.6904 100.941 72.4645 100.941 73.4217C100.941 74.3789 100.206 75.153 99.297 75.153Z" fill="#C2FFC2"/>
<path d="M158.311 75.1533H134.996C134.087 75.1533 133.352 74.3792 133.352 73.422C133.352 72.4648 134.087 71.6907 134.996 71.6907H158.311C159.22 71.6907 159.955 72.4648 159.955 73.422C159.955 74.3792 159.22 75.1533 158.311 75.1533Z" fill="#C2FFC2"/>
<path d="M169.773 75.1533H164.422C163.513 75.1533 162.778 74.3792 162.778 73.422C162.778 72.4648 163.513 71.6907 164.422 71.6907H169.773C170.681 71.6907 171.416 72.4648 171.416 73.422C171.416 74.3792 170.681 75.1533 169.773 75.1533Z" fill="white"/>
<path d="M128.682 75.153H120.241C119.332 75.153 118.597 74.3789 118.597 73.4217C118.597 72.4645 119.332 71.6904 120.241 71.6904H128.682C129.591 71.6904 130.326 72.4645 130.326 73.4217C130.326 74.3789 129.591 75.153 128.682 75.153Z" fill="#FE168D"/>
<path d="M91.5754 81.5373H75.982C75.0732 81.5373 74.3381 80.7632 74.3381 79.806C74.3381 78.8488 75.0732 78.0747 75.982 78.0747H91.5754C92.4843 78.0747 93.2193 78.8488 93.2193 79.806C93.2193 80.7632 92.4843 81.5373 91.5754 81.5373Z" fill="#00FFFF"/>
<path d="M133.454 81.5373H117.861C116.952 81.5373 116.217 80.7632 116.217 79.806C116.217 78.8488 116.952 78.0747 117.861 78.0747H133.454C134.363 78.0747 135.098 78.8488 135.098 79.806C135.098 80.7632 134.363 81.5373 133.454 81.5373Z" fill="#00FFFF"/>
<path d="M141.588 81.5373H138.743C137.834 81.5373 137.099 80.7632 137.099 79.806C137.099 78.8488 137.834 78.0747 138.743 78.0747H141.588C142.497 78.0747 143.232 78.8488 143.232 79.806C143.232 80.7632 142.497 81.5373 141.588 81.5373Z" fill="white"/>
<path d="M102.047 81.5373H97.013C96.1042 81.5373 95.3691 80.7632 95.3691 79.806C95.3691 78.8488 96.1042 78.0747 97.013 78.0747H102.047C102.956 78.0747 103.691 78.8488 103.691 79.806C103.699 80.7632 102.956 81.5373 102.047 81.5373Z" fill="#00FFFF"/>
<path d="M112.425 81.5373H107.39C106.481 81.5373 105.746 80.7632 105.746 79.806C105.746 78.8488 106.481 78.0747 107.39 78.0747H112.425C113.334 78.0747 114.069 78.8488 114.069 79.806C114.069 80.7632 113.334 81.5373 112.425 81.5373Z" fill="#00FFFF"/>
<path d="M91.5754 87.9213H75.982C75.0732 87.9213 74.3381 87.1472 74.3381 86.19C74.3381 85.2328 75.0732 84.4587 75.982 84.4587H91.5754C92.4843 84.4587 93.2193 85.2328 93.2193 86.19C93.2193 87.1389 92.4843 87.9213 91.5754 87.9213Z" fill="white"/>
<path d="M102.047 87.9213H97.013C96.1042 87.9213 95.3691 87.1472 95.3691 86.19C95.3691 85.2328 96.1042 84.4587 97.013 84.4587H102.047C102.956 84.4587 103.691 85.2328 103.691 86.19C103.699 87.1389 102.956 87.9213 102.047 87.9213Z" fill="white"/>
<path d="M112.425 87.9213H107.39C106.481 87.9213 105.746 87.1472 105.746 86.19C105.746 85.2328 106.481 84.4587 107.39 84.4587H112.425C113.334 84.4587 114.069 85.2328 114.069 86.19C114.069 87.1389 113.334 87.9213 112.425 87.9213Z" fill="white"/>
<path d="M140.457 87.9213H138.869C137.96 87.9213 137.225 87.1472 137.225 86.19C137.225 85.2328 137.96 84.4587 138.869 84.4587H140.457C141.366 84.4587 142.101 85.2328 142.101 86.19C142.101 87.1389 141.366 87.9213 140.457 87.9213Z" fill="#FE168D"/>
<path d="M147.451 87.9213H145.863C144.954 87.9213 144.219 87.1472 144.219 86.19C144.219 85.2328 144.954 84.4587 145.863 84.4587H147.451C148.36 84.4587 149.095 85.2328 149.095 86.19C149.103 87.1389 148.36 87.9213 147.451 87.9213Z" fill="#FE168D"/>
<path d="M154.455 87.9213H152.867C151.958 87.9213 151.223 87.1472 151.223 86.19C151.223 85.2328 151.958 84.4587 152.867 84.4587H154.455C155.364 84.4587 156.099 85.2328 156.099 86.19C156.099 87.1389 155.364 87.9213 154.455 87.9213Z" fill="white"/>
<path d="M161.457 87.9213H159.869C158.96 87.9213 158.225 87.1472 158.225 86.19C158.225 85.2328 158.96 84.4587 159.869 84.4587H161.457C162.366 84.4587 163.101 85.2328 163.101 86.19C163.101 87.1389 162.366 87.9213 161.457 87.9213Z" fill="white"/>
<path d="M84.2411 94.2971H75.982C75.0732 94.2971 74.3381 93.523 74.3381 92.5658C74.3381 91.6086 75.0732 90.8345 75.982 90.8345H84.2332C85.1421 90.8345 85.8771 91.6086 85.8771 92.5658C85.885 93.523 85.15 94.2971 84.2411 94.2971Z" fill="white"/>
<path d="M109.847 94.2975H101.596C100.687 94.2975 99.9521 93.5235 99.9521 92.5663C99.9521 91.609 100.687 90.835 101.596 90.835H109.847C110.756 90.835 111.491 91.609 111.491 92.5663C111.491 93.5235 110.756 94.2975 109.847 94.2975Z" fill="#FE168D"/>
<path d="M114.82 94.2975H114.361C113.453 94.2975 112.718 93.5235 112.718 92.5663C112.718 91.609 113.453 90.835 114.361 90.835H114.82C115.729 90.835 116.464 91.609 116.464 92.5663C116.472 93.5235 115.729 94.2975 114.82 94.2975Z" fill="white"/>
<path d="M90.6431 94.2971H88.849C87.9401 94.2971 87.2051 93.523 87.2051 92.5658C87.2051 91.6086 87.9401 90.8345 88.849 90.8345H90.6431C91.5519 90.8345 92.287 91.6086 92.287 92.5658C92.287 93.523 91.5519 94.2971 90.6431 94.2971Z" fill="white"/>
<path d="M96.9885 94.2975H95.1944C94.2855 94.2975 93.5505 93.5235 93.5505 92.5663C93.5505 91.609 94.2855 90.835 95.1944 90.835H96.9885C97.8974 90.835 98.6324 91.609 98.6324 92.5663C98.6324 93.5235 97.8974 94.2975 96.9885 94.2975Z" fill="white"/>
<path d="M95.1003 100.681H75.982C75.0732 100.681 74.3381 99.9072 74.3381 98.95C74.3381 97.9928 75.0732 97.2188 75.982 97.2188H95.1003C96.0092 97.2188 96.7442 97.9928 96.7442 98.95C96.7442 99.9072 96.0092 100.681 95.1003 100.681Z" fill="#00FFFF"/>
<path d="M129.544 100.682H125.687C124.778 100.682 124.043 99.9075 124.043 98.9503C124.043 97.9931 124.778 97.219 125.687 97.219H129.544C130.453 97.219 131.188 97.9931 131.188 98.9503C131.188 99.9075 130.453 100.682 129.544 100.682Z" fill="white"/>
<path d="M137.232 100.682H135.288C134.379 100.682 133.644 99.9075 133.644 98.9503C133.644 97.9931 134.379 97.219 135.288 97.219H137.232C138.141 97.219 138.876 97.9931 138.876 98.9503C138.876 99.9075 138.141 100.682 137.232 100.682Z" fill="white"/>
<path d="M144.86 100.681H142.916C142.007 100.681 141.272 99.9072 141.272 98.95C141.272 97.9928 142.007 97.2188 142.916 97.2188H144.86C145.769 97.2188 146.504 97.9928 146.504 98.95C146.504 99.9072 145.769 100.681 144.86 100.681Z" fill="white"/>
<path d="M107.533 100.681H100.941C100.032 100.681 99.2974 99.9072 99.2974 98.95C99.2974 97.9928 100.032 97.2188 100.941 97.2188H107.533C108.442 97.2188 109.177 97.9928 109.177 98.95C109.184 99.9072 108.442 100.681 107.533 100.681Z" fill="#00FFFF"/>
<path d="M119.846 100.681H113.254C112.346 100.681 111.611 99.9072 111.611 98.95C111.611 97.9928 112.346 97.2188 113.254 97.2188H119.846C120.755 97.2188 121.49 97.9928 121.49 98.95C121.498 99.9072 120.755 100.681 119.846 100.681Z" fill="#00FFFF"/>
<path d="M97.8191 107.065H75.982C75.0732 107.065 74.3381 106.291 74.3381 105.334C74.3381 104.377 75.0732 103.603 75.982 103.603H97.8191C98.728 103.603 99.463 104.377 99.463 105.334C99.463 106.283 98.728 107.065 97.8191 107.065Z" fill="white"/>
<path d="M153.545 107.065H131.708C130.799 107.065 130.064 106.291 130.064 105.334C130.064 104.377 130.799 103.603 131.708 103.603H153.545C154.454 103.603 155.189 104.377 155.189 105.334C155.197 106.283 154.454 107.065 153.545 107.065Z" fill="white"/>
<path d="M164.366 107.065H159.498C158.589 107.065 157.854 106.291 157.854 105.334C157.854 104.377 158.589 103.603 159.498 103.603H164.366C165.275 103.603 166.01 104.377 166.01 105.334C166.018 106.283 165.283 107.065 164.366 107.065Z" fill="white"/>
<path d="M85.8692 113.441H75.982C75.0732 113.441 74.3381 112.667 74.3381 111.71C74.3381 110.753 75.0732 109.979 75.982 109.979H85.8692C86.7781 109.979 87.5131 110.753 87.5131 111.71C87.5131 112.667 86.7781 113.441 85.8692 113.441Z" fill="white"/>
<path d="M115.095 113.441H105.208C104.299 113.441 103.564 112.667 103.564 111.71C103.564 110.753 104.299 109.979 105.208 109.979H115.095C116.004 109.979 116.739 110.753 116.739 111.71C116.739 112.667 116.004 113.441 115.095 113.441Z" fill="#FE168D"/>
<path d="M120.77 113.441H119.782C118.873 113.441 118.138 112.667 118.138 111.71C118.138 110.753 118.873 109.979 119.782 109.979H120.77C121.679 109.979 122.414 110.753 122.414 111.71C122.414 112.667 121.679 113.441 120.77 113.441Z" fill="#FE168D"/>
<path d="M93.1794 113.441H90.6661C89.7572 113.441 89.0222 112.667 89.0222 111.71C89.0222 110.753 89.7572 109.979 90.6661 109.979H93.1794C94.0883 109.979 94.8233 110.753 94.8233 111.71C94.8233 112.667 94.0883 113.441 93.1794 113.441Z" fill="white"/>
<path d="M100.418 113.441H97.9049C96.996 113.441 96.261 112.667 96.261 111.709C96.261 110.752 96.996 109.978 97.9049 109.978H100.418C101.327 109.978 102.062 110.752 102.062 111.709C102.062 112.667 101.327 113.441 100.418 113.441Z" fill="#C2FFC2"/>
<path d="M88.0347 119.825H75.982C75.0732 119.825 74.3381 119.051 74.3381 118.094C74.3381 117.137 75.0732 116.363 75.982 116.363H88.0347C88.9436 116.363 89.6786 117.137 89.6786 118.094C89.6865 119.051 88.9436 119.825 88.0347 119.825Z" fill="white"/>
<path d="M122.074 119.825H110.022C109.113 119.825 108.378 119.051 108.378 118.094C108.378 117.137 109.113 116.363 110.022 116.363H122.074C122.983 116.363 123.718 117.137 123.718 118.094C123.718 119.051 122.983 119.825 122.074 119.825Z" fill="#00FFFF"/>
<path d="M128.682 119.825H126.991C126.082 119.825 125.347 119.051 125.347 118.094C125.347 117.137 126.082 116.363 126.991 116.363H128.682C129.591 116.363 130.326 117.137 130.326 118.094C130.326 119.051 129.591 119.825 128.682 119.825Z" fill="#00FFFF"/>
<path d="M96.5468 119.825H93.0772C92.1684 119.825 91.4333 119.051 91.4333 118.094C91.4333 117.137 92.1684 116.363 93.0772 116.363H96.5468C97.4557 116.363 98.1907 117.137 98.1907 118.094C98.1986 119.051 97.4557 119.825 96.5468 119.825Z" fill="#00FFFF"/>
<path d="M104.979 119.825H101.51C100.601 119.825 99.866 119.051 99.866 118.094C99.866 117.137 100.601 116.363 101.51 116.363H104.979C105.888 116.363 106.623 117.137 106.623 118.094C106.631 119.051 105.888 119.825 104.979 119.825Z" fill="#00FFFF"/>
<path d="M91.5754 132.585H75.982C75.0732 132.585 74.3381 131.811 74.3381 130.854C74.3381 129.897 75.0732 129.123 75.982 129.123H91.5754C92.4843 129.123 93.2193 129.897 93.2193 130.854C93.2193 131.811 92.4843 132.585 91.5754 132.585Z" fill="#C2FFC2"/>
<path d="M124.011 132.585H123.426C122.517 132.585 121.782 131.811 121.782 130.854C121.782 129.897 122.517 129.123 123.426 129.123H124.011C124.92 129.123 125.655 129.897 125.655 130.854C125.655 131.811 124.92 132.585 124.011 132.585Z" fill="#FE168D"/>
<path d="M114.061 75.153H105.62C104.712 75.153 103.977 74.3789 103.977 73.4217C103.977 72.4645 104.712 71.6904 105.62 71.6904H114.061C114.97 71.6904 115.705 72.4645 115.705 73.4217C115.705 74.3789 114.97 75.153 114.061 75.153Z" fill="#FFE068"/>
<path d="M119.451 87.9213H117.862C116.953 87.9213 116.218 87.1472 116.218 86.19C116.218 85.2328 116.953 84.4587 117.862 84.4587H119.451C120.36 84.4587 121.095 85.2328 121.095 86.19C121.095 87.1389 120.36 87.9213 119.451 87.9213Z" fill="#FFE068"/>
<path d="M126.452 87.9208H124.863C123.954 87.9208 123.219 87.1467 123.219 86.1895C123.219 85.2323 123.954 84.4583 124.863 84.4583H126.452C127.361 84.4583 128.096 85.2323 128.096 86.1895C128.096 87.1384 127.361 87.9208 126.452 87.9208Z" fill="#FFE068"/>
<path d="M133.456 87.9208H131.867C130.958 87.9208 130.223 87.1467 130.223 86.1895C130.223 85.2323 130.958 84.4583 131.867 84.4583H133.456C134.365 84.4583 135.1 85.2323 135.1 86.1895C135.1 87.1384 134.365 87.9208 133.456 87.9208Z" fill="#FFE068"/>
<path d="M111.762 107.065H103.977C103.068 107.065 102.333 106.291 102.333 105.334C102.333 104.377 103.068 103.603 103.977 103.603H111.762C112.67 103.603 113.405 104.377 113.405 105.334C113.405 106.283 112.67 107.065 111.762 107.065Z" fill="#FFE068"/>
<path d="M125.568 107.065H117.783C116.874 107.065 116.139 106.291 116.139 105.334C116.139 104.377 116.874 103.603 117.783 103.603H125.568C126.477 103.603 127.212 104.377 127.212 105.334C127.212 106.283 126.477 107.065 125.568 107.065Z" fill="#FFE068"/>
<path d="M118.866 132.585H110.212C109.303 132.585 108.568 131.811 108.568 130.854C108.568 129.897 109.303 129.123 110.212 129.123H118.866C119.775 129.123 120.51 129.897 120.51 130.854C120.51 131.811 119.775 132.585 118.866 132.585Z" fill="#FFE068"/>
<path d="M98.9889 132.585H97.013C96.1042 132.585 95.3691 131.811 95.3691 130.854C95.3691 129.897 96.1042 129.123 97.013 129.123H98.9889C99.8978 129.123 100.633 129.897 100.633 130.854C100.641 131.811 99.8978 132.585 98.9889 132.585Z" fill="#FFE068"/>
<path d="M105.557 132.585H103.581C102.672 132.585 101.937 131.811 101.937 130.854C101.937 129.897 102.672 129.123 103.581 129.123H105.557C106.466 129.123 107.201 129.897 107.201 130.854C107.209 131.811 106.466 132.585 105.557 132.585Z" fill="#FFE068"/>
<path d="M91.5754 138.969H75.982C75.0732 138.969 74.3381 138.195 74.3381 137.238C74.3381 136.281 75.0732 135.507 75.982 135.507H91.5754C92.4843 135.507 93.2193 136.281 93.2193 137.238C93.2193 138.195 92.4843 138.969 91.5754 138.969Z" fill="#00FFFF"/>
<path d="M133.454 138.969H117.861C116.952 138.969 116.217 138.195 116.217 137.238C116.217 136.28 116.952 135.506 117.861 135.506H133.454C134.363 135.506 135.098 136.28 135.098 137.238C135.098 138.195 134.363 138.969 133.454 138.969Z" fill="#00FFFF"/>
<path d="M141.588 138.969H138.743C137.834 138.969 137.099 138.195 137.099 137.238C137.099 136.281 137.834 135.507 138.743 135.507H141.588C142.497 135.507 143.232 136.281 143.232 137.238C143.232 138.195 142.497 138.969 141.588 138.969Z" fill="#00FFFF"/>
<path d="M102.047 138.969H97.013C96.1042 138.969 95.3691 138.195 95.3691 137.238C95.3691 136.281 96.1042 135.507 97.013 135.507H102.047C102.956 135.507 103.691 136.281 103.691 137.238C103.699 138.195 102.956 138.969 102.047 138.969Z" fill="#FE168D"/>
<path d="M112.425 138.969H107.39C106.481 138.969 105.746 138.195 105.746 137.238C105.746 136.281 106.481 135.507 107.39 135.507H112.425C113.334 135.507 114.069 136.281 114.069 137.238C114.069 138.195 113.334 138.969 112.425 138.969Z" fill="#FE168D"/>
<path opacity="0.2" d="M139.549 63.4421L67.4147 139.403V117.545L118.779 63.4421H139.549Z" fill="white"/>
<path opacity="0.2" d="M206.656 63.4421L121.173 153.478H81.9094L167.408 63.4421H206.656Z" fill="white"/>
<path d="M241.014 171.081C241.014 180.737 244.302 186.979 248.365 186.979V152.012C248.365 152.012 241.014 161.426 241.014 171.081Z" fill="#C2FFC2"/>
<path d="M248.365 152.012V186.979C252.427 186.979 255.715 180.745 255.715 171.081C255.715 161.426 248.365 152.012 248.365 152.012Z" fill="#80A880"/>
<path d="M255.146 170.706C248.665 177.532 246.8 184.399 249.669 187.42L273.15 162.691C273.15 162.691 261.635 163.881 255.146 170.706Z" fill="#C2FFC2"/>
<path d="M273.149 162.691L249.668 187.42C252.537 190.442 259.057 188.477 265.538 181.652C272.026 174.827 273.149 162.691 273.149 162.691Z" fill="#80A880"/>
<path d="M241.576 170.706C248.056 177.532 249.922 184.399 247.053 187.42L223.572 162.691C223.58 162.691 235.095 163.881 241.576 170.706Z" fill="#C2FFC2"/>
<path d="M223.579 162.691L247.06 187.42C244.191 190.442 237.671 188.477 231.19 181.652C224.701 174.827 223.579 162.691 223.579 162.691Z" fill="#80A880"/>
<path d="M248.364 184.981V215.129H260.322H261.737C262.851 215.129 263.76 214.172 263.76 212.998V184.981H248.364Z" fill="#8FB4C9"/>
<path d="M248.365 184.981H232.969V212.998C232.969 214.172 233.878 215.129 234.992 215.129H236.407H248.365V184.981Z" fill="#A4CDE7"/>
<path d="M260.322 215.129H248.364V218.5H260.322V215.129Z" fill="#528AA8"/>
<path d="M248.366 215.129H236.408V218.5H248.366V215.129Z" fill="#79A3BA"/>
</g>
<defs>
<clipPath id="clip0_416_5082">
<rect width="284" height="253.018" fill="white"/>
</clipPath>
</defs>
</svg>
