<svg width="24" height="24" viewBox="0 0 24 24" fill="none" xmlns="http://www.w3.org/2000/svg">
<path fill-rule="evenodd" clip-rule="evenodd" d="M9.45 12.075V20.775C9.45 20.925 9.525 21 9.675 21H13.125C13.275 21 13.35 20.925 13.35 20.775V11.925H15.9C16.05 11.925 16.125 11.85 16.125 11.7L16.35 9C16.35 8.85 16.275 8.775 16.125 8.775H13.35V6.9C13.35 6.45 13.725 6.075 14.25 6.075H16.2C16.425 6.075 16.5 6 16.5 5.85V3.225C16.5 3.075 16.425 3 16.275 3H12.975C11.025 3 9.45 4.425 9.45 6.225V8.775H7.725C7.575 8.775 7.5 8.85 7.5 9V11.7C7.5 11.85 7.575 11.925 7.725 11.925H9.45V12.075Z" fill="white"/>
</svg>
