<svg width="24" height="24" viewBox="0 0 24 24" fill="none" xmlns="http://www.w3.org/2000/svg">
<path d="M16.725 6.30005C16.125 6.30005 15.675 6.75005 15.675 7.35005C15.675 7.95005 16.125 8.40005 16.725 8.40005C17.325 8.40005 17.775 7.95005 17.775 7.35005C17.775 6.75005 17.325 6.30005 16.725 6.30005Z" fill="white"/>
<path d="M12 7.6499C9.52501 7.6499 7.57501 9.6749 7.57501 12.0749C7.57501 14.4749 9.60001 16.4999 12 16.4999C14.4 16.4999 16.425 14.4749 16.425 12.0749C16.425 9.6749 14.475 7.6499 12 7.6499ZM12 14.9249C10.425 14.9249 9.15001 13.6499 9.15001 12.0749C9.15001 10.4999 10.425 9.2249 12 9.2249C13.575 9.2249 14.85 10.4999 14.85 12.0749C14.85 13.6499 13.575 14.9249 12 14.9249Z" fill="white"/>
<path d="M15.6 3H8.475C5.4 3 3 5.4 3 8.4V15.525C3 18.525 5.4 20.925 8.4 20.925H15.525C18.525 20.925 20.925 18.525 20.925 15.525V8.4C21 5.4 18.6 3 15.6 3ZM19.275 15.6C19.275 17.625 17.625 19.35 15.525 19.35H8.4C6.375 19.35 4.65 17.7 4.65 15.6V8.475C4.65 6.45 6.3 4.725 8.4 4.725H15.525C17.55 4.725 19.275 6.375 19.275 8.475V15.6Z" fill="white"/>
</svg>
