<svg width="298" height="126" viewBox="0 0 298 126" fill="none" xmlns="http://www.w3.org/2000/svg">
<g clip-path="url(#clip0_194_9805)">
<path d="M27.45 104.31C27.45 107.54 21.31 110.16 13.73 110.16C6.15001 110.16 0.0100098 107.54 0.0100098 104.31C0.0100098 101.08 6.15001 98.46 13.73 98.46C21.31 98.46 27.45 101.07 27.45 104.31Z" fill="#978DEF"/>
<path d="M153.39 70.9C175.481 70.9 193.39 55.0285 193.39 35.45C193.39 15.8715 175.481 0 153.39 0C131.299 0 113.39 15.8715 113.39 35.45C113.39 55.0285 131.299 70.9 153.39 70.9Z" fill="white"/>
<path d="M215.47 46.5299C215.47 59.9899 204.56 70.8999 191.1 70.8999C177.64 70.8999 166.73 59.9899 166.73 46.5299C166.73 33.0699 177.64 22.1599 191.1 22.1599C204.56 22.1499 215.47 33.0699 215.47 46.5299Z" fill="white"/>
<path d="M193.39 108.02C214.377 108.02 231.39 93.4783 231.39 75.5401C231.39 57.6018 214.377 43.0601 193.39 43.0601C172.403 43.0601 155.39 57.6018 155.39 75.5401C155.39 93.4783 172.403 108.02 193.39 108.02Z" fill="white"/>
<path d="M260.73 89.4599C260.73 99.7099 250.6 108.02 238.1 108.02C225.6 108.02 215.47 99.7099 215.47 89.4599C215.47 79.2099 225.6 70.8999 238.1 70.8999C250.6 70.8999 260.73 79.2099 260.73 89.4599Z" fill="white"/>
<path d="M276.73 92.34C276.73 96.94 270.01 100.67 261.73 100.67C253.45 100.67 246.73 96.94 246.73 92.34C246.73 87.74 253.45 84.01 261.73 84.01C270.01 84 276.73 87.74 276.73 92.34Z" fill="white"/>
<path d="M146.06 57.56C146.06 69.22 132.78 78.68 116.39 78.68C100 78.68 86.72 69.23 86.72 57.56C86.72 45.9 100 36.45 116.39 36.45C132.78 36.44 146.06 45.89 146.06 57.56Z" fill="white"/>
<path d="M142.67 116.11C158.841 116.11 171.95 103.001 171.95 86.8301C171.95 70.6592 158.841 57.55 142.67 57.55C126.499 57.55 113.39 70.6592 113.39 86.8301C113.39 103.001 126.499 116.11 142.67 116.11Z" fill="white"/>
<path d="M135.39 89.4599C135.39 99.7099 120.77 108.02 102.72 108.02C84.68 108.02 70.05 99.7099 70.05 89.4599C70.05 79.2099 84.68 70.8999 102.72 70.8999C120.76 70.8999 135.39 79.2099 135.39 89.4599Z" fill="white"/>
<path d="M86.72 94.12C86.72 101.8 78.36 108.02 68.05 108.02C57.74 108.02 49.38 101.8 49.38 94.12C49.38 86.44 57.74 80.22 68.05 80.22C78.36 80.22 86.72 86.45 86.72 94.12Z" fill="white"/>
<path d="M276.73 92.34C276.73 96.94 270.01 100.67 261.73 100.67C259.92 100.67 258.19 100.48 256.59 100.16C252.49 104.91 245.74 108.02 238.1 108.02C230.11 108.02 223.09 104.62 219.06 99.49C214.56 103.01 209.07 105.62 202.98 106.97C199.92 107.66 196.7 108.02 193.39 108.02C183.97 108.02 175.35 105.08 168.71 100.22C163.85 109.66 154.02 116.11 142.67 116.11C133.48 116.11 125.28 111.87 119.91 105.24C114.92 107 109.03 108.02 102.73 108.02C94.69 108.02 87.34 106.37 81.65 103.63C78.24 106.33 73.42 108.02 68.06 108.02C62.9 108.02 58.25 106.47 54.87 103.95H54.86C51.48 101.43 49.39 97.96 49.39 94.12C49.39 90.95 50.82 88.02 53.23 85.69C56.64 82.37 62.01 80.23 68.06 80.23C70.05 80.23 71.96 80.46 73.75 80.89C77.92 76.35 85.3 72.91 94.18 71.54C89.55 67.82 86.73 62.92 86.73 57.55C86.73 46.61 98.43 37.6 113.42 36.54C113.42 36.45 113.41 36.36 113.41 36.27C113.4 36 113.39 35.73 113.39 35.45C113.39 15.87 131.3 0 153.39 0C170.18 0 184.55 9.17 190.48 22.17C190.69 22.16 190.89 22.15 191.1 22.15C204.56 22.15 215.47 33.06 215.47 46.53C215.47 47.37 215.43 48.21 215.35 49.04C223.93 54.24 229.87 62.41 231.13 71.8C233.33 71.22 235.67 70.9 238.1 70.9C248.32 70.9 256.95 76.45 259.76 84.08C260.4 84.04 261.06 84 261.73 84C270.01 84 276.73 87.73 276.73 92.34Z" fill="white"/>
<path d="M266.3 98.1599C265.47 98.1599 264.66 98.1899 263.86 98.2199C260.39 92.1699 249.73 87.7599 237.1 87.7599C227.41 87.7599 218.88 90.3599 213.86 94.2999C211.82 92.6899 209.71 91.3099 207.63 90.3099C207.76 89.3799 207.82 88.4199 207.82 87.4499C207.82 72.0999 192.05 59.6599 172.58 59.6599C172.28 59.6599 171.97 59.6699 171.68 59.6699C163.09 44.8599 142.33 34.3999 118.05 34.3999C115.94 34.3999 113.86 34.4799 111.8 34.6299C111.8 34.7299 111.81 34.8399 111.81 34.9399C90.15 36.1499 73.24 46.4299 73.24 58.8999C73.24 65.0199 77.32 70.6099 84.01 74.8499C71.17 76.4099 60.5 80.3399 54.47 85.5099C51.88 85.0199 49.12 84.7599 46.24 84.7599C37.49 84.7599 29.73 87.1999 24.8 90.9899C22.78 93.7799 21.66 96.8399 21.66 100.03C21.66 104.31 23.65 108.33 27.15 111.81H27.16C32.05 114.68 38.77 116.45 46.23 116.45C53.98 116.45 60.95 114.52 65.88 111.44C74.11 114.56 84.73 116.45 96.36 116.45C105.47 116.45 113.98 115.29 121.2 113.28C128.96 120.84 140.82 125.68 154.11 125.68C170.52 125.68 185.59 116.61 190.13 108.49C199.25 113.75 213.52 116.44 226.46 116.1C229.74 116.81 233.33 117.21 237.1 117.21C246.54 117.21 254.86 114.74 259.93 110.97C261.92 111.23 264.06 111.38 266.3 111.38C276.54 111.38 284.83 108.42 284.83 104.77C284.83 101.12 276.53 98.1599 266.3 98.1599Z" fill="#978DEF"/>
<path d="M270.7 88.41C266.11 88.41 261.79 88.81 258 89.52C256.61 87.6 253.56 85.91 249.43 84.65C249.47 84.43 249.5 84.21 249.5 83.98C249.5 78.71 237.35 74.43 222.36 74.43C222.29 74.43 222.22 74.43 222.14 74.43C222.28 74.04 222.36 73.64 222.36 73.24C222.36 71.12 220.39 69.16 217.06 67.57C217.83 66.69 218.24 65.75 218.24 64.78C218.24 59.51 206.09 55.23 191.1 55.23C187.31 55.23 183.71 55.5 180.44 56C180.5 55.75 180.54 55.49 180.54 55.23C180.54 50.7 171.56 46.91 159.53 45.93C160.25 44.32 160.66 42.54 160.66 40.66C160.66 33.52 154.87 27.72 147.72 27.72C143.2 27.72 139.22 30.05 136.91 33.57C134 28.22 127.5 24.49 119.93 24.49C109.65 24.49 101.31 31.37 101.31 39.86C101.31 41.68 101.71 43.42 102.42 45.04C92.9 46.52 86.26 49.87 86.26 53.77C86.26 56.01 88.46 58.07 92.14 59.7C86.59 61.45 83.09 63.99 83.09 66.82C83.09 67.76 83.49 68.67 84.21 69.54C78.59 70.2 73.78 71.49 70.47 73.17C68.25 71.84 65.42 71.04 62.33 71.04C55.63 71.04 50.12 74.8 49.46 79.62C47.9 79.13 46.19 78.86 44.39 78.86C37.25 78.86 31.45 83.13 31.45 88.41C31.45 93.69 37.24 97.96 44.39 97.96C50.13 97.96 54.99 95.2 56.68 91.38C58.87 94.36 63.14 96.39 68.06 96.39C75.04 96.39 80.7 92.31 80.97 87.21C84.54 87.82 88.55 88.16 92.78 88.16C102.37 88.16 110.8 86.41 115.62 83.76C115.82 84 116.06 84.24 116.31 84.47C115.8 85.2 115.52 85.97 115.52 86.76C115.52 92.03 127.67 96.31 142.66 96.31C157.65 96.31 169.8 92.04 169.8 86.76C169.8 85.6 169.21 84.48 168.12 83.45C172.22 84.32 177.02 84.82 182.15 84.82C186.89 84.82 191.35 84.39 195.23 83.64C195.22 83.76 195.21 83.87 195.21 83.99C195.21 86.88 198.86 89.47 204.62 91.22C204.58 91.44 204.55 91.66 204.55 91.89C204.55 97.16 216.7 101.44 231.69 101.44C236.28 101.44 240.6 101.04 244.39 100.33C247.37 104.46 258.02 107.52 270.69 107.52C285.68 107.52 297.83 103.25 297.83 97.97C297.84 92.69 285.68 88.41 270.7 88.41Z" fill="#D7D2FF"/>
<path d="M151.66 70.8999C151.66 70.8999 165.37 71.9399 164.64 80.2299C164.64 80.2299 163.41 73.0299 151.66 70.8999Z" fill="white"/>
<path d="M150.12 46.5299C148.89 46.1599 164.32 46.0999 169.62 58.0599C174.91 70.02 163.16 73.2699 163.16 73.2699C163.16 73.2699 181.58 56.0299 150.12 46.5299Z" fill="white"/>
<path d="M92.13 59.7199C92.13 59.7199 115.16 57.6499 120.16 66.8399C125.16 76.0199 120.16 78.6799 120.16 78.6799C120.16 78.6799 126.16 78.0299 130.91 81.2799C135.66 84.5299 132.22 88.4299 132.22 88.4299C132.22 88.4299 134.66 79.6999 119.16 80.2499C119.16 80.2299 128.35 59.9099 92.13 59.7199Z" fill="white"/>
</g>
<defs>
<clipPath id="clip0_194_9805">
<rect width="297.83" height="125.69" fill="white"/>
</clipPath>
</defs>
</svg>
