<svg width="153" height="141" viewBox="0 0 153 141" fill="none" xmlns="http://www.w3.org/2000/svg">
<path d="M127.913 52.7923C123.643 46.5465 113.685 45.3395 108.055 50.3816C107.939 45.3103 104.598 40.4564 99.9144 38.5648C95.2307 36.67 89.4786 37.8445 85.8988 41.4233C86.7058 38.5843 83.7393 35.8167 80.8084 35.6642C77.8742 35.5117 75.166 37.0951 72.6482 38.62C70.1337 40.1417 67.4028 41.7088 64.4719 41.5077C61.2989 41.2935 58.6617 39.0678 55.6984 37.9159C48.4421 35.0964 39.2586 40.0995 37.6511 47.7502C29.6201 44.4927 19.3166 49.8268 17.2959 58.2919L134.886 59.6708C134.095 56.3127 131.27 53.5256 127.913 52.7923Z" fill="#F5F5F5"/>
<path d="M4.70676 83.3951C4.70676 83.3951 1.95658 83.7877 3.51889 89.8421C5.0812 95.8964 6.40142 99.0145 6.40142 99.0145C6.40142 99.0145 6.61446 100.387 5.51374 100.348C4.41302 100.309 2.16639 99.4168 1.40783 100.614C0.623447 101.853 1.31745 103.343 3.04761 104.9C4.77778 106.458 8.44469 110.004 8.77716 110.328C9.10318 110.646 9.3485 111.315 8.5964 111.409C7.84107 111.503 2.48273 110.886 2.34393 113.459C2.20513 116.032 7.73455 119.572 8.33171 119.971C8.92887 120.37 9.02249 120.682 8.89014 121.032C8.7578 121.379 6.97599 121.003 5.44595 120.889C3.91592 120.776 2.11797 120.915 2.16316 122.408C2.20835 123.9 5.11671 127.661 13.5803 130.435L17.5861 131.463L20.5365 128.527C26.4694 121.853 27.1053 117.132 26.3984 115.821C25.6914 114.511 24.0678 115.296 22.8025 116.165C21.5339 117.035 20.1814 118.261 19.8941 118.028C19.6068 117.794 19.5326 117.476 19.8489 116.827C20.1653 116.182 23.1801 110.328 21.776 108.174C20.3718 106.02 16.0432 109.254 15.346 109.556C14.6487 109.858 14.5261 109.151 14.6487 108.713C14.7746 108.268 16.1723 103.346 16.8921 101.127C17.612 98.9074 17.4667 97.2689 16.1691 96.594C14.9167 95.9419 13.4189 97.8464 12.486 98.4369C11.5532 99.0275 11.0528 97.7329 11.0528 97.7329C11.0528 97.7329 10.6364 94.3715 8.96438 88.3463C7.29232 82.3211 4.65834 83.4113 4.65834 83.4113" fill="#EBEBEB"/>
<path d="M17.5858 132.463C16.3753 128.034 14.3547 120.127 12.5858 113.346C10.8169 106.568 9.20937 100.433 8.02149 95.9972C7.42433 93.7844 6.94337 91.9901 6.60767 90.7475C6.44304 90.131 6.31393 89.6508 6.22355 89.3199C6.18158 89.1609 6.1493 89.0376 6.12671 88.9467C6.10734 88.8624 6.09766 88.8202 6.09766 88.8202C6.09766 88.8202 6.1138 88.8624 6.13962 88.9435C6.16544 89.0311 6.20095 89.1544 6.24937 89.3134C6.34298 89.6443 6.48178 90.1213 6.65609 90.7345C7.00793 91.9707 7.50503 93.7584 8.10865 95.9745C9.31912 100.403 10.9395 106.536 12.7117 113.313C14.4806 120.095 16.4883 128.005 17.6762 132.44" fill="#E0E0E0"/>
<path d="M4.5034 101.987C4.50663 101.98 4.60346 102.029 4.76809 102.129C4.93271 102.227 5.17158 102.376 5.45886 102.561C6.03666 102.934 6.82427 103.469 7.67967 104.073C8.52215 104.673 9.28394 105.215 9.86819 105.63C10.1329 105.815 10.3556 105.971 10.5331 106.097C10.6913 106.208 10.7752 106.273 10.772 106.279C10.7688 106.286 10.6719 106.237 10.5073 106.14C10.3427 106.042 10.1071 105.893 9.81655 105.705C9.24198 105.325 8.46405 104.78 7.60543 104.177C6.75971 103.583 5.9947 103.044 5.40721 102.635C5.14253 102.45 4.9198 102.295 4.73904 102.171C4.58087 102.058 4.49694 101.993 4.5034 101.987Z" fill="#E0E0E0"/>
<path d="M11.1041 106.081C11.0751 106.062 12.0983 104.384 13.3927 102.334C14.6871 100.283 15.762 98.6383 15.7911 98.6578C15.8201 98.6772 14.7969 100.355 13.4992 102.405C12.2081 104.453 11.1332 106.101 11.1041 106.081Z" fill="#E0E0E0"/>
<path d="M13.3539 116.616C13.3474 116.61 13.4249 116.532 13.5734 116.402C13.7412 116.256 13.9478 116.071 14.1964 115.851C14.7225 115.383 15.4424 114.738 16.2138 113.995C16.9853 113.255 17.6632 112.557 18.1473 112.051C18.3765 111.814 18.5702 111.613 18.7219 111.451C18.8575 111.311 18.9382 111.234 18.9446 111.24C18.9511 111.246 18.8865 111.334 18.7606 111.483C18.6348 111.636 18.4508 111.85 18.2151 112.113C17.7471 112.635 17.0789 113.346 16.3042 114.089C15.5295 114.835 14.7968 115.471 14.2545 115.919C13.9833 116.143 13.7606 116.321 13.6057 116.438C13.4475 116.561 13.3571 116.623 13.3539 116.616Z" fill="#E0E0E0"/>
<path d="M6.5725 114.232C6.57573 114.222 6.67257 114.248 6.84687 114.296C7.047 114.358 7.29233 114.433 7.57961 114.524C8.19614 114.718 9.04831 114.997 9.98441 115.315C10.9205 115.63 11.7662 115.925 12.3763 116.143C12.6604 116.246 12.8992 116.334 13.0961 116.409C13.264 116.474 13.3576 116.512 13.3544 116.522C13.3511 116.532 13.2543 116.506 13.08 116.457C12.8799 116.396 12.6345 116.321 12.3472 116.23C11.7307 116.036 10.8785 115.756 9.94245 115.438C9.00635 115.124 8.16064 114.829 7.55056 114.611C7.2665 114.507 7.02764 114.42 6.83073 114.345C6.65966 114.28 6.56927 114.241 6.5725 114.232Z" fill="#E0E0E0"/>
<path d="M7.38269 123.787C7.38592 123.777 7.51181 123.81 7.73454 123.874C7.97986 123.949 8.29619 124.043 8.67709 124.16C9.47115 124.407 10.5622 124.757 11.7662 125.15C12.9702 125.542 14.058 125.906 14.8456 126.175C15.2201 126.305 15.5332 126.415 15.7753 126.499C15.9948 126.577 16.1142 126.626 16.111 126.636C16.1078 126.645 15.9819 126.613 15.7591 126.548C15.5138 126.473 15.1975 126.379 14.8166 126.262C14.0225 126.016 12.9315 125.665 11.7275 125.273C10.5235 124.88 9.43565 124.517 8.64804 124.248C8.2736 124.118 7.96049 124.007 7.7184 123.923C7.4989 123.842 7.37947 123.793 7.38269 123.787Z" fill="#E0E0E0"/>
<path d="M15.9173 126.506C15.9109 126.499 16.0077 126.399 16.1885 126.227C16.3854 126.039 16.6436 125.795 16.9535 125.5C17.5991 124.887 18.4867 124.033 19.439 123.063C20.3944 122.096 21.2337 121.198 21.8406 120.542C22.1311 120.227 22.3732 119.968 22.5571 119.767C22.7282 119.585 22.8251 119.488 22.8315 119.491C22.838 119.497 22.7541 119.608 22.5959 119.799C22.4377 119.991 22.2053 120.266 21.9083 120.604C21.3209 121.275 20.4881 122.184 19.5326 123.154C18.5771 124.124 17.6798 124.968 17.018 125.565C16.6856 125.863 16.4177 126.1 16.224 126.262C16.0303 126.428 15.9238 126.512 15.9173 126.506Z" fill="#E0E0E0"/>
<path d="M131.984 132.794C125.292 129.072 122.781 120.789 122 113.138C121.871 111.863 121.561 110.539 121.974 109.345C122.387 108.151 123.598 107.207 124.731 107.597C125.67 107.918 126.199 108.966 126.813 109.806C127.629 110.925 128.737 111.789 129.97 112.269C130.78 112.583 131.745 112.713 132.429 112.168C133.369 111.422 133.285 109.89 133.11 108.625C132.781 106.27 132.452 103.914 132.123 101.562C131.945 100.299 131.771 99.0081 131.974 97.7557C132.181 96.5033 132.839 95.2769 133.914 94.787C134.989 94.2938 136.464 94.7967 136.868 96.0004C137.036 96.5033 137.01 97.0484 137.113 97.5708C137.216 98.0899 137.523 98.6415 138.004 98.7226C138.495 98.807 138.917 98.3819 139.218 97.9634C140.26 96.5196 140.864 94.7578 141.416 93.0187C141.968 91.2763 142.491 89.4983 143.404 87.9539C144.318 86.4095 145.696 85.0922 147.368 84.758C149.04 84.4205 150.983 85.2901 151.648 87.0097C152.313 88.7326 151.59 90.6761 150.728 92.2659C149.453 94.6247 147.859 96.7726 146.009 98.6253C145.677 98.9595 145.315 99.3196 145.238 99.8095C145.096 100.689 145.951 101.422 146.761 101.591C147.681 101.782 148.617 101.555 149.55 101.542C150.483 101.529 151.535 101.828 152.007 102.713C152.662 103.94 151.836 105.432 150.967 106.458C149.224 108.508 147.149 110.225 144.863 111.513C144.043 111.973 143.172 112.399 142.562 113.148C141.952 113.897 141.684 115.091 142.223 115.925C142.765 116.759 143.885 116.892 144.766 116.587C145.648 116.282 146.39 115.64 147.207 115.169C148.737 114.29 150.841 114.121 152.078 115.478C152.891 116.37 153.133 117.736 152.949 118.962C152.762 120.185 152.2 121.298 151.584 122.333C149.431 125.961 146.464 129.05 142.901 130.967C139.331 132.881 135.906 133.741 131.984 132.794Z" fill="#F5F5F5"/>
<path d="M133.172 127.765C133.701 123.777 134.618 119.462 135.722 114.984C136.003 113.868 136.277 112.762 136.551 111.675C136.826 110.588 137.1 109.511 137.426 108.479C138.072 106.406 138.843 104.469 139.628 102.655C140.412 100.841 141.216 99.1509 141.981 97.5741C142.749 96.0004 143.491 94.5501 144.218 93.2588C145.667 90.6696 147.068 88.7358 148.081 87.451C148.585 86.8053 148.995 86.3219 149.273 85.9974C149.408 85.8417 149.515 85.7216 149.592 85.6308C149.666 85.5497 149.705 85.5075 149.708 85.5107C149.712 85.514 149.679 85.5594 149.611 85.647C149.537 85.7411 149.434 85.8676 149.308 86.0299C149.04 86.3641 148.643 86.8605 148.149 87.5126C147.158 88.8137 145.783 90.754 144.353 93.3496C143.633 94.6442 142.904 96.0945 142.142 97.6714C141.387 99.2483 140.586 100.942 139.808 102.752C139.03 104.563 138.269 106.497 137.629 108.56C137.307 109.589 137.036 110.656 136.761 111.746C136.49 112.833 136.212 113.94 135.932 115.056C134.828 119.527 133.904 123.832 133.369 127.804" fill="#E0E0E0"/>
<path d="M137.487 108.46C137.475 108.463 137.407 108.278 137.3 107.937C137.19 107.597 137.048 107.097 136.884 106.48C136.548 105.244 136.141 103.521 135.696 101.62C135.25 99.7187 134.821 98.0056 134.469 96.7791C134.295 96.1659 134.15 95.6695 134.043 95.3288C133.94 94.9881 133.892 94.7935 133.904 94.7902C133.917 94.7837 133.995 94.9654 134.124 95.2996C134.253 95.6306 134.421 96.1205 134.615 96.7305C135.005 97.9504 135.46 99.6636 135.906 101.565C136.338 103.443 136.732 105.14 137.029 106.438C137.168 107.022 137.284 107.515 137.381 107.911C137.465 108.262 137.504 108.456 137.487 108.46Z" fill="#E0E0E0"/>
<path d="M152.207 103.327C152.21 103.343 151.997 103.398 151.613 103.489C151.229 103.58 150.673 103.71 149.992 103.891C148.627 104.245 146.761 104.803 144.728 105.517C142.694 106.234 140.883 106.967 139.586 107.538C138.934 107.817 138.414 108.06 138.056 108.226C137.694 108.391 137.494 108.479 137.487 108.463C137.481 108.447 137.671 108.333 138.02 108.142C138.369 107.95 138.882 107.684 139.527 107.382C140.812 106.769 142.623 106.01 144.66 105.29C146.7 104.576 148.582 104.04 149.957 103.729C150.644 103.567 151.206 103.463 151.597 103.401C151.987 103.336 152.207 103.31 152.207 103.327Z" fill="#E0E0E0"/>
<path d="M133.32 127.44C133.314 127.444 133.269 127.382 133.191 127.255C133.101 127.106 132.988 126.924 132.856 126.704C132.565 126.224 132.158 125.516 131.671 124.634C130.693 122.872 129.411 120.396 128.03 117.642C126.648 114.887 125.389 112.402 124.447 110.62C123.985 109.754 123.604 109.044 123.324 108.515C123.201 108.284 123.104 108.096 123.02 107.94C122.952 107.807 122.92 107.736 122.927 107.733C122.933 107.729 122.978 107.791 123.056 107.918C123.146 108.067 123.259 108.249 123.395 108.469C123.685 108.949 124.089 109.657 124.579 110.539C125.557 112.301 126.839 114.777 128.22 117.531C129.602 120.286 130.861 122.771 131.803 124.553C132.265 125.419 132.646 126.129 132.927 126.658C133.049 126.889 133.146 127.077 133.23 127.233C133.295 127.362 133.327 127.434 133.32 127.44Z" fill="#E0E0E0"/>
<path d="M152.487 117.691C152.49 117.697 152.426 117.739 152.3 117.807C152.151 117.885 151.967 117.983 151.745 118.099C151.231 118.362 150.537 118.716 149.692 119.147C147.958 120.033 145.579 121.286 142.952 122.674C140.324 124.063 137.932 125.293 136.18 126.139C135.305 126.565 134.595 126.899 134.098 127.119C133.868 127.22 133.678 127.301 133.523 127.369C133.391 127.424 133.32 127.45 133.317 127.441C133.313 127.434 133.378 127.392 133.504 127.324C133.652 127.246 133.836 127.149 134.059 127.032C134.572 126.769 135.266 126.415 136.112 125.984C137.845 125.098 140.224 123.846 142.852 122.457C145.479 121.068 147.871 119.839 149.624 118.992C150.499 118.567 151.209 118.232 151.706 118.012C151.935 117.911 152.126 117.827 152.281 117.762C152.413 117.71 152.484 117.684 152.487 117.691Z" fill="#E0E0E0"/>
<path d="M152.183 140.321C152.183 140.367 118.113 140.406 76.0949 140.406C34.061 140.406 0 140.367 0 140.321C0 140.276 34.0642 140.237 76.0949 140.237C118.113 140.237 152.183 140.273 152.183 140.321Z" fill="#263238"/>
<path d="M132.37 138.524H18.5605C15.9653 138.524 13.8574 136.408 13.8574 133.796V61.3481C13.8574 58.7395 15.962 56.6208 18.5605 56.6208H132.37C134.966 56.6208 137.073 58.7362 137.073 61.3481V133.796C137.073 136.408 134.969 138.524 132.37 138.524Z" fill="#455A64"/>
<path d="M136.912 140.399H14.668C11.5627 140.399 9.04492 137.868 9.04492 134.747V133.235H142.539V134.747C142.535 137.868 140.018 140.399 136.912 140.399Z" fill="#455A64"/>
<path d="M133.419 59.8781H17.166V129.043H133.419V59.8781Z" fill="#263238"/>
<path d="M63.3191 132.466L64.975 135.114H88.287L89.8235 132.466H63.3191Z" fill="#263238"/>
<path d="M130.208 128.819H20.6171C20.0328 128.819 19.5615 128.345 19.5615 127.758V63.2784C19.5615 62.6912 20.0328 62.2175 20.6171 62.2175H130.208C130.792 62.2175 131.264 62.6912 131.264 63.2784V127.755C131.267 128.345 130.792 128.819 130.208 128.819Z" fill="#EBEBEB"/>
<path d="M131.148 128.916H19.4424L19.5618 67.1946H131.148V128.916Z" fill="#FAFAFA"/>
<path d="M28.7222 64.7902C28.7222 65.2866 28.322 65.6857 27.8313 65.6857C27.3375 65.6857 26.9404 65.2834 26.9404 64.7902C26.9404 64.2938 27.3407 63.8947 27.8313 63.8947C28.322 63.8947 28.7222 64.2938 28.7222 64.7902Z" fill="#263238"/>
<path d="M23.3159 64.7904C23.3159 65.2868 22.9156 65.6859 22.425 65.6859C21.9311 65.6859 21.5341 65.2836 21.5341 64.7904C21.5341 64.294 21.9343 63.8949 22.425 63.8949C22.9156 63.8949 23.3159 64.294 23.3159 64.7904Z" fill="#263238"/>
<path d="M25.9107 64.7902C25.9107 65.2866 25.5105 65.6857 25.0198 65.6857C24.5259 65.6857 24.1289 65.2834 24.1289 64.7902C24.1289 64.2938 24.5292 63.8947 25.0198 63.8947C25.5105 63.8947 25.9107 64.2938 25.9107 64.7902Z" fill="#263238"/>
<path d="M136.015 132.466C136.015 132.511 108.668 132.547 74.9393 132.547C41.2011 132.547 13.8574 132.511 13.8574 132.466C13.8574 132.421 41.1979 132.385 74.9393 132.385C108.668 132.385 136.015 132.421 136.015 132.466Z" fill="#263238"/>
<path d="M119.378 93.7683C116.234 96.4094 114.787 100.929 115.814 104.917C112.915 104.336 109.755 105.293 107.66 107.389C105.565 109.485 104.59 112.652 105.149 115.569C101.947 113.356 97.0598 114.186 94.7615 117.33C94.7131 115.254 94.6323 113.064 93.5445 111.295C92.4567 109.527 89.9938 108.437 88.254 109.56C89.5645 108.064 89.7614 105.692 88.7188 103.998C87.6762 102.305 85.4748 101.425 83.5574 101.938C83.5089 99.443 81.937 81.8023 80.6393 66.9162H69.6483C68.3733 81.5427 66.882 98.3431 66.8335 100.773C64.9162 100.261 62.7179 101.14 61.6721 102.834C60.6263 104.527 60.8264 106.899 62.1369 108.395C60.3971 107.272 57.9309 108.362 56.8464 110.131C55.7586 111.899 55.6779 114.086 55.6294 116.166C53.3279 113.018 48.4409 112.191 45.242 114.404C45.8004 111.487 44.8288 108.317 42.7307 106.224C40.6325 104.131 37.4756 103.174 34.577 103.752C35.6035 99.7643 34.1606 95.2446 31.0134 92.6035C27.8694 89.9624 23.1857 89.3394 19.4639 91.0623V128.884H130.924V92.2304C127.205 90.5043 122.522 91.1305 119.378 93.7683Z" fill="#E8505B"/>
<path d="M119.378 93.7683C116.234 96.4094 114.787 100.929 115.814 104.917C112.915 104.336 109.755 105.293 107.66 107.389C105.565 109.485 104.59 112.652 105.149 115.569C101.947 113.356 97.0598 114.186 94.7615 117.33C94.7131 115.254 94.6323 113.064 93.5445 111.295C92.4567 109.527 89.9938 108.437 88.254 109.56C89.5645 108.064 89.7614 105.692 88.7188 103.998C87.6762 102.305 85.4748 101.425 83.5574 101.938C83.5089 99.443 81.937 81.8023 80.6393 66.9162H69.6483C68.3733 81.5427 66.882 98.3431 66.8335 100.773C64.9162 100.261 62.7179 101.14 61.6721 102.834C60.6263 104.527 60.8264 106.899 62.1369 108.395C60.3971 107.272 57.9309 108.362 56.8464 110.131C55.7586 111.899 55.6779 114.086 55.6294 116.166C53.3279 113.018 48.4409 112.191 45.242 114.404C45.8004 111.487 44.8288 108.317 42.7307 106.224C40.6325 104.131 37.4756 103.174 34.577 103.752C35.6035 99.7643 34.1606 95.2446 31.0134 92.6035C27.8694 89.9624 23.1857 89.3394 19.4639 91.0623V128.884H130.924V92.2304C127.205 90.5043 122.522 91.1305 119.378 93.7683Z" fill="#BDBDE0"/>
<path d="M118.71 121.334C114.723 118.641 109.613 117.694 104.933 118.777C100.252 119.861 96.0723 122.96 93.6578 127.135C92.6862 125.802 91.3886 124.731 89.9199 123.988C90.0232 123.709 90.1136 123.424 90.1781 123.132C90.8366 120.237 89.5971 116.996 87.1762 115.293C85.4589 114.082 83.2252 113.703 81.1851 114.157L77.8862 66.9128H73.5511V110.338C70.8719 110.75 69.003 113.94 69.9488 116.496C68.083 116.769 66.3916 118.034 65.5943 119.751C65.3361 120.309 65.2973 121.49 65.5201 122.827C62.2663 122.872 59.0416 124.491 57.1146 127.139C54.7001 122.966 50.5199 119.864 45.8395 118.781C41.159 117.697 36.0492 118.644 32.0627 121.337C30.9297 115.821 24.7934 111.902 19.3447 113.213V128.959L69.6324 128.894C69.9649 128.988 70.3167 129.043 70.6944 129.043L82.9896 128.897L131.431 128.962V113.216C125.979 111.899 119.843 115.818 118.71 121.334Z" fill="#E8505B"/>
<path d="M118.71 121.334C114.723 118.641 109.613 117.694 104.933 118.777C100.252 119.861 96.0723 122.96 93.6578 127.135C92.6862 125.802 91.3886 124.731 89.9199 123.988C90.0232 123.709 90.1136 123.424 90.1781 123.132C90.8366 120.237 89.5971 116.996 87.1762 115.293C85.4589 114.082 83.2252 113.703 81.1851 114.157L77.8862 66.9128H73.5511V110.338C70.8719 110.75 69.003 113.94 69.9488 116.496C68.083 116.769 66.3916 118.034 65.5943 119.751C65.3361 120.309 65.2973 121.49 65.5201 122.827C62.2663 122.872 59.0416 124.491 57.1146 127.139C54.7001 122.966 50.5199 119.864 45.8395 118.781C41.159 117.697 36.0492 118.644 32.0627 121.337C30.9297 115.821 24.7934 111.902 19.3447 113.213V128.959L69.6324 128.894C69.9649 128.988 70.3167 129.043 70.6944 129.043L82.9896 128.897L131.431 128.962V113.216C125.979 111.899 119.843 115.818 118.71 121.334Z" fill="#A19DEA"/>
<path d="M71.0082 52.1237C68.5259 53.308 67.4058 56.7213 68.697 59.158C69.207 60.1183 70.0366 60.9652 70.1463 62.0489C70.3142 63.7101 68.7518 65.0079 68.2677 66.6075C67.7028 68.4796 68.9391 70.7021 70.8242 71.1986C71.6731 71.4224 72.6899 71.3835 73.258 72.0551C73.9843 72.9117 73.4614 74.3361 74.0811 75.2738C74.6428 76.1206 75.9501 76.1595 76.7926 75.5982C77.6351 75.0369 78.0999 74.0603 78.4324 73.0999C78.7648 72.1395 79.0134 71.1304 79.588 70.2933C80.2206 69.3719 81.1858 68.7457 81.954 67.9378C83.8004 65.991 84.3653 63.0677 83.9489 60.4071C83.5325 57.7466 82.251 55.3066 80.8017 53.0419" fill="#E8505B"/>
<path d="M71.0082 52.1237C68.5259 53.308 67.4058 56.7213 68.697 59.158C69.207 60.1183 70.0366 60.9652 70.1463 62.0489C70.3142 63.7101 68.7518 65.0079 68.2677 66.6075C67.7028 68.4796 68.9391 70.7021 70.8242 71.1986C71.6731 71.4224 72.6899 71.3835 73.258 72.0551C73.9843 72.9117 73.4614 74.3361 74.0811 75.2738C74.6428 76.1206 75.9501 76.1595 76.7926 75.5982C77.6351 75.0369 78.0999 74.0603 78.4324 73.0999C78.7648 72.1395 79.0134 71.1304 79.588 70.2933C80.2206 69.3719 81.1858 68.7457 81.954 67.9378C83.8004 65.991 84.3653 63.0677 83.9489 60.4071C83.5325 57.7466 82.251 55.3066 80.8017 53.0419" fill="#BDBDE0"/>
<path d="M73.1867 53.5285C71.0853 54.4597 70.1653 57.3895 71.3532 59.3623C72.0795 60.5692 73.4869 61.6562 73.1447 63.0254C72.9123 63.9533 71.9246 64.5211 71.6405 65.4328C71.2628 66.6463 72.4055 67.9344 73.6644 68.0869C74.9233 68.2394 76.1402 67.5645 77.0892 66.7242C80.3882 63.8138 81.1887 58.0936 79.1325 54.1936" fill="#A19DEA"/>
<path d="M84.0199 34.9538C84.0199 34.9538 94.8141 42.1308 93.6327 54.5413L83.7101 50.0638L84.0199 34.9538Z" fill="#978DEF"/>
<path d="M66.0851 49.8203L68.5351 53.9052H81.2596L83.7096 50.0539L66.0851 49.8203Z" fill="#263238"/>
<path d="M74.2389 8.6045C69.2098 8.94194 65.3363 13.1956 65.4396 18.2604L66.0852 50.0539H83.7096L84.2971 18.2409C84.4036 12.6862 79.7522 8.23462 74.2389 8.6045Z" fill="#E8505B"/>
<path d="M74.2389 8.6045C69.2098 8.94194 65.3363 13.1956 65.4396 18.2604L66.0852 50.0539H83.7096L84.2971 18.2409C84.4036 12.6862 79.7522 8.23462 74.2389 8.6045Z" fill="#ADADB2" stroke="#B5B4C1" stroke-miterlimit="10"/>
<path d="M65.7753 34.9537C65.7753 34.9537 54.9811 42.1307 56.1593 54.5412L66.0819 50.0637L65.7753 34.9537Z" fill="#978DEF"/>
<path d="M65.5364 17.2058C69.2614 13.9256 80.9626 13.997 84.1066 16.6672C83.2996 4.86349 74.3325 0.450867 74.3325 0.450867C65.1587 6.8297 65.5364 17.2058 65.5364 17.2058Z" fill="#978DEF"/>
<path d="M74.3321 0.450867C74.3321 0.450867 74.3676 0.483312 74.4386 0.544959C74.5097 0.613095 74.6097 0.707188 74.7421 0.830482C74.8744 0.957021 75.039 1.11276 75.2327 1.2977C75.3296 1.39179 75.4328 1.48913 75.5458 1.5962C75.6491 1.70976 75.7621 1.82981 75.8783 1.95959C76.1107 2.21591 76.3754 2.50144 76.6562 2.81616C76.9209 3.14711 77.2082 3.50726 77.5148 3.89336C77.6601 4.09452 77.8054 4.30542 77.9571 4.52281C78.1056 4.74344 78.2734 4.95758 78.4154 5.19768C78.7027 5.67788 79.0255 6.18078 79.2967 6.73885C79.8712 7.84525 80.3909 9.11712 80.7524 10.5415C80.9397 11.2521 81.0785 11.9983 81.1753 12.7738C81.227 13.1599 81.2592 13.5589 81.3109 13.9515C81.3593 14.3474 81.3496 14.7692 81.3528 15.1747C81.3593 18.4712 81.3109 22.0922 81.2689 25.8916C81.1785 33.4969 81.072 40.3786 80.9913 45.3623C80.9461 47.8508 80.9138 49.8657 80.888 51.2609C80.8719 51.9552 80.8622 52.4938 80.8557 52.8637C80.8493 53.0454 80.8461 53.1849 80.8428 53.2823C80.8396 53.3764 80.8364 53.425 80.8364 53.425C80.8364 53.425 80.8331 53.3764 80.8331 53.2823C80.8331 53.1849 80.8331 53.0454 80.8364 52.8637C80.8396 52.4938 80.8461 51.9552 80.8525 51.2576C80.8687 49.8625 80.8945 47.8476 80.9268 45.3558C80.9913 40.3721 81.0785 33.4871 81.1785 25.8851C81.2205 22.0857 81.2721 18.4615 81.2689 15.1683C81.2657 14.7529 81.2754 14.3571 81.2302 13.958C81.1753 13.5557 81.1463 13.1631 81.0946 12.777C80.9978 12.0048 80.8622 11.2585 80.6782 10.5512C80.3199 9.13335 79.8067 7.86472 79.2386 6.76156C78.9674 6.20025 78.6511 5.70059 78.3638 5.22039C78.2218 4.97705 78.0539 4.76291 77.9087 4.54552C77.7569 4.32813 77.6181 4.11723 77.4729 3.91607C77.1662 3.52997 76.8822 3.16982 76.6207 2.83563C76.3431 2.51766 76.0817 2.23538 75.8492 1.97582C75.733 1.84603 75.6233 1.72598 75.52 1.61242C75.4102 1.50535 75.307 1.40477 75.2101 1.31068C75.0197 1.12249 74.8583 0.966754 74.7292 0.836971C74.6 0.710432 74.5032 0.613095 74.4354 0.544959C74.3644 0.486557 74.3321 0.450867 74.3321 0.450867Z" fill="#263238"/>
<path d="M75.2328 19.7397C77.5666 20.2588 79.0062 22.7214 78.4542 25.2457C77.899 27.7668 75.5588 29.3923 73.2282 28.8764C70.8945 28.3573 69.4548 25.8946 70.0068 23.3704C70.5588 20.8493 72.899 19.2238 75.2328 19.7397Z" fill="#FAFAFA"/>
<path d="M75.2331 19.7398C75.2331 19.7398 75.2072 19.7398 75.1588 19.7333C75.1072 19.7269 75.0362 19.7171 74.949 19.7041C74.9006 19.6977 74.8522 19.6879 74.7941 19.6814C74.736 19.6782 74.6714 19.6749 74.6036 19.6717C74.5358 19.6685 74.4616 19.6652 74.3841 19.662C74.3067 19.662 74.2227 19.6717 74.1324 19.6749C73.9548 19.6782 73.7611 19.7171 73.5481 19.7528C73.3383 19.808 73.1091 19.8599 72.8767 19.9605C72.4086 20.1454 71.9051 20.4439 71.4467 20.8787C70.9884 21.3167 70.5623 21.8877 70.2944 22.5886C70.2298 22.7638 70.1588 22.939 70.1168 23.1304C70.0942 23.2245 70.0652 23.3186 70.0426 23.4127C70.0264 23.51 70.0103 23.6074 69.9942 23.7047L69.9683 23.854L69.9554 24.0032C69.949 24.1038 69.9393 24.2044 69.9328 24.3082C69.9361 24.412 69.9361 24.5126 69.9393 24.6164L69.9425 24.7722L69.9587 24.9279C70.0394 25.7618 70.346 26.6248 70.9141 27.3419C71.4629 28.0687 72.2989 28.6073 73.2382 28.8279C74.1808 29.0258 75.1653 28.8928 75.969 28.4645C76.7825 28.0557 77.4248 27.4003 77.8477 26.6767L77.9284 26.5437L77.9962 26.4042C78.0414 26.3101 78.0866 26.2192 78.1317 26.1252C78.1672 26.0311 78.2028 25.9337 78.2383 25.8396L78.2899 25.6969L78.3286 25.5509C78.3545 25.4535 78.3803 25.3594 78.4061 25.2653C78.4287 25.1712 78.4416 25.0739 78.4578 24.9766C78.4965 24.7884 78.5062 24.597 78.5223 24.4088C78.5707 23.6593 78.4255 22.9617 78.1931 22.3712C77.9574 21.7807 77.625 21.2972 77.2796 20.9306C77.1117 20.7424 76.9245 20.5964 76.7566 20.4601C76.5791 20.3368 76.4177 20.22 76.2595 20.1422C76.1821 20.1 76.1078 20.0578 76.0368 20.0254C75.9626 19.9962 75.8948 19.967 75.8335 19.941C75.7689 19.915 75.7108 19.8891 75.6592 19.8696C75.6043 19.8534 75.5526 19.8372 75.5074 19.8242C75.4203 19.7982 75.3525 19.7788 75.3041 19.7625C75.2557 19.7528 75.2331 19.7431 75.2331 19.7398C75.2331 19.7366 75.2589 19.7431 75.3041 19.7561C75.3557 19.769 75.4235 19.7885 75.5107 19.808C75.5559 19.8209 75.6075 19.8339 75.6624 19.8469C75.7173 19.8696 75.7754 19.8923 75.8399 19.915C75.9045 19.941 75.9723 19.967 76.0465 19.9962C76.1207 20.0286 76.1918 20.0708 76.2725 20.113C76.4371 20.1876 76.5985 20.3044 76.7792 20.4277C76.9503 20.564 77.1408 20.71 77.3118 20.8981C77.6669 21.2648 78.0059 21.7515 78.2479 22.3485C78.4868 22.9455 78.6385 23.656 78.5933 24.4153C78.5804 24.6034 78.5707 24.7981 78.5288 24.9928C78.5126 25.0901 78.4997 25.1875 78.4771 25.2848C78.4513 25.3821 78.4255 25.4795 78.3997 25.5768L78.3609 25.7228L78.3093 25.8656C78.2738 25.9629 78.2383 26.0603 78.2028 26.1576C78.1576 26.2517 78.1124 26.3458 78.0672 26.4399L78.0026 26.5859L77.9187 26.7222C77.4926 27.4587 76.8373 28.1271 76.0078 28.5489C75.1879 28.9869 74.1775 29.1264 73.2156 28.922C72.2569 28.6981 71.4015 28.1433 70.8399 27.4003C70.2621 26.667 69.949 25.7845 69.8715 24.9376L69.8554 24.7787L69.8521 24.6197C69.8521 24.5158 69.8489 24.4088 69.8489 24.3049C69.8554 24.2011 69.865 24.0973 69.8715 23.9967L69.8844 23.8442L69.9102 23.695C69.9264 23.5944 69.9457 23.497 69.9619 23.3965C69.9813 23.2991 70.0135 23.205 70.0361 23.1077C70.0813 22.9163 70.1523 22.7378 70.2201 22.5594C70.4977 21.8488 70.9335 21.2713 71.3983 20.83C71.8696 20.3887 72.3796 20.0902 72.8573 19.9086C73.093 19.8112 73.3254 19.7593 73.5384 19.7074C73.7547 19.6749 73.9516 19.6392 74.1324 19.6392C74.2227 19.636 74.3067 19.6295 74.3874 19.6295C74.4648 19.636 74.5391 19.6393 74.6101 19.6425C74.6779 19.6457 74.7424 19.6522 74.8005 19.6555C74.8586 19.6652 74.9103 19.6749 74.9555 19.6847C75.0426 19.7009 75.1136 19.7139 75.1653 19.7236C75.2072 19.7333 75.2331 19.7398 75.2331 19.7398Z" fill="#263238"/>
<path d="M69.7717 23.6108C69.7717 23.6659 68.7775 23.64 67.58 23.8574C66.3824 24.0683 65.4592 24.4382 65.4399 24.3862C65.4302 24.3635 65.6497 24.2435 66.0273 24.0975C66.405 23.9515 66.9408 23.786 67.5477 23.6789C68.1545 23.5719 68.7162 23.5394 69.1197 23.5459C69.5232 23.5491 69.7717 23.5848 69.7717 23.6108Z" fill="#263238"/>
<path d="M84.0195 23.6042C84.013 23.6301 83.7128 23.5912 83.2286 23.5295C82.7444 23.4679 82.073 23.39 81.3306 23.3381C80.5882 23.2862 79.9136 23.2667 79.4229 23.2602C78.9323 23.2505 78.6288 23.2473 78.6288 23.2213C78.6288 23.1986 78.929 23.1564 79.4197 23.1305C79.9103 23.1045 80.5914 23.1045 81.3403 23.1564C82.0892 23.2116 82.7638 23.3089 83.248 23.3998C83.7322 23.4971 84.0259 23.5782 84.0195 23.6042Z" fill="#263238"/>
<path d="M84.1198 41.7964C84.1198 41.8029 84.0553 41.8029 83.9326 41.7932C83.7906 41.7834 83.6131 41.7704 83.4 41.7542C82.9126 41.7153 82.2477 41.6666 81.4407 41.605C79.788 41.4882 77.4994 41.3746 74.9719 41.3779C72.4412 41.3811 70.1559 41.4979 68.5032 41.6212C67.6962 41.6861 67.0345 41.738 66.5471 41.7769C66.334 41.7932 66.1565 41.8061 66.0145 41.8159C65.8918 41.8224 65.8272 41.8224 65.8272 41.8191C65.8272 41.8159 65.8886 41.7997 66.0112 41.7802C66.1533 41.7607 66.3276 41.7348 66.5406 41.7056C67.0022 41.6439 67.6672 41.5693 68.4935 41.4947C70.1462 41.3422 72.438 41.2026 74.9752 41.1994C77.5091 41.1994 79.8009 41.3292 81.4536 41.4817C82.2799 41.5563 82.9481 41.6277 83.4097 41.6893C83.6227 41.7185 83.7971 41.7412 83.9391 41.764C84.0553 41.7802 84.1198 41.7899 84.1198 41.7964Z" fill="#263238"/>
<path d="M70.2395 28.166C70.2395 28.192 70.1297 28.205 70.0555 28.3315C70.02 28.3899 69.9942 28.4775 70.02 28.5521C70.0426 28.6268 70.12 28.6819 70.2201 28.6917C70.3202 28.6982 70.4073 28.656 70.4396 28.5846C70.4751 28.5165 70.4654 28.4256 70.4396 28.3607C70.3847 28.2244 70.275 28.1952 70.2814 28.1693C70.275 28.1466 70.4299 28.1206 70.5494 28.2991C70.601 28.3802 70.643 28.51 70.5881 28.6527C70.5332 28.7987 70.3621 28.8863 70.204 28.8701C70.0458 28.8604 69.8876 28.7468 69.8586 28.5943C69.8263 28.4451 69.8876 28.325 69.9522 28.2504C70.1007 28.0979 70.2492 28.1466 70.2395 28.166Z" fill="#263238"/>
<path d="M74.0803 30.2493C74.0803 30.2752 73.9705 30.2882 73.8963 30.4147C73.8608 30.4731 73.835 30.5607 73.8608 30.6354C73.8834 30.71 73.9609 30.7651 74.0609 30.7749C74.161 30.7814 74.2481 30.7392 74.2804 30.6678C74.3159 30.5997 74.3062 30.5088 74.2804 30.4439C74.2255 30.3077 74.1158 30.2785 74.1223 30.2525C74.1158 30.2298 74.2707 30.2038 74.3902 30.3823C74.4418 30.4634 74.4838 30.5932 74.4289 30.7359C74.374 30.8819 74.203 30.9696 74.0448 30.9533C73.8866 30.9436 73.7285 30.83 73.6994 30.6775C73.6671 30.5283 73.7285 30.4082 73.793 30.3336C73.9415 30.1779 74.0932 30.2265 74.0803 30.2493Z" fill="#263238"/>
<path d="M78.3186 28.4744C78.3186 28.5003 78.2088 28.5133 78.1346 28.6398C78.0991 28.6982 78.0733 28.7858 78.0991 28.8605C78.1217 28.9351 78.1991 28.9902 78.2992 29C78.3993 29.0065 78.4864 28.9643 78.5187 28.8929C78.5542 28.8248 78.5445 28.7339 78.5187 28.669C78.4638 28.5328 78.3541 28.5036 78.3605 28.4776C78.3541 28.4549 78.509 28.4289 78.6285 28.6074C78.6801 28.6885 78.7253 28.8183 78.6672 28.961C78.6123 29.107 78.4412 29.1946 78.2831 29.1784C78.1249 29.1687 77.9667 29.0551 77.9377 28.9026C77.9054 28.7534 77.9667 28.6333 78.0313 28.5587C78.1798 28.403 78.3315 28.4516 78.3186 28.4744Z" fill="#263238"/>
<path d="M79.6968 25.2882C79.6968 25.3141 79.5871 25.3238 79.5128 25.4504C79.4773 25.5088 79.4515 25.5964 79.4773 25.671C79.4999 25.7456 79.5774 25.8008 79.6774 25.8105C79.7775 25.817 79.8647 25.7748 79.8969 25.7035C79.9324 25.6353 79.9228 25.5445 79.8969 25.4796C79.8421 25.3433 79.7323 25.3141 79.7388 25.2882C79.7323 25.2654 79.8873 25.2427 80.0067 25.4179C80.0583 25.4991 80.1035 25.6288 80.0454 25.7716C79.9905 25.9176 79.8195 26.0052 79.6613 25.989C79.5031 25.9793 79.345 25.8657 79.3127 25.7132C79.2804 25.5639 79.3417 25.4439 79.4063 25.3693C79.5548 25.22 79.7065 25.2687 79.6968 25.2882Z" fill="#263238"/>
<path d="M68.8381 24.9801C68.8381 25.006 68.7284 25.0157 68.6541 25.1423C68.6186 25.2007 68.5928 25.2883 68.6186 25.3629C68.6412 25.4375 68.7187 25.4927 68.8187 25.5024C68.9188 25.5089 69.006 25.4667 69.0382 25.3954C69.0737 25.3272 69.0641 25.2364 69.0382 25.1715C68.9834 25.0352 68.8736 25.006 68.8801 24.9801C68.8736 24.9573 69.0286 24.9346 69.148 25.1098C69.1996 25.1909 69.2416 25.3207 69.1867 25.4635C69.1318 25.6095 68.9608 25.6971 68.8026 25.6809C68.6444 25.6711 68.4863 25.5576 68.4572 25.4051C68.4249 25.2558 68.4863 25.1358 68.5508 25.0612C68.6993 24.9119 68.8478 24.9606 68.8381 24.9801Z" fill="#263238"/>
<path d="M78.312 20.6126C78.312 20.5866 78.4218 20.5769 78.496 20.4504C78.5315 20.392 78.5574 20.3044 78.5315 20.2297C78.5089 20.1551 78.4315 20.1 78.3314 20.0902C78.2313 20.0837 78.1442 20.1259 78.1119 20.1973C78.0764 20.2654 78.0861 20.3563 78.1119 20.4212C78.1668 20.5574 78.2765 20.5866 78.2701 20.6126C78.2765 20.6353 78.1216 20.658 78.0021 20.4828C77.9505 20.4017 77.9085 20.2719 77.9634 20.1292C78.0183 19.9832 78.1894 19.8956 78.3475 19.9118C78.5057 19.9215 78.6639 20.0351 78.6929 20.1876C78.7252 20.3368 78.6639 20.4569 78.5993 20.5315C78.4508 20.684 78.2991 20.6353 78.312 20.6126Z" fill="#263238"/>
<path d="M74.0747 18.7273C74.0747 18.7014 74.1845 18.6917 74.2587 18.5651C74.2942 18.5067 74.32 18.4191 74.2942 18.3445C74.2716 18.2699 74.1942 18.2147 74.0941 18.205C73.994 18.1985 73.9069 18.2407 73.8746 18.312C73.8391 18.3802 73.8488 18.471 73.8746 18.5359C73.9295 18.6722 74.0392 18.7014 74.0328 18.7273C74.0392 18.7501 73.8843 18.7728 73.7648 18.5976C73.7132 18.5164 73.6712 18.3867 73.7261 18.2439C73.781 18.0979 73.9521 18.0103 74.1102 18.0265C74.2684 18.0363 74.4266 18.1498 74.4556 18.3023C74.4879 18.4516 74.4266 18.5716 74.362 18.6462C74.2135 18.7955 74.0618 18.7468 74.0747 18.7273Z" fill="#263238"/>
<path d="M69.8844 20.6127C69.8844 20.5867 69.9942 20.577 70.0684 20.4504C70.1039 20.392 70.1297 20.3044 70.1039 20.2298C70.0813 20.1552 70.0039 20.1 69.9038 20.0903C69.8037 20.0838 69.7166 20.126 69.6843 20.1974C69.6488 20.2655 69.6585 20.3563 69.6843 20.4212C69.7392 20.5575 69.8489 20.5867 69.8425 20.6127C69.8489 20.6354 69.694 20.6581 69.5745 20.4829C69.5229 20.4018 69.4809 20.272 69.5358 20.1292C69.5907 19.9832 69.7618 19.8956 69.9199 19.9118C70.0781 19.9216 70.2363 20.0351 70.2653 20.1876C70.2976 20.3369 70.2363 20.4569 70.1717 20.5315C70.0232 20.684 69.8715 20.6354 69.8844 20.6127Z" fill="#263238"/>
<path d="M73.5384 36.2612L73.9161 55.2452C73.9258 55.7968 74.3777 56.2316 74.9264 56.2251C75.4655 56.2154 75.898 55.7806 75.9045 55.2388C75.9432 51.819 76.0659 40.3007 76.0885 36.2353C76.0917 35.4501 75.4009 34.8531 74.6294 34.9699C73.9903 35.064 73.5255 35.6156 73.5384 36.2612Z" fill="#E8505B"/>
<path d="M73.5384 36.2612L73.9161 55.2452C73.9258 55.7968 74.3777 56.2316 74.9264 56.2251C75.4655 56.2154 75.898 55.7806 75.9045 55.2388C75.9432 51.819 76.0659 40.3007 76.0885 36.2353C76.0917 35.4501 75.4009 34.8531 74.6294 34.9699C73.9903 35.064 73.5255 35.6156 73.5384 36.2612Z" fill="#978DEF"/>
<path d="M74.1224 1.53117C74.1805 1.59606 73.5511 2.20604 72.6376 3.27675C72.1792 3.80886 71.666 4.47075 71.1301 5.22674C70.604 5.98921 70.0585 6.85227 69.5517 7.79319C69.0513 8.74061 68.6349 9.6718 68.2928 10.5349C67.9603 11.4012 67.6956 12.1961 67.5084 12.8742C67.1243 14.2272 66.9629 15.0935 66.8757 15.0805C66.8144 15.074 66.8402 14.185 67.1372 12.7801C67.2824 12.0793 67.5149 11.2552 67.828 10.3597C68.1508 9.46739 68.5639 8.507 69.0772 7.53687C69.5969 6.57323 70.1682 5.6972 70.7299 4.93472C71.3012 4.17874 71.8564 3.52982 72.36 3.02043C73.3574 1.99839 74.0804 1.4825 74.1224 1.53117Z" fill="white"/>
<path d="M65.3621 36.842C65.4137 36.9231 64.5196 37.5071 63.2769 38.6654C63.1219 38.8114 62.9605 38.9672 62.7959 39.1262C62.6281 39.2884 62.4731 39.4701 62.2988 39.6518C61.947 40.0087 61.6177 40.4272 61.2594 40.8588C60.5719 41.7478 59.8811 42.7731 59.2743 43.9152C58.6771 45.067 58.2252 46.2188 57.8798 47.2895C57.7281 47.8314 57.5667 48.3408 57.4731 48.8339C57.4214 49.0805 57.3601 49.3141 57.3214 49.5412C57.2826 49.7716 57.2471 49.989 57.2148 50.2031C56.9631 51.8903 56.9857 52.961 56.892 52.9643C56.8533 52.9643 56.8178 52.7015 56.7855 52.2148C56.7791 52.0915 56.7694 51.9552 56.7629 51.8092C56.7597 51.66 56.7662 51.501 56.7694 51.329C56.7823 50.9851 56.7791 50.5892 56.8372 50.1545C56.8598 49.9371 56.8856 49.71 56.9114 49.4731C56.9405 49.2362 56.9921 48.9962 57.0373 48.7431C57.1148 48.2337 57.2633 47.7048 57.4053 47.1467C57.7313 46.0403 58.1832 44.8463 58.7965 43.6621C59.4227 42.4843 60.149 41.4363 60.8753 40.544C61.253 40.1093 61.6048 39.6907 61.9792 39.3371C62.1632 39.1586 62.3311 38.9769 62.5086 38.8212C62.6894 38.6654 62.8605 38.5194 63.0251 38.3767C63.3479 38.0847 63.6739 37.864 63.9515 37.6596C64.0903 37.559 64.2194 37.4617 64.3421 37.3838C64.468 37.3092 64.5809 37.2378 64.6875 37.1762C65.1039 36.9296 65.3427 36.8128 65.3621 36.842Z" fill="white"/>
<path d="M51.4724 98.742C50.617 98.2488 50.1166 97.1943 50.278 96.2145C50.4394 95.2346 51.2464 94.3975 52.2148 94.2061C53.0992 94.0309 54.2032 94.2839 54.7616 93.5701C55.2684 92.9245 54.8843 92.0647 55.107 91.0231C55.3233 90.0108 56.2174 89.495 57.1955 89.5112C58.1735 89.5274 59.0806 90.1633 59.5712 91.0167C60.0618 91.87 60.3685 93.184 60.2555 94.1606C59.9941 96.4026 58.803 97.5545 57.3213 98.5051C55.8397 99.4558 53.0347 99.6732 51.4724 98.742Z" fill="#E8505B"/>
<g opacity="0.8">
<path d="M51.4724 98.742C50.617 98.2488 50.1166 97.1943 50.278 96.2145C50.4394 95.2346 51.2464 94.3975 52.2148 94.2061C53.0992 94.0309 54.2032 94.2839 54.7616 93.5701C55.2684 92.9245 54.8843 92.0647 55.107 91.0231C55.3233 90.0108 56.2174 89.495 57.1955 89.5112C58.1735 89.5274 59.0806 90.1633 59.5712 91.0167C60.0618 91.87 60.3685 93.184 60.2555 94.1606C59.9941 96.4026 58.803 97.5545 57.3213 98.5051C55.8397 99.4558 53.0347 99.6732 51.4724 98.742Z" fill="#928BC3"/>
</g>
<path d="M87.686 80.7705C88.4026 79.3981 90.0068 78.5545 91.5369 78.7459C93.0669 78.9373 94.4162 80.1573 94.7713 81.6628C95.0973 83.0385 94.7713 84.7873 95.9107 85.6212C96.9469 86.3771 98.2542 85.725 99.8843 86.0105C101.469 86.2895 102.321 87.6587 102.36 89.1967C102.396 90.7314 101.459 92.1947 100.165 93.0123C98.8707 93.8299 96.85 94.3945 95.3232 94.2712C91.8242 93.9954 89.9713 92.1947 88.4058 89.9299C86.8403 87.6685 86.3335 83.2753 87.686 80.7705Z" fill="#E8505B"/>
<g opacity="0.8">
<path d="M87.686 80.7705C88.4026 79.3981 90.0068 78.5545 91.5369 78.7459C93.0669 78.9373 94.4162 80.1573 94.7713 81.6628C95.0973 83.0385 94.7713 84.7873 95.9107 85.6212C96.9469 86.3771 98.2542 85.725 99.8843 86.0105C101.469 86.2895 102.321 87.6587 102.36 89.1967C102.396 90.7314 101.459 92.1947 100.165 93.0123C98.8707 93.8299 96.85 94.3945 95.3232 94.2712C91.8242 93.9954 89.9713 92.1947 88.4058 89.9299C86.8403 87.6685 86.3335 83.2753 87.686 80.7705Z" fill="#978DEF"/>
</g>
<path d="M61.6016 76.1695C61.0044 76.4323 60.291 77.3148 60.3265 78.3012C60.3749 79.5958 61.7113 80.6794 62.9799 80.4556C64.2484 80.2317 65.1329 78.7522 64.7391 77.5192C64.3388 76.2863 62.7604 75.6082 61.6016 76.1695Z" fill="#E8505B"/>
<g opacity="0.8">
<path d="M61.6016 76.1695C61.0044 76.4323 60.291 77.3148 60.3265 78.3012C60.3749 79.5958 61.7113 80.6794 62.9799 80.4556C64.2484 80.2317 65.1329 78.7522 64.7391 77.5192C64.3388 76.2863 62.7604 75.6082 61.6016 76.1695Z" fill="#978DEF"/>
</g>
<path d="M95.9208 103.378C95.6206 103.508 95.2655 103.95 95.2817 104.443C95.3043 105.088 95.9724 105.633 96.6083 105.52C97.241 105.406 97.6865 104.667 97.4863 104.053C97.2894 103.437 96.4986 103.099 95.9208 103.378Z" fill="#E8505B"/>
<g opacity="0.8">
<path d="M95.9208 103.378C95.6206 103.508 95.2655 103.95 95.2817 104.443C95.3043 105.088 95.9724 105.633 96.6083 105.52C97.241 105.406 97.6865 104.667 97.4863 104.053C97.2894 103.437 96.4986 103.099 95.9208 103.378Z" fill="white"/>
</g>
<path d="M86.9314 108.209H66.87C63.3515 108.209 60.498 105.341 60.498 101.805V100.906C60.498 97.3694 63.3515 94.5012 66.87 94.5012H86.9314C90.4499 94.5012 93.3034 97.3694 93.3034 100.906V101.805C93.3034 105.341 90.4499 108.209 86.9314 108.209Z" fill="#978DEF"/>
<path d="M70.3045 102.262L70.5272 101.766C70.7661 101.941 71.1211 102.061 71.4601 102.061C71.8474 102.061 72.0056 101.931 72.0056 101.756C72.0056 101.224 70.3593 101.591 70.3593 100.533C70.3593 100.049 70.7467 99.647 71.5537 99.647C71.9087 99.647 72.2735 99.7314 72.535 99.9001L72.3316 100.4C72.0701 100.251 71.799 100.176 71.5472 100.176C71.1599 100.176 71.0082 100.322 71.0082 100.5C71.0082 101.026 72.6544 100.663 72.6544 101.707C72.6544 102.184 72.2638 102.59 71.4536 102.59C71.0082 102.59 70.553 102.457 70.3045 102.262Z" fill="white"/>
<path d="M73.649 100.231H72.742V99.6959H75.2113V100.231H74.3043V102.538H73.649V100.231Z" fill="white"/>
<path d="M77.2836 101.931H75.9698L75.7181 102.541H75.0467L76.3088 99.6959H76.9544L78.2197 102.541H77.5322L77.2836 101.931ZM77.077 101.432L76.6283 100.342L76.1797 101.432H77.077Z" fill="white"/>
<path d="M80.3179 102.541L79.7723 101.75H79.7401H79.1687V102.541H78.5135V99.6959H79.7401C80.4954 99.6959 80.9699 100.092 80.9699 100.728C80.9699 101.156 80.7569 101.467 80.3889 101.626L81.0248 102.541H80.3179ZM79.7046 100.231H79.172V101.224H79.7046C80.1048 101.224 80.3082 101.036 80.3082 100.728C80.3082 100.416 80.1048 100.231 79.7046 100.231Z" fill="white"/>
<path d="M82.0318 100.231H81.1248V99.6959H83.5909V100.231H82.6839V102.538H82.0286V100.231H82.0318Z" fill="white"/>
<path d="M126.506 133.962L130.321 135.305L130.279 138.994C128.452 139.513 128.197 140.441 128.197 140.441L132.016 140.354L135.337 133.566L132.71 131.837L127.797 129.676" fill="#978DEF"/>
<g opacity="0.6">
<path d="M135.337 133.563L132.016 140.351L128.197 140.438L128.614 139.854L131.716 139.611L134.776 133.196L135.337 133.563Z" fill="white"/>
</g>
<path d="M130.266 137.304C130.295 137.343 130.512 137.213 130.809 137.213C131.106 137.207 131.325 137.333 131.351 137.294C131.386 137.265 131.167 137.038 130.805 137.044C130.447 137.048 130.231 137.275 130.266 137.304Z" fill="#263238"/>
<path d="M130.309 136.389C130.347 136.415 130.512 136.185 130.815 136.12C131.119 136.052 131.364 136.188 131.39 136.146C131.403 136.13 131.358 136.065 131.248 136.009C131.141 135.954 130.967 135.912 130.78 135.954C130.593 135.997 130.451 136.11 130.38 136.204C130.302 136.301 130.289 136.379 130.309 136.389Z" fill="#263238"/>
<path d="M130.257 135.214C130.299 135.234 130.424 135.01 130.689 134.913C130.951 134.812 131.193 134.896 131.212 134.854C131.222 134.835 131.173 134.783 131.067 134.744C130.963 134.705 130.796 134.692 130.631 134.757C130.466 134.822 130.35 134.942 130.299 135.039C130.237 135.137 130.237 135.208 130.257 135.214Z" fill="#263238"/>
<path d="M129.975 135.214C130.024 135.201 129.992 134.961 130.108 134.702C130.214 134.439 130.408 134.293 130.385 134.251C130.372 134.205 130.088 134.316 129.953 134.637C129.814 134.955 129.933 135.234 129.975 135.214Z" fill="#263238"/>
<path d="M129.524 134.78C129.547 134.78 129.579 134.585 129.615 134.264C129.631 134.079 129.647 133.894 129.666 133.703C129.669 133.595 129.698 133.492 129.666 133.346C129.647 133.274 129.605 133.2 129.531 133.154C129.456 133.102 129.337 133.112 129.272 133.164C129.14 133.268 129.101 133.391 129.056 133.505C129.014 133.621 128.995 133.738 128.988 133.852C128.975 134.079 129.024 134.277 129.088 134.433C129.224 134.744 129.418 134.858 129.424 134.845C129.447 134.825 129.295 134.686 129.201 134.39C129.156 134.244 129.124 134.063 129.143 133.865C129.153 133.767 129.176 133.664 129.211 133.563C129.247 133.466 129.305 133.352 129.369 133.307C129.401 133.287 129.421 133.287 129.45 133.3C129.479 133.316 129.502 133.349 129.511 133.388C129.534 133.469 129.518 133.589 129.514 133.693C129.508 133.884 129.505 134.072 129.498 134.257C129.492 134.582 129.502 134.78 129.524 134.78Z" fill="#263238"/>
<path d="M129.463 134.949C129.479 134.939 129.366 134.77 129.072 134.673C128.788 134.585 128.291 134.601 127.991 135.062C127.975 135.104 127.978 135.166 128.007 135.211C128.036 135.257 128.075 135.279 128.107 135.292C128.175 135.322 128.233 135.322 128.285 135.328C128.391 135.338 128.498 135.338 128.595 135.328C128.792 135.309 128.963 135.26 129.101 135.198C129.376 135.078 129.502 134.939 129.489 134.923C129.473 134.9 129.324 135 129.059 135.085C128.927 135.127 128.766 135.163 128.585 135.172C128.495 135.176 128.398 135.176 128.301 135.163C128.249 135.156 128.201 135.153 128.172 135.137C128.139 135.117 128.149 135.124 128.149 135.111C128.152 135.091 128.188 135.052 128.223 135.02C128.259 134.987 128.294 134.955 128.336 134.929C128.414 134.877 128.498 134.835 128.582 134.809C128.75 134.754 128.911 134.76 129.043 134.783C129.308 134.845 129.447 134.971 129.463 134.949Z" fill="#263238"/>
<g opacity="0.6">
<path d="M132.287 133.514C132.293 133.764 132.5 133.965 132.749 133.959C133 133.952 133.197 133.745 133.191 133.495C133.184 133.245 132.978 133.044 132.729 133.05C132.481 133.054 132.284 133.264 132.287 133.514Z" fill="white"/>
</g>
<path d="M106.928 132.418L106.98 137.44C106.98 137.44 101.919 139.179 101.838 140.11L111.531 140.36L111.77 132.528L106.928 132.418Z" fill="#978DEF"/>
<g opacity="0.6">
<path d="M109.988 137.096C110.175 137.151 110.298 137.369 110.25 137.557C110.201 137.745 109.985 137.875 109.798 137.823C109.61 137.771 109.452 137.515 109.523 137.333C109.591 137.151 109.856 137.012 110.024 137.109" fill="white"/>
</g>
<g opacity="0.6">
<path d="M111.534 140.36L111.528 139.568L102.235 139.624C102.235 139.624 101.799 139.802 101.841 140.107L111.534 140.36Z" fill="white"/>
</g>
<path d="M106.826 137.388C106.826 137.437 107.061 137.463 107.29 137.622C107.523 137.774 107.639 137.985 107.684 137.966C107.729 137.959 107.665 137.671 107.384 137.482C107.103 137.294 106.816 137.346 106.826 137.388Z" fill="#263238"/>
<path d="M105.799 137.784C105.786 137.83 105.989 137.917 106.144 138.122C106.305 138.323 106.341 138.54 106.389 138.54C106.435 138.55 106.473 138.271 106.276 138.018C106.08 137.768 105.802 137.739 105.799 137.784Z" fill="#263238"/>
<path d="M105.188 138.995C105.23 139.008 105.304 138.771 105.188 138.505C105.075 138.239 104.856 138.132 104.833 138.17C104.804 138.209 104.946 138.352 105.036 138.57C105.133 138.787 105.143 138.988 105.188 138.995Z" fill="#263238"/>
<path d="M106.941 136.243C106.961 136.288 107.18 136.227 107.445 136.253C107.713 136.272 107.919 136.369 107.945 136.327C107.974 136.295 107.774 136.113 107.461 136.087C107.145 136.058 106.919 136.204 106.941 136.243Z" fill="#263238"/>
<g opacity="0.3">
<path d="M106.941 133.414L106.948 134.309L111.715 134.387L111.741 133.582L106.941 133.414Z" fill="black"/>
</g>
<path d="M106.947 135.227C106.947 135.247 107.131 135.283 107.435 135.237C107.583 135.214 107.761 135.172 107.948 135.094C108.042 135.056 108.135 135.01 108.232 134.952C108.277 134.922 108.332 134.897 108.381 134.841C108.435 134.793 108.468 134.666 108.41 134.588C108.361 134.514 108.274 134.478 108.206 134.475C108.135 134.471 108.077 134.484 108.022 134.494C107.913 134.517 107.812 134.549 107.719 134.592C107.532 134.673 107.38 134.776 107.264 134.877C107.035 135.081 106.954 135.257 106.967 135.266C106.989 135.283 107.102 135.137 107.335 134.968C107.451 134.884 107.599 134.799 107.774 134.734C107.861 134.702 107.954 134.676 108.055 134.656C108.158 134.63 108.245 134.634 108.271 134.679C108.281 134.695 108.281 134.705 108.258 134.734C108.235 134.76 108.193 134.789 108.148 134.815C108.061 134.871 107.974 134.916 107.887 134.955C107.716 135.036 107.551 135.088 107.412 135.124C107.131 135.195 106.947 135.202 106.947 135.227Z" fill="#263238"/>
<path d="M107.009 135.299C107.025 135.305 107.125 135.14 107.148 134.832C107.161 134.679 107.148 134.494 107.096 134.296C107.067 134.199 107.032 134.095 106.98 133.998C106.925 133.9 106.861 133.771 106.677 133.745C106.58 133.738 106.499 133.813 106.47 133.874C106.438 133.939 106.428 133.998 106.415 134.053C106.396 134.166 106.393 134.277 106.406 134.381C106.431 134.588 106.512 134.763 106.599 134.89C106.783 135.146 106.977 135.208 106.983 135.192C106.999 135.169 106.838 135.072 106.699 134.825C106.631 134.705 106.57 134.543 106.557 134.361C106.551 134.27 106.554 134.176 106.573 134.079C106.59 133.975 106.631 133.894 106.67 133.904C106.719 133.904 106.799 133.985 106.835 134.069C106.883 134.157 106.919 134.248 106.948 134.338C107.003 134.517 107.025 134.686 107.028 134.828C107.038 135.114 106.983 135.289 107.009 135.299Z" fill="#263238"/>
<path d="M129.465 129.857L118.303 125.685L130.04 124.03L130.631 118.281L108.684 120.208L105.582 124.692L106.399 130.318L127.78 135.782L129.465 129.857Z" fill="#263238"/>
<path d="M105.795 133.881L104.727 113.343C104.785 111.341 105.869 109.514 107.593 108.511C109.016 107.681 110.727 107.506 112.29 108.031L126.528 112.804L134.343 114.825C134.343 114.825 135.673 118.125 134.891 120.692C134.126 123.203 131.389 124.871 128.981 124.153C125.989 123.261 112.257 117.327 112.257 117.327V134.049L105.795 133.881Z" fill="#263238"/>
<path d="M128.774 124.205C128.774 124.209 128.745 124.199 128.69 124.176C128.629 124.154 128.548 124.121 128.445 124.082C128.225 123.995 127.909 123.868 127.512 123.706C126.695 123.372 125.527 122.891 124.087 122.301C121.195 121.1 117.209 119.449 112.806 117.622C112.609 117.541 112.412 117.46 112.231 117.382L112.321 117.32C112.315 121.967 112.305 126.146 112.302 129.17C112.292 130.672 112.286 131.889 112.283 132.739C112.276 133.154 112.273 133.478 112.27 133.706C112.267 133.809 112.263 133.894 112.263 133.955C112.26 134.011 112.26 134.04 112.257 134.04C112.254 134.04 112.254 134.011 112.25 133.955C112.247 133.891 112.247 133.809 112.244 133.706C112.241 133.475 112.238 133.151 112.231 132.739C112.225 131.889 112.218 130.672 112.212 129.17C112.205 126.146 112.199 121.967 112.192 117.32V117.22L112.283 117.259C112.464 117.333 112.66 117.415 112.857 117.499C117.254 119.339 121.234 121.003 124.123 122.213C125.556 122.82 126.718 123.313 127.531 123.657C127.928 123.829 128.235 123.962 128.455 124.056C128.555 124.102 128.632 124.137 128.693 124.163C128.748 124.189 128.774 124.202 128.774 124.205Z" fill="#455A64"/>
<path d="M115.624 124.228C115.627 124.196 116.328 124.322 117.086 124.747C117.848 125.169 118.326 125.698 118.3 125.717C118.274 125.747 117.764 125.273 117.022 124.861C116.283 124.449 115.611 124.267 115.624 124.228Z" fill="#455A64"/>
<path d="M111.018 114.543C111.05 114.527 111.415 115.134 111.77 115.932C112.128 116.73 112.335 117.408 112.302 117.421C112.267 117.434 112.006 116.779 111.65 115.987C111.299 115.195 110.985 114.563 111.018 114.543Z" fill="#455A64"/>
<path d="M111.05 105.494L108.533 105.02L105.886 107.733L106.376 109.462L109.459 108.32L111.05 105.494Z" fill="#FFBE9D"/>
<path d="M87.7837 99.3035L90.6501 98.6643L95.2595 99.3911L95.082 102.347C95.082 102.347 93.652 102.555 93.1388 102.386C92.6255 102.217 92.1962 102.363 92.1962 102.363C92.1962 102.363 92.4771 102.944 91.9929 103.041C91.5087 103.139 90.7178 103.34 90.5694 102.649C90.5694 102.649 90.2014 102.704 90.0303 102.253C90.0303 102.253 89.6559 102.389 89.488 101.73C89.3202 101.072 89.4138 100.082 90.7114 99.7675C90.7792 99.7512 90.8082 99.5955 90.6823 99.602L88.6326 99.9881C88.6326 99.9881 87.2672 100.04 87.7837 99.3035Z" fill="#FFBE9D"/>
<path d="M90.2235 101.364C90.2235 101.348 90.4075 101.315 90.7109 101.276C90.8659 101.263 91.037 101.224 91.2532 101.227C91.3598 101.234 91.4889 101.273 91.5728 101.38C91.6632 101.494 91.6535 101.656 91.5922 101.773C91.4566 102.022 91.1919 102.081 91.0079 102.133C90.811 102.188 90.6302 102.227 90.4785 102.25C90.1719 102.295 89.9814 102.279 89.9814 102.266C89.9814 102.246 90.1687 102.23 90.4624 102.165C90.6109 102.133 90.7852 102.087 90.9756 102.026C91.0725 101.993 91.1725 101.967 91.2629 101.922C91.3533 101.876 91.4405 101.805 91.4824 101.717C91.5276 101.627 91.5308 101.523 91.476 101.455C91.4243 101.383 91.3307 101.348 91.2403 101.341C91.0563 101.331 90.8659 101.361 90.7142 101.364C90.414 101.38 90.2235 101.383 90.2235 101.364Z" fill="#EB996E"/>
<path d="M90.7149 100.731C90.7246 100.764 90.5697 100.838 90.4599 101.01C90.3437 101.179 90.334 101.354 90.3018 101.354C90.2695 101.364 90.2211 101.15 90.3599 100.939C90.4987 100.731 90.7149 100.695 90.7149 100.731Z" fill="#EB996E"/>
<path d="M91.499 101.782C91.5022 101.776 91.5281 101.773 91.5765 101.792C91.6314 101.808 91.6733 101.886 91.7121 101.948C91.7605 102.022 91.796 102.142 91.7605 102.269C91.7282 102.405 91.5862 102.493 91.4635 102.525C91.2214 102.59 91.0019 102.649 90.8373 102.665C90.6727 102.681 90.5694 102.665 90.5694 102.649C90.5694 102.629 90.6694 102.616 90.8244 102.577C90.9793 102.542 91.1924 102.47 91.4312 102.405C91.5442 102.373 91.6314 102.318 91.6572 102.233C91.6862 102.149 91.6701 102.058 91.641 101.99C91.6055 101.909 91.5926 101.854 91.5571 101.831C91.5216 101.805 91.4958 101.792 91.499 101.782Z" fill="#EB996E"/>
<path d="M91.6931 102.285C91.6866 102.272 91.7254 102.227 91.8157 102.214C91.9061 102.201 92.0255 102.233 92.1353 102.302C92.2644 102.386 92.2935 102.525 92.2999 102.603C92.3064 102.688 92.2902 102.74 92.2741 102.74C92.258 102.74 92.2418 102.691 92.216 102.62C92.1902 102.548 92.1514 102.451 92.074 102.405C91.9771 102.347 91.8868 102.311 91.819 102.302C91.748 102.292 91.7028 102.302 91.6931 102.285Z" fill="#EB996E"/>
<path d="M93.1192 99.988L91.8248 100.504L90.6046 101.367C90.6046 101.367 90.6014 101.662 91.2922 101.555C91.9829 101.448 92.5059 101.081 92.5059 101.081C92.5059 101.081 93.4097 101.652 94.207 101.523" fill="#FFBE9D"/>
<path d="M94.2037 101.523C94.2037 101.529 94.1618 101.539 94.0778 101.555C93.9939 101.568 93.868 101.575 93.7099 101.559C93.3935 101.529 92.9513 101.403 92.4768 101.13H92.5349C92.1346 101.39 91.6149 101.623 91.0113 101.646C90.9209 101.646 90.8306 101.64 90.7434 101.604C90.6562 101.568 90.5562 101.507 90.5433 101.37L90.54 101.341L90.5691 101.322C91.021 101.007 91.4342 100.718 91.7957 100.468L91.8022 100.465L91.8086 100.462C92.2057 100.309 92.5284 100.189 92.7576 100.105C92.9868 100.024 93.1159 99.9816 93.1192 99.9914C93.1224 100.001 92.9997 100.06 92.777 100.157C92.5543 100.254 92.2347 100.39 91.8441 100.553L91.8538 100.546C91.4987 100.803 91.0856 101.098 90.6401 101.419L90.6659 101.37C90.6692 101.406 90.7208 101.464 90.7886 101.484C90.8564 101.51 90.9371 101.516 91.0178 101.516C91.5762 101.497 92.0959 101.276 92.48 101.036L92.5091 101.017L92.5381 101.033C92.9868 101.305 93.4193 101.445 93.7228 101.49C94.023 101.542 94.2037 101.503 94.2037 101.523Z" fill="#EB996E"/>
<path d="M91.2403 99.9263C91.2338 99.9587 91.0886 99.9587 90.9401 99.8647C90.7916 99.7738 90.7206 99.6408 90.7464 99.6213C90.7722 99.5986 90.8723 99.6797 91.0047 99.7576C91.1305 99.8387 91.2467 99.8906 91.2403 99.9263Z" fill="#EB996E"/>
<path d="M95.011 103.119L105.941 104.712C107.025 105.059 108.203 104.962 109.217 104.436L118.949 99.417L116.034 92.9571C115.621 93.1096 115.143 93.2978 114.937 93.4211L106.928 99.2224L95.295 98.8135L95.011 103.119Z" fill="#978DEF"/>
<path d="M134.127 114.774L133.43 113.547L125.98 111.672L126.854 113.193L134.127 114.774Z" fill="#FFBE9D"/>
<path d="M116.038 92.9571C116.047 93.2199 114.943 101.348 114.943 103.009C114.943 104.67 118.107 106.471 118.107 106.471L121.57 113.865H133.907L129.688 105.903L127.781 99.5273C127.058 97.1101 127.132 95.8642 125.344 94.0927L121.893 91.7598L116.038 92.9571Z" fill="#978DEF"/>
<path d="M119.621 99.3748L121.693 108.116L111.241 105.157L109.459 108.32L123.058 114.546C124.734 115.312 126.716 114.77 127.771 113.255C128.413 112.337 128.623 111.182 128.346 110.095L125.302 98.1354C124.882 96.4904 123.162 95.5462 121.557 96.0881C120.192 96.552 119.366 97.9505 119.621 99.3748Z" fill="#978DEF"/>
<path d="M118.3 106.886C118.297 106.889 118.064 106.458 117.987 106.422C117.909 106.383 117.8 106.325 117.658 106.244C117.377 106.081 116.973 105.838 116.512 105.478C116.063 105.114 115.518 104.647 115.163 103.937C114.827 103.21 114.853 102.314 114.972 101.438C115.098 100.553 115.279 99.7317 115.385 98.9692C115.501 98.21 115.582 97.5221 115.624 96.9446C115.669 96.3671 115.676 95.8966 115.676 95.5721C115.676 95.2477 115.666 95.0692 115.676 95.066C115.679 95.066 115.689 95.1114 115.698 95.1958C115.708 95.2801 115.718 95.4067 115.727 95.5689C115.744 95.8933 115.753 96.3671 115.721 96.9511C115.689 97.5351 115.621 98.2262 115.511 98.9887C115.411 99.7544 115.234 100.585 115.108 101.458C114.985 102.324 114.966 103.194 115.275 103.885C115.605 104.563 116.134 105.037 116.573 105.403C117.022 105.767 117.416 106.023 117.687 106.198C117.958 106.37 118.306 106.876 118.3 106.886Z" fill="#263238"/>
<path d="M122.455 92.3438C122.461 92.3503 122.393 92.425 122.267 92.5547C122.142 92.6845 121.951 92.8695 121.712 93.0901C121.238 93.5346 120.563 94.1316 119.792 94.7546C119.017 95.3775 118.291 95.9096 117.755 96.2763C117.487 96.4612 117.267 96.6072 117.113 96.7013C116.958 96.7986 116.87 96.8473 116.864 96.8408C116.858 96.8343 116.935 96.7694 117.08 96.6591C117.248 96.5326 117.455 96.3801 117.697 96.1984C118.216 95.8123 118.933 95.2704 119.705 94.6475C120.476 94.0245 121.157 93.4438 121.648 93.0155C121.877 92.8175 122.071 92.6488 122.229 92.5093C122.371 92.399 122.451 92.3374 122.455 92.3438Z" fill="#263238"/>
<path d="M119.621 99.3748C119.624 99.3748 119.643 99.43 119.672 99.5403C119.705 99.6603 119.746 99.8226 119.798 100.027C119.908 100.465 120.06 101.081 120.25 101.85C120.628 103.418 121.154 105.595 121.754 108.099L121.78 108.207L121.674 108.177C120.828 107.937 119.93 107.684 119.007 107.425C115.986 106.562 113.245 105.776 111.225 105.202L111.28 105.179C110.724 106.146 110.276 106.928 109.956 107.483C109.801 107.746 109.679 107.953 109.591 108.106C109.553 108.171 109.52 108.223 109.495 108.265C109.472 108.301 109.459 108.32 109.456 108.317C109.453 108.317 109.462 108.294 109.482 108.258C109.504 108.213 109.533 108.158 109.569 108.09C109.653 107.934 109.766 107.723 109.911 107.454C110.221 106.892 110.657 106.101 111.196 105.127L111.215 105.095L111.251 105.105C113.271 105.673 116.018 106.441 119.043 107.292C119.966 107.554 120.86 107.807 121.706 108.048L121.625 108.125C121.041 105.621 120.531 103.437 120.166 101.867C119.992 101.094 119.85 100.475 119.75 100.033C119.705 99.8258 119.669 99.6636 119.643 99.5403C119.627 99.4365 119.617 99.3781 119.621 99.3748Z" fill="#263238"/>
<path d="M125.346 98.8331C125.35 98.8331 125.369 98.885 125.398 98.9823C125.43 99.0959 125.469 99.2419 125.521 99.4203C125.624 99.8162 125.766 100.365 125.94 101.03C126.286 102.409 126.76 104.284 127.28 106.357C127.535 107.399 127.787 108.388 127.997 109.297C128.206 110.205 128.297 111.059 128.197 111.763C128.103 112.47 127.845 113.002 127.612 113.323C127.383 113.648 127.196 113.771 127.196 113.771C127.183 113.761 127.357 113.622 127.571 113.294C127.784 112.973 128.022 112.444 128.103 111.753C128.19 111.062 128.093 110.225 127.877 109.326C127.654 108.421 127.406 107.431 127.151 106.393C126.644 104.316 126.186 102.438 125.85 101.059C125.692 100.387 125.563 99.8389 125.469 99.4366C125.43 99.2549 125.398 99.1089 125.372 98.9953C125.353 98.8882 125.343 98.8331 125.346 98.8331Z" fill="#263238"/>
<g opacity="0.3">
<path d="M127.245 113.865C128.775 114.008 129.663 113.129 129.827 111.928C129.918 111.266 129.701 110.608 129.485 109.975C128.546 107.211 127.6 104.423 126.109 101.912C126.67 104.423 127.387 106.834 127.952 109.342C128.136 110.163 128.204 110.64 128.191 111.48C128.175 112.324 127.8 113.239 127.245 113.865Z" fill="black"/>
</g>
<path d="M114.695 101.283C114.679 101.296 114.427 101.049 114.078 100.598C113.73 100.147 113.297 99.4819 112.932 98.687C112.568 97.8921 112.345 97.1296 112.232 96.5683C112.119 96.007 112.096 95.6533 112.116 95.6533C112.141 95.6501 112.206 95.994 112.348 96.5424C112.49 97.0874 112.726 97.8337 113.084 98.6156C113.442 99.3976 113.852 100.063 114.175 100.527C114.495 100.994 114.717 101.266 114.695 101.283Z" fill="#FAFAFA"/>
<path d="M111.7 103.064C111.68 103.077 111.49 102.808 111.209 102.36C110.928 101.912 110.554 101.283 110.17 100.572C109.786 99.8615 109.46 99.2061 109.24 98.7259C109.021 98.2457 108.898 97.9407 108.917 97.931C108.94 97.9212 109.098 98.2067 109.347 98.674C109.621 99.1899 109.953 99.8096 110.318 100.494C110.693 101.172 111.028 101.786 111.312 102.301C111.567 102.762 111.722 103.051 111.7 103.064Z" fill="#FAFAFA"/>
<path d="M107.58 104.68C107.535 104.686 107.309 103.525 107.077 102.084C106.844 100.644 106.692 99.469 106.738 99.4625C106.783 99.456 107.009 100.618 107.241 102.058C107.474 103.499 107.625 104.673 107.58 104.68Z" fill="#FAFAFA"/>
<path d="M103.913 104.433C103.891 104.433 103.855 104.151 103.826 103.69C103.797 103.229 103.784 102.593 103.8 101.892C103.816 101.188 103.862 100.556 103.91 100.095C103.958 99.6375 104.007 99.3552 104.029 99.3585C104.052 99.3617 104.046 99.644 104.026 100.105C104.007 100.565 103.981 101.195 103.965 101.896C103.949 102.593 103.945 103.229 103.942 103.687C103.942 104.144 103.936 104.43 103.913 104.433Z" fill="#FAFAFA"/>
<path d="M100.24 99.0634C100.263 99.0634 100.302 99.3262 100.331 99.7545C100.363 100.183 100.382 100.776 100.369 101.432C100.356 102.087 100.314 102.681 100.269 103.106C100.224 103.534 100.176 103.794 100.153 103.791C100.105 103.784 100.179 102.73 100.201 101.425C100.231 100.124 100.192 99.0666 100.24 99.0634Z" fill="#FAFAFA"/>
<path d="M97.2285 99.4527C97.2737 99.456 97.2318 100.342 97.1349 101.432C97.0381 102.522 96.9219 103.401 96.8735 103.395C96.825 103.388 96.8702 102.506 96.9671 101.416C97.0639 100.329 97.1833 99.4495 97.2285 99.4527Z" fill="#FAFAFA"/>
<path d="M115.398 96.4515C115.35 96.4677 115.156 95.9291 114.827 95.3127C114.501 94.6929 114.169 94.229 114.207 94.1998C114.24 94.1706 114.643 94.5988 114.976 95.2348C115.311 95.8675 115.44 96.4385 115.398 96.4515Z" fill="#FAFAFA"/>
<path d="M121.08 105.28C121.08 105.293 120.989 105.303 120.828 105.309C120.663 105.319 120.428 105.316 120.134 105.293C119.55 105.251 118.743 105.108 117.903 104.793C117.064 104.475 116.36 104.05 115.892 103.697C115.657 103.518 115.476 103.366 115.36 103.252C115.24 103.139 115.179 103.07 115.189 103.064C115.208 103.041 115.482 103.275 115.963 103.599C116.441 103.924 117.138 104.323 117.965 104.634C118.791 104.943 119.575 105.102 120.15 105.173C120.718 105.248 121.08 105.254 121.08 105.28Z" fill="#FAFAFA"/>
<path d="M119.902 101.14C119.898 101.163 119.64 101.143 119.227 101.065C118.817 100.991 118.252 100.851 117.649 100.644C117.045 100.433 116.516 100.193 116.148 99.998C115.776 99.8033 115.56 99.6573 115.573 99.6378C115.596 99.5924 116.509 100.069 117.707 100.481C118.898 100.9 119.911 101.088 119.902 101.14Z" fill="#FAFAFA"/>
<path d="M119.217 98.1581C119.224 98.1971 118.413 98.2555 117.506 97.8856C116.593 97.5254 116.047 96.922 116.08 96.896C116.112 96.8538 116.693 97.3794 117.568 97.7266C118.442 98.0835 119.22 98.1062 119.217 98.1581Z" fill="#FAFAFA"/>
<path d="M124.049 96.0394C124.033 96.0654 123.781 95.8934 123.323 95.7637C122.871 95.6339 122.187 95.5755 121.509 95.8285C120.831 96.0849 120.35 96.578 120.095 96.9739C119.83 97.373 119.753 97.6682 119.724 97.6585C119.708 97.6552 119.746 97.3438 119.992 96.909C120.234 96.4807 120.728 95.9421 121.448 95.6696C122.171 95.4003 122.894 95.4814 123.355 95.6469C123.827 95.8123 124.059 96.0265 124.049 96.0394Z" fill="#FAFAFA"/>
<path d="M124.617 100.021C124.627 100.04 124.423 100.17 124.068 100.329C123.713 100.488 123.203 100.666 122.622 100.783C122.041 100.9 121.499 100.929 121.112 100.919C120.724 100.91 120.485 100.867 120.489 100.848C120.492 100.796 121.444 100.851 122.59 100.618C123.736 100.394 124.598 99.9719 124.617 100.021Z" fill="#FAFAFA"/>
<path d="M126.273 105.02C126.277 105.066 125.263 105.205 124.004 105.329C122.748 105.452 121.725 105.514 121.719 105.468C121.716 105.423 122.729 105.283 123.988 105.16C125.247 105.037 126.267 104.975 126.273 105.02Z" fill="#FAFAFA"/>
<path d="M127.729 111.948C127.726 111.957 127.635 111.941 127.471 111.896C127.306 111.853 127.074 111.776 126.793 111.665C126.231 111.448 125.482 111.065 124.714 110.556C123.946 110.046 123.294 109.524 122.832 109.141C122.371 108.755 122.096 108.505 122.109 108.486C122.125 108.466 122.425 108.687 122.906 109.047C123.387 109.407 124.046 109.91 124.808 110.416C125.569 110.919 126.296 111.312 126.841 111.555C127.383 111.805 127.735 111.922 127.729 111.948Z" fill="#FAFAFA"/>
<path d="M119.905 113.005C119.886 113.005 119.847 112.726 119.854 112.269C119.86 111.811 119.918 111.182 120.083 110.5C120.247 109.822 120.483 109.232 120.686 108.823C120.89 108.414 121.051 108.18 121.067 108.193C121.116 108.219 120.564 109.203 120.247 110.539C119.918 111.876 119.957 113.005 119.905 113.005Z" fill="#FAFAFA"/>
<path d="M115.97 110.883C115.931 110.89 115.841 109.959 116.176 108.878C116.502 107.791 117.096 107.071 117.125 107.1C117.171 107.129 116.654 107.872 116.338 108.927C116.009 109.978 116.021 110.883 115.97 110.883Z" fill="#FAFAFA"/>
<path d="M113.775 105.708C113.814 105.744 113.097 106.399 112.571 107.454C112.035 108.502 111.932 109.469 111.88 109.459C111.861 109.456 111.858 109.212 111.929 108.826C111.997 108.44 112.151 107.915 112.423 107.376C112.694 106.841 113.026 106.406 113.294 106.12C113.565 105.835 113.762 105.692 113.775 105.708Z" fill="#FAFAFA"/>
<path d="M128.275 101.176C128.31 101.202 127.962 101.617 127.358 101.854C126.754 102.097 126.218 102.032 126.225 101.99C126.225 101.938 126.732 101.925 127.297 101.695C127.861 101.474 128.239 101.137 128.275 101.176Z" fill="#FAFAFA"/>
<path d="M126.793 96.62C126.832 96.6395 126.629 97.0645 126.19 97.4247C125.751 97.7881 125.296 97.9049 125.286 97.8627C125.27 97.8173 125.673 97.6388 126.083 97.2949C126.5 96.9575 126.751 96.5941 126.793 96.62Z" fill="#FAFAFA"/>
<path d="M121.525 93.5897C121.551 93.5573 121.912 93.8396 122.174 94.3263C122.442 94.8129 122.484 95.2672 122.442 95.2737C122.393 95.2834 122.28 94.8681 122.025 94.4074C121.78 93.9466 121.493 93.6254 121.525 93.5897Z" fill="#FAFAFA"/>
<path d="M129.356 105.458C129.381 105.494 128.965 105.796 128.361 105.952C127.758 106.111 127.248 106.049 127.254 106.007C127.254 105.958 127.745 105.942 128.319 105.786C128.897 105.64 129.333 105.416 129.356 105.458Z" fill="#FAFAFA"/>
<path d="M131.612 109.452C131.616 109.498 130.831 109.605 129.856 109.686C128.881 109.77 128.091 109.8 128.084 109.751C128.081 109.706 128.865 109.598 129.84 109.517C130.818 109.436 131.609 109.407 131.612 109.452Z" fill="#FAFAFA"/>
<path d="M133.181 112.665C133.181 112.71 132.016 112.72 130.583 112.684C129.149 112.648 127.987 112.58 127.987 112.535C127.987 112.489 129.153 112.48 130.586 112.515C132.019 112.551 133.181 112.619 133.181 112.665Z" fill="#FAFAFA"/>
<path d="M121.757 80.4655C121.97 81.5654 123.542 82.0034 123.7 83.1131C123.768 83.59 123.542 84.0637 123.558 84.5439C123.581 85.1896 124.026 85.7315 124.256 86.3382C124.727 87.5841 124.194 89.0604 123.2 89.9397C122.206 90.819 120.84 91.1759 119.514 91.2018" fill="#263238"/>
<path d="M112.855 81.6011C112.99 82.1883 112.684 82.7821 112.361 83.2883C112.038 83.7977 111.673 84.3298 111.68 84.9332C111.693 86.0007 112.861 86.8086 112.816 87.8761C112.79 88.4471 112.409 88.9663 112.416 89.5373C112.422 90.0921 112.794 90.5756 113.216 90.9292C113.639 91.2829 114.043 91.1596 114.43 91.5522C114.837 91.9675 115.45 92.3633 115.996 92.5612C117.235 93.009 118.459 91.8831 118.985 91.6333" fill="#263238"/>
<path d="M122.081 81.069C122.013 80.5271 121.451 80.1897 120.922 80.0729C120.392 79.9561 119.828 79.9691 119.334 79.7387C118.898 79.5343 118.569 79.1612 118.181 78.8756C117.232 78.1716 115.902 78.0288 114.828 78.5155C113.753 79.0022 112.978 80.0988 112.871 81.2766C112.8 82.0748 113.075 82.9605 113.756 83.3726C114.547 83.8528 115.56 83.5575 116.429 83.2331C117.297 82.9086 118.278 82.5647 119.108 82.9735C119.608 83.2201 119.947 83.6971 120.299 84.1318C120.651 84.5666 121.07 85.0014 121.622 85.0987C122.171 85.1961 122.83 84.7743 122.762 84.2162" fill="#263238"/>
<path d="M122.267 92.5547L120.96 82.0488C120.896 81.5783 120.486 81.2377 120.018 81.2604L115.069 80.7964C113.52 80.8743 112.8 82.9183 112.939 84.4725C113.097 86.1986 113.355 88.2978 113.755 89.5405C114.556 92.0388 116.564 92.0615 116.564 92.0615C116.564 92.0583 116.938 95.7539 117.083 96.6688" fill="#FFBE9D"/>
<path d="M113.62 86.3868C113.639 86.562 113.804 86.6886 113.988 86.6691C114.169 86.6496 114.301 86.4939 114.278 86.3187C114.256 86.1435 114.094 86.0169 113.91 86.0364C113.73 86.0559 113.597 86.2116 113.62 86.3868Z" fill="#263238"/>
<path d="M113.526 85.7411C113.575 85.7768 113.794 85.5529 114.146 85.501C114.498 85.4426 114.782 85.5821 114.814 85.5335C114.83 85.5108 114.775 85.4394 114.653 85.3745C114.53 85.3096 114.327 85.2609 114.111 85.2966C113.891 85.3323 113.72 85.4426 113.626 85.5432C113.53 85.6405 113.504 85.7249 113.526 85.7411Z" fill="#263238"/>
<path d="M117.164 85.8675C117.184 86.0427 117.348 86.1693 117.532 86.1498C117.713 86.1303 117.845 85.9746 117.823 85.7994C117.803 85.6242 117.639 85.4976 117.455 85.5171C117.274 85.5366 117.145 85.6923 117.164 85.8675Z" fill="#263238"/>
<path d="M116.996 85.2642C117.044 85.2999 117.264 85.076 117.616 85.0241C117.968 84.9657 118.255 85.1052 118.284 85.0565C118.3 85.0338 118.248 84.9624 118.123 84.8976C118 84.8327 117.797 84.784 117.58 84.8197C117.361 84.8554 117.19 84.9657 117.096 85.0663C116.999 85.1669 116.973 85.248 116.996 85.2642Z" fill="#263238"/>
<path d="M116.125 88.0869C116.122 88.0674 115.899 88.0642 115.537 88.0739C115.447 88.0804 115.36 88.0739 115.334 88.0155C115.302 87.9539 115.324 87.8501 115.353 87.7397C115.405 87.5094 115.457 87.266 115.511 87.0097C115.728 85.9715 115.87 85.1246 115.831 85.1181C115.789 85.1084 115.579 85.9423 115.363 86.9805C115.311 87.2368 115.263 87.4802 115.214 87.7138C115.195 87.8209 115.156 87.9474 115.224 88.0739C115.26 88.1388 115.331 88.1778 115.392 88.1843C115.453 88.194 115.502 88.1875 115.547 88.181C115.905 88.1421 116.128 88.1096 116.125 88.0869Z" fill="#263238"/>
<path d="M116.564 92.0583C116.564 92.0583 118.268 91.9415 119.808 90.6501C119.779 90.6599 119.117 92.6261 116.632 92.7461L116.564 92.0583Z" fill="#EB996E"/>
<path d="M116.406 88.9176C116.506 88.7294 116.712 88.6028 116.938 88.5931C117.093 88.5866 117.258 88.6353 117.371 88.7456C117.484 88.8559 117.529 89.0311 117.464 89.1641C117.39 89.3134 117.196 89.3751 117.022 89.3523C116.848 89.3296 116.686 89.242 116.532 89.1544C116.49 89.1285 116.444 89.1025 116.415 89.0668C116.386 89.0279 116.37 88.9727 116.396 88.9338" fill="#EB996E"/>
<path d="M117.2 88.1713C117.142 88.1778 117.2 88.5606 116.916 88.8851C116.632 89.2096 116.218 89.229 116.222 89.2842C116.218 89.3101 116.325 89.3458 116.496 89.3231C116.667 89.3036 116.903 89.2096 117.077 89.0116C117.251 88.8137 117.303 88.5769 117.29 88.4179C117.28 88.2524 117.226 88.1648 117.2 88.1713Z" fill="#263238"/>
<path d="M116.68 84.3006C116.729 84.3915 117.074 84.2909 117.494 84.2747C117.913 84.252 118.265 84.3201 118.307 84.226C118.326 84.1806 118.252 84.0995 118.104 84.0281C117.955 83.9567 117.729 83.9015 117.478 83.9113C117.226 83.9243 117.006 83.9989 116.864 84.0832C116.725 84.1708 116.661 84.2584 116.68 84.3006Z" fill="#263238"/>
<path d="M113.497 84.6964C113.571 84.7678 113.801 84.6445 114.091 84.5958C114.382 84.5374 114.637 84.5666 114.682 84.4725C114.701 84.4271 114.65 84.3525 114.53 84.2941C114.411 84.2357 114.224 84.2 114.027 84.2389C113.826 84.2778 113.665 84.3752 113.575 84.4758C113.484 84.5731 113.465 84.6607 113.497 84.6964Z" fill="#263238"/>
<path d="M122.409 89.9138C121.731 90.1669 121.612 89.8197 121.011 89.4109C120.411 89.0053 120.024 88.298 120.001 87.5712C119.982 86.9288 120.217 86.2345 119.907 85.6732C119.497 84.9301 118.361 84.862 117.945 84.1222C117.703 83.6907 117.771 83.1327 117.509 82.7173C117.264 82.3248 116.783 82.1528 116.331 82.0652C115.879 81.9776 115.401 81.9419 114.998 81.718C114.594 81.4941 114.284 80.9977 114.455 80.5662C116.392 80.4916 118.339 80.6538 120.24 81.0431C120.679 81.134 121.147 81.2508 121.45 81.585C121.773 81.9354 121.841 82.4481 121.893 82.9218C122.148 85.2384 122.403 87.5583 122.658 89.8749" fill="#263238"/>
<path d="M123.19 84.4335C123.139 83.5769 123.704 82.7171 124.511 82.4348C125.318 82.1525 126.292 82.464 126.786 83.1648C127.254 83.8332 127.27 84.732 127.054 85.5204C126.799 86.4548 126.118 87.3828 125.159 87.4899C124.256 87.5904 123.41 86.9156 123.016 86.0914C122.622 85.2673 122.58 84.3264 122.548 83.4147" fill="#263238"/>
<path d="M124.243 87.863C124.246 87.8662 124.297 87.8143 124.352 87.6942C124.407 87.5774 124.462 87.386 124.462 87.1524C124.462 86.9156 124.414 86.6365 124.31 86.3477C124.21 86.0557 124.062 85.754 123.933 85.4295C123.804 85.1083 123.72 84.7871 123.729 84.4919C123.736 84.1998 123.833 83.9338 123.855 83.7002C123.884 83.4633 123.846 83.2686 123.784 83.1486C123.723 83.0285 123.662 82.9864 123.658 82.9896C123.652 82.9961 123.7 83.048 123.745 83.1648C123.791 83.2816 123.813 83.4633 123.778 83.6872C123.745 83.9111 123.642 84.1674 123.626 84.4854C123.61 84.8033 123.7 85.1408 123.829 85.4685C123.958 85.7994 124.113 86.0979 124.213 86.3769C124.317 86.6592 124.372 86.9253 124.381 87.1492C124.404 87.6099 124.217 87.8532 124.243 87.863Z" fill="#455A64"/>
<path d="M123.794 84.7808C123.785 84.7873 123.936 84.9495 124.246 85.102C124.553 85.2577 125.034 85.3908 125.563 85.3161C126.093 85.2415 126.522 84.9819 126.77 84.7451C127.025 84.5082 127.126 84.3168 127.116 84.3103C127.1 84.2973 126.977 84.4725 126.719 84.6834C126.464 84.8943 126.047 85.1312 125.547 85.2026C125.044 85.2739 124.582 85.1604 124.279 85.0274C123.972 84.8976 123.807 84.7645 123.794 84.7808Z" fill="#455A64"/>
<path d="M123.984 85.1603C123.975 85.1668 124.062 85.3226 124.262 85.527C124.462 85.7314 124.785 85.978 125.191 86.1434C125.598 86.3089 125.998 86.3608 126.286 86.3511C126.573 86.3446 126.744 86.2927 126.741 86.283C126.738 86.2635 126.563 86.2862 126.286 86.27C126.008 86.257 125.627 86.1954 125.233 86.0364C124.843 85.8774 124.523 85.6535 124.317 85.4686C124.11 85.2869 124 85.1506 123.984 85.1603Z" fill="#455A64"/>
<path d="M123.897 88.7975C123.9 88.7975 123.907 88.7845 123.92 88.7618C123.933 88.7359 123.955 88.7002 123.975 88.6483C124.017 88.5477 124.065 88.3855 124.072 88.1746C124.081 87.9637 124.043 87.6976 123.913 87.4251C123.788 87.1525 123.542 86.8735 123.194 86.7177C122.858 86.5523 122.441 86.4647 122.135 86.1629C121.983 86.0169 121.896 85.8093 121.902 85.5821C121.902 85.3583 121.967 85.1247 122.019 84.8813C122.141 84.3914 122.054 83.8171 121.744 83.3564C121.589 83.1292 121.383 82.9248 121.124 82.7918C120.869 82.6555 120.576 82.6101 120.292 82.5906C120.004 82.5712 119.724 82.5777 119.456 82.542C119.188 82.5063 118.926 82.4284 118.723 82.2759C118.513 82.1267 118.397 81.8931 118.326 81.6497C118.252 81.4064 118.194 81.1533 118.09 80.9229C117.89 80.4622 117.58 80.0761 117.212 79.8198C116.844 79.5635 116.425 79.4499 116.044 79.4499C115.663 79.4499 115.324 79.5764 115.082 79.7549C114.836 79.9333 114.682 80.1507 114.588 80.3421C114.498 80.5336 114.465 80.6991 114.456 80.8094C114.446 80.9197 114.456 80.9781 114.456 80.9781C114.472 80.9813 114.439 80.7347 114.627 80.3616C114.72 80.1799 114.878 79.9723 115.117 79.8068C115.353 79.6381 115.676 79.5245 116.044 79.5278C116.405 79.531 116.809 79.6446 117.157 79.8912C117.509 80.1377 117.803 80.5141 117.993 80.9586C118.093 81.1792 118.148 81.4226 118.223 81.6757C118.297 81.9255 118.426 82.1916 118.658 82.357C118.888 82.5258 119.165 82.6069 119.443 82.6425C119.724 82.6815 120.004 82.675 120.285 82.6945C120.563 82.7139 120.84 82.7561 121.073 82.8827C121.312 83.0059 121.505 83.1941 121.651 83.4083C121.941 83.843 122.028 84.3784 121.915 84.8489C121.867 85.089 121.799 85.3258 121.799 85.5724C121.793 85.819 121.899 86.0623 122.067 86.2181C122.403 86.5425 122.832 86.6204 123.158 86.7794C123.494 86.9254 123.729 87.1817 123.855 87.4445C123.984 87.7041 124.03 87.9604 124.026 88.1648C124.023 88.5866 123.881 88.791 123.897 88.7975Z" fill="#455A64"/>
<path d="M122.603 81.6692C122.603 81.6692 122.623 81.627 122.616 81.5459C122.613 81.4648 122.581 81.3383 122.477 81.2182C122.377 81.0982 122.216 80.9814 121.996 80.9327C121.774 80.884 121.519 80.9295 121.26 81.0235C121.002 81.1176 120.741 81.2669 120.447 81.374C120.16 81.4778 119.805 81.5427 119.501 81.374C119.198 81.2085 119.004 80.871 118.81 80.5369C118.617 80.1929 118.365 79.8587 118.055 79.5765C117.432 79.0087 116.657 78.6745 115.928 78.629C115.563 78.6096 115.208 78.6712 114.914 78.8172C114.621 78.9632 114.388 79.1806 114.243 79.4207C114.098 79.6608 114.049 79.9236 114.069 80.1443C114.085 80.3649 114.159 80.5498 114.24 80.6796C114.32 80.8126 114.414 80.8938 114.479 80.9424C114.543 80.9911 114.585 81.0073 114.585 81.0041C114.598 80.9911 114.43 80.9197 114.278 80.6569C114.204 80.5271 114.143 80.3519 114.133 80.141C114.12 79.9301 114.172 79.6868 114.314 79.4629C114.453 79.239 114.675 79.0379 114.956 78.9016C115.237 78.7686 115.573 78.7102 115.925 78.7329C116.625 78.7815 117.377 79.1092 117.981 79.6608C118.284 79.9366 118.523 80.2578 118.717 80.5953C118.914 80.9262 119.114 81.2831 119.453 81.468C119.621 81.5589 119.811 81.5913 119.985 81.5784C120.163 81.5686 120.328 81.52 120.479 81.4648C120.783 81.348 121.038 81.1955 121.289 81.1014C121.538 81.0041 121.78 80.9587 121.983 80.9976C122.19 81.0365 122.345 81.1436 122.445 81.2507C122.545 81.361 122.584 81.4745 122.594 81.5492C122.606 81.627 122.597 81.6692 122.603 81.6692Z" fill="#455A64"/>
</svg>
