<svg width="67" height="84" viewBox="0 0 67 84" fill="none" xmlns="http://www.w3.org/2000/svg">
<path d="M20.9216 7.33179L15.1202 79.6863L64.95 83.438L66.9997 10.0623L20.9216 7.33179Z" fill="#959B99"/>
<path d="M66.599 24.388L66.9999 10.0623L20.9217 7.33179L19.7947 21.4079L66.599 24.388Z" fill="#D2603F"/>
<path d="M66.5463 8.35361L19.9008 5.62311L13.5322 77.9777L64.0427 81.6234L66.5463 8.35361Z" fill="white"/>
<path d="M18.6228 20.0925L66.0398 23.1256L66.5466 8.35361L19.9011 5.62311L18.6228 20.0925Z" fill="#978DEF"/>
<path d="M27.7505 1.53052L27.0622 12.1122" stroke="#7870C4" stroke-width="3" stroke-miterlimit="10" stroke-linecap="round" stroke-linejoin="round"/>
<path d="M35.253 1.87103L34.5723 12.4527" stroke="#7870C4" stroke-width="3" stroke-miterlimit="10" stroke-linecap="round" stroke-linejoin="round"/>
<path d="M42.7656 2.21106L42.0849 12.7927" stroke="#7870C4" stroke-width="3" stroke-miterlimit="10" stroke-linecap="round" stroke-linejoin="round"/>
<path d="M50.2756 2.55164L49.5873 13.1333" stroke="#7870C4" stroke-width="3" stroke-miterlimit="10" stroke-linecap="round" stroke-linejoin="round"/>
<path d="M57.778 2.89215L57.0973 13.4738" stroke="#7870C4" stroke-width="3" stroke-miterlimit="10" stroke-linecap="round" stroke-linejoin="round"/>
<path d="M25.7016 28.4956L57.0986 30.5378" stroke="#978DEF" stroke-width="2" stroke-miterlimit="10"/>
<path d="M25.0221 36.3392L56.4191 38.3889" stroke="#978DEF" stroke-width="2" stroke-miterlimit="10"/>
<path d="M24.3334 44.1907L55.738 46.2405" stroke="#978DEF" stroke-width="2" stroke-miterlimit="10"/>
<path d="M23.6529 52.0412L55.0499 54.091" stroke="#978DEF" stroke-width="2" stroke-miterlimit="10"/>
<path d="M22.9728 59.8922L54.3699 61.942" stroke="#978DEF" stroke-width="2" stroke-miterlimit="10"/>
<path d="M22.2917 67.7433L53.6887 69.7855" stroke="#978DEF" stroke-width="2" stroke-miterlimit="10"/>
<path opacity="0.2" d="M43.4545 80.1405L64.0354 81.6229L66.5389 8.36074L62.1898 8.10358C57.349 26.9524 48.0683 62.5019 43.4545 80.1405Z" fill="#121C36"/>
<path d="M5.5875 8.84151L1.37411 9.08588L4.86668 69.304L9.08006 69.0596L5.5875 8.84151Z" fill="#978DEF"/>
<path d="M0.712113 11.6515C0.356618 11.6515 0.0540682 11.3716 0.0313771 11.0085C0.00868588 10.6304 0.296108 10.3127 0.674294 10.29L6.41516 9.95719C6.78578 9.9345 7.11102 10.2219 7.13371 10.6001C7.1564 10.9783 6.86898 11.296 6.4908 11.3187L0.749931 11.6515C0.742368 11.6515 0.727241 11.6515 0.712113 11.6515Z" fill="#7870C4"/>
<path d="M0.393928 30.7418C0.371237 30.7418 0.340981 30.7342 0.31829 30.7266C0.235089 30.6888 0.19727 30.5829 0.235089 30.4997L1.04441 28.8206L0.000613844 10.8416C-0.00694988 10.7509 0.0686866 10.6677 0.159451 10.6601C0.25778 10.6601 0.333417 10.7282 0.34098 10.8189L1.38477 28.8357C1.38477 28.866 1.37721 28.8962 1.36965 28.9189L0.545201 30.651C0.514946 30.7115 0.454437 30.7418 0.393928 30.7418Z" fill="#7870C4"/>
<path d="M7.09601 73.3403C7.09601 73.3403 7.12626 73.8395 7.31536 73.8622C7.49689 73.8849 7.35317 73.2495 7.35317 73.2495L7.09601 73.3403Z" fill="white"/>
<path d="M7.39833 73.4013L8.90351 69.0749L5.07626 69.2942L7.07309 73.4316L7.39833 73.4013Z" fill="#7870C4"/>
</svg>
