<svg width="110" height="98" viewBox="0 0 110 98" fill="none" xmlns="http://www.w3.org/2000/svg">
<g clip-path="url(#clip0_206_1039)">
<path opacity="0.3" d="M27.8321 35.0953H19.9313C19.3833 35.0953 18.9394 34.6278 18.9394 34.0508C18.9394 33.4737 19.3833 33.0062 19.9313 33.0062H27.8321C28.3801 33.0062 28.824 33.4737 28.824 34.0508C28.824 34.6311 28.3801 35.0953 27.8321 35.0953Z" fill="white"/>
<path opacity="0.3" d="M27.8168 24.147C27.8168 23.5699 27.373 23.1024 26.825 23.1024H18.9241C18.3762 23.1024 17.9323 23.5699 17.9323 24.147C17.9323 24.724 18.3762 25.1915 18.9241 25.1915H19.5394C19.8394 25.1915 20.0843 25.4494 20.0843 25.7654V25.7815C20.0843 26.0974 19.8394 26.3553 19.5394 26.3553H18.0456C17.4976 26.3553 17.0538 26.8228 17.0538 27.3999C17.0538 27.9769 17.4976 28.4444 18.0456 28.4444H25.9465C26.4944 28.4444 26.9383 27.9769 26.9383 27.3999C26.9383 26.8228 26.4944 26.3553 25.9465 26.3553H25.025C24.7251 26.3553 24.4802 26.0974 24.4802 25.7815V25.7654C24.4802 25.4494 24.7251 25.1915 25.025 25.1915H26.825C27.376 25.1915 27.8168 24.724 27.8168 24.147Z" fill="white"/>
<path d="M102.157 12.2572C102.157 12.96 101.615 13.5306 100.948 13.5306" stroke="#FFEFB0" stroke-miterlimit="10" stroke-linecap="round" stroke-linejoin="round"/>
<path d="M102.157 12.2572C102.157 12.96 102.699 13.5306 103.366 13.5306" stroke="#FFEFB0" stroke-miterlimit="10" stroke-linecap="round" stroke-linejoin="round"/>
<path d="M102.157 14.8073C102.157 14.1044 101.615 13.5338 100.948 13.5338" stroke="#FFEFB0" stroke-miterlimit="10" stroke-linecap="round" stroke-linejoin="round"/>
<path d="M102.157 14.8073C102.157 14.1044 102.699 13.5338 103.366 13.5338" stroke="#FFEFB0" stroke-miterlimit="10" stroke-linecap="round" stroke-linejoin="round"/>
<path d="M17.8925 37.7196C17.8925 38.4224 17.3507 38.993 16.6864 38.993" stroke="#FFEFB0" stroke-miterlimit="10" stroke-linecap="round" stroke-linejoin="round"/>
<path d="M17.8925 37.7196C17.8925 38.4224 18.4344 38.993 19.0986 38.993" stroke="#FFEFB0" stroke-miterlimit="10" stroke-linecap="round" stroke-linejoin="round"/>
<path d="M17.8925 40.2729C17.8925 39.5701 17.3507 38.9995 16.6864 38.9995" stroke="#FFEFB0" stroke-miterlimit="10" stroke-linecap="round" stroke-linejoin="round"/>
<path d="M17.8925 40.2729C17.8925 39.5701 18.4344 38.9995 19.0986 38.9995" stroke="#FFEFB0" stroke-miterlimit="10" stroke-linecap="round" stroke-linejoin="round"/>
<path d="M84.7121 11.4189C84.7121 12.1218 84.1703 12.6924 83.5029 12.6924" stroke="#FFEFB0" stroke-miterlimit="10" stroke-linecap="round" stroke-linejoin="round"/>
<path d="M84.7121 11.4189C84.7121 12.1218 85.2539 12.6924 85.9213 12.6924" stroke="#FFEFB0" stroke-miterlimit="10" stroke-linecap="round" stroke-linejoin="round"/>
<path d="M84.7121 13.9723C84.7121 13.2695 84.1703 12.6989 83.5029 12.6989" stroke="#FFEFB0" stroke-miterlimit="10" stroke-linecap="round" stroke-linejoin="round"/>
<path d="M84.7121 13.9723C84.7121 13.2695 85.2539 12.6989 85.9213 12.6989" stroke="#FFEFB0" stroke-miterlimit="10" stroke-linecap="round" stroke-linejoin="round"/>
<path d="M11.9324 26.1071C11.9324 26.8099 11.3906 27.3805 10.7263 27.3805" stroke="#FFEFB0" stroke-miterlimit="10" stroke-linecap="round" stroke-linejoin="round"/>
<path d="M11.9324 26.1071C11.9324 26.8099 12.4743 27.3805 13.1385 27.3805" stroke="#FFEFB0" stroke-miterlimit="10" stroke-linecap="round" stroke-linejoin="round"/>
<path d="M11.9324 28.6604C11.9324 27.9576 11.3906 27.387 10.7263 27.387" stroke="#FFEFB0" stroke-miterlimit="10" stroke-linecap="round" stroke-linejoin="round"/>
<path d="M11.9324 28.6604C11.9324 27.9576 12.4743 27.387 13.1385 27.387" stroke="#FFEFB0" stroke-miterlimit="10" stroke-linecap="round" stroke-linejoin="round"/>
<path d="M35.1055 17.1221C35.1055 17.8249 34.5636 18.3955 33.8963 18.3955" stroke="#FFEFB0" stroke-miterlimit="10" stroke-linecap="round" stroke-linejoin="round"/>
<path d="M35.1055 17.1221C35.1055 17.8249 35.6473 18.3955 36.3146 18.3955" stroke="#FFEFB0" stroke-miterlimit="10" stroke-linecap="round" stroke-linejoin="round"/>
<path d="M35.1055 19.6754C35.1055 18.9726 34.5636 18.402 33.8963 18.402" stroke="#FFEFB0" stroke-miterlimit="10" stroke-linecap="round" stroke-linejoin="round"/>
<path d="M35.1055 19.6754C35.1055 18.9726 35.6473 18.402 36.3146 18.402" stroke="#FFEFB0" stroke-miterlimit="10" stroke-linecap="round" stroke-linejoin="round"/>
<path d="M92.9524 5.68372C92.9524 6.38653 92.4105 6.95716 91.7432 6.95716" stroke="#FFEFB0" stroke-miterlimit="10" stroke-linecap="round" stroke-linejoin="round"/>
<path d="M92.9524 5.68372C92.9524 6.38653 93.4942 6.95716 94.1615 6.95716" stroke="#FFEFB0" stroke-miterlimit="10" stroke-linecap="round" stroke-linejoin="round"/>
<path d="M92.9524 8.23706C92.9524 7.53425 92.4105 6.96362 91.7432 6.96362" stroke="#FFEFB0" stroke-miterlimit="10" stroke-linecap="round" stroke-linejoin="round"/>
<path d="M92.9524 8.23706C92.9524 7.53425 93.4942 6.96362 94.1615 6.96362" stroke="#FFEFB0" stroke-miterlimit="10" stroke-linecap="round" stroke-linejoin="round"/>
<path d="M97.0972 88.4025C97.0972 87.3386 97.9145 86.4778 98.9247 86.4778H100.565C101.839 86.4778 102.871 85.3913 102.871 84.0502C102.871 82.7091 101.839 81.6226 100.565 81.6226H93.0381C92.0279 81.6226 91.2106 80.7618 91.2106 79.6979C91.2106 78.6341 92.0279 77.7733 93.0381 77.7733H94.7891C96.0625 77.7733 97.0941 76.6868 97.0941 75.3457C97.0941 74.0045 96.0625 72.9181 94.7891 72.9181H14.1732C12.8998 72.9181 11.8681 74.0045 11.8681 75.3457C11.8681 76.6868 12.8998 77.7733 14.1732 77.7733H16.5609C17.5711 77.7733 18.3884 78.6341 18.3884 79.6979C18.3884 80.7618 17.5711 81.6226 16.5609 81.6226H6.3305C5.05705 81.6226 4.02544 82.7091 4.02544 84.0502C4.02544 85.3913 5.05705 86.4778 6.3305 86.4778H23.4945C24.5046 86.4778 25.322 87.3386 25.322 88.4025C25.322 89.4663 24.5046 90.3271 23.4945 90.3271H12.5232C11.2498 90.3271 10.2182 91.4136 10.2182 92.7547C10.2182 94.0959 11.2498 95.1823 12.5232 95.1823H105.439C106.712 95.1823 107.744 94.0959 107.744 92.7547C107.744 91.4136 106.712 90.3271 105.439 90.3271H98.9247C97.9145 90.3304 97.0972 89.4663 97.0972 88.4025Z" fill="#978DEF"/>
<path d="M36.6483 82.68H27.8689C27.2811 82.68 26.8036 82.1771 26.8036 81.5581C26.8036 80.9391 27.2811 80.4362 27.8689 80.4362H36.6514C37.2391 80.4362 37.7166 80.9391 37.7166 81.5581C37.7136 82.1771 37.2391 82.68 36.6483 82.68Z" fill="#8F6FC9"/>
<path d="M41.9349 82.68H40.6431C40.0554 82.68 39.5778 82.1771 39.5778 81.5581C39.5778 80.9391 40.0554 80.4362 40.6431 80.4362H41.9349C42.5227 80.4362 43.0002 80.9391 43.0002 81.5581C43.0002 82.1771 42.5227 82.68 41.9349 82.68Z" fill="#8F6FC9"/>
<path d="M46.9828 82.68H45.691C45.1032 82.68 44.6257 82.1771 44.6257 81.5581C44.6257 80.9391 45.1032 80.4362 45.691 80.4362H46.9828C47.5705 80.4362 48.0481 80.9391 48.0481 81.5581C48.0481 82.1771 47.5705 82.68 46.9828 82.68Z" fill="#8F6FC9"/>
<path d="M36.6483 91.0685H27.8689C27.2811 91.0685 26.8036 90.5656 26.8036 89.9466C26.8036 89.3276 27.2811 88.8247 27.8689 88.8247H36.6514C37.2391 88.8247 37.7166 89.3276 37.7166 89.9466C37.7136 90.5656 37.2391 91.0685 36.6483 91.0685Z" fill="#8F6FC9"/>
<path d="M41.9349 91.0685H40.6431C40.0554 91.0685 39.5778 90.5656 39.5778 89.9466C39.5778 89.3276 40.0554 88.8247 40.6431 88.8247H41.9349C42.5227 88.8247 43.0002 89.3276 43.0002 89.9466C43.0002 90.5656 42.5227 91.0685 41.9349 91.0685Z" fill="#8F6FC9"/>
<path d="M46.9828 91.0685H45.691C45.1032 91.0685 44.6257 90.5656 44.6257 89.9466C44.6257 89.3276 45.1032 88.8247 45.691 88.8247H46.9828C47.5705 88.8247 48.0481 89.3276 48.0481 89.9466C48.0481 90.5656 47.5705 91.0685 46.9828 91.0685Z" fill="#8F6FC9"/>
<path d="M55.3638 91.0687H54.072C53.4843 91.0687 53.0067 90.5657 53.0067 89.9467C53.0067 89.3278 53.4843 88.8248 54.072 88.8248H55.3638C55.9516 88.8248 56.4291 89.3278 56.4291 89.9467C56.4291 90.5657 55.9516 91.0687 55.3638 91.0687Z" fill="#8F6FC9"/>
<path d="M39.4952 86.8743H30.7127C30.125 86.8743 29.6474 86.3714 29.6474 85.7524C29.6474 85.1334 30.125 84.6305 30.7127 84.6305H39.4952C40.0829 84.6305 40.5605 85.1334 40.5605 85.7524C40.5605 86.3714 40.0829 86.8743 39.4952 86.8743Z" fill="#8F6FC9"/>
<path d="M44.7818 86.8743H43.49C42.9023 86.8743 42.4247 86.3714 42.4247 85.7524C42.4247 85.1334 42.9023 84.6305 43.49 84.6305H44.7818C45.3696 84.6305 45.8471 85.1334 45.8471 85.7524C45.8471 86.3714 45.3696 86.8743 44.7818 86.8743Z" fill="#8F6FC9"/>
<path d="M49.8297 86.8743H48.5379C47.9501 86.8743 47.4726 86.3714 47.4726 85.7524C47.4726 85.1334 47.9501 84.6305 48.5379 84.6305H49.8297C50.4174 84.6305 50.895 85.1334 50.895 85.7524C50.895 86.3714 50.4174 86.8743 49.8297 86.8743Z" fill="#8F6FC9"/>
<path opacity="0.46" d="M16.2549 73.1145C16.2549 71.3801 17.0447 71.3801 17.0447 69.6456C17.0447 67.9112 16.2549 67.9112 16.2549 66.1767C16.2549 64.4422 17.0447 64.4422 17.0447 62.7046C17.0447 60.9669 16.2549 60.9701 16.2549 59.2324" stroke="white" stroke-width="2.864" stroke-miterlimit="10" stroke-linecap="round" stroke-linejoin="round"/>
<path opacity="0.46" d="M18.9054 67.2117C18.9054 65.2161 19.8146 65.2161 19.8146 63.2237C19.8146 61.2314 18.9054 61.2314 18.9054 59.2358C18.9054 57.2402 19.8146 57.2402 19.8146 55.2446C19.8146 53.249 18.9054 53.249 18.9054 51.2534" stroke="white" stroke-width="2.864" stroke-miterlimit="10" stroke-linecap="round" stroke-linejoin="round"/>
<path d="M11.5005 71.2151V73.4879C11.0842 73.2429 10.6066 73.1011 10.0954 73.1011C8.50666 73.1011 7.21484 74.4616 7.21484 76.138C7.21484 77.8112 8.50666 79.1717 10.0954 79.1717C10.6066 79.1717 11.0842 79.0298 11.5005 78.7848V83.9495C11.5005 84.3686 11.8219 84.7071 12.2199 84.7071H16.6494V71.2151H11.5005ZM11.5005 77.6403C11.1393 78.0143 10.6434 78.2496 10.0954 78.2496C8.99032 78.2496 8.09034 77.3018 8.09034 76.138C8.09034 74.9742 8.99032 74.0263 10.0954 74.0263C10.6434 74.0263 11.1393 74.2584 11.5005 74.6356V77.6403Z" fill="#D5E6F0"/>
<path d="M16.6494 71.2157V84.7045H21.7156C22.1135 84.7045 22.435 84.366 22.435 83.9469V71.2125L16.6494 71.2157Z" fill="white"/>
<path opacity="0.3" d="M102.993 12.6955H95.0924C94.5445 12.6955 94.1006 12.2281 94.1006 11.651C94.1006 11.0739 94.5445 10.6064 95.0924 10.6064H102.993C103.541 10.6064 103.985 11.0739 103.985 11.651C103.985 12.2281 103.541 12.6955 102.993 12.6955Z" fill="white"/>
<path opacity="0.3" d="M105.506 24.7595H97.6053C97.0574 24.7595 96.6135 24.292 96.6135 23.715C96.6135 23.1379 97.0574 22.6704 97.6053 22.6704H105.506C106.054 22.6704 106.498 23.1379 106.498 23.715C106.498 24.292 106.054 24.7595 105.506 24.7595Z" fill="white"/>
<path opacity="0.3" d="M84.8619 17.8152H80.1324C79.5845 17.8152 79.1406 17.3477 79.1406 16.7706C79.1406 16.1935 79.5845 15.7261 80.1324 15.7261H84.8619C85.4099 15.7261 85.8538 16.1935 85.8538 16.7706C85.8538 17.3477 85.4099 17.8152 84.8619 17.8152Z" fill="white"/>
<path opacity="0.3" d="M12.9331 35.0954H8.20666C7.65871 35.0954 7.21484 34.628 7.21484 34.0509C7.21484 33.4738 7.65871 33.0063 8.20666 33.0063H12.9362C13.4841 33.0063 13.928 33.4738 13.928 34.0509C13.9249 34.6312 13.4811 35.0954 12.9331 35.0954Z" fill="white"/>
<path opacity="0.3" d="M98.9496 16.774C98.9496 16.197 98.5057 15.7295 97.9578 15.7295H90.0569C89.509 15.7295 89.0651 16.197 89.0651 16.774C89.0651 17.3511 89.509 17.8186 90.0569 17.8186H90.6722C90.9722 17.8186 91.2171 18.0765 91.2171 18.3924V18.4085C91.2171 18.7245 90.9722 18.9824 90.6722 18.9824H89.1783C88.6304 18.9824 88.1865 19.4499 88.1865 20.0269C88.1865 20.604 88.6304 21.0715 89.1783 21.0715H97.0792C97.6272 21.0715 98.071 20.604 98.071 20.0269C98.071 19.4499 97.6272 18.9824 97.0792 18.9824H96.1578C95.8578 18.9824 95.6129 18.7245 95.6129 18.4085V18.3924C95.6129 18.0765 95.8578 17.8186 96.1578 17.8186H97.9578C98.5057 17.8186 98.9496 17.3511 98.9496 16.774Z" fill="white"/>
<path opacity="0.87" d="M92.095 26.0074H96.1082C97.1398 26.0074 97.9786 25.1272 97.9786 24.0375C97.9786 22.9511 97.1428 22.0677 96.1082 22.0677H92.095C91.0634 22.0677 90.2246 22.9479 90.2246 24.0375C90.2246 25.1272 91.0603 26.0074 92.095 26.0074Z" fill="#978DEF"/>
<path opacity="0.87" d="M94.5439 23.9409C95.5245 23.9409 96.3194 23.1037 96.3194 22.071C96.3194 21.0383 95.5245 20.2012 94.5439 20.2012C93.5634 20.2012 92.7684 21.0383 92.7684 22.071C92.7684 23.1037 93.5634 23.9409 94.5439 23.9409Z" fill="#978DEF"/>
<path opacity="0.87" d="M92.6159 23.0252C93.189 23.0252 93.6536 22.5358 93.6536 21.9323C93.6536 21.3287 93.189 20.8394 92.6159 20.8394C92.0427 20.8394 91.5781 21.3287 91.5781 21.9323C91.5781 22.5358 92.0427 23.0252 92.6159 23.0252Z" fill="#978DEF"/>
<path opacity="0.87" d="M32.0379 9.10435C32.0593 8.99151 32.0685 8.87868 32.0685 8.75939C32.0685 7.76966 31.3063 6.97013 30.3695 6.97013C30.0757 6.97013 29.8002 7.0475 29.5583 7.18613C29.0287 6.42207 28.1747 5.92236 27.2073 5.92236C25.6002 5.92236 24.2992 7.29252 24.2992 8.98507C24.2992 8.99151 24.2992 8.99796 24.2992 9.00763C22.7717 9.18817 21.584 10.5519 21.584 12.209C21.584 13.9886 22.9554 15.4329 24.6452 15.4329H31.2236C32.9134 15.4329 34.2848 13.9886 34.2848 12.209C34.2848 10.726 33.3327 9.48155 32.0379 9.10435Z" fill="#978DEF"/>
<path d="M26.7295 12.0605L26.7693 12.889C26.7938 13.3436 26.9101 13.479 27.1856 13.479H27.3111V14.2269H26.8703C26.3836 14.2269 26.0346 13.9368 25.9979 13.3081L25.9336 12.1959C25.9091 11.8154 25.8295 11.6994 25.502 11.6994V10.9547C25.8326 10.9547 25.9122 10.8386 25.9336 10.4582L25.9979 9.34593C26.0377 8.71727 26.3836 8.42712 26.8703 8.42712H27.3111V9.17184H27.1856C26.9101 9.17184 26.7907 9.30402 26.7693 9.76182L26.7295 10.5904C26.7142 10.8966 26.6193 11.219 26.2183 11.3286C26.6193 11.4318 26.7142 11.7542 26.7295 12.0605Z" fill="white"/>
<path d="M29.1422 10.5841L29.1024 9.75559C29.0779 9.30102 28.9616 9.16562 28.6861 9.16562H28.5605V8.4209H29.0014C29.4911 8.4209 29.8371 8.71105 29.8738 9.33971L29.9381 10.452C29.9626 10.8324 30.0391 10.9484 30.3697 10.9484V11.6932C30.0391 11.6932 29.9595 11.8092 29.9381 12.1896L29.8738 13.3019C29.834 13.9305 29.4881 14.2207 29.0014 14.2207H28.5605V13.4727H28.6861C28.9616 13.4727 29.0809 13.3406 29.1024 12.8828L29.1422 12.0542C29.1575 11.748 29.2524 11.4223 29.6534 11.316C29.2524 11.216 29.1575 10.8904 29.1422 10.5841Z" fill="white"/>
<path opacity="0.87" d="M66.2253 11.3191C66.2467 11.2062 66.259 11.0934 66.259 10.9741C66.259 9.98438 65.4967 9.18485 64.56 9.18485C64.2662 9.18485 63.9907 9.26222 63.7519 9.40085C63.2223 8.63679 62.3682 8.13708 61.4009 8.13708C59.7938 8.13708 58.4928 9.50724 58.4928 11.1998C58.4928 11.2062 58.4928 11.2127 58.4928 11.2224C56.9653 11.4029 55.7775 12.7666 55.7775 14.4237C55.7775 16.2033 57.1489 17.6476 58.8387 17.6476H65.411C67.1008 17.6476 68.4722 16.2033 68.4722 14.4237C68.4722 12.9407 67.5202 11.6963 66.2253 11.3191Z" fill="#978DEF"/>
<path d="M62.4111 9.91988C61.1927 9.75224 60.0785 10.6582 59.9193 11.938C59.7785 13.0729 60.4366 14.1238 61.4346 14.4656L61.4009 14.7364C61.3887 14.8234 61.4438 14.9008 61.5203 14.9266L61.3795 16.055L61.3305 16.0485C61.2815 16.0421 61.2356 16.0679 61.2295 16.1098L60.856 19.1273C60.8499 19.1725 60.8927 19.2176 60.9509 19.2273L60.9325 19.224L60.9203 19.3433C60.9172 19.3756 60.9448 19.4078 60.9876 19.4143L61.1744 19.44L61.3611 19.4658C61.404 19.4723 61.4407 19.4497 61.4438 19.4175L61.4591 19.2982L61.4407 19.295C61.4989 19.3014 61.5509 19.2724 61.557 19.224L61.9305 16.2065C61.9366 16.1678 61.8999 16.1291 61.8478 16.1227L61.7989 16.1162L61.9397 14.9878C62.0193 14.9878 62.0897 14.9234 62.1019 14.8363L62.1325 14.5849C63.2345 14.5849 64.1896 13.7273 64.3366 12.5474C64.4866 11.261 63.6294 10.0875 62.4111 9.91988ZM61.906 14.011C61.5784 13.9659 61.2846 13.824 61.0458 13.6177C60.7428 13.3533 60.5346 12.9858 60.4581 12.5731C60.4244 12.3926 60.4183 12.2024 60.4428 12.009C60.5621 11.0321 61.4131 10.3422 62.3437 10.4679C62.5274 10.4937 62.6988 10.5485 62.858 10.6291C63.2162 10.8097 63.5009 11.1192 63.6662 11.4931C63.7947 11.7865 63.8498 12.125 63.807 12.47C63.6845 13.45 62.8335 14.14 61.906 14.011Z" fill="white"/>
<path opacity="0.87" d="M14.0691 42.8199C14.0906 42.707 14.1028 42.5942 14.1028 42.4749C14.1028 41.4852 13.3406 40.6824 12.4008 40.6824C12.1069 40.6824 11.8314 40.7598 11.5926 40.8984C11.0631 40.1343 10.209 39.6346 9.24167 39.6346C7.63455 39.6346 6.33356 41.0048 6.33356 42.6973C6.33356 42.7038 6.33356 42.7102 6.33356 42.7199C4.80603 42.9004 3.6183 44.2642 3.6183 45.9212C3.6183 47.7008 4.9897 49.1451 6.67947 49.1451H13.2549C14.9446 49.1451 16.316 47.7008 16.316 45.9212C16.313 44.4415 15.364 43.1938 14.0691 42.8199Z" fill="#978DEF"/>
<path d="M11.6417 47.0659V46.3599L13.5397 45.6474L11.6417 44.9349V44.2289L14.406 45.2992V45.9956L11.6417 47.0659Z" fill="white"/>
<path d="M5.131 45.9955V45.2991L7.89523 44.2288V44.9348L5.99731 45.6473L7.89523 46.3598V47.0658L5.131 45.9955Z" fill="white"/>
<path d="M10.4666 43.4969H11.0452L9.36765 47.9814H8.78603L10.4666 43.4969Z" fill="white"/>
<path d="M76.789 11.2257V10.5197L78.687 9.80719L76.789 9.0947V8.38867L79.5533 9.45901V10.1554L76.789 11.2257Z" fill="#8F6FC9"/>
<path d="M70.2783 10.1552V9.45888L73.0425 8.38855V9.09458L71.1446 9.80706L73.0425 10.5195V11.2256L70.2783 10.1552Z" fill="#8F6FC9"/>
<path d="M75.6139 7.65674H76.1925L74.5149 12.1412H73.9364L75.6139 7.65674Z" fill="#8F6FC9"/>
<path d="M47.4236 11.5674L48.0603 12.2379C48.6695 11.5964 49.6338 11.5674 50.2093 12.1735L50.3776 11.9962L50.8827 11.4642C50.4266 10.9838 49.8205 10.7517 49.2052 10.7614C48.5685 10.7743 47.9226 11.0419 47.4236 11.5674Z" fill="#80A880"/>
<path d="M47.9379 9.42996C47.3746 9.64596 46.8389 9.99091 46.3828 10.4713L47.0195 11.1418C47.494 10.6421 48.0756 10.3326 48.6756 10.2069C49.6154 10.0135 50.6072 10.2746 51.3082 11.0161L51.9817 10.3069C50.9164 9.18172 49.3338 8.89801 47.9379 9.42996Z" fill="#80A880"/>
<path d="M48.4824 12.6831L49.1038 13.3375L49.762 12.6444C49.4191 12.2865 48.8467 12.3026 48.4824 12.6831Z" fill="#80A880"/>
<path d="M6.33356 22.9864L6.97028 23.657C7.57945 23.0155 8.54372 22.9864 9.11922 23.5925L9.28758 23.4152L9.79268 22.8833C9.33656 22.4029 8.73045 22.1708 8.11516 22.1805C7.47537 22.1934 6.82947 22.4609 6.33356 22.9864Z" fill="#8F6FC9"/>
<path d="M6.84783 20.849C6.28458 21.065 5.74887 21.4099 5.29276 21.8903L5.92948 22.5609C6.40396 22.0612 6.98558 21.7517 7.58557 21.6259C8.52535 21.4325 9.51717 21.6936 10.2182 22.4351L10.8916 21.7259C9.82329 20.5975 8.24372 20.317 6.84783 20.849Z" fill="#8F6FC9"/>
<path d="M7.39237 24.1018L8.01379 24.7563L8.67194 24.0632C8.32602 23.7021 7.75359 23.7182 7.39237 24.1018Z" fill="#8F6FC9"/>
<path d="M34.9802 8.58846C34.8945 8.58846 34.8271 8.51753 34.8271 8.42726C34.8271 8.26285 34.8302 8.09843 34.8394 7.93401C34.8455 7.84374 34.919 7.77604 35.0016 7.78249C35.0873 7.78893 35.1516 7.86308 35.1455 7.95335C35.1363 8.11132 35.1333 8.26929 35.1333 8.42726C35.1333 8.51753 35.0659 8.58846 34.9802 8.58846ZM35.0996 7.14415C35.0904 7.14415 35.0812 7.14415 35.072 7.14093C34.9894 7.12481 34.9343 7.04099 34.9465 6.95394C34.9741 6.79275 35.0047 6.63155 35.0414 6.47036C35.0598 6.38331 35.1424 6.32851 35.2251 6.35108C35.3078 6.37042 35.3567 6.45746 35.3384 6.54451C35.3047 6.69926 35.2741 6.854 35.2465 7.00875C35.2373 7.08935 35.1731 7.14415 35.0996 7.14415ZM35.4578 5.74498C35.4394 5.74498 35.421 5.74176 35.4057 5.73531C35.3261 5.70307 35.2863 5.6128 35.3139 5.52898C35.369 5.37423 35.4271 5.22271 35.4884 5.07119C35.522 4.99059 35.6108 4.9519 35.6904 4.98737C35.7669 5.02283 35.8037 5.11632 35.77 5.20014C35.7088 5.34522 35.6537 5.49029 35.6016 5.64182C35.5771 5.70307 35.519 5.74498 35.4578 5.74498ZM36.0424 4.43286C36.0149 4.43286 35.9904 4.42641 35.9659 4.41029C35.8924 4.36516 35.8679 4.26521 35.9108 4.19106C35.9904 4.04921 36.073 3.90736 36.1588 3.77196C36.2047 3.69781 36.2996 3.67847 36.37 3.72682C36.4404 3.77518 36.4588 3.87512 36.4128 3.94927C36.3302 4.08145 36.2506 4.21363 36.1741 4.35226C36.1465 4.40384 36.0945 4.43286 36.0424 4.43286ZM36.8353 3.24969C36.8016 3.24969 36.7649 3.23679 36.7373 3.211C36.673 3.15297 36.6638 3.05303 36.719 2.9821C36.82 2.85637 36.924 2.73386 37.0312 2.61458C37.0894 2.5501 37.1873 2.54688 37.2485 2.60813C37.3098 2.66939 37.3128 2.77255 37.2547 2.83703C37.1506 2.94986 37.0526 3.06915 36.9547 3.18843C36.921 3.23034 36.8781 3.24969 36.8353 3.24969ZM48.2871 2.65004C48.2473 2.65004 48.2106 2.63392 48.18 2.60491C48.0728 2.4953 47.9626 2.38891 47.8463 2.28574C47.782 2.22771 47.7759 2.12455 47.831 2.05685C47.8861 1.98914 47.984 1.9827 48.0483 2.04073C48.1677 2.14711 48.281 2.25995 48.3942 2.37279C48.4555 2.43404 48.4555 2.53721 48.3973 2.60168C48.3667 2.6307 48.3269 2.65004 48.2871 2.65004ZM37.8118 2.23094C37.7689 2.23094 37.723 2.21159 37.6955 2.17291C37.6404 2.1052 37.6495 2.00204 37.7169 1.94723C37.8363 1.84407 37.9587 1.7409 38.0842 1.64419C38.1516 1.5926 38.2495 1.6055 38.2985 1.67965C38.3475 1.75058 38.3352 1.85374 38.2679 1.90532C38.1455 1.99882 38.0291 2.09553 37.9128 2.1987C37.8822 2.21804 37.8485 2.23094 37.8118 2.23094ZM47.2188 1.73446C47.1881 1.73446 47.1606 1.72478 47.133 1.70867C47.0075 1.62162 46.882 1.53457 46.7535 1.45398C46.68 1.40884 46.6555 1.3089 46.7014 1.23475C46.7443 1.15738 46.8392 1.13159 46.9096 1.17995C47.0443 1.26377 47.1759 1.35081 47.3045 1.44431C47.3749 1.49266 47.3932 1.5926 47.3443 1.66675C47.3167 1.71189 47.2677 1.73446 47.2188 1.73446ZM38.9444 1.40562C38.8924 1.40562 38.8403 1.3766 38.8128 1.32502C38.7699 1.24765 38.7975 1.15093 38.871 1.1058C39.0056 1.0252 39.1434 0.947825 39.2842 0.873676C39.3607 0.834989 39.4526 0.867228 39.4893 0.947825C39.526 1.02842 39.4954 1.12514 39.4189 1.16383C39.2842 1.23475 39.1526 1.3089 39.0209 1.38628C38.9965 1.39917 38.9689 1.40562 38.9444 1.40562ZM46.0157 1.03165C45.9943 1.03165 45.9729 1.02842 45.9545 1.01875C45.8167 0.954273 45.679 0.893019 45.5382 0.838213C45.4586 0.805974 45.4188 0.712481 45.4494 0.631884C45.48 0.548062 45.5657 0.506152 45.6453 0.538391C45.7923 0.596421 45.9361 0.657675 46.08 0.725377C46.1565 0.760839 46.1933 0.857556 46.1565 0.938154C46.129 0.996184 46.0739 1.03165 46.0157 1.03165ZM40.1934 0.799526C40.1291 0.799526 40.0709 0.757616 40.0495 0.693138C40.022 0.609316 40.0617 0.515823 40.1413 0.486808C40.2883 0.432002 40.4352 0.38042 40.5883 0.335285C40.6679 0.309494 40.7536 0.357852 40.7781 0.444898C40.8026 0.531943 40.7566 0.618988 40.674 0.644779C40.5301 0.689914 40.3862 0.738272 40.2454 0.789855C40.227 0.796302 40.2087 0.799526 40.1934 0.799526ZM44.7147 0.560958C44.7025 0.560958 44.6902 0.560958 44.678 0.557734C44.5341 0.519047 44.3872 0.486808 44.2372 0.457793C44.1545 0.441674 44.0994 0.357852 44.1147 0.270807C44.13 0.183762 44.2096 0.125732 44.2923 0.141851C44.4453 0.170866 44.5984 0.206329 44.7484 0.245016C44.831 0.267583 44.88 0.354629 44.8617 0.441674C44.8464 0.512599 44.7821 0.560958 44.7147 0.560958ZM41.525 0.435226C41.4515 0.435226 41.3872 0.38042 41.375 0.299822C41.3627 0.212777 41.4178 0.128956 41.5005 0.112836C41.6536 0.0870452 41.8097 0.0644779 41.9627 0.0451345C42.0454 0.0354629 42.1219 0.0999408 42.1311 0.186986C42.1403 0.274031 42.0791 0.354629 41.9964 0.3643C41.8464 0.38042 41.6964 0.402987 41.5495 0.428778C41.5403 0.435226 41.5311 0.435226 41.525 0.435226ZM43.3556 0.341733C43.3525 0.341733 43.3494 0.341733 43.3464 0.341733C43.1964 0.328837 43.0433 0.32239 42.8933 0.32239C42.8076 0.32239 42.7403 0.24824 42.7403 0.161195C42.7403 0.0741496 42.8107 0 42.8933 0C43.0494 0 43.2056 0.00644779 43.3617 0.0193434C43.4474 0.0257912 43.5086 0.103165 43.5056 0.19021C43.5025 0.274031 43.4352 0.341733 43.3556 0.341733Z" fill="#8F6FC9"/>
<path d="M50.2612 4.76516L49.1286 1.66699L47.4082 3.35631L50.2612 4.76516Z" fill="#8F6FC9"/>
<path d="M89.4103 51.1371C89.5388 51.221 89.6705 51.2983 89.7991 51.3725C89.8725 51.4144 89.9001 51.5111 89.8603 51.5917C89.8205 51.6691 89.7286 51.6981 89.6521 51.6562C89.5144 51.5788 89.3797 51.4982 89.245 51.4112C89.1715 51.366 89.1501 51.2661 89.196 51.1887C89.245 51.1146 89.3399 51.092 89.4103 51.1371ZM90.6194 51.7723C90.7603 51.8303 90.9011 51.8851 91.0419 51.9335C91.1215 51.9625 91.1643 52.0527 91.1398 52.1366C91.1154 52.2204 91.0266 52.2655 90.947 52.2397C90.8001 52.1881 90.6531 52.1333 90.5062 52.0721C90.4266 52.0398 90.3899 51.9463 90.4205 51.8625C90.4235 51.8529 90.4266 51.8464 90.4327 51.8367C90.4694 51.7723 90.549 51.7432 90.6194 51.7723ZM91.9113 52.1752C92.0582 52.2075 92.2082 52.2333 92.3551 52.2558C92.4378 52.2687 92.4959 52.3493 92.4837 52.4396C92.4714 52.5299 92.3949 52.5879 92.3092 52.575C92.1561 52.5524 92 52.5234 91.847 52.4912C91.7643 52.4751 91.7092 52.388 91.7276 52.301C91.7306 52.2816 91.7368 52.2655 91.7459 52.2494C91.7827 52.1946 91.847 52.1623 91.9113 52.1752ZM93.252 52.3332C93.402 52.3364 93.552 52.3364 93.702 52.33C93.7878 52.3268 93.8582 52.3945 93.8612 52.4847C93.8643 52.575 93.8 52.6492 93.7143 52.6524C93.5582 52.6588 93.402 52.6588 93.2459 52.6556C93.1602 52.6524 93.0959 52.5815 93.0959 52.4912C93.0959 52.4622 93.1051 52.4332 93.1174 52.4106C93.1449 52.3622 93.1969 52.3332 93.252 52.3332ZM94.599 52.2429C94.7459 52.2204 94.8959 52.1914 95.0428 52.1559C95.1255 52.1366 95.2081 52.1914 95.2234 52.2784C95.2418 52.3655 95.1898 52.4525 95.1071 52.4686C94.9541 52.5041 94.801 52.5331 94.6479 52.5589C94.5653 52.5718 94.4857 52.5105 94.4735 52.4235C94.4673 52.3848 94.4765 52.3461 94.4949 52.3139C94.5132 52.2784 94.553 52.2494 94.599 52.2429ZM101.064 42.2811C101.147 42.2618 101.229 42.3166 101.248 42.4036C101.281 42.5648 101.312 42.726 101.337 42.8872C101.349 42.9742 101.294 43.0581 101.211 43.071C101.128 43.0839 101.049 43.0258 101.037 42.9388C101.012 42.784 100.985 42.6293 100.951 42.4745C100.942 42.4326 100.951 42.3907 100.969 42.3553C100.988 42.3166 101.021 42.2908 101.064 42.2811ZM95.9091 51.9044C96.05 51.8529 96.1908 51.798 96.3316 51.74C96.4112 51.7078 96.4999 51.7465 96.5306 51.8303C96.5612 51.9141 96.5244 52.0076 96.4448 52.0398C96.301 52.1011 96.154 52.1591 96.0071 52.2107C95.9275 52.2397 95.8387 52.1946 95.8142 52.1108C95.7989 52.0624 95.8051 52.014 95.8295 51.9754C95.8449 51.9431 95.8724 51.9173 95.9091 51.9044ZM101.272 43.7125C101.358 43.7093 101.428 43.777 101.431 43.8673C101.438 44.0317 101.441 44.1961 101.438 44.3605C101.438 44.4508 101.367 44.5217 101.281 44.5185C101.196 44.5153 101.128 44.4443 101.131 44.3541C101.135 44.1961 101.131 44.0381 101.125 43.8802C101.125 43.8479 101.131 43.8157 101.147 43.7899C101.174 43.7448 101.217 43.7157 101.272 43.7125ZM97.1428 51.3338C97.2744 51.2597 97.403 51.1791 97.5316 51.0952C97.602 51.0469 97.6969 51.0694 97.7428 51.1468C97.7887 51.221 97.7673 51.3209 97.6938 51.3693C97.5622 51.4563 97.4275 51.5401 97.2897 51.6175C97.2163 51.6594 97.1214 51.6304 97.0816 51.553C97.054 51.5015 97.0571 51.4402 97.0846 51.3918C97.0999 51.366 97.1183 51.3467 97.1428 51.3338ZM101.239 45.16C101.321 45.1729 101.383 45.2535 101.37 45.3406C101.349 45.5018 101.324 45.6662 101.294 45.8274C101.278 45.9144 101.199 45.9725 101.113 45.9563C101.03 45.9402 100.975 45.8532 100.991 45.7661C101.018 45.6114 101.043 45.4534 101.064 45.2987C101.067 45.2761 101.073 45.2535 101.086 45.2342C101.119 45.1826 101.177 45.1536 101.239 45.16ZM98.2662 50.544C98.3826 50.444 98.4958 50.3441 98.6091 50.2377C98.6703 50.1764 98.7683 50.1829 98.8264 50.2474C98.8846 50.3118 98.8785 50.415 98.8172 50.4763C98.7009 50.5859 98.5815 50.6923 98.4622 50.7954C98.3948 50.8502 98.2999 50.8405 98.2479 50.7696C98.205 50.7148 98.205 50.6407 98.2356 50.5826C98.2387 50.5697 98.2509 50.5568 98.2662 50.544ZM100.963 46.5818C101.043 46.6076 101.089 46.6978 101.061 46.7849C101.015 46.9396 100.963 47.0944 100.905 47.2491C100.874 47.333 100.786 47.3749 100.706 47.3426C100.626 47.3104 100.587 47.2169 100.617 47.1331C100.672 46.9848 100.721 46.8365 100.767 46.6849C100.77 46.6721 100.776 46.6592 100.783 46.6495C100.822 46.5882 100.896 46.5592 100.963 46.5818ZM99.2366 49.5574C99.3346 49.4382 99.4295 49.3156 99.5213 49.1899C99.5734 49.119 99.6683 49.1061 99.7356 49.1609C99.8029 49.2157 99.8152 49.3156 99.7631 49.3866C99.6683 49.5188 99.5672 49.6445 99.4662 49.767C99.4111 49.8347 99.3132 49.8411 99.2519 49.7831C99.1938 49.7315 99.1846 49.6445 99.2213 49.5768C99.2244 49.5736 99.2305 49.5671 99.2366 49.5574ZM100.458 47.9294C100.532 47.9713 100.562 48.068 100.522 48.1486C100.449 48.2937 100.372 48.4355 100.293 48.5774C100.25 48.6515 100.155 48.6773 100.085 48.6322C100.011 48.587 99.9897 48.4871 100.033 48.4097C100.109 48.2743 100.186 48.1357 100.253 47.9971C100.256 47.9939 100.256 47.9906 100.259 47.9874C100.296 47.9165 100.385 47.8907 100.458 47.9294Z" fill="#8F6FC9"/>
<path d="M100.287 39.4731L102.203 42.1103L99.9346 42.7712L100.287 39.4731Z" fill="#8F6FC9"/>
<path d="M87.3132 16.5128C87.3928 16.3774 87.4663 16.2388 87.5367 16.1034C87.5765 16.026 87.6683 15.997 87.7448 16.0389C87.8183 16.0808 87.8458 16.1775 87.806 16.2581C87.7326 16.4032 87.656 16.545 87.5734 16.6837C87.5275 16.761 87.4357 16.7836 87.3622 16.7352C87.2918 16.6869 87.2703 16.587 87.3132 16.5128ZM87.9163 15.2426C87.9714 15.0943 88.0234 14.946 88.0693 14.7977C88.0969 14.7139 88.1826 14.6687 88.2622 14.6945C88.3417 14.7203 88.3877 14.8138 88.3601 14.8976C88.3111 15.0524 88.2591 15.2071 88.2009 15.3619C88.1703 15.4457 88.0816 15.4844 88.002 15.4521C87.9928 15.4489 87.9867 15.4457 87.9775 15.4392C87.9162 15.3973 87.8887 15.3135 87.9163 15.2426ZM88.2989 13.8789C88.3295 13.7241 88.354 13.5694 88.3754 13.4114C88.3877 13.3244 88.4642 13.2631 88.5499 13.2728C88.6356 13.2857 88.6907 13.3663 88.6785 13.4565C88.6571 13.6177 88.6295 13.7822 88.5989 13.9434C88.5836 14.0304 88.5009 14.0884 88.4183 14.0691C88.3999 14.0659 88.3846 14.0594 88.3693 14.0497C88.3173 14.0143 88.2867 13.9466 88.2989 13.8789ZM88.4489 12.4668C88.452 12.3088 88.452 12.1509 88.4458 11.9929C88.4428 11.9026 88.5101 11.8285 88.5928 11.8253C88.6785 11.822 88.7489 11.8897 88.7519 11.98C88.7581 12.1444 88.7581 12.3088 88.755 12.4733C88.752 12.5635 88.6846 12.6312 88.5989 12.6312C88.5713 12.6312 88.5438 12.6216 88.5224 12.6087C88.4764 12.5796 88.4489 12.5281 88.4489 12.4668ZM88.3632 11.0483C88.3418 10.8903 88.3142 10.7356 88.2805 10.5808C88.2622 10.4938 88.3142 10.4067 88.3969 10.3906C88.4795 10.3713 88.5591 10.4261 88.5775 10.5131C88.6111 10.6743 88.6387 10.8355 88.6632 10.9967C88.6754 11.0838 88.6173 11.1676 88.5346 11.1805C88.4979 11.1869 88.4611 11.1773 88.4305 11.1579C88.3969 11.1386 88.3693 11.0967 88.3632 11.0483ZM78.9042 4.23943C78.8858 4.15238 78.9379 4.06534 79.0205 4.04599C79.1736 4.01053 79.3266 3.97829 79.4797 3.9525C79.5623 3.93961 79.6419 3.99764 79.6542 4.08468C79.6664 4.17173 79.6113 4.25555 79.5286 4.26844C79.3817 4.29423 79.2317 4.32325 79.0878 4.35871C79.048 4.36838 79.0083 4.35871 78.9746 4.33937C78.9378 4.32003 78.9134 4.28456 78.9042 4.23943ZM88.0418 9.66847C87.9928 9.52017 87.9407 9.37187 87.8856 9.22357C87.855 9.13975 87.8918 9.04626 87.9714 9.01402C88.0509 8.98178 88.1397 9.02047 88.1703 9.10429C88.2285 9.25581 88.2836 9.41056 88.3326 9.5653C88.3601 9.64913 88.3173 9.74262 88.2377 9.76841C88.1918 9.78453 88.1458 9.77808 88.1091 9.75229C88.0785 9.73617 88.054 9.70716 88.0418 9.66847ZM80.2633 4.0202C80.2603 3.92993 80.3246 3.85578 80.4103 3.85256C80.5664 3.84611 80.7225 3.84289 80.8786 3.84611C80.9643 3.84611 81.0317 3.92026 81.0286 4.01053C81.0286 4.1008 80.9582 4.17173 80.8725 4.1685C80.7225 4.16528 80.5725 4.1685 80.4225 4.17495C80.3919 4.17495 80.3613 4.1685 80.3368 4.15238C80.2939 4.12337 80.2664 4.07823 80.2633 4.0202ZM87.4999 8.36924C87.4295 8.23061 87.353 8.09521 87.2734 7.95981C87.2275 7.88566 87.2489 7.78571 87.3224 7.73736C87.3928 7.689 87.4877 7.71156 87.5336 7.78894C87.6163 7.92757 87.6959 8.06942 87.7724 8.21449C87.8122 8.29187 87.7846 8.39181 87.7112 8.43372C87.6622 8.46273 87.604 8.45951 87.5581 8.43049C87.5305 8.41437 87.5122 8.39503 87.4999 8.36924ZM81.6378 4.05567C81.65 3.96862 81.7266 3.90414 81.8092 3.91704C81.9623 3.93961 82.1184 3.9654 82.2715 3.99764C82.3541 4.01376 82.4092 4.09758 82.3939 4.18785C82.3786 4.27489 82.2959 4.33292 82.2133 4.3168C82.0664 4.28779 81.9164 4.262 81.7694 4.23943C81.748 4.2362 81.7266 4.22976 81.7082 4.21686C81.6623 4.1814 81.6317 4.12014 81.6378 4.05567ZM86.75 7.18929C86.6551 7.06679 86.5602 6.9475 86.4561 6.82822C86.3979 6.76374 86.404 6.66057 86.4653 6.59932C86.5265 6.53807 86.6244 6.54451 86.6826 6.60899C86.7867 6.7315 86.8877 6.85723 86.9857 6.98296C87.0377 7.05067 87.0285 7.15383 86.9612 7.20864C86.9091 7.25377 86.8387 7.25377 86.7836 7.22153C86.7744 7.21508 86.7622 7.20219 86.75 7.18929ZM82.9878 4.34582C83.0123 4.262 83.098 4.21364 83.1806 4.24265C83.3276 4.29101 83.4745 4.34582 83.6214 4.40707C83.701 4.43931 83.7408 4.5328 83.7102 4.61662C83.6796 4.70045 83.5908 4.74236 83.5112 4.71012C83.3704 4.65209 83.2296 4.6005 83.0857 4.55215C83.0735 4.54892 83.0612 4.54247 83.0521 4.53603C82.9939 4.49412 82.9663 4.41674 82.9878 4.34582ZM85.8163 6.16409C85.703 6.06093 85.5867 5.96099 85.4673 5.86427C85.4 5.80947 85.3877 5.70953 85.4398 5.6386C85.4918 5.56767 85.5867 5.55478 85.654 5.60958C85.7796 5.70952 85.8989 5.81591 86.0153 5.9223C86.0795 5.98033 86.0857 6.0835 86.0306 6.1512C85.9816 6.21245 85.8989 6.22212 85.8347 6.18344C85.8285 6.17699 85.8224 6.17054 85.8163 6.16409ZM84.2673 4.88098C84.3071 4.80361 84.399 4.77137 84.4755 4.81328C84.6132 4.89066 84.7479 4.97125 84.8826 5.05507C84.953 5.10021 84.9775 5.20015 84.9347 5.2743C84.8918 5.35167 84.7969 5.37424 84.7235 5.32911C84.5949 5.24851 84.4633 5.16791 84.3316 5.09699C84.3286 5.09376 84.3255 5.09376 84.3224 5.09054C84.2551 5.04863 84.2306 4.95513 84.2673 4.88098Z" fill="#8F6FC9"/>
<path d="M76.2384 5.05832L78.7424 3.04016L79.37 5.42907L76.2384 5.05832Z" fill="#8F6FC9"/>
<path d="M13.0005 61.4411C13.0433 61.5185 13.0219 61.6152 12.9485 61.6635C12.8138 61.7506 12.6791 61.8312 12.5444 61.9086C12.4709 61.9505 12.376 61.9182 12.3362 61.8441C12.2964 61.7667 12.324 61.6668 12.3974 61.6249C12.5291 61.5507 12.6607 61.4701 12.7893 61.3895C12.8627 61.3412 12.9576 61.3637 13.0005 61.4411ZM11.7699 62.0891C11.773 62.0955 11.7791 62.1052 11.7821 62.1149C11.8128 62.1987 11.773 62.2922 11.6964 62.3244C11.5495 62.3857 11.4026 62.4405 11.2556 62.4921C11.176 62.5211 11.0873 62.476 11.0628 62.3889C11.0352 62.3051 11.0811 62.2116 11.1607 62.1858C11.3015 62.1375 11.4454 62.0827 11.5832 62.0246C11.6536 61.9924 11.7332 62.0246 11.7699 62.0891ZM10.4505 62.4985C10.4597 62.5147 10.4658 62.5308 10.4689 62.5501C10.4873 62.6372 10.4322 62.7242 10.3495 62.7403C10.1965 62.7726 10.0434 62.8016 9.88728 62.8241C9.80463 62.837 9.72504 62.7758 9.7128 62.6887C9.70055 62.6017 9.75872 62.5179 9.84443 62.505C9.99136 62.4824 10.1414 62.4566 10.2883 62.4244C10.3556 62.4115 10.4169 62.4437 10.4505 62.4985ZM9.0822 62.6597C9.09444 62.6823 9.10363 62.7113 9.10363 62.7403C9.10669 62.8306 9.03934 62.9047 8.95363 62.9047C8.79751 62.908 8.64139 62.908 8.48527 62.9015C8.39956 62.8983 8.33527 62.8241 8.33833 62.7339C8.34139 62.6436 8.4118 62.5759 8.49751 62.5791C8.64751 62.5856 8.79751 62.5856 8.94751 62.5824C9.00567 62.5824 9.05465 62.6146 9.0822 62.6597ZM7.71079 62.5662C7.72916 62.5985 7.73835 62.6339 7.73222 62.6759C7.71998 62.7629 7.64039 62.8242 7.55774 62.8113C7.40468 62.7855 7.24856 62.7564 7.09856 62.721C7.01591 62.7016 6.96387 62.6146 6.98224 62.5308C7.0006 62.4437 7.08019 62.3889 7.16285 62.4083C7.30978 62.4405 7.45672 62.4695 7.60671 62.4953C7.64957 62.4985 7.68631 62.5276 7.71079 62.5662ZM1.23336 52.6044C1.25479 52.6399 1.26091 52.6818 1.25173 52.7237C1.21806 52.8784 1.19051 53.0332 1.16602 53.1879C1.15377 53.275 1.07418 53.3362 0.991531 53.3201C0.908879 53.3072 0.850717 53.2234 0.866023 53.1363C0.890512 52.9751 0.921124 52.814 0.954797 52.6528C0.973164 52.5657 1.05582 52.5109 1.13847 52.5303C1.17826 52.5399 1.21193 52.5657 1.23336 52.6044ZM6.37306 62.2245C6.39449 62.2632 6.40368 62.3148 6.38837 62.3599C6.36082 62.4437 6.27511 62.4889 6.19552 62.4599C6.04858 62.4083 5.90164 62.3502 5.75777 62.289C5.67818 62.2567 5.64145 62.16 5.67206 62.0794C5.70267 61.9956 5.79144 61.9569 5.87103 61.9892C6.00879 62.0472 6.1496 62.1052 6.29347 62.1536C6.32715 62.1665 6.3547 62.1923 6.37306 62.2245ZM1.05275 54.039C1.06806 54.0648 1.07724 54.0971 1.07418 54.1293C1.06806 54.2873 1.065 54.4452 1.06806 54.6032C1.06806 54.6935 1.00071 54.7644 0.918063 54.7676C0.83235 54.7676 0.765004 54.6967 0.761943 54.6097C0.758882 54.4452 0.761943 54.2808 0.768065 54.1164C0.771127 54.0261 0.844595 53.9584 0.927246 53.9617C0.982347 53.9649 1.02826 53.9939 1.05275 54.039ZM5.11492 61.641C5.14247 61.6893 5.14553 61.7506 5.11798 61.8022C5.07819 61.8795 4.98329 61.9086 4.90983 61.8667C4.77207 61.7893 4.63738 61.7055 4.50575 61.6184C4.43228 61.5701 4.41392 61.4733 4.45677 61.396C4.50269 61.3218 4.59759 61.2992 4.66799 61.3444C4.79656 61.4282 4.92513 61.5088 5.05676 61.583C5.08125 61.5991 5.10268 61.6184 5.11492 61.641ZM1.11398 55.4866C1.12622 55.5059 1.13234 55.5252 1.13541 55.551C1.15377 55.7058 1.17826 55.8638 1.20887 56.0185C1.22418 56.1055 1.17214 56.1894 1.08643 56.2087C1.00378 56.2248 0.924185 56.17 0.905818 56.0798C0.875206 55.9186 0.850717 55.7541 0.829289 55.593C0.817044 55.5059 0.878268 55.4253 0.960919 55.4124C1.0252 55.4027 1.08337 55.435 1.11398 55.4866ZM3.97005 60.835C4.00372 60.8898 4.00066 60.9672 3.9578 61.022C3.90576 61.0897 3.8078 61.1026 3.74352 61.0478C3.62107 60.9446 3.50475 60.8382 3.38842 60.7286C3.32414 60.6706 3.32108 60.5674 3.37924 60.4997C3.4374 60.4352 3.5323 60.4288 3.59658 60.4901C3.70679 60.5964 3.82311 60.6996 3.93944 60.7963C3.95168 60.806 3.96392 60.8189 3.97005 60.835ZM1.41397 56.9019C1.42009 56.9115 1.42622 56.9244 1.42928 56.9373C1.4752 57.0856 1.52417 57.2371 1.57927 57.3854C1.60989 57.4693 1.57009 57.5627 1.4905 57.595C1.41091 57.6272 1.32214 57.5853 1.29153 57.5015C1.23642 57.3468 1.18438 57.192 1.13541 57.0373C1.11092 56.9534 1.15377 56.8632 1.23336 56.8341C1.30683 56.8084 1.37724 56.8406 1.41397 56.9019ZM2.98129 59.8292C3.01802 59.8936 3.00884 59.9839 2.95068 60.0355C2.88639 60.0935 2.7915 60.0871 2.73334 60.0194C2.63232 59.8969 2.5313 59.7679 2.4364 59.6389C2.38436 59.568 2.39661 59.4681 2.46395 59.4133C2.5313 59.3585 2.62619 59.3714 2.67823 59.4423C2.77007 59.568 2.86497 59.6905 2.96292 59.8098C2.97211 59.8163 2.97823 59.8227 2.98129 59.8292ZM1.94662 58.2365C1.94968 58.2398 1.94968 58.243 1.95274 58.2462C2.02314 58.3848 2.09661 58.5235 2.17314 58.6589C2.216 58.7362 2.19457 58.833 2.1211 58.8813C2.04763 58.9265 1.9558 58.9039 1.91294 58.8265C1.83335 58.6847 1.75682 58.5428 1.68335 58.3977C1.64356 58.3204 1.67111 58.2204 1.74764 58.1785C1.81805 58.1398 1.90376 58.1656 1.94662 58.2365Z" fill="#8F6FC9"/>
<path d="M1.91629 49.7222L0 52.3593L2.26833 53.0202L1.91629 49.7222Z" fill="#8F6FC9"/>
<path d="M52.7742 5.43869C52.7742 5.74173 52.5415 5.98675 52.2538 5.98675C51.966 5.98675 51.7334 5.74173 51.7334 5.43869C51.7334 5.13564 51.966 4.89062 52.2538 4.89062C52.5415 4.89062 52.7742 5.13564 52.7742 5.43869Z" fill="#8F6FC9"/>
<path d="M54.4032 5.98675C54.6906 5.98675 54.9236 5.74137 54.9236 5.43869C54.9236 5.136 54.6906 4.89062 54.4032 4.89062C54.1158 4.89062 53.8828 5.136 53.8828 5.43869C53.8828 5.74137 54.1158 5.98675 54.4032 5.98675Z" fill="#8F6FC9"/>
<path d="M57.0721 5.43869C57.0721 5.74173 56.8394 5.98675 56.5517 5.98675C56.2639 5.98675 56.0313 5.74173 56.0313 5.43869C56.0313 5.13564 56.2639 4.89062 56.5517 4.89062C56.8394 4.89062 57.0721 5.13564 57.0721 5.43869Z" fill="#8F6FC9"/>
<path d="M58.704 5.98675C58.9914 5.98675 59.2244 5.74137 59.2244 5.43869C59.2244 5.136 58.9914 4.89062 58.704 4.89062C58.4166 4.89062 58.1836 5.136 58.1836 5.43869C58.1836 5.74137 58.4166 5.98675 58.704 5.98675Z" fill="#8F6FC9"/>
<path d="M65.246 2.94036C65.5334 2.94036 65.7664 2.69499 65.7664 2.3923C65.7664 2.08961 65.5334 1.84424 65.246 1.84424C64.9586 1.84424 64.7256 2.08961 64.7256 2.3923C64.7256 2.69499 64.9586 2.94036 65.246 2.94036Z" fill="#80A880"/>
<path d="M67.3983 2.94036C67.6857 2.94036 67.9187 2.69499 67.9187 2.3923C67.9187 2.08961 67.6857 1.84424 67.3983 1.84424C67.1109 1.84424 66.8779 2.08961 66.8779 2.3923C66.8779 2.69499 67.1109 2.94036 67.3983 2.94036Z" fill="#80A880"/>
<path d="M70.0673 2.3923C70.0673 2.69535 69.8347 2.94036 69.5469 2.94036C69.2592 2.94036 69.0265 2.69535 69.0265 2.3923C69.0265 2.08925 69.2592 1.84424 69.5469 1.84424C69.8347 1.84424 70.0673 2.08925 70.0673 2.3923Z" fill="#80A880"/>
<path d="M71.6962 2.94036C71.9836 2.94036 72.2166 2.69499 72.2166 2.3923C72.2166 2.08961 71.9836 1.84424 71.6962 1.84424C71.4088 1.84424 71.1758 2.08961 71.1758 2.3923C71.1758 2.69499 71.4088 2.94036 71.6962 2.94036Z" fill="#80A880"/>
<path d="M8.7978 54.5644C8.7978 54.8675 8.56515 55.1125 8.2774 55.1125C7.98965 55.1125 7.757 54.8675 7.757 54.5644C7.757 54.2614 7.98965 54.0164 8.2774 54.0164C8.56515 54.0164 8.7978 54.2646 8.7978 54.5644Z" fill="#8F6FC9"/>
<path d="M10.4268 55.1125C10.7142 55.1125 10.9472 54.8671 10.9472 54.5644C10.9472 54.2617 10.7142 54.0164 10.4268 54.0164C10.1394 54.0164 9.90641 54.2617 9.90641 54.5644C9.90641 54.8671 10.1394 55.1125 10.4268 55.1125Z" fill="#8F6FC9"/>
<path d="M12.5783 55.1125C12.8657 55.1125 13.0987 54.8671 13.0987 54.5644C13.0987 54.2617 12.8657 54.0164 12.5783 54.0164C12.2909 54.0164 12.0579 54.2617 12.0579 54.5644C12.0579 54.8671 12.2909 55.1125 12.5783 55.1125Z" fill="#8F6FC9"/>
<path d="M15.248 54.5644C15.248 54.8675 15.0153 55.1125 14.7276 55.1125C14.4398 55.1125 14.2072 54.8675 14.2072 54.5644C14.2072 54.2614 14.4398 54.0164 14.7276 54.0164C15.0153 54.0164 15.248 54.2646 15.248 54.5644Z" fill="#8F6FC9"/>
<path d="M1.90711 37.3681C1.90711 37.6712 1.67446 37.9162 1.38671 37.9162C1.09896 37.9162 0.86631 37.6712 0.86631 37.3681C0.86631 37.0651 1.09896 36.8201 1.38671 36.8201C1.67446 36.8201 1.90711 37.0651 1.90711 37.3681Z" fill="#80A880"/>
<path d="M4.05652 37.3681C4.05652 37.6712 3.82387 37.9162 3.53612 37.9162C3.24837 37.9162 3.01572 37.6712 3.01572 37.3681C3.01572 37.0651 3.24837 36.8201 3.53612 36.8201C3.82387 36.8201 4.05652 37.0651 4.05652 37.3681Z" fill="#80A880"/>
<path d="M5.68459 37.9162C5.97199 37.9162 6.20499 37.6708 6.20499 37.3681C6.20499 37.0654 5.97199 36.8201 5.68459 36.8201C5.39718 36.8201 5.16419 37.0654 5.16419 37.3681C5.16419 37.6708 5.39718 37.9162 5.68459 37.9162Z" fill="#80A880"/>
<path d="M8.3573 37.3681C8.3573 37.6712 8.12465 37.9162 7.8369 37.9162C7.54915 37.9162 7.31651 37.6712 7.31651 37.3681C7.31651 37.0651 7.54915 36.8201 7.8369 36.8201C8.12465 36.8201 8.3573 37.0651 8.3573 37.3681Z" fill="#80A880"/>
<path d="M92.0711 45.6472C92.0711 45.9502 91.8384 46.1952 91.5507 46.1952C91.2629 46.1952 91.0303 45.9502 91.0303 45.6472C91.0303 45.3441 91.2629 45.0991 91.5507 45.0991C91.8384 45.0991 92.0711 45.3441 92.0711 45.6472Z" fill="#80A880"/>
<path d="M94.2205 45.6472C94.2205 45.9502 93.9878 46.1952 93.7001 46.1952C93.4123 46.1952 93.1797 45.9502 93.1797 45.6472C93.1797 45.3441 93.4123 45.0991 93.7001 45.0991C93.9878 45.0991 94.2205 45.3441 94.2205 45.6472Z" fill="#80A880"/>
<path d="M96.369 45.6472C96.369 45.9502 96.1363 46.1952 95.8485 46.1952C95.5608 46.1952 95.3282 45.9502 95.3282 45.6472C95.3282 45.3441 95.5608 45.0991 95.8485 45.0991C96.1363 45.0991 96.369 45.3441 96.369 45.6472Z" fill="#80A880"/>
<path d="M98.5213 45.6472C98.5213 45.9502 98.2886 46.1952 98.0009 46.1952C97.7131 46.1952 97.4805 45.9502 97.4805 45.6472C97.4805 45.3441 97.7131 45.0991 98.0009 45.0991C98.2856 45.0991 98.5213 45.3441 98.5213 45.6472Z" fill="#80A880"/>
<path d="M90.2498 42.5974C90.2498 42.9004 90.0171 43.1454 89.7294 43.1454C89.4416 43.1454 89.209 42.9004 89.209 42.5974C89.209 42.2943 89.4416 42.0493 89.7294 42.0493C90.0171 42.0493 90.2498 42.2943 90.2498 42.5974Z" fill="#FFEFB0"/>
<path d="M92.3992 42.5974C92.3992 42.9004 92.1666 43.1454 91.8788 43.1454C91.5911 43.1454 91.3584 42.9004 91.3584 42.5974C91.3584 42.2943 91.5911 42.0493 91.8788 42.0493C92.1666 42.0493 92.3992 42.2943 92.3992 42.5974Z" fill="#FFEFB0"/>
<path d="M94.5477 42.5974C94.5477 42.9004 94.315 43.1454 94.0273 43.1454C93.7395 43.1454 93.5069 42.9004 93.5069 42.5974C93.5069 42.2943 93.7395 42.0493 94.0273 42.0493C94.315 42.0493 94.5477 42.2943 94.5477 42.5974Z" fill="#FFEFB0"/>
<path d="M96.7 42.5974C96.7 42.9004 96.4673 43.1454 96.1796 43.1454C95.8918 43.1454 95.6592 42.9004 95.6592 42.5974C95.6592 42.2943 95.8918 42.0493 96.1796 42.0493C96.4643 42.0493 96.7 42.2943 96.7 42.5974Z" fill="#FFEFB0"/>
<path opacity="0.87" d="M106.988 31.807C107.009 31.6942 107.018 31.5813 107.018 31.462C107.018 30.4723 106.256 29.6728 105.319 29.6728C105.026 29.6728 104.75 29.7501 104.511 29.8888C103.982 29.1247 103.128 28.625 102.16 28.625C100.553 28.625 99.2523 29.9952 99.2523 31.6877C99.2523 31.6941 99.2523 31.7006 99.2523 31.7103C97.7247 31.8908 96.537 33.2545 96.537 34.9116C96.537 36.6912 97.9084 38.1355 99.5982 38.1355H106.17C107.86 38.1355 109.232 36.6912 109.232 34.9116C109.235 33.4286 108.283 32.1842 106.988 31.807Z" fill="#978DEF"/>
<path d="M99.2343 34.6052C99.571 34.6052 99.6475 34.4343 99.7148 34.2377H100.009V37.1617H99.571V34.9308H99.2343V34.6052Z" fill="white"/>
<path d="M100.502 34.9406C100.502 34.4731 100.738 34.2056 101.166 34.2056C101.595 34.2056 101.827 34.4731 101.827 34.9406V36.4623C101.827 36.9298 101.592 37.1973 101.166 37.1973C100.738 37.1973 100.502 36.9298 100.502 36.4623V34.9406ZM100.937 36.4913C100.937 36.7009 101.025 36.7815 101.163 36.7815C101.301 36.7815 101.39 36.7009 101.39 36.4913V34.9116C101.39 34.702 101.304 34.6214 101.163 34.6214C101.025 34.6214 100.937 34.702 100.937 34.9116V36.4913Z" fill="white"/>
<path d="M102.378 34.6053C102.715 34.6053 102.791 34.4345 102.858 34.2378H103.152V37.1619H102.715V34.9309H102.378V34.6053Z" fill="white"/>
<path d="M103.642 34.9405C103.642 34.473 103.878 34.2054 104.304 34.2054C104.732 34.2054 104.968 34.473 104.968 34.9405V36.4622C104.968 36.9296 104.732 37.1972 104.304 37.1972C103.875 37.1972 103.642 36.9296 103.642 36.4622V34.9405ZM104.08 36.4912C104.08 36.7007 104.169 36.7813 104.307 36.7813C104.444 36.7813 104.533 36.7007 104.533 36.4912V34.9115C104.533 34.7019 104.447 34.6213 104.307 34.6213C104.169 34.6213 104.08 34.7019 104.08 34.9115V36.4912Z" fill="white"/>
<path d="M105.216 34.9405C105.216 34.473 105.451 34.2054 105.877 34.2054C106.306 34.2054 106.541 34.473 106.541 34.9405V36.4622C106.541 36.9296 106.306 37.1972 105.877 37.1972C105.448 37.1972 105.216 36.9296 105.216 36.4622V34.9405ZM105.65 36.4912C105.65 36.7007 105.739 36.7813 105.877 36.7813C106.015 36.7813 106.104 36.7007 106.104 36.4912V34.9115C106.104 34.7019 106.018 34.6213 105.877 34.6213C105.739 34.6213 105.65 34.7019 105.65 34.9115V36.4912Z" fill="white"/>
<path d="M100.651 31.4426C100.651 30.9751 100.887 30.7075 101.316 30.7075C101.744 30.7075 101.977 30.9751 101.977 31.4426V32.9642C101.977 33.4317 101.741 33.6993 101.316 33.6993C100.887 33.6993 100.651 33.4317 100.651 32.9642V31.4426ZM101.089 32.9933C101.089 33.2028 101.178 33.2834 101.316 33.2834C101.453 33.2834 101.542 33.2028 101.542 32.9933V31.4136C101.542 31.204 101.456 31.1234 101.316 31.1234C101.178 31.1234 101.089 31.204 101.089 31.4136V32.9933Z" fill="white"/>
<path d="M102.531 31.1106C102.868 31.1106 102.944 30.9397 103.012 30.743H103.306V33.6671H102.868V31.4362H102.531V31.1106Z" fill="white"/>
<path d="M104.102 31.1106C104.438 31.1106 104.515 30.9397 104.582 30.743H104.876V33.6671H104.438V31.4362H104.102V31.1106Z" fill="white"/>
<path d="M39.5781 17.1413C39.9149 17.1413 39.9914 16.9705 40.0587 16.7738H40.3526V19.6979H39.9149V17.4669H39.5781V17.1413Z" fill="#8F6FC9"/>
<path d="M40.8457 17.4767C40.8457 17.0093 41.0784 16.7417 41.5069 16.7417C41.9355 16.7417 42.1681 17.0093 42.1681 17.4767V18.9984C42.1681 19.4659 41.9355 19.7335 41.5069 19.7335C41.0784 19.7335 40.8457 19.4659 40.8457 18.9984V17.4767ZM41.2804 19.0274C41.2804 19.237 41.3692 19.3176 41.5069 19.3176C41.6447 19.3176 41.7334 19.237 41.7334 19.0274V17.4477C41.7334 17.2382 41.6447 17.1576 41.5069 17.1576C41.3692 17.1576 41.2804 17.2382 41.2804 17.4477V19.0274Z" fill="#8F6FC9"/>
<path d="M42.7217 17.1414C43.0584 17.1414 43.1349 16.9706 43.2023 16.7739H43.4962V19.698H43.0584V17.4671H42.7217V17.1414Z" fill="#8F6FC9"/>
<path d="M43.9862 17.4766C43.9862 17.0092 44.2189 16.7416 44.6474 16.7416C45.076 16.7416 45.3086 17.0092 45.3086 17.4766V18.9983C45.3086 19.4658 45.076 19.7334 44.6474 19.7334C44.2189 19.7334 43.9862 19.4658 43.9862 18.9983V17.4766ZM44.424 19.0273C44.424 19.2369 44.5127 19.3175 44.6505 19.3175C44.7882 19.3175 44.877 19.2369 44.877 19.0273V17.4476C44.877 17.2381 44.7882 17.1575 44.6505 17.1575C44.5127 17.1575 44.424 17.2381 44.424 17.4476V19.0273Z" fill="#8F6FC9"/>
<path d="M45.5596 17.4766C45.5596 17.0092 45.7923 16.7416 46.2209 16.7416C46.6494 16.7416 46.8821 17.0092 46.8821 17.4766V18.9983C46.8821 19.4658 46.6494 19.7334 46.2209 19.7334C45.7923 19.7334 45.5596 19.4658 45.5596 18.9983V17.4766ZM45.9943 19.0273C45.9943 19.2369 46.0831 19.3175 46.2209 19.3175C46.3586 19.3175 46.4474 19.2369 46.4474 19.0273V17.4476C46.4474 17.2381 46.3586 17.1575 46.2209 17.1575C46.0831 17.1575 45.9943 17.2381 45.9943 17.4476V19.0273Z" fill="#8F6FC9"/>
<path d="M40.998 13.9787C40.998 13.5112 41.2307 13.2437 41.6593 13.2437C42.0878 13.2437 42.3205 13.5112 42.3205 13.9787V15.5004C42.3205 15.9678 42.0878 16.2354 41.6593 16.2354C41.2307 16.2354 40.998 15.9678 40.998 15.5004V13.9787ZM41.4327 15.5294C41.4327 15.7389 41.5215 15.8195 41.6593 15.8195C41.797 15.8195 41.8858 15.7389 41.8858 15.5294V13.9497C41.8858 13.7401 41.797 13.6628 41.6593 13.6628C41.5215 13.6628 41.4327 13.7434 41.4327 13.9497V15.5294Z" fill="#8F6FC9"/>
<path d="M42.875 13.6434C43.2117 13.6434 43.2883 13.4725 43.3556 13.2759H43.6495V16.2H43.2117V13.969H42.875V13.6434Z" fill="#8F6FC9"/>
<path d="M44.4454 13.6434C44.7821 13.6434 44.8586 13.4725 44.926 13.2759H45.2199V16.2H44.7821V13.969H44.4454V13.6434Z" fill="#8F6FC9"/>
<path d="M95.9615 31.2364C95.9615 30.1338 95.4778 29.1473 94.7187 28.4993C94.7034 28.4832 94.685 28.467 94.6635 28.4574C94.0972 27.9899 93.384 27.7126 92.6126 27.7126C91.8412 27.7126 91.1279 27.9931 90.5616 28.4574C90.5402 28.4703 90.5218 28.4832 90.5065 28.5025C89.7504 29.1505 89.2667 30.1338 89.2667 31.2396C89.2667 32.3454 89.7534 33.3319 90.5096 33.9767C90.5249 33.9896 90.5402 34.0025 90.5555 34.0121C91.1248 34.4796 91.8381 34.7633 92.6156 34.7633C93.3901 34.7633 94.1003 34.4828 94.6666 34.0154C94.685 34.0057 94.7034 33.9896 94.7187 33.9735C95.4778 33.3254 95.9615 32.3422 95.9615 31.2364ZM94.535 33.4544C94.388 33.3448 94.235 33.2513 94.0727 33.1707C94.2258 32.6871 94.3238 32.1165 94.3452 31.4975H95.4595C95.3952 32.2712 95.0523 32.9579 94.535 33.4544ZM91.8014 33.4576C92.0616 33.377 92.3371 33.3319 92.6156 33.3319C92.8973 33.3319 93.1697 33.377 93.4299 33.4576C93.1972 33.9541 92.8973 34.241 92.6156 34.241C92.3309 34.2443 92.034 33.9541 91.8014 33.4576ZM91.5412 34.0186C91.3912 33.9541 91.2473 33.8735 91.1095 33.7832C91.1861 33.7349 91.2626 33.6865 91.3422 33.6446C91.4034 33.7832 91.4677 33.9057 91.5412 34.0186ZM92.6156 28.2317C92.9003 28.2317 93.1972 28.5218 93.4299 29.0151C93.1697 29.0957 92.8942 29.1408 92.6156 29.1408C92.334 29.1408 92.0616 29.0957 91.8014 29.0151C92.034 28.5186 92.3309 28.2317 92.6156 28.2317ZM91.3422 28.8249C91.2626 28.783 91.1861 28.7378 91.1095 28.6863C91.2473 28.596 91.3881 28.5186 91.5412 28.4509C91.4677 28.567 91.4034 28.6895 91.3422 28.8249ZM93.6901 28.4541C93.8401 28.5186 93.984 28.5992 94.1217 28.6895C94.0452 28.7378 93.9687 28.7862 93.8891 28.8281C93.8279 28.6895 93.7605 28.567 93.6901 28.4541ZM92.6156 29.6599C92.9554 29.6599 93.2922 29.6018 93.6166 29.4955C93.7452 29.9113 93.8309 30.4143 93.8523 30.9785H91.3789C91.4003 30.4143 91.4861 29.9113 91.6146 29.4955C91.9361 29.6018 92.2728 29.6599 92.6156 29.6599ZM93.8523 31.4975C93.8309 32.0617 93.7452 32.5646 93.6166 32.9773C93.2952 32.8709 92.9554 32.8128 92.6156 32.8128C92.2758 32.8128 91.9361 32.8709 91.6146 32.9773C91.4861 32.5614 91.4003 32.0585 91.3789 31.4975H93.8523ZM93.8891 33.6478C93.9687 33.6898 94.0452 33.7349 94.1217 33.7865C93.984 33.8767 93.8432 33.9541 93.6901 34.0218C93.7605 33.9058 93.8279 33.7832 93.8891 33.6478ZM95.4564 30.9785H94.3421C94.3207 30.3595 94.2258 29.7921 94.0697 29.3053C94.2319 29.2247 94.385 29.1279 94.5319 29.0215C95.0523 29.5148 95.3952 30.2047 95.4564 30.9785ZM90.6932 29.0183C90.8401 29.1279 90.9932 29.2214 91.1555 29.302C91.0024 29.7856 90.9044 30.3562 90.8861 30.9752H89.7718C89.8361 30.2047 90.1789 29.5148 90.6932 29.0183ZM89.7718 31.4975H90.8861C90.9075 32.1165 91.0024 32.6839 91.1555 33.1707C90.9932 33.2513 90.8401 33.348 90.6932 33.4544C90.1789 32.9579 89.8361 32.2712 89.7718 31.4975Z" fill="#8F6FC9"/>
<path opacity="0.87" d="M107.756 52.2528C107.778 52.1399 107.787 52.0271 107.787 51.9078C107.787 50.9181 107.025 50.1186 106.088 50.1186C105.794 50.1186 105.519 50.1959 105.28 50.3346C104.75 49.5705 103.896 49.0708 102.929 49.0708C101.322 49.0708 100.021 50.441 100.021 52.1335C100.021 52.14 100.021 52.1496 100.021 52.1561C98.4934 52.3366 97.3057 53.7003 97.3057 55.3574C97.3057 57.137 98.6771 58.5813 100.367 58.5813H106.939C108.629 58.5813 110 57.137 110 55.3574C110 53.8744 109.048 52.63 107.756 52.2528Z" fill="#978DEF"/>
<path d="M106.508 54.2097C106.508 53.2684 106.095 52.4269 105.449 51.8756C105.433 51.8628 105.421 51.8499 105.403 51.8402C104.919 51.4436 104.313 51.2051 103.652 51.2051C102.991 51.2051 102.388 51.4436 101.904 51.8402C101.886 51.8499 101.87 51.8628 101.855 51.8789C101.212 52.4302 100.799 53.2716 100.799 54.2097C100.799 55.1511 101.212 55.9926 101.858 56.5438C101.87 56.5567 101.882 56.5664 101.898 56.5761C102.381 56.9759 102.991 57.2176 103.652 57.2176C104.313 57.2176 104.919 56.9791 105.403 56.5825C105.418 56.5729 105.433 56.56 105.449 56.5471C106.095 55.9893 106.508 55.1511 106.508 54.2097ZM105.293 56.099C105.167 56.0055 105.035 55.9249 104.898 55.8539C105.029 55.4413 105.112 54.9545 105.127 54.429H106.076C106.021 55.0899 105.73 55.6766 105.293 56.099ZM102.957 56.1022C103.18 56.0313 103.413 55.9958 103.652 55.9958C103.891 55.9958 104.123 56.0345 104.347 56.1022C104.148 56.5245 103.894 56.7727 103.652 56.7727C103.413 56.7727 103.156 56.5245 102.957 56.1022ZM102.737 56.5825C102.608 56.5277 102.486 56.46 102.369 56.3827C102.433 56.3407 102.501 56.3021 102.568 56.2666C102.62 56.3794 102.675 56.4858 102.737 56.5825ZM103.652 51.6435C103.894 51.6435 104.148 51.8918 104.347 52.3141C104.123 52.385 103.891 52.4205 103.652 52.4205C103.413 52.4205 103.18 52.3818 102.957 52.3141C103.156 51.8918 103.413 51.6435 103.652 51.6435ZM102.568 52.1497C102.501 52.1142 102.437 52.0755 102.369 52.0336C102.486 51.9562 102.608 51.8885 102.737 51.8337C102.675 51.9305 102.62 52.0368 102.568 52.1497ZM104.57 51.8337C104.699 51.8885 104.821 51.9562 104.938 52.0336C104.873 52.0755 104.806 52.1142 104.739 52.1497C104.687 52.0368 104.631 51.9305 104.57 51.8337ZM103.652 52.8654C103.943 52.8654 104.23 52.817 104.506 52.7235C104.616 53.0782 104.69 53.5069 104.708 53.9873H102.599C102.617 53.5069 102.691 53.0782 102.801 52.7235C103.076 52.8138 103.361 52.8654 103.652 52.8654ZM104.708 54.429C104.69 54.9093 104.616 55.3381 104.506 55.6927C104.23 55.6025 103.943 55.5509 103.652 55.5509C103.361 55.5509 103.073 55.5992 102.798 55.6927C102.688 55.3381 102.614 54.9093 102.596 54.429H104.708ZM104.739 56.2666C104.806 56.3021 104.87 56.3407 104.938 56.3827C104.821 56.46 104.699 56.5277 104.57 56.5825C104.631 56.4858 104.687 56.3794 104.739 56.2666ZM106.076 53.9873H105.127C105.109 53.4586 105.026 52.975 104.898 52.5623C105.035 52.4914 105.167 52.4108 105.293 52.3173C105.73 52.7397 106.021 53.3264 106.076 53.9873ZM102.014 52.3173C102.14 52.4108 102.271 52.4914 102.409 52.5623C102.277 52.975 102.195 53.4618 102.179 53.9873H101.23C101.282 53.3264 101.576 52.7397 102.014 52.3173ZM101.23 54.429H102.179C102.198 54.9577 102.28 55.4413 102.409 55.8539C102.271 55.9249 102.14 56.0055 102.014 56.099C101.576 55.6766 101.282 55.0899 101.23 54.429Z" fill="white"/>
<path opacity="0.87" d="M15.3487 19.469H19.3619C20.3935 19.469 21.2323 18.5889 21.2323 17.4992C21.2323 16.4128 20.3966 15.5294 19.3619 15.5294H15.3487C14.3171 15.5294 13.4783 16.4095 13.4783 17.4992C13.4814 18.5857 14.3171 19.469 15.3487 19.469Z" fill="#978DEF"/>
<path opacity="0.87" d="M17.8007 17.4026C18.7813 17.4026 19.5762 16.5654 19.5762 15.5327C19.5762 14.5 18.7813 13.6628 17.8007 13.6628C16.8201 13.6628 16.0252 14.5 16.0252 15.5327C16.0252 16.5654 16.8201 17.4026 17.8007 17.4026Z" fill="#978DEF"/>
<path opacity="0.87" d="M15.8696 16.4868C16.4427 16.4868 16.9073 15.9975 16.9073 15.3939C16.9073 14.7903 16.4427 14.301 15.8696 14.301C15.2964 14.301 14.8318 14.7903 14.8318 15.3939C14.8318 15.9975 15.2964 16.4868 15.8696 16.4868Z" fill="#978DEF"/>
<path d="M18.915 16.487H15.6854C15.5232 16.487 15.3885 16.3484 15.3885 16.1743C15.3885 16.0034 15.5201 15.8616 15.6854 15.8616H18.915C19.0772 15.8616 19.2119 16.0002 19.2119 16.1743C19.2088 16.3484 19.0772 16.487 18.915 16.487Z" fill="white"/>
<path d="M19.5425 17.4025H15.6854C15.5232 17.4025 15.3885 17.2639 15.3885 17.0898C15.3885 16.919 15.5201 16.7771 15.6854 16.7771H19.5425C19.7047 16.7771 19.8394 16.9157 19.8394 17.0898C19.8394 17.2607 19.7078 17.4025 19.5425 17.4025Z" fill="white"/>
<path d="M19.5425 18.3149H15.6854C15.5232 18.3149 15.3885 18.1763 15.3885 18.0022C15.3885 17.8313 15.5201 17.6895 15.6854 17.6895H19.5425C19.7047 17.6895 19.8394 17.8281 19.8394 18.0022C19.8394 18.1763 19.7078 18.3149 19.5425 18.3149Z" fill="white"/>
<path d="M82.4985 90.166V82.1836C82.4985 81.1423 81.6964 80.3009 80.7107 80.3009H80.6893C79.7006 80.3009 78.9016 81.1455 78.9016 82.1836V82.664C78.9016 83.7053 78.0996 84.5467 77.1139 84.5467C76.1251 84.5467 75.3262 83.7021 75.3262 82.664V76.2033C75.3262 75.1007 74.4782 74.2045 73.4282 74.2045C72.3813 74.2045 71.5303 75.0975 71.5303 76.2033V89.7017C71.5303 90.8688 70.6334 91.8134 69.5252 91.8134C68.4171 91.8134 67.5202 90.8688 67.5202 89.7017V78.0216C67.5202 76.9802 66.7181 76.1388 65.7325 76.1388H62.5213" stroke="white" stroke-miterlimit="10"/>
<path d="M81.075 86.1418C79.8934 86.1418 78.9322 87.138 78.9108 88.3824L78.8067 94.6852C78.7761 96.5067 80.1689 97.9961 81.8985 97.9961H82.4985V86.1418H81.075Z" fill="white"/>
<path d="M86.0862 88.3799C86.0647 87.1355 85.1035 86.1393 83.9219 86.1393H82.4985V97.9968H83.0985C84.828 97.9968 86.2208 96.5041 86.1902 94.6858L86.0862 88.3799Z" fill="#D5E6F0"/>
<path d="M82.4679 91.5909C82.1526 91.5909 81.8924 91.3201 81.8924 90.9848V89.0473C81.8924 88.712 82.1495 88.4412 82.4679 88.4412C82.7862 88.4412 83.0434 88.712 83.0434 89.0473V90.9848C83.0434 91.3201 82.7862 91.5909 82.4679 91.5909Z" fill="#8FB4C9"/>
<path d="M49.3392 70.0068L48.9443 75.4456H62.5145L62.1227 70.0068H49.3392Z" fill="#F1F1F1"/>
<path d="M61.909 67.0186H49.5541L49.3398 70.0071H62.1233L61.909 67.0186Z" fill="#808080"/>
<path d="M65.9341 77.3123H45.5283V75.9389C45.5283 75.4037 45.9416 74.9685 46.4497 74.9685H65.0096C65.5178 74.9685 65.931 75.4037 65.931 75.9389L65.9341 77.3123Z" fill="#A4CDE7"/>
<path d="M85.749 22.2256H25.7134C24.7032 22.2256 23.8828 23.0896 23.8828 24.1535V62.1116H61.6546H87.5796V34.8085V24.1535C87.5796 23.0896 86.7592 22.2256 85.749 22.2256Z" fill="#A4CDE7"/>
<path d="M55.4775 68.6206H85.7494C86.7596 68.6206 87.58 67.7566 87.58 66.6927V62.1147H61.655L55.4775 68.6206Z" fill="#E5E5E5"/>
<path d="M23.8828 62.1149V66.6928C23.8828 67.7567 24.7032 68.6207 25.7134 68.6207H55.4771L61.6546 62.1149H23.8828Z" fill="#F1F1F1"/>
<path d="M84.947 24.5726H26.1113V59.4455H84.947V24.5726Z" fill="#464472"/>
<path d="M38.4601 29.1086H29.4296C29.0776 29.1086 28.7929 28.8088 28.7929 28.438C28.7929 28.0673 29.0776 27.7675 29.4296 27.7675H38.4601C38.8121 27.7675 39.0968 28.0673 39.0968 28.438C39.0968 28.8088 38.8121 29.1086 38.4601 29.1086Z" fill="#C2FFC2"/>
<path d="M61.3176 29.1087H52.2871C51.9351 29.1087 51.6504 28.8089 51.6504 28.4381C51.6504 28.0674 51.9351 27.7676 52.2871 27.7676H61.3176C61.6696 27.7676 61.9543 28.0674 61.9543 28.4381C61.9543 28.8089 61.6696 29.1087 61.3176 29.1087Z" fill="#C2FFC2"/>
<path d="M65.757 29.1087H63.6846C63.3325 29.1087 63.0479 28.8089 63.0479 28.4381C63.0479 28.0674 63.3325 27.7676 63.6846 27.7676H65.757C66.109 27.7676 66.3937 28.0674 66.3937 28.4381C66.3937 28.8089 66.109 29.1087 65.757 29.1087Z" fill="white"/>
<path d="M49.8415 29.1086H46.5722C46.2202 29.1086 45.9355 28.8088 45.9355 28.438C45.9355 28.0673 46.2202 27.7675 46.5722 27.7675H49.8415C50.1936 27.7675 50.4782 28.0673 50.4782 28.438C50.4782 28.8088 50.1936 29.1086 49.8415 29.1086Z" fill="#FE168D"/>
<path d="M35.4693 31.5814H29.4296C29.0776 31.5814 28.7929 31.2816 28.7929 30.9108C28.7929 30.5401 29.0776 30.2402 29.4296 30.2402H35.4693C35.8214 30.2402 36.1061 30.5401 36.1061 30.9108C36.1061 31.2816 35.8214 31.5814 35.4693 31.5814Z" fill="#00FFFF"/>
<path d="M51.6901 31.5814H45.6504C45.2984 31.5814 45.0137 31.2816 45.0137 30.9108C45.0137 30.5401 45.2984 30.2402 45.6504 30.2402H51.6901C52.0421 30.2402 52.3268 30.5401 52.3268 30.9108C52.3268 31.2816 52.0421 31.5814 51.6901 31.5814Z" fill="#00FFFF"/>
<path d="M54.8404 31.5814H53.7384C53.3863 31.5814 53.1017 31.2816 53.1017 30.9108C53.1017 30.5401 53.3863 30.2402 53.7384 30.2402H54.8404C55.1924 30.2402 55.4771 30.5401 55.4771 30.9108C55.4771 31.2816 55.1924 31.5814 54.8404 31.5814Z" fill="white"/>
<path d="M39.5254 31.5814H37.5754C37.2234 31.5814 36.9387 31.2816 36.9387 30.9108C36.9387 30.5401 37.2234 30.2402 37.5754 30.2402H39.5254C39.8774 30.2402 40.1621 30.5401 40.1621 30.9108C40.1652 31.2816 39.8774 31.5814 39.5254 31.5814Z" fill="#00FFFF"/>
<path d="M43.5447 31.5814H41.5947C41.2427 31.5814 40.958 31.2816 40.958 30.9108C40.958 30.5401 41.2427 30.2402 41.5947 30.2402H43.5447C43.8967 30.2402 44.1814 30.5401 44.1814 30.9108C44.1814 31.2816 43.8967 31.5814 43.5447 31.5814Z" fill="#00FFFF"/>
<path d="M35.4693 34.054H29.4296C29.0776 34.054 28.7929 33.7542 28.7929 33.3835C28.7929 33.0127 29.0776 32.7129 29.4296 32.7129H35.4693C35.8214 32.7129 36.1061 33.0127 36.1061 33.3835C36.1061 33.751 35.8214 34.054 35.4693 34.054Z" fill="white"/>
<path d="M39.5254 34.054H37.5754C37.2234 34.054 36.9387 33.7542 36.9387 33.3835C36.9387 33.0127 37.2234 32.7129 37.5754 32.7129H39.5254C39.8774 32.7129 40.1621 33.0127 40.1621 33.3835C40.1652 33.751 39.8774 34.054 39.5254 34.054Z" fill="white"/>
<path d="M43.5447 34.054H41.5947C41.2427 34.054 40.958 33.7542 40.958 33.3835C40.958 33.0127 41.2427 32.7129 41.5947 32.7129H43.5447C43.8967 32.7129 44.1814 33.0127 44.1814 33.3835C44.1814 33.751 43.8967 34.054 43.5447 34.054Z" fill="white"/>
<path d="M54.4024 34.054H53.7871C53.4351 34.054 53.1504 33.7542 53.1504 33.3835C53.1504 33.0127 53.4351 32.7129 53.7871 32.7129H54.4024C54.7544 32.7129 55.0391 33.0127 55.0391 33.3835C55.0391 33.751 54.7544 34.054 54.4024 34.054Z" fill="#FE168D"/>
<path d="M57.1114 34.054H56.4961C56.1441 34.054 55.8594 33.7542 55.8594 33.3835C55.8594 33.0127 56.1441 32.7129 56.4961 32.7129H57.1114C57.4634 32.7129 57.7481 33.0127 57.7481 33.3835C57.7512 33.751 57.4634 34.054 57.1114 34.054Z" fill="#FE168D"/>
<path d="M59.8243 34.054H59.209C58.857 34.054 58.5723 33.7542 58.5723 33.3835C58.5723 33.0127 58.857 32.7129 59.209 32.7129H59.8243C60.1763 32.7129 60.461 33.0127 60.461 33.3835C60.461 33.751 60.1763 34.054 59.8243 34.054Z" fill="white"/>
<path d="M62.5362 34.054H61.9209C61.5688 34.054 61.2842 33.7542 61.2842 33.3835C61.2842 33.0127 61.5688 32.7129 61.9209 32.7129H62.5362C62.8882 32.7129 63.1729 33.0127 63.1729 33.3835C63.1729 33.751 62.8882 34.054 62.5362 34.054Z" fill="white"/>
<path d="M32.6286 36.5235H29.4296C29.0776 36.5235 28.7929 36.2237 28.7929 35.8529C28.7929 35.4822 29.0776 35.1824 29.4296 35.1824H32.6255C32.9775 35.1824 33.2622 35.4822 33.2622 35.8529C33.2653 36.2237 32.9806 36.5235 32.6286 36.5235Z" fill="white"/>
<path d="M42.5465 36.5238H39.3506C38.9986 36.5238 38.7139 36.2239 38.7139 35.8532C38.7139 35.4824 38.9986 35.1826 39.3506 35.1826H42.5465C42.8985 35.1826 43.1832 35.4824 43.1832 35.8532C43.1832 36.2239 42.8985 36.5238 42.5465 36.5238Z" fill="#FE168D"/>
<path d="M44.4725 36.5238H44.2949C43.9429 36.5238 43.6582 36.2239 43.6582 35.8532C43.6582 35.4824 43.9429 35.1826 44.2949 35.1826H44.4725C44.8245 35.1826 45.1092 35.4824 45.1092 35.8532C45.1123 36.2239 44.8245 36.5238 44.4725 36.5238Z" fill="white"/>
<path d="M35.1081 36.5235H34.4132C34.0612 36.5235 33.7765 36.2237 33.7765 35.8529C33.7765 35.4822 34.0612 35.1824 34.4132 35.1824H35.1081C35.4601 35.1824 35.7448 35.4822 35.7448 35.8529C35.7448 36.2237 35.4601 36.5235 35.1081 36.5235Z" fill="white"/>
<path d="M37.566 36.5238H36.8711C36.5191 36.5238 36.2344 36.2239 36.2344 35.8532C36.2344 35.4824 36.5191 35.1826 36.8711 35.1826H37.566C37.918 35.1826 38.2027 35.4824 38.2027 35.8532C38.2027 36.2239 37.918 36.5238 37.566 36.5238Z" fill="white"/>
<path d="M36.8346 38.9963H29.4296C29.0776 38.9963 28.7929 38.6965 28.7929 38.3257C28.7929 37.955 29.0776 37.6552 29.4296 37.6552H36.8346C37.1866 37.6552 37.4713 37.955 37.4713 38.3257C37.4713 38.6965 37.1866 38.9963 36.8346 38.9963Z" fill="#00FFFF"/>
<path d="M50.1755 38.9964H48.6816C48.3296 38.9964 48.0449 38.6966 48.0449 38.3258C48.0449 37.9551 48.3296 37.6553 48.6816 37.6553H50.1755C50.5275 37.6553 50.8122 37.9551 50.8122 38.3258C50.8122 38.6966 50.5275 38.9964 50.1755 38.9964Z" fill="white"/>
<path d="M53.1534 38.9964H52.4004C52.0484 38.9964 51.7637 38.6966 51.7637 38.3258C51.7637 37.9551 52.0484 37.6553 52.4004 37.6553H53.1534C53.5055 37.6553 53.7902 37.9551 53.7902 38.3258C53.7902 38.6966 53.5055 38.9964 53.1534 38.9964Z" fill="white"/>
<path d="M56.1077 38.9963H55.3547C55.0026 38.9963 54.718 38.6965 54.718 38.3257C54.718 37.955 55.0026 37.6552 55.3547 37.6552H56.1077C56.4598 37.6552 56.7444 37.955 56.7444 38.3257C56.7444 38.6965 56.4598 38.9963 56.1077 38.9963Z" fill="white"/>
<path d="M41.6498 38.9963H39.0968C38.7448 38.9963 38.4601 38.6965 38.4601 38.3257C38.4601 37.955 38.7448 37.6552 39.0968 37.6552H41.6498C42.0019 37.6552 42.2866 37.955 42.2866 38.3257C42.2896 38.6965 42.0019 38.9963 41.6498 38.9963Z" fill="#00FFFF"/>
<path d="M46.4191 38.9963H43.8661C43.5141 38.9963 43.2294 38.6965 43.2294 38.3257C43.2294 37.955 43.5141 37.6552 43.8661 37.6552H46.4191C46.7712 37.6552 47.0559 37.955 47.0559 38.3257C47.0589 38.6965 46.7712 38.9963 46.4191 38.9963Z" fill="#00FFFF"/>
<path d="M37.8877 41.4691H29.4296C29.0776 41.4691 28.7929 41.1692 28.7929 40.7985C28.7929 40.4278 29.0776 40.1279 29.4296 40.1279H37.8877C38.2397 40.1279 38.5244 40.4278 38.5244 40.7985C38.5244 41.166 38.2397 41.4691 37.8877 41.4691Z" fill="white"/>
<path d="M59.4717 41.4691H51.0137C50.6616 41.4691 50.377 41.1692 50.377 40.7985C50.377 40.4278 50.6616 40.1279 51.0137 40.1279H59.4717C59.8237 40.1279 60.1084 40.4278 60.1084 40.7985C60.1115 41.166 59.8237 41.4691 59.4717 41.4691Z" fill="white"/>
<path d="M63.663 41.4691H61.7773C61.4253 41.4691 61.1406 41.1692 61.1406 40.7985C61.1406 40.4278 61.4253 40.1279 61.7773 40.1279H63.663C64.0151 40.1279 64.2998 40.4278 64.2998 40.7985C64.3028 41.166 64.0181 41.4691 63.663 41.4691Z" fill="white"/>
<path d="M33.2592 43.9385H29.4296C29.0776 43.9385 28.7929 43.6387 28.7929 43.268C28.7929 42.8972 29.0776 42.5974 29.4296 42.5974H33.2592C33.6112 42.5974 33.8959 42.8972 33.8959 43.268C33.8959 43.6387 33.6112 43.9385 33.2592 43.9385Z" fill="white"/>
<path d="M44.5794 43.9385H40.7498C40.3978 43.9385 40.1131 43.6387 40.1131 43.268C40.1131 42.8972 40.3978 42.5974 40.7498 42.5974H44.5794C44.9314 42.5974 45.2161 42.8972 45.2161 43.268C45.2161 43.6387 44.9314 43.9385 44.5794 43.9385Z" fill="#FE168D"/>
<path d="M46.7773 43.9385H46.3946C46.0426 43.9385 45.7579 43.6387 45.7579 43.268C45.7579 42.8972 46.0426 42.5974 46.3946 42.5974H46.7773C47.1293 42.5974 47.414 42.8972 47.414 43.268C47.414 43.6387 47.1293 43.9385 46.7773 43.9385Z" fill="#FE168D"/>
<path d="M36.0908 43.9385H35.1173C34.7653 43.9385 34.4806 43.6387 34.4806 43.268C34.4806 42.8972 34.7653 42.5974 35.1173 42.5974H36.0908C36.4428 42.5974 36.7275 42.8972 36.7275 43.268C36.7275 43.6387 36.4428 43.9385 36.0908 43.9385Z" fill="white"/>
<path d="M38.8944 43.9383H37.9209C37.5689 43.9383 37.2842 43.6385 37.2842 43.2677C37.2842 42.897 37.5689 42.5972 37.9209 42.5972H38.8944C39.2464 42.5972 39.5311 42.897 39.5311 43.2677C39.5311 43.6385 39.2464 43.9383 38.8944 43.9383Z" fill="#C2FFC2"/>
<path d="M34.0979 46.4112H29.4296C29.0776 46.4112 28.7929 46.1114 28.7929 45.7406C28.7929 45.3699 29.0776 45.0701 29.4296 45.0701H34.0979C34.45 45.0701 34.7347 45.3699 34.7347 45.7406C34.7377 46.1114 34.45 46.4112 34.0979 46.4112Z" fill="white"/>
<path d="M47.2824 46.4112H42.6141C42.2621 46.4112 41.9774 46.1114 41.9774 45.7406C41.9774 45.3699 42.2621 45.0701 42.6141 45.0701H47.2824C47.6344 45.0701 47.9191 45.3699 47.9191 45.7406C47.9191 46.1114 47.6344 46.4112 47.2824 46.4112Z" fill="#00FFFF"/>
<path d="M49.8415 46.4112H49.1864C48.8344 46.4112 48.5497 46.1114 48.5497 45.7406C48.5497 45.3699 48.8344 45.0701 49.1864 45.0701H49.8415C50.1936 45.0701 50.4782 45.3699 50.4782 45.7406C50.4782 46.1114 50.1936 46.4112 49.8415 46.4112Z" fill="#00FFFF"/>
<path d="M37.3948 46.4112H36.051C35.6989 46.4112 35.4142 46.1114 35.4142 45.7406C35.4142 45.3699 35.6989 45.0701 36.051 45.0701H37.3948C37.7468 45.0701 38.0315 45.3699 38.0315 45.7406C38.0346 46.1114 37.7468 46.4112 37.3948 46.4112Z" fill="#00FFFF"/>
<path d="M40.6611 46.4112H39.3172C38.9652 46.4112 38.6805 46.1114 38.6805 45.7406C38.6805 45.3699 38.9652 45.0701 39.3172 45.0701H40.6611C41.0131 45.0701 41.2978 45.3699 41.2978 45.7406C41.3009 46.1114 41.0131 46.4112 40.6611 46.4112Z" fill="#00FFFF"/>
<path d="M35.4693 51.3535H29.4296C29.0776 51.3535 28.7929 51.0536 28.7929 50.6829C28.7929 50.3122 29.0776 50.0123 29.4296 50.0123H35.4693C35.8214 50.0123 36.1061 50.3122 36.1061 50.6829C36.1061 51.0536 35.8214 51.3535 35.4693 51.3535Z" fill="#C2FFC2"/>
<path d="M48.0324 51.3535H47.8058C47.4538 51.3535 47.1691 51.0536 47.1691 50.6829C47.1691 50.3122 47.4538 50.0123 47.8058 50.0123H48.0324C48.3844 50.0123 48.6691 50.3122 48.6691 50.6829C48.6691 51.0536 48.3844 51.3535 48.0324 51.3535Z" fill="#FE168D"/>
<path d="M44.1787 29.1086H40.9094C40.5574 29.1086 40.2727 28.8088 40.2727 28.438C40.2727 28.0673 40.5574 27.7675 40.9094 27.7675H44.1787C44.5308 27.7675 44.8155 28.0673 44.8155 28.438C44.8155 28.8088 44.5308 29.1086 44.1787 29.1086Z" fill="#FFE068"/>
<path d="M46.2661 34.054H45.6508C45.2987 34.054 45.0141 33.7542 45.0141 33.3835C45.0141 33.0127 45.2987 32.7129 45.6508 32.7129H46.2661C46.6181 32.7129 46.9028 33.0127 46.9028 33.3835C46.9028 33.751 46.6181 34.054 46.2661 34.054Z" fill="#FFE068"/>
<path d="M48.9778 34.0539H48.3625C48.0105 34.0539 47.7258 33.7541 47.7258 33.3833C47.7258 33.0126 48.0105 32.7128 48.3625 32.7128H48.9778C49.3299 32.7128 49.6145 33.0126 49.6145 33.3833C49.6145 33.7509 49.3299 34.0539 48.9778 34.0539Z" fill="#FFE068"/>
<path d="M51.6907 34.0539H51.0754C50.7234 34.0539 50.4387 33.7541 50.4387 33.3833C50.4387 33.0126 50.7234 32.7128 51.0754 32.7128H51.6907C52.0427 32.7128 52.3274 33.0126 52.3274 33.3833C52.3274 33.7509 52.0427 34.0539 51.6907 34.0539Z" fill="#FFE068"/>
<path d="M43.2879 41.4689H40.2727C39.9206 41.4689 39.636 41.1691 39.636 40.7984C39.636 40.4276 39.9206 40.1278 40.2727 40.1278H43.2879C43.64 40.1278 43.9247 40.4276 43.9247 40.7984C43.9247 41.1659 43.64 41.4689 43.2879 41.4689Z" fill="#FFE068"/>
<path d="M48.6354 41.4691H45.6202C45.2681 41.4691 44.9834 41.1692 44.9834 40.7985C44.9834 40.4278 45.2681 40.1279 45.6202 40.1279H48.6354C48.9875 40.1279 49.2721 40.4278 49.2721 40.7985C49.2721 41.166 48.9875 41.4691 48.6354 41.4691Z" fill="#FFE068"/>
<path d="M46.0395 51.3535H42.6876C42.3355 51.3535 42.0508 51.0536 42.0508 50.6829C42.0508 50.3122 42.3355 50.0123 42.6876 50.0123H46.0395C46.3916 50.0123 46.6763 50.3122 46.6763 50.6829C46.6763 51.0536 46.3916 51.3535 46.0395 51.3535Z" fill="#FFE068"/>
<path d="M38.3407 51.3535H37.5754C37.2234 51.3535 36.9387 51.0536 36.9387 50.6829C36.9387 50.3122 37.2234 50.0123 37.5754 50.0123H38.3407C38.6927 50.0123 38.9774 50.3122 38.9774 50.6829C38.9805 51.0536 38.6927 51.3535 38.3407 51.3535Z" fill="#FFE068"/>
<path d="M40.8845 51.3535H40.1192C39.7672 51.3535 39.4825 51.0536 39.4825 50.6829C39.4825 50.3122 39.7672 50.0123 40.1192 50.0123H40.8845C41.2366 50.0123 41.5213 50.3122 41.5213 50.6829C41.5243 51.0536 41.2366 51.3535 40.8845 51.3535Z" fill="#FFE068"/>
<path d="M35.4693 53.8262H29.4296C29.0776 53.8262 28.7929 53.5264 28.7929 53.1557C28.7929 52.7849 29.0776 52.4851 29.4296 52.4851H35.4693C35.8214 52.4851 36.1061 52.7849 36.1061 53.1557C36.1061 53.5264 35.8214 53.8262 35.4693 53.8262Z" fill="#00FFFF"/>
<path d="M51.6901 53.826H45.6504C45.2984 53.826 45.0137 53.5262 45.0137 53.1554C45.0137 52.7847 45.2984 52.4849 45.6504 52.4849H51.6901C52.0421 52.4849 52.3268 52.7847 52.3268 53.1554C52.3268 53.5262 52.0421 53.826 51.6901 53.826Z" fill="#00FFFF"/>
<path d="M54.8404 53.8262H53.7384C53.3863 53.8262 53.1017 53.5264 53.1017 53.1557C53.1017 52.7849 53.3863 52.4851 53.7384 52.4851H54.8404C55.1924 52.4851 55.4771 52.7849 55.4771 53.1557C55.4771 53.5264 55.1924 53.8262 54.8404 53.8262Z" fill="#00FFFF"/>
<path d="M39.5254 53.8262H37.5754C37.2234 53.8262 36.9387 53.5264 36.9387 53.1557C36.9387 52.7849 37.2234 52.4851 37.5754 52.4851H39.5254C39.8774 52.4851 40.1621 52.7849 40.1621 53.1557C40.1652 53.5264 39.8774 53.8262 39.5254 53.8262Z" fill="#FE168D"/>
<path d="M43.5447 53.8262H41.5947C41.2427 53.8262 40.958 53.5264 40.958 53.1557C40.958 52.7849 41.2427 52.4851 41.5947 52.4851H43.5447C43.8967 52.4851 44.1814 52.7849 44.1814 53.1557C44.1814 53.5264 43.8967 53.8262 43.5447 53.8262Z" fill="#FE168D"/>
<path opacity="0.2" d="M54.0506 24.5726L26.1113 53.9939V45.528L46.0059 24.5726H54.0506Z" fill="white"/>
<path opacity="0.2" d="M80.043 24.5726L46.9334 59.4455H31.7255L64.8412 24.5726H80.043Z" fill="white"/>
<path d="M93.3507 66.2639C93.3507 70.0036 94.6242 72.4215 96.1976 72.4215V58.8779C96.1976 58.8779 93.3507 62.5242 93.3507 66.2639Z" fill="#C2FFC2"/>
<path d="M96.1976 58.8779V72.4215C97.771 72.4215 99.0445 70.0068 99.0445 66.2639C99.0445 62.5242 96.1976 58.8779 96.1976 58.8779Z" fill="#80A880"/>
<path d="M98.8241 66.1188C96.3139 68.7624 95.5915 71.4221 96.7027 72.5924L105.797 63.0142C105.797 63.0142 101.337 63.4752 98.8241 66.1188Z" fill="#C2FFC2"/>
<path d="M105.797 63.0142L96.7022 72.5924C97.8134 73.7626 100.339 73.0018 102.849 70.3582C105.362 67.7146 105.797 63.0142 105.797 63.0142Z" fill="#80A880"/>
<path d="M93.5681 66.1188C96.0782 68.7624 96.8007 71.4221 95.6895 72.5924L86.5947 63.0142C86.5978 63.0142 91.0579 63.4752 93.5681 66.1188Z" fill="#C2FFC2"/>
<path d="M86.5977 63.0142L95.6924 72.5924C94.5812 73.7626 92.0557 73.0018 89.5456 70.3582C87.0323 67.7146 86.5977 63.0142 86.5977 63.0142Z" fill="#80A880"/>
<path d="M96.1973 71.6478V83.3248H100.829H101.377C101.808 83.3248 102.161 82.954 102.161 82.4995V71.6478H96.1973Z" fill="#8FB4C9"/>
<path d="M96.1976 71.6478H90.2345V82.4995C90.2345 82.954 90.5865 83.3248 91.0181 83.3248H91.5661H96.1976V71.6478Z" fill="#A4CDE7"/>
<path d="M100.829 83.3246H96.1973V84.6303H100.829V83.3246Z" fill="#528AA8"/>
<path d="M96.198 83.3246H91.5665V84.6303H96.198V83.3246Z" fill="#79A3BA"/>
</g>
<defs>
<clipPath id="clip0_206_1039">
<rect width="110" height="98" fill="white"/>
</clipPath>
</defs>
</svg>
