<svg width="415" height="222" viewBox="0 0 415 222" fill="none" xmlns="http://www.w3.org/2000/svg">
<mask id="mask0_213_307" style="mask-type:luminance" maskUnits="userSpaceOnUse" x="170" y="129" width="117" height="75">
<path d="M228.438 129.31C196.642 129.31 170.863 155.111 170.863 186.935V203.053H286.006V186.935C286.006 155.111 260.227 129.31 228.438 129.31Z" fill="white"/>
</mask>
<g mask="url(#mask0_213_307)">
<path d="M228.438 129.31C196.642 129.31 170.863 155.111 170.863 186.935V203.053H286.006V186.935C286.006 155.111 260.227 129.31 228.438 129.31Z" fill="#827DDB"/>
</g>
<mask id="mask1_213_307" style="mask-type:luminance" maskUnits="userSpaceOnUse" x="170" y="129" width="117" height="75">
<path d="M228.438 129.31C196.642 129.31 170.863 155.111 170.863 186.935V203.053H286.006V186.935C286.006 155.111 260.227 129.31 228.438 129.31Z" fill="white"/>
</mask>
<g mask="url(#mask1_213_307)">
<path opacity="0.28" d="M173.394 105.809C177.874 133.164 201.596 154.046 230.193 154.046C258.799 154.046 282.512 133.164 286.992 105.809H173.394Z" fill="#978DEF"/>
</g>
<mask id="mask2_213_307" style="mask-type:luminance" maskUnits="userSpaceOnUse" x="170" y="129" width="117" height="75">
<path d="M228.438 129.31C196.642 129.31 170.863 155.111 170.863 186.935V203.053H286.006V186.935C286.006 155.111 260.227 129.31 228.438 129.31Z" fill="white"/>
</mask>
<g mask="url(#mask2_213_307)">
<path d="M207.311 128.315C207.311 146.251 219.781 151 228.368 151C236.956 151 249.426 147.207 249.426 128.315H207.311Z" fill="white"/>
</g>
<mask id="mask3_213_307" style="mask-type:luminance" maskUnits="userSpaceOnUse" x="170" y="129" width="117" height="75">
<path d="M228.438 129.31C196.642 129.31 170.863 155.111 170.863 186.935V203.053H286.006V186.935C286.006 155.111 260.227 129.31 228.438 129.31Z" fill="white"/>
</mask>
<g mask="url(#mask3_213_307)">
<path d="M242.291 179.117C239.55 180.205 236.257 182.148 233.346 182.669C231.723 182.956 231.218 183.865 230.892 181.526C230.581 179.366 233.773 176.203 235.248 174.92C235.636 174.578 235.365 174.042 234.976 173.879C231.575 172.48 228.788 174.338 225.744 175.97C220.681 178.682 215.79 181.689 211.053 184.93C210.401 185.373 211.014 186.446 211.682 186.003C213.367 184.883 215.122 183.624 216.939 182.373C214.726 188.248 212.505 194.124 210.277 199.991C210.059 200.566 210.82 200.823 211.193 200.527C211.938 199.945 219.688 193.51 220.907 194.038C223.174 195.025 219.92 201.592 219.462 203.24C217.824 209.193 217.079 215.27 216.962 221.425C216.947 222.07 217.739 222.163 218.065 221.728C227.817 208.703 236.133 194.761 242.974 179.995C243.168 179.583 242.834 178.907 242.291 179.117Z" fill="white"/>
</g>
<path d="M243.51 92.6981V130.46C243.51 138.791 236.762 145.544 228.438 145.544C220.115 145.544 213.367 138.791 213.367 130.46V92.6981H243.51Z" fill="#C1855D"/>
<path d="M243.51 97.1589V127.615C238.742 129.947 233.68 131.252 228.438 131.252C223.197 131.252 218.135 129.947 213.367 127.615V97.1589H243.51Z" fill="#CC8A5E"/>
<path d="M257.277 80.901C257.277 80.901 255.584 68.521 266.486 67.2698C277.395 66.0186 274.514 86.9783 265.732 96.2963C262.549 99.6769 257.346 98.892 256.104 96.8248C254.054 93.4053 257.277 80.901 257.277 80.901Z" fill="#DB9261"/>
<path d="M261.151 80.6057C261.151 80.6057 261.275 74.0155 266.742 72.7254C272.208 71.4432 272.402 80.1938 267.961 84.6469C263.52 89.0999 262.689 88.4705 262.689 88.4705C262.689 88.4705 265.771 84.7557 265.562 83.6832C265.391 82.7895 261.151 80.6057 261.151 80.6057Z" fill="#C1855D"/>
<path d="M262.689 88.4704C262.689 88.4704 265.678 86.0613 265.29 83.5045C264.871 80.7067 261.648 81.4528 261.648 81.4528C261.206 75.4221 266.346 76.6345 266.346 76.6345" stroke="#912A3E" stroke-width="0.5" stroke-miterlimit="10"/>
<path d="M200.703 80.901C200.703 80.901 202.395 68.521 191.494 67.2698C180.584 66.0186 183.465 86.9783 192.247 96.2963C195.431 99.6769 200.633 98.892 201.875 96.8248C203.925 93.4053 200.703 80.901 200.703 80.901Z" fill="#DB9261"/>
<path d="M196.828 80.6057C196.828 80.6057 196.704 74.0155 191.238 72.7254C185.771 71.4432 185.577 80.1938 190.018 84.6469C194.46 89.0999 195.291 88.4705 195.291 88.4705C195.291 88.4705 192.208 84.7557 192.418 83.6832C192.589 82.7895 196.828 80.6057 196.828 80.6057Z" fill="#C1855D"/>
<path d="M195.283 88.4704C195.283 88.4704 192.294 86.0613 192.682 83.5045C193.101 80.7067 196.323 81.4528 196.323 81.4528C196.766 75.4221 191.626 76.6345 191.626 76.6345" stroke="#912A3E" stroke-width="0.5" stroke-miterlimit="10"/>
<path d="M263.33 63.8329V63.8403C262.982 67.6613 262.517 71.8756 262.014 76.0157C260.891 85.3419 259.52 94.275 258.599 97.2428C256.531 103.98 245.163 114.137 237.922 118.336C235.056 119.991 233.755 121 228.846 121C223.928 121 219.034 119.828 216.184 118.173C215.239 117.624 215.015 117.12 214.279 116.192C210.616 111.54 200.881 103.097 199.085 97.2428C198.744 96.1744 198.318 94.1637 197.807 91.5372C197.118 87.8349 196.305 82.8935 195.499 77.6034C195.422 77.0618 195.344 76.5202 195.259 75.986C194.895 73.5079 194.531 70.963 194.214 68.4626C193.501 63.1725 192.882 58.0234 192.487 53.7943C192.038 49.0755 191.859 45.5141 192.123 44.1786C192.2 43.7928 192.378 43.3402 192.642 42.8357L232.261 30L260.194 42.8357C261.356 44.6016 262.3 46.2338 262.943 47.5471C263.416 48.519 263.733 49.3203 263.842 49.8991C263.888 50.1439 263.927 50.4704 263.95 50.8488C264.12 53.2527 263.842 58.105 263.33 63.8329Z" fill="#DB9261"/>
<path d="M206.449 69.8422C206.449 69.8422 207.59 72.0027 210.75 73.6657C213.918 75.3366 215.945 74.8392 218.391 71.14C218.399 71.14 213.305 66.8968 206.449 69.8422Z" fill="white"/>
<path d="M211.449 68.5988C210.455 68.4822 210.137 69.3992 210.075 70.4018C209.966 72.0726 211.962 73.8057 214.19 73.6114C217.459 73.3238 217.226 69.2827 217.226 69.2827L211.449 68.5988Z" fill="#723F1D"/>
<path opacity="0.35" d="M212.723 68.9407C211.348 69.1505 210.774 70.7204 211.768 71.241C212.754 71.7617 214.004 71.7928 214.12 70.6116C214.237 69.4303 214.097 68.7309 212.723 68.9407Z" fill="white"/>
<path d="M203.77 70.6115C203.77 70.6115 212.66 68.1169 220.107 71.7306C220.107 71.7306 220.511 70.2541 218.484 69.2127C217.366 68.6376 214.99 68.078 212.66 68.1169C204.663 68.2723 203.77 70.6115 203.77 70.6115Z" fill="#6A290C"/>
<path opacity="0.31" d="M210.378 76.2848C210.378 76.2848 212.831 77.5749 215.906 76.5801C215.906 76.5801 213.181 81.8725 210.378 76.2848Z" fill="#773B20"/>
<path d="M248.541 69.5157C248.541 69.5157 247.509 71.7306 244.426 73.5491C241.343 75.3677 239.293 74.9791 236.669 71.4042C236.669 71.3964 241.553 66.9123 248.541 69.5157Z" fill="white"/>
<path d="M243.486 68.5132C244.473 68.3423 244.768 69.2593 244.954 70.2463C245.234 71.7228 243.455 74.2952 241.002 73.6502C237.865 72.8264 237.764 69.4769 237.764 69.4769L243.486 68.5132Z" fill="#723F1D"/>
<path opacity="0.35" d="M242.229 68.925C243.611 69.0727 244.263 70.6115 243.3 71.1788C242.337 71.7461 241.095 71.8393 240.916 70.6659C240.745 69.4846 240.846 68.7852 242.229 68.925Z" fill="white"/>
<path d="M251.251 70.153C251.251 70.153 242.252 68.1013 234.984 72.0648C234.984 72.0648 234.51 70.6115 236.483 69.4691C237.57 68.8396 239.915 68.1635 242.252 68.0936C250.25 67.8604 251.251 70.153 251.251 70.153Z" fill="#6A290C"/>
<path opacity="0.31" d="M245.226 76.0983C245.226 76.0983 242.857 77.5438 239.728 76.7588C239.728 76.7511 242.795 81.8647 245.226 76.0983Z" fill="#773B20"/>
<path d="M234.541 64.7829C234.541 64.7829 232.779 62.7624 233.431 60.4853C233.431 60.4853 243.991 54.2681 253.371 59.4206L252.672 59.5372C250.646 59.7237 239.589 60.1201 234.541 64.7829Z" fill="#60310A"/>
<path d="M221.512 64.5809C221.512 64.5809 223.228 62.5136 222.522 60.2521C222.522 60.2521 211.814 54.2992 202.559 59.6848L203.265 59.7859C205.284 59.9257 216.349 60.0501 221.512 64.5809Z" fill="#60310A"/>
<path d="M227.549 105.612C226.355 105.744 221.965 106.193 220.209 105.975C219.376 105.877 221.292 106.749 221.749 106.86C222.365 107.031 223.071 107.167 223.352 107.228C224.793 107.506 226.748 107.654 229.008 107.5C231.933 107.299 234.955 106.626 237.023 105.876C239.091 105.127 240.347 104.307 241.35 103.51C236.934 104.385 232.244 105.096 227.549 105.612Z" fill="#F5C5B3"/>
<path d="M234.169 90.0869C232.818 88.3694 231.964 83.2091 231.544 79.9684C231.342 78.3831 229.999 77.2018 228.4 77.2018C226.8 77.2018 225.457 78.3831 225.255 79.9684C224.836 83.2169 223.989 88.3694 222.63 90.0869C220.604 92.6592 220.604 93.825 222.064 94.843C223.531 95.8611 224.315 95.4104 225.333 96.5372C226.241 97.5475 227.584 97.8895 228.431 97.8895C229.347 97.8895 230.543 97.5397 231.451 96.5372C232.468 95.4104 233.253 95.8611 234.72 94.843C236.195 93.825 236.195 92.6592 234.169 90.0869Z" fill="#C47E4E"/>
<path d="M228.469 17.2992C224.525 17.2992 218.305 17.6878 211.985 19.3509C198.855 22.8014 190.562 37.2097 191.975 48.3229L194.941 71.6607L197.302 69.1427C197.302 69.1427 196.223 56.5374 202.776 50.3746C204.803 48.4628 205.587 45.8283 205.113 43.2404C204.818 41.6317 205.051 39.6733 206.55 37.5206C209.065 33.8991 218.686 36.8678 227.149 36.8678C235.497 36.8678 247.874 33.8991 250.389 37.5206C251.888 39.6733 252.121 41.6317 251.826 43.2404C251.352 45.8283 252.136 48.4628 254.163 50.3746C260.716 56.5451 259.637 69.1427 259.637 69.1427L261.998 71.6607L264.964 48.3229C266.377 37.2097 258.076 22.8014 244.954 19.3509C238.641 17.6878 232.414 17.2992 228.469 17.2992Z" fill="#93543E"/>
<path d="M247.982 12.4809C240.909 9.79978 233.936 9.17029 229.518 9.17029C225.1 9.17029 218.127 9.79978 211.053 12.4809C204.74 14.8746 199.429 20.5244 195.539 27.6042C199.453 31.3579 203.071 35.5389 206.48 40.0075C210.611 37.1398 219.812 40.738 228.042 40.738C235.465 40.738 245.715 37.7382 251.049 39.4169C252.975 36.4326 255.234 33.7282 257.393 31.1636C259.008 29.244 260.701 27.4643 262.448 25.7702C258.659 19.5608 253.736 14.6647 247.982 12.4809Z" fill="#A15D45"/>
<path d="M206.34 39.0206C203.397 36.5415 200.291 34.2256 196.914 32.1428C193.117 37.2565 191.245 43.3726 191.975 48.6728L194.941 70.1997L197.302 67.8761C197.302 67.8761 196.223 56.2499 202.776 50.5612C204.803 48.7971 205.587 46.3724 205.113 43.9866C204.841 42.5877 205.043 40.8857 206.34 39.0206Z" fill="#93543E"/>
<path d="M250.397 40.2173C250.506 40.396 250.591 40.567 250.692 40.738C253.705 37.8314 257.067 35.3446 260.483 32.9121C260.049 32.1505 259.598 31.4044 259.109 30.6895C254.66 33.9068 252.851 35.399 249.683 39.4479C249.962 39.6733 250.211 39.922 250.397 40.2173Z" fill="#93543E"/>
<path d="M260.204 35.842C257.393 37.474 254.644 39.1682 252.16 41.1111C251.841 41.3597 251.686 41.725 251.771 42.0747C251.966 42.8752 251.981 43.629 251.865 44.3129C251.461 46.8231 252.323 49.3333 254.411 51.2295C259.979 56.2654 259.785 65.6223 259.668 67.6817C259.653 67.9537 259.761 68.2102 259.979 68.42C260.74 69.1583 262.223 68.8008 262.355 67.8527L264.964 49.1545C265.531 45.0745 264.513 40.5126 262.246 36.3083C261.904 35.6555 260.91 35.4379 260.204 35.842Z" fill="#93543E"/>
<path d="M88.0831 83.5589C88.0831 83.5589 88.2074 76.9686 93.6737 75.6786C99.1401 74.3963 99.3342 83.147 94.8928 87.6C90.4514 92.0531 89.6205 91.4236 89.6205 91.4236C89.6205 91.4236 92.7031 87.7088 92.4935 86.6364C92.3227 85.7349 88.0831 83.5589 88.0831 83.5589Z" fill="#C6797A"/>
<path d="M89.6205 91.4236C89.6205 91.4236 92.61 89.0144 92.2217 86.4576C91.8024 83.6599 88.5801 84.4059 88.5801 84.4059C88.1375 78.3753 93.2777 79.5876 93.2777 79.5876" stroke="#912A3E" stroke-width="1.2204" stroke-miterlimit="10"/>
<path d="M30.4222 82.7506C30.4222 82.7506 32.1149 70.3706 21.2133 69.1194C21.1278 69.1117 21.0502 69.1117 20.9725 69.1039C20.8483 69.3059 20.6464 69.4614 20.3281 69.4614C20.0175 69.4614 19.8078 69.3059 19.6914 69.1039C10.6377 69.9432 13.8212 89.1154 21.9664 98.1459C26.2603 102.902 30.5309 100.959 31.5947 98.6744C33.2796 95.0528 30.4222 82.7506 30.4222 82.7506Z" fill="#DB9261"/>
<path d="M26.5476 83.5589C26.5476 83.5589 26.4234 76.9687 20.957 75.6786C15.4906 74.3885 15.2965 83.147 19.7379 87.6C24.1794 92.0531 25.0102 91.4236 25.0102 91.4236C25.0102 91.4236 21.9276 87.7088 22.1372 86.6364C22.3081 85.7349 26.5476 83.5589 26.5476 83.5589Z" fill="#C1855D"/>
<path d="M25.0102 91.4236C25.0102 91.4236 22.0208 89.0144 22.409 86.4576C22.8283 83.6599 26.0507 84.4059 26.0507 84.4059C26.4933 78.3753 21.353 79.5876 21.353 79.5876" stroke="#912A3E" stroke-width="0.5" stroke-miterlimit="10"/>
<mask id="mask4_213_307" style="mask-type:luminance" maskUnits="userSpaceOnUse" x="0" y="129" width="116" height="75">
<path d="M57.5755 129.31C25.7789 129.31 0 155.111 0 186.935V203.053H115.143V186.935C115.143 155.111 89.3721 129.31 57.5755 129.31Z" fill="white"/>
</mask>
<g mask="url(#mask4_213_307)">
<path d="M57.5755 129.31C25.7789 129.31 0 155.111 0 186.935V203.053H115.143V186.935C115.143 155.111 89.3721 129.31 57.5755 129.31Z" fill="#877FCD"/>
</g>
<mask id="mask5_213_307" style="mask-type:luminance" maskUnits="userSpaceOnUse" x="0" y="129" width="116" height="75">
<path d="M57.5755 129.31C25.7789 129.31 0 155.111 0 186.935V203.053H115.143V186.935C115.143 155.111 89.3721 129.31 57.5755 129.31Z" fill="white"/>
</mask>
<g mask="url(#mask5_213_307)">
<path d="M42.1858 145.404L58.8489 139.615L76.5447 147.332L58.1113 201.887L42.1858 145.404Z" fill="white"/>
</g>
<mask id="mask6_213_307" style="mask-type:luminance" maskUnits="userSpaceOnUse" x="0" y="129" width="116" height="75">
<path d="M57.5755 129.31C25.7789 129.31 0 155.111 0 186.935V203.053H115.143V186.935C115.143 155.111 89.3721 129.31 57.5755 129.31Z" fill="white"/>
</mask>
<g mask="url(#mask6_213_307)">
<path d="M2.64777 92.0919C7.12802 119.448 30.8493 140.329 59.4468 140.329C88.052 140.329 111.766 119.448 116.246 92.0919H2.64777Z" fill="white"/>
</g>
<path d="M72.6468 92.6981V133.669C72.6468 137.011 69.9369 139.723 66.5981 139.723H48.5529C45.214 139.723 42.5042 137.011 42.5042 133.669V92.6981H72.6468Z" fill="#C1855D"/>
<path d="M72.6468 93.8483V124.305C67.8793 126.636 62.8167 127.942 57.5755 127.942C52.3343 127.942 47.2717 126.636 42.5042 124.305V93.8483H72.6468Z" fill="#CC8A5E"/>
<path d="M92.1596 68.9563C92.1518 68.9641 92.0819 72.64 91.5772 77.5982C90.4203 88.7736 87.9356 96.172 86.996 99.7314C84.9073 107.814 77.0183 113.883 69.6651 118.919C66.7611 120.901 62.8632 122.315 57.8705 122.315C52.8623 122.315 49.0032 120.901 46.0992 118.919C38.7305 113.883 30.8337 107.806 28.7217 99.7314C27.9064 96.6228 25.3596 90.3279 23.9852 79.4945C23.9076 78.8416 23.8299 78.2044 23.7445 77.5516C23.3718 74.5751 23.0069 71.5209 22.673 68.5211C21.9431 62.1874 21.3219 62.3273 20.9182 57.268C20.4678 51.6026 20.2815 47.3361 20.5532 45.7429C20.7629 44.4995 21.6791 42.681 23.0768 40.5594C23.201 40.3806 23.3175 40.2096 23.4495 40.0231C24.8626 37.9637 26.7184 35.6478 28.8227 33.363C29.2264 33.3707 29.638 33.3707 30.0573 33.3707C40.8347 33.363 51.6121 31.187 62.3896 30.4642C68.019 30.0756 73.6096 29.5161 79.1925 28.8866C81.9878 32.1195 84.6977 35.8965 86.9805 39.5258C89.4264 43.3959 90.6454 46.7377 91.7636 49.4111C92.1596 50.3903 92.4546 51.2296 92.6022 51.8902C92.6332 52.0145 92.6488 52.1233 92.672 52.2321C92.7264 52.5274 92.773 52.916 92.7963 53.3823C92.9671 56.2655 92.6876 62.0786 92.1596 68.9563Z" fill="#DB9261"/>
<path d="M92.6022 51.8902C91.2511 52.5197 89.869 53.1025 88.4636 53.6232C83.1447 55.5972 77.5153 56.7551 71.847 57.0038C58.6625 57.5633 45.3072 53.1647 35.0422 44.8492C32.8914 43.1084 30.7794 41.0723 30.0184 38.3989C29.5448 36.7669 29.6224 35.0261 30.065 33.3707C40.8425 33.363 51.6199 31.187 62.3974 30.4642C68.0268 30.0756 73.6174 29.5161 79.2002 28.8866C81.9955 32.1195 84.7054 35.8965 86.9883 39.5258C89.4342 43.3959 90.6532 46.7377 91.7713 49.4111C92.1596 50.3903 92.4546 51.2296 92.6022 51.8902Z" fill="black"/>
<path d="M91.5695 77.5982L89.1469 74.4041C89.1469 74.4041 91.0492 66.4927 86.9261 61.0916L80.4271 39.6112L87.229 40.3495L90.2029 40.6681L92.509 51.1985L93.4175 55.3562L91.5695 77.5982Z" fill="#782F38"/>
<path d="M93.1845 58.1306L93.5184 54.1594L92.6099 50.0017L90.3038 39.4713L87.3299 39.1527L79.8602 37.9481L84.5035 53.289C87.1901 54.6957 90.5212 56.6385 93.1845 58.1306Z" fill="#542F38"/>
<path d="M92.7342 63.6407L92.8351 62.4283C90.6377 61.1926 88.4325 59.9648 86.2195 58.7679L86.8174 60.7497C88.4713 61.9154 90.7231 62.778 92.7342 63.6407Z" fill="#8E373F"/>
<path d="M89.8302 71.0236C89.7447 70.977 89.6516 70.9381 89.5661 70.8915C89.4885 72.9587 89.1469 74.4042 89.1469 74.4042L91.5694 77.5983L92.0198 72.2437C91.2899 71.8318 90.5678 71.4199 89.8302 71.0236Z" fill="#8E373F"/>
<path d="M29.3817 54.4315L33.862 39.619L30.8881 38.4222C26.1205 36.4949 20.8095 38.9041 18.6198 43.9866L20.4523 59.0322C23.2864 57.2214 26.2836 55.7215 29.3817 54.4315Z" fill="#542F38"/>
<path d="M27.5803 60.4L28.3257 57.9364C25.7245 59.1254 23.2088 60.4932 20.8405 62.1175L21.1045 64.2857C23.2088 62.9179 25.3751 61.6279 27.5803 60.4Z" fill="#8E373F"/>
<path d="M48.8324 102.244C48.1025 102.05 49.6477 103.558 50.0126 103.806C50.5018 104.156 51.0686 104.49 51.2938 104.615C52.4508 105.267 54.0425 105.811 55.9138 105.975C58.3364 106.184 60.8833 105.71 62.6536 104.964C64.424 104.218 65.5343 103.231 66.435 102.237C62.6691 103.192 53.103 103.402 48.8324 102.244Z" fill="#F5C5B3"/>
<path d="M63.3059 88.6103C61.9548 86.8928 61.1007 81.7326 60.6814 78.4919C60.4795 76.9065 59.1362 75.7252 57.5367 75.7252C55.9371 75.7252 54.5938 76.9065 54.392 78.4919C53.9727 81.7403 53.1263 86.8928 51.7675 88.6103C49.7409 91.1827 49.7409 92.3484 51.2007 93.3665C52.6682 94.3845 53.4524 93.9338 54.4696 95.0607C55.3781 96.0709 56.7214 96.4129 57.5677 96.4129C58.484 96.4129 59.6797 96.0632 60.5882 95.0607C61.6054 93.9338 62.3896 94.3845 63.8572 93.3665C65.3325 92.3484 65.3325 91.1827 63.3059 88.6103Z" fill="#C47E4E"/>
<path d="M58.8489 139.615H63.9659C67.4445 139.615 70.4416 137.151 71.1172 133.732L72.8332 125.035C76.1798 125.035 78.8897 127.748 78.8897 131.097V150.464C78.8897 151.691 77.5153 152.422 76.4981 151.723L58.8489 139.615Z" fill="#DEDFE0"/>
<path d="M58.1113 139.615H51.1075C47.6289 139.615 44.6317 137.151 43.9562 133.732L42.2401 125.035C38.8935 125.035 36.1837 127.748 36.1837 131.097V150.603C36.1837 151.808 37.5037 152.539 38.5208 151.901L58.1113 139.615Z" fill="#DEDFE0"/>
<path d="M199.08 27.1768C199.903 25.5992 201.099 24.1382 202.854 23.0735C209.694 18.908 212.87 11.0044 227.204 10.7013C241.537 10.3827 249.683 17.4236 249.683 17.4236C250.055 21.9078 249.885 26.8116 251.934 28.7078C251.934 28.7156 251.942 28.7156 251.942 28.7156C251.942 28.7233 251.942 28.7233 251.95 28.7311C252.416 29.9823 252.936 32.4226 251.74 35.6477C247.276 38.3133 242.399 39.0361 239.752 33.8447C236.118 26.7494 225.301 23.6952 220.72 25.6692C216.131 27.6509 212.66 28.5291 213.546 28.1327C214.423 27.7286 214.175 25.3117 216.256 23.9361C218.336 22.5528 210.781 23.2134 206.41 24.3791C204.065 25.0008 201.223 26.1976 199.08 27.1768Z" fill="#975740"/>
<path d="M90.5445 81.5927C89.0304 86.5121 88.0831 91.7112 91.0182 96.413C95.7003 103.905 110.088 108.467 123.708 107.923C137.327 107.379 149.696 102.405 157.484 95.8534C165.272 89.3021 168.922 81.3441 170.35 73.4094C170.956 70.0521 170.995 66.314 167.307 63.7184C164.108 61.4646 158.913 60.6331 154.052 59.9259C145.03 58.6047 136.007 57.2913 126.984 55.9702C121.534 55.1697 109.855 51.9368 105.181 54.175C100.569 56.3821 98.3015 63.9282 96.5855 67.1611C94.0619 71.9017 92.113 76.72 90.5445 81.5927Z" fill="#978DEF"/>
<path d="M94.1241 84.4837C92.6099 89.1388 91.6626 94.0504 94.5977 98.4879C99.2798 105.568 113.668 109.881 127.287 109.368C140.907 108.855 153.276 104.153 161.064 97.9594C168.852 91.7733 172.501 84.2428 173.93 76.7511C174.536 73.5725 174.574 70.0443 170.886 67.5885C167.687 65.4591 162.493 64.6742 157.632 63.9981C148.609 62.7546 139.587 61.5034 130.564 60.26C125.113 59.5062 113.435 56.4442 108.761 58.5658C104.148 60.6563 101.881 67.7906 100.165 70.8448C97.6415 75.3211 95.6925 79.8752 94.1241 84.4837Z" fill="#7F77CC"/>
<mask id="mask7_213_307" style="mask-type:luminance" maskUnits="userSpaceOnUse" x="83" y="129" width="116" height="75">
<path d="M140.86 129.31C109.063 129.31 83.2845 155.111 83.2845 186.935V203.053H198.428V186.935C198.435 155.111 172.657 129.31 140.86 129.31Z" fill="white"/>
</mask>
<g mask="url(#mask7_213_307)">
<path d="M140.86 129.31C109.063 129.31 83.2845 155.111 83.2845 186.935V203.053H198.428V186.935C198.435 155.111 172.657 129.31 140.86 129.31Z" fill="#978DEF"/>
</g>
<mask id="mask8_213_307" style="mask-type:luminance" maskUnits="userSpaceOnUse" x="83" y="129" width="116" height="75">
<path d="M140.86 129.31C109.063 129.31 83.2845 155.111 83.2845 186.935V203.053H198.428V186.935C198.435 155.111 172.657 129.31 140.86 129.31Z" fill="white"/>
</mask>
<g mask="url(#mask8_213_307)">
<g opacity="0.26">
<path d="M94.7142 126.574H86.6078V204.996H94.7142V126.574Z" fill="white"/>
<path d="M115.306 126.574H107.2V204.996H115.306V126.574Z" fill="white"/>
<path d="M135.891 126.574H127.784V204.996H135.891V126.574Z" fill="white"/>
<path d="M156.475 126.574H148.368V204.996H156.475V126.574Z" fill="white"/>
<path d="M176.228 126.574H168.122V204.996H176.228V126.574Z" fill="white"/>
<path d="M196.813 126.574H188.706V204.996H196.813V126.574Z" fill="white"/>
</g>
</g>
<mask id="mask9_213_307" style="mask-type:luminance" maskUnits="userSpaceOnUse" x="83" y="129" width="116" height="75">
<path d="M140.86 129.31C109.063 129.31 83.2845 155.111 83.2845 186.935V203.053H198.428V186.935C198.435 155.111 172.657 129.31 140.86 129.31Z" fill="white"/>
</mask>
<g mask="url(#mask9_213_307)">
<path d="M202.685 135.763V125.233L79.9018 125.233V135.763L202.685 135.763Z" fill="#8DBFB1"/>
</g>
<mask id="mask10_213_307" style="mask-type:luminance" maskUnits="userSpaceOnUse" x="83" y="129" width="116" height="75">
<path d="M140.86 129.31C109.063 129.31 83.2845 155.111 83.2845 186.935V203.053H198.428V186.935C198.435 155.111 172.657 129.31 140.86 129.31Z" fill="white"/>
</mask>
<g mask="url(#mask10_213_307)">
<path d="M85.2101 105.809C89.6904 133.164 113.412 154.046 142.009 154.046C170.614 154.046 194.328 133.164 198.808 105.809H85.2101Z" fill="#978DEF"/>
</g>
<path d="M171.298 76.4946C171.298 76.4946 169.605 64.1147 180.507 62.8635C191.416 61.6123 188.535 82.5719 179.754 91.8899C176.57 95.2705 171.368 94.4856 170.125 92.4184C168.075 88.9912 171.298 76.4946 171.298 76.4946Z" fill="#DB9261"/>
<path d="M175.172 76.1915C175.172 76.1915 175.297 69.6013 180.763 68.3113C186.229 67.029 186.423 75.7796 181.982 80.2327C177.541 84.6858 176.71 84.0563 176.71 84.0563C176.71 84.0563 179.792 80.3415 179.583 79.269C179.412 78.3753 175.172 76.1915 175.172 76.1915Z" fill="#C1855D"/>
<path d="M176.71 84.0563C176.71 84.0563 179.699 81.6471 179.311 79.0903C178.892 76.2926 175.669 77.0386 175.669 77.0386C175.227 71.0079 180.367 72.2203 180.367 72.2203" stroke="#912A3E" stroke-width="0.5" stroke-miterlimit="10"/>
<path d="M109.32 76.4947C109.32 76.4947 111.012 64.1148 100.111 62.8635C89.209 61.6123 92.2916 82.3855 100.864 91.89C105.158 96.6462 109.428 94.7033 110.492 92.4185C112.177 88.797 109.32 76.4947 109.32 76.4947Z" fill="#DB9261"/>
<path d="M105.445 76.1917C105.445 76.1917 105.321 69.6015 99.8544 68.3114C94.3881 67.0291 94.1939 75.7798 98.6354 80.2328C103.077 84.6859 103.908 84.0564 103.908 84.0564C103.908 84.0564 100.825 80.3416 101.035 79.2692C101.205 78.3754 105.445 76.1917 105.445 76.1917Z" fill="#C1855D"/>
<path d="M103.908 84.0564C103.908 84.0564 100.918 81.6472 101.306 79.0904C101.726 76.2927 104.948 77.0387 104.948 77.0387C105.391 71.0081 100.25 72.2204 100.25 72.2204" stroke="#912A3E" stroke-width="0.5" stroke-miterlimit="10"/>
<path d="M155.931 92.6982V133.669C155.931 137.011 153.221 139.723 149.883 139.723H131.845C128.506 139.723 125.796 137.011 125.796 133.669V92.6982H155.931Z" fill="#C1855D"/>
<path d="M155.931 93.8484V124.305C151.164 126.636 146.101 127.942 140.86 127.942C135.619 127.942 130.556 126.636 125.789 124.305V93.8484H155.931Z" fill="#CC8A5E"/>
<path d="M177.471 59.1332C177.463 59.141 177.463 59.141 177.471 59.141C176.966 63.6018 176.337 68.4901 175.662 73.2462C174.178 83.8387 172.478 93.8095 171.445 97.0969C169.131 104.472 161.017 113.192 153.594 117.676C150.675 119.44 145.697 121.468 140.728 121.468C135.751 121.468 130.781 119.44 127.862 117.676C120.439 113.192 112.325 104.472 110.011 97.0969C109.11 94.2292 107.41 85.292 105.717 75.0492C105.616 74.4353 105.515 73.8135 105.406 73.1996C104.94 70.3475 104.482 67.4098 104.055 64.5111C103.116 58.325 102.285 52.2555 101.71 47.2273C101.058 41.5619 100.732 37.2487 100.973 35.6323C101.159 34.3655 102.083 32.5159 103.519 30.3554C103.644 30.1767 103.76 29.9902 103.908 29.8037C105.36 27.6898 107.301 25.304 109.498 22.9492C121.565 23.128 133.608 20.7266 145.682 19.9417C151.769 19.5453 157.826 18.9469 163.875 18.3019C166.825 21.6669 169.659 25.576 172.012 29.2985C174.536 33.2542 176.523 37.0156 177.626 39.7123C178.1 40.878 178.41 41.8495 178.503 42.5567C178.55 42.852 178.581 43.2405 178.589 43.6991C178.698 46.5978 178.224 52.372 177.471 59.1332Z" fill="#DB9261"/>
<path d="M116.254 28.599C116.254 28.599 114.25 47.0485 113.194 47.9111C110.477 50.1182 109.374 55.9935 108.931 61.0838C108.512 65.7156 108.667 69.6946 108.667 69.6946L105.422 73.2073L104.335 74.3885L102.991 65.1327L100.429 47.507L98.2704 30.3709L103.923 29.8191L116.254 28.599Z" fill="#231F20"/>
<path d="M179.513 47.507L178.193 60.1823L176.71 74.3885L175.661 73.2539L172.377 69.6868C172.377 69.6868 172.959 53.8174 168.58 48.6339L168.572 48.6261C168.339 48.3619 168.099 48.1209 167.842 47.9111C166.786 47.0485 164.783 28.599 164.783 28.599L172.02 29.3062L175.18 29.6171L177.634 39.7278L178.604 43.7145L179.513 47.507Z" fill="#231F20"/>
<path d="M179.513 47.5071L178.193 60.1824C177.921 59.8715 177.673 59.5218 177.463 59.1488C177.455 59.1488 177.455 59.1488 177.463 59.141C177.277 58.8457 177.114 58.5426 176.958 58.2473C174.908 54.4548 172.012 51.2141 168.58 48.6495L168.572 48.6417C163.129 44.5617 156.374 42.1525 149.556 41.7717C138.422 41.1656 127.38 45.5642 118.699 52.5508C115.337 55.263 112.278 58.3716 108.931 61.0916C107.961 61.8843 106.959 62.6459 105.926 63.3531C105.321 63.7572 104.707 64.1614 104.063 64.5344C103.714 64.7442 103.349 64.9385 102.984 65.1406L100.421 47.5149L98.2627 30.3788L103.915 29.827C105.367 27.7131 107.309 25.3273 109.506 22.9725C121.572 23.1513 133.615 20.7499 145.69 19.965C151.777 19.5686 157.834 18.9702 163.882 18.3252C166.833 21.6902 169.667 25.5993 172.02 29.3218L175.18 29.6327L177.634 39.7434C178.107 40.9091 178.418 41.8805 178.511 42.5877C178.558 42.8831 178.589 43.2716 178.597 43.7302L179.513 47.5071Z" fill="#8B82D8"/>
<path d="M115.143 71.3733C115.143 71.3733 120.019 71.9562 123.18 73.6193C126.348 75.2902 128.374 74.7928 130.82 71.0936C130.828 71.1013 121.999 68.4357 115.143 71.3733Z" fill="white"/>
<path d="M123.879 68.5601C122.885 68.4435 122.093 69.446 122.496 70.363C122.698 70.8216 122.962 71.2645 123.242 71.8008C123.692 72.6712 124.383 73.767 126.604 73.5727C129.873 73.2851 129.64 69.244 129.64 69.244L123.879 68.5601Z" fill="#6D3913"/>
<path opacity="0.35" d="M125.152 68.902C123.778 69.1118 123.203 70.6817 124.197 71.2023C125.183 71.723 126.433 71.7541 126.55 70.5729C126.666 69.3916 126.526 68.6922 125.152 68.902Z" fill="white"/>
<path d="M115.143 70.4019C115.143 70.4019 125.89 68.0782 132.94 71.6919C132.94 71.6919 133.32 70.2154 131.403 69.174C130.347 68.5989 128.095 68.0393 125.89 68.0782C118.319 68.2336 115.143 70.4019 115.143 70.4019Z" fill="#773B20"/>
<path opacity="0.31" d="M118.389 75.3989C118.389 75.3989 124.453 77.1631 130.463 76.5025C130.471 76.4947 127.839 81.9658 118.389 75.3989Z" fill="#773B20"/>
<path opacity="0.31" d="M152.825 76.0362C152.825 76.0362 159.138 76.316 164.822 74.241C164.814 74.2487 163.556 80.1784 152.825 76.0362Z" fill="#773B20"/>
<path opacity="0.31" d="M34.3279 76.7278C34.3279 76.7278 40.3921 78.4919 46.402 77.8313C46.402 77.8313 43.7698 83.2947 34.3279 76.7278Z" fill="#773B20"/>
<path opacity="0.31" d="M68.7567 77.3728C68.7567 77.3728 75.0694 77.6526 80.7532 75.5776C80.7532 75.5776 79.4875 81.515 68.7567 77.3728Z" fill="#773B20"/>
<path d="M134.959 63.9592C134.959 63.9592 136.45 61.4646 135.456 59.2575C135.456 59.2575 125.245 55.6515 115.112 58.1695C115.112 58.1695 113.334 58.6746 115.376 58.8534C117.418 59.0243 129.655 60.6097 134.959 63.9592Z" fill="#231F20"/>
<path d="M164.108 70.0366C164.108 70.0366 159.938 71.6841 156.855 73.5026C153.773 75.3212 151.723 74.9326 149.098 71.3577C149.098 71.3577 157.119 67.4331 164.108 70.0366Z" fill="white"/>
<path d="M155.916 68.4744C156.902 68.3035 157.741 69.2749 157.383 70.2075C157.205 70.6738 156.956 71.1245 156.708 71.684C156.304 72.5778 155.939 73.9922 153.431 73.6191C151.793 73.3782 150.193 69.4459 150.193 69.4459L155.916 68.4744Z" fill="#6D3913"/>
<path opacity="0.35" d="M154.658 68.8863C156.04 69.034 156.692 70.5727 155.729 71.1401C154.767 71.7074 153.524 71.8006 153.346 70.6271C153.175 69.4459 153.276 68.7387 154.658 68.8863Z" fill="white"/>
<path d="M164.775 69.3837C164.775 69.3837 155.108 67.472 147.072 72.1271C147.072 72.1271 146.621 70.5495 148.803 69.2128C150.007 68.4822 152.577 67.6429 155.108 67.472C163.781 66.9046 164.775 69.3837 164.775 69.3837Z" fill="#773B20"/>
<path d="M32.3323 72.6633C32.3323 72.6633 37.2086 73.2462 40.3688 74.9093C43.5368 76.5802 45.5634 76.0828 48.0093 72.3836C48.0171 72.3836 39.1886 69.718 32.3323 72.6633Z" fill="white"/>
<path d="M41.0677 69.8423C40.0738 69.7257 39.2818 70.7282 39.6855 71.6453C39.8874 72.1038 40.1514 72.5468 40.4309 73.083C40.8813 73.9534 41.5724 75.0492 43.7931 74.8549C47.062 74.5673 46.8291 70.5262 46.8291 70.5262L41.0677 69.8423Z" fill="#6D3913"/>
<path opacity="0.35" d="M42.3411 70.1919C40.9667 70.4018 40.3921 71.9716 41.386 72.4923C42.3721 73.013 43.6223 73.0441 43.7387 71.8628C43.8552 70.6738 43.7154 69.9743 42.3411 70.1919Z" fill="white"/>
<path d="M32.3323 71.6841C32.3323 71.6841 43.0787 69.3604 50.1291 72.9742C50.1291 72.9742 50.5096 71.4976 48.5917 70.4562C47.5357 69.8811 45.2839 69.3216 43.0787 69.3604C35.5081 69.5159 32.3323 71.6841 32.3323 71.6841Z" fill="#773B20"/>
<path d="M81.2967 71.3188C81.2967 71.3188 77.1271 72.9663 74.0445 74.7849C70.9619 76.6034 68.912 76.2148 66.2875 72.6399C66.2875 72.6399 74.3085 68.7153 81.2967 71.3188Z" fill="white"/>
<path d="M73.0972 69.7646C74.0833 69.5936 74.9219 70.5651 74.5647 71.4976C74.3861 71.9639 74.1377 72.4147 73.8892 72.9742C73.4854 73.8679 73.1205 75.2823 70.6125 74.9093C68.9741 74.6684 67.3746 70.736 67.3746 70.736L73.0972 69.7646Z" fill="#6D3913"/>
<path opacity="0.35" d="M71.847 70.1687C73.2292 70.3164 73.8814 71.8551 72.9186 72.4224C71.9558 72.9897 70.7134 73.083 70.5348 71.9095C70.364 70.7282 70.4649 70.0288 71.847 70.1687Z" fill="white"/>
<path d="M81.9645 70.6738C81.9645 70.6738 72.2974 68.762 64.2609 73.4171C64.2609 73.4171 63.8106 71.8395 65.9925 70.5028C67.196 69.7723 69.7661 68.9329 72.2974 68.762C80.9706 68.1869 81.9645 70.6738 81.9645 70.6738Z" fill="#773B20"/>
<path d="M160.054 56.7706C152.173 56.8328 146.505 59.7316 146.505 59.7316C145.992 62.0397 147.173 64.4333 147.173 64.4333C151.102 61.5423 155.225 60.0424 158.556 59.2109C159.053 58.4026 159.55 57.5866 160.054 56.7706Z" fill="#231F20"/>
<path d="M165.793 57.2525C164.286 56.9883 162.834 56.8484 161.437 56.8018C161.017 57.4856 160.598 58.1695 160.179 58.8534C162.438 58.3949 164.17 58.2473 164.954 58.1229C166.957 57.8198 165.793 57.2525 165.793 57.2525Z" fill="#231F20"/>
<path d="M51.8451 68.4823C51.8451 68.4823 53.3359 65.9876 52.342 63.7806C52.342 63.7806 42.1314 60.1746 31.9984 62.6925C31.9984 62.6925 30.2203 63.1977 32.2624 63.3764C34.3046 63.5396 46.5418 65.125 51.8451 68.4823Z" fill="#231F20"/>
<path d="M76.9407 61.2936C69.0595 61.3558 63.3913 64.2545 63.3913 64.2545C62.8788 66.5626 64.059 68.9563 64.059 68.9563C67.988 66.0653 72.1111 64.5654 75.4421 63.7338C75.9391 62.9256 76.4438 62.1096 76.9407 61.2936Z" fill="#231F20"/>
<path d="M82.6788 61.7754C81.1725 61.5112 79.7205 61.3713 78.3228 61.3247C77.9035 62.0086 77.4842 62.6925 77.0649 63.3764C79.3245 62.9179 81.056 62.7702 81.8403 62.6459C83.8436 62.335 82.6788 61.7754 82.6788 61.7754Z" fill="#231F20"/>
<path d="M138.701 101.76C137.708 101.806 134.058 101.9 132.591 101.154C131.892 100.804 133.848 102.653 134.229 102.964C134.741 103.407 135.339 103.648 135.58 103.804C136.784 104.62 138.041 105.202 139.92 105.311C142.359 105.451 146.086 104.783 147.538 103.547C151.319 100.322 150.752 100.392 151.498 99.1329C147.833 100.073 142.607 101.581 138.701 101.76Z" fill="#F5C5B3"/>
<path d="M147.281 139.817H134.307V203.053H147.281V139.817Z" fill="white"/>
<path d="M146.598 85.6728C145.247 83.9553 144.393 78.7951 143.974 75.5544C143.772 73.969 142.428 72.7877 140.829 72.7877C139.229 72.7877 137.886 73.969 137.684 75.5544C137.265 78.8028 136.419 83.9553 135.06 85.6728C133.033 88.2452 133.033 89.4109 134.493 90.429C135.96 91.447 136.745 90.9963 137.762 92.1232C138.67 93.1334 140.014 93.4754 140.86 93.4754C141.776 93.4754 142.972 93.1257 143.88 92.1232C144.898 90.9963 145.682 91.447 147.149 90.429C148.625 89.4109 148.625 88.253 146.598 85.6728Z" fill="#C47E4E"/>
<path d="M141.404 139.817L147.095 150.588L161.444 153.564L159.099 144.052L141.404 139.817Z" fill="#978DEF"/>
<path d="M139.905 139.817L134.221 150.588L119.864 153.564L122.217 144.052L139.905 139.817Z" fill="#978DEF"/>
<path d="M142.141 139.817H147.258C150.737 139.817 153.734 137.353 154.409 133.934L156.125 125.237C159.472 125.237 162.182 127.95 162.182 131.299V153.564L142.141 139.817Z" fill="#978DEF"/>
<path d="M141.403 139.817H134.4C130.921 139.817 127.924 137.353 127.248 133.934L125.532 125.237C122.186 125.237 119.476 127.95 119.476 131.299V153.564L141.403 139.817Z" fill="#978DEF"/>
<path d="M152.158 166.177C152.158 167.032 151.467 167.732 150.605 167.732C149.743 167.732 149.052 167.04 149.052 166.177C149.052 165.323 149.743 164.623 150.605 164.623C151.467 164.623 152.158 165.323 152.158 166.177Z" fill="white"/>
<path d="M150.605 188.435C151.462 188.435 152.158 187.739 152.158 186.881C152.158 186.022 151.462 185.326 150.605 185.326C149.747 185.326 149.052 186.022 149.052 186.881C149.052 187.739 149.747 188.435 150.605 188.435Z" fill="white"/>
<path d="M178.612 59.1565C178.612 59.1565 162.702 40.8391 145.061 38.7097C141.427 38.2668 133.258 41.2743 129.655 42.5644C108.178 50.2115 105.989 54.8977 102.619 62.6381C102.619 62.6381 95.8556 48.2453 95.3198 33.3785C95.3198 33.3707 95.3198 33.3707 95.3198 33.3552C94.9782 23.7963 105.002 4.08004 129.888 0.722767C161.988 -3.60595 178.014 13.2892 180.15 33.8992C180.437 36.5959 180.592 39.0672 180.646 41.3054C180.654 41.4064 180.654 41.5075 180.654 41.6007C180.662 42.0048 180.678 42.409 180.678 42.8053C180.825 54.1517 178.612 59.1565 178.612 59.1565Z" fill="#978DEF"/>
<g opacity="0.13">
<path d="M127.543 4.51525C160.784 0.14768 177.37 17.1905 179.575 37.9948C180.313 44.9736 180.235 50.3747 179.862 54.3848C180.577 50.3592 181.159 43.6757 180.142 33.8914C178.006 13.2815 161.988 -3.60594 129.888 0.722769C115.935 2.60347 106.656 9.62888 101.252 17.1284C107.045 11.1521 115.648 6.07732 127.543 4.51525Z" fill="white"/>
</g>
<path d="M130.44 32.6324C137.995 28.599 153.68 29.7569 158.82 35.127C158.82 35.127 158.152 15.3486 147.289 13.5456C129.5 10.5769 130.44 32.6324 130.44 32.6324Z" fill="#8C83DD"/>
<path d="M178.612 59.1565C178.612 59.1565 162.702 40.8392 145.061 38.7098C141.427 38.2668 133.258 41.2744 129.655 42.5644C108.178 50.2116 105.989 54.8978 102.619 62.6382C102.619 62.6382 95.8556 48.2454 95.3198 33.3786C95.3198 33.3708 95.3198 33.3708 95.3198 33.3552C178.612 18.3097 178.612 59.1565 178.612 59.1565Z" fill="#968EE6"/>
<path d="M145.93 17.9443C152.849 19.0945 155.628 27.5343 156.739 33.5106C157.539 34.0002 158.253 34.5287 158.82 35.1271C158.82 35.1271 158.152 15.3487 147.289 13.5457C136.186 11.6961 132.381 19.5841 131.092 25.7858C133.173 20.8742 137.389 16.5222 145.93 17.9443Z" fill="#827ACB"/>
<path d="M129.655 42.5645C129.78 42.5256 130.447 32.6325 130.447 32.6325C130.447 32.6325 136.131 29.4695 144.634 29.726C153.136 29.9824 157.585 31.8864 160.978 33.8915C166.251 37.0001 173.689 43.396 170.669 47.6159C168.65 50.437 165.521 49.3023 161.817 45.8673C157.663 42.0205 150.108 38.7098 142.949 39.2538C135.79 39.8056 129.655 42.5645 129.655 42.5645Z" fill="#837CC6"/>
<path d="M139.874 35.1193C139.874 36.1529 139.035 37 137.995 37C136.962 37 136.116 36.1607 136.116 35.1193C136.116 34.0857 136.954 33.2386 137.995 33.2386C139.035 33.2464 139.874 34.0857 139.874 35.1193Z" fill="#7675AF"/>
<path d="M148.376 34.6608C148.376 35.6945 147.538 36.5415 146.497 36.5415C145.464 36.5415 144.618 35.7022 144.618 34.6608C144.618 33.6272 145.457 32.7802 146.497 32.7802C147.538 32.7879 148.376 33.6272 148.376 34.6608Z" fill="#7675AF"/>
<path d="M155.698 36.1762C155.698 37.2098 154.86 38.0569 153.819 38.0569C152.787 38.0569 151.94 37.2176 151.94 36.1762C151.94 35.1426 152.779 34.2955 153.819 34.2955C154.86 34.2955 155.698 35.1349 155.698 36.1762Z" fill="#7675AF"/>
<path d="M162.842 38.8807C162.842 39.9143 162.003 40.7614 160.963 40.7614C159.93 40.7614 159.084 39.9221 159.084 38.8807C159.084 37.8471 159.922 37 160.963 37C162.003 37 162.842 37.8393 162.842 38.8807Z" fill="#7675AF"/>
<path d="M258.566 64.0526C259.482 67.1223 263.846 67.0834 264.7 63.9982C265.53 61.0061 266.152 58.0918 266.291 57.1204C266.967 52.4575 266.672 47.5382 264.832 43.0618C264.723 42.8053 264.614 42.5489 264.49 42.2924C264.218 41.7096 264.172 41.0568 264.265 40.4195C264.335 39.961 264.28 39.4947 264.055 39.0206C264.055 39.0206 263.022 36.0286 264.925 35.7411C266.827 35.4458 268.737 32.6869 268.737 29.7804C268.737 26.8738 264.933 25.2807 266.998 24.4025C269.063 23.5321 269.545 19.3122 266.687 16.2658C263.838 13.2116 257.642 15.1078 255.421 15.4031C253.2 15.6984 250.35 16.0559 252.253 10.1729C254.551 3.06979 245.164 -1.18898 238.773 0.303143C233.998 1.41446 230.83 8.16011 230.356 6.70684C229.883 5.25357 228.299 2.64236 224.96 3.94797C222.172 5.04374 224.323 8.60308 221.31 8.30776C218.298 8.02022 214.019 3.07756 207.031 6.13952C200.051 9.19371 204.484 15.5896 203.692 16.7554C202.9 17.9211 198.459 15.5974 193.536 19.2345C189.762 22.0244 192.146 27.1225 193.458 29.3451C193.862 30.0213 193.986 30.814 193.839 31.5911C192.713 37.5751 192.674 59.8715 194.118 59.8093C195.733 59.7394 200.843 57.9364 203.42 48.6262C203.483 48.4086 203.56 48.191 203.669 47.9967C207.862 39.9843 209.461 44.6161 215.51 46.489C216.45 46.7843 217.482 46.5978 218.274 46.015C218.29 45.9994 218.313 45.9917 218.329 45.9761C219.664 44.9891 221.551 45.2223 222.623 46.4968C224.222 48.393 226.8 50.1572 230.807 49.8774C239.061 49.2868 245.73 43.1784 245.249 41.5775C244.775 39.9765 244.737 48.4086 248.099 50.7323C250.459 52.3643 252.16 52.9549 253.301 53.1181C254.551 53.2968 255.607 54.1439 255.972 55.3563L258.566 64.0526Z" fill="#462820"/>
<path d="M91.3365 46.5046C91.6316 45.7196 91.6626 44.8959 91.2278 44.0954C91.2278 44.0954 89.9311 40.9946 91.8568 40.5594C93.7824 40.1242 95.5139 37.07 95.2888 33.9847C95.0636 30.9072 91.0337 29.4695 93.0758 28.4048C95.118 27.3401 95.2732 22.8404 92.113 19.8018C88.945 16.7631 82.7565 19.1878 80.5047 19.6463C78.2529 20.1049 75.3645 20.6799 76.8398 14.3229C78.6257 6.64466 68.679 2.76669 62.2498 4.77173C57.4435 6.27163 54.7413 13.6312 54.1357 12.1236C53.53 10.6159 51.7053 7.95027 48.3898 9.56673C45.6255 10.919 48.1025 14.5405 44.9966 14.4317C41.8829 14.3306 37.1076 9.38799 30.197 13.095C23.2864 16.802 28.3413 23.2756 27.6191 24.5657C26.897 25.848 22.1605 23.6875 17.4085 27.8763C12.6565 32.0574 18.9382 39.689 18.9382 39.689C18.1772 41.8106 18.6353 53.4911 19.4817 61.9154C19.5205 62.0242 19.5438 62.1408 19.5593 62.2496C19.9088 62.4439 20.0252 62.9024 19.8855 63.2599C19.8855 63.291 19.9088 63.3143 19.9088 63.3454C19.9088 63.3842 19.901 63.4153 19.8932 63.4542C20.1417 63.835 20.2349 64.3168 20.1805 64.7831C20.2737 64.9074 20.3281 65.0628 20.3436 65.2261C20.3591 65.2571 20.3746 65.2804 20.3824 65.3115C20.4601 65.4592 20.4911 65.6302 20.4756 65.7934C20.4833 65.8167 20.5066 65.8322 20.5144 65.8555C20.561 65.9488 20.5843 66.0498 20.5843 66.1664V66.3685C20.5843 66.4384 20.5765 66.5083 20.5532 66.5783C20.5688 66.6171 20.5843 66.656 20.5843 66.7026V66.8347C20.5843 66.8581 20.5765 66.8814 20.5688 66.9125C20.6231 66.9591 20.6619 67.0135 20.693 67.0757C20.7008 67.0834 20.7008 67.0912 20.7085 67.1067C20.8095 67.2933 20.8405 67.5186 20.7862 67.7362C20.8095 67.8295 20.8172 67.9305 20.8017 68.0316C21.2443 68.389 21.1589 69.2284 20.561 69.4149C20.7862 70.3164 21.0113 70.8371 21.2288 70.8137C22.8982 70.6272 28.085 68.3269 29.933 57.9908C33.9396 48.1288 35.9196 54.4082 43.4747 55.5428C43.4747 55.5428 47.1008 53.7553 46.6971 50.5302C46.6971 50.5302 49.6089 59.0011 58.0181 57.8198C65.2315 56.8095 70.9153 51.5793 71.9946 49.0614C72.2198 51.2996 73.2991 56.0246 75.7993 57.5634C81.3588 60.9828 83.2845 59.3897 83.2845 59.3897L90.6299 79.1758C92.9205 78.7873 94.7996 65.4825 94.9471 63.12C95.2732 58.1385 94.5822 52.9393 92.3304 48.3309C92.0353 47.7091 91.7015 47.103 91.3365 46.5046Z" fill="#091D1F"/>
<path d="M30.2436 56.1568C30.2436 56.1568 21.5704 54.9289 19.7457 56.2422C19.0779 56.7241 19.2876 59.3664 19.8156 62.506C19.9243 62.6848 19.9553 62.9024 19.9165 63.1122C19.9476 63.291 19.9786 63.4775 20.0175 63.6562C20.1728 63.9749 20.2426 64.3401 20.2193 64.6976C20.2349 64.7831 20.2504 64.8686 20.2737 64.9463C20.3125 65.0395 20.3358 65.1328 20.3436 65.2338C20.3591 65.2649 20.3746 65.296 20.3824 65.3271C20.4523 65.4747 20.4911 65.6302 20.4756 65.7934C20.4911 65.8167 20.5066 65.8322 20.5144 65.8556C20.561 65.9488 20.5843 66.0498 20.5843 66.1664V66.3685C20.5843 66.384 20.5765 66.3996 20.5765 66.4151C20.6309 66.6638 20.6852 66.9125 20.7396 67.1612C20.7629 67.2078 20.7784 67.2544 20.7862 67.3088C20.8017 67.3554 20.8095 67.4099 20.8095 67.4565C20.8095 67.4798 20.8172 67.5031 20.8172 67.5342C20.8716 67.7751 20.9259 68.0238 20.9803 68.2569C21.0502 68.3968 21.089 68.5523 21.0812 68.7077C21.8655 72.1038 22.6109 74.8627 22.6109 74.8627C22.6109 74.8627 29.7389 73.8446 28.9857 65.8167C28.3413 58.9467 30.2436 56.1568 30.2436 56.1568Z" fill="#C47E4E" fill-opacity="0.91"/>
<path d="M85.1713 61.8688C85.1713 61.8688 92.5944 53.328 93.3709 55.4884C98.5577 69.8657 90.5368 81.1887 90.5368 81.1887L85.1713 61.8688Z" fill="#C47E4E" fill-opacity="0.8"/>
<path d="M40.0194 112.772L47.6289 119.844C47.6289 119.844 74.9995 124.647 74.2541 112.197L57.2261 109.275L40.0194 112.772Z" fill="#091D1F"/>
<path d="M58.6237 99.5059C58.6237 99.5059 60.7746 97.26 63.4611 95.6746C65.5576 94.4389 68.6247 94.571 70.6901 95.83C73.0273 97.2444 76.0322 98.0527 78.3772 98.9386C67.7085 103.151 58.6237 99.5059 58.6237 99.5059Z" fill="#091D1F"/>
<path d="M57.6065 99.5059C57.6065 99.5059 55.4557 97.26 52.7691 95.6746C50.6726 94.4389 47.6056 94.571 45.5401 95.83C43.203 97.2444 40.198 98.0527 37.8531 98.9386C48.5218 103.151 57.6065 99.5059 57.6065 99.5059Z" fill="#091D1F"/>
<path d="M356.088 78.3453C356.088 78.3453 354.337 65.5432 365.611 64.2493C376.894 62.9555 373.915 84.6298 364.832 94.2655C361.54 97.7614 356.16 96.9497 354.875 94.812C352.755 91.2679 356.088 78.3453 356.088 78.3453Z" fill="#DB9261"/>
<path d="M360.095 79.1811C360.095 79.1811 360.223 72.3662 365.876 71.0321C371.53 69.7061 371.73 78.7552 367.137 83.3601C362.544 87.965 361.685 87.314 361.685 87.314C361.685 87.314 364.873 83.4726 364.656 82.3636C364.479 81.4394 360.095 79.1811 360.095 79.1811Z" fill="#C1855D"/>
<path d="M300.462 78.3453C300.462 78.3453 302.213 65.5432 290.939 64.2493C279.656 62.9554 282.852 84.4369 291.717 94.2655C296.158 99.1838 300.575 97.1747 301.675 94.812C303.417 91.067 300.462 78.3453 300.462 78.3453Z" fill="#DB9261"/>
<path d="M296.455 79.1811C296.455 79.1811 296.327 72.3661 290.674 71.0321C285.02 69.698 284.82 78.7551 289.413 83.36C294.006 87.9649 294.865 87.314 294.865 87.314C294.865 87.314 291.677 83.4725 291.894 82.3635C292.071 81.4393 296.455 79.1811 296.455 79.1811Z" fill="#C1855D"/>
<mask id="mask11_213_307" style="mask-type:luminance" maskUnits="userSpaceOnUse" x="269" y="126" width="120" height="77">
<path d="M328.544 126.492C295.66 126.492 269 153.173 269 186.082V202.75H388.08V186.082C388.08 153.173 361.428 126.492 328.544 126.492Z" fill="white"/>
</mask>
<g mask="url(#mask11_213_307)">
<path d="M328.544 126.492C295.66 126.492 269 153.173 269 186.082V202.75H388.08V186.082C388.08 153.173 361.428 126.492 328.544 126.492Z" fill="#978DEF"/>
</g>
<mask id="mask12_213_307" style="mask-type:luminance" maskUnits="userSpaceOnUse" x="269" y="126" width="120" height="77">
<path d="M328.544 126.492C295.66 126.492 269 153.173 269 186.082V202.75H388.08V186.082C388.08 153.173 361.428 126.492 328.544 126.492Z" fill="white"/>
</mask>
<g mask="url(#mask12_213_307)">
<path d="M312.628 143.135L329.861 137.148L348.162 145.128L329.098 201.552L312.628 143.135Z" fill="white"/>
<path d="M333.282 147.459H326.111L321.526 191.434L329.098 201.552L337.867 191.434L333.282 147.459Z" fill="#231F20"/>
<path d="M333.282 147.459H326.111L324.376 141.841L325.404 137.269H333.988L334.872 141.817L333.282 147.459Z" fill="#231F20"/>
</g>
<mask id="mask13_213_307" style="mask-type:luminance" maskUnits="userSpaceOnUse" x="269" y="126" width="120" height="77">
<path d="M328.544 126.492C295.66 126.492 269 153.173 269 186.082V202.75H388.08V186.082C388.08 153.173 361.428 126.492 328.544 126.492Z" fill="white"/>
</mask>
<g mask="url(#mask13_213_307)">
<path d="M346.154 126.62L328.183 202.259L331.539 203.224L354.056 167.928L347.784 163.837L358.095 156.146L356.746 128.525L346.154 126.62Z" fill="#8985DD"/>
</g>
<mask id="mask14_213_307" style="mask-type:luminance" maskUnits="userSpaceOnUse" x="269" y="126" width="120" height="77">
<path d="M328.544 126.492C295.66 126.492 269 153.173 269 186.082V202.75H388.08V186.082C388.08 153.173 361.428 126.492 328.544 126.492Z" fill="white"/>
</mask>
<g mask="url(#mask14_213_307)">
<path d="M312.564 126.62L330.543 202.259L327.179 203.224L304.662 167.928L310.934 163.837L300.631 156.146L301.972 128.525L312.564 126.62Z" fill="#8985DD"/>
</g>
<path d="M344.131 88.64V131.008C344.131 134.464 341.328 137.269 337.875 137.269H319.213C315.76 137.269 312.957 134.464 312.957 131.008V88.64H344.131Z" fill="#C1855D"/>
<path d="M344.131 89.8213V121.316C339.2 123.727 333.964 125.077 328.544 125.077C323.124 125.077 317.888 123.727 312.957 121.316V89.8213H344.131Z" fill="#CC8A5E"/>
<path d="M364.31 64.0805C364.302 64.0886 364.23 67.8898 363.708 73.0171C362.512 84.5735 359.942 92.2242 358.97 95.9049C356.81 104.263 348.652 110.539 341.047 115.747C338.044 117.796 334.012 119.259 328.849 119.259C323.67 119.259 319.679 117.796 316.675 115.747C309.055 110.539 300.888 104.255 298.704 95.9049C297.861 92.6903 295.227 86.1808 293.805 74.978C293.725 74.3029 293.645 73.6439 293.556 72.9688C293.171 69.8909 292.793 66.7325 292.448 63.6305C291.693 57.0808 291.051 57.2254 290.633 51.9937C290.168 46.1351 289.975 41.7231 290.256 40.0676C290.473 38.7817 291.42 36.9012 292.866 34.7072C292.994 34.5224 293.115 34.3456 293.251 34.1527C294.713 32.0231 296.632 29.6282 298.808 27.2655C299.226 27.2735 299.651 27.2735 300.085 27.2735C311.231 27.2655 322.377 25.0153 333.523 24.2679C339.345 23.8661 345.126 23.2874 350.9 22.6365C353.791 25.9796 356.593 29.8854 358.954 33.6384C361.484 37.6406 362.745 41.0962 363.901 43.8608C364.31 44.8734 364.616 45.7413 364.768 46.4244C364.8 46.553 364.816 46.6655 364.84 46.778C364.897 47.0834 364.945 47.4852 364.969 47.9674C365.146 50.965 364.856 56.9682 364.31 64.0805Z" fill="#DB9261"/>
<path d="M364.768 46.4405C363.371 47.0915 361.942 47.6942 360.488 48.2327C354.987 50.2739 349.165 51.4713 343.303 51.7285C329.668 52.3071 315.856 47.7585 305.24 39.1595C303.016 37.3593 300.832 35.2538 300.045 32.4892C299.555 30.8016 299.635 29.0014 300.093 27.2896C311.239 27.2816 322.385 25.0314 333.531 24.284C339.353 23.8822 345.134 23.3035 350.908 22.6526C353.799 25.9958 356.601 29.9015 358.962 33.6545C361.492 37.6567 362.753 41.1123 363.909 43.8769C364.31 44.8895 364.616 45.7494 364.768 46.4405Z" fill="#DB9261"/>
<path d="M363.7 73.0171L361.195 69.7141C361.195 69.7141 363.162 61.533 358.898 55.9476L352.177 33.7349L359.211 34.4983L362.287 34.8278L364.672 45.7172L365.611 50.0167L363.7 73.0171Z" fill="#B37A58"/>
<path d="M365.37 52.8938L365.716 48.7871L364.776 44.4876L362.391 33.5982L359.316 33.2687L351.591 32.0231L356.393 47.887C359.171 49.3336 362.616 51.3427 365.37 52.8938Z" fill="#925430"/>
<path d="M364.905 58.5835L365.009 57.3299C362.737 56.0521 360.456 54.7823 358.167 53.5447L358.786 55.594C360.496 56.7994 362.825 57.6915 364.905 58.5835Z" fill="#B27A58"/>
<path d="M361.901 66.2182C361.813 66.1699 361.717 66.1298 361.628 66.0815C361.548 68.2192 361.195 69.714 361.195 69.714L363.7 73.017L364.166 67.4799C363.411 67.054 362.664 66.6361 361.901 66.2182Z" fill="#B27A58"/>
<path d="M292.496 73.017L295.002 69.714C295.002 69.714 293.034 61.5329 297.298 55.9476L304.02 33.7348L300.944 32.4972C296.014 30.5041 290.521 32.9954 288.256 38.2513L292.496 73.017Z" fill="#B37A58"/>
<path d="M299.386 49.0603L304.02 33.7428L300.944 32.5052C296.014 30.5122 290.521 33.0035 288.256 38.2593L290.152 53.8179C293.083 51.9454 296.182 50.3944 299.386 49.0603Z" fill="#834B2A"/>
<path d="M297.523 55.2324L298.294 52.6848C295.604 53.9144 293.002 55.3288 290.553 57.0084L290.826 59.2506C293.002 57.8442 295.243 56.5021 297.523 55.2324Z" fill="#B27A58"/>
<path d="M291.942 68.4684L292.496 73.017L295.002 69.714C295.002 69.714 294.705 68.4684 294.592 66.62C293.701 67.2227 292.818 67.8335 291.942 68.4684Z" fill="#B27A58"/>
<path d="M347.592 35.985C350.547 40.8872 357.188 40.6461 361.403 43.9009C365.619 47.1557 365.619 50.0247 365.619 50.0247C365.619 50.0247 372.108 42.3177 367.86 33.7348C365.113 28.1977 361.403 25.2885 361.403 25.2885L347.592 35.985Z" fill="#834B2A"/>
<path d="M369.707 27.1931C368.518 29.0094 366.848 30.6568 364.455 31.8221C355.124 36.3547 350.434 45.4922 331.395 45.0903C312.355 44.7046 301.972 35.985 301.972 35.985C297.322 41.932 289.252 47.871 289.252 47.871C289.252 47.871 284.129 38.6933 286.851 30.6247C289.332 23.2633 296.142 20.7399 300.197 23.7053C300.197 23.7053 299.924 23.3035 299.659 22.5802C299.659 22.5722 299.651 22.5722 299.651 22.5722C299.651 22.5641 299.651 22.5641 299.643 22.5481C299.097 21.0533 298.559 18.1521 300.342 14.4232C300.784 13.4749 301.386 12.4864 302.173 11.4336C309.472 1.73362 322.136 4.31332 322.136 4.31332C318.354 5.49468 316.507 9.06287 316.507 9.06287C330.046 4.31332 339.754 8.66105 348.957 13.0168C358.167 17.3806 372.22 15.3956 372.22 15.3956C372.22 15.3956 373.095 21.9614 369.707 27.1931Z" fill="#763E17"/>
<path d="M306.357 66.9014C306.357 66.9014 307.537 69.1355 310.805 70.8553C314.082 72.5832 316.177 72.0688 318.707 68.2435C318.715 68.2515 313.447 63.8636 306.357 66.9014Z" fill="white"/>
<path d="M311.536 66.2664C310.508 66.1459 309.689 67.1826 310.107 68.1309C310.315 68.605 310.588 69.0631 310.878 69.6176C311.343 70.5177 312.058 71.6509 314.355 71.45C317.735 71.1526 317.494 66.9736 317.494 66.9736L311.536 66.2664Z" fill="#542F38"/>
<path opacity="0.35" d="M312.845 66.6201C311.424 66.837 310.829 68.4604 311.857 68.9988C312.877 69.5373 314.17 69.5694 314.29 68.3479C314.411 67.1263 314.266 66.4031 312.845 66.6201Z" fill="white"/>
<path d="M303.586 67.705C303.586 67.705 312.781 65.1253 320.482 68.8622C320.482 68.8622 320.899 67.3353 318.803 66.2584C317.647 65.6637 315.19 65.0851 312.781 65.1253C304.51 65.286 303.586 67.705 303.586 67.705Z" fill="#782F38"/>
<path d="M310.42 76.7139C310.42 76.7139 312.957 78.0479 316.137 77.0193C316.137 77.0112 313.319 82.4921 310.42 76.7139Z" fill="#BC774D"/>
<path d="M348.298 66.5719C348.298 66.5719 347.23 68.8623 344.042 70.7428C340.854 72.6234 338.734 72.2215 336.02 68.5248C336.02 68.5167 341.071 63.8797 348.298 66.5719Z" fill="white"/>
<path d="M343.071 66.1781C344.09 66.0013 344.958 67.0059 344.588 67.9702C344.404 68.4524 344.147 68.9185 343.89 69.4972C343.472 70.4214 343.095 71.884 340.501 71.4982C338.807 71.2491 337.152 67.1827 337.152 67.1827L343.071 66.1781Z" fill="#542F38"/>
<path opacity="0.35" d="M341.77 66.604C343.199 66.7567 343.874 68.3479 342.878 68.9346C341.882 69.5213 340.597 69.6177 340.413 68.4042C340.236 67.1827 340.34 66.4513 341.77 66.604Z" fill="white"/>
<path d="M350.876 67.3675C350.876 67.3675 342.581 65.0932 335.731 68.7819C335.731 68.7819 334.438 66.588 336.293 65.5191C337.313 64.9325 339.577 64.386 341.866 64.4824C349.72 64.8441 350.876 67.3675 350.876 67.3675Z" fill="#782F38"/>
<path d="M344.869 76.521C344.869 76.521 342.42 78.0158 339.184 77.2041C339.184 77.1961 342.356 82.476 344.869 76.521Z" fill="#BC774D"/>
<path d="M319.502 96.4353C318.747 96.2344 320.345 97.7935 320.723 98.0506C321.228 98.4123 321.815 98.7578 322.048 98.8864C323.244 99.5615 324.89 100.124 326.825 100.293C329.331 100.51 331.965 100.02 333.796 99.2481C335.627 98.4766 336.775 97.4559 337.706 96.4273C333.812 97.4158 323.919 97.6327 319.502 96.4353Z" fill="#F5C5B3"/>
<path d="M334.47 84.4048C333.073 82.6287 332.19 77.2925 331.756 73.9413C331.547 72.3019 330.158 71.0803 328.504 71.0803C326.85 71.0803 325.46 72.3019 325.252 73.9413C324.818 77.3005 323.943 82.6287 322.537 84.4048C320.441 87.0648 320.441 88.2703 321.951 89.3231C323.469 90.3759 324.28 89.9098 325.332 91.075C326.271 92.1198 327.661 92.4734 328.536 92.4734C329.483 92.4734 330.72 92.1117 331.66 91.075C332.712 89.9098 333.523 90.3759 335.04 89.3231C336.566 88.2703 336.566 87.0729 334.47 84.4048Z" fill="#C47E4E"/>
<path d="M329.861 137.148H335.153C338.75 137.148 341.85 134.601 342.549 131.064L344.323 122.072C347.784 122.072 350.587 124.876 350.587 128.34V148.367C350.587 149.637 349.166 150.392 348.114 149.669L329.861 137.148Z" fill="white"/>
<path d="M329.098 137.148H321.855C318.257 137.148 315.158 134.601 314.459 131.064L312.684 122.072C309.223 122.072 306.421 124.876 306.421 128.34V148.512C306.421 149.757 307.786 150.513 308.838 149.854L329.098 137.148Z" fill="white"/>
<path d="M334.013 57.2415L334.029 57.1692C334.029 57.1692 345.247 50.2819 354.65 56.0682C354.915 56.2289 354.53 57.0647 354.281 57.2656C352.867 58.4148 350.025 53.7537 337.586 60.0221C335.707 60.9704 333.466 59.2828 334.013 57.2415Z" fill="#6E3913"/>
<path d="M321.461 57.2415L321.445 57.1692C321.445 57.1692 310.227 50.2819 300.824 56.0682C300.559 56.2289 300.944 57.0647 301.193 57.2656C302.606 58.4148 305.449 53.7537 317.888 60.0221C319.767 60.9704 322.007 59.2828 321.461 57.2415Z" fill="#6E3913"/>
<path d="M369.707 27.1932C368.518 29.0095 366.848 30.6569 364.455 31.8222C355.124 36.3548 350.434 45.4922 331.395 45.0904C312.355 44.7047 301.972 35.9851 301.972 35.9851C301.747 30.6891 302.269 24.9269 299.659 22.5803C299.659 22.5723 299.651 22.5723 299.651 22.5723C299.651 22.5642 299.651 22.5642 299.643 22.5481C299.097 21.0534 298.559 18.1522 300.342 14.4233C306.421 11.5301 312.941 10.9355 316.153 17.1798C320.546 25.7306 334.719 29.9015 340.927 27.812C347.134 25.7225 351.791 24.8707 350.595 25.2966C349.406 25.7306 349.591 28.5755 346.748 30.0944C343.898 31.6133 353.968 31.2356 359.846 30.0944C362.969 29.4836 366.808 28.2299 369.707 27.1932Z" fill="#6F3913"/>
</svg>
