<svg width="171" height="107" viewBox="0 0 171 107" fill="none" xmlns="http://www.w3.org/2000/svg">
<path opacity="0.6" d="M61.5619 27.2667C69.0914 27.2667 75.1953 21.1629 75.1953 13.6334C75.1953 6.10386 69.0914 0 61.5619 0C54.0324 0 47.9286 6.10386 47.9286 13.6334C47.9286 21.1629 54.0324 27.2667 61.5619 27.2667Z" fill="#978DEF" fill-opacity="0.41"/>
<path opacity="0.6" d="M61.5619 22.7913C66.6197 22.7913 70.7199 18.6911 70.7199 13.6333C70.7199 8.57551 66.6197 4.47534 61.5619 4.47534C56.5041 4.47534 52.4039 8.57551 52.4039 13.6333C52.4039 18.6911 56.5041 22.7913 61.5619 22.7913Z" fill="white"/>
<path opacity="0.6" d="M29.0901 28.7231C32.1951 25.6182 32.1951 20.584 29.0901 17.479C25.9851 14.374 20.9509 14.374 17.846 17.479C14.741 20.584 14.741 25.6182 17.846 28.7232C20.9509 31.8281 25.9851 31.8281 29.0901 28.7231Z" fill="#978DEF" fill-opacity="0.41"/>
<path opacity="0.6" d="M27.2462 26.8792C29.3328 24.7926 29.3328 21.4096 27.2462 19.323C25.1596 17.2364 21.7765 17.2364 19.6899 19.323C17.6034 21.4096 17.6034 24.7926 19.6899 26.8792C21.7765 28.9658 25.1596 28.9658 27.2462 26.8792Z" fill="white"/>
<path opacity="0.6" d="M153.122 52.6565C154.256 47.853 151.282 43.0395 146.478 41.9052C141.675 40.771 136.861 43.7455 135.727 48.549C134.593 53.3526 137.567 58.1661 142.371 59.3003C147.174 60.4346 151.988 57.46 153.122 52.6565Z" fill="#978DEF" fill-opacity="0.41"/>
<path opacity="0.6" d="M144.421 56.5969C147.737 56.5969 150.425 53.909 150.425 50.5933C150.425 47.2776 147.737 44.5897 144.421 44.5897C141.105 44.5897 138.417 47.2776 138.417 50.5933C138.417 53.909 141.105 56.5969 144.421 56.5969Z" fill="white"/>
<path opacity="0.6" d="M165.028 106.892H8.68655C10.4425 104.45 12.8841 101.237 15.7333 97.9844C21.2426 91.687 28.2711 85.2415 34.7826 83.9684C35.5388 83.8181 36.2881 83.7406 37.0283 83.7406C50.8825 83.7406 56.6424 98.1165 66.9392 98.1165C74.3663 98.1165 80.297 89.2682 87.1455 81.6612C92.311 75.9241 97.9935 70.8907 105.234 70.8907C117.485 70.8907 124.374 85.4101 130.934 93.3268C133.393 96.2944 135.805 98.3328 138.436 98.3328C147.434 98.3328 155.16 90.9513 165.028 106.892Z" fill="#978DEF" fill-opacity="0.58"/>
<path opacity="0.6" d="M154.167 82.7317C144.198 82.7317 137.29 88.1681 130.934 93.3268C125.196 97.9798 119.908 102.407 113.226 102.407C103.635 102.407 95.8662 91.6255 87.1455 81.6612C79.6524 73.1022 71.4601 65.1422 60.808 65.1422C48.2793 65.1422 40.9661 74.9812 34.7826 83.9684C29.5852 91.5161 25.1828 98.4604 19.1496 98.4604C18.029 98.4604 16.8902 98.285 15.7332 97.9843C10.7477 96.6975 5.43649 93.1355 0 91.6072V106.892H170.816V90.0744C165.308 85.7494 159.542 82.7317 154.167 82.7317Z" fill="#978DEF" fill-opacity="0.3"/>
<path d="M140.331 22.1148C142.171 22.1148 143.663 20.623 143.663 18.7827C143.663 16.9425 142.171 15.4507 140.331 15.4507C138.49 15.4507 136.999 16.9425 136.999 18.7827C136.999 20.623 138.49 22.1148 140.331 22.1148Z" fill="#978DEF" fill-opacity="0.41"/>
<path d="M140.731 20.497C141.683 20.2724 142.272 19.3193 142.047 18.3681C141.822 17.417 140.869 16.828 139.918 17.0526C138.967 17.2772 138.378 18.2303 138.602 19.1815C138.827 20.1326 139.78 20.7216 140.731 20.497Z" fill="white"/>
<path d="M156.28 17.1306C158.885 16.5155 160.499 13.9051 159.883 11.3001C159.268 8.69516 156.658 7.08205 154.053 7.69716C151.448 8.31227 149.835 10.9227 150.45 13.5276C151.065 16.1326 153.675 17.7457 156.28 17.1306Z" fill="#978DEF" fill-opacity="0.41"/>
<path d="M155.176 14.9976C156.598 14.9976 157.752 13.8444 157.752 12.4217C157.752 10.9991 156.598 9.84583 155.176 9.84583C153.753 9.84583 152.6 10.9991 152.6 12.4217C152.6 13.8444 153.753 14.9976 155.176 14.9976Z" fill="white"/>
<path d="M155.833 74.0302C156.537 72.33 155.73 70.3808 154.03 69.6766C152.33 68.9723 150.38 69.7797 149.676 71.4799C148.972 73.1801 149.779 75.1293 151.479 75.8335C153.18 76.5378 155.129 75.7304 155.833 74.0302Z" fill="#978DEF" fill-opacity="0.41"/>
<path d="M154 74.0085C154.691 73.3174 154.691 72.197 154 71.5059C153.309 70.8148 152.188 70.8148 151.497 71.5059C150.806 72.197 150.806 73.3174 151.497 74.0085C152.188 74.6996 153.309 74.6996 154 74.0085Z" fill="white"/>
<path d="M30.1547 60.9588C30.859 59.2586 30.0516 57.3094 28.3514 56.6052C26.6512 55.9009 24.702 56.7083 23.9978 58.4085C23.2935 60.1087 24.1009 62.0579 25.8011 62.7621C27.5013 63.4664 29.4505 62.659 30.1547 60.9588Z" fill="#978DEF" fill-opacity="0.41"/>
<path d="M27.4818 61.4008C28.4329 61.1762 29.0219 60.2231 28.7973 59.2719C28.5727 58.3208 27.6196 57.7318 26.6684 57.9564C25.7173 58.181 25.1283 59.1341 25.3529 60.0853C25.5775 61.0364 26.5306 61.6254 27.4818 61.4008Z" fill="white"/>
<path d="M119.803 24.0031V41.6563" stroke="white" stroke-width="0.227754" stroke-miterlimit="10" stroke-linecap="round" stroke-linejoin="round"/>
<path d="M31.5712 29.0842V39.9891C31.5712 41.8293 33.063 43.3234 34.9055 43.3234H44.5988" stroke="white" stroke-width="0.227754" stroke-miterlimit="10" stroke-linecap="round" stroke-linejoin="round"/>
<path d="M56.9362 54.3718V69.8318C56.9362 71.672 55.4444 73.1661 53.6019 73.1661H43.911" stroke="white" stroke-width="0.227754" stroke-miterlimit="10" stroke-linecap="round" stroke-linejoin="round"/>
<path d="M62.1495 24.9233C61.3661 24.9233 60.7306 24.2879 60.7306 23.5044V19.7943C60.7306 19.0108 61.3661 18.3754 62.1495 18.3754C62.933 18.3754 63.5684 19.0108 63.5684 19.7943V23.5044C63.5684 24.2879 62.933 24.9233 62.1495 24.9233Z" fill="url(#paint0_linear_206_1317)"/>
<path d="M108.495 24.9233C107.712 24.9233 107.076 24.2879 107.076 23.5044V19.7943C107.076 19.0108 107.712 18.3754 108.495 18.3754C109.279 18.3754 109.914 19.0108 109.914 19.7943V23.5044C109.914 24.2879 109.279 24.9233 108.495 24.9233Z" fill="url(#paint1_linear_206_1317)"/>
<path d="M62.1495 32.5622C61.3661 32.5622 60.7306 31.9268 60.7306 31.1433V27.4332C60.7306 26.6497 61.3661 26.0143 62.1495 26.0143C62.933 26.0143 63.5684 26.6497 63.5684 27.4332V31.1433C63.5684 31.9268 62.933 32.5622 62.1495 32.5622Z" fill="url(#paint2_linear_206_1317)"/>
<path d="M104.122 91.193H66.6932C64.2289 91.193 62.2338 89.1956 62.2338 86.7335V13.1735C62.2338 10.7092 64.2312 8.71411 66.6932 8.71411H104.125C106.589 8.71411 108.584 10.7115 108.584 13.1735V86.7313C108.584 89.1956 106.587 91.193 104.122 91.193Z" fill="url(#paint3_linear_206_1317)"/>
<path opacity="0.97" d="M103.421 89.3343H67.3947C65.8528 89.3343 64.6047 88.084 64.6047 86.5443V13.3647C64.6047 11.8228 65.8551 10.5747 67.3947 10.5747H103.423C104.965 10.5747 106.213 11.8251 106.213 13.3647V86.5443C106.213 88.084 104.963 89.3343 103.421 89.3343Z" fill="url(#paint4_linear_206_1317)"/>
<path opacity="0.6" d="M94.5339 85.9613H76.2817C76.0517 85.9613 75.8649 86.1481 75.8649 86.3781V86.4533C75.8649 86.6833 76.0517 86.87 76.2817 86.87H94.5339C94.7639 86.87 94.9507 86.6833 94.9507 86.4533V86.3781C94.9507 86.1481 94.7639 85.9613 94.5339 85.9613Z" fill="white"/>
<path d="M95.8344 10.3949H74.3026L75.7852 12.2739C76.2886 12.9093 77.0538 13.2828 77.8646 13.2828H92.2724C93.0832 13.2828 93.8484 12.9116 94.3517 12.2739L95.8344 10.3949Z" fill="url(#paint5_linear_206_1317)"/>
<g opacity="0.6">
<path d="M90.1222 10.4038H83.4149C83.1028 10.4038 82.8477 10.6566 82.8477 10.9709C82.8477 11.2829 83.1006 11.538 83.4149 11.538H90.1222C90.4342 11.538 90.6893 11.2852 90.6893 10.9709C90.687 10.6566 90.4342 10.4038 90.1222 10.4038Z" fill="white"/>
<path d="M80.6705 11.538C80.9711 11.538 81.2148 11.2943 81.2148 10.9937C81.2148 10.693 80.9711 10.4493 80.6705 10.4493C80.3698 10.4493 80.1261 10.693 80.1261 10.9937C80.1261 11.2943 80.3698 11.538 80.6705 11.538Z" fill="white"/>
</g>
<path d="M71.6264 58.8813H46.6007C45.0611 58.8813 43.8153 57.6333 43.8153 56.0959V37.7663C43.8153 36.2267 45.0634 34.9808 46.6007 34.9808H71.6264C73.166 34.9808 74.4118 36.2289 74.4118 37.7663V56.0959C74.4141 57.6333 73.166 58.8813 71.6264 58.8813Z" fill="url(#paint6_linear_206_1317)"/>
<path d="M47.0221 37.7686H71.3485" stroke="white" stroke-width="0.683262" stroke-miterlimit="10" stroke-linecap="round" stroke-linejoin="round"/>
<path d="M47.0221 40.4606H71.3485" stroke="white" stroke-width="0.683262" stroke-miterlimit="10" stroke-linecap="round" stroke-linejoin="round"/>
<path d="M47.0221 43.1527H71.3485" stroke="white" stroke-width="0.683262" stroke-miterlimit="10" stroke-linecap="round" stroke-linejoin="round"/>
<path d="M47.0221 45.8446H65.5658" stroke="white" stroke-width="0.683262" stroke-miterlimit="10" stroke-linecap="round" stroke-linejoin="round"/>
<path d="M53.4288 56.228H47.4912C47.0107 56.228 46.6212 55.8385 46.6212 55.358V49.4204C46.6212 48.9399 47.0107 48.5504 47.4912 48.5504H53.4288C53.9093 48.5504 54.2988 48.9399 54.2988 49.4204V55.358C54.2988 55.8385 53.9093 56.228 53.4288 56.228Z" fill="url(#paint7_linear_206_1317)"/>
<path d="M50.4566 55.2055C52.0251 55.2055 53.2967 53.9339 53.2967 52.3654C53.2967 50.7968 52.0251 49.5253 50.4566 49.5253C48.8881 49.5253 47.6165 50.7968 47.6165 52.3654C47.6165 53.9339 48.8881 55.2055 50.4566 55.2055Z" fill="white"/>
<path d="M70.6447 56.228H57.3986C56.9545 56.228 56.5946 55.8682 56.5946 55.424V53.1465C56.5946 52.7024 56.9545 52.3425 57.3986 52.3425H70.6447C71.0889 52.3425 71.4487 52.7024 71.4487 53.1465V55.424C71.4487 55.8682 71.0889 56.228 70.6447 56.228Z" fill="url(#paint8_linear_206_1317)"/>
<path d="M51.3015 51.5364C51.3015 51.0695 50.9235 50.6937 50.4566 50.6937C49.9897 50.6937 49.6139 51.0718 49.6139 51.5364C49.6139 52.0033 49.992 52.3791 50.4566 52.3791C50.9235 52.3814 51.3015 52.0033 51.3015 51.5364Z" fill="url(#paint9_linear_206_1317)"/>
<path d="M51.8345 53.5337V53.561C51.4222 53.7797 50.9531 53.9027 50.4566 53.9027C49.9578 53.9027 49.4886 53.7797 49.0786 53.5588V53.5314C49.0786 52.7685 49.6959 52.1512 50.4566 52.1512C51.2173 52.1535 51.8345 52.7707 51.8345 53.5337Z" fill="url(#paint10_linear_206_1317)"/>
<path d="M59.5237 54.5405V53.8709H59.6194L59.644 53.9994L59.5975 53.9775C59.6394 53.9324 59.6802 53.9012 59.7198 53.8839C59.7594 53.8661 59.8011 53.8573 59.8448 53.8573C59.8776 53.8573 59.9091 53.8627 59.9391 53.8737C59.9696 53.8841 59.997 53.9028 60.0211 53.9297C60.0457 53.9561 60.0653 53.993 60.0799 54.0404L60.0457 54.0253C60.0658 53.9734 60.0965 53.9324 60.1379 53.9024C60.1794 53.8723 60.2352 53.8573 60.3053 53.8573C60.3614 53.8573 60.4085 53.8677 60.4468 53.8887C60.485 53.9092 60.5137 53.9409 60.5329 53.9837C60.5525 54.026 60.5623 54.08 60.5623 54.1456V54.5405H60.4393V54.147C60.4393 54.0841 60.427 54.0383 60.4024 54.0096C60.3778 53.9809 60.3377 53.9666 60.2821 53.9666C60.2429 53.9666 60.2115 53.9727 60.1878 53.985C60.1641 53.9969 60.1461 54.0124 60.1338 54.0315C60.122 54.0506 60.114 54.0709 60.1099 54.0923C60.1063 54.1137 60.1045 54.1338 60.1045 54.1524V54.5405H59.9815V54.1716C59.9815 54.1169 59.9749 54.0748 59.9617 54.0452C59.9485 54.0156 59.93 53.9951 59.9063 53.9837C59.8826 53.9723 59.8553 53.9666 59.8243 53.9666C59.7792 53.9666 59.7389 53.9766 59.7034 53.9967C59.6679 54.0162 59.644 54.0477 59.6317 54.0909L59.6467 54.024V54.5405H59.5237ZM61.0145 54.5542C60.9444 54.5542 60.8845 54.5387 60.8348 54.5077C60.7856 54.4763 60.7478 54.4344 60.7214 54.382C60.6954 54.3292 60.6824 54.2704 60.6824 54.2057C60.6824 54.141 60.6954 54.0825 60.7214 54.0301C60.7478 53.9773 60.7856 53.9354 60.8348 53.9044C60.8845 53.873 60.9444 53.8573 61.0145 53.8573C61.0842 53.8573 61.1439 53.873 61.1935 53.9044C61.2432 53.9354 61.281 53.9773 61.3069 54.0301C61.3334 54.0825 61.3466 54.141 61.3466 54.2057C61.3466 54.2704 61.3334 54.3292 61.3069 54.382C61.281 54.4344 61.2432 54.4763 61.1935 54.5077C61.1439 54.5387 61.0842 54.5542 61.0145 54.5542ZM61.0145 54.4449C61.081 54.4449 61.132 54.4239 61.1676 54.382C61.2031 54.3396 61.2209 54.2809 61.2209 54.2057C61.2209 54.1306 61.2031 54.072 61.1676 54.0301C61.132 53.9878 61.081 53.9666 61.0145 53.9666C60.9485 53.9666 60.8974 53.9878 60.8615 54.0301C60.8259 54.072 60.8082 54.1306 60.8082 54.2057C60.8082 54.2809 60.8259 54.3396 60.8615 54.382C60.8974 54.4239 60.9485 54.4449 61.0145 54.4449ZM61.4734 54.5405V53.8709H61.5745L61.5895 53.9816C61.6237 53.9393 61.6563 53.9081 61.6873 53.888C61.7187 53.8675 61.7522 53.8573 61.7877 53.8573C61.7991 53.8573 61.8096 53.8586 61.8191 53.8614L61.8068 53.9967C61.8009 53.9953 61.7945 53.9944 61.7877 53.9939C61.7813 53.993 61.774 53.9926 61.7658 53.9926C61.7303 53.9926 61.6975 54.0005 61.6674 54.0165C61.6378 54.032 61.6169 54.049 61.6046 54.0677V54.5405H61.4734ZM62.2096 54.5542C62.1308 54.5542 62.0645 54.538 62.0107 54.5057C61.957 54.4733 61.9162 54.4305 61.8884 54.3772C61.8611 54.3235 61.8474 54.2645 61.8474 54.2003C61.8474 54.1379 61.8602 54.0807 61.8857 54.0288C61.9117 53.9768 61.949 53.9354 61.9977 53.9044C62.0469 53.873 62.1062 53.8573 62.1754 53.8573C62.231 53.8573 62.2804 53.8684 62.3237 53.8907C62.3674 53.9126 62.4016 53.9447 62.4262 53.9871C62.4512 54.029 62.4637 54.08 62.4637 54.1401C62.4637 54.1497 62.4633 54.1602 62.4624 54.1716C62.4619 54.1825 62.4605 54.1939 62.4583 54.2057H61.9731C61.9791 54.2677 61.9939 54.316 62.0176 54.3506C62.0412 54.3852 62.0711 54.4096 62.1071 54.4237C62.1431 54.4378 62.1822 54.4449 62.2246 54.4449C62.2556 54.4449 62.2879 54.4417 62.3216 54.4353C62.3553 54.4289 62.3872 54.4189 62.4173 54.4052L62.4337 54.5023C62.4077 54.5137 62.376 54.5253 62.3387 54.5371C62.3013 54.5485 62.2583 54.5542 62.2096 54.5542ZM61.9841 54.121H62.3366C62.3366 54.0896 62.3307 54.0622 62.3189 54.039C62.307 54.0158 62.289 53.998 62.2649 53.9857C62.2408 53.973 62.21 53.9666 62.1727 53.9666C62.118 53.9666 62.0759 53.9803 62.0463 54.0076C62.0171 54.0345 61.9964 54.0723 61.9841 54.121ZM62.8946 54.5405V53.8709H63.0176V54.5405H62.8946ZM62.8946 53.7206V53.584H63.0176V53.7206H62.8946ZM63.1842 54.5405V53.8709H63.2799L63.3045 53.9994L63.2566 53.9789C63.3017 53.9288 63.3457 53.896 63.3885 53.8805C63.4318 53.865 63.4739 53.8573 63.5149 53.8573C63.6129 53.8573 63.6828 53.8855 63.7247 53.942C63.767 53.9985 63.7882 54.075 63.7882 54.1716V54.5405H63.6652V54.1716C63.6652 54.1005 63.652 54.0486 63.6256 54.0158C63.5992 53.983 63.5541 53.9666 63.4903 53.9666C63.4452 53.9666 63.4038 53.9766 63.366 53.9967C63.3286 54.0162 63.304 54.0477 63.2922 54.0909L63.3072 54.0158V54.5405H63.1842ZM63.9873 54.5405V53.9666H63.8712L63.8876 53.8709H63.9873V53.7124C63.9873 53.6527 64.0033 53.6051 64.0352 53.5696C64.0671 53.5336 64.114 53.5156 64.1759 53.5156C64.1987 53.5156 64.2185 53.5172 64.2354 53.5204C64.2527 53.5236 64.2684 53.5279 64.2825 53.5334L64.2634 53.6373C64.2524 53.6332 64.2417 53.6302 64.2313 53.6284C64.2208 53.6261 64.2087 53.625 64.1951 53.625C64.1686 53.625 64.1479 53.6325 64.1329 53.6475C64.1178 53.6621 64.1103 53.6864 64.1103 53.7206V53.8709H64.2907V53.9666H64.1103V54.5405H63.9873ZM64.6724 54.5542C64.6022 54.5542 64.5423 54.5387 64.4927 54.5077C64.4435 54.4763 64.4057 54.4344 64.3792 54.382C64.3533 54.3292 64.3403 54.2704 64.3403 54.2057C64.3403 54.141 64.3533 54.0825 64.3792 54.0301C64.4057 53.9773 64.4435 53.9354 64.4927 53.9044C64.5423 53.873 64.6022 53.8573 64.6724 53.8573C64.7421 53.8573 64.8017 53.873 64.8514 53.9044C64.901 53.9354 64.9388 53.9773 64.9648 54.0301C64.9912 54.0825 65.0044 54.141 65.0044 54.2057C65.0044 54.2704 64.9912 54.3292 64.9648 54.382C64.9388 54.4344 64.901 54.4763 64.8514 54.5077C64.8017 54.5387 64.7421 54.5542 64.6724 54.5542ZM64.6724 54.4449C64.7389 54.4449 64.7899 54.4239 64.8254 54.382C64.8609 54.3396 64.8787 54.2809 64.8787 54.2057C64.8787 54.1306 64.8609 54.072 64.8254 54.0301C64.7899 53.9878 64.7389 53.9666 64.6724 53.9666C64.6063 53.9666 64.5553 53.9878 64.5193 54.0301C64.4838 54.072 64.466 54.1306 64.466 54.2057C64.466 54.2809 64.4838 54.3396 64.5193 54.382C64.5553 54.4239 64.6063 54.4449 64.6724 54.4449Z" fill="white"/>
<path d="M119.778 29.1435C123.459 29.1435 126.442 26.1599 126.442 22.4794C126.442 18.7989 123.459 15.8153 119.778 15.8153C116.098 15.8153 113.114 18.7989 113.114 22.4794C113.114 26.1599 116.098 29.1435 119.778 29.1435Z" fill="url(#paint11_linear_206_1317)"/>
<path d="M120.768 26.6837C123.094 26.1345 124.534 23.8038 123.985 21.4779C123.436 19.152 121.105 17.7118 118.779 18.261C116.453 18.8102 115.013 21.1409 115.562 23.4667C116.112 25.7926 118.442 27.2329 120.768 26.6837Z" fill="white"/>
<path d="M119.796 19.694C118.733 19.694 117.872 20.5549 117.872 21.6185C117.872 23.7002 119.796 25.2557 119.796 25.2557C119.796 25.2557 121.721 23.8664 121.721 21.6185C121.721 20.5549 120.86 19.694 119.796 19.694ZM119.796 22.8848C119.097 22.8848 118.53 22.3177 118.53 21.6185C118.53 20.9193 119.097 20.3522 119.796 20.3522C120.496 20.3522 121.063 20.9193 121.063 21.6185C121.063 22.3177 120.496 22.8848 119.796 22.8848Z" fill="url(#paint12_linear_206_1317)"/>
<path d="M141.228 81.9459H116.202C114.663 81.9459 113.417 80.6979 113.417 79.1605V37.7639C113.417 36.2243 114.665 34.9785 116.202 34.9785H141.228C142.768 34.9785 144.013 36.2266 144.013 37.7639V79.1582C144.016 80.6979 142.768 81.9459 141.228 81.9459Z" fill="url(#paint13_linear_206_1317)"/>
<path d="M140.353 43.0661H117.327C116.546 43.0661 115.915 42.4329 115.915 41.654V39.4311C115.915 38.6499 116.549 38.019 117.327 38.019H140.353C141.135 38.019 141.765 38.6522 141.765 39.4311V41.654C141.768 42.4352 141.135 43.0661 140.353 43.0661Z" fill="url(#paint14_linear_206_1317)"/>
<path d="M140.353 50.3383H117.327C116.546 50.3383 115.915 49.7051 115.915 48.9262V46.7033C115.915 45.9221 116.549 45.2913 117.327 45.2913H140.353C141.135 45.2913 141.765 45.9244 141.765 46.7033V48.9262C141.768 49.7051 141.135 50.3383 140.353 50.3383Z" fill="url(#paint15_linear_206_1317)"/>
<path d="M140.353 79.4909H117.327C116.546 79.4909 115.915 78.8577 115.915 78.0788V66.6956C115.915 65.9145 116.549 65.2836 117.327 65.2836H140.353C141.135 65.2836 141.765 65.9167 141.765 66.6956V78.0788C141.768 78.86 141.135 79.4909 140.353 79.4909Z" fill="url(#paint16_linear_206_1317)"/>
<path opacity="0.6" d="M129.668 77.4692C132.476 77.0135 134.382 74.3684 133.927 71.5611C133.471 68.7538 130.826 66.8474 128.018 67.303C125.211 67.7586 123.305 70.4037 123.76 73.211C124.216 76.0183 126.861 77.9248 129.668 77.4692Z" fill="white"/>
<path d="M116.421 53.7228H141.237" stroke="white" stroke-width="0.683262" stroke-miterlimit="10" stroke-linecap="round" stroke-linejoin="round"/>
<path d="M116.421 56.6494H141.237" stroke="white" stroke-width="0.683262" stroke-miterlimit="10" stroke-linecap="round" stroke-linejoin="round"/>
<path d="M116.421 59.5784H141.237" stroke="white" stroke-width="0.683262" stroke-miterlimit="10" stroke-linecap="round" stroke-linejoin="round"/>
<path d="M116.421 62.5072H126.014" stroke="white" stroke-width="0.683262" stroke-miterlimit="10" stroke-linecap="round" stroke-linejoin="round"/>
<path opacity="0.6" d="M140.602 40.5699C140.602 39.6999 139.898 38.9961 139.028 38.9961C138.158 38.9961 137.454 39.6999 137.454 40.5699C137.454 41.4399 138.158 42.1437 139.028 42.1437C139.898 42.1437 140.602 41.4399 140.602 40.5699Z" fill="white"/>
<path opacity="0.6" d="M140.602 47.8511C140.602 46.9811 139.898 46.2773 139.028 46.2773C138.158 46.2773 137.454 46.9811 137.454 47.8511C137.454 48.7211 138.158 49.4249 139.028 49.4249C139.898 49.4249 140.602 48.7211 140.602 47.8511Z" fill="white"/>
<path d="M138.354 40.1896L139.078 41.1416L139.802 40.1896" stroke="white" stroke-width="0.227754" stroke-miterlimit="10" stroke-linecap="round" stroke-linejoin="round"/>
<path d="M138.354 47.4048L139.078 48.3545L139.802 47.4048" stroke="white" stroke-width="0.227754" stroke-miterlimit="10" stroke-linecap="round" stroke-linejoin="round"/>
<path d="M127.428 74.8355L131.325 72.3051L127.428 69.7748" fill="white"/>
<path d="M118.522 40.7563V40.0868H118.617L118.642 40.2152L118.594 40.1947C118.639 40.1446 118.683 40.1118 118.726 40.0963C118.769 40.0808 118.811 40.0731 118.852 40.0731C118.95 40.0731 119.02 40.1013 119.062 40.1578C119.104 40.2143 119.126 40.2908 119.126 40.3874V40.7563H119.003V40.3874C119.003 40.3163 118.989 40.2644 118.963 40.2316C118.937 40.1988 118.892 40.1824 118.828 40.1824C118.783 40.1824 118.741 40.1924 118.703 40.2125C118.666 40.2321 118.641 40.2635 118.63 40.3068L118.645 40.2316V40.7563H118.522ZM119.606 40.77C119.527 40.77 119.461 40.7538 119.407 40.7215C119.354 40.6892 119.313 40.6463 119.285 40.593C119.258 40.5393 119.244 40.4803 119.244 40.4161C119.244 40.3537 119.257 40.2965 119.282 40.2446C119.308 40.1927 119.346 40.1512 119.394 40.1202C119.444 40.0888 119.503 40.0731 119.572 40.0731C119.628 40.0731 119.677 40.0842 119.72 40.1066C119.764 40.1284 119.798 40.1605 119.823 40.2029C119.848 40.2448 119.86 40.2958 119.86 40.356C119.86 40.3655 119.86 40.376 119.859 40.3874C119.858 40.3983 119.857 40.4097 119.855 40.4215H119.37C119.376 40.4835 119.39 40.5318 119.414 40.5664C119.438 40.601 119.468 40.6254 119.504 40.6395C119.54 40.6536 119.579 40.6607 119.621 40.6607C119.652 40.6607 119.684 40.6575 119.718 40.6511C119.752 40.6447 119.784 40.6347 119.814 40.6211L119.83 40.7181C119.804 40.7295 119.773 40.7411 119.735 40.7529C119.698 40.7643 119.655 40.77 119.606 40.77ZM119.381 40.3368H119.733C119.733 40.3054 119.727 40.2781 119.715 40.2548C119.704 40.2316 119.686 40.2138 119.661 40.2015C119.637 40.1888 119.607 40.1824 119.569 40.1824C119.515 40.1824 119.472 40.1961 119.443 40.2234C119.414 40.2503 119.393 40.2881 119.381 40.3368ZM120.118 40.7563L119.917 40.0868H120.062L120.191 40.6211L120.333 40.1072H120.46L120.603 40.6211L120.732 40.0868H120.877L120.674 40.7563H120.536L120.397 40.2617L120.256 40.7563H120.118ZM121.522 40.77C121.47 40.77 121.425 40.7595 121.388 40.7386C121.351 40.7172 121.323 40.6848 121.303 40.6416C121.284 40.5983 121.275 40.5432 121.275 40.4762V40.0868H121.398V40.442C121.398 40.5131 121.41 40.5673 121.434 40.6047C121.458 40.642 121.498 40.6607 121.553 40.6607C121.591 40.6607 121.626 40.6516 121.659 40.6334C121.691 40.6151 121.713 40.586 121.726 40.5459L121.708 40.6129V40.0868H121.831V40.7563H121.721L121.697 40.6252L121.73 40.647C121.707 40.6885 121.68 40.7195 121.648 40.7399C121.616 40.76 121.574 40.77 121.522 40.77ZM122.188 40.77C122.129 40.77 122.08 40.763 122.04 40.7488C122.002 40.7347 121.974 40.7222 121.958 40.7113L121.973 40.5924C121.988 40.6051 122.014 40.6197 122.051 40.6361C122.088 40.6525 122.131 40.6607 122.182 40.6607C122.226 40.6607 122.259 40.6534 122.282 40.6388C122.305 40.6243 122.316 40.6038 122.316 40.5773C122.316 40.5541 122.309 40.5354 122.294 40.5213C122.279 40.5067 122.262 40.4953 122.241 40.4871C122.22 40.4785 122.201 40.4717 122.182 40.4666C122.152 40.4584 122.12 40.4482 122.088 40.4359C122.055 40.4231 122.028 40.4042 122.006 40.3792C121.983 40.3541 121.972 40.3191 121.972 40.274C121.972 40.2398 121.98 40.2075 121.997 40.1769C122.013 40.146 122.04 40.1209 122.077 40.1018C122.113 40.0827 122.162 40.0731 122.223 40.0731C122.268 40.0731 122.304 40.0779 122.332 40.0874C122.36 40.0965 122.385 40.1063 122.405 40.1168L122.39 40.2289C122.371 40.2125 122.348 40.1986 122.322 40.1872C122.296 40.1758 122.264 40.1701 122.226 40.1701C122.188 40.1701 122.157 40.1774 122.133 40.192C122.108 40.2061 122.096 40.2289 122.096 40.2603C122.096 40.2917 122.109 40.314 122.135 40.3273C122.161 40.3405 122.2 40.355 122.252 40.371C122.269 40.3755 122.287 40.3821 122.309 40.3908C122.331 40.3995 122.352 40.4111 122.372 40.4256C122.393 40.4402 122.41 40.4594 122.423 40.483C122.437 40.5063 122.444 40.5354 122.444 40.5705C122.444 40.6001 122.436 40.6304 122.422 40.6614C122.408 40.6919 122.383 40.7176 122.346 40.7386C122.309 40.7595 122.256 40.77 122.188 40.77ZM122.885 40.77C122.806 40.77 122.74 40.7538 122.686 40.7215C122.632 40.6892 122.592 40.6463 122.564 40.593C122.537 40.5393 122.523 40.4803 122.523 40.4161C122.523 40.3537 122.536 40.2965 122.561 40.2446C122.587 40.1927 122.624 40.1512 122.673 40.1202C122.722 40.0888 122.782 40.0731 122.851 40.0731C122.906 40.0731 122.956 40.0842 122.999 40.1066C123.043 40.1284 123.077 40.1605 123.102 40.2029C123.127 40.2448 123.139 40.2958 123.139 40.356C123.139 40.3655 123.139 40.376 123.138 40.3874C123.137 40.3983 123.136 40.4097 123.134 40.4215H122.649C122.654 40.4835 122.669 40.5318 122.693 40.5664C122.717 40.601 122.746 40.6254 122.782 40.6395C122.818 40.6536 122.858 40.6607 122.9 40.6607C122.931 40.6607 122.963 40.6575 122.997 40.6511C123.031 40.6447 123.063 40.6347 123.093 40.6211L123.109 40.7181C123.083 40.7295 123.051 40.7411 123.014 40.7529C122.977 40.7643 122.934 40.77 122.885 40.77ZM122.659 40.3368H123.012C123.012 40.3054 123.006 40.2781 122.994 40.2548C122.982 40.2316 122.964 40.2138 122.94 40.2015C122.916 40.1888 122.885 40.1824 122.848 40.1824C122.793 40.1824 122.751 40.1961 122.722 40.2234C122.693 40.2503 122.672 40.2881 122.659 40.3368ZM123.263 40.7563V40.0868H123.364L123.379 40.1974C123.413 40.1551 123.446 40.1239 123.477 40.1038C123.508 40.0833 123.542 40.0731 123.577 40.0731C123.589 40.0731 123.599 40.0745 123.609 40.0772L123.597 40.2125C123.591 40.2111 123.584 40.2102 123.577 40.2097C123.571 40.2088 123.564 40.2084 123.556 40.2084C123.52 40.2084 123.487 40.2163 123.457 40.2323C123.428 40.2478 123.407 40.2649 123.394 40.2835V40.7563H123.263Z" fill="white"/>
<path d="M118.712 48.0409C118.652 48.0409 118.603 48.0338 118.564 48.0197C118.525 48.0056 118.498 47.9931 118.482 47.9821L118.497 47.8632C118.512 47.876 118.537 47.8906 118.574 47.907C118.611 47.9234 118.655 47.9316 118.706 47.9316C118.749 47.9316 118.782 47.9243 118.805 47.9097C118.828 47.8951 118.84 47.8746 118.84 47.8482C118.84 47.825 118.833 47.8063 118.818 47.7922C118.803 47.7776 118.785 47.7662 118.764 47.758C118.744 47.7494 118.724 47.7425 118.706 47.7375C118.676 47.7293 118.644 47.7191 118.611 47.7068C118.579 47.694 118.551 47.6751 118.529 47.6501C118.507 47.625 118.496 47.5899 118.496 47.5448C118.496 47.5107 118.504 47.4783 118.52 47.4478C118.537 47.4168 118.563 47.3918 118.6 47.3727C118.637 47.3535 118.686 47.344 118.747 47.344C118.792 47.344 118.828 47.3487 118.856 47.3583C118.884 47.3674 118.908 47.3772 118.929 47.3877L118.914 47.4997C118.894 47.4833 118.871 47.4695 118.846 47.4581C118.82 47.4467 118.788 47.441 118.75 47.441C118.712 47.441 118.68 47.4483 118.656 47.4628C118.632 47.477 118.62 47.4997 118.62 47.5312C118.62 47.5626 118.633 47.5849 118.658 47.5981C118.684 47.6113 118.723 47.6259 118.776 47.6419C118.792 47.6464 118.811 47.653 118.833 47.6617C118.854 47.6703 118.876 47.6819 118.896 47.6965C118.917 47.7111 118.933 47.7302 118.947 47.7539C118.96 47.7771 118.967 47.8063 118.967 47.8414C118.967 47.871 118.96 47.9013 118.946 47.9322C118.932 47.9628 118.906 47.9885 118.869 48.0095C118.833 48.0304 118.78 48.0409 118.712 48.0409ZM119.409 48.0409C119.33 48.0409 119.264 48.0247 119.21 47.9924C119.156 47.96 119.115 47.9172 119.087 47.8639C119.06 47.8102 119.046 47.7512 119.046 47.687C119.046 47.6246 119.059 47.5674 119.085 47.5155C119.111 47.4635 119.148 47.4221 119.197 47.3911C119.246 47.3597 119.305 47.344 119.374 47.344C119.43 47.344 119.479 47.3551 119.523 47.3774C119.566 47.3993 119.601 47.4314 119.625 47.4738C119.65 47.5157 119.663 47.5667 119.663 47.6268C119.663 47.6364 119.662 47.6469 119.661 47.6583C119.661 47.6692 119.66 47.6806 119.657 47.6924H119.172C119.178 47.7544 119.193 47.8027 119.217 47.8373C119.24 47.8719 119.27 47.8963 119.306 47.9104C119.342 47.9245 119.381 47.9316 119.424 47.9316C119.455 47.9316 119.487 47.9284 119.521 47.922C119.554 47.9156 119.586 47.9056 119.616 47.8919L119.633 47.989C119.607 48.0003 119.575 48.012 119.538 48.0238C119.5 48.0352 119.457 48.0409 119.409 48.0409ZM119.183 47.6077H119.536C119.536 47.5763 119.53 47.5489 119.518 47.5257C119.506 47.5025 119.488 47.4847 119.464 47.4724C119.44 47.4597 119.409 47.4533 119.372 47.4533C119.317 47.4533 119.275 47.4669 119.245 47.4943C119.216 47.5212 119.195 47.559 119.183 47.6077ZM119.959 48.0409C119.916 48.0409 119.881 48.0331 119.856 48.0177C119.831 48.0017 119.813 47.9814 119.802 47.9568C119.791 47.9322 119.785 47.9065 119.785 47.8796V47.0023H119.908V47.8086C119.908 47.8468 119.911 47.8755 119.916 47.8947C119.921 47.9138 119.931 47.9266 119.946 47.9329C119.961 47.9393 119.985 47.9425 120.016 47.9425L119.999 48.0409H119.959ZM120.424 48.0409C120.345 48.0409 120.279 48.0247 120.225 47.9924C120.172 47.96 120.131 47.9172 120.103 47.8639C120.076 47.8102 120.062 47.7512 120.062 47.687C120.062 47.6246 120.075 47.5674 120.1 47.5155C120.126 47.4635 120.164 47.4221 120.212 47.3911C120.262 47.3597 120.321 47.344 120.39 47.344C120.446 47.344 120.495 47.3551 120.538 47.3774C120.582 47.3993 120.616 47.4314 120.641 47.4738C120.666 47.5157 120.678 47.5667 120.678 47.6268C120.678 47.6364 120.678 47.6469 120.677 47.6583C120.677 47.6692 120.675 47.6806 120.673 47.6924H120.188C120.194 47.7544 120.208 47.8027 120.232 47.8373C120.256 47.8719 120.286 47.8963 120.322 47.9104C120.358 47.9245 120.397 47.9316 120.439 47.9316C120.47 47.9316 120.503 47.9284 120.536 47.922C120.57 47.9156 120.602 47.9056 120.632 47.8919L120.648 47.989C120.622 48.0003 120.591 48.012 120.553 48.0238C120.516 48.0352 120.473 48.0409 120.424 48.0409ZM120.199 47.6077H120.551C120.551 47.5763 120.545 47.5489 120.533 47.5257C120.522 47.5025 120.504 47.4847 120.48 47.4724C120.455 47.4597 120.425 47.4533 120.387 47.4533C120.333 47.4533 120.29 47.4669 120.261 47.4943C120.232 47.5212 120.211 47.559 120.199 47.6077ZM121.11 48.0409C121.034 48.0409 120.971 48.0256 120.919 47.9951C120.868 47.9641 120.829 47.9227 120.803 47.8708C120.777 47.8184 120.764 47.7603 120.764 47.6965C120.764 47.63 120.777 47.5701 120.802 47.5168C120.827 47.4635 120.866 47.4214 120.918 47.3904C120.971 47.3594 121.038 47.344 121.119 47.344C121.154 47.344 121.187 47.3476 121.218 47.3549C121.25 47.3617 121.278 47.3713 121.302 47.3836L121.283 47.4915C121.258 47.4797 121.232 47.4704 121.203 47.4635C121.176 47.4567 121.147 47.4533 121.117 47.4533C121.043 47.4533 120.987 47.4742 120.948 47.5161C120.909 47.558 120.89 47.6164 120.89 47.6911C120.89 47.7639 120.908 47.8225 120.945 47.8667C120.982 47.9108 121.038 47.9329 121.114 47.9329C121.145 47.9329 121.174 47.9293 121.203 47.922C121.231 47.9147 121.259 47.9047 121.285 47.8919L121.301 47.9903C121.283 48.0031 121.256 48.0147 121.221 48.0252C121.186 48.0356 121.149 48.0409 121.11 48.0409ZM121.654 48.0409C121.611 48.0409 121.577 48.0331 121.552 48.0177C121.526 48.0022 121.508 47.9824 121.496 47.9582C121.485 47.9336 121.479 47.9079 121.479 47.881V47.4533H121.364L121.375 47.3576H121.479V47.1923L121.602 47.18V47.3576H121.778V47.4533H121.602V47.8058C121.602 47.8487 121.604 47.8796 121.609 47.8988C121.614 47.9179 121.627 47.93 121.646 47.935C121.666 47.94 121.698 47.9425 121.743 47.9425H121.774L121.764 48.0409H121.654Z" fill="white"/>
<path d="M41.5424 79.6662C45.2228 79.6662 48.2065 76.6826 48.2065 73.0021C48.2065 69.3216 45.2228 66.338 41.5424 66.338C37.8619 66.338 34.8783 69.3216 34.8783 73.0021C34.8783 76.6826 37.8619 79.6662 41.5424 79.6662Z" fill="url(#paint17_linear_206_1317)"/>
<path d="M44.6014 76.0627C46.2913 74.3728 46.2913 71.6329 44.6014 69.943C42.9115 68.253 40.1716 68.253 38.4817 69.943C36.7918 71.6329 36.7918 74.3728 38.4817 76.0627C40.1716 77.7526 42.9115 77.7526 44.6014 76.0627Z" fill="white"/>
<path d="M42.7312 71.1801C43.4691 71.1847 44.0681 71.7814 44.0704 72.5193C44.0704 73.8722 41.6061 75.2136 41.6061 75.2136C41.6061 75.2136 39.1418 73.8539 39.1418 72.5193C39.1418 71.7791 39.7408 71.1801 40.481 71.1801C40.9342 71.1756 41.3579 71.4056 41.6038 71.7837C41.8566 71.4056 42.278 71.1801 42.7312 71.1801Z" fill="url(#paint18_linear_206_1317)"/>
<path d="M31.5462 33.7691C35.2267 33.7691 38.2103 30.7855 38.2103 27.105C38.2103 23.4245 35.2267 20.4409 31.5462 20.4409C27.8657 20.4409 24.8821 23.4245 24.8821 27.105C24.8821 30.7855 27.8657 33.7691 31.5462 33.7691Z" fill="url(#paint19_linear_206_1317)"/>
<path d="M34.6053 30.165C36.2952 28.475 36.2952 25.7352 34.6053 24.0453C32.9154 22.3553 30.1755 22.3553 28.4856 24.0453C26.7957 25.7352 26.7957 28.475 28.4856 30.165C30.1755 31.8549 32.9154 31.8549 34.6053 30.165Z" fill="white"/>
<path d="M29.6285 28.7088C29.6285 28.6814 29.6308 28.6291 29.6354 28.5539C29.6399 28.4787 29.6445 28.3967 29.6513 28.3125C29.6581 28.2282 29.6627 28.1439 29.665 28.0642C29.6695 27.9845 29.6718 27.9276 29.6718 27.8911C29.6718 27.677 29.6376 27.5062 29.567 27.381C29.4964 27.2557 29.3689 27.1464 29.1821 27.0507C29.2732 27.0029 29.3507 26.9528 29.4122 26.9027C29.4737 26.8503 29.5238 26.7934 29.5648 26.7273C29.6035 26.6613 29.6331 26.5861 29.649 26.5041C29.665 26.4198 29.6741 26.3219 29.6741 26.2058C29.6741 26.1693 29.6718 26.1124 29.6672 26.0327C29.6627 25.9529 29.6581 25.871 29.6536 25.7844C29.6467 25.7001 29.6422 25.6182 29.6376 25.543C29.6331 25.4678 29.6308 25.4177 29.6308 25.3949C29.6308 25.0647 29.7287 24.8187 29.9246 24.657C30.1205 24.4953 30.4553 24.4133 30.929 24.4133V25.0624H30.8106C30.6716 25.0624 30.5623 25.0738 30.4849 25.0989C30.4074 25.1216 30.3482 25.1604 30.305 25.215C30.264 25.2697 30.2366 25.338 30.2275 25.4246C30.2184 25.5088 30.2116 25.6113 30.2116 25.732C30.2116 25.7753 30.2139 25.8459 30.2207 25.9461C30.2275 26.0463 30.2298 26.1944 30.2298 26.3925C30.2298 26.7091 30.1273 26.93 29.9246 27.053C30.1273 27.1805 30.2298 27.3855 30.2298 27.6679C30.2298 27.6884 30.2298 27.7226 30.2275 27.7704C30.2252 27.8183 30.223 27.8684 30.2207 27.923C30.2184 27.9777 30.2161 28.0301 30.2139 28.0802C30.2116 28.1303 30.2116 28.1713 30.2116 28.1986V28.5266C30.2161 28.6268 30.2275 28.7088 30.2435 28.7771C30.2617 28.8454 30.2936 28.8978 30.3368 28.9388C30.3801 28.9775 30.4393 29.0071 30.5168 29.0253C30.5919 29.0436 30.6899 29.0527 30.8083 29.0527C30.8288 29.0527 30.847 29.0527 30.8675 29.0504C30.888 29.0481 30.9062 29.0481 30.9267 29.0481V29.6972C30.4621 29.6972 30.1296 29.6175 29.9292 29.4581C29.7287 29.2987 29.6285 29.0458 29.6285 28.7088Z" fill="url(#paint20_linear_206_1317)"/>
<path d="M33.5619 28.7084C33.5619 29.0455 33.4616 29.2961 33.2612 29.4532C33.0608 29.6126 32.7283 29.6923 32.2637 29.6923V29.0432C32.2842 29.0432 32.3024 29.0432 32.3229 29.0455C32.3434 29.0478 32.3616 29.0478 32.3821 29.0478C32.5415 29.0478 32.6622 29.0319 32.7419 28.9977C32.8239 28.9635 32.8809 28.9134 32.9173 28.8428C32.9538 28.7722 32.972 28.6857 32.9743 28.5763C32.9765 28.4693 32.9765 28.3418 32.9765 28.1937C32.9765 28.1664 32.9765 28.1254 32.9743 28.0753C32.972 28.0229 32.9697 27.9705 32.9674 27.9181C32.9651 27.8635 32.9629 27.8134 32.9606 27.7655C32.9583 27.7177 32.9583 27.6836 32.9583 27.6631C32.9583 27.3806 33.0608 27.1757 33.2635 27.0481C33.0608 26.9251 32.9583 26.7042 32.9583 26.3876C32.9583 26.3626 32.9583 26.3284 32.9606 26.2829C32.9629 26.2373 32.9651 26.1895 32.9674 26.1394C32.9697 26.0893 32.972 26.0414 32.9743 25.9959C32.9765 25.9503 32.9765 25.9185 32.9765 25.898C32.9765 25.7431 32.9743 25.6133 32.9697 25.5062C32.9651 25.3992 32.9469 25.3126 32.9105 25.2466C32.874 25.1805 32.8148 25.1327 32.7351 25.1031C32.6531 25.0735 32.5347 25.0575 32.3798 25.0575H32.2614V24.4084C32.7351 24.4084 33.0699 24.4904 33.2658 24.6521C33.4616 24.8161 33.5596 25.0598 33.5596 25.3901C33.5596 25.4128 33.5573 25.4629 33.5528 25.5358C33.5482 25.6087 33.5436 25.6907 33.5368 25.7773C33.53 25.8638 33.5254 25.9481 33.5231 26.0278C33.5186 26.1075 33.5163 26.1644 33.5163 26.2009C33.5163 26.317 33.5254 26.415 33.5391 26.4992C33.555 26.5835 33.5824 26.6564 33.6234 26.7224C33.6621 26.7885 33.7145 26.8454 33.7759 26.8978C33.8374 26.9502 33.9126 26.998 34.006 27.0458C33.8192 27.1415 33.6917 27.2508 33.6211 27.3761C33.5527 27.5013 33.5163 27.6722 33.5163 27.8863C33.5163 27.9227 33.5186 27.9796 33.5231 28.0593C33.5277 28.1391 33.5323 28.2233 33.5368 28.3099C33.5436 28.3964 33.5482 28.4784 33.5528 28.5536C33.5596 28.6356 33.5619 28.6857 33.5619 28.7084Z" fill="url(#paint21_linear_206_1317)"/>
<path opacity="0.6" d="M71.7881 66.4451C73.2938 66.4451 74.5143 65.2245 74.5143 63.7189C74.5143 62.2132 73.2938 60.9927 71.7881 60.9927C70.2825 60.9927 69.0619 62.2132 69.0619 63.7189C69.0619 65.2245 70.2825 66.4451 71.7881 66.4451Z" fill="white"/>
<path d="M77.4433 64.9304H94.5089" stroke="white" stroke-width="0.683262" stroke-miterlimit="10" stroke-linecap="round" stroke-linejoin="round"/>
<path d="M77.4433 62.6074H100.872" stroke="white" stroke-width="0.683262" stroke-miterlimit="10" stroke-linecap="round" stroke-linejoin="round"/>
<path opacity="0.6" d="M71.7881 74.0202C73.2938 74.0202 74.5143 72.7996 74.5143 71.294C74.5143 69.7883 73.2938 68.5677 71.7881 68.5677C70.2825 68.5677 69.0619 69.7883 69.0619 71.294C69.0619 72.7996 70.2825 74.0202 71.7881 74.0202Z" fill="white"/>
<path d="M77.4433 72.5056H94.5089" stroke="white" stroke-width="0.683262" stroke-miterlimit="10" stroke-linecap="round" stroke-linejoin="round"/>
<path d="M77.4433 70.1825H100.872" stroke="white" stroke-width="0.683262" stroke-miterlimit="10" stroke-linecap="round" stroke-linejoin="round"/>
<path opacity="0.6" d="M71.7881 81.5931C73.2938 81.5931 74.5143 80.3725 74.5143 78.8668C74.5143 77.3612 73.2938 76.1406 71.7881 76.1406C70.2825 76.1406 69.0619 77.3612 69.0619 78.8668C69.0619 80.3725 70.2825 81.5931 71.7881 81.5931Z" fill="white"/>
<path d="M77.4433 80.0785H94.5089" stroke="white" stroke-width="0.683262" stroke-miterlimit="10" stroke-linecap="round" stroke-linejoin="round"/>
<path d="M77.4433 77.7555H100.872" stroke="white" stroke-width="0.683262" stroke-miterlimit="10" stroke-linecap="round" stroke-linejoin="round"/>
<path d="M72.6695 62.8851C72.6695 62.4182 72.2914 62.0424 71.8268 62.0424C71.3622 62.0424 70.9841 62.4204 70.9841 62.8851C70.9841 63.3519 71.3622 63.7277 71.8268 63.7277C72.2914 63.7277 72.6695 63.3497 72.6695 62.8851Z" fill="url(#paint22_linear_206_1317)"/>
<path d="M73.2024 64.8803V64.9076C72.7902 65.1262 72.321 65.2492 71.8245 65.2492C71.3257 65.2492 70.8565 65.1262 70.4466 64.9053V64.878C70.4466 64.115 71.0638 63.4978 71.8245 63.4978C72.5852 63.5001 73.2024 64.1173 73.2024 64.8803Z" fill="url(#paint23_linear_206_1317)"/>
<path d="M72.6695 70.3716C72.6695 69.9047 72.2914 69.5289 71.8268 69.5289C71.3622 69.5289 70.9841 69.907 70.9841 70.3716C70.9841 70.8385 71.3622 71.2143 71.8268 71.2143C72.2914 71.2143 72.6695 70.8385 72.6695 70.3716Z" fill="url(#paint24_linear_206_1317)"/>
<path d="M73.2024 72.3689V72.3962C72.7902 72.6149 72.321 72.7379 71.8245 72.7379C71.3257 72.7379 70.8565 72.6149 70.4466 72.394V72.3666C70.4466 71.6037 71.0638 70.9865 71.8245 70.9865C72.5852 70.9887 73.2024 71.6059 73.2024 72.3689Z" fill="url(#paint25_linear_206_1317)"/>
<path d="M72.6695 77.9559C72.6695 77.489 72.2914 77.1132 71.8268 77.1132C71.3622 77.1132 70.9841 77.4912 70.9841 77.9559C70.9841 78.4205 71.3622 78.7985 71.8268 78.7985C72.2914 78.7985 72.6695 78.4227 72.6695 77.9559Z" fill="url(#paint26_linear_206_1317)"/>
<path d="M73.2024 79.9531V79.9805C72.7902 80.1991 72.321 80.3221 71.8245 80.3221C71.3257 80.3221 70.8565 80.1991 70.4466 79.9782V79.9509C70.4466 79.1879 71.0638 78.5707 71.8245 78.5707C72.5852 78.573 73.2024 79.1902 73.2024 79.9531Z" fill="url(#paint27_linear_206_1317)"/>
<path opacity="0.6" d="M99.3782 43.2483H80.3972C79.3654 43.2483 78.5273 42.4101 78.5273 41.3784V39.2102C78.5273 38.1785 79.3654 37.3403 80.3972 37.3403H99.3782C100.41 37.3403 101.248 38.1785 101.248 39.2102V41.3784C101.25 42.4124 100.412 43.2483 99.3782 43.2483Z" fill="white"/>
<path d="M82.9822 58.9382H80.527C79.4952 58.9382 78.6571 58.1001 78.6571 57.0683V54.9001C78.6571 53.8684 79.4952 53.0303 80.527 53.0303H82.9822C84.0139 53.0303 84.852 53.8684 84.852 54.9001V57.0683C84.852 58.1024 84.0162 58.9382 82.9822 58.9382Z" fill="#6A63A8"/>
<path d="M99.3896 58.9861H96.9344C95.9026 58.9861 95.0645 58.1479 95.0645 57.1162V54.948C95.0645 53.9163 95.9026 53.0781 96.9344 53.0781H99.3896C100.421 53.0781 101.259 53.9163 101.259 54.948V57.1162C101.259 58.1479 100.424 58.9861 99.3896 58.9861Z" fill="#6A63A8"/>
<path d="M82.1826 57.7949C83.1851 57.5581 83.806 56.5535 83.5692 55.5509C83.3325 54.5483 82.3278 53.9275 81.3253 54.1642C80.3227 54.401 79.7019 55.4056 79.9386 56.4082C80.1753 57.4108 81.18 58.0316 82.1826 57.7949Z" fill="white"/>
<path d="M98.1961 57.8975C99.2263 57.8975 100.061 57.0624 100.061 56.0322C100.061 55.002 99.2263 54.1669 98.1961 54.1669C97.166 54.1669 96.3308 55.002 96.3308 56.0322C96.3308 57.0624 97.166 57.8975 98.1961 57.8975Z" fill="white"/>
<path d="M91.1449 58.9861H88.6897C87.658 58.9861 86.8198 58.1479 86.8198 57.1162V54.948C86.8198 53.9163 87.658 53.0781 88.6897 53.0781H91.1449C92.1766 53.0781 93.0147 53.9163 93.0147 54.948V57.1162C93.0147 58.1479 92.1789 58.9861 91.1449 58.9861Z" fill="#6A63A8"/>
<path d="M89.9515 57.8975C90.9816 57.8975 91.8168 57.0624 91.8168 56.0322C91.8168 55.002 90.9816 54.1669 89.9515 54.1669C88.9213 54.1669 88.0862 55.002 88.0862 56.0322C88.0862 57.0624 88.9213 57.8975 89.9515 57.8975Z" fill="white"/>
<path d="M82.9822 51.1924H80.527C79.4952 51.1924 78.6571 50.3542 78.6571 49.3225V47.1543C78.6571 46.1226 79.4952 45.2844 80.527 45.2844H82.9822C84.0139 45.2844 84.852 46.1226 84.852 47.1543V49.3225C84.852 50.3542 84.0162 51.1924 82.9822 51.1924Z" fill="#6A63A8"/>
<path d="M99.3896 51.2402H96.9344C95.9026 51.2402 95.0645 50.4021 95.0645 49.3704V47.2021C95.0645 46.1704 95.9026 45.3323 96.9344 45.3323H99.3896C100.421 45.3323 101.259 46.1704 101.259 47.2021V49.3704C101.259 50.4021 100.424 51.2402 99.3896 51.2402Z" fill="#6A63A8"/>
<path d="M81.7546 50.1037C82.7848 50.1037 83.62 49.2685 83.62 48.2384C83.62 47.2082 82.7848 46.373 81.7546 46.373C80.7245 46.373 79.8893 47.2082 79.8893 48.2384C79.8893 49.2685 80.7245 50.1037 81.7546 50.1037Z" fill="white"/>
<path d="M99.5145 49.6059C100.243 48.8775 100.243 47.6965 99.5145 46.968C98.7861 46.2396 97.6051 46.2396 96.8766 46.968C96.1482 47.6965 96.1482 48.8775 96.8766 49.6059C97.6051 50.3344 98.7861 50.3344 99.5145 49.6059Z" fill="white"/>
<path d="M91.1449 51.2402H88.6897C87.658 51.2402 86.8198 50.4021 86.8198 49.3704V47.2021C86.8198 46.1704 87.658 45.3323 88.6897 45.3323H91.1449C92.1766 45.3323 93.0147 46.1704 93.0147 47.2021V49.3704C93.0147 50.4021 92.1789 51.2402 91.1449 51.2402Z" fill="#6A63A8"/>
<path d="M91.6783 48.9998C92.0725 48.048 91.6205 46.9568 90.6688 46.5625C89.717 46.1683 88.6258 46.6203 88.2316 47.5721C87.8373 48.5238 88.2893 49.615 89.2411 50.0093C90.1928 50.4035 91.284 49.9515 91.6783 48.9998Z" fill="white"/>
<path d="M80.8458 39.4972H99.0502" stroke="white" stroke-width="0.683262" stroke-miterlimit="10" stroke-linecap="round" stroke-linejoin="round"/>
<path d="M80.8458 41.5629H93.6274" stroke="white" stroke-width="0.683262" stroke-miterlimit="10" stroke-linecap="round" stroke-linejoin="round"/>
<defs>
<linearGradient id="paint0_linear_206_1317" x1="62.9554" y1="18.8863" x2="61.3071" y2="24.542" gradientUnits="userSpaceOnUse">
<stop stop-color="#27183B"/>
<stop offset="1" stop-color="#471D55"/>
</linearGradient>
<linearGradient id="paint1_linear_206_1317" x1="109.301" y1="18.8863" x2="107.653" y2="24.542" gradientUnits="userSpaceOnUse">
<stop stop-color="#27183B"/>
<stop offset="1" stop-color="#471D55"/>
</linearGradient>
<linearGradient id="paint2_linear_206_1317" x1="62.9554" y1="26.5257" x2="61.3071" y2="32.1814" gradientUnits="userSpaceOnUse">
<stop stop-color="#27183B"/>
<stop offset="1" stop-color="#471D55"/>
</linearGradient>
<linearGradient id="paint3_linear_206_1317" x1="101.852" y1="11.186" x2="68.3763" y2="90.1046" gradientUnits="userSpaceOnUse">
<stop stop-color="#27183B"/>
<stop offset="1" stop-color="#471D55"/>
</linearGradient>
<linearGradient id="paint4_linear_206_1317" x1="85.4089" y1="10.5747" x2="85.4089" y2="89.3343" gradientUnits="userSpaceOnUse">
<stop stop-color="#E4E2FC"/>
<stop offset="1" stop-color="#978DEF"/>
</linearGradient>
<linearGradient id="paint5_linear_206_1317" x1="87.3438" y1="5.03168" x2="53.8678" y2="83.9502" gradientUnits="userSpaceOnUse">
<stop stop-color="#27183B"/>
<stop offset="1" stop-color="#471D55"/>
</linearGradient>
<linearGradient id="paint6_linear_206_1317" x1="48.1363" y1="57.6071" x2="70.6975" y2="35.6639" gradientUnits="userSpaceOnUse">
<stop stop-color="#978DEF"/>
<stop offset="1" stop-color="#D1CCFF"/>
</linearGradient>
<linearGradient id="paint7_linear_206_1317" x1="46.6224" y1="52.3891" x2="54.2997" y2="52.3891" gradientUnits="userSpaceOnUse">
<stop stop-color="#27183B"/>
<stop offset="1" stop-color="#471D55"/>
</linearGradient>
<linearGradient id="paint8_linear_206_1317" x1="63.5185" y1="58.9736" x2="64.2001" y2="52.6116" gradientUnits="userSpaceOnUse">
<stop stop-color="#27183B"/>
<stop offset="1" stop-color="#471D55"/>
</linearGradient>
<linearGradient id="paint9_linear_206_1317" x1="51.0442" y1="50.0644" x2="48.873" y2="55.5175" gradientUnits="userSpaceOnUse">
<stop stop-color="#27183B"/>
<stop offset="1" stop-color="#471D55"/>
</linearGradient>
<linearGradient id="paint10_linear_206_1317" x1="51.689" y1="50.3211" x2="49.5179" y2="55.7742" gradientUnits="userSpaceOnUse">
<stop stop-color="#27183B"/>
<stop offset="1" stop-color="#471D55"/>
</linearGradient>
<linearGradient id="paint11_linear_206_1317" x1="116.434" y1="28.5315" x2="122.796" y2="17.0194" gradientUnits="userSpaceOnUse">
<stop stop-color="#978DEF"/>
<stop offset="1" stop-color="#DDD9FD"/>
</linearGradient>
<linearGradient id="paint12_linear_206_1317" x1="117.872" y1="22.4743" x2="121.722" y2="22.4743" gradientUnits="userSpaceOnUse">
<stop stop-color="#27183B"/>
<stop offset="1" stop-color="#471D55"/>
</linearGradient>
<linearGradient id="paint13_linear_206_1317" x1="115.292" y1="82.5265" x2="140.134" y2="37.9929" gradientUnits="userSpaceOnUse">
<stop stop-color="#978DEF"/>
<stop offset="1" stop-color="#C1BBFC"/>
</linearGradient>
<linearGradient id="paint14_linear_206_1317" x1="115.916" y1="40.5424" x2="141.767" y2="40.5424" gradientUnits="userSpaceOnUse">
<stop stop-color="#27183B"/>
<stop offset="1" stop-color="#471D55"/>
</linearGradient>
<linearGradient id="paint15_linear_206_1317" x1="115.916" y1="47.8132" x2="141.767" y2="47.8132" gradientUnits="userSpaceOnUse">
<stop stop-color="#27183B"/>
<stop offset="1" stop-color="#471D55"/>
</linearGradient>
<linearGradient id="paint16_linear_206_1317" x1="115.916" y1="72.3875" x2="141.767" y2="72.3875" gradientUnits="userSpaceOnUse">
<stop stop-color="#27183B"/>
<stop offset="1" stop-color="#471D55"/>
</linearGradient>
<linearGradient id="paint17_linear_206_1317" x1="38.1989" y1="79.0546" x2="44.5608" y2="67.5424" gradientUnits="userSpaceOnUse">
<stop stop-color="#978DEF"/>
<stop offset="1" stop-color="#C1BAF9"/>
</linearGradient>
<linearGradient id="paint18_linear_206_1317" x1="39.144" y1="73.1972" x2="44.0711" y2="73.1972" gradientUnits="userSpaceOnUse">
<stop stop-color="#27183B"/>
<stop offset="1" stop-color="#471D55"/>
</linearGradient>
<linearGradient id="paint19_linear_206_1317" x1="28.2014" y1="33.1575" x2="34.5634" y2="21.6454" gradientUnits="userSpaceOnUse">
<stop stop-color="#978DEF"/>
<stop offset="1" stop-color="#C2BBFA"/>
</linearGradient>
<linearGradient id="paint20_linear_206_1317" x1="29.5073" y1="28.9425" x2="32.1373" y2="23.6826" gradientUnits="userSpaceOnUse">
<stop stop-color="#27183B"/>
<stop offset="1" stop-color="#471D55"/>
</linearGradient>
<linearGradient id="paint21_linear_206_1317" x1="31.3381" y1="29.8575" x2="33.9681" y2="24.5976" gradientUnits="userSpaceOnUse">
<stop stop-color="#27183B"/>
<stop offset="1" stop-color="#471D55"/>
</linearGradient>
<linearGradient id="paint22_linear_206_1317" x1="72.411" y1="61.4112" x2="70.2399" y2="66.8643" gradientUnits="userSpaceOnUse">
<stop stop-color="#27183B"/>
<stop offset="1" stop-color="#471D55"/>
</linearGradient>
<linearGradient id="paint23_linear_206_1317" x1="73.0559" y1="61.668" x2="70.8848" y2="67.1211" gradientUnits="userSpaceOnUse">
<stop stop-color="#27183B"/>
<stop offset="1" stop-color="#471D55"/>
</linearGradient>
<linearGradient id="paint24_linear_206_1317" x1="72.411" y1="68.8997" x2="70.2399" y2="74.3528" gradientUnits="userSpaceOnUse">
<stop stop-color="#27183B"/>
<stop offset="1" stop-color="#471D55"/>
</linearGradient>
<linearGradient id="paint25_linear_206_1317" x1="73.0559" y1="69.1563" x2="70.8848" y2="74.6094" gradientUnits="userSpaceOnUse">
<stop stop-color="#27183B"/>
<stop offset="1" stop-color="#471D55"/>
</linearGradient>
<linearGradient id="paint26_linear_206_1317" x1="72.411" y1="76.4838" x2="70.2399" y2="81.9369" gradientUnits="userSpaceOnUse">
<stop stop-color="#27183B"/>
<stop offset="1" stop-color="#471D55"/>
</linearGradient>
<linearGradient id="paint27_linear_206_1317" x1="73.0559" y1="76.7405" x2="70.8848" y2="82.1936" gradientUnits="userSpaceOnUse">
<stop stop-color="#27183B"/>
<stop offset="1" stop-color="#471D55"/>
</linearGradient>
</defs>
</svg>
