<svg width="52" height="99" viewBox="0 0 52 99" fill="none" xmlns="http://www.w3.org/2000/svg">
<g clip-path="url(#clip0_63_13274)">
<path d="M3.48426 47.24L24.3633 70.2022C25.4408 71.3843 27.3132 71.3477 28.3313 70.1246L48.3096 46.364C49.1947 45.3171 50.8934 45.9165 50.9201 47.2805L51.3272 68.1122C51.349 69.2282 50.9609 70.315 50.2458 71.1725L28.8615 96.6228C27.831 97.8462 25.9711 97.8825 24.8936 96.7003L2.51887 72.1052C1.7708 71.2763 1.34052 70.2055 1.31871 69.0895L0.9116 48.2578C0.897347 46.8936 2.57136 46.2283 3.48426 47.24Z" fill="#978DEF"/>
<path d="M49.6767 32.531C48.5768 31.4733 46.8284 31.5075 45.7707 32.6073C44.713 33.7072 44.7472 35.4556 45.8471 36.5133C46.9469 37.571 48.6953 37.5368 49.753 36.437C50.8233 35.3493 50.7889 33.5885 49.6767 32.531Z" fill="#978DEF"/>
<path d="M42.4551 40.0404C41.3552 38.9827 39.6069 39.0169 38.5492 40.1167C37.4915 41.2166 37.5256 42.965 38.6255 44.0227C39.7254 45.0804 41.4737 45.0462 42.5314 43.9464C43.6015 42.8463 43.5674 41.0979 42.4551 40.0404Z" fill="#978DEF"/>
<path d="M35.2459 47.5496C34.146 46.4919 32.3853 46.5263 31.3276 47.6262C30.2699 48.7261 30.3043 50.4868 31.4041 51.5446C32.504 52.6023 34.2524 52.5681 35.3225 51.468C36.3799 50.3557 36.3458 48.6073 35.2459 47.5496Z" fill="#978DEF"/>
<path d="M28.0244 55.0592C26.9245 54.0015 25.1637 54.0359 24.106 55.1357C23.0483 56.2356 23.0827 57.9964 24.1826 59.0541C25.2824 60.1118 27.0308 60.0776 28.1009 58.9775C29.1584 57.8652 29.1242 56.1169 28.0244 55.0592Z" fill="#978DEF"/>
<path d="M1.57781 33.4711C2.63551 32.3712 4.39628 32.3368 5.49615 33.3945C6.59602 34.4522 6.63019 36.2006 5.57248 37.3004C4.51478 38.4003 2.75401 38.4347 1.65414 37.377C0.554515 36.3317 0.520104 34.5709 1.57781 33.4711Z" fill="#978DEF"/>
<path d="M9.08721 40.6926C10.1449 39.5927 11.8933 39.5586 13.0056 40.616C14.1054 41.6737 14.1396 43.4221 13.0819 44.522C12.0242 45.6219 10.2634 45.6563 9.16354 44.5986C8.06367 43.5409 8.0295 41.7925 9.08721 40.6926Z" fill="#978DEF"/>
<path d="M16.5966 47.914C17.6543 46.8142 19.4027 46.78 20.515 47.8375C21.6148 48.8952 21.6492 50.656 20.5915 51.7558C19.5338 52.8557 17.773 52.8901 16.6732 51.8324C15.5731 50.7623 15.5389 49.0139 16.5966 47.914Z" fill="#978DEF"/>
<path d="M24.1061 55.1356C25.1638 54.0357 26.9122 54.0016 28.0245 55.059C29.1243 56.1167 29.1587 57.8775 28.101 58.9774C27.0433 60.0772 25.2826 60.1117 24.1827 59.054C23.0826 57.9838 23.0484 56.2355 24.1061 55.1356Z" fill="#978DEF"/>
<path d="M49.359 16.2748C48.2592 15.2171 46.5108 15.2513 45.4531 16.3511C44.3954 17.451 44.4296 19.1994 45.5294 20.2571C46.6293 21.3148 48.3777 21.2806 49.4354 20.1807C50.5055 19.0806 50.4713 17.3322 49.359 16.2748Z" fill="#978DEF"/>
<path d="M42.1375 23.7842C41.0376 22.7265 39.2892 22.7607 38.2315 23.8605C37.1738 24.9604 37.208 26.7088 38.3079 27.7665C39.4077 28.8242 41.1561 28.79 42.2138 27.6901C43.2839 26.59 43.2498 24.8416 42.1375 23.7842Z" fill="#978DEF"/>
<path d="M34.9283 31.2934C33.8284 30.2357 32.0676 30.2701 31.0099 31.37C29.9522 32.4698 29.9864 34.2182 31.0863 35.2759C32.1861 36.3336 33.9345 36.2995 35.0046 35.1994C36.0623 34.0995 36.0281 32.3511 34.9283 31.2934Z" fill="#978DEF"/>
<path d="M27.7067 38.8028C26.6069 37.7451 24.8461 37.7795 23.7884 38.8794C22.7307 39.9792 22.7651 41.74 23.865 42.7977C24.9648 43.8554 26.7132 43.8213 27.7833 42.7212C28.8408 41.6089 28.8066 39.8605 27.7067 38.8028Z" fill="#978DEF"/>
<path d="M1.26018 17.2148C2.31788 16.115 4.07866 16.0806 5.17852 17.1383C6.27839 18.196 6.31256 19.9443 5.25486 21.0442C4.19716 22.1441 2.43638 22.1785 1.33651 21.1208C0.236646 20.0631 0.202477 18.3147 1.26018 17.2148Z" fill="#978DEF"/>
<path d="M8.76958 24.4363C9.82728 23.3364 11.5757 23.3022 12.6879 24.3597C13.7878 25.4174 13.822 27.1658 12.7643 28.2656C11.7066 29.3655 9.94578 29.3999 8.84591 28.3422C7.74604 27.2845 7.71188 25.5361 8.76958 24.4363Z" fill="#978DEF"/>
<path d="M16.279 31.6578C17.3367 30.558 19.0851 30.5238 20.1973 31.5812C21.2972 32.639 21.3314 34.3873 20.2737 35.4872C19.216 36.5871 17.4552 36.6215 16.3553 35.5638C15.2554 34.5061 15.2213 32.7577 16.279 31.6578Z" fill="#978DEF"/>
<path d="M23.7885 38.8794C24.8462 37.7795 26.5946 37.7453 27.7068 38.8028C28.8067 39.8605 28.8411 41.6213 27.7834 42.7212C26.7257 43.821 24.9649 43.8554 23.8651 42.7977C22.7652 41.74 22.7308 39.9792 23.7885 38.8794Z" fill="#978DEF"/>
<path d="M45.1354 0.0950121C44.0777 1.19488 44.1119 2.94326 45.212 4.01336C46.3118 5.07106 48.0602 5.03689 49.1179 3.93702C50.1878 2.82452 50.1536 1.07614 49.0414 0.0186791" fill="#978DEF"/>
<path d="M41.8197 7.52809C40.7199 6.47038 38.9715 6.50455 37.9138 7.60442C36.8561 8.70429 36.8903 10.4527 37.9901 11.5104C39.09 12.5681 40.8384 12.5339 41.8961 11.434C42.9662 10.3339 42.932 8.58555 41.8197 7.52809Z" fill="#978DEF"/>
<path d="M34.6107 15.0373C33.5108 13.9796 31.75 14.014 30.6923 15.1139C29.6346 16.2137 29.6688 17.9621 30.7686 19.0198C31.8685 20.0775 33.6169 20.0434 34.687 18.9432C35.7447 17.8434 35.7105 16.095 34.6107 15.0373Z" fill="#978DEF"/>
<path d="M27.3891 22.5467C26.2892 21.489 24.5285 21.5234 23.4708 22.6233C22.413 23.7231 22.4472 25.4715 23.5471 26.5292C24.647 27.5869 26.3953 27.5528 27.4654 26.4526C28.5231 25.3528 28.489 23.6044 27.3891 22.5467Z" fill="#978DEF"/>
<path d="M4.86071 0.882023C5.96058 1.93973 5.99475 3.6881 4.93729 4.80037C3.87958 5.90024 2.11881 5.93465 1.01894 4.87694C-0.0809259 3.81924 -0.115336 2.05847 0.942366 0.958598" fill="#978DEF"/>
<path d="M8.45183 8.18016C9.50953 7.08029 11.2579 7.04613 12.3702 8.10359C13.47 9.16129 13.5042 10.9097 12.4465 12.0095C11.3888 13.1094 9.62803 13.1438 8.52816 12.0861C7.4283 11.0284 7.39413 9.28003 8.45183 8.18016Z" fill="#978DEF"/>
<path d="M15.9612 15.4017C17.0189 14.3019 18.7673 14.2677 19.8796 15.3251C20.9794 16.3828 21.0136 18.1312 19.9559 19.2311C18.8982 20.331 17.1374 20.3654 16.0376 19.3077C14.9377 18.25 14.9035 16.5016 15.9612 15.4017Z" fill="#978DEF"/>
<path d="M23.4708 22.6233C24.5285 21.5234 26.2768 21.4892 27.3891 22.5467C28.489 23.6044 28.5231 25.3528 27.4654 26.4526C26.4077 27.5525 24.647 27.5869 23.5471 26.5292C22.4472 25.4715 22.413 23.7231 23.4708 22.6233Z" fill="#978DEF"/>
</g>
<defs>
<clipPath id="clip0_63_13274">
<rect width="97.0968" height="50.0056" fill="white" transform="translate(49.9961) rotate(88.8804)"/>
</clipPath>
</defs>
</svg>
