<svg width="111" height="98" viewBox="0 0 111 98" fill="none" xmlns="http://www.w3.org/2000/svg">
<g clip-path="url(#clip0_114_13621)">
<path opacity="0.3" d="M28.3321 35.0954H20.4313C19.8833 35.0954 19.4394 34.628 19.4394 34.0509C19.4394 33.4738 19.8833 33.0063 20.4313 33.0063H28.3321C28.8801 33.0063 29.324 33.4738 29.324 34.0509C29.324 34.6312 28.8801 35.0954 28.3321 35.0954Z" fill="white"/>
<path opacity="0.3" d="M28.3168 24.1471C28.3168 23.57 27.873 23.1025 27.325 23.1025H19.4241C18.8762 23.1025 18.4323 23.57 18.4323 24.1471C18.4323 24.7242 18.8762 25.1916 19.4241 25.1916H20.0394C20.3394 25.1916 20.5843 25.4495 20.5843 25.7655V25.7816C20.5843 26.0975 20.3394 26.3554 20.0394 26.3554H18.5456C17.9976 26.3554 17.5538 26.8229 17.5538 27.4C17.5538 27.9771 17.9976 28.4445 18.5456 28.4445H26.4465C26.9944 28.4445 27.4383 27.9771 27.4383 27.4C27.4383 26.8229 26.9944 26.3554 26.4465 26.3554H25.525C25.2251 26.3554 24.9802 26.0975 24.9802 25.7816V25.7655C24.9802 25.4495 25.2251 25.1916 25.525 25.1916H27.325C27.876 25.1916 28.3168 24.7242 28.3168 24.1471Z" fill="white"/>
<path d="M102.657 12.2573C102.657 12.9601 102.115 13.5308 101.448 13.5308" stroke="#FFEFB0" stroke-miterlimit="10" stroke-linecap="round" stroke-linejoin="round"/>
<path d="M102.657 12.2573C102.657 12.9601 103.199 13.5308 103.866 13.5308" stroke="#FFEFB0" stroke-miterlimit="10" stroke-linecap="round" stroke-linejoin="round"/>
<path d="M102.657 14.8074C102.657 14.1046 102.115 13.5339 101.448 13.5339" stroke="#FFEFB0" stroke-miterlimit="10" stroke-linecap="round" stroke-linejoin="round"/>
<path d="M102.657 14.8074C102.657 14.1046 103.199 13.5339 103.866 13.5339" stroke="#FFEFB0" stroke-miterlimit="10" stroke-linecap="round" stroke-linejoin="round"/>
<path d="M18.3925 37.7195C18.3925 38.4223 17.8507 38.9929 17.1864 38.9929" stroke="#FFEFB0" stroke-miterlimit="10" stroke-linecap="round" stroke-linejoin="round"/>
<path d="M18.3925 37.7195C18.3925 38.4223 18.9344 38.9929 19.5986 38.9929" stroke="#FFEFB0" stroke-miterlimit="10" stroke-linecap="round" stroke-linejoin="round"/>
<path d="M18.3925 40.2727C18.3925 39.5699 17.8507 38.9993 17.1864 38.9993" stroke="#FFEFB0" stroke-miterlimit="10" stroke-linecap="round" stroke-linejoin="round"/>
<path d="M18.3925 40.2727C18.3925 39.5699 18.9344 38.9993 19.5986 38.9993" stroke="#FFEFB0" stroke-miterlimit="10" stroke-linecap="round" stroke-linejoin="round"/>
<path d="M85.2121 11.4189C85.2121 12.1218 84.6703 12.6924 84.0029 12.6924" stroke="#FFEFB0" stroke-miterlimit="10" stroke-linecap="round" stroke-linejoin="round"/>
<path d="M85.2121 11.4189C85.2121 12.1218 85.7539 12.6924 86.4213 12.6924" stroke="#FFEFB0" stroke-miterlimit="10" stroke-linecap="round" stroke-linejoin="round"/>
<path d="M85.2121 13.9722C85.2121 13.2694 84.6703 12.6987 84.0029 12.6987" stroke="#FFEFB0" stroke-miterlimit="10" stroke-linecap="round" stroke-linejoin="round"/>
<path d="M85.2121 13.9722C85.2121 13.2694 85.7539 12.6987 86.4213 12.6987" stroke="#FFEFB0" stroke-miterlimit="10" stroke-linecap="round" stroke-linejoin="round"/>
<path d="M12.4324 26.1072C12.4324 26.81 11.8906 27.3806 11.2263 27.3806" stroke="#FFEFB0" stroke-miterlimit="10" stroke-linecap="round" stroke-linejoin="round"/>
<path d="M12.4324 26.1072C12.4324 26.81 12.9743 27.3806 13.6385 27.3806" stroke="#FFEFB0" stroke-miterlimit="10" stroke-linecap="round" stroke-linejoin="round"/>
<path d="M12.4324 28.6604C12.4324 27.9576 11.8906 27.387 11.2263 27.387" stroke="#FFEFB0" stroke-miterlimit="10" stroke-linecap="round" stroke-linejoin="round"/>
<path d="M12.4324 28.6604C12.4324 27.9576 12.9743 27.387 13.6385 27.387" stroke="#FFEFB0" stroke-miterlimit="10" stroke-linecap="round" stroke-linejoin="round"/>
<path d="M35.6055 17.1221C35.6055 17.8249 35.0636 18.3955 34.3963 18.3955" stroke="#FFEFB0" stroke-miterlimit="10" stroke-linecap="round" stroke-linejoin="round"/>
<path d="M35.6055 17.1221C35.6055 17.8249 36.1473 18.3955 36.8146 18.3955" stroke="#FFEFB0" stroke-miterlimit="10" stroke-linecap="round" stroke-linejoin="round"/>
<path d="M35.6055 19.6753C35.6055 18.9725 35.0636 18.4019 34.3963 18.4019" stroke="#FFEFB0" stroke-miterlimit="10" stroke-linecap="round" stroke-linejoin="round"/>
<path d="M35.6055 19.6753C35.6055 18.9725 36.1473 18.4019 36.8146 18.4019" stroke="#FFEFB0" stroke-miterlimit="10" stroke-linecap="round" stroke-linejoin="round"/>
<path d="M93.4524 5.68384C93.4524 6.38665 92.9105 6.95728 92.2432 6.95728" stroke="#FFEFB0" stroke-miterlimit="10" stroke-linecap="round" stroke-linejoin="round"/>
<path d="M93.4524 5.68384C93.4524 6.38665 93.9942 6.95728 94.6615 6.95728" stroke="#FFEFB0" stroke-miterlimit="10" stroke-linecap="round" stroke-linejoin="round"/>
<path d="M93.4524 8.23706C93.4524 7.53425 92.9105 6.96362 92.2432 6.96362" stroke="#FFEFB0" stroke-miterlimit="10" stroke-linecap="round" stroke-linejoin="round"/>
<path d="M93.4524 8.23706C93.4524 7.53425 93.9942 6.96362 94.6615 6.96362" stroke="#FFEFB0" stroke-miterlimit="10" stroke-linecap="round" stroke-linejoin="round"/>
<path d="M97.5972 88.4023C97.5972 87.3385 98.4145 86.4777 99.4247 86.4777H101.065C102.339 86.4777 103.371 85.3912 103.371 84.0501C103.371 82.7089 102.339 81.6225 101.065 81.6225H93.5381C92.5279 81.6225 91.7106 80.7617 91.7106 79.6978C91.7106 78.6339 92.5279 77.7732 93.5381 77.7732H95.2891C96.5625 77.7732 97.5941 76.6867 97.5941 75.3456C97.5941 74.0044 96.5625 72.918 95.2891 72.918H14.6732C13.3998 72.918 12.3681 74.0044 12.3681 75.3456C12.3681 76.6867 13.3998 77.7732 14.6732 77.7732H17.0609C18.0711 77.7732 18.8884 78.6339 18.8884 79.6978C18.8884 80.7617 18.0711 81.6225 17.0609 81.6225H6.8305C5.55705 81.6225 4.52544 82.7089 4.52544 84.0501C4.52544 85.3912 5.55705 86.4777 6.8305 86.4777H23.9945C25.0046 86.4777 25.822 87.3385 25.822 88.4023C25.822 89.4662 25.0046 90.327 23.9945 90.327H13.0232C11.7498 90.327 10.7182 91.4135 10.7182 92.7546C10.7182 94.0957 11.7498 95.1822 13.0232 95.1822H105.939C107.212 95.1822 108.244 94.0957 108.244 92.7546C108.244 91.4135 107.212 90.327 105.939 90.327H99.4247C98.4145 90.3302 97.5972 89.4662 97.5972 88.4023Z" fill="#978DEF"/>
<path d="M37.1483 82.6801H28.3689C27.7811 82.6801 27.3036 82.1772 27.3036 81.5582C27.3036 80.9392 27.7811 80.4363 28.3689 80.4363H37.1514C37.7391 80.4363 38.2166 80.9392 38.2166 81.5582C38.2136 82.1772 37.7391 82.6801 37.1483 82.6801Z" fill="#8F6FC9"/>
<path d="M42.4349 82.6801H41.1431C40.5554 82.6801 40.0778 82.1772 40.0778 81.5582C40.0778 80.9392 40.5554 80.4363 41.1431 80.4363H42.4349C43.0227 80.4363 43.5002 80.9392 43.5002 81.5582C43.5002 82.1772 43.0227 82.6801 42.4349 82.6801Z" fill="#8F6FC9"/>
<path d="M47.4828 82.6801H46.191C45.6032 82.6801 45.1257 82.1772 45.1257 81.5582C45.1257 80.9392 45.6032 80.4363 46.191 80.4363H47.4828C48.0705 80.4363 48.5481 80.9392 48.5481 81.5582C48.5481 82.1772 48.0705 82.6801 47.4828 82.6801Z" fill="#8F6FC9"/>
<path d="M37.1483 91.0688H28.3689C27.7811 91.0688 27.3036 90.5659 27.3036 89.9469C27.3036 89.3279 27.7811 88.825 28.3689 88.825H37.1514C37.7391 88.825 38.2166 89.3279 38.2166 89.9469C38.2136 90.5659 37.7391 91.0688 37.1483 91.0688Z" fill="#8F6FC9"/>
<path d="M42.4349 91.0688H41.1431C40.5554 91.0688 40.0778 90.5659 40.0778 89.9469C40.0778 89.3279 40.5554 88.825 41.1431 88.825H42.4349C43.0227 88.825 43.5002 89.3279 43.5002 89.9469C43.5002 90.5659 43.0227 91.0688 42.4349 91.0688Z" fill="#8F6FC9"/>
<path d="M47.4828 91.0688H46.191C45.6032 91.0688 45.1257 90.5659 45.1257 89.9469C45.1257 89.3279 45.6032 88.825 46.191 88.825H47.4828C48.0705 88.825 48.5481 89.3279 48.5481 89.9469C48.5481 90.5659 48.0705 91.0688 47.4828 91.0688Z" fill="#8F6FC9"/>
<path d="M55.8638 91.0688H54.572C53.9843 91.0688 53.5067 90.5659 53.5067 89.9469C53.5067 89.3279 53.9843 88.825 54.572 88.825H55.8638C56.4516 88.825 56.9291 89.3279 56.9291 89.9469C56.9291 90.5659 56.4516 91.0688 55.8638 91.0688Z" fill="#8F6FC9"/>
<path d="M39.9952 86.8744H31.2127C30.625 86.8744 30.1474 86.3715 30.1474 85.7525C30.1474 85.1335 30.625 84.6306 31.2127 84.6306H39.9952C40.5829 84.6306 41.0605 85.1335 41.0605 85.7525C41.0605 86.3715 40.5829 86.8744 39.9952 86.8744Z" fill="#8F6FC9"/>
<path d="M45.2818 86.8744H43.99C43.4023 86.8744 42.9247 86.3715 42.9247 85.7525C42.9247 85.1335 43.4023 84.6306 43.99 84.6306H45.2818C45.8696 84.6306 46.3471 85.1335 46.3471 85.7525C46.3471 86.3715 45.8696 86.8744 45.2818 86.8744Z" fill="#8F6FC9"/>
<path d="M50.3297 86.8744H49.0379C48.4501 86.8744 47.9726 86.3715 47.9726 85.7525C47.9726 85.1335 48.4501 84.6306 49.0379 84.6306H50.3297C50.9174 84.6306 51.395 85.1335 51.395 85.7525C51.395 86.3715 50.9174 86.8744 50.3297 86.8744Z" fill="#8F6FC9"/>
<path opacity="0.46" d="M16.7549 73.1145C16.7549 71.3801 17.5447 71.3801 17.5447 69.6456C17.5447 67.9112 16.7549 67.9112 16.7549 66.1767C16.7549 64.4422 17.5447 64.4422 17.5447 62.7046C17.5447 60.9669 16.7549 60.9701 16.7549 59.2324" stroke="white" stroke-width="2.864" stroke-miterlimit="10" stroke-linecap="round" stroke-linejoin="round"/>
<path opacity="0.46" d="M19.4054 67.2117C19.4054 65.2161 20.3146 65.2161 20.3146 63.2237C20.3146 61.2314 19.4054 61.2314 19.4054 59.2358C19.4054 57.2402 20.3146 57.2402 20.3146 55.2446C20.3146 53.249 19.4054 53.249 19.4054 51.2534" stroke="white" stroke-width="2.864" stroke-miterlimit="10" stroke-linecap="round" stroke-linejoin="round"/>
<path d="M12.0005 71.2153V73.4882C11.5842 73.2432 11.1066 73.1013 10.5954 73.1013C9.00666 73.1013 7.71484 74.4618 7.71484 76.1382C7.71484 77.8114 9.00666 79.1719 10.5954 79.1719C11.1066 79.1719 11.5842 79.0301 12.0005 78.785V83.9497C12.0005 84.3688 12.3219 84.7073 12.7199 84.7073H17.1494V71.2153H12.0005ZM12.0005 77.6406C11.6393 78.0145 11.1434 78.2499 10.5954 78.2499C9.49032 78.2499 8.59034 77.302 8.59034 76.1382C8.59034 74.9744 9.49032 74.0266 10.5954 74.0266C11.1434 74.0266 11.6393 74.2587 12.0005 74.6359V77.6406Z" fill="#D5E6F0"/>
<path d="M17.1494 71.2159V84.7046H22.2156C22.6135 84.7046 22.935 84.3661 22.935 83.947V71.2126L17.1494 71.2159Z" fill="white"/>
<path opacity="0.3" d="M103.493 12.6955H95.5924C95.0445 12.6955 94.6006 12.2281 94.6006 11.651C94.6006 11.0739 95.0445 10.6064 95.5924 10.6064H103.493C104.041 10.6064 104.485 11.0739 104.485 11.651C104.485 12.2281 104.041 12.6955 103.493 12.6955Z" fill="white"/>
<path opacity="0.3" d="M106.006 24.7595H98.1053C97.5574 24.7595 97.1135 24.292 97.1135 23.715C97.1135 23.1379 97.5574 22.6704 98.1053 22.6704H106.006C106.554 22.6704 106.998 23.1379 106.998 23.715C106.998 24.292 106.554 24.7595 106.006 24.7595Z" fill="white"/>
<path opacity="0.3" d="M85.3619 17.8152H80.6324C80.0845 17.8152 79.6406 17.3477 79.6406 16.7706C79.6406 16.1935 80.0845 15.7261 80.6324 15.7261H85.3619C85.9099 15.7261 86.3538 16.1935 86.3538 16.7706C86.3538 17.3477 85.9099 17.8152 85.3619 17.8152Z" fill="white"/>
<path opacity="0.3" d="M13.4331 35.0954H8.70666C8.15871 35.0954 7.71484 34.628 7.71484 34.0509C7.71484 33.4738 8.15871 33.0063 8.70666 33.0063H13.4362C13.9841 33.0063 14.428 33.4738 14.428 34.0509C14.4249 34.6312 13.9811 35.0954 13.4331 35.0954Z" fill="white"/>
<path opacity="0.3" d="M99.4496 16.774C99.4496 16.197 99.0057 15.7295 98.4578 15.7295H90.5569C90.009 15.7295 89.5651 16.197 89.5651 16.774C89.5651 17.3511 90.009 17.8186 90.5569 17.8186H91.1722C91.4722 17.8186 91.7171 18.0765 91.7171 18.3924V18.4085C91.7171 18.7245 91.4722 18.9824 91.1722 18.9824H89.6783C89.1304 18.9824 88.6865 19.4499 88.6865 20.0269C88.6865 20.604 89.1304 21.0715 89.6783 21.0715H97.5792C98.1272 21.0715 98.571 20.604 98.571 20.0269C98.571 19.4499 98.1272 18.9824 97.5792 18.9824H96.6578C96.3578 18.9824 96.1129 18.7245 96.1129 18.4085V18.3924C96.1129 18.0765 96.3578 17.8186 96.6578 17.8186H98.4578C99.0057 17.8186 99.4496 17.3511 99.4496 16.774Z" fill="white"/>
<path opacity="0.87" d="M92.595 26.0075H96.6082C97.6398 26.0075 98.4786 25.1273 98.4786 24.0377C98.4786 22.9512 97.6428 22.0679 96.6082 22.0679H92.595C91.5634 22.0679 90.7246 22.948 90.7246 24.0377C90.7246 25.1273 91.5603 26.0075 92.595 26.0075Z" fill="#978DEF"/>
<path opacity="0.87" d="M95.0439 23.9409C96.0245 23.9409 96.8194 23.1037 96.8194 22.071C96.8194 21.0383 96.0245 20.2012 95.0439 20.2012C94.0634 20.2012 93.2684 21.0383 93.2684 22.071C93.2684 23.1037 94.0634 23.9409 95.0439 23.9409Z" fill="#978DEF"/>
<path opacity="0.87" d="M93.1159 23.0252C93.689 23.0252 94.1536 22.5358 94.1536 21.9323C94.1536 21.3287 93.689 20.8394 93.1159 20.8394C92.5427 20.8394 92.0781 21.3287 92.0781 21.9323C92.0781 22.5358 92.5427 23.0252 93.1159 23.0252Z" fill="#978DEF"/>
<path opacity="0.87" d="M32.5379 9.10435C32.5593 8.99151 32.5685 8.87868 32.5685 8.75939C32.5685 7.76966 31.8063 6.97013 30.8695 6.97013C30.5757 6.97013 30.3002 7.0475 30.0583 7.18613C29.5287 6.42207 28.6747 5.92236 27.7073 5.92236C26.1002 5.92236 24.7992 7.29252 24.7992 8.98507C24.7992 8.99151 24.7992 8.99796 24.7992 9.00763C23.2717 9.18817 22.084 10.5519 22.084 12.209C22.084 13.9886 23.4554 15.4329 25.1452 15.4329H31.7236C33.4134 15.4329 34.7848 13.9886 34.7848 12.209C34.7848 10.726 33.8327 9.48155 32.5379 9.10435Z" fill="#978DEF"/>
<path d="M27.2295 12.0606L27.2693 12.8891C27.2938 13.3437 27.4101 13.4791 27.6856 13.4791H27.8111V14.227H27.3703C26.8836 14.227 26.5346 13.9369 26.4979 13.3082L26.4336 12.196C26.4091 11.8156 26.3295 11.6995 26.002 11.6995V10.9548C26.3326 10.9548 26.4122 10.8387 26.4336 10.4583L26.4979 9.34606C26.5377 8.7174 26.8836 8.42725 27.3703 8.42725H27.8111V9.17197H27.6856C27.4101 9.17197 27.2907 9.30415 27.2693 9.76194L27.2295 10.5905C27.2142 10.8968 27.1193 11.2191 26.7183 11.3288C27.1193 11.4319 27.2142 11.7543 27.2295 12.0606Z" fill="white"/>
<path d="M29.6422 10.5841L29.6024 9.75559C29.5779 9.30102 29.4616 9.16562 29.1861 9.16562H29.0605V8.4209H29.5014C29.9911 8.4209 30.3371 8.71105 30.3738 9.33971L30.4381 10.452C30.4626 10.8324 30.5391 10.9484 30.8697 10.9484V11.6932C30.5391 11.6932 30.4595 11.8092 30.4381 12.1896L30.3738 13.3019C30.334 13.9305 29.9881 14.2207 29.5014 14.2207H29.0605V13.4727H29.1861C29.4616 13.4727 29.5809 13.3406 29.6024 12.8828L29.6422 12.0542C29.6575 11.748 29.7524 11.4223 30.1534 11.316C29.7524 11.216 29.6575 10.8904 29.6422 10.5841Z" fill="white"/>
<path opacity="0.87" d="M66.7253 11.3192C66.7467 11.2064 66.759 11.0935 66.759 10.9742C66.759 9.9845 65.9967 9.18497 65.06 9.18497C64.7662 9.18497 64.4907 9.26235 64.2519 9.40097C63.7223 8.63691 62.8682 8.13721 61.9009 8.13721C60.2938 8.13721 58.9928 9.50736 58.9928 11.1999C58.9928 11.2064 58.9928 11.2128 58.9928 11.2225C57.4653 11.403 56.2775 12.7667 56.2775 14.4238C56.2775 16.2034 57.6489 17.6477 59.3387 17.6477H65.911C67.6008 17.6477 68.9722 16.2034 68.9722 14.4238C68.9722 12.9408 68.0202 11.6964 66.7253 11.3192Z" fill="#978DEF"/>
<path d="M62.9111 9.92013C61.6927 9.75248 60.5785 10.6584 60.4193 11.9383C60.2785 13.0731 60.9366 14.1241 61.9346 14.4658L61.9009 14.7366C61.8887 14.8237 61.9438 14.901 62.0203 14.9268L61.8795 16.0552L61.8305 16.0488C61.7815 16.0423 61.7356 16.0681 61.7295 16.11L61.356 19.1276C61.3499 19.1727 61.3927 19.2178 61.4509 19.2275L61.4325 19.2243L61.4203 19.3436C61.4172 19.3758 61.4448 19.4081 61.4876 19.4145L61.6744 19.4403L61.8611 19.4661C61.904 19.4725 61.9407 19.45 61.9438 19.4177L61.9591 19.2984L61.9407 19.2952C61.9989 19.3017 62.0509 19.2726 62.057 19.2243L62.4305 16.2067C62.4366 16.168 62.3999 16.1293 62.3478 16.1229L62.2989 16.1165L62.4397 14.9881C62.5193 14.9881 62.5897 14.9236 62.6019 14.8366L62.6325 14.5851C63.7345 14.5851 64.6896 13.7275 64.8366 12.5476C64.9866 11.2613 64.1294 10.0878 62.9111 9.92013ZM62.406 14.0113C62.0784 13.9661 61.7846 13.8243 61.5458 13.6179C61.2428 13.3536 61.0346 12.9861 60.9581 12.5734C60.9244 12.3929 60.9183 12.2026 60.9428 12.0092C61.0621 11.0324 61.9131 10.3425 62.8437 10.4682C63.0274 10.494 63.1988 10.5488 63.358 10.6294C63.7162 10.8099 64.0009 11.1194 64.1662 11.4934C64.2947 11.7868 64.3498 12.1253 64.307 12.4702C64.1845 13.4503 63.3335 14.1402 62.406 14.0113Z" fill="white"/>
<path opacity="0.87" d="M14.5691 42.8197C14.5906 42.7069 14.6028 42.5941 14.6028 42.4748C14.6028 41.485 13.8406 40.6823 12.9008 40.6823C12.6069 40.6823 12.3314 40.7597 12.0926 40.8983C11.5631 40.1342 10.709 39.6345 9.74167 39.6345C8.13455 39.6345 6.83356 41.0047 6.83356 42.6972C6.83356 42.7037 6.83356 42.7101 6.83356 42.7198C5.30603 42.9003 4.1183 44.264 4.1183 45.9211C4.1183 47.7007 5.4897 49.145 7.17947 49.145H13.7549C15.4446 49.145 16.816 47.7007 16.816 45.9211C16.813 44.4414 15.864 43.1937 14.5691 42.8197Z" fill="#978DEF"/>
<path d="M12.1417 47.0658V46.3598L14.0397 45.6473L12.1417 44.9348V44.2288L14.906 45.2991V45.9955L12.1417 47.0658Z" fill="white"/>
<path d="M5.631 45.9955V45.2991L8.39523 44.2288V44.9348L6.49731 45.6473L8.39523 46.3598V47.0658L5.631 45.9955Z" fill="white"/>
<path d="M10.9666 43.4968H11.5452L9.86765 47.9813H9.28603L10.9666 43.4968Z" fill="white"/>
<path d="M77.289 11.2257V10.5197L79.187 9.80719L77.289 9.0947V8.38867L80.0533 9.45901V10.1554L77.289 11.2257Z" fill="#8F6FC9"/>
<path d="M70.7783 10.1554V9.45901L73.5425 8.38867V9.0947L71.6446 9.80719L73.5425 10.5197V11.2257L70.7783 10.1554Z" fill="#8F6FC9"/>
<path d="M76.1139 7.65674H76.6925L75.0149 12.1412H74.4364L76.1139 7.65674Z" fill="#8F6FC9"/>
<path d="M47.9236 11.5675L48.5603 12.2381C49.1695 11.5965 50.1338 11.5675 50.7093 12.1736L50.8776 11.9963L51.3827 11.4643C50.9266 10.984 50.3205 10.7518 49.7052 10.7615C49.0685 10.7744 48.4226 11.042 47.9236 11.5675Z" fill="#80A880"/>
<path d="M48.4379 9.42996C47.8746 9.64596 47.3389 9.99091 46.8828 10.4713L47.5195 11.1418C47.994 10.6421 48.5756 10.3326 49.1756 10.2069C50.1154 10.0135 51.1072 10.2746 51.8082 11.0161L52.4817 10.3069C51.4164 9.18172 49.8338 8.89801 48.4379 9.42996Z" fill="#80A880"/>
<path d="M48.9824 12.6831L49.6038 13.3375L50.262 12.6444C49.9191 12.2865 49.3467 12.3026 48.9824 12.6831Z" fill="#80A880"/>
<path d="M6.83356 22.9862L7.47028 23.6568C8.07945 23.0152 9.04372 22.9862 9.61922 23.5923L9.78758 23.415L10.2927 22.883C9.83656 22.4027 9.23045 22.1706 8.61516 22.1802C7.97537 22.1931 7.32947 22.4607 6.83356 22.9862Z" fill="#8F6FC9"/>
<path d="M7.34783 20.8489C6.78458 21.0649 6.24887 21.4098 5.79276 21.8902L6.42948 22.5607C6.90396 22.061 7.48558 21.7515 8.08557 21.6258C9.02535 21.4324 10.0172 21.6935 10.7182 22.435L11.3916 21.7258C10.3233 20.5974 8.74372 20.3169 7.34783 20.8489Z" fill="#8F6FC9"/>
<path d="M7.89237 24.1017L8.51379 24.7562L9.17194 24.063C8.82602 23.702 8.25359 23.7181 7.89237 24.1017Z" fill="#8F6FC9"/>
<path d="M35.4802 8.58846C35.3945 8.58846 35.3271 8.51753 35.3271 8.42726C35.3271 8.26285 35.3302 8.09843 35.3394 7.93401C35.3455 7.84374 35.419 7.77604 35.5016 7.78249C35.5873 7.78893 35.6516 7.86308 35.6455 7.95335C35.6363 8.11132 35.6333 8.26929 35.6333 8.42726C35.6333 8.51753 35.5659 8.58846 35.4802 8.58846ZM35.5996 7.14415C35.5904 7.14415 35.5812 7.14415 35.572 7.14093C35.4894 7.12481 35.4343 7.04099 35.4465 6.95394C35.4741 6.79275 35.5047 6.63155 35.5414 6.47036C35.5598 6.38331 35.6424 6.32851 35.7251 6.35108C35.8078 6.37042 35.8567 6.45746 35.8384 6.54451C35.8047 6.69926 35.7741 6.854 35.7465 7.00875C35.7373 7.08935 35.6731 7.14415 35.5996 7.14415ZM35.9578 5.74498C35.9394 5.74498 35.921 5.74176 35.9057 5.73531C35.8261 5.70307 35.7863 5.6128 35.8139 5.52898C35.869 5.37423 35.9271 5.22271 35.9884 5.07119C36.022 4.99059 36.1108 4.9519 36.1904 4.98737C36.2669 5.02283 36.3037 5.11632 36.27 5.20014C36.2088 5.34522 36.1537 5.49029 36.1016 5.64182C36.0771 5.70307 36.019 5.74498 35.9578 5.74498ZM36.5424 4.43286C36.5149 4.43286 36.4904 4.42641 36.4659 4.41029C36.3924 4.36516 36.3679 4.26521 36.4108 4.19106C36.4904 4.04921 36.573 3.90736 36.6588 3.77196C36.7047 3.69781 36.7996 3.67847 36.87 3.72682C36.9404 3.77518 36.9588 3.87512 36.9128 3.94927C36.8302 4.08145 36.7506 4.21363 36.6741 4.35226C36.6465 4.40384 36.5945 4.43286 36.5424 4.43286ZM37.3353 3.24969C37.3016 3.24969 37.2649 3.23679 37.2373 3.211C37.173 3.15297 37.1638 3.05303 37.219 2.9821C37.32 2.85637 37.424 2.73386 37.5312 2.61458C37.5894 2.5501 37.6873 2.54688 37.7485 2.60813C37.8098 2.66939 37.8128 2.77255 37.7547 2.83703C37.6506 2.94986 37.5526 3.06915 37.4547 3.18843C37.421 3.23034 37.3781 3.24969 37.3353 3.24969ZM48.7871 2.65004C48.7473 2.65004 48.7106 2.63392 48.68 2.60491C48.5728 2.4953 48.4626 2.38891 48.3463 2.28574C48.282 2.22771 48.2759 2.12455 48.331 2.05685C48.3861 1.98914 48.484 1.9827 48.5483 2.04073C48.6677 2.14711 48.781 2.25995 48.8942 2.37279C48.9555 2.43404 48.9555 2.53721 48.8973 2.60168C48.8667 2.6307 48.8269 2.65004 48.7871 2.65004ZM38.3118 2.23094C38.2689 2.23094 38.223 2.21159 38.1955 2.17291C38.1404 2.1052 38.1495 2.00204 38.2169 1.94723C38.3363 1.84407 38.4587 1.7409 38.5842 1.64419C38.6516 1.5926 38.7495 1.6055 38.7985 1.67965C38.8475 1.75058 38.8352 1.85374 38.7679 1.90532C38.6455 1.99882 38.5291 2.09553 38.4128 2.1987C38.3822 2.21804 38.3485 2.23094 38.3118 2.23094ZM47.7188 1.73446C47.6881 1.73446 47.6606 1.72478 47.633 1.70867C47.5075 1.62162 47.382 1.53457 47.2535 1.45398C47.18 1.40884 47.1555 1.3089 47.2014 1.23475C47.2443 1.15738 47.3392 1.13159 47.4096 1.17995C47.5443 1.26377 47.6759 1.35081 47.8045 1.44431C47.8749 1.49266 47.8932 1.5926 47.8443 1.66675C47.8167 1.71189 47.7677 1.73446 47.7188 1.73446ZM39.4444 1.40562C39.3924 1.40562 39.3403 1.3766 39.3128 1.32502C39.2699 1.24765 39.2975 1.15093 39.371 1.1058C39.5056 1.0252 39.6434 0.947825 39.7842 0.873676C39.8607 0.834989 39.9526 0.867228 39.9893 0.947825C40.026 1.02842 39.9954 1.12514 39.9189 1.16383C39.7842 1.23475 39.6526 1.3089 39.5209 1.38628C39.4965 1.39917 39.4689 1.40562 39.4444 1.40562ZM46.5157 1.03165C46.4943 1.03165 46.4729 1.02842 46.4545 1.01875C46.3167 0.954273 46.179 0.893019 46.0382 0.838213C45.9586 0.805974 45.9188 0.712481 45.9494 0.631884C45.98 0.548062 46.0657 0.506152 46.1453 0.538391C46.2923 0.596421 46.4361 0.657675 46.58 0.725377C46.6565 0.760839 46.6933 0.857556 46.6565 0.938154C46.629 0.996184 46.5739 1.03165 46.5157 1.03165ZM40.6934 0.799526C40.6291 0.799526 40.5709 0.757616 40.5495 0.693138C40.522 0.609316 40.5617 0.515823 40.6413 0.486808C40.7883 0.432002 40.9352 0.38042 41.0883 0.335285C41.1679 0.309494 41.2536 0.357852 41.2781 0.444898C41.3026 0.531943 41.2566 0.618988 41.174 0.644779C41.0301 0.689914 40.8862 0.738272 40.7454 0.789855C40.727 0.796302 40.7087 0.799526 40.6934 0.799526ZM45.2147 0.560958C45.2025 0.560958 45.1902 0.560958 45.178 0.557734C45.0341 0.519047 44.8872 0.486808 44.7372 0.457793C44.6545 0.441674 44.5994 0.357852 44.6147 0.270807C44.63 0.183762 44.7096 0.125732 44.7923 0.141851C44.9453 0.170866 45.0984 0.206329 45.2484 0.245016C45.331 0.267583 45.38 0.354629 45.3617 0.441674C45.3464 0.512599 45.2821 0.560958 45.2147 0.560958ZM42.025 0.435226C41.9515 0.435226 41.8872 0.38042 41.875 0.299822C41.8627 0.212777 41.9178 0.128956 42.0005 0.112836C42.1536 0.0870452 42.3097 0.0644779 42.4627 0.0451345C42.5454 0.0354629 42.6219 0.0999408 42.6311 0.186986C42.6403 0.274031 42.5791 0.354629 42.4964 0.3643C42.3464 0.38042 42.1964 0.402987 42.0495 0.428778C42.0403 0.435226 42.0311 0.435226 42.025 0.435226ZM43.8556 0.341733C43.8525 0.341733 43.8494 0.341733 43.8464 0.341733C43.6964 0.328837 43.5433 0.32239 43.3933 0.32239C43.3076 0.32239 43.2403 0.24824 43.2403 0.161195C43.2403 0.0741496 43.3107 0 43.3933 0C43.5494 0 43.7056 0.00644779 43.8617 0.0193434C43.9474 0.0257912 44.0086 0.103165 44.0056 0.19021C44.0025 0.274031 43.9352 0.341733 43.8556 0.341733Z" fill="#8F6FC9"/>
<path d="M50.7612 4.76516L49.6286 1.66699L47.9082 3.35631L50.7612 4.76516Z" fill="#8F6FC9"/>
<path d="M89.9103 51.1373C90.0388 51.2211 90.1705 51.2985 90.2991 51.3726C90.3725 51.4145 90.4001 51.5112 90.3603 51.5918C90.3205 51.6692 90.2286 51.6982 90.1521 51.6563C90.0144 51.5789 89.8797 51.4983 89.745 51.4113C89.6715 51.3662 89.6501 51.2662 89.696 51.1889C89.745 51.1147 89.8399 51.0921 89.9103 51.1373ZM91.1194 51.7724C91.2603 51.8304 91.4011 51.8852 91.5419 51.9336C91.6215 51.9626 91.6643 52.0529 91.6398 52.1367C91.6154 52.2205 91.5266 52.2656 91.447 52.2398C91.3001 52.1883 91.1531 52.1335 91.0062 52.0722C90.9266 52.04 90.8899 51.9465 90.9205 51.8626C90.9235 51.853 90.9266 51.8465 90.9327 51.8369C90.9694 51.7724 91.049 51.7434 91.1194 51.7724ZM92.4113 52.1754C92.5582 52.2076 92.7082 52.2334 92.8551 52.256C92.9378 52.2689 92.9959 52.3495 92.9837 52.4397C92.9714 52.53 92.8949 52.588 92.8092 52.5751C92.6561 52.5526 92.5 52.5235 92.347 52.4913C92.2643 52.4752 92.2092 52.3881 92.2276 52.3011C92.2306 52.2818 92.2368 52.2656 92.2459 52.2495C92.2827 52.1947 92.347 52.1625 92.4113 52.1754ZM93.752 52.3333C93.902 52.3366 94.052 52.3366 94.202 52.3301C94.2878 52.3269 94.3582 52.3946 94.3612 52.4849C94.3643 52.5751 94.3 52.6493 94.2143 52.6525C94.0582 52.659 93.902 52.6589 93.7459 52.6557C93.6602 52.6525 93.5959 52.5816 93.5959 52.4913C93.5959 52.4623 93.6051 52.4333 93.6174 52.4107C93.6449 52.3624 93.6969 52.3333 93.752 52.3333ZM95.099 52.2431C95.2459 52.2205 95.3959 52.1915 95.5428 52.156C95.6255 52.1367 95.7081 52.1915 95.7234 52.2785C95.7418 52.3656 95.6898 52.4526 95.6071 52.4687C95.4541 52.5042 95.301 52.5332 95.1479 52.559C95.0653 52.5719 94.9857 52.5107 94.9735 52.4236C94.9673 52.3849 94.9765 52.3462 94.9949 52.314C95.0132 52.2785 95.053 52.2495 95.099 52.2431ZM101.564 42.2812C101.647 42.2619 101.729 42.3167 101.748 42.4037C101.781 42.5649 101.812 42.7261 101.837 42.8873C101.849 42.9744 101.794 43.0582 101.711 43.0711C101.628 43.084 101.549 43.0259 101.537 42.9389C101.512 42.7842 101.485 42.6294 101.451 42.4747C101.442 42.4328 101.451 42.3908 101.469 42.3554C101.488 42.3167 101.521 42.2909 101.564 42.2812ZM96.4091 51.9046C96.55 51.853 96.6908 51.7982 96.8316 51.7401C96.9112 51.7079 96.9999 51.7466 97.0306 51.8304C97.0612 51.9142 97.0244 52.0077 96.9448 52.04C96.801 52.1012 96.654 52.1592 96.5071 52.2108C96.4275 52.2398 96.3387 52.1947 96.3142 52.1109C96.2989 52.0625 96.3051 52.0142 96.3295 51.9755C96.3449 51.9432 96.3724 51.9175 96.4091 51.9046ZM101.772 43.7126C101.858 43.7094 101.928 43.7771 101.931 43.8674C101.938 44.0318 101.941 44.1962 101.938 44.3606C101.938 44.4509 101.867 44.5218 101.781 44.5186C101.696 44.5154 101.628 44.4445 101.631 44.3542C101.635 44.1962 101.631 44.0383 101.625 43.8803C101.625 43.848 101.631 43.8158 101.647 43.79C101.674 43.7449 101.717 43.7159 101.772 43.7126ZM97.6428 51.3339C97.7744 51.2598 97.903 51.1792 98.0316 51.0954C98.102 51.047 98.1969 51.0696 98.2428 51.1469C98.2887 51.2211 98.2673 51.321 98.1938 51.3694C98.0622 51.4564 97.9275 51.5403 97.7897 51.6176C97.7163 51.6595 97.6214 51.6305 97.5816 51.5532C97.554 51.5016 97.5571 51.4403 97.5846 51.392C97.5999 51.3662 97.6183 51.3468 97.6428 51.3339ZM101.739 45.1602C101.821 45.1731 101.883 45.2537 101.87 45.3407C101.849 45.5019 101.824 45.6663 101.794 45.8275C101.778 45.9146 101.699 45.9726 101.613 45.9565C101.53 45.9404 101.475 45.8533 101.491 45.7663C101.518 45.6115 101.543 45.4535 101.564 45.2988C101.567 45.2762 101.573 45.2537 101.586 45.2343C101.619 45.1827 101.677 45.1537 101.739 45.1602ZM98.7662 50.5441C98.8826 50.4441 98.9958 50.3442 99.1091 50.2378C99.1703 50.1766 99.2683 50.183 99.3264 50.2475C99.3846 50.312 99.3785 50.4151 99.3172 50.4764C99.2009 50.586 99.0815 50.6924 98.9622 50.7955C98.8948 50.8503 98.7999 50.8407 98.7479 50.7697C98.705 50.7149 98.705 50.6408 98.7356 50.5828C98.7387 50.5699 98.7509 50.557 98.7662 50.5441ZM101.463 46.5819C101.543 46.6077 101.589 46.698 101.561 46.785C101.515 46.9398 101.463 47.0945 101.405 47.2493C101.374 47.3331 101.286 47.375 101.206 47.3427C101.126 47.3105 101.087 47.217 101.117 47.1332C101.172 46.9849 101.221 46.8366 101.267 46.6851C101.27 46.6722 101.276 46.6593 101.283 46.6496C101.322 46.5884 101.396 46.5593 101.463 46.5819ZM99.7366 49.5576C99.8346 49.4383 99.9295 49.3158 100.021 49.19C100.073 49.1191 100.168 49.1062 100.236 49.161C100.303 49.2158 100.315 49.3158 100.263 49.3867C100.168 49.5189 100.067 49.6446 99.9662 49.7671C99.9111 49.8348 99.8132 49.8413 99.7519 49.7832C99.6938 49.7317 99.6846 49.6446 99.7213 49.5769C99.7244 49.5737 99.7305 49.5672 99.7366 49.5576ZM100.958 47.9295C101.032 47.9714 101.062 48.0681 101.022 48.1487C100.949 48.2938 100.872 48.4356 100.793 48.5775C100.75 48.6516 100.655 48.6774 100.585 48.6323C100.511 48.5872 100.49 48.4872 100.533 48.4099C100.609 48.2745 100.686 48.1358 100.753 47.9972C100.756 47.994 100.756 47.9908 100.759 47.9875C100.796 47.9166 100.885 47.8908 100.958 47.9295Z" fill="#8F6FC9"/>
<path d="M100.787 39.4731L102.703 42.1103L100.435 42.7712L100.787 39.4731Z" fill="#8F6FC9"/>
<path d="M87.8132 16.5127C87.8928 16.3773 87.9663 16.2386 88.0367 16.1032C88.0765 16.0259 88.1683 15.9969 88.2448 16.0388C88.3183 16.0807 88.3458 16.1774 88.306 16.258C88.2326 16.4031 88.156 16.5449 88.0734 16.6835C88.0275 16.7609 87.9357 16.7835 87.8622 16.7351C87.7918 16.6868 87.7703 16.5868 87.8132 16.5127ZM88.4163 15.2425C88.4714 15.0942 88.5234 14.9459 88.5693 14.7976C88.5969 14.7137 88.6826 14.6686 88.7622 14.6944C88.8417 14.7202 88.8877 14.8137 88.8601 14.8975C88.8111 15.0523 88.7591 15.207 88.7009 15.3617C88.6703 15.4456 88.5816 15.4843 88.502 15.452C88.4928 15.4488 88.4867 15.4456 88.4775 15.4391C88.4162 15.3972 88.3887 15.3134 88.4163 15.2425ZM88.7989 13.8788C88.8295 13.724 88.854 13.5693 88.8754 13.4113C88.8877 13.3242 88.9642 13.263 89.0499 13.2727C89.1356 13.2856 89.1907 13.3662 89.1785 13.4564C89.1571 13.6176 89.1295 13.782 89.0989 13.9432C89.0836 14.0303 89.0009 14.0883 88.9183 14.069C88.8999 14.0657 88.8846 14.0593 88.8693 14.0496C88.8173 14.0142 88.7867 13.9465 88.7989 13.8788ZM88.9489 12.4667C88.952 12.3087 88.952 12.1507 88.9458 11.9928C88.9428 11.9025 89.0101 11.8284 89.0928 11.8251C89.1785 11.8219 89.2489 11.8896 89.2519 11.9799C89.2581 12.1443 89.2581 12.3087 89.255 12.4731C89.252 12.5634 89.1846 12.6311 89.0989 12.6311C89.0713 12.6311 89.0438 12.6214 89.0224 12.6085C88.9764 12.5795 88.9489 12.5279 88.9489 12.4667ZM88.8632 11.0482C88.8418 10.8902 88.8142 10.7355 88.7805 10.5807C88.7622 10.4937 88.8142 10.4066 88.8969 10.3905C88.9795 10.3712 89.0591 10.426 89.0775 10.513C89.1111 10.6742 89.1387 10.8354 89.1632 10.9966C89.1754 11.0836 89.1173 11.1675 89.0346 11.1804C88.9979 11.1868 88.9611 11.1771 88.9305 11.1578C88.8969 11.1384 88.8693 11.0965 88.8632 11.0482ZM79.4042 4.23931C79.3858 4.15226 79.4379 4.06522 79.5205 4.04587C79.6736 4.01041 79.8266 3.97817 79.9797 3.95238C80.0623 3.93948 80.1419 3.99751 80.1542 4.08456C80.1664 4.1716 80.1113 4.25543 80.0286 4.26832C79.8817 4.29411 79.7317 4.32313 79.5878 4.35859C79.548 4.36826 79.5083 4.35859 79.4746 4.33925C79.4378 4.3199 79.4134 4.28444 79.4042 4.23931ZM88.5418 9.66835C88.4928 9.52005 88.4407 9.37175 88.3856 9.22345C88.355 9.13963 88.3918 9.04614 88.4714 9.0139C88.5509 8.98166 88.6397 9.02034 88.6703 9.10417C88.7285 9.25569 88.7836 9.41044 88.8326 9.56518C88.8601 9.649 88.8173 9.7425 88.7377 9.76829C88.6918 9.78441 88.6458 9.77796 88.6091 9.75217C88.5785 9.73605 88.554 9.70703 88.5418 9.66835ZM80.7633 4.02008C80.7603 3.92981 80.8246 3.85566 80.9103 3.85244C81.0664 3.84599 81.2225 3.84277 81.3786 3.84599C81.4643 3.84599 81.5317 3.92014 81.5286 4.01041C81.5286 4.10068 81.4582 4.1716 81.3725 4.16838C81.2225 4.16516 81.0725 4.16838 80.9225 4.17483C80.8919 4.17483 80.8613 4.16838 80.8368 4.15226C80.7939 4.12325 80.7664 4.07811 80.7633 4.02008ZM87.9999 8.36912C87.9295 8.23049 87.853 8.09509 87.7734 7.95968C87.7275 7.88553 87.7489 7.78559 87.8224 7.73723C87.8928 7.68888 87.9877 7.71144 88.0336 7.78882C88.1163 7.92744 88.1959 8.06929 88.2724 8.21437C88.3122 8.29174 88.2846 8.39168 88.2112 8.4336C88.1622 8.46261 88.104 8.45939 88.0581 8.43037C88.0305 8.41425 88.0122 8.39491 87.9999 8.36912ZM82.1378 4.05554C82.15 3.9685 82.2266 3.90402 82.3092 3.91692C82.4623 3.93948 82.6184 3.96528 82.7715 3.99751C82.8541 4.01363 82.9092 4.09746 82.8939 4.18772C82.8786 4.27477 82.7959 4.3328 82.7133 4.31668C82.5664 4.28767 82.4164 4.26187 82.2694 4.23931C82.248 4.23608 82.2266 4.22963 82.2082 4.21674C82.1623 4.18128 82.1317 4.12002 82.1378 4.05554ZM87.25 7.18917C87.1551 7.06666 87.0602 6.94738 86.9561 6.8281C86.8979 6.76362 86.904 6.66045 86.9653 6.5992C87.0265 6.53794 87.1244 6.54439 87.1826 6.60887C87.2867 6.73138 87.3877 6.85711 87.4857 6.98284C87.5377 7.05054 87.5285 7.15371 87.4612 7.20852C87.4091 7.25365 87.3387 7.25365 87.2836 7.22141C87.2744 7.21496 87.2622 7.20207 87.25 7.18917ZM83.4878 4.3457C83.5123 4.26187 83.598 4.21352 83.6806 4.24253C83.8276 4.29089 83.9745 4.3457 84.1214 4.40695C84.201 4.43919 84.2408 4.53268 84.2102 4.6165C84.1796 4.70032 84.0908 4.74223 84.0112 4.71C83.8704 4.65197 83.7296 4.60038 83.5857 4.55202C83.5735 4.5488 83.5612 4.54235 83.5521 4.5359C83.4939 4.49399 83.4663 4.41662 83.4878 4.3457ZM86.3163 6.16397C86.203 6.06081 86.0867 5.96087 85.9673 5.86415C85.9 5.80934 85.8877 5.7094 85.9398 5.63848C85.9918 5.56755 86.0867 5.55466 86.154 5.60946C86.2796 5.7094 86.3989 5.81579 86.5153 5.92218C86.5795 5.98021 86.5857 6.08337 86.5306 6.15108C86.4816 6.21233 86.3989 6.222 86.3347 6.18332C86.3285 6.17687 86.3224 6.17042 86.3163 6.16397ZM84.7673 4.88086C84.8071 4.80349 84.899 4.77125 84.9755 4.81316C85.1132 4.89053 85.2479 4.97113 85.3826 5.05495C85.453 5.10009 85.4775 5.20003 85.4347 5.27418C85.3918 5.35155 85.2969 5.37412 85.2235 5.32898C85.0949 5.24839 84.9633 5.16779 84.8316 5.09686C84.8286 5.09364 84.8255 5.09364 84.8224 5.09042C84.7551 5.0485 84.7306 4.95501 84.7673 4.88086Z" fill="#8F6FC9"/>
<path d="M76.7384 5.0582L79.2424 3.04004L79.87 5.42895L76.7384 5.0582Z" fill="#8F6FC9"/>
<path d="M13.5005 61.4411C13.5433 61.5185 13.5219 61.6152 13.4485 61.6635C13.3138 61.7506 13.1791 61.8312 13.0444 61.9086C12.9709 61.9505 12.876 61.9182 12.8362 61.8441C12.7964 61.7667 12.824 61.6668 12.8974 61.6249C13.0291 61.5507 13.1607 61.4701 13.2893 61.3895C13.3627 61.3412 13.4576 61.3637 13.5005 61.4411ZM12.2699 62.0891C12.273 62.0955 12.2791 62.1052 12.2821 62.1149C12.3128 62.1987 12.273 62.2922 12.1964 62.3244C12.0495 62.3857 11.9026 62.4405 11.7556 62.4921C11.676 62.5211 11.5873 62.476 11.5628 62.3889C11.5352 62.3051 11.5811 62.2116 11.6607 62.1858C11.8015 62.1375 11.9454 62.0827 12.0832 62.0246C12.1536 61.9924 12.2332 62.0246 12.2699 62.0891ZM10.9505 62.4985C10.9597 62.5147 10.9658 62.5308 10.9689 62.5501C10.9873 62.6372 10.9322 62.7242 10.8495 62.7403C10.6965 62.7726 10.5434 62.8016 10.3873 62.8241C10.3046 62.837 10.225 62.7758 10.2128 62.6887C10.2006 62.6017 10.2587 62.5179 10.3444 62.505C10.4914 62.4824 10.6414 62.4566 10.7883 62.4244C10.8556 62.4115 10.9169 62.4437 10.9505 62.4985ZM9.5822 62.6597C9.59444 62.6823 9.60363 62.7113 9.60363 62.7403C9.60669 62.8306 9.53934 62.9047 9.45363 62.9047C9.29751 62.908 9.14139 62.908 8.98527 62.9015C8.89956 62.8983 8.83527 62.8241 8.83833 62.7339C8.84139 62.6436 8.9118 62.5759 8.99751 62.5791C9.14751 62.5856 9.29751 62.5856 9.44751 62.5824C9.50567 62.5824 9.55465 62.6146 9.5822 62.6597ZM8.21079 62.5662C8.22916 62.5985 8.23835 62.6339 8.23222 62.6759C8.21998 62.7629 8.14039 62.8242 8.05774 62.8113C7.90468 62.7855 7.74856 62.7564 7.59856 62.721C7.51591 62.7016 7.46387 62.6146 7.48224 62.5308C7.5006 62.4437 7.58019 62.3889 7.66285 62.4083C7.80978 62.4405 7.95672 62.4695 8.10671 62.4953C8.14957 62.4985 8.18631 62.5276 8.21079 62.5662ZM1.73336 52.6044C1.75479 52.6399 1.76091 52.6818 1.75173 52.7237C1.71806 52.8784 1.69051 53.0332 1.66602 53.1879C1.65377 53.275 1.57418 53.3362 1.49153 53.3201C1.40888 53.3072 1.35072 53.2234 1.36602 53.1363C1.39051 52.9751 1.42112 52.814 1.4548 52.6528C1.47316 52.5657 1.55582 52.5109 1.63847 52.5303C1.67826 52.5399 1.71193 52.5657 1.73336 52.6044ZM6.87306 62.2245C6.89449 62.2632 6.90368 62.3148 6.88837 62.3599C6.86082 62.4437 6.77511 62.4889 6.69552 62.4599C6.54858 62.4083 6.40164 62.3502 6.25777 62.289C6.17818 62.2567 6.14145 62.16 6.17206 62.0794C6.20267 61.9956 6.29144 61.9569 6.37103 61.9892C6.50879 62.0472 6.6496 62.1052 6.79347 62.1536C6.82715 62.1665 6.8547 62.1923 6.87306 62.2245ZM1.55275 54.039C1.56806 54.0648 1.57724 54.0971 1.57418 54.1293C1.56806 54.2873 1.565 54.4452 1.56806 54.6032C1.56806 54.6935 1.50071 54.7644 1.41806 54.7676C1.33235 54.7676 1.265 54.6967 1.26194 54.6097C1.25888 54.4452 1.26194 54.2808 1.26807 54.1164C1.27113 54.0261 1.34459 53.9584 1.42725 53.9617C1.48235 53.9649 1.52826 53.9939 1.55275 54.039ZM5.61492 61.641C5.64247 61.6893 5.64553 61.7506 5.61798 61.8022C5.57819 61.8795 5.48329 61.9086 5.40983 61.8667C5.27207 61.7893 5.13738 61.7055 5.00575 61.6184C4.93228 61.5701 4.91392 61.4733 4.95677 61.396C5.00269 61.3218 5.09759 61.2992 5.16799 61.3444C5.29656 61.4282 5.42513 61.5088 5.55676 61.583C5.58125 61.5991 5.60268 61.6184 5.61492 61.641ZM1.61398 55.4866C1.62622 55.5059 1.63234 55.5252 1.63541 55.551C1.65377 55.7058 1.67826 55.8638 1.70887 56.0185C1.72418 56.1055 1.67214 56.1894 1.58643 56.2087C1.50378 56.2248 1.42419 56.17 1.40582 56.0798C1.37521 55.9186 1.35072 55.7541 1.32929 55.593C1.31704 55.5059 1.37827 55.4253 1.46092 55.4124C1.5252 55.4027 1.58337 55.435 1.61398 55.4866ZM4.47005 60.835C4.50372 60.8898 4.50066 60.9672 4.4578 61.022C4.40576 61.0897 4.3078 61.1026 4.24352 61.0478C4.12107 60.9446 4.00475 60.8382 3.88842 60.7286C3.82414 60.6706 3.82108 60.5674 3.87924 60.4997C3.9374 60.4352 4.0323 60.4288 4.09658 60.4901C4.20679 60.5964 4.32311 60.6996 4.43944 60.7963C4.45168 60.806 4.46392 60.8189 4.47005 60.835ZM1.91397 56.9019C1.92009 56.9115 1.92622 56.9244 1.92928 56.9373C1.9752 57.0856 2.02417 57.2371 2.07927 57.3854C2.10989 57.4693 2.07009 57.5627 1.9905 57.595C1.91091 57.6272 1.82214 57.5853 1.79153 57.5015C1.73642 57.3468 1.68438 57.192 1.63541 57.0373C1.61092 56.9534 1.65377 56.8632 1.73336 56.8341C1.80683 56.8084 1.87724 56.8406 1.91397 56.9019ZM3.48129 59.8292C3.51802 59.8936 3.50884 59.9839 3.45068 60.0355C3.38639 60.0935 3.2915 60.0871 3.23334 60.0194C3.13232 59.8969 3.0313 59.7679 2.9364 59.6389C2.88436 59.568 2.89661 59.4681 2.96395 59.4133C3.0313 59.3585 3.12619 59.3714 3.17823 59.4423C3.27007 59.568 3.36497 59.6905 3.46292 59.8098C3.47211 59.8163 3.47823 59.8227 3.48129 59.8292ZM2.44662 58.2365C2.44968 58.2398 2.44968 58.243 2.45274 58.2462C2.52314 58.3848 2.59661 58.5235 2.67314 58.6589C2.716 58.7362 2.69457 58.833 2.6211 58.8813C2.54763 58.9265 2.4558 58.9039 2.41294 58.8265C2.33335 58.6847 2.25682 58.5428 2.18335 58.3977C2.14356 58.3204 2.17111 58.2204 2.24764 58.1785C2.31805 58.1398 2.40376 58.1656 2.44662 58.2365Z" fill="#8F6FC9"/>
<path d="M2.41629 49.7222L0.5 52.3593L2.76833 53.0202L2.41629 49.7222Z" fill="#8F6FC9"/>
<path d="M53.2742 5.43869C53.2742 5.74173 53.0415 5.98675 52.7538 5.98675C52.466 5.98675 52.2334 5.74173 52.2334 5.43869C52.2334 5.13564 52.466 4.89062 52.7538 4.89062C53.0415 4.89062 53.2742 5.13564 53.2742 5.43869Z" fill="#8F6FC9"/>
<path d="M54.9032 5.98675C55.1906 5.98675 55.4236 5.74137 55.4236 5.43869C55.4236 5.136 55.1906 4.89062 54.9032 4.89062C54.6158 4.89062 54.3828 5.136 54.3828 5.43869C54.3828 5.74137 54.6158 5.98675 54.9032 5.98675Z" fill="#8F6FC9"/>
<path d="M57.5721 5.43869C57.5721 5.74173 57.3394 5.98675 57.0517 5.98675C56.7639 5.98675 56.5313 5.74173 56.5313 5.43869C56.5313 5.13564 56.7639 4.89062 57.0517 4.89062C57.3394 4.89062 57.5721 5.13564 57.5721 5.43869Z" fill="#8F6FC9"/>
<path d="M59.204 5.98675C59.4914 5.98675 59.7244 5.74137 59.7244 5.43869C59.7244 5.136 59.4914 4.89062 59.204 4.89062C58.9166 4.89062 58.6836 5.136 58.6836 5.43869C58.6836 5.74137 58.9166 5.98675 59.204 5.98675Z" fill="#8F6FC9"/>
<path d="M65.746 2.94036C66.0334 2.94036 66.2664 2.69499 66.2664 2.3923C66.2664 2.08961 66.0334 1.84424 65.746 1.84424C65.4586 1.84424 65.2256 2.08961 65.2256 2.3923C65.2256 2.69499 65.4586 2.94036 65.746 2.94036Z" fill="#80A880"/>
<path d="M67.8983 2.94036C68.1857 2.94036 68.4187 2.69499 68.4187 2.3923C68.4187 2.08961 68.1857 1.84424 67.8983 1.84424C67.6109 1.84424 67.3779 2.08961 67.3779 2.3923C67.3779 2.69499 67.6109 2.94036 67.8983 2.94036Z" fill="#80A880"/>
<path d="M70.5673 2.3923C70.5673 2.69535 70.3347 2.94036 70.0469 2.94036C69.7592 2.94036 69.5265 2.69535 69.5265 2.3923C69.5265 2.08925 69.7592 1.84424 70.0469 1.84424C70.3347 1.84424 70.5673 2.08925 70.5673 2.3923Z" fill="#80A880"/>
<path d="M72.1962 2.94036C72.4836 2.94036 72.7166 2.69499 72.7166 2.3923C72.7166 2.08961 72.4836 1.84424 72.1962 1.84424C71.9088 1.84424 71.6758 2.08961 71.6758 2.3923C71.6758 2.69499 71.9088 2.94036 72.1962 2.94036Z" fill="#80A880"/>
<path d="M9.2978 54.5644C9.2978 54.8675 9.06515 55.1125 8.7774 55.1125C8.48965 55.1125 8.257 54.8675 8.257 54.5644C8.257 54.2614 8.48965 54.0164 8.7774 54.0164C9.06515 54.0164 9.2978 54.2646 9.2978 54.5644Z" fill="#8F6FC9"/>
<path d="M10.9268 55.1125C11.2142 55.1125 11.4472 54.8671 11.4472 54.5644C11.4472 54.2617 11.2142 54.0164 10.9268 54.0164C10.6394 54.0164 10.4064 54.2617 10.4064 54.5644C10.4064 54.8671 10.6394 55.1125 10.9268 55.1125Z" fill="#8F6FC9"/>
<path d="M13.0783 55.1125C13.3657 55.1125 13.5987 54.8671 13.5987 54.5644C13.5987 54.2617 13.3657 54.0164 13.0783 54.0164C12.7909 54.0164 12.5579 54.2617 12.5579 54.5644C12.5579 54.8671 12.7909 55.1125 13.0783 55.1125Z" fill="#8F6FC9"/>
<path d="M15.748 54.5644C15.748 54.8675 15.5153 55.1125 15.2276 55.1125C14.9398 55.1125 14.7072 54.8675 14.7072 54.5644C14.7072 54.2614 14.9398 54.0164 15.2276 54.0164C15.5153 54.0164 15.748 54.2646 15.748 54.5644Z" fill="#8F6FC9"/>
<path d="M2.40711 37.3681C2.40711 37.6712 2.17446 37.9162 1.88671 37.9162C1.59896 37.9162 1.36631 37.6712 1.36631 37.3681C1.36631 37.0651 1.59896 36.8201 1.88671 36.8201C2.17446 36.8201 2.40711 37.0651 2.40711 37.3681Z" fill="#80A880"/>
<path d="M4.55652 37.3681C4.55652 37.6712 4.32387 37.9162 4.03612 37.9162C3.74837 37.9162 3.51572 37.6712 3.51572 37.3681C3.51572 37.0651 3.74837 36.8201 4.03612 36.8201C4.32387 36.8201 4.55652 37.0651 4.55652 37.3681Z" fill="#80A880"/>
<path d="M6.18459 37.9162C6.47199 37.9162 6.70499 37.6708 6.70499 37.3681C6.70499 37.0654 6.47199 36.8201 6.18459 36.8201C5.89718 36.8201 5.66419 37.0654 5.66419 37.3681C5.66419 37.6708 5.89718 37.9162 6.18459 37.9162Z" fill="#80A880"/>
<path d="M8.8573 37.3681C8.8573 37.6712 8.62465 37.9162 8.3369 37.9162C8.04915 37.9162 7.81651 37.6712 7.81651 37.3681C7.81651 37.0651 8.04915 36.8201 8.3369 36.8201C8.62465 36.8201 8.8573 37.0651 8.8573 37.3681Z" fill="#80A880"/>
<path d="M92.5711 45.6472C92.5711 45.9502 92.3384 46.1952 92.0507 46.1952C91.7629 46.1952 91.5303 45.9502 91.5303 45.6472C91.5303 45.3441 91.7629 45.0991 92.0507 45.0991C92.3384 45.0991 92.5711 45.3441 92.5711 45.6472Z" fill="#80A880"/>
<path d="M94.7205 45.6472C94.7205 45.9502 94.4878 46.1952 94.2001 46.1952C93.9123 46.1952 93.6797 45.9502 93.6797 45.6472C93.6797 45.3441 93.9123 45.0991 94.2001 45.0991C94.4878 45.0991 94.7205 45.3441 94.7205 45.6472Z" fill="#80A880"/>
<path d="M96.869 45.6472C96.869 45.9502 96.6363 46.1952 96.3485 46.1952C96.0608 46.1952 95.8282 45.9502 95.8282 45.6472C95.8282 45.3441 96.0608 45.0991 96.3485 45.0991C96.6363 45.0991 96.869 45.3441 96.869 45.6472Z" fill="#80A880"/>
<path d="M99.0213 45.6472C99.0213 45.9502 98.7886 46.1952 98.5009 46.1952C98.2131 46.1952 97.9805 45.9502 97.9805 45.6472C97.9805 45.3441 98.2131 45.0991 98.5009 45.0991C98.7856 45.0991 99.0213 45.3441 99.0213 45.6472Z" fill="#80A880"/>
<path d="M90.7498 42.5974C90.7498 42.9004 90.5171 43.1454 90.2294 43.1454C89.9416 43.1454 89.709 42.9004 89.709 42.5974C89.709 42.2943 89.9416 42.0493 90.2294 42.0493C90.5171 42.0493 90.7498 42.2943 90.7498 42.5974Z" fill="#FFEFB0"/>
<path d="M92.8992 42.5974C92.8992 42.9004 92.6666 43.1454 92.3788 43.1454C92.0911 43.1454 91.8584 42.9004 91.8584 42.5974C91.8584 42.2943 92.0911 42.0493 92.3788 42.0493C92.6666 42.0493 92.8992 42.2943 92.8992 42.5974Z" fill="#FFEFB0"/>
<path d="M95.0477 42.5974C95.0477 42.9004 94.815 43.1454 94.5273 43.1454C94.2395 43.1454 94.0069 42.9004 94.0069 42.5974C94.0069 42.2943 94.2395 42.0493 94.5273 42.0493C94.815 42.0493 95.0477 42.2943 95.0477 42.5974Z" fill="#FFEFB0"/>
<path d="M97.2 42.5974C97.2 42.9004 96.9673 43.1454 96.6796 43.1454C96.3918 43.1454 96.1592 42.9004 96.1592 42.5974C96.1592 42.2943 96.3918 42.0493 96.6796 42.0493C96.9643 42.0493 97.2 42.2943 97.2 42.5974Z" fill="#FFEFB0"/>
<path opacity="0.87" d="M107.488 31.807C107.509 31.6942 107.518 31.5813 107.518 31.462C107.518 30.4723 106.756 29.6728 105.819 29.6728C105.526 29.6728 105.25 29.7501 105.011 29.8888C104.482 29.1247 103.628 28.625 102.66 28.625C101.053 28.625 99.7523 29.9952 99.7523 31.6877C99.7523 31.6941 99.7523 31.7006 99.7523 31.7103C98.2247 31.8908 97.037 33.2545 97.037 34.9116C97.037 36.6912 98.4084 38.1355 100.098 38.1355H106.67C108.36 38.1355 109.732 36.6912 109.732 34.9116C109.735 33.4286 108.783 32.1842 107.488 31.807Z" fill="#978DEF"/>
<path d="M99.7343 34.6053C100.071 34.6053 100.148 34.4345 100.215 34.2378H100.509V37.1619H100.071V34.9309H99.7343V34.6053Z" fill="white"/>
<path d="M101.002 34.9406C101.002 34.4731 101.238 34.2056 101.666 34.2056C102.095 34.2056 102.327 34.4731 102.327 34.9406V36.4623C102.327 36.9298 102.092 37.1973 101.666 37.1973C101.238 37.1973 101.002 36.9298 101.002 36.4623V34.9406ZM101.437 36.4913C101.437 36.7009 101.525 36.7815 101.663 36.7815C101.801 36.7815 101.89 36.7009 101.89 36.4913V34.9116C101.89 34.702 101.804 34.6214 101.663 34.6214C101.525 34.6214 101.437 34.702 101.437 34.9116V36.4913Z" fill="white"/>
<path d="M102.878 34.6053C103.215 34.6053 103.291 34.4345 103.358 34.2378H103.652V37.1619H103.215V34.9309H102.878V34.6053Z" fill="white"/>
<path d="M104.142 34.9406C104.142 34.4731 104.378 34.2056 104.804 34.2056C105.232 34.2056 105.468 34.4731 105.468 34.9406V36.4623C105.468 36.9298 105.232 37.1973 104.804 37.1973C104.375 37.1973 104.142 36.9298 104.142 36.4623V34.9406ZM104.58 36.4913C104.58 36.7009 104.669 36.7815 104.807 36.7815C104.944 36.7815 105.033 36.7009 105.033 36.4913V34.9116C105.033 34.702 104.947 34.6214 104.807 34.6214C104.669 34.6214 104.58 34.702 104.58 34.9116V36.4913Z" fill="white"/>
<path d="M105.716 34.9406C105.716 34.4731 105.951 34.2056 106.377 34.2056C106.806 34.2056 107.041 34.4731 107.041 34.9406V36.4623C107.041 36.9298 106.806 37.1973 106.377 37.1973C105.948 37.1973 105.716 36.9298 105.716 36.4623V34.9406ZM106.15 36.4913C106.15 36.7009 106.239 36.7815 106.377 36.7815C106.515 36.7815 106.604 36.7009 106.604 36.4913V34.9116C106.604 34.702 106.518 34.6214 106.377 34.6214C106.239 34.6214 106.15 34.702 106.15 34.9116V36.4913Z" fill="white"/>
<path d="M101.151 31.4426C101.151 30.9751 101.387 30.7075 101.816 30.7075C102.244 30.7075 102.477 30.9751 102.477 31.4426V32.9642C102.477 33.4317 102.241 33.6993 101.816 33.6993C101.387 33.6993 101.151 33.4317 101.151 32.9642V31.4426ZM101.589 32.9933C101.589 33.2028 101.678 33.2834 101.816 33.2834C101.953 33.2834 102.042 33.2028 102.042 32.9933V31.4136C102.042 31.204 101.956 31.1234 101.816 31.1234C101.678 31.1234 101.589 31.204 101.589 31.4136V32.9933Z" fill="white"/>
<path d="M103.031 31.1104C103.368 31.1104 103.444 30.9396 103.512 30.7429H103.806V33.667H103.368V31.4361H103.031V31.1104Z" fill="white"/>
<path d="M104.602 31.1104C104.938 31.1104 105.015 30.9396 105.082 30.7429H105.376V33.667H104.938V31.4361H104.602V31.1104Z" fill="white"/>
<path d="M40.0781 17.1414C40.4149 17.1414 40.4914 16.9706 40.5587 16.7739H40.8526V19.698H40.4149V17.4671H40.0781V17.1414Z" fill="#8F6FC9"/>
<path d="M41.3457 17.4767C41.3457 17.0093 41.5784 16.7417 42.0069 16.7417C42.4355 16.7417 42.6681 17.0093 42.6681 17.4767V18.9984C42.6681 19.4659 42.4355 19.7335 42.0069 19.7335C41.5784 19.7335 41.3457 19.4659 41.3457 18.9984V17.4767ZM41.7804 19.0274C41.7804 19.237 41.8692 19.3176 42.0069 19.3176C42.1447 19.3176 42.2334 19.237 42.2334 19.0274V17.4477C42.2334 17.2382 42.1447 17.1576 42.0069 17.1576C41.8692 17.1576 41.7804 17.2382 41.7804 17.4477V19.0274Z" fill="#8F6FC9"/>
<path d="M43.2217 17.1414C43.5584 17.1414 43.6349 16.9706 43.7023 16.7739H43.9962V19.698H43.5584V17.4671H43.2217V17.1414Z" fill="#8F6FC9"/>
<path d="M44.4862 17.4767C44.4862 17.0093 44.7189 16.7417 45.1474 16.7417C45.576 16.7417 45.8086 17.0093 45.8086 17.4767V18.9984C45.8086 19.4659 45.576 19.7335 45.1474 19.7335C44.7189 19.7335 44.4862 19.4659 44.4862 18.9984V17.4767ZM44.924 19.0274C44.924 19.237 45.0127 19.3176 45.1505 19.3176C45.2882 19.3176 45.377 19.237 45.377 19.0274V17.4477C45.377 17.2382 45.2882 17.1576 45.1505 17.1576C45.0127 17.1576 44.924 17.2382 44.924 17.4477V19.0274Z" fill="#8F6FC9"/>
<path d="M46.0596 17.4767C46.0596 17.0093 46.2923 16.7417 46.7209 16.7417C47.1494 16.7417 47.3821 17.0093 47.3821 17.4767V18.9984C47.3821 19.4659 47.1494 19.7335 46.7209 19.7335C46.2923 19.7335 46.0596 19.4659 46.0596 18.9984V17.4767ZM46.4943 19.0274C46.4943 19.237 46.5831 19.3176 46.7209 19.3176C46.8586 19.3176 46.9474 19.237 46.9474 19.0274V17.4477C46.9474 17.2382 46.8586 17.1576 46.7209 17.1576C46.5831 17.1576 46.4943 17.2382 46.4943 17.4477V19.0274Z" fill="#8F6FC9"/>
<path d="M41.498 13.9787C41.498 13.5112 41.7307 13.2437 42.1593 13.2437C42.5878 13.2437 42.8205 13.5112 42.8205 13.9787V15.5004C42.8205 15.9678 42.5878 16.2354 42.1593 16.2354C41.7307 16.2354 41.498 15.9678 41.498 15.5004V13.9787ZM41.9327 15.5294C41.9327 15.7389 42.0215 15.8195 42.1593 15.8195C42.297 15.8195 42.3858 15.7389 42.3858 15.5294V13.9497C42.3858 13.7401 42.297 13.6628 42.1593 13.6628C42.0215 13.6628 41.9327 13.7434 41.9327 13.9497V15.5294Z" fill="#8F6FC9"/>
<path d="M43.375 13.6434C43.7117 13.6434 43.7883 13.4725 43.8556 13.2759H44.1495V16.2H43.7117V13.969H43.375V13.6434Z" fill="#8F6FC9"/>
<path d="M44.9454 13.6434C45.2821 13.6434 45.3586 13.4725 45.426 13.2759H45.7199V16.2H45.2821V13.969H44.9454V13.6434Z" fill="#8F6FC9"/>
<path d="M96.4615 31.2364C96.4615 30.1338 95.9778 29.1473 95.2187 28.4993C95.2034 28.4832 95.185 28.467 95.1635 28.4574C94.5972 27.9899 93.884 27.7126 93.1126 27.7126C92.3412 27.7126 91.6279 27.9931 91.0616 28.4574C91.0402 28.4703 91.0218 28.4832 91.0065 28.5025C90.2504 29.1505 89.7667 30.1338 89.7667 31.2396C89.7667 32.3454 90.2534 33.3319 91.0096 33.9767C91.0249 33.9896 91.0402 34.0025 91.0555 34.0121C91.6248 34.4796 92.3381 34.7633 93.1156 34.7633C93.8901 34.7633 94.6003 34.4828 95.1666 34.0154C95.185 34.0057 95.2034 33.9896 95.2187 33.9735C95.9778 33.3254 96.4615 32.3422 96.4615 31.2364ZM95.035 33.4544C94.888 33.3448 94.735 33.2513 94.5727 33.1707C94.7258 32.6871 94.8238 32.1165 94.8452 31.4975H95.9595C95.8952 32.2712 95.5523 32.9579 95.035 33.4544ZM92.3014 33.4576C92.5616 33.377 92.8371 33.3319 93.1156 33.3319C93.3973 33.3319 93.6697 33.377 93.9299 33.4576C93.6972 33.9541 93.3973 34.241 93.1156 34.241C92.8309 34.2443 92.534 33.9541 92.3014 33.4576ZM92.0412 34.0186C91.8912 33.9541 91.7473 33.8735 91.6095 33.7832C91.6861 33.7349 91.7626 33.6865 91.8422 33.6446C91.9034 33.7832 91.9677 33.9057 92.0412 34.0186ZM93.1156 28.2317C93.4003 28.2317 93.6972 28.5218 93.9299 29.0151C93.6697 29.0957 93.3942 29.1408 93.1156 29.1408C92.834 29.1408 92.5616 29.0957 92.3014 29.0151C92.534 28.5186 92.8309 28.2317 93.1156 28.2317ZM91.8422 28.8249C91.7626 28.783 91.6861 28.7378 91.6095 28.6863C91.7473 28.596 91.8881 28.5186 92.0412 28.4509C91.9677 28.567 91.9034 28.6895 91.8422 28.8249ZM94.1901 28.4541C94.3401 28.5186 94.484 28.5992 94.6217 28.6895C94.5452 28.7378 94.4687 28.7862 94.3891 28.8281C94.3279 28.6895 94.2605 28.567 94.1901 28.4541ZM93.1156 29.6599C93.4554 29.6599 93.7922 29.6018 94.1166 29.4955C94.2452 29.9113 94.3309 30.4143 94.3523 30.9785H91.8789C91.9003 30.4143 91.9861 29.9113 92.1146 29.4955C92.4361 29.6018 92.7728 29.6599 93.1156 29.6599ZM94.3523 31.4975C94.3309 32.0617 94.2452 32.5646 94.1166 32.9773C93.7952 32.8709 93.4554 32.8128 93.1156 32.8128C92.7758 32.8128 92.4361 32.8709 92.1146 32.9773C91.9861 32.5614 91.9003 32.0585 91.8789 31.4975H94.3523ZM94.3891 33.6478C94.4687 33.6898 94.5452 33.7349 94.6217 33.7865C94.484 33.8767 94.3432 33.9541 94.1901 34.0218C94.2605 33.9058 94.3279 33.7832 94.3891 33.6478ZM95.9564 30.9785H94.8421C94.8207 30.3595 94.7258 29.7921 94.5697 29.3053C94.7319 29.2247 94.885 29.1279 95.0319 29.0215C95.5523 29.5148 95.8952 30.2047 95.9564 30.9785ZM91.1932 29.0183C91.3401 29.1279 91.4932 29.2214 91.6555 29.302C91.5024 29.7856 91.4044 30.3562 91.3861 30.9752H90.2718C90.3361 30.2047 90.6789 29.5148 91.1932 29.0183ZM90.2718 31.4975H91.3861C91.4075 32.1165 91.5024 32.6839 91.6555 33.1707C91.4932 33.2513 91.3401 33.348 91.1932 33.4544C90.6789 32.9579 90.3361 32.2712 90.2718 31.4975Z" fill="#8F6FC9"/>
<path opacity="0.87" d="M108.256 52.2528C108.278 52.1399 108.287 52.0271 108.287 51.9078C108.287 50.9181 107.525 50.1186 106.588 50.1186C106.294 50.1186 106.019 50.1959 105.78 50.3346C105.25 49.5705 104.396 49.0708 103.429 49.0708C101.822 49.0708 100.521 50.441 100.521 52.1335C100.521 52.14 100.521 52.1496 100.521 52.1561C98.9934 52.3366 97.8057 53.7003 97.8057 55.3574C97.8057 57.137 99.1771 58.5813 100.867 58.5813H107.439C109.129 58.5813 110.5 57.137 110.5 55.3574C110.5 53.8744 109.548 52.63 108.256 52.2528Z" fill="#978DEF"/>
<path d="M107.008 54.2097C107.008 53.2684 106.595 52.4269 105.949 51.8756C105.933 51.8628 105.921 51.8499 105.903 51.8402C105.419 51.4436 104.813 51.2051 104.152 51.2051C103.491 51.2051 102.888 51.4436 102.404 51.8402C102.386 51.8499 102.37 51.8628 102.355 51.8789C101.712 52.4302 101.299 53.2716 101.299 54.2097C101.299 55.1511 101.712 55.9926 102.358 56.5438C102.37 56.5567 102.382 56.5664 102.398 56.5761C102.881 56.9759 103.491 57.2176 104.152 57.2176C104.813 57.2176 105.419 56.9791 105.903 56.5825C105.918 56.5729 105.933 56.56 105.949 56.5471C106.595 55.9893 107.008 55.1511 107.008 54.2097ZM105.793 56.099C105.667 56.0055 105.535 55.9249 105.398 55.8539C105.529 55.4413 105.612 54.9545 105.627 54.429H106.576C106.521 55.0899 106.23 55.6766 105.793 56.099ZM103.457 56.1022C103.68 56.0313 103.913 55.9958 104.152 55.9958C104.391 55.9958 104.623 56.0345 104.847 56.1022C104.648 56.5245 104.394 56.7727 104.152 56.7727C103.913 56.7727 103.656 56.5245 103.457 56.1022ZM103.237 56.5825C103.108 56.5277 102.986 56.46 102.869 56.3827C102.933 56.3407 103.001 56.3021 103.068 56.2666C103.12 56.3794 103.175 56.4858 103.237 56.5825ZM104.152 51.6435C104.394 51.6435 104.648 51.8918 104.847 52.3141C104.623 52.385 104.391 52.4205 104.152 52.4205C103.913 52.4205 103.68 52.3818 103.457 52.3141C103.656 51.8918 103.913 51.6435 104.152 51.6435ZM103.068 52.1497C103.001 52.1142 102.937 52.0755 102.869 52.0336C102.986 51.9562 103.108 51.8885 103.237 51.8337C103.175 51.9305 103.12 52.0368 103.068 52.1497ZM105.07 51.8337C105.199 51.8885 105.321 51.9562 105.438 52.0336C105.373 52.0755 105.306 52.1142 105.239 52.1497C105.187 52.0368 105.131 51.9305 105.07 51.8337ZM104.152 52.8654C104.443 52.8654 104.73 52.817 105.006 52.7235C105.116 53.0782 105.19 53.5069 105.208 53.9873H103.099C103.117 53.5069 103.191 53.0782 103.301 52.7235C103.576 52.8138 103.861 52.8654 104.152 52.8654ZM105.208 54.429C105.19 54.9093 105.116 55.3381 105.006 55.6927C104.73 55.6025 104.443 55.5509 104.152 55.5509C103.861 55.5509 103.573 55.5992 103.298 55.6927C103.188 55.3381 103.114 54.9093 103.096 54.429H105.208ZM105.239 56.2666C105.306 56.3021 105.37 56.3407 105.438 56.3827C105.321 56.46 105.199 56.5277 105.07 56.5825C105.131 56.4858 105.187 56.3794 105.239 56.2666ZM106.576 53.9873H105.627C105.609 53.4586 105.526 52.975 105.398 52.5623C105.535 52.4914 105.667 52.4108 105.793 52.3173C106.23 52.7397 106.521 53.3264 106.576 53.9873ZM102.514 52.3173C102.64 52.4108 102.771 52.4914 102.909 52.5623C102.777 52.975 102.695 53.4618 102.679 53.9873H101.73C101.782 53.3264 102.076 52.7397 102.514 52.3173ZM101.73 54.429H102.679C102.698 54.9577 102.78 55.4413 102.909 55.8539C102.771 55.9249 102.64 56.0055 102.514 56.099C102.076 55.6766 101.782 55.0899 101.73 54.429Z" fill="white"/>
<path opacity="0.87" d="M15.8487 19.4691H19.8619C20.8935 19.4691 21.7323 18.589 21.7323 17.4993C21.7323 16.4129 20.8966 15.5295 19.8619 15.5295H15.8487C14.8171 15.5295 13.9783 16.4097 13.9783 17.4993C13.9814 18.5858 14.8171 19.4691 15.8487 19.4691Z" fill="#978DEF"/>
<path opacity="0.87" d="M18.3007 17.4026C19.2813 17.4026 20.0762 16.5654 20.0762 15.5327C20.0762 14.5 19.2813 13.6628 18.3007 13.6628C17.3201 13.6628 16.5252 14.5 16.5252 15.5327C16.5252 16.5654 17.3201 17.4026 18.3007 17.4026Z" fill="#978DEF"/>
<path opacity="0.87" d="M16.3696 16.4868C16.9427 16.4868 17.4073 15.9975 17.4073 15.3939C17.4073 14.7903 16.9427 14.301 16.3696 14.301C15.7964 14.301 15.3318 14.7903 15.3318 15.3939C15.3318 15.9975 15.7964 16.4868 16.3696 16.4868Z" fill="#978DEF"/>
<path d="M19.415 16.487H16.1854C16.0232 16.487 15.8885 16.3484 15.8885 16.1743C15.8885 16.0034 16.0201 15.8616 16.1854 15.8616H19.415C19.5772 15.8616 19.7119 16.0002 19.7119 16.1743C19.7088 16.3484 19.5772 16.487 19.415 16.487Z" fill="white"/>
<path d="M20.0425 17.4025H16.1854C16.0232 17.4025 15.8885 17.2639 15.8885 17.0898C15.8885 16.919 16.0201 16.7771 16.1854 16.7771H20.0425C20.2047 16.7771 20.3394 16.9157 20.3394 17.0898C20.3394 17.2607 20.2078 17.4025 20.0425 17.4025Z" fill="white"/>
<path d="M20.0425 18.3149H16.1854C16.0232 18.3149 15.8885 18.1763 15.8885 18.0022C15.8885 17.8313 16.0201 17.6895 16.1854 17.6895H20.0425C20.2047 17.6895 20.3394 17.8281 20.3394 18.0022C20.3394 18.1763 20.2078 18.3149 20.0425 18.3149Z" fill="white"/>
<path d="M82.9985 90.1659V82.1835C82.9985 81.1422 82.1964 80.3007 81.2107 80.3007H81.1893C80.2006 80.3007 79.4016 81.1454 79.4016 82.1835V82.6639C79.4016 83.7052 78.5996 84.5466 77.6139 84.5466C76.6251 84.5466 75.8262 83.7019 75.8262 82.6639V76.2032C75.8262 75.1006 74.9782 74.2043 73.9282 74.2043C72.8813 74.2043 72.0303 75.0974 72.0303 76.2032V89.7016C72.0303 90.8687 71.1334 91.8133 70.0252 91.8133C68.9171 91.8133 68.0202 90.8687 68.0202 89.7016V78.0214C68.0202 76.9801 67.2181 76.1387 66.2325 76.1387H63.0213" stroke="white" stroke-miterlimit="10"/>
<path d="M81.575 86.1418C80.3934 86.1418 79.4322 87.138 79.4108 88.3824L79.3067 94.6852C79.2761 96.5067 80.6689 97.9961 82.3985 97.9961H82.9985V86.1418H81.575Z" fill="white"/>
<path d="M86.5862 88.3798C86.5647 87.1353 85.6035 86.1392 84.4219 86.1392H82.9985V97.9966H83.5985C85.328 97.9966 86.7208 96.504 86.6902 94.6857L86.5862 88.3798Z" fill="#D5E6F0"/>
<path d="M82.9679 91.5907C82.6526 91.5907 82.3924 91.3199 82.3924 90.9846V89.047C82.3924 88.7117 82.6495 88.4409 82.9679 88.4409C83.2862 88.4409 83.5434 88.7117 83.5434 89.047V90.9846C83.5434 91.3199 83.2862 91.5907 82.9679 91.5907Z" fill="#8FB4C9"/>
<path d="M49.8392 70.0068L49.4443 75.4456H63.0145L62.6227 70.0068H49.8392Z" fill="#F1F1F1"/>
<path d="M62.409 67.0186H50.0541L49.8398 70.0071H62.6233L62.409 67.0186Z" fill="#808080"/>
<path d="M66.4341 77.3123H46.0283V75.9389C46.0283 75.4037 46.4416 74.9685 46.9497 74.9685H65.5096C66.0178 74.9685 66.431 75.4037 66.431 75.9389L66.4341 77.3123Z" fill="#A4CDE7"/>
<path d="M86.249 22.2256H26.2134C25.2032 22.2256 24.3828 23.0896 24.3828 24.1535V62.1116H62.1546H88.0796V34.8085V24.1535C88.0796 23.0896 87.2592 22.2256 86.249 22.2256Z" fill="#A4CDE7"/>
<path d="M55.9775 68.6206H86.2494C87.2596 68.6206 88.08 67.7566 88.08 66.6927V62.1147H62.155L55.9775 68.6206Z" fill="#E5E5E5"/>
<path d="M24.3828 62.1147V66.6927C24.3828 67.7566 25.2032 68.6206 26.2134 68.6206H55.9771L62.1546 62.1147H24.3828Z" fill="#F1F1F1"/>
<path d="M85.447 24.5725H26.6113V59.4454H85.447V24.5725Z" fill="#464472"/>
<path d="M38.9601 29.1087H29.9296C29.5776 29.1087 29.2929 28.8089 29.2929 28.4381C29.2929 28.0674 29.5776 27.7676 29.9296 27.7676H38.9601C39.3121 27.7676 39.5968 28.0674 39.5968 28.4381C39.5968 28.8089 39.3121 29.1087 38.9601 29.1087Z" fill="#C2FFC2"/>
<path d="M61.8176 29.1087H52.7871C52.4351 29.1087 52.1504 28.8089 52.1504 28.4381C52.1504 28.0674 52.4351 27.7676 52.7871 27.7676H61.8176C62.1696 27.7676 62.4543 28.0674 62.4543 28.4381C62.4543 28.8089 62.1696 29.1087 61.8176 29.1087Z" fill="#C2FFC2"/>
<path d="M66.257 29.1087H64.1846C63.8325 29.1087 63.5479 28.8089 63.5479 28.4381C63.5479 28.0674 63.8325 27.7676 64.1846 27.7676H66.257C66.609 27.7676 66.8937 28.0674 66.8937 28.4381C66.8937 28.8089 66.609 29.1087 66.257 29.1087Z" fill="white"/>
<path d="M50.3415 29.1087H47.0722C46.7202 29.1087 46.4355 28.8089 46.4355 28.4381C46.4355 28.0674 46.7202 27.7676 47.0722 27.7676H50.3415C50.6936 27.7676 50.9782 28.0674 50.9782 28.4381C50.9782 28.8089 50.6936 29.1087 50.3415 29.1087Z" fill="#FE168D"/>
<path d="M35.9693 31.5814H29.9296C29.5776 31.5814 29.2929 31.2816 29.2929 30.9108C29.2929 30.5401 29.5776 30.2402 29.9296 30.2402H35.9693C36.3214 30.2402 36.6061 30.5401 36.6061 30.9108C36.6061 31.2816 36.3214 31.5814 35.9693 31.5814Z" fill="#00FFFF"/>
<path d="M52.1901 31.5814H46.1504C45.7984 31.5814 45.5137 31.2816 45.5137 30.9108C45.5137 30.5401 45.7984 30.2402 46.1504 30.2402H52.1901C52.5421 30.2402 52.8268 30.5401 52.8268 30.9108C52.8268 31.2816 52.5421 31.5814 52.1901 31.5814Z" fill="#00FFFF"/>
<path d="M55.3404 31.5814H54.2384C53.8863 31.5814 53.6017 31.2816 53.6017 30.9108C53.6017 30.5401 53.8863 30.2402 54.2384 30.2402H55.3404C55.6924 30.2402 55.9771 30.5401 55.9771 30.9108C55.9771 31.2816 55.6924 31.5814 55.3404 31.5814Z" fill="white"/>
<path d="M40.0254 31.5814H38.0754C37.7234 31.5814 37.4387 31.2816 37.4387 30.9108C37.4387 30.5401 37.7234 30.2402 38.0754 30.2402H40.0254C40.3774 30.2402 40.6621 30.5401 40.6621 30.9108C40.6652 31.2816 40.3774 31.5814 40.0254 31.5814Z" fill="#00FFFF"/>
<path d="M44.0447 31.5814H42.0947C41.7427 31.5814 41.458 31.2816 41.458 30.9108C41.458 30.5401 41.7427 30.2402 42.0947 30.2402H44.0447C44.3967 30.2402 44.6814 30.5401 44.6814 30.9108C44.6814 31.2816 44.3967 31.5814 44.0447 31.5814Z" fill="#00FFFF"/>
<path d="M35.9693 34.054H29.9296C29.5776 34.054 29.2929 33.7542 29.2929 33.3835C29.2929 33.0127 29.5776 32.7129 29.9296 32.7129H35.9693C36.3214 32.7129 36.6061 33.0127 36.6061 33.3835C36.6061 33.751 36.3214 34.054 35.9693 34.054Z" fill="white"/>
<path d="M40.0254 34.054H38.0754C37.7234 34.054 37.4387 33.7542 37.4387 33.3835C37.4387 33.0127 37.7234 32.7129 38.0754 32.7129H40.0254C40.3774 32.7129 40.6621 33.0127 40.6621 33.3835C40.6652 33.751 40.3774 34.054 40.0254 34.054Z" fill="white"/>
<path d="M44.0447 34.054H42.0947C41.7427 34.054 41.458 33.7542 41.458 33.3835C41.458 33.0127 41.7427 32.7129 42.0947 32.7129H44.0447C44.3967 32.7129 44.6814 33.0127 44.6814 33.3835C44.6814 33.751 44.3967 34.054 44.0447 34.054Z" fill="white"/>
<path d="M54.9024 34.054H54.2871C53.9351 34.054 53.6504 33.7542 53.6504 33.3835C53.6504 33.0127 53.9351 32.7129 54.2871 32.7129H54.9024C55.2544 32.7129 55.5391 33.0127 55.5391 33.3835C55.5391 33.751 55.2544 34.054 54.9024 34.054Z" fill="#FE168D"/>
<path d="M57.6114 34.054H56.9961C56.6441 34.054 56.3594 33.7542 56.3594 33.3835C56.3594 33.0127 56.6441 32.7129 56.9961 32.7129H57.6114C57.9634 32.7129 58.2481 33.0127 58.2481 33.3835C58.2512 33.751 57.9634 34.054 57.6114 34.054Z" fill="#FE168D"/>
<path d="M60.3243 34.054H59.709C59.357 34.054 59.0723 33.7542 59.0723 33.3835C59.0723 33.0127 59.357 32.7129 59.709 32.7129H60.3243C60.6763 32.7129 60.961 33.0127 60.961 33.3835C60.961 33.751 60.6763 34.054 60.3243 34.054Z" fill="white"/>
<path d="M63.0362 34.054H62.4209C62.0688 34.054 61.7842 33.7542 61.7842 33.3835C61.7842 33.0127 62.0688 32.7129 62.4209 32.7129H63.0362C63.3882 32.7129 63.6729 33.0127 63.6729 33.3835C63.6729 33.751 63.3882 34.054 63.0362 34.054Z" fill="white"/>
<path d="M33.1286 36.5235H29.9296C29.5776 36.5235 29.2929 36.2237 29.2929 35.8529C29.2929 35.4822 29.5776 35.1824 29.9296 35.1824H33.1255C33.4775 35.1824 33.7622 35.4822 33.7622 35.8529C33.7653 36.2237 33.4806 36.5235 33.1286 36.5235Z" fill="white"/>
<path d="M43.0465 36.5238H39.8506C39.4986 36.5238 39.2139 36.2239 39.2139 35.8532C39.2139 35.4824 39.4986 35.1826 39.8506 35.1826H43.0465C43.3985 35.1826 43.6832 35.4824 43.6832 35.8532C43.6832 36.2239 43.3985 36.5238 43.0465 36.5238Z" fill="#FE168D"/>
<path d="M44.9725 36.5238H44.7949C44.4429 36.5238 44.1582 36.2239 44.1582 35.8532C44.1582 35.4824 44.4429 35.1826 44.7949 35.1826H44.9725C45.3245 35.1826 45.6092 35.4824 45.6092 35.8532C45.6123 36.2239 45.3245 36.5238 44.9725 36.5238Z" fill="white"/>
<path d="M35.6081 36.5235H34.9132C34.5612 36.5235 34.2765 36.2237 34.2765 35.8529C34.2765 35.4822 34.5612 35.1824 34.9132 35.1824H35.6081C35.9601 35.1824 36.2448 35.4822 36.2448 35.8529C36.2448 36.2237 35.9601 36.5235 35.6081 36.5235Z" fill="white"/>
<path d="M38.066 36.5238H37.3711C37.0191 36.5238 36.7344 36.2239 36.7344 35.8532C36.7344 35.4824 37.0191 35.1826 37.3711 35.1826H38.066C38.418 35.1826 38.7027 35.4824 38.7027 35.8532C38.7027 36.2239 38.418 36.5238 38.066 36.5238Z" fill="white"/>
<path d="M37.3346 38.9964H29.9296C29.5776 38.9964 29.2929 38.6966 29.2929 38.3258C29.2929 37.9551 29.5776 37.6553 29.9296 37.6553H37.3346C37.6866 37.6553 37.9713 37.9551 37.9713 38.3258C37.9713 38.6966 37.6866 38.9964 37.3346 38.9964Z" fill="#00FFFF"/>
<path d="M50.6755 38.9964H49.1816C48.8296 38.9964 48.5449 38.6966 48.5449 38.3258C48.5449 37.9551 48.8296 37.6553 49.1816 37.6553H50.6755C51.0275 37.6553 51.3122 37.9551 51.3122 38.3258C51.3122 38.6966 51.0275 38.9964 50.6755 38.9964Z" fill="white"/>
<path d="M53.6534 38.9964H52.9004C52.5484 38.9964 52.2637 38.6966 52.2637 38.3258C52.2637 37.9551 52.5484 37.6553 52.9004 37.6553H53.6534C54.0055 37.6553 54.2902 37.9551 54.2902 38.3258C54.2902 38.6966 54.0055 38.9964 53.6534 38.9964Z" fill="white"/>
<path d="M56.6077 38.9964H55.8547C55.5026 38.9964 55.218 38.6966 55.218 38.3258C55.218 37.9551 55.5026 37.6553 55.8547 37.6553H56.6077C56.9598 37.6553 57.2444 37.9551 57.2444 38.3258C57.2444 38.6966 56.9598 38.9964 56.6077 38.9964Z" fill="white"/>
<path d="M42.1498 38.9964H39.5968C39.2448 38.9964 38.9601 38.6966 38.9601 38.3258C38.9601 37.9551 39.2448 37.6553 39.5968 37.6553H42.1498C42.5019 37.6553 42.7866 37.9551 42.7866 38.3258C42.7896 38.6966 42.5019 38.9964 42.1498 38.9964Z" fill="#00FFFF"/>
<path d="M46.9191 38.9964H44.3661C44.0141 38.9964 43.7294 38.6966 43.7294 38.3258C43.7294 37.9551 44.0141 37.6553 44.3661 37.6553H46.9191C47.2712 37.6553 47.5559 37.9551 47.5559 38.3258C47.5589 38.6966 47.2712 38.9964 46.9191 38.9964Z" fill="#00FFFF"/>
<path d="M38.3877 41.4691H29.9296C29.5776 41.4691 29.2929 41.1692 29.2929 40.7985C29.2929 40.4278 29.5776 40.1279 29.9296 40.1279H38.3877C38.7397 40.1279 39.0244 40.4278 39.0244 40.7985C39.0244 41.166 38.7397 41.4691 38.3877 41.4691Z" fill="white"/>
<path d="M59.9717 41.4691H51.5137C51.1616 41.4691 50.877 41.1692 50.877 40.7985C50.877 40.4278 51.1616 40.1279 51.5137 40.1279H59.9717C60.3237 40.1279 60.6084 40.4278 60.6084 40.7985C60.6115 41.166 60.3237 41.4691 59.9717 41.4691Z" fill="white"/>
<path d="M64.163 41.4691H62.2773C61.9253 41.4691 61.6406 41.1692 61.6406 40.7985C61.6406 40.4278 61.9253 40.1279 62.2773 40.1279H64.163C64.5151 40.1279 64.7998 40.4278 64.7998 40.7985C64.8028 41.166 64.5181 41.4691 64.163 41.4691Z" fill="white"/>
<path d="M33.7592 43.9385H29.9296C29.5776 43.9385 29.2929 43.6387 29.2929 43.268C29.2929 42.8972 29.5776 42.5974 29.9296 42.5974H33.7592C34.1112 42.5974 34.3959 42.8972 34.3959 43.268C34.3959 43.6387 34.1112 43.9385 33.7592 43.9385Z" fill="white"/>
<path d="M45.0794 43.9385H41.2498C40.8978 43.9385 40.6131 43.6387 40.6131 43.268C40.6131 42.8972 40.8978 42.5974 41.2498 42.5974H45.0794C45.4314 42.5974 45.7161 42.8972 45.7161 43.268C45.7161 43.6387 45.4314 43.9385 45.0794 43.9385Z" fill="#FE168D"/>
<path d="M47.2773 43.9385H46.8946C46.5426 43.9385 46.2579 43.6387 46.2579 43.268C46.2579 42.8972 46.5426 42.5974 46.8946 42.5974H47.2773C47.6293 42.5974 47.914 42.8972 47.914 43.268C47.914 43.6387 47.6293 43.9385 47.2773 43.9385Z" fill="#FE168D"/>
<path d="M36.5908 43.9385H35.6173C35.2653 43.9385 34.9806 43.6387 34.9806 43.268C34.9806 42.8972 35.2653 42.5974 35.6173 42.5974H36.5908C36.9428 42.5974 37.2275 42.8972 37.2275 43.268C37.2275 43.6387 36.9428 43.9385 36.5908 43.9385Z" fill="white"/>
<path d="M39.3944 43.9383H38.4209C38.0689 43.9383 37.7842 43.6385 37.7842 43.2677C37.7842 42.897 38.0689 42.5972 38.4209 42.5972H39.3944C39.7464 42.5972 40.0311 42.897 40.0311 43.2677C40.0311 43.6385 39.7464 43.9383 39.3944 43.9383Z" fill="#C2FFC2"/>
<path d="M34.5979 46.4112H29.9296C29.5776 46.4112 29.2929 46.1114 29.2929 45.7406C29.2929 45.3699 29.5776 45.0701 29.9296 45.0701H34.5979C34.95 45.0701 35.2347 45.3699 35.2347 45.7406C35.2377 46.1114 34.95 46.4112 34.5979 46.4112Z" fill="white"/>
<path d="M47.7824 46.4112H43.1141C42.7621 46.4112 42.4774 46.1114 42.4774 45.7406C42.4774 45.3699 42.7621 45.0701 43.1141 45.0701H47.7824C48.1344 45.0701 48.4191 45.3699 48.4191 45.7406C48.4191 46.1114 48.1344 46.4112 47.7824 46.4112Z" fill="#00FFFF"/>
<path d="M50.3415 46.4112H49.6864C49.3344 46.4112 49.0497 46.1114 49.0497 45.7406C49.0497 45.3699 49.3344 45.0701 49.6864 45.0701H50.3415C50.6936 45.0701 50.9782 45.3699 50.9782 45.7406C50.9782 46.1114 50.6936 46.4112 50.3415 46.4112Z" fill="#00FFFF"/>
<path d="M37.8948 46.4112H36.551C36.1989 46.4112 35.9142 46.1114 35.9142 45.7406C35.9142 45.3699 36.1989 45.0701 36.551 45.0701H37.8948C38.2468 45.0701 38.5315 45.3699 38.5315 45.7406C38.5346 46.1114 38.2468 46.4112 37.8948 46.4112Z" fill="#00FFFF"/>
<path d="M41.1611 46.4112H39.8172C39.4652 46.4112 39.1805 46.1114 39.1805 45.7406C39.1805 45.3699 39.4652 45.0701 39.8172 45.0701H41.1611C41.5131 45.0701 41.7978 45.3699 41.7978 45.7406C41.8009 46.1114 41.5131 46.4112 41.1611 46.4112Z" fill="#00FFFF"/>
<path d="M35.9693 51.3536H29.9296C29.5776 51.3536 29.2929 51.0538 29.2929 50.683C29.2929 50.3123 29.5776 50.0125 29.9296 50.0125H35.9693C36.3214 50.0125 36.6061 50.3123 36.6061 50.683C36.6061 51.0538 36.3214 51.3536 35.9693 51.3536Z" fill="#C2FFC2"/>
<path d="M48.5324 51.3536H48.3058C47.9538 51.3536 47.6691 51.0538 47.6691 50.683C47.6691 50.3123 47.9538 50.0125 48.3058 50.0125H48.5324C48.8844 50.0125 49.1691 50.3123 49.1691 50.683C49.1691 51.0538 48.8844 51.3536 48.5324 51.3536Z" fill="#FE168D"/>
<path d="M44.6787 29.1087H41.4094C41.0574 29.1087 40.7727 28.8089 40.7727 28.4381C40.7727 28.0674 41.0574 27.7676 41.4094 27.7676H44.6787C45.0308 27.7676 45.3155 28.0674 45.3155 28.4381C45.3155 28.8089 45.0308 29.1087 44.6787 29.1087Z" fill="#FFE068"/>
<path d="M46.7661 34.0543H46.1508C45.7987 34.0543 45.5141 33.7545 45.5141 33.3837C45.5141 33.013 45.7987 32.7131 46.1508 32.7131H46.7661C47.1181 32.7131 47.4028 33.013 47.4028 33.3837C47.4028 33.7512 47.1181 34.0543 46.7661 34.0543Z" fill="#FFE068"/>
<path d="M49.4778 34.054H48.8625C48.5105 34.054 48.2258 33.7542 48.2258 33.3835C48.2258 33.0127 48.5105 32.7129 48.8625 32.7129H49.4778C49.8299 32.7129 50.1145 33.0127 50.1145 33.3835C50.1145 33.751 49.8299 34.054 49.4778 34.054Z" fill="#FFE068"/>
<path d="M52.1907 34.054H51.5754C51.2234 34.054 50.9387 33.7542 50.9387 33.3835C50.9387 33.0127 51.2234 32.7129 51.5754 32.7129H52.1907C52.5427 32.7129 52.8274 33.0127 52.8274 33.3835C52.8274 33.751 52.5427 34.054 52.1907 34.054Z" fill="#FFE068"/>
<path d="M43.7879 41.4691H40.7727C40.4206 41.4691 40.136 41.1692 40.136 40.7985C40.136 40.4278 40.4206 40.1279 40.7727 40.1279H43.7879C44.14 40.1279 44.4247 40.4278 44.4247 40.7985C44.4247 41.166 44.14 41.4691 43.7879 41.4691Z" fill="#FFE068"/>
<path d="M49.1354 41.4691H46.1202C45.7681 41.4691 45.4834 41.1692 45.4834 40.7985C45.4834 40.4278 45.7681 40.1279 46.1202 40.1279H49.1354C49.4875 40.1279 49.7721 40.4278 49.7721 40.7985C49.7721 41.166 49.4875 41.4691 49.1354 41.4691Z" fill="#FFE068"/>
<path d="M46.5395 51.3536H43.1876C42.8355 51.3536 42.5508 51.0538 42.5508 50.683C42.5508 50.3123 42.8355 50.0125 43.1876 50.0125H46.5395C46.8916 50.0125 47.1763 50.3123 47.1763 50.683C47.1763 51.0538 46.8916 51.3536 46.5395 51.3536Z" fill="#FFE068"/>
<path d="M38.8407 51.3536H38.0754C37.7234 51.3536 37.4387 51.0538 37.4387 50.683C37.4387 50.3123 37.7234 50.0125 38.0754 50.0125H38.8407C39.1927 50.0125 39.4774 50.3123 39.4774 50.683C39.4805 51.0538 39.1927 51.3536 38.8407 51.3536Z" fill="#FFE068"/>
<path d="M41.3845 51.3536H40.6192C40.2672 51.3536 39.9825 51.0538 39.9825 50.683C39.9825 50.3123 40.2672 50.0125 40.6192 50.0125H41.3845C41.7366 50.0125 42.0213 50.3123 42.0213 50.683C42.0243 51.0538 41.7366 51.3536 41.3845 51.3536Z" fill="#FFE068"/>
<path d="M35.9693 53.8262H29.9296C29.5776 53.8262 29.2929 53.5264 29.2929 53.1557C29.2929 52.7849 29.5776 52.4851 29.9296 52.4851H35.9693C36.3214 52.4851 36.6061 52.7849 36.6061 53.1557C36.6061 53.5264 36.3214 53.8262 35.9693 53.8262Z" fill="#00FFFF"/>
<path d="M52.1901 53.826H46.1504C45.7984 53.826 45.5137 53.5262 45.5137 53.1554C45.5137 52.7847 45.7984 52.4849 46.1504 52.4849H52.1901C52.5421 52.4849 52.8268 52.7847 52.8268 53.1554C52.8268 53.5262 52.5421 53.826 52.1901 53.826Z" fill="#00FFFF"/>
<path d="M55.3404 53.8262H54.2384C53.8863 53.8262 53.6017 53.5264 53.6017 53.1557C53.6017 52.7849 53.8863 52.4851 54.2384 52.4851H55.3404C55.6924 52.4851 55.9771 52.7849 55.9771 53.1557C55.9771 53.5264 55.6924 53.8262 55.3404 53.8262Z" fill="#00FFFF"/>
<path d="M40.0254 53.8262H38.0754C37.7234 53.8262 37.4387 53.5264 37.4387 53.1557C37.4387 52.7849 37.7234 52.4851 38.0754 52.4851H40.0254C40.3774 52.4851 40.6621 52.7849 40.6621 53.1557C40.6652 53.5264 40.3774 53.8262 40.0254 53.8262Z" fill="#FE168D"/>
<path d="M44.0447 53.8262H42.0947C41.7427 53.8262 41.458 53.5264 41.458 53.1557C41.458 52.7849 41.7427 52.4851 42.0947 52.4851H44.0447C44.3967 52.4851 44.6814 52.7849 44.6814 53.1557C44.6814 53.5264 44.3967 53.8262 44.0447 53.8262Z" fill="#FE168D"/>
<path opacity="0.2" d="M54.5506 24.5725L26.6113 53.9938V45.5278L46.5059 24.5725H54.5506Z" fill="white"/>
<path opacity="0.2" d="M80.543 24.5725L47.4334 59.4454H32.2255L65.3412 24.5725H80.543Z" fill="white"/>
<path d="M93.8507 66.2639C93.8507 70.0036 95.1242 72.4215 96.6976 72.4215V58.8779C96.6976 58.8779 93.8507 62.5242 93.8507 66.2639Z" fill="#C2FFC2"/>
<path d="M96.6976 58.8779V72.4215C98.271 72.4215 99.5445 70.0068 99.5445 66.2639C99.5445 62.5242 96.6976 58.8779 96.6976 58.8779Z" fill="#80A880"/>
<path d="M99.3241 66.1188C96.8139 68.7624 96.0915 71.4221 97.2027 72.5924L106.297 63.0142C106.297 63.0142 101.837 63.4752 99.3241 66.1188Z" fill="#C2FFC2"/>
<path d="M106.297 63.0142L97.2022 72.5924C98.3134 73.7626 100.839 73.0018 103.349 70.3582C105.862 67.7146 106.297 63.0142 106.297 63.0142Z" fill="#80A880"/>
<path d="M94.0681 66.1188C96.5782 68.7624 97.3007 71.4221 96.1895 72.5924L87.0947 63.0142C87.0978 63.0142 91.5579 63.4752 94.0681 66.1188Z" fill="#C2FFC2"/>
<path d="M87.0977 63.0142L96.1924 72.5924C95.0812 73.7626 92.5557 73.0018 90.0456 70.3582C87.5323 67.7146 87.0977 63.0142 87.0977 63.0142Z" fill="#80A880"/>
<path d="M96.6973 71.6477V83.3247H101.329H101.877C102.308 83.3247 102.661 82.9539 102.661 82.4993V71.6477H96.6973Z" fill="#8FB4C9"/>
<path d="M96.6976 71.6477H90.7345V82.4993C90.7345 82.9539 91.0865 83.3247 91.5181 83.3247H92.0661H96.6976V71.6477Z" fill="#A4CDE7"/>
<path d="M101.329 83.3245H96.6973V84.6301H101.329V83.3245Z" fill="#528AA8"/>
<path d="M96.698 83.3245H92.0665V84.6301H96.698V83.3245Z" fill="#79A3BA"/>
</g>
<defs>
<clipPath id="clip0_114_13621">
<rect width="110" height="98" fill="white" transform="translate(0.5)"/>
</clipPath>
</defs>
</svg>
