<svg width="103" height="44" viewBox="0 0 103 44" fill="none" xmlns="http://www.w3.org/2000/svg">
<path d="M9.49319 36.5155C9.49319 37.6463 7.36976 38.5634 4.74833 38.5634C2.12691 38.5634 0.003479 37.6463 0.003479 36.5155C0.003479 35.3848 2.12691 34.4677 4.74833 34.4677C7.36976 34.4677 9.49319 35.3813 9.49319 36.5155Z" fill="#978DEF"/>
<path d="M53.0476 24.8198C60.6876 24.8198 66.881 19.2637 66.881 12.4099C66.881 5.5561 60.6876 0 53.0476 0C45.4077 0 39.2142 5.5561 39.2142 12.4099C39.2142 19.2637 45.4077 24.8198 53.0476 24.8198Z" fill="white"/>
<path d="M74.5171 16.2887C74.5171 21.0006 70.744 24.8198 66.0891 24.8198C61.4341 24.8198 57.6611 21.0006 57.6611 16.2887C57.6611 11.5767 61.4341 7.75751 66.0891 7.75751C70.744 7.75401 74.5171 11.5767 74.5171 16.2887Z" fill="white"/>
<path d="M66.881 37.8143C74.139 37.8143 80.0227 32.7237 80.0227 26.4441C80.0227 20.1645 74.139 15.0739 66.881 15.0739C59.623 15.0739 53.7393 20.1645 53.7393 26.4441C53.7393 32.7237 59.623 37.8143 66.881 37.8143Z" fill="white"/>
<path d="M90.1695 31.3171C90.1695 34.9053 86.6662 37.8143 82.3433 37.8143C78.0203 37.8143 74.517 34.9053 74.517 31.3171C74.517 27.7289 78.0203 24.8198 82.3433 24.8198C86.6662 24.8198 90.1695 27.7289 90.1695 31.3171Z" fill="white"/>
<path d="M95.7029 32.3252C95.7029 33.9356 93.3789 35.2413 90.5153 35.2413C87.6518 35.2413 85.3278 33.9356 85.3278 32.3252C85.3278 30.7149 87.6518 29.4092 90.5153 29.4092C93.3789 29.4057 95.7029 30.7149 95.7029 32.3252Z" fill="white"/>
<path d="M50.5126 20.1499C50.5126 24.2317 45.9199 27.5433 40.2517 27.5433C34.5835 27.5433 29.9908 24.2352 29.9908 20.1499C29.9908 16.0681 34.5835 12.76 40.2517 12.76C45.9199 12.7565 50.5126 16.0646 50.5126 20.1499Z" fill="white"/>
<path d="M49.3403 40.6463C54.9327 40.6463 59.4663 36.0573 59.4663 30.3963C59.4663 24.7354 54.9327 20.1464 49.3403 20.1464C43.7478 20.1464 39.2142 24.7354 39.2142 30.3963C39.2142 36.0573 43.7478 40.6463 49.3403 40.6463Z" fill="white"/>
<path d="M46.8226 31.3171C46.8226 34.9053 41.7665 37.8143 35.5241 37.8143C29.2853 37.8143 24.2257 34.9053 24.2257 31.3171C24.2257 27.7289 29.2853 24.8198 35.5241 24.8198C41.763 24.8198 46.8226 27.7289 46.8226 31.3171Z" fill="white"/>
<path d="M29.9908 32.9483C29.9908 35.6369 27.0996 37.8143 23.5341 37.8143C19.9685 37.8143 17.0773 35.6369 17.0773 32.9483C17.0773 30.2598 19.9685 28.0824 23.5341 28.0824C27.0996 28.0824 29.9908 30.2633 29.9908 32.9483Z" fill="white"/>
<path d="M95.7029 32.3252C95.7029 33.9356 93.3789 35.2413 90.5154 35.2413C89.8894 35.2413 89.2911 35.1748 88.7378 35.0628C87.3199 36.7256 84.9855 37.8143 82.3433 37.8143C79.5801 37.8143 77.1523 36.6241 75.7586 34.8282C74.2024 36.0605 72.3037 36.9741 70.1976 37.4467C69.1393 37.6883 68.0257 37.8143 66.881 37.8143C63.6233 37.8143 60.6422 36.7851 58.3458 35.0838C56.6651 38.3884 53.2655 40.6464 49.3403 40.6464C46.1621 40.6464 43.3262 39.1621 41.4691 36.8411C39.7434 37.4572 37.7064 37.8143 35.5276 37.8143C32.7471 37.8143 30.2052 37.2367 28.2374 36.2775C27.0581 37.2227 25.3912 37.8143 23.5375 37.8143C21.753 37.8143 20.1449 37.2717 18.976 36.3895H18.9725C17.8036 35.5074 17.0808 34.2926 17.0808 32.9484C17.0808 31.8386 17.5754 30.813 18.4088 29.9973C19.5881 28.8351 21.4452 28.0859 23.5375 28.0859C24.2258 28.0859 24.8863 28.1664 25.5053 28.317C26.9475 26.7277 29.4997 25.5234 32.5708 25.0438C30.9695 23.7416 29.9943 22.0263 29.9943 20.1464C29.9943 16.3167 34.0406 13.1625 39.2246 12.7915C39.2246 12.76 39.2212 12.7285 39.2212 12.697C39.2177 12.6024 39.2142 12.5079 39.2142 12.4099C39.2142 5.55557 45.4081 0 53.0476 0C58.8542 0 63.8239 3.21012 65.8747 7.761C65.9473 7.7575 66.0164 7.754 66.0891 7.754C70.744 7.754 74.5171 11.5732 74.5171 16.2886C74.5171 16.5827 74.5032 16.8768 74.4756 17.1673C77.4428 18.9877 79.4971 21.8477 79.9328 25.1349C80.6937 24.9318 81.5029 24.8198 82.3433 24.8198C85.8777 24.8198 88.8623 26.7627 89.8341 29.4337C90.0554 29.4197 90.2837 29.4057 90.5154 29.4057C93.3789 29.4057 95.7029 30.7114 95.7029 32.3252Z" fill="white"/>
<path d="M92.0958 34.3626C91.8088 34.3626 91.5287 34.3731 91.252 34.3836C90.0519 32.2657 86.3653 30.7219 81.9975 30.7219C78.6463 30.7219 75.6963 31.6321 73.9602 33.0113C73.2547 32.4477 72.525 31.9646 71.8057 31.6146C71.8507 31.289 71.8714 30.9529 71.8714 30.6134C71.8714 25.2398 66.4176 20.885 59.6842 20.885C59.5804 20.885 59.4732 20.8885 59.3729 20.8885C56.4022 15.704 49.2227 12.0423 40.8258 12.0423C40.0961 12.0423 39.3768 12.0703 38.6643 12.1228C38.6643 12.1578 38.6678 12.1963 38.6678 12.2313C31.177 12.6549 25.3289 16.2536 25.3289 20.619C25.3289 22.7614 26.74 24.7182 29.0536 26.2025C24.6131 26.7486 20.923 28.1244 18.8376 29.9343C17.9419 29.7627 16.9874 29.6717 15.9914 29.6717C12.9654 29.6717 10.2817 30.5259 8.5767 31.8526C7.87812 32.8293 7.49078 33.9005 7.49078 35.0172C7.49078 36.5155 8.179 37.9228 9.38942 39.141H9.39288C11.084 40.1457 13.408 40.7653 15.9879 40.7653C18.6682 40.7653 21.0786 40.0897 22.7836 39.0115C25.6298 40.1037 29.3026 40.7653 33.3246 40.7653C36.4752 40.7653 39.4183 40.3593 41.9152 39.6556C44.5989 42.3021 48.7005 43.9965 53.2966 43.9965C58.9718 43.9965 64.1835 40.8214 65.7536 37.9788C68.9076 39.8202 73.8427 40.7618 78.3178 40.6428C79.4521 40.8914 80.6937 41.0314 81.9975 41.0314C85.2621 41.0314 88.1395 40.1667 89.8929 38.847C90.5811 38.938 91.3212 38.9905 92.0958 38.9905C95.6372 38.9905 98.5041 37.9543 98.5041 36.6766C98.5041 35.3988 95.6337 34.3626 92.0958 34.3626Z" fill="#978DEF"/>
<path d="M93.6175 30.9495C92.0301 30.9495 90.5361 31.0895 89.2254 31.3381C88.7447 30.6659 87.6899 30.0743 86.2616 29.6332C86.2754 29.5562 86.2858 29.4792 86.2858 29.3987C86.2858 27.5538 82.0839 26.0556 76.8999 26.0556C76.8757 26.0556 76.8514 26.0556 76.8238 26.0556C76.8722 25.919 76.8999 25.779 76.8999 25.639C76.8999 24.8968 76.2186 24.2107 75.0669 23.6541C75.3332 23.346 75.475 23.017 75.475 22.6774C75.475 20.8325 71.2731 19.3343 66.0891 19.3343C64.7784 19.3343 63.5333 19.4288 62.4025 19.6038C62.4232 19.5163 62.437 19.4253 62.437 19.3343C62.437 17.7485 59.3315 16.4217 55.1711 16.0786C55.4201 15.515 55.5619 14.8919 55.5619 14.2338C55.5619 11.7343 53.5595 9.7039 51.0868 9.7039C49.5236 9.7039 48.1472 10.5196 47.3483 11.7518C46.3419 9.87893 44.094 8.57318 41.476 8.57318C37.9208 8.57318 35.0366 10.9816 35.0366 13.9537C35.0366 14.5908 35.1749 15.2 35.4204 15.7671C32.1281 16.2852 29.8317 17.4579 29.8317 18.8232C29.8317 19.6073 30.5926 20.3285 31.8652 20.8991C29.9459 21.5117 28.7354 22.4009 28.7354 23.3915C28.7354 23.7206 28.8738 24.0392 29.1228 24.3437C27.1792 24.5748 25.5157 25.0264 24.371 25.6145C23.6032 25.1489 22.6245 24.8688 21.5559 24.8688C19.2388 24.8688 17.3333 26.1851 17.105 27.8724C16.5655 27.7009 15.9741 27.6064 15.3516 27.6064C12.8824 27.6064 10.8765 29.1011 10.8765 30.9495C10.8765 32.7979 12.8789 34.2927 15.3516 34.2927C17.3367 34.2927 19.0175 33.3265 19.6019 31.9892C20.3593 33.0324 21.836 33.743 23.5375 33.743C25.9515 33.743 27.9089 32.3148 28.0023 30.5294C29.2369 30.743 30.6237 30.862 32.0866 30.862C35.4031 30.862 38.3185 30.2494 39.9854 29.3217C40.0546 29.4057 40.1376 29.4897 40.2241 29.5702C40.0477 29.8258 39.9509 30.0953 39.9509 30.3719C39.9509 32.2167 44.1528 33.715 49.3368 33.715C54.5209 33.715 58.7228 32.2203 58.7228 30.3719C58.7228 29.9658 58.5187 29.5737 58.1418 29.2132C59.5597 29.5177 61.2197 29.6928 62.9938 29.6928C64.6331 29.6928 66.1755 29.5422 67.5174 29.2797C67.5139 29.3217 67.5104 29.3602 67.5104 29.4022C67.5104 30.4139 68.7727 31.3206 70.7648 31.9332C70.7509 32.0102 70.7405 32.0872 70.7405 32.1677C70.7405 34.0126 74.9424 35.5109 80.1265 35.5109C81.7139 35.5109 83.2079 35.3709 84.5186 35.1223C85.5492 36.5681 89.2323 37.6393 93.6141 37.6393C98.7981 37.6393 103 36.1445 103 34.2962C103.003 32.4478 98.7981 30.9495 93.6175 30.9495Z" fill="#D7D2FF"/>
<path d="M52.4493 24.8198C52.4493 24.8198 57.1907 25.1839 56.9383 28.086C56.9383 28.086 56.5129 25.5655 52.4493 24.8198Z" fill="white"/>
<path d="M51.9167 16.2887C51.4914 16.1591 56.8276 16.1381 58.6605 20.325C60.49 24.5118 56.4264 25.6495 56.4264 25.6495C56.4264 25.6495 62.7967 19.6143 51.9167 16.2887Z" fill="white"/>
<path d="M31.8618 20.906C31.8618 20.906 39.8263 20.1814 41.5555 23.3985C43.2847 26.6121 41.5555 27.5433 41.5555 27.5433C41.5555 27.5433 43.6305 27.3158 45.2732 28.4535C46.9159 29.5912 45.7263 30.9565 45.7263 30.9565C45.7263 30.9565 46.5701 27.9004 41.2097 28.0929C41.2097 28.0859 44.3879 20.9725 31.8618 20.906Z" fill="white"/>
</svg>
