<svg width="1440" height="805" viewBox="0 0 1440 805" fill="none" xmlns="http://www.w3.org/2000/svg">
<path d="M0.0288696 9.2627C0.0288696 1.96948 6.9248 -4 15.35 -4L766 -4C754.863 70.8556 685.845 115.689 648.653 130.176C590.946 152.655 554.158 190.12 563.536 256.933C572.913 323.746 550.552 363.709 450.286 404.921C361.908 441.237 383.202 480.476 340.643 634.083C298.084 787.691 180.507 745.23 59.64 777.076C36.5573 783.145 16.9658 792.711 0 805L0 9.2627H0.0288696Z" fill="url(#paint0_linear_416_32561)"/>
<path d="M1439.97 9.2627C1439.97 1.96948 1433.08 -4 1424.65 -4L674 -4C685.137 70.8556 754.155 115.689 791.347 130.176C849.054 152.655 885.842 190.12 876.464 256.933C867.087 323.746 889.448 363.709 989.714 404.921C1078.09 441.237 1056.8 480.476 1099.36 634.083C1141.92 787.691 1259.49 745.23 1380.36 777.076C1403.44 783.145 1423.03 792.711 1440 805L1440 9.2627H1439.97Z" fill="url(#paint1_linear_416_32561)"/>
<defs>
<linearGradient id="paint0_linear_416_32561" x1="-369.889" y1="618.671" x2="1090.67" y2="81.1178" gradientUnits="userSpaceOnUse">
<stop stop-color="#EEEEEE"/>
<stop offset="1" stop-color="#978DEF"/>
</linearGradient>
<linearGradient id="paint1_linear_416_32561" x1="1809.89" y1="618.671" x2="349.329" y2="81.1178" gradientUnits="userSpaceOnUse">
<stop stop-color="#EEEEEE"/>
<stop offset="1" stop-color="#978DEF"/>
</linearGradient>
</defs>
</svg>
