<svg width="292" height="301" viewBox="0 0 292 301" fill="none" xmlns="http://www.w3.org/2000/svg">
<path d="M331.996 65.0082C317.939 44.439 301.547 40.6226 301.547 40.6226C301.547 40.6226 222.951 97.3056 210.108 107.409C197.273 117.506 170.318 134.26 163.697 137.958C157.071 141.647 136.691 143.707 136.691 143.707C130.455 144.608 124.555 144.67 118.427 146.78C112.059 148.828 106.053 150.435 99.4155 151.376C98.371 151.527 97.3679 151.772 96.388 152.05L96.5468 151.876C96.4268 151.949 96.3207 152.024 96.2089 152.091C93.0608 153.01 90.1333 154.275 86.7091 154.164C82.31 153.922 78.2832 151.542 74.2778 150.213L75.0945 151.227L73.9782 150.413C67.5668 153.766 70.5912 161.011 74.88 164.504C78.8127 167.772 84.3206 169.839 89.3121 171.401C84.3992 176.229 79.6063 181.573 74.2034 185.952C68.7604 190.188 59.3101 194.787 56.3091 200.896L55.8903 201.584C52.1695 206.867 43.6221 216.011 33.2003 225.881C31.0685 227.906 28.7297 230.556 27.5218 233.262C26.1157 236.415 27.0964 239.495 29.735 241.645C33.7537 244.913 37.8589 243.304 41.9475 241.204C52.2957 235.883 61.5225 226.627 69.8679 218.582C76.7216 213.899 85.0843 208.906 91.3708 203.3L91.7325 202.946C90.7525 207.427 90.1509 212.044 89.8431 215.866C89.0816 225.118 90.8985 230.78 101.222 231.444L102.007 231.219C101.726 232.362 101.544 233.508 101.519 234.665C101.621 243.944 111.119 247.387 118.069 243.064L121.335 241.032L121.641 240.754C122.434 246.7 129.296 248.273 134.172 246.644C138.762 244.924 142.821 243.25 146.906 240.712C146.854 240.172 147.68 237.394 147.828 236.737L147.609 236.463C170.912 229.466 188.761 207.936 205.152 191.631C227.268 169.812 256.968 154.752 284.271 139.908C287.527 138.312 343.504 106.06 346.752 104.469C346.727 104.451 346.053 85.5775 331.996 65.0082Z" fill="#F5B191"/>
<path d="M99.8385 166.002C99.8385 166.002 114.54 156.862 134.219 151.635C153.898 146.407 160.096 145.105 172.044 137.682C183.992 130.26 301.419 44.5245 301.419 44.5245C301.419 44.5245 328.808 51.7028 340.582 92.1614C340.582 92.1614 291.068 124.211 252.188 147.746C213.309 171.281 197.835 190.454 181.346 203.887C164.857 217.321 143.095 226.389 131.76 219.419C120.425 212.449 99.9264 177.423 99.8385 166.002Z" fill="url(#paint0_linear_206_354)"/>
<path d="M100.599 177.179C100.599 177.179 98.4776 168.302 96.4481 169.14C94.4186 169.977 86.0963 179.818 78.2132 185.575C70.3218 191.336 62.5898 195.282 59.0976 201.285C55.5995 207.281 42.8777 220.288 37.6346 224.823C32.3834 229.364 25.7649 233.048 29.3061 238.064C32.8472 243.08 41.0844 239.242 49.7763 230.009C58.4821 220.778 60.2068 216.725 68.7064 210.594C77.206 204.462 93.0708 190.356 94.2921 189.589C95.5192 188.83 98.0583 181.308 101.309 179.703L100.599 177.179Z" fill="url(#paint1_linear_206_354)"/>
<path d="M92.2471 225.694C92.2471 225.694 88.3027 200.682 102.695 184.653C102.695 184.653 111.128 198.667 113.336 200.4C113.336 200.4 107.035 211.677 104.528 217.203C102.013 222.734 97.9214 229.812 92.2471 225.694Z" fill="url(#paint2_linear_206_354)"/>
<path d="M103.836 238.87C103.836 238.87 100.636 234.629 105.233 228.37C109.839 222.105 111.656 217.3 113.118 213.274C114.58 209.249 115.431 205.606 117.826 205.822C120.221 206.037 127.038 211.992 127.135 215.33C127.233 218.668 124.978 222.336 122.238 226.581C119.504 230.834 117.522 236.307 114.438 239.08C111.348 241.845 108.289 243.755 103.836 238.87Z" fill="url(#paint3_linear_206_354)"/>
<path d="M126.002 244.92C126.002 244.92 121.015 242.362 123.568 237.367C126.126 232.381 129.303 227.005 130.556 225.382C131.808 223.76 136.159 227.565 136.736 230.318C137.313 233.071 137.066 240.869 134.41 242.517C131.754 244.166 128.956 246.479 126.002 244.92Z" fill="url(#paint4_linear_206_354)"/>
<path d="M93.5958 164.542C93.5958 164.542 72.8182 165.279 72.3661 154.52C72.3661 154.52 73.7233 151.696 75.2489 151.878C76.7745 152.059 83.6504 156.281 88.9484 155.249C94.2464 154.216 100.578 152.55 104.941 151.824C109.305 151.098 119.349 149.95 119.349 149.95C119.349 149.95 116.259 152.715 111.459 154.572C106.667 156.422 95.6918 161.55 93.5958 164.542Z" fill="url(#paint5_linear_206_354)"/>
<path d="M98.5138 186.12C98.5138 186.12 100.794 181.588 104.364 180.505C104.364 180.505 102.884 180.855 100.794 181.588C98.703 182.322 98.5138 186.12 98.5138 186.12ZM91.673 203C92.993 197.788 95.3367 191.496 95.3367 191.496L94.2916 192.996C91.4265 197.048 76.7965 208.122 72.2776 211.777C67.7587 215.432 63.115 218.893 54.601 228.429C46.8155 237.143 35.574 242.57 33.7037 243.441C36.4387 243.808 39.188 242.62 41.9335 241.202C52.2818 235.881 61.5085 226.624 69.854 218.58C76.7077 213.896 85.0703 208.903 91.3568 203.298L91.673 203ZM101.993 231.217C101.891 231.644 101.803 232.074 101.724 232.498C102.473 229.455 103.864 225.468 104.916 223.754C106.319 221.461 110.391 215.255 111.651 211.36C112.912 207.465 115.368 203.666 115.368 203.666C115.368 203.666 112.641 205.647 110.821 208.198C109.009 210.744 105.182 219.631 101.832 224.26C99.1293 227.988 95.4325 229.222 94.0908 229.56C95.813 230.607 98.1285 231.246 101.2 231.448L101.993 231.217ZM259.904 146.961C216.086 171.655 197.186 192.739 183.029 207.768C168.872 222.798 145.554 229.929 141.833 231.683C138.106 233.428 138.533 236.851 137.273 240.746C136.013 244.642 128.792 247.146 128.792 247.146C130.588 247.381 132.484 247.203 134.15 246.648C138.74 244.928 142.799 243.253 146.883 240.715C146.832 240.176 147.658 237.397 147.806 236.741L147.587 236.467C170.89 229.469 188.739 207.94 205.129 191.635C227.246 169.815 256.946 154.756 284.249 139.912C287.505 138.315 343.482 106.063 346.73 104.473C346.73 104.473 346.557 99.6443 344.57 92.2036C337.654 97.2137 299.547 124.625 259.904 146.961ZM129.96 221.221C130.332 218.164 132.422 217.43 132.422 217.43C129.792 218.215 127.65 220.676 126.492 223.383C125.337 226.077 122.114 230.921 117.361 237.843C113.963 242.786 110.509 244.155 108.816 244.533C111.757 245.329 115.138 244.895 118.061 243.07L121.327 241.038L121.506 240.874C121.524 236.229 127.167 227.207 127.167 227.207L129.96 221.221ZM89.312 171.401C89.1475 171.566 88.9829 171.732 88.8208 171.884C91.7791 169.849 94.9794 165.388 94.9794 165.388C76.8617 168.149 70.6431 158.143 70.6431 158.143L70.6091 158.216C71.2845 160.605 72.9541 162.927 74.88 164.504C78.8069 167.764 84.3206 169.839 89.312 171.401Z" fill="#E28A69"/>
<path d="M140.269 236.896C140.269 236.896 149.964 234.269 158.431 230.133C166.898 225.997 169.386 221.343 169.386 221.343C164.892 224.134 147.847 231.332 143.333 232.728C138.822 234.11 140.269 236.896 140.269 236.896ZM136.552 244.59C139.461 243.351 144.818 240.585 144.818 240.585L145.286 238.599L139.52 239.351L136.552 244.59ZM297.724 126.272C286.411 133.588 248.632 157.067 248.632 157.067C253.43 155.224 280.405 139.865 291.127 134.328C301.841 128.797 343.941 104.047 343.941 104.047L342.864 95.9367C342.862 95.9506 309.035 118.971 297.724 126.272ZM91.4721 197.579C91.4721 197.579 86.465 201.825 80.8472 206.454C75.2295 211.083 65.9051 218.853 65.9051 218.853C70.7821 216.672 88.8802 203.435 88.8802 203.435L91.4721 197.579ZM100.981 230.169L102.8 225.351C101.747 226.857 97.9948 229.466 97.9948 229.466L100.981 230.169ZM114.535 242.418L119.867 240.516C119.386 238.834 123.33 232.413 123.33 232.413C123.33 232.413 121.311 235.081 119.161 237.547C117.009 240.028 114.535 242.418 114.535 242.418ZM79.4661 165.961L88.8081 170.067L91.8469 166.762C89.1792 167.009 79.4661 165.961 79.4661 165.961Z" fill="#ED9F7F"/>
<path d="M56.4019 200.94C58.0964 197.779 61.4902 195.252 64.3231 193.196C67.2539 191.071 70.387 189.231 73.3144 187.084C76.8561 184.489 79.982 181.221 83.0283 178.083C86.363 174.642 89.8261 171.331 93.155 167.882C93.2169 167.813 93.1278 167.705 93.0544 167.757C91.6889 168.822 90.4068 169.988 89.1454 171.2C83.3978 169.193 76.8528 167.151 72.8928 162.236C71.5728 160.597 70.6285 158.607 70.4275 156.506C70.1546 153.734 71.8301 151.861 74.0129 150.462C74.0863 150.41 74.017 150.312 73.9401 150.342C69.2991 152.526 69.5721 157.652 71.9438 161.449C75.3969 166.981 82.9099 169.698 88.9377 171.409C86.9749 173.326 85.1012 175.352 83.1826 177.262C79.7072 180.729 76.1693 184.143 72.1372 186.962C66.4079 190.984 59.4352 194.306 56.221 200.823C56.1391 200.967 56.3363 201.072 56.4019 200.94ZM119.978 151.65C120.067 151.586 119.983 151.45 119.887 151.505C115.318 153.946 110.615 156.113 105.951 158.388C101.241 160.683 96.8636 163.049 93.4232 167.067C93.324 167.186 93.4977 167.345 93.6028 167.234C100.908 159.865 111.649 157.452 119.978 151.65ZM31.4543 240.145C32.7937 240.998 33.656 241.956 34.899 240.977C37.2953 239.083 39.8725 236.424 40.1117 233.216C40.3583 229.879 37.3454 228.031 34.4306 229.054C31.9825 229.906 29.8055 231.901 28.1032 233.806C28.0413 233.874 28.0852 233.953 28.1525 233.979C28.0343 236.563 29.2615 238.745 31.4543 240.145ZM28.2107 233.975C28.2328 233.971 28.2491 233.96 28.2596 233.94C29.4482 232.608 30.8793 231.41 32.3549 230.414C33.5472 229.606 34.9239 228.937 36.3853 228.907C38.3733 228.859 39.6386 230.818 39.8665 232.593C40.2444 235.548 37.6227 238.3 35.6069 240.108C34.9548 240.692 34.4404 241.437 33.6291 241.105C30.5581 239.849 28.1075 237.479 28.2107 233.975ZM58.2965 200.725C61.0378 203.661 63.7162 206.629 65.9421 209.978C65.9652 210.011 66.0199 209.985 65.9992 209.938C63.9073 206.518 61.0578 203.585 58.3233 200.694C58.306 200.67 58.2791 200.701 58.2965 200.725ZM66.9293 206.632C66.4527 203.036 63.6346 200.718 60.4663 199.36C60.4466 199.349 60.4419 199.377 60.4558 199.38C63.6326 200.94 66.0352 203.086 66.849 206.64C66.8535 206.698 66.9279 206.682 66.9293 206.632ZM58.9499 205.177C59.1723 206.563 59.4263 207.891 60.2938 209.029C60.2995 209.037 60.3077 209.031 60.3019 209.023C59.4427 207.879 59.1944 206.56 58.9859 205.176C58.9825 205.154 58.9464 205.155 58.9499 205.177ZM74.0231 150.822C74.0394 150.81 74.0221 150.786 74.0058 150.798C71.6774 151.957 70.6902 154.421 73.3563 155.78C75.9574 157.099 79.7441 156.389 81.6463 154.196C81.6919 154.139 81.6177 154.069 81.5664 154.118C79.607 156.058 76.8877 156.734 74.2355 155.966C73.2311 155.672 72.2209 155.077 71.9135 154.02C71.5085 152.652 73.1554 151.535 74.0231 150.822ZM87.3684 154.42C89.6444 154.449 91.899 153.722 94.0441 153.048C94.5364 152.896 95.0205 152.749 95.5081 152.624C95.1555 153.009 94.8574 153.453 94.6265 153.923C94.6184 153.928 94.6323 153.931 94.6405 153.925C94.857 153.539 95.1049 153.179 95.4037 152.857C95.5006 152.752 95.6173 152.657 95.7257 152.568C96.1854 152.438 96.6427 152.323 97.0976 152.221C96.3259 153.086 96.009 154.438 95.5831 155.463C95.5807 155.477 95.5946 155.479 95.6028 155.474C95.87 154.917 96.1372 154.36 96.3847 153.792C96.6404 153.219 96.9841 152.718 97.2908 152.182C97.9551 152.03 98.6253 151.886 99.2931 151.756C99.7321 153.345 99.3636 154.831 98.9054 156.382C98.8972 156.387 98.9111 156.39 98.9193 156.384C99.4238 154.899 99.98 153.28 99.4862 151.718C100.355 151.543 101.228 151.391 102.12 151.249C107.48 150.356 112.696 148.879 117.857 147.221C123.026 145.556 128.23 144.91 133.609 144.285C138.351 143.732 143.112 143.325 147.813 142.556C153.596 141.621 159.753 140.642 164.876 137.65C177.196 130.442 189.22 122.537 200.912 114.34C208.337 109.129 215.412 103.443 222.712 98.0754C242.317 83.6604 262.109 69.4925 281.817 55.2243C288.432 50.4281 295.014 45.569 301.64 40.7892C301.82 40.662 301.642 40.359 301.454 40.492C288.014 50.1847 274.545 59.8366 261.151 69.5945C244.188 81.9425 227.034 94.1433 210.466 107.032C198.638 116.232 185.856 124.258 173.092 132.087C168.742 134.752 164.345 137.817 159.433 139.325C156.118 140.337 152.702 141.017 149.299 141.626C146.361 142.151 143.348 142.827 140.419 143.174C137.535 143.514 134.651 143.853 131.774 144.151C128.714 144.468 125.657 144.808 122.64 145.426C119.266 146.113 116.019 147.359 112.701 148.263C106.289 150.024 99.647 150.734 93.3198 152.753C89.7698 153.883 86.4843 154.262 82.8462 153.26C79.935 152.455 77.1652 151.157 74.2859 150.207C74.2523 150.194 74.2346 150.256 74.2682 150.268C78.6228 151.779 82.6245 154.349 87.3684 154.42ZM101.211 231.636C101.419 231.636 101.462 231.299 101.245 231.269C97.6528 230.713 93.9389 230.072 91.696 226.906C89.7306 224.131 89.8015 220.27 89.9675 217.027C90.3731 209.019 91.732 200.385 94.823 192.95L94.8172 192.942C93.3421 196.205 92.209 199.692 91.3721 203.25C91.3524 203.24 91.3303 203.243 91.3058 203.261C87.0878 206.959 82.4302 210.124 77.7426 213.212C75.5993 214.632 73.4467 216.022 71.3092 217.451C69.1716 218.879 67.4404 220.743 65.5874 222.521C57.7485 230.035 49.3894 237.991 39.2567 242.302C34.6013 244.276 28.9445 243.124 27.2309 237.782C25.5289 232.456 32.0011 227.233 35.3266 224.056C42.0557 217.623 48.7937 211.011 54.5429 203.679C55.057 203.02 55.5455 202.343 56.0144 201.656C56.1208 201.495 55.8518 201.305 55.7396 201.458C50.649 208.337 44.5557 214.491 38.4803 220.499C33.6735 225.252 21.6458 234.067 29.1838 241.386C31.7745 243.901 35.2242 244.031 38.4556 242.918C42.8906 241.394 46.9995 238.545 50.7395 235.797C55.0367 232.643 59.0136 229.053 62.9001 225.406C64.8054 223.615 66.6795 221.797 68.5535 219.979C70.6679 217.93 73.2254 216.437 75.6741 214.824C81.0726 211.27 86.4816 207.695 91.3262 203.393C90.1511 208.429 89.5611 213.651 89.4321 218.693C89.3503 221.778 89.6779 225.407 91.7294 227.887C94.0423 230.685 97.7178 231.635 101.211 231.636ZM121.281 240.972C119.119 242.124 117.222 243.615 114.847 244.329C112.784 244.945 110.564 244.839 108.522 244.239C103.617 242.799 101.274 237.658 101.89 232.871C102.957 224.603 109.634 218.304 111.56 210.297C111.568 210.291 111.554 210.289 111.546 210.295C110.13 215.06 107.294 219.325 104.947 223.658C102.851 227.533 100.875 231.837 101.361 236.346C101.79 240.393 104.634 243.439 108.425 244.639C113.14 246.139 117.609 243.782 121.354 241.092C121.427 241.04 121.36 240.928 121.281 240.972ZM346.677 104.363C339.804 107.774 333.171 111.749 326.471 115.491C315.988 121.348 305.561 127.302 295.139 133.263C285.447 138.818 275.652 144.176 265.883 149.588C246.437 160.386 226.875 171.524 210.186 186.386C199.934 195.511 191.066 206.07 180.881 215.271C175.562 220.08 169.89 224.564 163.814 228.39C157.994 232.06 151.383 235.407 144.689 237.098C144.54 237.13 144.608 237.364 144.751 237.324C145.627 237.108 146.492 236.875 147.348 236.648C147.055 237.861 146.921 239.022 146.746 240.261C146.651 240.941 145.627 241.311 145.076 241.641C143.935 242.314 142.756 242.916 141.557 243.472C137.063 245.588 132.31 247.926 127.296 246.454C124.974 245.77 123.155 244.326 122.266 242.051C121.482 240.045 121.813 238.194 122.579 236.266C123.908 232.935 126.147 230.074 127.456 226.733C127.466 226.713 127.439 226.708 127.43 226.714C125.732 230.527 122.86 233.738 121.66 237.787C120.502 241.671 122.495 245.247 126.119 246.798C130.666 248.736 135.715 246.262 139.839 244.455C141.056 243.924 142.241 243.33 143.425 242.736C144.454 242.216 146.224 241.636 147.008 240.787C147.255 240.513 147.319 239.427 147.506 239.086C147.877 238.381 148.071 237.582 148.266 236.819C148.308 236.654 148.266 236.525 148.174 236.431C151.862 235.374 155.397 234.084 158.892 232.306C163.566 229.926 167.964 226.983 172.113 223.774C180.402 217.363 187.819 209.841 195.117 202.343C202.712 194.536 210.263 186.858 218.785 180.049C227.583 173.007 236.991 166.808 246.64 161.002C260.256 152.803 274.509 145.831 288.368 138.097C297.692 132.888 306.964 127.57 316.219 122.227C322.91 118.369 329.586 114.473 336.266 110.599C339.746 108.575 343.189 106.307 346.801 104.521C346.894 104.479 346.786 104.31 346.677 104.363ZM104.18 180.66C104.21 180.651 104.192 180.59 104.154 180.605C101.593 181.61 99.9523 183.618 98.7212 185.998C98.7131 186.003 98.727 186.006 98.727 186.006C100.016 183.622 101.69 181.799 104.18 180.66ZM113.803 207.495C114.506 204.889 116.222 202.779 118.9 202.095C118.96 202.077 118.93 202 118.872 202.005C116.125 202.504 114.401 204.914 113.747 207.485C113.748 207.521 113.79 207.529 113.803 207.495ZM132.759 217.559C132.819 217.541 132.792 217.45 132.726 217.46C130.989 217.881 129.987 219.511 129.952 221.226C129.95 221.24 129.958 221.235 129.966 221.229C130.135 219.443 131.118 218.219 132.759 217.559Z" fill="#8F4432"/>
<defs>
<linearGradient id="paint0_linear_206_354" x1="182.138" y1="53.7436" x2="223.341" y2="136.433" gradientUnits="userSpaceOnUse">
<stop stop-color="#FBDBC9"/>
<stop offset="1" stop-color="#F5B191"/>
</linearGradient>
<linearGradient id="paint1_linear_206_354" x1="53.5597" y1="193.413" x2="65.9518" y2="206.518" gradientUnits="userSpaceOnUse">
<stop stop-color="#FBDBC9"/>
<stop offset="1" stop-color="#F5B191"/>
</linearGradient>
<linearGradient id="paint2_linear_206_354" x1="83.8878" y1="202.598" x2="100.522" y2="206.131" gradientUnits="userSpaceOnUse">
<stop stop-color="#FBDBC9"/>
<stop offset="1" stop-color="#F5B191"/>
</linearGradient>
<linearGradient id="paint3_linear_206_354" x1="96.5254" y1="215.99" x2="116.179" y2="225.291" gradientUnits="userSpaceOnUse">
<stop stop-color="#FBDBC9"/>
<stop offset="1" stop-color="#F5B191"/>
</linearGradient>
<linearGradient id="paint4_linear_206_354" x1="113.744" y1="228.896" x2="128.849" y2="234.947" gradientUnits="userSpaceOnUse">
<stop stop-color="#FBDBC9"/>
<stop offset="1" stop-color="#F5B191"/>
</linearGradient>
<linearGradient id="paint5_linear_206_354" x1="92.9425" y1="141.546" x2="96.6921" y2="155.778" gradientUnits="userSpaceOnUse">
<stop stop-color="#FBDBC9"/>
<stop offset="1" stop-color="#F5B191"/>
</linearGradient>
</defs>
</svg>
