<svg width="86" height="86" viewBox="0 0 86 86" fill="none" xmlns="http://www.w3.org/2000/svg">
<g clip-path="url(#clip0_63_9890)">
<path d="M52.3823 84.3888C75.2746 79.2062 89.6312 56.4469 84.4485 33.5546C79.2659 10.6622 56.5066 -3.69433 33.6143 1.48831C10.7219 6.67095 -3.63461 29.4302 1.54803 52.3226C6.73067 75.2149 29.4899 89.5715 52.3823 84.3888Z" fill="#C1C0C8"/>
<path d="M49.9089 73.4265C66.7473 69.6089 77.3027 52.8638 73.4851 36.0254C69.6674 19.187 52.9224 8.63158 36.084 12.4492C19.2456 16.2669 8.69015 33.0119 12.5078 49.8503C16.3255 66.6887 33.0705 77.2442 49.9089 73.4265Z" fill="#978DEF"/>
<path d="M48.8302 68.6264C63.0182 65.4067 71.9099 51.295 68.6902 37.1069C65.4706 22.9188 51.3588 14.0271 37.1707 17.2468C22.9826 20.4665 14.091 34.5783 17.3106 48.7663C20.5303 62.9544 34.6421 71.8461 48.8302 68.6264Z" fill="#4F4D6D"/>
<path d="M30.648 47.522C30.088 47.522 29.584 47.426 29.136 47.234C28.688 47.034 28.336 46.754 28.08 46.394C27.824 46.034 27.696 45.614 27.696 45.134H29.16C29.192 45.494 29.332 45.79 29.58 46.022C29.836 46.254 30.192 46.37 30.648 46.37C31.12 46.37 31.488 46.258 31.752 46.034C32.016 45.802 32.148 45.506 32.148 45.146C32.148 44.866 32.064 44.638 31.896 44.462C31.736 44.286 31.532 44.15 31.284 44.054C31.044 43.958 30.708 43.854 30.276 43.742C29.732 43.598 29.288 43.454 28.944 43.31C28.608 43.158 28.32 42.926 28.08 42.614C27.84 42.302 27.72 41.886 27.72 41.366C27.72 40.886 27.84 40.466 28.08 40.106C28.32 39.746 28.656 39.47 29.088 39.278C29.52 39.086 30.02 38.99 30.588 38.99C31.396 38.99 32.056 39.194 32.568 39.602C33.088 40.002 33.376 40.554 33.432 41.258H31.92C31.896 40.954 31.752 40.694 31.488 40.478C31.224 40.262 30.876 40.154 30.444 40.154C30.052 40.154 29.732 40.254 29.484 40.454C29.236 40.654 29.112 40.942 29.112 41.318C29.112 41.574 29.188 41.786 29.34 41.954C29.5 42.114 29.7 42.242 29.94 42.338C30.18 42.434 30.508 42.538 30.924 42.65C31.476 42.802 31.924 42.954 32.268 43.106C32.62 43.258 32.916 43.494 33.156 43.814C33.404 44.126 33.528 44.546 33.528 45.074C33.528 45.498 33.412 45.898 33.18 46.274C32.956 46.65 32.624 46.954 32.184 47.186C31.752 47.41 31.24 47.522 30.648 47.522ZM36.7382 41.942V45.602C36.7382 45.85 36.7942 46.03 36.9062 46.142C37.0262 46.246 37.2262 46.298 37.5062 46.298H38.3462V47.438H37.2662C36.6502 47.438 36.1782 47.294 35.8502 47.006C35.5222 46.718 35.3582 46.25 35.3582 45.602V41.942H34.5782V40.826H35.3582V39.182H36.7382V40.826H38.3462V41.942H36.7382ZM45.667 43.97C45.667 44.218 45.651 44.442 45.619 44.642H40.567C40.607 45.17 40.803 45.594 41.155 45.914C41.507 46.234 41.939 46.394 42.451 46.394C43.187 46.394 43.707 46.086 44.011 45.47H45.487C45.287 46.078 44.923 46.578 44.395 46.97C43.875 47.354 43.227 47.546 42.451 47.546C41.819 47.546 41.251 47.406 40.747 47.126C40.251 46.838 39.859 46.438 39.571 45.926C39.291 45.406 39.151 44.806 39.151 44.126C39.151 43.446 39.287 42.85 39.559 42.338C39.839 41.818 40.227 41.418 40.723 41.138C41.227 40.858 41.803 40.718 42.451 40.718C43.075 40.718 43.631 40.854 44.119 41.126C44.607 41.398 44.987 41.782 45.259 42.278C45.531 42.766 45.667 43.33 45.667 43.97ZM44.239 43.538C44.231 43.034 44.051 42.63 43.699 42.326C43.347 42.022 42.911 41.87 42.391 41.87C41.919 41.87 41.515 42.022 41.179 42.326C40.843 42.622 40.643 43.026 40.579 43.538H44.239ZM48.3813 41.798C48.6133 41.494 48.9293 41.238 49.3293 41.03C49.7293 40.822 50.1813 40.718 50.6853 40.718C51.2613 40.718 51.7853 40.862 52.2573 41.15C52.7373 41.43 53.1133 41.826 53.3853 42.338C53.6573 42.85 53.7933 43.438 53.7933 44.102C53.7933 44.766 53.6573 45.362 53.3853 45.89C53.1133 46.41 52.7373 46.818 52.2573 47.114C51.7853 47.402 51.2613 47.546 50.6853 47.546C50.1813 47.546 49.7333 47.446 49.3413 47.246C48.9493 47.038 48.6293 46.782 48.3813 46.478V50.582H47.0133V40.826H48.3813V41.798ZM52.4013 44.102C52.4013 43.646 52.3053 43.254 52.1133 42.926C51.9293 42.59 51.6813 42.338 51.3693 42.17C51.0653 41.994 50.7373 41.906 50.3853 41.906C50.0413 41.906 49.7133 41.994 49.4013 42.17C49.0973 42.346 48.8493 42.602 48.6573 42.938C48.4733 43.274 48.3813 43.67 48.3813 44.126C48.3813 44.582 48.4733 44.982 48.6573 45.326C48.8493 45.662 49.0973 45.918 49.4013 46.094C49.7133 46.27 50.0413 46.358 50.3853 46.358C50.7373 46.358 51.0653 46.27 51.3693 46.094C51.6813 45.91 51.9293 45.646 52.1133 45.302C52.3053 44.958 52.4013 44.558 52.4013 44.102ZM58.8393 45.578C59.6073 44.914 60.2113 44.37 60.6513 43.946C61.0993 43.514 61.4713 43.066 61.7673 42.602C62.0633 42.138 62.2113 41.674 62.2113 41.21C62.2113 40.73 62.0953 40.354 61.8633 40.082C61.6393 39.81 61.2833 39.674 60.7953 39.674C60.3233 39.674 59.9553 39.826 59.6913 40.13C59.4353 40.426 59.2993 40.826 59.2833 41.33H57.9633C57.9873 40.418 58.2593 39.722 58.7793 39.242C59.3073 38.754 59.9753 38.51 60.7833 38.51C61.6553 38.51 62.3353 38.75 62.8233 39.23C63.3193 39.71 63.5673 40.35 63.5673 41.15C63.5673 41.726 63.4193 42.282 63.1233 42.818C62.8353 43.346 62.4873 43.822 62.0793 44.246C61.6793 44.662 61.1673 45.146 60.5433 45.698L60.0033 46.178H63.8073V47.318H57.9753V46.322L58.8393 45.578Z" fill="white"/>
</g>
<defs>
<clipPath id="clip0_63_9890">
<rect width="85" height="85" fill="white" transform="translate(0.5 0.437988)"/>
</clipPath>
</defs>
</svg>
