<svg width="86" height="86" viewBox="0 0 86 86" fill="none" xmlns="http://www.w3.org/2000/svg">
<g clip-path="url(#clip0_63_9898)">
<path d="M52.3823 84.3888C75.2746 79.2062 89.6312 56.4469 84.4485 33.5546C79.2659 10.6622 56.5066 -3.69433 33.6143 1.48831C10.7219 6.67095 -3.63461 29.4302 1.54803 52.3226C6.73067 75.2149 29.4899 89.5714 52.3823 84.3888Z" fill="#C1C0C8"/>
<path d="M49.9089 73.4265C66.7473 69.6089 77.3027 52.8638 73.4851 36.0254C69.6674 19.187 52.9224 8.63158 36.084 12.4492C19.2456 16.2669 8.69015 33.0119 12.5078 49.8503C16.3255 66.6888 33.0705 77.2442 49.9089 73.4265Z" fill="#978DEF"/>
<path d="M48.8302 68.6264C63.0182 65.4067 71.9099 51.2949 68.6902 37.1069C65.4706 22.9188 51.3588 14.0271 37.1707 17.2468C22.9826 20.4665 14.091 34.5782 17.3106 48.7663C20.5303 62.9544 34.6421 71.8461 48.8302 68.6264Z" fill="#4F4D6D"/>
<path d="M30.648 47.522C30.088 47.522 29.584 47.426 29.136 47.234C28.688 47.034 28.336 46.754 28.08 46.394C27.824 46.034 27.696 45.614 27.696 45.134H29.16C29.192 45.494 29.332 45.79 29.58 46.022C29.836 46.254 30.192 46.37 30.648 46.37C31.12 46.37 31.488 46.258 31.752 46.034C32.016 45.802 32.148 45.506 32.148 45.146C32.148 44.866 32.064 44.638 31.896 44.462C31.736 44.286 31.532 44.15 31.284 44.054C31.044 43.958 30.708 43.854 30.276 43.742C29.732 43.598 29.288 43.454 28.944 43.31C28.608 43.158 28.32 42.926 28.08 42.614C27.84 42.302 27.72 41.886 27.72 41.366C27.72 40.886 27.84 40.466 28.08 40.106C28.32 39.746 28.656 39.47 29.088 39.278C29.52 39.086 30.02 38.99 30.588 38.99C31.396 38.99 32.056 39.194 32.568 39.602C33.088 40.002 33.376 40.554 33.432 41.258H31.92C31.896 40.954 31.752 40.694 31.488 40.478C31.224 40.262 30.876 40.154 30.444 40.154C30.052 40.154 29.732 40.254 29.484 40.454C29.236 40.654 29.112 40.942 29.112 41.318C29.112 41.574 29.188 41.786 29.34 41.954C29.5 42.114 29.7 42.242 29.94 42.338C30.18 42.434 30.508 42.538 30.924 42.65C31.476 42.802 31.924 42.954 32.268 43.106C32.62 43.258 32.916 43.494 33.156 43.814C33.404 44.126 33.528 44.546 33.528 45.074C33.528 45.498 33.412 45.898 33.18 46.274C32.956 46.65 32.624 46.954 32.184 47.186C31.752 47.41 31.24 47.522 30.648 47.522ZM36.7382 41.942V45.602C36.7382 45.85 36.7942 46.03 36.9062 46.142C37.0262 46.246 37.2262 46.298 37.5062 46.298H38.3462V47.438H37.2662C36.6502 47.438 36.1782 47.294 35.8502 47.006C35.5222 46.718 35.3582 46.25 35.3582 45.602V41.942H34.5782V40.826H35.3582V39.182H36.7382V40.826H38.3462V41.942H36.7382ZM45.667 43.97C45.667 44.218 45.651 44.442 45.619 44.642H40.567C40.607 45.17 40.803 45.594 41.155 45.914C41.507 46.234 41.939 46.394 42.451 46.394C43.187 46.394 43.707 46.086 44.011 45.47H45.487C45.287 46.078 44.923 46.578 44.395 46.97C43.875 47.354 43.227 47.546 42.451 47.546C41.819 47.546 41.251 47.406 40.747 47.126C40.251 46.838 39.859 46.438 39.571 45.926C39.291 45.406 39.151 44.806 39.151 44.126C39.151 43.446 39.287 42.85 39.559 42.338C39.839 41.818 40.227 41.418 40.723 41.138C41.227 40.858 41.803 40.718 42.451 40.718C43.075 40.718 43.631 40.854 44.119 41.126C44.607 41.398 44.987 41.782 45.259 42.278C45.531 42.766 45.667 43.33 45.667 43.97ZM44.239 43.538C44.231 43.034 44.051 42.63 43.699 42.326C43.347 42.022 42.911 41.87 42.391 41.87C41.919 41.87 41.515 42.022 41.179 42.326C40.843 42.622 40.643 43.026 40.579 43.538H44.239ZM48.3813 41.798C48.6133 41.494 48.9293 41.238 49.3293 41.03C49.7293 40.822 50.1813 40.718 50.6853 40.718C51.2613 40.718 51.7853 40.862 52.2573 41.15C52.7373 41.43 53.1133 41.826 53.3853 42.338C53.6573 42.85 53.7933 43.438 53.7933 44.102C53.7933 44.766 53.6573 45.362 53.3853 45.89C53.1133 46.41 52.7373 46.818 52.2573 47.114C51.7853 47.402 51.2613 47.546 50.6853 47.546C50.1813 47.546 49.7333 47.446 49.3413 47.246C48.9493 47.038 48.6293 46.782 48.3813 46.478V50.582H47.0133V40.826H48.3813V41.798ZM52.4013 44.102C52.4013 43.646 52.3053 43.254 52.1133 42.926C51.9293 42.59 51.6813 42.338 51.3693 42.17C51.0653 41.994 50.7373 41.906 50.3853 41.906C50.0413 41.906 49.7133 41.994 49.4013 42.17C49.0973 42.346 48.8493 42.602 48.6573 42.938C48.4733 43.274 48.3813 43.67 48.3813 44.126C48.3813 44.582 48.4733 44.982 48.6573 45.326C48.8493 45.662 49.0973 45.918 49.4013 46.094C49.7133 46.27 50.0413 46.358 50.3853 46.358C50.7373 46.358 51.0653 46.27 51.3693 46.094C51.6813 45.91 51.9293 45.646 52.1133 45.302C52.3053 44.958 52.4013 44.558 52.4013 44.102ZM58.0593 40.85C58.1073 40.106 58.3913 39.526 58.9113 39.11C59.4393 38.694 60.1113 38.486 60.9273 38.486C61.4873 38.486 61.9713 38.586 62.3793 38.786C62.7873 38.986 63.0953 39.258 63.3033 39.602C63.5113 39.946 63.6153 40.334 63.6153 40.766C63.6153 41.262 63.4833 41.686 63.2193 42.038C62.9553 42.39 62.6393 42.626 62.2713 42.746V42.794C62.7433 42.938 63.1113 43.202 63.3753 43.586C63.6393 43.962 63.7713 44.446 63.7713 45.038C63.7713 45.51 63.6633 45.93 63.4473 46.298C63.2313 46.666 62.9113 46.958 62.4873 47.174C62.0633 47.382 61.5553 47.486 60.9633 47.486C60.0993 47.486 59.3873 47.266 58.8273 46.826C58.2753 46.378 57.9793 45.738 57.9393 44.906H59.2593C59.2913 45.33 59.4553 45.678 59.7513 45.95C60.0473 46.214 60.4473 46.346 60.9513 46.346C61.4393 46.346 61.8153 46.214 62.0793 45.95C62.3433 45.678 62.4753 45.33 62.4753 44.906C62.4753 44.346 62.2953 43.95 61.9353 43.718C61.5833 43.478 61.0393 43.358 60.3033 43.358H59.9913V42.23H60.3153C60.9633 42.222 61.4553 42.114 61.7913 41.906C62.1353 41.698 62.3073 41.37 62.3073 40.922C62.3073 40.538 62.1833 40.234 61.9353 40.01C61.6873 39.778 61.3353 39.662 60.8793 39.662C60.4313 39.662 60.0833 39.778 59.8353 40.01C59.5873 40.234 59.4393 40.514 59.3913 40.85H58.0593Z" fill="white"/>
</g>
<defs>
<clipPath id="clip0_63_9898">
<rect width="85" height="85" fill="white" transform="translate(0.5 0.437988)"/>
</clipPath>
</defs>
</svg>
