<svg width="262" height="327" viewBox="0 0 262 327" fill="none" xmlns="http://www.w3.org/2000/svg">
<path d="M262 13.5541V313.322C262 320.556 256.11 326.438 248.866 326.438H13.1343C5.89042 326.438 0 320.556 0 313.322V13.5541C0 6.32027 5.89042 0.437988 13.1343 0.437988H248.866C256.129 0.437988 262 6.32027 262 13.5541Z" fill="#D9DFE6"/>
<path d="M245.091 18.6178C247.765 18.6178 249.933 16.453 249.933 13.7826C249.933 11.1121 247.765 8.9473 245.091 8.9473C242.417 8.9473 240.249 11.1121 240.249 13.7826C240.249 16.453 242.417 18.6178 245.091 18.6178Z" fill="#34909D"/>
<path d="M231.614 18.6178C234.288 18.6178 236.456 16.453 236.456 13.7826C236.456 11.1121 234.288 8.9473 231.614 8.9473C228.94 8.9473 226.772 11.1121 226.772 13.7826C226.772 16.453 228.94 18.6178 231.614 18.6178Z" fill="#F8B85E"/>
<path d="M213.294 13.7826C213.294 16.4477 215.468 18.6178 218.136 18.6178C220.805 18.6178 222.978 16.4477 222.978 13.7826C222.978 11.1175 220.805 8.9473 218.136 8.9473C215.468 8.9473 213.294 11.1175 213.294 13.7826Z" fill="#BA0034"/>
<path d="M262 172.985H0V253.661H262V172.985Z" fill="#C8D0D9"/>
<path d="M248.103 27.4127H221.205V33.1808H248.103V27.4127Z" fill="#B3BDC7"/>
<path d="M215.735 27.4127H188.837V33.1808H215.735V27.4127Z" fill="#B3BDC7"/>
<path d="M183.366 27.4127H156.468V33.1808H183.366V27.4127Z" fill="#B3BDC7"/>
<path d="M150.997 27.4127H124.099V33.1808H150.997V27.4127Z" fill="#B3BDC7"/>
<path d="M26.5927 42.7561C33.8255 42.7561 39.6889 36.9009 39.6889 29.678C39.6889 22.4552 33.8255 16.6 26.5927 16.6C19.3599 16.6 13.4965 22.4552 13.4965 29.678C13.4965 36.9009 19.3599 42.7561 26.5927 42.7561Z" fill="#B3BDC7"/>
<path d="M242.861 130.096H19.1391C16.3941 130.096 14.1637 127.868 14.1637 125.127V56.1388C14.1637 53.3975 16.3941 51.1702 19.1391 51.1702H242.861C245.606 51.1702 247.836 53.3975 247.836 56.1388V125.127C247.855 127.868 245.625 130.096 242.861 130.096Z" fill="white"/>
<path d="M227.896 81.5523V103.882L239.085 92.7076L227.896 81.5523Z" fill="#B3BDC7"/>
<path d="M22.913 92.7076L34.1029 103.882V81.5523L22.913 92.7076Z" fill="#B3BDC7"/>
<path d="M247.855 136.549H75.3174V140.661H247.855V136.549Z" fill="white"/>
<path d="M247.855 144.83H75.3174V148.942H247.855V144.83Z" fill="white"/>
<path d="M192.268 153.13H75.3174V157.242H192.268V153.13Z" fill="white"/>
<path d="M65.3853 136.549H13.7631V140.661H65.3853V136.549Z" fill="white"/>
<path d="M65.3853 144.982H13.7631V149.094H65.3853V144.982Z" fill="white"/>
<path d="M65.3853 153.434H13.7631V157.546H65.3853V153.434Z" fill="white"/>
<path d="M46.2081 161.887H13.7631V165.999H46.2081V161.887Z" fill="white"/>
<path d="M127.435 262.951H13.7631V267.063H127.435V262.951Z" fill="white"/>
<path d="M127.435 271.404H13.7631V275.515H127.435V271.404Z" fill="white"/>
<path d="M127.435 279.856H13.7631V283.968H127.435V279.856Z" fill="white"/>
<path d="M85.2107 288.308H13.7631V292.42H85.2107V288.308Z" fill="white"/>
<path d="M248.541 262.951H134.869V267.063H248.541V262.951Z" fill="white"/>
<path d="M247.035 271.404H134.869V275.515H247.035V271.404Z" fill="white"/>
<path d="M191.734 279.856H134.869V283.968H191.734V279.856Z" fill="white"/>
<path d="M62.2787 245.209H16.9091C15.079 245.209 13.5921 243.724 13.5921 241.897V183.169C13.5921 181.342 15.079 179.857 16.9091 179.857H62.2787C64.1087 179.857 65.5956 181.342 65.5956 183.169V241.878C65.5956 243.724 64.1087 245.209 62.2787 245.209Z" fill="white"/>
<path d="M123.108 245.209H77.7384C75.9083 245.209 74.4214 243.724 74.4214 241.897V183.169C74.4214 181.342 75.9083 179.857 77.7384 179.857H123.108C124.938 179.857 126.425 181.342 126.425 183.169V241.878C126.425 243.724 124.938 245.209 123.108 245.209Z" fill="white"/>
<path d="M183.937 245.209H138.567C136.737 245.209 135.251 243.724 135.251 241.897V183.169C135.251 181.342 136.737 179.857 138.567 179.857H183.937C185.767 179.857 187.254 181.342 187.254 183.169V241.878C187.254 243.724 185.767 245.209 183.937 245.209Z" fill="white"/>
<path d="M244.767 245.209H199.398C197.568 245.209 196.081 243.724 196.081 241.897V183.169C196.081 181.342 197.568 179.857 199.398 179.857H244.767C246.597 179.857 248.084 181.342 248.084 183.169V241.878C248.084 243.724 246.597 245.209 244.767 245.209Z" fill="white"/>
<path d="M60.0099 228.933H28.6705V232.988H60.0099V228.933Z" fill="#D9DFE6"/>
<path d="M49.8494 235.881H28.6705V239.936H49.8494V235.881Z" fill="#D9DFE6"/>
<path d="M120.229 228.933H88.8901V232.988H120.229V228.933Z" fill="#D9DFE6"/>
<path d="M110.069 235.881H88.8901V239.936H110.069V235.881Z" fill="#D9DFE6"/>
<path d="M180.449 228.933H149.109V232.988H180.449V228.933Z" fill="#D9DFE6"/>
<path d="M170.288 235.881H149.109V239.936H170.288V235.881Z" fill="#D9DFE6"/>
<path d="M240.668 228.933H209.329V232.988H240.668V228.933Z" fill="#D9DFE6"/>
<path d="M230.508 235.881H209.329V239.936H230.508V235.881Z" fill="#D9DFE6"/>
<path d="M262 301.348V313.341C262 320.575 256.11 326.457 248.866 326.457H13.1343C5.89042 326.457 0 320.575 0 313.341V301.348H262Z" fill="#C8D0D9"/>
<path d="M171.909 306.888H90.854V311.304H171.909V306.888Z" fill="#B3BDC7"/>
<path d="M150.406 315.226H112.338V319.642H150.406V315.226Z" fill="#B3BDC7"/>
</svg>
