<svg width="500" height="500" viewBox="0 0 500 500" fill="none" xmlns="http://www.w3.org/2000/svg">
<g clip-path="url(#clip0_136_3999)">
<path d="M332.846 220.04H265.294V399.904H332.846V220.04Z" stroke="black" stroke-miterlimit="10"/>
<path d="M308.49 202.049H289.65V208.487H308.49V202.049Z" stroke="black" stroke-miterlimit="10"/>
<path d="M332.846 220.04H265.294V399.904H332.846V220.04Z" stroke="black" stroke-miterlimit="10"/>
<path d="M285.969 224.214H271.357V268.244H285.969V224.214Z" stroke="black" stroke-miterlimit="10"/>
<path d="M306.376 224.214H291.764V268.244H306.376V224.214Z" stroke="black" stroke-miterlimit="10"/>
<path d="M326.783 224.214H312.171V268.244H326.783V224.214Z" stroke="black" stroke-miterlimit="10"/>
<path d="M332.846 268.245H265.294V273.695H332.846V268.245Z" stroke="black" stroke-miterlimit="10"/>
<path d="M332.846 220.04H265.294V224.214H332.846V220.04Z" stroke="black" stroke-miterlimit="10"/>
<path d="M285.969 273.694H271.357V317.724H285.969V273.694Z" stroke="black" stroke-miterlimit="10"/>
<path d="M306.376 273.694H291.764V317.724H306.376V273.694Z" stroke="black" stroke-miterlimit="10"/>
<path d="M326.783 273.694H312.171V317.724H326.783V273.694Z" stroke="black" stroke-miterlimit="10"/>
<path d="M332.846 317.724H265.294V323.174H332.846V317.724Z" stroke="black" stroke-miterlimit="10"/>
<path d="M285.969 323.174H271.357V367.204H285.969V323.174Z" stroke="black" stroke-miterlimit="10"/>
<path d="M306.376 323.174H291.764V367.204H306.376V323.174Z" stroke="black" stroke-miterlimit="10"/>
<path d="M326.783 323.174H312.171V367.204H326.783V323.174Z" stroke="black" stroke-miterlimit="10"/>
<path d="M332.846 367.204H265.294V399.904H332.846V367.204Z" stroke="black" stroke-miterlimit="10"/>
<path d="M334.821 208.487H263.319V220.04H334.821V208.487Z" stroke="black" stroke-miterlimit="10"/>
<path d="M419.215 273.459H345.052V397.835H419.215V273.459Z" stroke="black" stroke-miterlimit="10"/>
<path d="M389.818 285.78H349.917V295.608H389.818V285.78Z" stroke="black" stroke-miterlimit="10"/>
<path d="M412.342 299.697H372.441V309.525H412.342V299.697Z" stroke="black" stroke-miterlimit="10"/>
<path d="M389.818 341.45H349.917V351.278H389.818V341.45Z" stroke="black" stroke-miterlimit="10"/>
<path d="M409.769 355.368H369.867V365.196H409.769V355.368Z" stroke="black" stroke-miterlimit="10"/>
<path d="M374.45 313.615H349.917V323.443H374.45V313.615Z" stroke="black" stroke-miterlimit="10"/>
<path d="M404.081 313.615H379.548V323.443H404.081V313.615Z" stroke="black" stroke-miterlimit="10"/>
<path d="M404.081 369.285H379.548V379.113H404.081V369.285Z" stroke="black" stroke-miterlimit="10"/>
<path d="M413.471 327.532H388.938V337.36H413.471V327.532Z" stroke="black" stroke-miterlimit="10"/>
<path d="M385.403 327.532H349.917V337.36H385.403V327.532Z" stroke="black" stroke-miterlimit="10"/>
<path d="M419.215 273.459H345.052V278.513H419.215V273.459Z" stroke="black" stroke-miterlimit="10"/>
<path d="M369.867 254.662H345.052V262.329H369.867V254.662Z" stroke="black" stroke-miterlimit="10"/>
<path d="M423.64 262.329H340.628V273.459H423.64V262.329Z" stroke="black" stroke-miterlimit="10"/>
<path d="M182.986 228.188H79.853V401.148H182.986V228.188Z" stroke="black" stroke-miterlimit="10"/>
<path d="M142.105 245.322H86.6172V258.989H142.105V245.322Z" stroke="black" stroke-miterlimit="10"/>
<path d="M173.429 264.676H117.941V278.343H173.429V264.676Z" stroke="black" stroke-miterlimit="10"/>
<path d="M142.105 322.739H86.6172V336.406H142.105V322.739Z" stroke="black" stroke-miterlimit="10"/>
<path d="M169.849 342.093H114.361V355.76H169.849V342.093Z" stroke="black" stroke-miterlimit="10"/>
<path d="M120.734 284.03H86.6172V297.697H120.734V284.03Z" stroke="black" stroke-miterlimit="10"/>
<path d="M161.94 284.03H127.823V297.697H161.94V284.03Z" stroke="black" stroke-miterlimit="10"/>
<path d="M161.94 361.448H127.823V375.115H161.94V361.448Z" stroke="black" stroke-miterlimit="10"/>
<path d="M174.998 303.385H140.881V317.052H174.998V303.385Z" stroke="black" stroke-miterlimit="10"/>
<path d="M135.964 303.385H86.6172V317.052H135.964V303.385Z" stroke="black" stroke-miterlimit="10"/>
<path d="M182.986 228.188H79.853V235.216H182.986V228.188Z" stroke="black" stroke-miterlimit="10"/>
<path d="M114.362 202.049H79.853V212.711H114.362V202.049Z" stroke="black" stroke-miterlimit="10"/>
<path d="M189.139 212.71H73.7002V228.188H189.139V212.71Z" stroke="black" stroke-miterlimit="10"/>
<path d="M256.641 163.948H193.749V401.149H256.641V163.948Z" stroke="black" stroke-miterlimit="10"/>
<path d="M214.524 173.774H200.443V215.69H214.524V173.774Z" stroke="black" stroke-miterlimit="10"/>
<path d="M231.958 173.774H217.877V215.69H231.958V173.774Z" stroke="black" stroke-miterlimit="10"/>
<path d="M249.947 173.774H235.866V215.69H249.947V173.774Z" stroke="black" stroke-miterlimit="10"/>
<path d="M214.524 219.482H200.443V261.398H214.524V219.482Z" stroke="black" stroke-miterlimit="10"/>
<path d="M231.958 219.482H217.877V261.398H231.958V219.482Z" stroke="black" stroke-miterlimit="10"/>
<path d="M249.947 219.482H235.866V261.398H249.947V219.482Z" stroke="black" stroke-miterlimit="10"/>
<path d="M214.524 263.857H200.443V305.773H214.524V263.857Z" stroke="black" stroke-miterlimit="10"/>
<path d="M231.958 263.857H217.877V305.773H231.958V263.857Z" stroke="black" stroke-miterlimit="10"/>
<path d="M249.947 263.857H235.866V305.773H249.947V263.857Z" stroke="black" stroke-miterlimit="10"/>
<path d="M214.524 310.396H200.443V352.312H214.524V310.396Z" stroke="black" stroke-miterlimit="10"/>
<path d="M231.958 310.396H217.877V352.312H231.958V310.396Z" stroke="black" stroke-miterlimit="10"/>
<path d="M249.947 310.396H235.866V352.312H249.947V310.396Z" stroke="black" stroke-miterlimit="10"/>
<path d="M214.524 354.995H200.443V396.911H214.524V354.995Z" stroke="black" stroke-miterlimit="10"/>
<path d="M231.958 354.995H217.877V396.911H231.958V354.995Z" stroke="black" stroke-miterlimit="10"/>
<path d="M249.947 354.995H235.866V396.911H249.947V354.995Z" stroke="black" stroke-miterlimit="10"/>
<path d="M256.688 163.948H193.749V170.134H256.688V163.948Z" stroke="black" stroke-miterlimit="10"/>
<path d="M262.286 147.998H188.104V163.948H262.286V147.998Z" stroke="black" stroke-miterlimit="10"/>
<path d="M215.994 147.998L207.255 137.668H193.749V147.998H215.994Z" stroke="black" stroke-miterlimit="10"/>
<path d="M250 421.889C377.716 421.889 481.25 414.427 481.25 405.222C481.25 396.017 377.716 388.555 250 388.555C122.284 388.555 18.75 396.017 18.75 405.222C18.75 414.427 122.284 421.889 250 421.889Z" fill="black"/>
<path d="M428.865 216.654C428.487 210.995 424.732 206.273 419.59 204.478C419.593 204.344 419.61 204.214 419.61 204.079C419.61 192.555 410.268 183.212 398.743 183.212C388.992 183.212 380.827 189.91 378.538 198.949C369.814 199.256 362.831 206.406 362.831 215.204C362.831 215.671 362.862 216.13 362.901 216.587H362.726C355.651 216.587 349.916 222.322 349.916 229.397C349.916 236.472 355.651 242.207 362.726 242.207H427.56C434.635 242.207 440.37 236.472 440.37 229.397C440.371 222.764 435.327 217.308 428.865 216.654Z" stroke="black" stroke-miterlimit="10"/>
<path d="M101.374 142.498C101.146 139.077 98.8759 136.223 95.7679 135.137C95.7689 135.056 95.7799 134.977 95.7799 134.896C95.7799 127.93 90.1329 122.282 83.1659 122.282C77.2719 122.282 72.3359 126.331 70.9519 131.795C65.6789 131.981 61.4569 136.303 61.4569 141.621C61.4569 141.903 61.4759 142.181 61.4989 142.457H61.3929C57.1159 142.457 53.6489 145.924 53.6489 150.201C53.6489 154.478 57.1159 157.944 61.3929 157.944H100.585C104.862 157.944 108.329 154.477 108.329 150.201C108.33 146.191 105.281 142.893 101.374 142.498Z" stroke="black" stroke-miterlimit="10"/>
<path d="M340.893 170.637C340.672 167.32 338.47 164.552 335.456 163.499C335.457 163.42 335.468 163.344 335.468 163.265C335.468 156.509 329.991 151.033 323.236 151.033C317.52 151.033 312.733 154.96 311.391 160.259C306.277 160.439 302.183 164.63 302.183 169.788C302.183 170.062 302.201 170.331 302.224 170.599H302.121C297.974 170.599 294.612 173.961 294.612 178.108C294.612 182.255 297.974 185.618 302.121 185.618H340.128C344.275 185.618 347.637 182.256 347.637 178.108C347.638 174.218 344.681 171.02 340.893 170.637Z" stroke="black" stroke-miterlimit="10"/>
<path d="M202.406 98.342C202.041 92.879 198.416 88.32 193.452 86.586C193.455 86.457 193.471 86.331 193.471 86.201C193.471 75.075 184.451 66.055 173.325 66.055C163.911 66.055 156.028 72.522 153.818 81.249C145.396 81.545 138.654 88.448 138.654 96.943C138.654 97.394 138.684 97.837 138.722 98.278H138.553C131.723 98.278 126.185 103.815 126.185 110.645C126.185 117.475 131.722 123.012 138.553 123.012H201.148C207.978 123.012 213.515 117.475 213.515 110.645C213.514 104.241 208.645 98.973 202.406 98.342Z" stroke="black" stroke-miterlimit="10"/>
<path d="M171.067 303.626C171.067 300.786 171.635 298.256 172.772 296.038C173.935 293.819 175.585 292.101 177.723 290.884C179.86 289.639 182.376 289.017 185.271 289.017C187.76 289.017 189.978 289.49 191.926 290.437C193.901 291.357 195.497 292.669 196.715 294.374C197.959 296.078 198.785 298.067 199.19 300.339H189.694C189.261 299.392 188.639 298.662 187.827 298.148C187.043 297.607 186.137 297.336 185.108 297.336C183.593 297.336 182.389 297.904 181.497 299.041C180.631 300.177 180.198 301.706 180.198 303.626C180.198 305.547 180.631 307.076 181.497 308.212C182.389 309.349 183.593 309.917 185.108 309.917C186.137 309.917 187.043 309.66 187.827 309.146C188.639 308.605 189.261 307.861 189.694 306.914H199.19C198.785 309.186 197.959 311.175 196.715 312.879C195.497 314.584 193.901 315.909 191.926 316.856C189.978 317.776 187.76 318.236 185.271 318.236C182.376 318.236 179.86 317.627 177.723 316.41C175.585 315.165 173.935 313.434 172.772 311.215C171.635 308.997 171.067 306.467 171.067 303.626ZM216.435 318.317C213.73 318.317 211.24 317.681 208.968 316.41C206.722 315.138 204.937 313.38 203.611 311.134C202.285 308.889 201.623 306.359 201.623 303.545C201.623 300.732 202.285 298.202 203.611 295.956C204.937 293.711 206.722 291.966 208.968 290.721C211.24 289.45 213.73 288.814 216.435 288.814C219.14 288.814 221.616 289.45 223.862 290.721C226.107 291.966 227.879 293.711 229.178 295.956C230.503 298.202 231.166 300.732 231.166 303.545C231.166 306.359 230.503 308.889 229.178 311.134C227.879 313.38 226.094 315.138 223.821 316.41C221.575 317.681 219.113 318.317 216.435 318.317ZM216.435 309.917C218.221 309.917 219.6 309.349 220.574 308.212C221.548 307.049 222.035 305.493 222.035 303.545C222.035 301.57 221.548 300.015 220.574 298.878C219.6 297.715 218.221 297.133 216.435 297.133C214.622 297.133 213.229 297.715 212.255 298.878C211.281 300.015 210.794 301.57 210.794 303.545C210.794 305.493 211.281 307.049 212.255 308.212C213.229 309.349 214.622 309.917 216.435 309.917ZM261.972 318.033H252.962L243.426 303.586V318.033H234.416V289.301H243.426L252.962 303.992V289.301H261.972V318.033ZM288.606 289.301V296.443H280.976V318.033H271.967V296.443H264.419V289.301H288.606ZM309.473 313.691H299.896L298.476 318.033H289.02L299.531 289.301H309.92L320.39 318.033H310.894L309.473 313.691ZM307.282 306.914L304.685 298.919L302.087 306.914H307.282ZM321.625 303.626C321.625 300.786 322.193 298.256 323.33 296.038C324.493 293.819 326.143 292.101 328.281 290.884C330.418 289.639 332.934 289.017 335.829 289.017C338.318 289.017 340.536 289.49 342.484 290.437C344.459 291.357 346.055 292.669 347.273 294.374C348.517 296.078 349.343 298.067 349.748 300.339H340.252C339.819 299.392 339.197 298.662 338.385 298.148C337.601 297.607 336.695 297.336 335.666 297.336C334.151 297.336 332.947 297.904 332.055 299.041C331.189 300.177 330.756 301.706 330.756 303.626C330.756 305.547 331.189 307.076 332.055 308.212C332.947 309.349 334.151 309.917 335.666 309.917C336.695 309.917 337.601 309.66 338.385 309.146C339.197 308.605 339.819 307.861 340.252 306.914H349.748C349.343 309.186 348.517 311.175 347.273 312.879C346.055 314.584 344.459 315.909 342.484 316.856C340.536 317.776 338.318 318.236 335.829 318.236C332.934 318.236 330.418 317.627 328.281 316.41C326.143 315.165 324.493 313.434 323.33 311.215C322.193 308.997 321.625 306.467 321.625 303.626ZM375.556 289.301V296.443H367.926V318.033H358.917V296.443H351.369V289.301H375.556ZM393.701 289.301V305.493C393.701 306.819 393.985 307.874 394.554 308.659C395.149 309.416 396.096 309.795 397.394 309.795C398.693 309.795 399.653 309.416 400.276 308.659C400.898 307.874 401.209 306.819 401.209 305.493V289.301H410.178V305.493C410.178 308.226 409.61 310.566 408.473 312.514C407.337 314.435 405.781 315.882 403.806 316.856C401.831 317.83 399.626 318.317 397.191 318.317C394.757 318.317 392.592 317.83 390.698 316.856C388.832 315.882 387.371 314.435 386.315 312.514C385.26 310.593 384.733 308.253 384.733 305.493V289.301H393.701ZM425.305 318.317C421.869 318.317 419.028 317.519 416.782 315.923C414.564 314.3 413.36 311.932 413.171 308.821H422.748C422.883 310.471 423.614 311.296 424.94 311.296C425.426 311.296 425.832 311.188 426.157 310.972C426.509 310.728 426.685 310.363 426.685 309.876C426.685 309.2 426.319 308.659 425.589 308.253C424.858 307.82 423.722 307.333 422.18 306.792C420.34 306.143 418.812 305.507 417.594 304.885C416.404 304.262 415.376 303.356 414.51 302.166C413.644 300.975 413.225 299.447 413.252 297.58C413.252 295.713 413.725 294.13 414.672 292.832C415.646 291.506 416.958 290.505 418.609 289.829C420.286 289.152 422.166 288.814 424.25 288.814C427.767 288.814 430.553 289.626 432.61 291.249C434.693 292.872 435.788 295.158 435.897 298.107H426.198C426.17 297.296 425.968 296.714 425.589 296.362C425.21 296.011 424.75 295.835 424.209 295.835C423.83 295.835 423.519 295.97 423.276 296.241C423.032 296.484 422.91 296.836 422.91 297.296C422.91 297.945 423.262 298.486 423.966 298.919C424.696 299.325 425.846 299.825 427.415 300.42C429.228 301.097 430.716 301.746 431.879 302.368C433.069 302.991 434.098 303.856 434.963 304.966C435.829 306.075 436.262 307.468 436.262 309.146C436.262 310.904 435.829 312.487 434.963 313.894C434.098 315.274 432.839 316.356 431.189 317.14C429.539 317.925 427.577 318.317 425.305 318.317ZM451.561 287.394L450.506 306.63H442.796L441.74 287.394H451.561ZM446.651 318.358C445.082 318.358 443.824 317.938 442.877 317.1C441.93 316.261 441.456 315.206 441.456 313.934C441.456 312.636 441.93 311.567 442.877 310.728C443.824 309.863 445.082 309.43 446.651 309.43C448.193 309.43 449.438 309.863 450.384 310.728C451.331 311.567 451.805 312.636 451.805 313.934C451.805 315.206 451.331 316.261 450.384 317.1C449.438 317.938 448.193 318.358 446.651 318.358Z" fill="#7C3AED"/>
<path d="M250.373 153.633C267.691 149.483 278.366 132.081 274.217 114.762C270.068 97.4442 252.665 86.7687 235.347 90.9179C218.029 95.0672 207.353 112.47 211.503 129.788C215.652 147.106 233.055 157.782 250.373 153.633Z" fill="#978DEF"/>
<path d="M249.105 128.259C245.822 131.719 240.349 131.825 236.889 128.542C235.159 126.918 234.206 124.623 234.206 122.257C234.206 117.491 238.09 113.607 242.856 113.607C247.622 113.607 251.506 117.491 251.506 122.257V124.834C251.506 126.282 252.671 127.411 254.083 127.411C255.53 127.411 256.66 126.246 256.66 124.834V122.257C256.66 114.631 250.446 108.417 242.82 108.417C235.194 108.417 228.98 114.631 228.98 122.257C228.98 129.883 235.194 136.097 242.82 136.097C244.621 136.097 246.421 135.744 248.116 135.038C248.963 134.614 250.022 134.932 250.446 135.815C250.87 136.698 250.552 137.722 249.669 138.145C249.598 138.18 249.528 138.216 249.422 138.251C240.595 141.923 230.463 137.721 226.826 128.895C223.189 120.069 227.356 109.936 236.182 106.299C245.009 102.662 255.141 106.829 258.778 115.655C259.731 117.738 260.19 119.998 260.19 122.257V124.834C260.19 128.188 257.507 130.907 254.153 130.907C252.142 130.943 250.235 129.919 249.105 128.259ZM242.891 127.447C245.751 127.447 248.081 125.117 248.081 122.257C248.081 119.397 245.751 117.067 242.891 117.067C240.031 117.067 237.701 119.397 237.701 122.257C237.701 125.117 240.032 127.447 242.891 127.447Z" fill="white"/>
<path d="M351.761 145.083C364.353 132.491 364.353 112.076 351.762 99.4838C339.17 86.8919 318.754 86.8919 306.162 99.4838C293.57 112.076 293.57 132.491 306.162 145.083C318.754 157.675 339.17 157.675 351.761 145.083Z" fill="#978DEF"/>
<path d="M343.715 133.271C341.453 132.61 334.918 129.403 334.172 130.068C333.426 130.732 330.257 133.555 330.257 133.555C328.162 133.082 324.527 130.128 322.619 127.985C320.711 125.844 318.195 121.894 317.965 119.757C317.965 119.757 321.136 116.933 321.881 116.268C322.627 115.604 320.193 108.744 319.797 106.421C319.401 104.099 315.668 104.414 314.052 104.851C312.434 105.288 305.513 117.139 318.468 131.683C331.426 146.226 343.994 140.713 344.616 139.157C345.232 137.603 345.976 133.931 343.715 133.271Z" fill="white"/>
<path d="M419.972 153.626C437.291 149.477 447.966 132.074 443.817 114.756C439.668 97.4381 422.265 86.7626 404.947 90.9118C387.629 95.0611 376.953 112.464 381.102 129.782C385.251 147.1 402.654 157.776 419.972 153.626Z" fill="#978DEF"/>
<path d="M412.539 100.411C404.104 100.411 397.285 107.23 397.285 115.665C397.285 123.92 404.104 135.046 410.026 142.942C411.282 144.557 413.615 144.557 414.871 142.942C420.793 135.046 427.612 123.92 427.612 115.665C427.613 107.231 420.794 100.411 412.539 100.411ZM412.449 124.946C407.472 124.946 403.437 120.911 403.437 115.934C403.437 110.957 407.472 106.922 412.449 106.922C417.426 106.922 421.461 110.957 421.461 115.934C421.461 120.911 417.426 124.946 412.449 124.946Z" fill="white"/>
<mask id="mask0_136_3999" style="mask-type:luminance" maskUnits="userSpaceOnUse" x="0" y="85" width="277" height="416">
<path d="M276.098 85.722H0V500.001H276.098V85.722Z" fill="white"/>
</mask>
<g mask="url(#mask0_136_3999)">
<path d="M86.384 333.174L151.437 331.935L151.159 338.642L158.53 619.627H109.056L119.224 462.509L116.153 378.527L98.554 619.838H39.73L75.662 466.109L87.084 340.559L86.384 333.174Z" fill="#204E5F"/>
<path d="M126.08 619.627L134.062 462.775C134.062 462.775 127.127 407.727 126.516 395.54C125.906 383.352 143.058 375.202 143.058 375.202L116.153 378.527L119.224 462.509L109.056 619.627H126.08Z" fill="black"/>
<path d="M136.068 205.483C136.068 205.483 132.496 210.222 124.185 211.363C115.874 212.504 106.747 206.742 106.747 206.742L105.767 151.812C105.767 151.812 126.115 153.022 126.037 154.041C125.958 155.06 136.068 205.483 136.068 205.483Z" fill="#FFC6A8"/>
<path d="M108.887 157.986C108.717 155.881 108.682 153.909 108.707 152C109.039 152.022 109.396 152.047 109.767 152.073C109.832 152.077 109.9 152.082 109.965 152.087C110.273 152.109 110.593 152.131 110.922 152.155C110.995 152.16 111.067 152.165 111.141 152.171C111.532 152.199 111.935 152.229 112.348 152.26C112.403 152.264 112.459 152.268 112.514 152.272C112.869 152.299 113.231 152.327 113.597 152.355C113.695 152.363 113.792 152.37 113.891 152.378C114.306 152.411 114.725 152.444 115.146 152.479C115.226 152.486 115.307 152.492 115.388 152.499C115.744 152.528 116.1 152.559 116.455 152.589C116.562 152.598 116.669 152.607 116.776 152.617C117.179 152.652 117.579 152.688 117.976 152.725C118.088 152.735 118.199 152.746 118.311 152.756C118.647 152.788 118.98 152.82 119.307 152.852C119.396 152.861 119.487 152.87 119.575 152.879C119.956 152.918 120.328 152.957 120.691 152.996C120.798 153.008 120.902 153.019 121.007 153.031C121.321 153.066 121.627 153.101 121.922 153.137C121.982 153.144 122.045 153.152 122.104 153.159C122.443 153.201 122.762 153.243 123.068 153.285C123.146 153.296 123.222 153.307 123.298 153.318C123.564 153.356 123.817 153.394 124.051 153.433C124.089 153.439 124.131 153.445 124.168 153.451C124.424 153.494 124.651 153.537 124.86 153.58C124.913 153.591 124.962 153.602 125.011 153.613C125.199 153.654 125.368 153.696 125.508 153.737C125.519 153.74 125.535 153.744 125.545 153.747C125.688 153.791 125.791 153.834 125.873 153.877C125.893 153.888 125.91 153.898 125.927 153.909C125.994 153.953 126.04 153.996 126.037 154.04C125.984 154.736 130.687 178.501 133.671 193.483C116.257 194.361 110.282 175.285 108.887 157.986Z" fill="#EAA98C"/>
<path d="M140.433 185.383C130.847 187.732 111.715 184.919 109.684 156.672C107.653 128.425 122.256 117.097 132.799 119.334C143.341 121.571 150.395 145.341 151.437 157.312C152.478 169.282 152.576 182.407 140.433 185.383Z" fill="#FFC6A8"/>
<path d="M127.777 145.98C127.888 144.97 128.797 144.242 129.806 144.353C130.816 144.464 131.544 145.373 131.433 146.382C131.322 147.392 130.414 148.12 129.404 148.009C128.394 147.898 127.666 146.99 127.777 145.98Z" fill="black"/>
<path d="M140.06 144.654C140.171 143.644 141.08 142.916 142.089 143.027C143.099 143.138 143.827 144.047 143.716 145.056C143.605 146.066 142.696 146.794 141.687 146.683C140.678 146.572 139.949 145.663 140.06 144.654Z" fill="black"/>
<path d="M135.669 165.986C133.998 165.986 132.195 165.544 130.429 164.294C130.223 164.147 130.174 163.862 130.32 163.656C130.468 163.449 130.754 163.403 130.958 163.547C135.204 166.553 139.74 164.382 141.586 163.236C139.473 162.336 137.023 159.13 136.703 158.702C136.594 158.556 136.581 158.36 136.672 158.201C136.761 158.043 136.933 157.95 137.118 157.972C139.454 158.213 142.467 156.064 143.673 155.095C141.911 154.266 137.496 152.015 136.645 149.9C136.55 149.666 136.665 149.399 136.899 149.305C137.131 149.21 137.401 149.325 137.494 149.559C138.23 151.387 142.95 153.789 144.707 154.56C144.849 154.623 144.95 154.753 144.974 154.906C144.999 155.059 144.945 155.215 144.83 155.319C144.669 155.464 141.208 158.564 138.008 158.88C139.416 160.594 141.533 162.679 142.678 162.549C142.877 162.523 143.072 162.64 143.151 162.828C143.23 163.015 143.175 163.232 143.017 163.36C142.971 163.397 139.708 165.986 135.669 165.986Z" fill="black"/>
<path d="M132.903 168.135C131.32 168.135 129.978 167.325 129.495 166.671C129.345 166.467 129.388 166.181 129.591 166.031C129.796 165.883 130.08 165.924 130.231 166.128C130.609 166.64 132.033 167.426 133.527 167.167C133.769 167.114 134.012 167.29 134.055 167.539C134.099 167.788 133.932 168.025 133.683 168.068C133.419 168.114 133.158 168.135 132.903 168.135Z" fill="black"/>
<path d="M143.728 112.688C124.685 117.266 119.724 111.991 108.7 117.985C97.6763 123.98 81.1673 144.272 105.978 163.652L112.783 153.486C112.783 153.486 122.643 142.443 120.917 137.56C119.192 132.677 118.142 129.168 118.142 129.168C118.142 129.168 133.099 137.555 135.148 134.125C135.606 133.359 135.528 132.569 135.158 131.803C138.577 134.038 142.66 135.822 145.447 134.125C146.691 133.367 146.975 132.509 146.666 131.632C148.892 132.258 151.088 132.057 152.733 130.084C156.423 125.658 162.771 108.11 143.728 112.688Z" fill="black"/>
<path d="M114.735 152.791C112.679 149.116 103.385 139.213 102.208 145.248C101.031 151.283 104.365 158.328 109.33 159.902C114.293 161.476 117.025 156.886 114.735 152.791Z" fill="#FFC6A8"/>
<path d="M133.735 177.282L126.718 179.115C126.072 179.284 125.412 178.897 125.243 178.251L124.611 175.829C124.442 175.183 124.829 174.522 125.475 174.354L132.492 172.521C133.138 172.352 133.799 172.739 133.967 173.385L134.599 175.807C134.768 176.453 134.381 177.113 133.735 177.282Z" fill="#204E5F"/>
<path d="M117.842 179.813C113.57 179.813 110.213 178.138 107.945 174.82C103.7 168.612 105.042 157.339 105.406 154.836C102.916 152.403 89.1192 138.135 96.7052 127.849C97.0052 127.443 97.5792 127.355 97.9852 127.656C98.3922 127.956 98.4792 128.53 98.1782 128.936C91.0012 138.668 106.847 153.686 107.008 153.836L107.367 154.172L107.286 154.657C107.265 154.785 105.181 167.534 109.456 173.787C113.309 179.421 120.294 178.329 125.475 176.42C125.949 176.246 126.476 176.487 126.651 176.963C126.825 177.438 126.583 177.964 126.108 178.139C123.07 179.256 120.304 179.813 117.842 179.813Z" fill="#978DEF"/>
<path d="M109.392 156.922H102.14C101.472 156.922 100.931 156.381 100.931 155.713V153.21C100.931 152.542 101.472 152.001 102.14 152.001H109.392C110.06 152.001 110.601 152.542 110.601 153.21V155.713C110.601 156.38 110.06 156.922 109.392 156.922Z" fill="#204E5F"/>
<path d="M81.7292 349.782C81.7292 349.782 101.97 352.432 104.581 351.52C107.191 350.608 107.938 351.987 106.641 352.707C105.344 353.427 102.521 356.537 99.0112 356.47C95.5012 356.403 92.5232 356.547 92.5232 356.547C92.5232 356.547 95.9712 363.536 94.4962 368.801C93.0222 374.065 89.1552 399.539 87.1632 400.273C85.1712 401.006 84.3982 399.334 84.7002 397.364C84.7002 397.364 80.1852 398.855 81.2342 395.008C81.2342 395.008 78.1442 395.58 79.1742 392.376C80.2042 389.172 81.9302 375.55 82.5212 372.925C83.1122 370.299 78.1792 360.009 78.1792 360.009L81.7292 349.782Z" fill="#FFC6A8"/>
<path d="M234.39 166.807L250.648 145.475C251.125 144.849 251.939 144.582 252.694 144.803L253.729 145.106L241.164 163.97C241.164 163.97 250.828 161.098 248.959 165.675C248.959 165.675 254.186 163.989 251.439 168.837C251.439 168.837 256.932 167.71 253.728 171.396C250.524 175.082 247.875 191.856 237.297 192.156C226.719 192.455 227.892 190.051 227.892 190.051L234.39 166.807Z" fill="#FFC6A8"/>
<path d="M248.076 180.173C246.289 178.951 247.243 178.815 247.243 178.815C247.243 178.815 244.725 179.366 244.115 178.815C243.505 178.264 243.123 177.193 243.123 177.193C243.123 177.193 241.673 177.495 240.91 177.193C240.147 176.891 238.24 172.18 239.842 170.644C241.444 169.108 246.174 169.644 246.441 166.63C246.562 165.27 246.906 164.058 247.248 163.12C244.87 162.87 241.163 163.97 241.163 163.97L242.042 162.65L236.593 163.914L234.389 166.806L227.892 190.05C227.892 190.05 227.651 190.573 228.451 191.1C228.451 191.1 239.078 186.503 240.223 181.868C240.223 181.868 242.626 182.315 243.656 182.234C243.656 182.234 244.686 183.183 245.601 182.955C245.601 182.955 246.274 184.072 247.988 183.576C248.494 182.617 248.962 181.643 249.396 180.668C248.95 180.605 248.497 180.461 248.076 180.173Z" fill="#EAA98C"/>
<path d="M227.893 190.051L225.894 170.026C225.555 166.636 227.939 163.579 231.309 163.08L246.442 160.841C246.442 160.841 247.091 168.763 240.453 168.592C233.816 168.422 247.377 179.865 227.893 190.051Z" fill="#FFC6A8"/>
<path d="M223.608 188.356C223.608 188.356 216.483 222.178 199.453 224.62C188.61 226.175 174.278 217.03 165.295 210.18C159.314 205.619 151.978 203.213 144.458 203.375L93.4612 204.474C81.5692 204.73 70.7262 211.341 65.0512 221.794L12.0952 314.174L73.8572 375.116L89.7252 344.432L45.3602 304.877L78.3502 248.375L87.0842 340.559L151.159 338.641L154.846 249.827C163.795 252.271 173.796 255 180.838 256.918C196.707 261.24 235.061 256.358 241.974 223.092C248.887 189.826 248.887 189.826 248.887 189.826L223.608 188.356Z" fill="#978DEF"/>
<path d="M78.3794 248.691L82.8434 295.802C88.1504 270.941 89.4834 228.395 89.4834 228.395L78.3794 248.691Z" fill="#978DEF"/>
<path d="M223.099 195.495L222.876 197.313L245.976 200.143L246.199 198.325L223.099 195.495Z" fill="#FFB6B6"/>
<path d="M222.013 199.272L221.79 201.091L244.89 203.921L245.113 202.102L222.013 199.272Z" fill="#FFB6B6"/>
<path d="M81.9094 339.455L66.3674 362.631L64.6904 361.48L80.2314 338.304L81.9094 339.455Z" fill="#FFB6B6"/>
<path d="M85.0471 342.51L69.5061 365.686L67.8291 364.535L83.3701 341.359L85.0471 342.51Z" fill="#FFB6B6"/>
<path d="M118.145 217.224C118.145 217.224 113.953 309.647 111.582 318.616L125.077 332.737L134.062 318.616C134.062 318.616 129.185 227.223 125.077 217.224H118.145Z" fill="#204E5F"/>
<path d="M125.077 217.224H118.145C118.145 217.224 118.004 220.34 117.759 225.47C118.087 225.553 118.426 225.594 118.77 225.566L124.795 225.063C125.467 225.007 126.089 224.721 126.615 224.279C126.098 220.914 125.582 218.452 125.077 217.224Z" fill="black"/>
<path d="M130.301 212.137L126.939 219.07C126.645 219.677 126.049 220.081 125.376 220.129L117.691 220.684C117.018 220.733 116.371 220.419 115.992 219.86L111.669 213.482C111.29 212.924 111.239 212.206 111.533 211.599L114.895 204.666C115.189 204.059 115.785 203.655 116.458 203.607L124.143 203.052C124.816 203.003 125.463 203.317 125.842 203.876L130.165 210.254C130.543 210.812 130.595 211.53 130.301 212.137Z" fill="#204E5F"/>
<path d="M129.303 214.195L129.906 212.952C130.445 211.841 130.35 210.526 129.657 209.504L126.35 204.626C125.657 203.604 124.471 203.029 123.239 203.118L117.361 203.543C116.129 203.632 115.038 204.371 114.5 205.483L111.929 210.786C111.39 211.897 111.485 213.212 112.178 214.234L112.738 215.059L121.427 210.308L129.303 214.195Z" fill="black"/>
<path d="M120.897 204.855L139.701 217.298L136.773 195.587L120.911 195.919L104.673 196.259L102.497 218.078L120.897 204.855Z" fill="#978DEF"/>
</g>
</g>
<defs>
<clipPath id="clip0_136_3999">
<rect width="499.999" height="500" fill="white"/>
</clipPath>
</defs>
</svg>
