<svg width="153" height="153" viewBox="0 0 153 153" fill="none" xmlns="http://www.w3.org/2000/svg">
<g clip-path="url(#clip0_395_877)">
<path d="M93.3582 151.111C134.564 141.783 160.406 100.816 151.077 59.6098C141.749 18.4036 100.782 -7.43818 59.5758 1.89057C18.3696 11.2193 -7.47222 52.186 1.85653 93.3922C11.1853 134.598 52.152 160.44 93.3582 151.111Z" fill="#C1C0C8"/>
<path d="M88.6084 131.379C118.918 124.508 137.917 94.3665 131.046 64.0574C124.174 33.7482 94.0327 14.7485 63.7236 21.6202C33.4144 28.492 14.4147 58.6331 21.2864 88.9422C28.1582 119.251 58.2993 138.251 88.6084 131.379Z" fill="#978DEF"/>
<path d="M86.6853 122.739C112.224 116.944 128.229 91.5425 122.433 66.004C116.638 40.4654 91.2369 24.4604 65.6983 30.2558C40.1598 36.0513 24.1548 61.4524 29.9502 86.991C35.7456 112.53 61.1468 128.535 86.6853 122.739Z" fill="#4F4D6D"/>
</g>
<defs>
<clipPath id="clip0_395_877">
<rect width="153" height="153" fill="white"/>
</clipPath>
</defs>
</svg>
