<svg width="34" height="46" viewBox="0 0 34 46" fill="none" xmlns="http://www.w3.org/2000/svg">
<g clip-path="url(#clip0_194_7849)">
<path d="M32.3536 7.12495C33.2944 6.81333 33.9935 5.63808 33.9935 4.22244H33.9869C33.1245 4.9169 32.1511 5.29084 31.158 5.32646C31.1188 5.32646 31.0796 5.32646 31.0404 5.32646H24.9709V0.242614H25.1735C24.9905 -0.745665 25.0297 -1.81407 25.2911 -2.76674C25.2911 -2.96261 25.2911 -3.14958 25.3041 -3.34546H24.9709C24.2588 -3.34546 23.612 -2.9359 23.1481 -2.28595C22.6777 -1.63601 22.3903 -0.727858 22.3903 0.26042V1.46238C23.5336 1.81852 23.5336 4.32928 22.3903 4.68541V5.29084C22.3903 7.28521 23.5467 8.89672 24.9709 8.90563L31.0469 8.92343C32.0792 8.92343 33.0984 9.30628 33.9935 10.0275L34 10.0364C34 8.62072 33.2944 7.43656 32.3536 7.12495Z" fill="#978DEF"/>
<path d="M28.0071 40.2442C30.6573 39.6331 32.6216 37.294 32.6216 34.495H32.6083C30.1845 35.8682 27.4477 36.6238 24.6577 36.6764C24.5445 36.6829 24.4313 36.6829 24.3181 36.6829H7.25813V26.5907H15.1022V19.4683H7.25813C5.25382 19.4683 3.43596 20.2699 2.12417 21.5708C0.805719 22.8652 0 24.6524 0 26.6301V29.0086C3.22288 29.7182 3.21622 34.6987 0 35.4083V36.6172C0 40.5661 3.24285 43.7725 7.25147 43.7791L24.3314 43.8054C27.2413 43.8054 30.0979 44.561 32.615 45.9868L32.6283 45.9999C32.6216 43.2009 30.6573 40.8618 28.0071 40.2442Z" fill="#978DEF"/>
<path d="M28.0004 20.3488C30.6506 19.5866 32.6216 16.6956 32.6216 13.2395H32.6083C30.1911 14.9413 27.4477 15.8677 24.6577 15.94V4.35624H24.924C24.5045 3.56778 24.4179 2.61506 24.6443 1.74775C24.2781 1.24182 24.0717 0.630767 24.0184 0H23.266C22.7466 0.781888 21.8676 1.33381 20.6291 1.33381C19.3839 1.33381 18.5049 0.781888 17.9855 0H17.3995V34.4294H24.6577V24.751C27.4477 24.8102 30.1911 25.7432 32.6083 27.4449L32.6216 27.4515C32.6216 23.9954 30.6506 21.1044 28.0004 20.3488Z" fill="#978DEF"/>
</g>
<defs>
<clipPath id="clip0_194_7849">
<rect width="34" height="46" fill="white"/>
</clipPath>
</defs>
</svg>
